<?xml version="1.0" standalone="no"?>
 <!DOCTYPE svg PUBLIC "-//W3C//DTD SVG 1.1//EN" 
 "http://www.w3.org/Graphics/SVG/1.1/DTD/svg11.dtd"> 
<svg xmlns="http://www.w3.org/2000/svg" version="1.1" 
    width="5cm" height="3cm" viewBox="0 0 29092 29092 ">
<title>SVG Picture created as curtains-driver-B.Cu.svg date 2018/12/25 23:26:53 </title>
  <desc>Picture generated by PCBNEW </desc>
<g transform="translate(-29092 -23075)">
<g style="fill:#000000; fill-opacity:1;stroke:#000000; stroke-opacity:1;
stroke-linecap:round; stroke-linejoin:round; "
 transform="translate(0 0) scale(1 1)">
</g>
<g style="fill:#000000; fill-opacity:0.0; 
stroke:#000000; stroke-width:-0.000393701; stroke-opacity:1; 
stroke-linecap:round; stroke-linejoin:round;">
</g>
<g style="fill:#000000; fill-opacity:1.0; 
stroke:#000000; stroke-width:39.3701; stroke-opacity:1; 
stroke-linecap:round; stroke-linejoin:round;">
<rect x="29092.1" y="23075.4" width="25671.7" height="17214.8" rx="0" />
</g>
<g style="fill:#FFFFFF; fill-opacity:1.0; 
stroke:#FFFFFF; stroke-width:39.3701; stroke-opacity:1; 
stroke-linecap:round; stroke-linejoin:round;">
</g>
<g style="fill:#FFFFFF; fill-opacity:1.0; 
stroke:#FFFFFF; stroke-width:78.7402; stroke-opacity:1; 
stroke-linecap:round; stroke-linejoin:round;">
</g>
<g style="fill:#FFFFFF; fill-opacity:0.0; 
stroke:#FFFFFF; stroke-width:78.7402; stroke-opacity:1; 
stroke-linecap:round; stroke-linejoin:round;">
<path d="M52755 25100
L52755 36800
" />
<path d="M31100 25100
L31100 36800
" />
</g>
<g style="fill:#FFFFFF; fill-opacity:0.0; 
stroke:#FFFFFF; stroke-width:59.0551; stroke-opacity:1; 
stroke-linecap:round; stroke-linejoin:round;">
<path d="M52755 36811
L31102 36800
" />
<path d="M31102 25100
L52755 25100
" />
</g>
<g style="fill:#FFFFFF; fill-opacity:0.0; 
stroke:#FFFFFF; stroke-width:0; stroke-opacity:1; 
stroke-linecap:round; stroke-linejoin:round;">
</g>
<g style="fill:#FFFFFF; fill-opacity:1.0; 
stroke:#FFFFFF; stroke-width:0; stroke-opacity:1; 
stroke-linecap:round; stroke-linejoin:round;">
<polyline style="fill-rule:evenodd;"
points="47005,29005
47015,29007
47024,29009
47033,29013
47042,29017
47050,29022
47058,29027
47065,29034
47072,29041
47077,29049
47082,29057
47086,29066
47090,29075
47092,29084
47094,29094
47094,29103
47094,29468
47094,29477
47092,29487
47090,29496
47086,29505
47082,29514
47077,29522
47072,29530
47065,29537
47058,29544
47050,29549
47042,29554
47033,29559
47024,29562
47015,29564
47005,29566
46996,29566
46503,29566
46494,29566
46484,29564
46475,29562
46466,29559
46457,29554
46449,29549
46441,29544
46434,29537
46427,29530
46422,29522
46417,29514
46413,29505
46409,29496
46407,29487
46405,29477
46405,29468
46405,29103
46405,29094
46407,29084
46409,29075
46413,29066
46417,29057
46422,29049
46427,29041
46434,29034
46441,29027
46449,29022
46457,29017
46466,29013
46475,29009
46484,29007
46494,29005
46503,29005
46996,29005
47005,29005
" /> 
<polyline style="fill-rule:evenodd;"
points="47005,30177
47015,30178
47024,30181
47033,30184
47042,30188
47050,30193
47058,30199
47065,30205
47072,30212
47077,30220
47082,30228
47086,30237
47090,30246
47092,30255
47094,30265
47094,30275
47094,30639
47094,30649
47092,30658
47090,30667
47086,30677
47082,30685
47077,30694
47072,30701
47065,30708
47058,30715
47050,30721
47042,30726
47033,30730
47024,30733
47015,30735
47005,30737
46996,30737
46503,30737
46494,30737
46484,30735
46475,30733
46466,30730
46457,30726
46449,30721
46441,30715
46434,30708
46427,30701
46422,30694
46417,30685
46413,30677
46409,30667
46407,30658
46405,30649
46405,30639
46405,30275
46405,30265
46407,30255
46409,30246
46413,30237
46417,30228
46422,30220
46427,30212
46434,30205
46441,30199
46449,30193
46457,30188
46466,30184
46475,30181
46484,30178
46494,30177
46503,30176
46996,30176
47005,30177
" /> 
<polyline style="fill-rule:evenodd;"
points="45831,34634
45840,34635
45850,34638
45859,34641
45868,34645
45876,34650
45884,34656
45891,34662
45897,34669
45903,34677
45908,34685
45912,34694
45915,34703
45918,34713
45919,34722
45920,34732
45920,35096
45919,35106
45918,35115
45915,35125
45912,35134
45908,35142
45903,35151
45897,35158
45891,35166
45884,35172
45876,35178
45868,35183
45859,35187
45850,35190
45840,35192
45831,35194
45821,35194
45329,35194
45319,35194
45310,35192
45300,35190
45291,35187
45283,35183
45274,35178
45267,35172
45259,35166
45253,35158
45247,35151
45242,35142
45238,35134
45235,35125
45232,35115
45231,35106
45231,35096
45231,34732
45231,34722
45232,34713
45235,34703
45238,34694
45242,34685
45247,34677
45253,34669
45259,34662
45267,34656
45274,34650
45283,34645
45291,34641
45300,34638
45310,34635
45319,34634
45329,34633
45821,34633
45831,34634
" /> 
<polyline style="fill-rule:evenodd;"
points="45831,35805
45840,35807
45850,35809
45859,35812
45868,35816
45876,35821
45884,35827
45891,35833
45897,35841
45903,35848
45908,35857
45912,35865
45915,35874
45918,35884
45919,35893
45920,35903
45920,36267
45919,36277
45918,36286
45915,36296
45912,36305
45908,36314
45903,36322
45897,36330
45891,36337
45884,36343
45876,36349
45868,36354
45859,36358
45850,36361
45840,36364
45831,36365
45821,36366
45329,36366
45319,36365
45310,36364
45300,36361
45291,36358
45283,36354
45274,36349
45267,36343
45259,36337
45253,36330
45247,36322
45242,36314
45238,36305
45235,36296
45232,36286
45231,36277
45231,36267
45231,35903
45231,35893
45232,35884
45235,35874
45238,35865
45242,35857
45247,35848
45253,35841
45259,35833
45267,35827
45274,35821
45283,35816
45291,35812
45300,35809
45310,35807
45319,35805
45329,35805
45821,35805
45831,35805
" /> 
<polyline style="fill-rule:evenodd;"
points="37834,31374
37843,31376
37852,31378
37862,31381
37870,31386
37879,31390
37886,31396
37894,31403
37900,31410
37906,31418
37911,31426
37915,31435
37918,31444
37920,31453
37922,31463
37922,31472
37922,31827
37922,31836
37920,31846
37918,31855
37915,31864
37911,31873
37906,31881
37900,31889
37894,31896
37886,31903
37879,31909
37870,31913
37862,31918
37852,31921
37843,31923
37834,31925
37824,31925
37568,31925
37558,31925
37549,31923
37539,31921
37530,31918
37522,31913
37513,31909
37506,31903
37498,31896
37492,31889
37486,31881
37481,31873
37477,31864
37474,31855
37471,31846
37470,31836
37470,31827
37470,31472
37470,31463
37471,31453
37474,31444
37477,31435
37481,31426
37486,31418
37492,31410
37498,31403
37506,31396
37513,31390
37522,31386
37530,31381
37539,31378
37549,31376
37558,31374
37568,31374
37824,31374
37834,31374
" /> 
<polyline style="fill-rule:evenodd;"
points="38641,31374
38650,31376
38660,31378
38669,31381
38677,31386
38686,31390
38693,31396
38701,31403
38707,31410
38713,31418
38718,31426
38722,31435
38725,31444
38728,31453
38729,31463
38729,31472
38729,31827
38729,31836
38728,31846
38725,31855
38722,31864
38718,31873
38713,31881
38707,31889
38701,31896
38693,31903
38686,31909
38677,31913
38669,31918
38660,31921
38650,31923
38641,31925
38631,31925
38375,31925
38365,31925
38356,31923
38347,31921
38337,31918
38329,31913
38320,31909
38313,31903
38305,31896
38299,31889
38293,31881
38288,31873
38284,31864
38281,31855
38279,31846
38277,31836
38277,31827
38277,31472
38277,31463
38279,31453
38281,31444
38284,31435
38288,31426
38293,31418
38299,31410
38305,31403
38313,31396
38320,31390
38329,31386
38337,31381
38347,31378
38356,31376
38365,31374
38375,31374
38631,31374
38641,31374
" /> 
<polyline style="fill-rule:evenodd;"
points="38641,32161
38650,32163
38660,32165
38669,32168
38677,32173
38686,32178
38693,32183
38701,32190
38707,32197
38713,32205
38718,32213
38722,32222
38725,32231
38728,32240
38729,32250
38729,32259
38729,32614
38729,32623
38728,32633
38725,32642
38722,32651
38718,32660
38713,32668
38707,32676
38701,32683
38693,32690
38686,32696
38677,32700
38669,32705
38660,32708
38650,32710
38641,32712
38631,32712
38375,32712
38365,32712
38356,32710
38347,32708
38337,32705
38329,32700
38320,32696
38313,32690
38305,32683
38299,32676
38293,32668
38288,32660
38284,32651
38281,32642
38279,32633
38277,32623
38277,32614
38277,32259
38277,32250
38279,32240
38281,32231
38284,32222
38288,32213
38293,32205
38299,32197
38305,32190
38313,32183
38320,32178
38329,32173
38337,32168
38347,32165
38356,32163
38365,32161
38375,32161
38631,32161
38641,32161
" /> 
<polyline style="fill-rule:evenodd;"
points="37834,32161
37843,32163
37852,32165
37862,32168
37870,32173
37879,32178
37886,32183
37894,32190
37900,32197
37906,32205
37911,32213
37915,32222
37918,32231
37920,32240
37922,32250
37922,32259
37922,32614
37922,32623
37920,32633
37918,32642
37915,32651
37911,32660
37906,32668
37900,32676
37894,32683
37886,32690
37879,32696
37870,32700
37862,32705
37852,32708
37843,32710
37834,32712
37824,32712
37568,32712
37558,32712
37549,32710
37539,32708
37530,32705
37522,32700
37513,32696
37506,32690
37498,32683
37492,32676
37486,32668
37481,32660
37477,32651
37474,32642
37471,32633
37470,32623
37470,32614
37470,32259
37470,32250
37471,32240
37474,32231
37477,32222
37481,32213
37486,32205
37492,32197
37498,32190
37506,32183
37513,32178
37522,32173
37530,32168
37539,32165
37549,32163
37558,32161
37568,32161
37824,32161
37834,32161
" /> 
<polyline style="fill-rule:evenodd;"
points="37834,32949
37843,32950
37852,32953
37862,32956
37870,32960
37879,32965
37886,32971
37894,32977
37900,32984
37906,32992
37911,33000
37915,33009
37918,33018
37920,33028
37922,33037
37922,33047
37922,33401
37922,33411
37920,33420
37918,33430
37915,33439
37911,33447
37906,33456
37900,33464
37894,33471
37886,33477
37879,33483
37870,33488
37862,33492
37852,33495
37843,33498
37834,33499
37824,33500
37568,33500
37558,33499
37549,33498
37539,33495
37530,33492
37522,33488
37513,33483
37506,33477
37498,33471
37492,33464
37486,33456
37481,33447
37477,33439
37474,33430
37471,33420
37470,33411
37470,33401
37470,33047
37470,33037
37471,33028
37474,33018
37477,33009
37481,33000
37486,32992
37492,32984
37498,32977
37506,32971
37513,32965
37522,32960
37530,32956
37539,32953
37549,32950
37558,32949
37568,32948
37824,32948
37834,32949
" /> 
<polyline style="fill-rule:evenodd;"
points="38641,32949
38650,32950
38660,32953
38669,32956
38677,32960
38686,32965
38693,32971
38701,32977
38707,32984
38713,32992
38718,33000
38722,33009
38725,33018
38728,33028
38729,33037
38729,33047
38729,33401
38729,33411
38728,33420
38725,33430
38722,33439
38718,33447
38713,33456
38707,33464
38701,33471
38693,33477
38686,33483
38677,33488
38669,33492
38660,33495
38650,33498
38641,33499
38631,33500
38375,33500
38365,33499
38356,33498
38347,33495
38337,33492
38329,33488
38320,33483
38313,33477
38305,33471
38299,33464
38293,33456
38288,33447
38284,33439
38281,33430
38279,33420
38277,33411
38277,33401
38277,33047
38277,33037
38279,33028
38281,33018
38284,33009
38288,33000
38293,32992
38299,32984
38305,32977
38313,32971
38320,32965
38329,32960
38337,32956
38347,32953
38356,32950
38365,32949
38375,32948
38631,32948
38641,32949
" /> 
<polyline style="fill-rule:evenodd;"
points="49536,35577
49546,35579
49555,35581
49564,35584
49573,35588
49581,35593
49589,35599
49596,35605
49603,35613
49609,35620
49613,35629
49618,35637
49621,35647
49623,35656
49625,35665
49625,35675
49625,35931
49625,35941
49623,35950
49621,35960
49618,35969
49613,35977
49609,35986
49603,35993
49596,36001
49589,36007
49581,36013
49573,36018
49564,36022
49555,36025
49546,36028
49536,36029
49527,36029
49172,36029
49163,36029
49153,36028
49144,36025
49135,36022
49126,36018
49118,36013
49110,36007
49103,36001
49096,35993
49090,35986
49086,35977
49081,35969
49078,35960
49076,35950
49074,35941
49074,35931
49074,35675
49074,35665
49076,35656
49078,35647
49081,35637
49086,35629
49090,35620
49096,35613
49103,35605
49110,35599
49118,35593
49126,35588
49135,35584
49144,35581
49153,35579
49163,35577
49172,35577
49527,35577
49536,35577
" /> 
<polyline style="fill-rule:evenodd;"
points="49536,34770
49546,34771
49555,34774
49564,34777
49573,34781
49581,34786
49589,34792
49596,34798
49603,34806
49609,34813
49613,34822
49618,34830
49621,34839
49623,34849
49625,34858
49625,34868
49625,35124
49625,35134
49623,35143
49621,35152
49618,35162
49613,35170
49609,35179
49603,35186
49596,35194
49589,35200
49581,35206
49573,35211
49564,35215
49555,35218
49546,35220
49536,35222
49527,35222
49172,35222
49163,35222
49153,35220
49144,35218
49135,35215
49126,35211
49118,35206
49110,35200
49103,35194
49096,35186
49090,35179
49086,35170
49081,35162
49078,35152
49076,35143
49074,35134
49074,35124
49074,34868
49074,34858
49076,34849
49078,34839
49081,34830
49086,34822
49090,34813
49096,34806
49103,34798
49110,34792
49118,34786
49126,34781
49135,34777
49144,34774
49153,34771
49163,34770
49172,34770
49527,34770
49536,34770
" /> 
<polyline style="fill-rule:evenodd;"
points="49536,30510
49546,30511
49555,30514
49564,30517
49573,30521
49581,30526
49589,30532
49596,30538
49603,30546
49609,30553
49613,30562
49618,30570
49621,30579
49623,30589
49625,30598
49625,30608
49625,30864
49625,30874
49623,30883
49621,30893
49618,30902
49613,30910
49609,30919
49603,30926
49596,30934
49589,30940
49581,30946
49573,30951
49564,30955
49555,30958
49546,30960
49536,30962
49527,30962
49172,30962
49163,30962
49153,30960
49144,30958
49135,30955
49126,30951
49118,30946
49110,30940
49103,30934
49096,30926
49090,30919
49086,30910
49081,30902
49078,30893
49076,30883
49074,30874
49074,30864
49074,30608
49074,30598
49076,30589
49078,30579
49081,30570
49086,30562
49090,30553
49096,30546
49103,30538
49110,30532
49118,30526
49126,30521
49135,30517
49144,30514
49153,30511
49163,30510
49172,30510
49527,30510
49536,30510
" /> 
<polyline style="fill-rule:evenodd;"
points="49536,29703
49546,29704
49555,29707
49564,29710
49573,29714
49581,29719
49589,29725
49596,29731
49603,29739
49609,29746
49613,29755
49618,29763
49621,29772
49623,29782
49625,29791
49625,29801
49625,30057
49625,30066
49623,30076
49621,30085
49618,30095
49613,30103
49609,30112
49603,30119
49596,30126
49589,30133
49581,30139
49573,30144
49564,30148
49555,30151
49546,30153
49536,30155
49527,30155
49172,30155
49163,30155
49153,30153
49144,30151
49135,30148
49126,30144
49118,30139
49110,30133
49103,30126
49096,30119
49090,30112
49086,30103
49081,30095
49078,30085
49076,30076
49074,30066
49074,30057
49074,29801
49074,29791
49076,29782
49078,29772
49081,29763
49086,29755
49090,29746
49096,29739
49103,29731
49110,29725
49118,29719
49126,29714
49135,29710
49144,29707
49153,29704
49163,29703
49172,29703
49527,29703
49536,29703
" /> 
<polyline style="fill-rule:evenodd;"
points="48786,29703
48796,29704
48805,29707
48814,29710
48823,29714
48831,29719
48839,29725
48846,29731
48853,29739
48859,29746
48863,29755
48868,29763
48871,29772
48873,29782
48875,29791
48875,29801
48875,30057
48875,30066
48873,30076
48871,30085
48868,30095
48863,30103
48859,30112
48853,30119
48846,30126
48839,30133
48831,30139
48823,30144
48814,30148
48805,30151
48796,30153
48786,30155
48777,30155
48422,30155
48413,30155
48403,30153
48394,30151
48385,30148
48376,30144
48368,30139
48360,30133
48353,30126
48346,30119
48340,30112
48336,30103
48331,30095
48328,30085
48326,30076
48324,30066
48324,30057
48324,29801
48324,29791
48326,29782
48328,29772
48331,29763
48336,29755
48340,29746
48346,29739
48353,29731
48360,29725
48368,29719
48376,29714
48385,29710
48394,29707
48403,29704
48413,29703
48422,29703
48777,29703
48786,29703
" /> 
<polyline style="fill-rule:evenodd;"
points="48786,30510
48796,30511
48805,30514
48814,30517
48823,30521
48831,30526
48839,30532
48846,30538
48853,30546
48859,30553
48863,30562
48868,30570
48871,30579
48873,30589
48875,30598
48875,30608
48875,30864
48875,30874
48873,30883
48871,30893
48868,30902
48863,30910
48859,30919
48853,30926
48846,30934
48839,30940
48831,30946
48823,30951
48814,30955
48805,30958
48796,30960
48786,30962
48777,30962
48422,30962
48413,30962
48403,30960
48394,30958
48385,30955
48376,30951
48368,30946
48360,30940
48353,30934
48346,30926
48340,30919
48336,30910
48331,30902
48328,30893
48326,30883
48324,30874
48324,30864
48324,30608
48324,30598
48326,30589
48328,30579
48331,30570
48336,30562
48340,30553
48346,30546
48353,30538
48360,30532
48368,30526
48376,30521
48385,30517
48394,30514
48403,30511
48413,30510
48422,30510
48777,30510
48786,30510
" /> 
<polyline style="fill-rule:evenodd;"
points="47286,28272
47296,28274
47305,28276
47314,28279
47323,28283
47331,28288
47339,28294
47346,28301
47353,28308
47359,28315
47363,28324
47368,28333
47371,28342
47373,28351
47375,28361
47375,28370
47375,28626
47375,28636
47373,28645
47371,28655
47368,28664
47363,28672
47359,28681
47353,28689
47346,28696
47339,28702
47331,28708
47323,28713
47314,28717
47305,28720
47296,28723
47286,28724
47277,28725
46922,28725
46913,28724
46903,28723
46894,28720
46885,28717
46876,28713
46868,28708
46860,28702
46853,28696
46846,28689
46840,28681
46836,28672
46831,28664
46828,28655
46826,28645
46824,28636
46824,28626
46824,28370
46824,28361
46826,28351
46828,28342
46831,28333
46836,28324
46840,28315
46846,28308
46853,28301
46860,28294
46868,28288
46876,28283
46885,28279
46894,28276
46903,28274
46913,28272
46922,28272
47277,28272
47286,28272
" /> 
<polyline style="fill-rule:evenodd;"
points="47286,27465
47296,27467
47305,27469
47314,27472
47323,27476
47331,27481
47339,27487
47346,27493
47353,27501
47359,27508
47363,27517
47368,27525
47371,27535
47373,27544
47375,27553
47375,27563
47375,27819
47375,27829
47373,27838
47371,27848
47368,27857
47363,27865
47359,27874
47353,27881
47346,27889
47339,27895
47331,27901
47323,27906
47314,27910
47305,27913
47296,27916
47286,27917
47277,27917
46922,27917
46913,27917
46903,27916
46894,27913
46885,27910
46876,27906
46868,27901
46860,27895
46853,27889
46846,27881
46840,27874
46836,27865
46831,27857
46828,27848
46826,27838
46824,27829
46824,27819
46824,27563
46824,27553
46826,27544
46828,27535
46831,27525
46836,27517
46840,27508
46846,27501
46853,27493
46860,27487
46868,27481
46876,27476
46885,27472
46894,27469
46903,27467
46913,27465
46922,27465
47277,27465
47286,27465
" /> 
<polyline style="fill-rule:evenodd;"
points="48036,28253
48046,28254
48055,28256
48064,28260
48073,28264
48081,28269
48089,28274
48096,28281
48103,28288
48109,28296
48113,28304
48118,28313
48121,28322
48123,28331
48125,28341
48125,28350
48125,28606
48125,28616
48123,28626
48121,28635
48118,28644
48113,28653
48109,28661
48103,28669
48096,28676
48089,28682
48081,28688
48073,28693
48064,28697
48055,28701
48046,28703
48036,28704
48027,28705
47672,28705
47663,28704
47653,28703
47644,28701
47635,28697
47626,28693
47618,28688
47610,28682
47603,28676
47596,28669
47590,28661
47586,28653
47581,28644
47578,28635
47576,28626
47574,28616
47574,28606
47574,28350
47574,28341
47576,28331
47578,28322
47581,28313
47586,28304
47590,28296
47596,28288
47603,28281
47610,28274
47618,28269
47626,28264
47635,28260
47644,28256
47653,28254
47663,28253
47672,28252
48027,28252
48036,28253
" /> 
<polyline style="fill-rule:evenodd;"
points="48036,29060
48046,29061
48055,29063
48064,29067
48073,29071
48081,29076
48089,29081
48096,29088
48103,29095
48109,29103
48113,29111
48118,29120
48121,29129
48123,29138
48125,29148
48125,29158
48125,29413
48125,29423
48123,29433
48121,29442
48118,29451
48113,29460
48109,29468
48103,29476
48096,29483
48089,29490
48081,29495
48073,29500
48064,29504
48055,29508
48046,29510
48036,29511
48027,29512
47672,29512
47663,29511
47653,29510
47644,29508
47635,29504
47626,29500
47618,29495
47610,29490
47603,29483
47596,29476
47590,29468
47586,29460
47581,29451
47578,29442
47576,29433
47574,29423
47574,29413
47574,29158
47574,29148
47576,29138
47578,29129
47581,29120
47586,29111
47590,29103
47596,29095
47603,29088
47610,29081
47618,29076
47626,29071
47635,29067
47644,29063
47653,29061
47663,29060
47672,29059
48027,29059
48036,29060
" /> 
<polyline style="fill-rule:evenodd;"
points="48786,29060
48796,29061
48805,29063
48814,29067
48823,29071
48831,29076
48839,29081
48846,29088
48853,29095
48859,29103
48863,29111
48868,29120
48871,29129
48873,29138
48875,29148
48875,29158
48875,29413
48875,29423
48873,29433
48871,29442
48868,29451
48863,29460
48859,29468
48853,29476
48846,29483
48839,29490
48831,29495
48823,29500
48814,29504
48805,29508
48796,29510
48786,29511
48777,29512
48422,29512
48413,29511
48403,29510
48394,29508
48385,29504
48376,29500
48368,29495
48360,29490
48353,29483
48346,29476
48340,29468
48336,29460
48331,29451
48328,29442
48326,29433
48324,29423
48324,29413
48324,29158
48324,29148
48326,29138
48328,29129
48331,29120
48336,29111
48340,29103
48346,29095
48353,29088
48360,29081
48368,29076
48376,29071
48385,29067
48394,29063
48403,29061
48413,29060
48422,29059
48777,29059
48786,29060
" /> 
<polyline style="fill-rule:evenodd;"
points="48786,28253
48796,28254
48805,28256
48814,28260
48823,28264
48831,28269
48839,28274
48846,28281
48853,28288
48859,28296
48863,28304
48868,28313
48871,28322
48873,28331
48875,28341
48875,28350
48875,28606
48875,28616
48873,28626
48871,28635
48868,28644
48863,28653
48859,28661
48853,28669
48846,28676
48839,28682
48831,28688
48823,28693
48814,28697
48805,28701
48796,28703
48786,28704
48777,28705
48422,28705
48413,28704
48403,28703
48394,28701
48385,28697
48376,28693
48368,28688
48360,28682
48353,28676
48346,28669
48340,28661
48336,28653
48331,28644
48328,28635
48326,28626
48324,28616
48324,28606
48324,28350
48324,28341
48326,28331
48328,28322
48331,28313
48336,28304
48340,28296
48346,28288
48353,28281
48360,28274
48368,28269
48376,28264
48385,28260
48394,28256
48403,28254
48413,28253
48422,28252
48777,28252
48786,28253
" /> 
<circle cx="50400" cy="27600" r="413.386" /> 
</g>
<g style="fill:#FFFFFF; fill-opacity:1.0; 
stroke:#FFFFFF; stroke-width:39.3701; stroke-opacity:1; 
stroke-linecap:round; stroke-linejoin:round;">
</g>
<g style="fill:#FFFFFF; fill-opacity:1.0; 
stroke:#FFFFFF; stroke-width:0; stroke-opacity:1; 
stroke-linecap:round; stroke-linejoin:round;">
<polyline style="fill-rule:evenodd;"
points="49986,26186
50813,26186
50813,27013
49986,27013
49986,26186
" /> 
<polyline style="fill-rule:evenodd;"
points="50813,30342
49986,30342
49986,29516
50813,29516
50813,30342
" /> 
<circle cx="50400" cy="28929.4" r="413.386" /> 
</g>
<g style="fill:#FFFFFF; fill-opacity:1.0; 
stroke:#FFFFFF; stroke-width:39.3701; stroke-opacity:1; 
stroke-linecap:round; stroke-linejoin:round;">
</g>
<g style="fill:#FFFFFF; fill-opacity:1.0; 
stroke:#FFFFFF; stroke-width:0; stroke-opacity:1; 
stroke-linecap:round; stroke-linejoin:round;">
<circle cx="50414.4" cy="33979.4" r="413.386" /> 
</g>
<g style="fill:#FFFFFF; fill-opacity:1.0; 
stroke:#FFFFFF; stroke-width:39.3701; stroke-opacity:1; 
stroke-linecap:round; stroke-linejoin:round;">
</g>
<g style="fill:#FFFFFF; fill-opacity:1.0; 
stroke:#FFFFFF; stroke-width:0; stroke-opacity:1; 
stroke-linecap:round; stroke-linejoin:round;">
<polyline style="fill-rule:evenodd;"
points="50827,35392
50001,35392
50001,34566
50827,34566
50827,35392
" /> 
<polyline style="fill-rule:evenodd;"
points="50827,33092
50001,33092
50001,32266
50827,32266
50827,33092
" /> 
<circle cx="50414.4" cy="31679.4" r="413.386" /> 
</g>
<g style="fill:#FFFFFF; fill-opacity:1.0; 
stroke:#FFFFFF; stroke-width:39.3701; stroke-opacity:1; 
stroke-linecap:round; stroke-linejoin:round;">
</g>
<g style="fill:#FFFFFF; fill-opacity:1.0; 
stroke:#FFFFFF; stroke-width:669.291; stroke-opacity:1; 
stroke-linecap:round; stroke-linejoin:round;">
</g>
<g style="fill:#FFFFFF; fill-opacity:0.0; 
stroke:#FFFFFF; stroke-width:669.291; stroke-opacity:1; 
stroke-linecap:round; stroke-linejoin:round;">
<path d="M32749 32924
L32650 32924
" />
<path d="M32749 31939
L32650 31939
" />
<path d="M32749 30955
L32650 30955
" />
<path d="M32749 29971
L32650 29971
" />
</g>
<g style="fill:#FFFFFF; fill-opacity:0.0; 
stroke:#FFFFFF; stroke-width:0; stroke-opacity:1; 
stroke-linecap:round; stroke-linejoin:round;">
</g>
<g style="fill:#FFFFFF; fill-opacity:1.0; 
stroke:#FFFFFF; stroke-width:0; stroke-opacity:1; 
stroke-linecap:round; stroke-linejoin:round;">
<polyline style="fill-rule:evenodd;"
points="32995,28652
33004,28654
33014,28656
33023,28659
33031,28663
33040,28668
33047,28674
33055,28681
33061,28688
33067,28696
33072,28704
33076,28713
33079,28722
33081,28731
33083,28741
33083,28750
33083,29223
33083,29232
33081,29242
33079,29251
33076,29260
33072,29269
33067,29277
33061,29285
33055,29292
33047,29299
33040,29305
33031,29310
33023,29314
33014,29317
33004,29319
32995,29321
32985,29321
32414,29321
32404,29321
32395,29319
32385,29317
32376,29314
32368,29310
32359,29305
32352,29299
32344,29292
32338,29285
32332,29277
32327,29269
32323,29260
32320,29251
32318,29242
32316,29232
32316,29223
32316,28750
32316,28741
32318,28731
32320,28722
32323,28713
32327,28704
32332,28696
32338,28688
32344,28681
32352,28674
32359,28668
32368,28663
32376,28659
32385,28656
32395,28654
32404,28652
32414,28652
32985,28652
32995,28652
" /> 
<polyline style="fill-rule:evenodd;"
points="40796,35171
40362,35171
40362,34187
40796,34187
40796,35171
" /> 
<polyline style="fill-rule:evenodd;"
points="41583,35171
41150,35171
41150,34187
41583,34187
41583,35171
" /> 
<polyline style="fill-rule:evenodd;"
points="42370,35171
41937,35171
41937,34187
42370,34187
42370,35171
" /> 
<polyline style="fill-rule:evenodd;"
points="43158,35171
42725,35171
42725,34187
43158,34187
43158,35171
" /> 
<polyline style="fill-rule:evenodd;"
points="43945,35171
43512,35171
43512,34187
43945,34187
43945,35171
" /> 
<polyline style="fill-rule:evenodd;"
points="44733,35171
44300,35171
44300,34187
44733,34187
44733,35171
" /> 
<polyline style="fill-rule:evenodd;"
points="40004,28282
40004,28715
39020,28715
39020,28282
40004,28282
" /> 
<polyline style="fill-rule:evenodd;"
points="40004,29069
40004,29502
39020,29502
39020,29069
40004,29069
" /> 
<polyline style="fill-rule:evenodd;"
points="40004,29856
40004,30289
39020,30289
39020,29856
40004,29856
" /> 
<polyline style="fill-rule:evenodd;"
points="40004,30644
40004,31077
39020,31077
39020,30644
40004,30644
" /> 
<polyline style="fill-rule:evenodd;"
points="40004,31431
40004,31864
39020,31864
39020,31431
40004,31431
" /> 
<polyline style="fill-rule:evenodd;"
points="40004,32219
40004,32652
39020,32652
39020,32219
40004,32219
" /> 
<polyline style="fill-rule:evenodd;"
points="40004,33006
40004,33439
39020,33439
39020,33006
40004,33006
" /> 
<polyline style="fill-rule:evenodd;"
points="40004,33793
40004,34226
39020,34226
39020,33793
40004,33793
" /> 
<polyline style="fill-rule:evenodd;"
points="46067,33793
46067,34226
45083,34226
45083,33793
46067,33793
" /> 
<polyline style="fill-rule:evenodd;"
points="46067,33006
46067,33439
45083,33439
45083,33006
46067,33006
" /> 
<polyline style="fill-rule:evenodd;"
points="46067,32219
46067,32652
45083,32652
45083,32219
46067,32219
" /> 
<polyline style="fill-rule:evenodd;"
points="46067,31431
46067,31864
45083,31864
45083,31431
46067,31431
" /> 
<polyline style="fill-rule:evenodd;"
points="46067,30644
46067,31077
45083,31077
45083,30644
46067,30644
" /> 
<polyline style="fill-rule:evenodd;"
points="46067,29856
46067,30289
45083,30289
45083,29856
46067,29856
" /> 
<polyline style="fill-rule:evenodd;"
points="46067,29069
46067,29502
45083,29502
45083,29069
46067,29069
" /> 
<polyline style="fill-rule:evenodd;"
points="46067,28282
46067,28715
45083,28715
45083,28282
46067,28282
" /> 
<polyline style="fill-rule:evenodd;"
points="47005,32942
47015,32944
47024,32946
47033,32950
47042,32954
47050,32959
47058,32964
47065,32971
47072,32978
47077,32986
47082,32994
47086,33003
47090,33012
47092,33021
47094,33031
47094,33040
47094,33405
47094,33414
47092,33424
47090,33433
47086,33442
47082,33451
47077,33459
47072,33467
47065,33474
47058,33481
47050,33486
47042,33491
47033,33496
47024,33499
47015,33501
47005,33503
46996,33503
46503,33503
46494,33503
46484,33501
46475,33499
46466,33496
46457,33491
46449,33486
46441,33481
46434,33474
46427,33467
46422,33459
46417,33451
46413,33442
46409,33433
46407,33424
46405,33414
46405,33405
46405,33040
46405,33031
46407,33021
46409,33012
46413,33003
46417,32994
46422,32986
46427,32978
46434,32971
46441,32964
46449,32959
46457,32954
46466,32950
46475,32946
46484,32944
46494,32942
46503,32942
46996,32942
47005,32942
" /> 
<polyline style="fill-rule:evenodd;"
points="47005,34114
47015,34115
47024,34118
47033,34121
47042,34125
47050,34130
47058,34136
47065,34142
47072,34149
47077,34157
47082,34165
47086,34174
47090,34183
47092,34193
47094,34202
47094,34212
47094,34576
47094,34586
47092,34595
47090,34604
47086,34614
47082,34622
47077,34631
47072,34638
47065,34645
47058,34652
47050,34658
47042,34663
47033,34667
47024,34670
47015,34672
47005,34674
46996,34674
46503,34674
46494,34674
46484,34672
46475,34670
46466,34667
46457,34663
46449,34658
46441,34652
46434,34645
46427,34638
46422,34631
46417,34622
46413,34614
46409,34604
46407,34595
46405,34586
46405,34576
46405,34212
46405,34202
46407,34193
46409,34183
46413,34174
46417,34165
46422,34157
46427,34149
46434,34142
46441,34136
46449,34130
46457,34125
46466,34121
46475,34118
46484,34115
46494,34114
46503,34113
46996,34113
47005,34114
" /> 
<polyline style="fill-rule:evenodd;"
points="47005,32155
47015,32157
47024,32159
47033,32162
47042,32166
47050,32171
47058,32177
47065,32183
47072,32191
47077,32198
47082,32207
47086,32215
47090,32224
47092,32234
47094,32243
47094,32253
47094,32617
47094,32627
47092,32636
47090,32646
47086,32655
47082,32664
47077,32672
47072,32680
47065,32687
47058,32693
47050,32699
47042,32704
47033,32708
47024,32711
47015,32714
47005,32715
46996,32716
46503,32716
46494,32715
46484,32714
46475,32711
46466,32708
46457,32704
46449,32699
46441,32693
46434,32687
46427,32680
46422,32672
46417,32664
46413,32655
46409,32646
46407,32636
46405,32627
46405,32617
46405,32253
46405,32243
46407,32234
46409,32224
46413,32215
46417,32207
46422,32198
46427,32191
46434,32183
46441,32177
46449,32171
46457,32166
46466,32162
46475,32159
46484,32157
46494,32155
46503,32155
46996,32155
47005,32155
" /> 
<polyline style="fill-rule:evenodd;"
points="47005,30984
47015,30985
47024,30988
47033,30991
47042,30995
47050,31000
47058,31006
47065,31012
47072,31019
47077,31027
47082,31035
47086,31044
47090,31053
47092,31063
47094,31072
47094,31082
47094,31446
47094,31456
47092,31465
47090,31475
47086,31484
47082,31492
47077,31501
47072,31508
47065,31516
47058,31522
47050,31528
47042,31533
47033,31537
47024,31540
47015,31542
47005,31544
46996,31544
46503,31544
46494,31544
46484,31542
46475,31540
46466,31537
46457,31533
46449,31528
46441,31522
46434,31516
46427,31508
46422,31501
46417,31492
46413,31484
46409,31475
46407,31465
46405,31456
46405,31446
46405,31082
46405,31072
46407,31063
46409,31053
46413,31044
46417,31035
46422,31027
46427,31019
46434,31012
46441,31006
46449,31000
46457,30995
46466,30991
46475,30988
46484,30985
46494,30984
46503,30983
46996,30983
47005,30984
" /> 
<polyline style="fill-rule:evenodd;"
points="36388,33488
35011,33488
35011,32111
36388,32111
36388,33488
" /> 
<polyline style="fill-rule:evenodd;"
points="36122,34573
36151,34577
36179,34584
36206,34594
36232,34606
36257,34621
36281,34638
36302,34658
36321,34679
36339,34702
36354,34727
36366,34753
36376,34781
36383,34809
36387,34837
36388,34866
36388,35457
36387,35486
36383,35515
36376,35543
36366,35570
36354,35596
36339,35621
36321,35644
36302,35666
36281,35685
36257,35702
36232,35717
36206,35730
36179,35740
36151,35747
36122,35751
36093,35752
35306,35752
35277,35751
35248,35747
35220,35740
35193,35730
35167,35717
35142,35702
35118,35685
35097,35666
35078,35644
35060,35621
35045,35596
35033,35570
35023,35543
35016,35515
35012,35486
35011,35457
35011,34866
35012,34837
35016,34809
35023,34781
35033,34753
35045,34727
35060,34702
35078,34679
35097,34658
35118,34638
35142,34621
35167,34606
35193,34594
35220,34584
35248,34577
35277,34573
35306,34571
36093,34571
36122,34573
" /> 
<polyline style="fill-rule:evenodd;"
points="32134,26134
31465,26134
31465,25465
32134,25465
32134,26134
" /> 
</g>
<g style="fill:#FFFFFF; fill-opacity:1.0; 
stroke:#FFFFFF; stroke-width:669.291; stroke-opacity:1; 
stroke-linecap:round; stroke-linejoin:round;">
</g>
<g style="fill:#FFFFFF; fill-opacity:0.0; 
stroke:#FFFFFF; stroke-width:669.291; stroke-opacity:1; 
stroke-linecap:round; stroke-linejoin:round;">
<path d="M32800 25800
L32800 25800
" />
<path d="M33800 25800
L33800 25800
" />
<path d="M34800 25800
L34800 25800
" />
</g>
<g style="fill:#FFFFFF; fill-opacity:0.0; 
stroke:#FFFFFF; stroke-width:0; stroke-opacity:1; 
stroke-linecap:round; stroke-linejoin:round;">
</g>
<g style="fill:#FFFFFF; fill-opacity:1.0; 
stroke:#FFFFFF; stroke-width:0; stroke-opacity:1; 
stroke-linecap:round; stroke-linejoin:round;">
<polyline style="fill-rule:evenodd;"
points="37792,27331
37792,27568
37202,27568
37202,27331
37792,27331
" /> 
<polyline style="fill-rule:evenodd;"
points="37792,27831
37792,28068
37202,28068
37202,27831
37792,27831
" /> 
<polyline style="fill-rule:evenodd;"
points="37792,28331
37792,28568
37202,28568
37202,28331
37792,28331
" /> 
<polyline style="fill-rule:evenodd;"
points="37792,28831
37792,29068
37202,29068
37202,28831
37792,28831
" /> 
<polyline style="fill-rule:evenodd;"
points="37792,29331
37792,29568
37202,29568
37202,29331
37792,29331
" /> 
<polyline style="fill-rule:evenodd;"
points="37792,29831
37792,30068
37202,30068
37202,29831
37792,29831
" /> 
<polyline style="fill-rule:evenodd;"
points="37792,30331
37792,30568
37202,30568
37202,30331
37792,30331
" /> 
<polyline style="fill-rule:evenodd;"
points="37792,30831
37792,31068
37202,31068
37202,30831
37792,30831
" /> 
<polyline style="fill-rule:evenodd;"
points="34997,30831
34997,31068
34407,31068
34407,30831
34997,30831
" /> 
<polyline style="fill-rule:evenodd;"
points="34997,30331
34997,30568
34407,30568
34407,30331
34997,30331
" /> 
<polyline style="fill-rule:evenodd;"
points="34997,29831
34997,30068
34407,30068
34407,29831
34997,29831
" /> 
<polyline style="fill-rule:evenodd;"
points="34997,29331
34997,29568
34407,29568
34407,29331
34997,29331
" /> 
<polyline style="fill-rule:evenodd;"
points="34997,28831
34997,29068
34407,29068
34407,28831
34997,28831
" /> 
<polyline style="fill-rule:evenodd;"
points="34997,28331
34997,28568
34407,28568
34407,28331
34997,28331
" /> 
<polyline style="fill-rule:evenodd;"
points="34997,27831
34997,28068
34407,28068
34407,27831
34997,27831
" /> 
<polyline style="fill-rule:evenodd;"
points="34997,27331
34997,27568
34407,27568
34407,27331
34997,27331
" /> 
<circle cx="48100" cy="34500" r="433.071" /> 
</g>
<g style="fill:#FFFFFF; fill-opacity:1.0; 
stroke:#FFFFFF; stroke-width:39.3701; stroke-opacity:1; 
stroke-linecap:round; stroke-linejoin:round;">
</g>
<g style="fill:#FFFFFF; fill-opacity:1.0; 
stroke:#FFFFFF; stroke-width:0; stroke-opacity:1; 
stroke-linecap:round; stroke-linejoin:round;">
<circle cx="48500" cy="27500" r="433.071" /> 
</g>
<g style="fill:#FFFFFF; fill-opacity:1.0; 
stroke:#FFFFFF; stroke-width:39.3701; stroke-opacity:1; 
stroke-linecap:round; stroke-linejoin:round;">
</g>
<g style="fill:#FFFFFF; fill-opacity:1.0; 
stroke:#FFFFFF; stroke-width:0; stroke-opacity:1; 
stroke-linecap:round; stroke-linejoin:round;">
<circle cx="38050" cy="34600" r="433.071" /> 
</g>
<g style="fill:#FFFFFF; fill-opacity:1.0; 
stroke:#FFFFFF; stroke-width:39.3701; stroke-opacity:1; 
stroke-linecap:round; stroke-linejoin:round;">
</g>
<g style="fill:#FFFFFF; fill-opacity:1.0; 
stroke:#FFFFFF; stroke-width:0; stroke-opacity:1; 
stroke-linecap:round; stroke-linejoin:round;">
<circle cx="47850" cy="31500" r="433.071" /> 
</g>
<g style="fill:#FFFFFF; fill-opacity:1.0; 
stroke:#FFFFFF; stroke-width:39.3701; stroke-opacity:1; 
stroke-linecap:round; stroke-linejoin:round;">
</g>
<g style="fill:#FFFFFF; fill-opacity:1.0; 
stroke:#FFFFFF; stroke-width:0; stroke-opacity:1; 
stroke-linecap:round; stroke-linejoin:round;">
<circle cx="51150" cy="30800" r="433.071" /> 
</g>
<g style="fill:#FFFFFF; fill-opacity:1.0; 
stroke:#FFFFFF; stroke-width:39.3701; stroke-opacity:1; 
stroke-linecap:round; stroke-linejoin:round;">
</g>
<g style="fill:#FFFFFF; fill-opacity:1.0; 
stroke:#FFFFFF; stroke-width:0; stroke-opacity:1; 
stroke-linecap:round; stroke-linejoin:round;">
<circle cx="32750" cy="35250" r="433.071" /> 
</g>
<g style="fill:#FFFFFF; fill-opacity:1.0; 
stroke:#FFFFFF; stroke-width:39.3701; stroke-opacity:1; 
stroke-linecap:round; stroke-linejoin:round;">
</g>
<g style="fill:#FFFFFF; fill-opacity:1.0; 
stroke:#FFFFFF; stroke-width:0; stroke-opacity:1; 
stroke-linecap:round; stroke-linejoin:round;">
<circle cx="40600" cy="31650" r="433.071" /> 
</g>
<g style="fill:#FFFFFF; fill-opacity:1.0; 
stroke:#FFFFFF; stroke-width:39.3701; stroke-opacity:1; 
stroke-linecap:round; stroke-linejoin:round;">
</g>
<g style="fill:#FFFFFF; fill-opacity:1.0; 
stroke:#FFFFFF; stroke-width:0; stroke-opacity:1; 
stroke-linecap:round; stroke-linejoin:round;">
<circle cx="34550" cy="34000" r="413.386" /> 
</g>
<g style="fill:#FFFFFF; fill-opacity:1.0; 
stroke:#FFFFFF; stroke-width:39.3701; stroke-opacity:1; 
stroke-linecap:round; stroke-linejoin:round;">
</g>
<g style="fill:#FFFFFF; fill-opacity:1.0; 
stroke:#FFFFFF; stroke-width:0; stroke-opacity:1; 
stroke-linecap:round; stroke-linejoin:round;">
<circle cx="36900" cy="31700" r="413.386" /> 
</g>
<g style="fill:#FFFFFF; fill-opacity:1.0; 
stroke:#FFFFFF; stroke-width:39.3701; stroke-opacity:1; 
stroke-linecap:round; stroke-linejoin:round;">
</g>
<g style="fill:#FFFFFF; fill-opacity:1.0; 
stroke:#FFFFFF; stroke-width:0; stroke-opacity:1; 
stroke-linecap:round; stroke-linejoin:round;">
<circle cx="35828.7" cy="25755.1" r="413.386" /> 
</g>
<g style="fill:#FFFFFF; fill-opacity:1.0; 
stroke:#FFFFFF; stroke-width:39.3701; stroke-opacity:1; 
stroke-linecap:round; stroke-linejoin:round;">
</g>
<g style="fill:#FFFFFF; fill-opacity:1.0; 
stroke:#FFFFFF; stroke-width:0; stroke-opacity:1; 
stroke-linecap:round; stroke-linejoin:round;">
<circle cx="44500" cy="28508.7" r="433.071" /> 
</g>
<g style="fill:#FFFFFF; fill-opacity:1.0; 
stroke:#FFFFFF; stroke-width:39.3701; stroke-opacity:1; 
stroke-linecap:round; stroke-linejoin:round;">
</g>
<g style="fill:#FFFFFF; fill-opacity:1.0; 
stroke:#FFFFFF; stroke-width:314.961; stroke-opacity:1; 
stroke-linecap:round; stroke-linejoin:round;">
</g>
<g style="fill:#FFFFFF; fill-opacity:0.0; 
stroke:#FFFFFF; stroke-width:314.961; stroke-opacity:1; 
stroke-linecap:round; stroke-linejoin:round;">
<path d="M45300 32437
L46800 32437
" />
<path d="M50414 31064
L50414 31679
" />
<path d="M50086 30736
L50414 31064
" />
<path d="M49350 30736
L50086 30736
" />
<path d="M49350 31002
L49350 30736
" />
<path d="M49350 31950
L49350 31002
" />
<path d="M48864 32435
L49350 31950
" />
<path d="M46750 32435
L48864 32435
" />
<path d="M46789 33224
L46800 33214
" />
<path d="M45300 33224
L46789 33224
" />
<path d="M49920 33979
L50414 33979
" />
<path d="M49350 34550
L49920 33979
" />
<path d="M48823 33223
L49350 33750
" />
<path d="M49350 33750
L49350 34550
" />
<path d="M46750 33223
L48823 33223
" />
<path d="M49350 34996
L49350 33750
" />
<path d="M38503 33224
L39788 33224
" />
<path d="M38503 32437
L39788 32437
" />
</g>
<g style="fill:#FFFFFF; fill-opacity:0.0; 
stroke:#FFFFFF; stroke-width:196.85; stroke-opacity:1; 
stroke-linecap:round; stroke-linejoin:round;">
<path d="M39787 31650
L39788 31649
" />
</g>
<g style="fill:#FFFFFF; fill-opacity:0.0; 
stroke:#FFFFFF; stroke-width:314.961; stroke-opacity:1; 
stroke-linecap:round; stroke-linejoin:round;">
<path d="M38503 31650
L39787 31650
" />
<path d="M40598 31648
L40600 31650
" />
<path d="M39788 31648
L40598 31648
" />
</g>
<g style="fill:#FFFFFF; fill-opacity:0.0; 
stroke:#FFFFFF; stroke-width:393.701; stroke-opacity:1; 
stroke-linecap:round; stroke-linejoin:round;">
<path d="M32774 32850
L32700 32924
" />
<path d="M35700 32800
L35650 32850
" />
<path d="M35450 30950
L34702 30950
" />
<path d="M35700 31200
L35450 30950
" />
<path d="M35700 32800
L35700 31200
" />
<path d="M32725 32924
L32700 32924
" />
<path d="M33021 32628
L32725 32924
" />
<path d="M34702 30950
L34700 30950
" />
<path d="M33438 32225
L33034 32628
" />
<path d="M33438 32211
L33438 32225
" />
<path d="M33034 32628
L33021 32628
" />
<path d="M34700 30950
L33438 32211
" />
<path d="M35000 32800
L35700 32800
" />
<path d="M34550 33250
L35000 32800
" />
<path d="M34550 34000
L34550 33250
" />
</g>
<g style="fill:#FFFFFF; fill-opacity:0.0; 
stroke:#FFFFFF; stroke-width:314.961; stroke-opacity:1; 
stroke-linecap:round; stroke-linejoin:round;">
<path d="M39762 30100
L39788 30074
" />
<path d="M38600 30100
L39762 30100
" />
<path d="M38450 29950
L38600 30100
" />
<path d="M37497 29950
L38450 29950
" />
<path d="M38107 30450
L37497 30450
" />
<path d="M38520 30862
L38107 30450
" />
<path d="M39788 30862
L38520 30862
" />
<path d="M32737 28950
L32700 28987
" />
<path d="M34702 28950
L32737 28950
" />
<path d="M33450 29450
L32928 29971
" />
<path d="M32928 29971
L32700 29971
" />
<path d="M34702 29450
L33450 29450
" />
<path d="M33705 29950
L32700 30955
" />
<path d="M33705 29950
L34702 29950
" />
<path d="M34201 30438
L34490 30438
" />
<path d="M32700 31939
L34201 30438
" />
<path d="M38450 29450
L37497 29450
" />
<path d="M38600 29300
L38450 29450
" />
<path d="M39775 29300
L38600 29300
" />
<path d="M39788 29287
L39775 29300
" />
</g>
<g style="fill:#FFFFFF; fill-opacity:0.0; 
stroke:#FFFFFF; stroke-width:196.85; stroke-opacity:1; 
stroke-linecap:round; stroke-linejoin:round;">
<path d="M36600 27050
L36250 26700
" />
<path d="M36950 29450
L36600 29100
" />
<path d="M33134 26134
L32800 25800
" />
<path d="M36600 29100
L36600 27050
" />
<path d="M36250 26700
L33700 26700
" />
<path d="M33700 26700
L33134 26134
" />
<path d="M37497 29450
L36950 29450
" />
</g>
<g style="fill:#FFFFFF; fill-opacity:0.0; 
stroke:#FFFFFF; stroke-width:314.961; stroke-opacity:1; 
stroke-linecap:round; stroke-linejoin:round;">
<path d="M39788 28500
L38557 28500
" />
<path d="M38557 28500
L38107 28950
" />
<path d="M38107 28950
L37497 28950
" />
</g>
<g style="fill:#FFFFFF; fill-opacity:0.0; 
stroke:#FFFFFF; stroke-width:196.85; stroke-opacity:1; 
stroke-linecap:round; stroke-linejoin:round;">
<path d="M38100 26650
L37835 26385
" />
<path d="M38100 27950
L38100 26650
" />
<path d="M38648 28498
L38100 27950
" />
<path d="M39788 28498
L38648 28498
" />
<path d="M34134 26134
L33800 25800
" />
<path d="M34385 26385
L34134 26134
" />
<path d="M37835 26385
L34385 26385
" />
</g>
<g style="fill:#FFFFFF; fill-opacity:0.0; 
stroke:#FFFFFF; stroke-width:314.961; stroke-opacity:1; 
stroke-linecap:round; stroke-linejoin:round;">
<path d="M49521 28478
L50400 27600
" />
<path d="M48600 28478
L49521 28478
" />
<path d="M45300 29286
L48600 29286
" />
<path d="M49444 29300
L49815 28929
" />
<path d="M48613 29300
L49444 29300
" />
<path d="M49815 28929
L50400 28929
" />
<path d="M48600 29286
L48613 29300
" />
<path d="M37696 31650
L37696 32437
" />
<path d="M45310 34000
L45300 34010
" />
<path d="M45550 34000
L45310 34000
" />
<path d="M45575 34025
L45550 34000
" />
<path d="M45575 34914
L45575 34025
" />
<path d="M50414 29929
L50386 29901
" />
<path d="M48550 29929
L50400 29929
" />
<path d="M51142 29929
L50400 29929
" />
<path d="M47100 26950
L47100 27691
" />
<path d="M47450 26600
L47100 26950
" />
<path d="M50400 26600
L47450 26600
" />
<path d="M51750 26600
L50400 26600
" />
<path d="M52000 29700
L52000 26850
" />
<path d="M52000 26850
L51750 26600
" />
<path d="M51770 29929
L52000 29700
" />
<path d="M51142 29929
L51770 29929
" />
<path d="M51829 29929
L51142 29929
" />
<path d="M52000 30100
L51829 29929
" />
<path d="M51750 35800
L52000 35550
" />
<path d="M47200 35800
L51750 35800
" />
<path d="M46314 34914
L47200 35800
" />
<path d="M52000 35550
L52000 30100
" />
<path d="M45575 34914
L46314 34914
" />
<path d="M36949 31650
L36900 31699
" />
<path d="M37696 31650
L36949 31650
" />
<path d="M36763 32836
L36763 35213
" />
<path d="M44939 35550
L45575 34914
" />
<path d="M37100 35550
L44939 35550
" />
<path d="M37162 32437
L36763 32836
" />
<path d="M36763 35213
L37100 35550
" />
<path d="M37696 32437
L37162 32437
" />
</g>
<g style="fill:#FFFFFF; fill-opacity:0.0; 
stroke:#FFFFFF; stroke-width:196.85; stroke-opacity:1; 
stroke-linecap:round; stroke-linejoin:round;">
<path d="M35783 25800
L35828 25755
" />
<path d="M34800 25800
L35783 25800
" />
</g>
<g style="fill:#FFFFFF; fill-opacity:0.0; 
stroke:#FFFFFF; stroke-width:314.961; stroke-opacity:1; 
stroke-linecap:round; stroke-linejoin:round;">
<path d="M45112 28508
L44500 28508
" />
<path d="M45289 28508
L45112 28508
" />
<path d="M45300 28498
L45289 28508
" />
<path d="M47100 28498
L45300 28498
" />
<path d="M48235 30736
L48550 30736
" />
<path d="M47399 29901
L48235 30736
" />
<path d="M46349 29901
L47399 29901
" />
<path d="M46200 30050
L46349 29901
" />
<path d="M45323 30050
L46200 30050
" />
<path d="M45300 30073
L45323 30050
" />
</g>
<g style="fill:#FFFFFF; fill-opacity:1.0; 
stroke:#FFFFFF; stroke-width:100; stroke-opacity:1; 
stroke-linecap:round; stroke-linejoin:round;">
<polyline style="fill-rule:evenodd;"
points="38850,27500
38853,27519
38864,27535
38880,27546
38900,27550
46200,27550
46219,27546
46235,27535
46246,27519
46250,27500
46250,25379
52466,25379
52466,36531
46111,36528
46132,36507
46170,36415
46170,36198
46107,36135
45625,36135
45625,36143
45525,36143
45525,36135
45043,36135
44981,36198
44981,36415
45019,36507
45038,36527
31389,36520
31389,35274
34761,35274
34761,35802
34799,35894
34869,35964
34961,36002
35587,36002
35650,35940
35650,35212
34823,35212
34761,35274
31389,35274
31389,26373
31415,26384
31687,26384
31750,26322
31750,25850
31742,25850
31742,25750
31750,25750
31750,25742
31850,25742
31850,25750
31857,25750
31857,25850
31850,25850
31850,26322
31912,26384
32184,26384
32276,26346
32346,26276
32372,26212
32378,26221
32571,26350
32742,26384
32857,26384
32886,26378
32912,26405
32912,26405
33429,26922
33448,26951
33477,26970
33477,26970
33489,26978
33564,27028
33665,27048
33665,27048
33699,27055
33734,27048
36105,27048
36251,27194
36251,29065
36244,29100
36251,29134
36251,29134
36271,29235
36348,29351
36377,29370
36679,29672
36698,29701
36727,29720
36727,29720
36796,29766
36814,29778
36915,29798
36915,29798
36950,29805
36952,29804
36947,29831
36947,30068
36966,30165
36989,30200
36966,30234
36947,30331
36947,30568
36966,30665
36987,30696
36952,30782
36952,30837
37014,30900
37447,30900
37447,30892
37547,30892
37547,30900
37555,30900
37555,31000
37547,31000
37547,31007
37447,31007
37447,31000
37014,31000
36978,31036
36768,31036
36524,31137
36337,31324
36236,31568
36236,31831
36246,31856
36146,31856
36146,31244
36155,31200
36120,31025
36103,30999
36022,30877
35984,30852
35797,30665
35772,30627
35624,30529
35494,30503
35450,30494
35405,30503
35252,30503
35252,30331
35233,30234
35210,30200
35233,30165
35252,30068
35252,29831
35233,29734
35210,29700
35233,29665
35252,29568
35252,29331
35233,29234
35210,29200
35233,29165
35252,29068
35252,28831
35233,28734
35210,28700
35233,28665
35252,28568
35252,28331
35233,28234
35210,28200
35233,28165
35252,28068
35252,27831
35233,27734
35210,27700
35233,27665
35252,27568
35252,27331
35233,27234
35177,27151
35095,27096
34997,27076
34407,27076
34309,27096
34226,27151
34171,27234
34152,27331
34152,27568
34171,27665
34194,27700
34171,27734
34152,27831
34152,28068
34171,28165
34194,28200
34171,28234
34152,28331
34152,28542
33263,28542
33235,28500
33120,28424
32985,28397
32414,28397
32279,28424
32164,28500
32088,28615
32061,28750
32061,29223
32088,29358
32164,29473
32254,29532
32229,29549
32100,29743
32054,29971
32100,30199
32229,30392
32334,30463
32229,30534
32100,30727
32054,30955
32100,31183
32229,31377
32334,31447
32229,31518
32100,31711
32054,31939
32100,32167
32229,32361
32334,32431
32229,32502
32100,32695
32054,32924
32100,33152
32229,33345
32422,33474
32593,33508
32806,33508
32977,33474
33170,33345
33299,33152
33337,32963
33356,32950
33381,32913
33723,32572
33760,32547
33812,32469
34885,31396
35253,31396
35253,31856
35011,31856
34913,31875
34830,31930
34775,32013
34756,32111
34756,32425
34677,32477
34652,32515
34265,32902
34227,32927
34163,33024
34129,33075
34094,33250
34103,33294
34103,33508
33987,33624
33886,33868
33886,34131
33987,34375
34174,34562
34418,34663
34681,34663
34761,34630
34761,35049
34823,35112
35650,35112
35650,34384
35587,34321
35134,34321
35213,34131
35213,33868
35161,33743
36355,33743
36355,34321
35812,34321
35750,34384
35750,35112
35757,35112
35757,35212
35750,35212
35750,35940
35812,36002
36438,36002
36530,35964
36600,35894
36638,35802
36638,35665
36783,35809
36806,35843
36937,35931
36941,35933
37099,35965
37140,35957
44899,35957
44939,35965
44980,35957
44980,35957
44981,35957
44981,35973
45043,36035
45525,36035
45525,35617
45625,35617
45625,36035
46107,36035
46170,35973
46170,35755
46132,35663
46061,35593
45969,35555
45688,35555
45625,35617
45525,35617
45487,35579
45616,35449
45821,35449
45956,35422
46071,35346
46087,35321
46145,35321
46883,36059
46906,36093
47041,36183
47159,36207
47159,36207
47199,36215
47240,36207
48962,36207
49037,36257
49172,36284
49527,36284
49662,36257
49737,36207
51709,36207
51750,36215
51790,36207
51790,36207
51908,36183
52043,36093
52066,36059
52259,35866
52293,35843
52383,35708
52407,35590
52407,35590
52415,35550
52407,35509
52407,30140
52415,30099
52407,30059
52407,30059
52383,29941
52356,29900
52383,29858
52407,29740
52407,29740
52415,29700
52407,29659
52407,26890
52415,26850
52383,26691
52360,26656
52293,26556
52259,26533
52066,26340
52043,26306
51908,26216
51790,26192
51790,26192
51750,26184
51709,26192
51068,26192
51068,26186
51048,26089
50993,26006
50910,25951
50813,25931
49986,25931
49889,25951
49806,26006
49751,26089
49731,26186
49731,26192
47490,26192
47450,26184
47409,26192
47291,26216
47156,26306
47133,26340
46840,26633
46806,26656
46737,26758
46716,26791
46684,26950
46692,26990
46692,27300
46672,27313
46596,27428
46569,27563
46569,27819
46596,27954
46672,28069
46705,28091
46231,28091
46165,28046
46067,28027
45083,28027
45000,28043
44886,27929
44635,27825
44364,27825
44113,27929
43920,28121
43816,28372
43816,28644
43920,28895
44113,29087
44364,29191
44635,29191
44828,29111
44828,29502
44847,29600
44901,29679
44847,29759
44828,29856
44828,30289
44847,30387
44901,30467
44847,30546
44828,30644
44828,31077
44847,31174
44901,31254
44847,31334
44828,31431
44828,31864
44847,31962
44901,32041
44847,32121
44828,32219
44828,32652
44847,32749
44901,32829
44847,32908
44828,33006
44828,33439
44847,33537
44901,33616
44847,33696
44828,33793
44828,33951
44733,33932
44300,33932
44202,33952
44122,34005
44043,33952
43945,33932
43512,33932
43415,33952
43335,34005
43255,33952
43158,33932
42725,33932
42627,33952
42548,34005
42468,33952
42370,33932
41937,33932
41840,33952
41760,34005
41681,33952
41583,33932
41150,33932
41052,33952
40973,34005
40893,33952
40796,33932
40362,33932
40265,33952
40252,33960
40192,33960
40254,33897
40254,33744
40216,33652
40184,33620
40184,33619
40240,33537
40259,33439
40259,33006
40240,32908
40187,32829
40240,32749
40259,32652
40259,32248
40464,32333
40735,32333
40986,32229
41179,32036
41283,31785
41283,31514
41179,31263
40986,31070
40735,30966
40464,30966
40259,31051
40259,30644
40240,30546
40187,30467
40240,30387
40259,30289
40259,29856
40240,29759
40187,29679
40240,29600
40259,29502
40259,29069
40240,28971
40187,28892
40240,28812
40259,28715
40259,28282
40240,28184
40184,28101
40102,28046
40004,28027
39020,28027
38922,28046
38854,28092
38735,28092
38448,27805
38448,26684
38455,26650
38448,26615
38448,26615
38428,26514
38351,26398
38322,26379
38105,26162
38086,26133
37970,26056
37869,26036
37869,26036
37835,26029
37800,26036
36430,26036
36492,25887
36492,25623
36391,25379
38850,25379
38850,27500
" /> 
<polyline style="fill-rule:evenodd;"
points="48942,33918
48942,34158
48942,34509
48934,34550
48942,34590
48942,34605
48922,34618
48846,34733
48819,34868
48819,35124
48846,35259
48922,35374
48950,35392
47368,35392
46901,34924
47144,34924
47236,34886
47306,34816
47344,34724
47344,34506
47281,34444
46800,34444
46800,34452
46700,34452
46700,34444
46692,34444
46692,34344
46700,34344
46700,33926
46800,33926
46800,34344
47281,34344
47344,34281
47344,34064
47306,33972
47236,33901
47144,33863
46862,33863
46800,33926
46700,33926
46637,33863
46355,33863
46322,33877
46322,33793
46303,33696
46292,33680
46368,33731
46503,33758
46996,33758
47131,33731
47245,33654
47262,33630
48654,33630
48942,33918
" /> 
<polyline style="fill-rule:evenodd;"
points="51592,35381
51581,35392
51077,35392
51077,35091
51015,35029
50464,35029
50464,35037
50364,35037
50364,35029
50356,35029
50356,34929
50364,34929
50364,34921
50464,34921
50464,34929
51015,34929
51077,34866
51077,34516
51039,34424
50973,34358
50976,34355
51077,34111
51077,33847
50976,33603
50790,33417
50610,33342
50877,33342
50969,33304
51039,33234
51077,33142
51077,32791
51015,32729
50464,32729
50464,32737
50364,32737
50364,32729
49813,32729
49751,32791
49751,33142
49789,33234
49859,33304
49951,33342
50217,33342
50038,33417
49884,33571
49880,33571
49880,33571
49761,33595
49737,33611
49733,33591
49643,33456
49609,33433
49139,32963
49116,32929
48982,32839
48953,32833
49023,32819
49158,32729
49180,32695
49609,32266
49643,32243
49733,32108
49757,31990
49757,31990
49765,31950
49757,31909
49757,31826
49852,32055
49855,32058
49789,32124
49751,32216
49751,32566
49813,32629
50364,32629
50364,32621
50464,32621
50464,32629
51015,32629
51077,32566
51077,32216
51039,32124
50973,32058
50976,32055
51077,31811
51077,31547
50976,31303
50821,31148
50821,31104
50829,31064
50821,31021
50798,30905
50708,30770
50674,30747
50523,30597
50813,30597
50910,30578
50993,30523
51048,30440
51068,30342
51068,30336
51592,30336
51592,35381
" /> 
<polyline style="fill-rule:evenodd;"
points="37220,33111
37282,33174
37646,33174
37646,33166
37746,33166
37746,33174
37754,33174
37754,33274
37746,33274
37746,33687
37808,33750
37972,33750
38064,33711
38125,33650
38125,33651
38240,33728
38375,33754
38631,33754
38766,33728
38781,33718
38770,33744
38770,33897
38832,33960
39462,33960
39462,33952
39562,33952
39562,33960
39570,33960
39570,34060
39562,34060
39562,34414
39625,34476
40054,34476
40108,34454
40108,35142
37268,35142
37170,35044
37170,34122
38770,34122
38770,34276
38808,34368
38878,34438
38970,34476
39400,34476
39462,34414
39462,34060
38832,34060
38770,34122
37170,34122
37170,33336
37220,33336
37220,33549
37258,33641
37328,33711
37420,33750
37583,33750
37646,33687
37646,33274
37282,33274
37220,33336
37170,33336
37170,33005
37220,32956
37220,33111
" /> 
<polyline style="fill-rule:evenodd;"
points="47918,30996
47941,31030
48076,31120
48194,31143
48194,31143
48226,31150
48287,31190
48422,31217
48777,31217
48912,31190
48942,31170
48942,31781
48695,32028
47262,32028
47245,32003
47131,31927
46996,31900
46503,31900
46368,31927
46292,31977
46303,31962
46322,31864
46322,31781
46355,31794
46637,31794
46700,31732
46700,31314
46800,31314
46800,31732
46862,31794
47144,31794
47236,31756
47306,31686
47344,31594
47344,31376
47281,31314
46800,31314
46700,31314
46692,31314
46692,31214
46700,31214
46700,30507
46800,30507
46800,31214
47281,31214
47344,31151
47344,30934
47314,30860
47344,30787
47344,30569
47281,30507
46800,30507
46700,30507
46692,30507
46692,30407
46700,30407
46700,30399
46800,30399
46800,30407
47281,30407
47305,30383
47918,30996
" /> 
<polyline style="fill-rule:evenodd;"
points="49731,27013
49751,27110
49806,27193
49843,27218
49837,27224
49736,27468
49736,27687
49352,28071
48982,28071
48912,28024
48777,27997
48422,27997
48287,28024
48264,28039
48175,28002
47962,28002
47900,28065
47900,28428
47907,28428
47907,28528
47900,28528
47900,28536
47800,28536
47800,28528
47792,28528
47792,28428
47800,28428
47800,28065
47737,28002
47571,28002
47603,27954
47630,27819
47630,27563
47603,27428
47527,27313
47507,27300
47507,27118
47618,27007
49731,27007
49731,27013
" /> 
</g>
<g style="fill:#000000; fill-opacity:1.0; 
stroke:#000000; stroke-width:100; stroke-opacity:1; 
stroke-linecap:round; stroke-linejoin:round;">
</g>
<g style="fill:#000000; fill-opacity:1.0; 
stroke:#000000; stroke-width:0; stroke-opacity:1; 
stroke-linecap:round; stroke-linejoin:round;">
<circle cx="48100" cy="34500" r="68.8976" /> 
</g>
<g style="fill:#000000; fill-opacity:1.0; 
stroke:#000000; stroke-width:39.3701; stroke-opacity:1; 
stroke-linecap:round; stroke-linejoin:round;">
</g>
<g style="fill:#000000; fill-opacity:1.0; 
stroke:#000000; stroke-width:0; stroke-opacity:1; 
stroke-linecap:round; stroke-linejoin:round;">
<circle cx="48500" cy="27500" r="68.8976" /> 
</g>
<g style="fill:#000000; fill-opacity:1.0; 
stroke:#000000; stroke-width:39.3701; stroke-opacity:1; 
stroke-linecap:round; stroke-linejoin:round;">
</g>
<g style="fill:#000000; fill-opacity:1.0; 
stroke:#000000; stroke-width:0; stroke-opacity:1; 
stroke-linecap:round; stroke-linejoin:round;">
<circle cx="38050" cy="34600" r="68.8976" /> 
</g>
<g style="fill:#000000; fill-opacity:1.0; 
stroke:#000000; stroke-width:39.3701; stroke-opacity:1; 
stroke-linecap:round; stroke-linejoin:round;">
</g>
<g style="fill:#000000; fill-opacity:1.0; 
stroke:#000000; stroke-width:0; stroke-opacity:1; 
stroke-linecap:round; stroke-linejoin:round;">
<circle cx="47850" cy="31500" r="68.8976" /> 
</g>
<g style="fill:#000000; fill-opacity:1.0; 
stroke:#000000; stroke-width:39.3701; stroke-opacity:1; 
stroke-linecap:round; stroke-linejoin:round;">
</g>
<g style="fill:#000000; fill-opacity:1.0; 
stroke:#000000; stroke-width:0; stroke-opacity:1; 
stroke-linecap:round; stroke-linejoin:round;">
<circle cx="51150" cy="30800" r="68.8976" /> 
</g>
<g style="fill:#000000; fill-opacity:1.0; 
stroke:#000000; stroke-width:39.3701; stroke-opacity:1; 
stroke-linecap:round; stroke-linejoin:round;">
</g>
<g style="fill:#000000; fill-opacity:1.0; 
stroke:#000000; stroke-width:0; stroke-opacity:1; 
stroke-linecap:round; stroke-linejoin:round;">
<circle cx="32750" cy="35250" r="68.8976" /> 
</g>
<g style="fill:#000000; fill-opacity:1.0; 
stroke:#000000; stroke-width:39.3701; stroke-opacity:1; 
stroke-linecap:round; stroke-linejoin:round;">
</g>
<g style="fill:#000000; fill-opacity:1.0; 
stroke:#000000; stroke-width:0; stroke-opacity:1; 
stroke-linecap:round; stroke-linejoin:round;">
<circle cx="40600" cy="31650" r="68.8976" /> 
</g>
<g style="fill:#000000; fill-opacity:1.0; 
stroke:#000000; stroke-width:39.3701; stroke-opacity:1; 
stroke-linecap:round; stroke-linejoin:round;">
</g>
<g style="fill:#000000; fill-opacity:1.0; 
stroke:#000000; stroke-width:0; stroke-opacity:1; 
stroke-linecap:round; stroke-linejoin:round;">
<circle cx="34550" cy="34000" r="68.8976" /> 
</g>
<g style="fill:#000000; fill-opacity:1.0; 
stroke:#000000; stroke-width:39.3701; stroke-opacity:1; 
stroke-linecap:round; stroke-linejoin:round;">
</g>
<g style="fill:#000000; fill-opacity:1.0; 
stroke:#000000; stroke-width:0; stroke-opacity:1; 
stroke-linecap:round; stroke-linejoin:round;">
<circle cx="36900" cy="31700" r="68.8976" /> 
</g>
<g style="fill:#000000; fill-opacity:1.0; 
stroke:#000000; stroke-width:39.3701; stroke-opacity:1; 
stroke-linecap:round; stroke-linejoin:round;">
</g>
<g style="fill:#000000; fill-opacity:1.0; 
stroke:#000000; stroke-width:0; stroke-opacity:1; 
stroke-linecap:round; stroke-linejoin:round;">
<circle cx="35828.7" cy="25755.1" r="68.8976" /> 
</g>
<g style="fill:#000000; fill-opacity:1.0; 
stroke:#000000; stroke-width:39.3701; stroke-opacity:1; 
stroke-linecap:round; stroke-linejoin:round;">
</g>
<g style="fill:#000000; fill-opacity:1.0; 
stroke:#000000; stroke-width:0; stroke-opacity:1; 
stroke-linecap:round; stroke-linejoin:round;">
<circle cx="44500" cy="28508.7" r="68.8976" /> 
</g>
<g style="fill:#000000; fill-opacity:1.0; 
stroke:#000000; stroke-width:39.3701; stroke-opacity:1; 
stroke-linecap:round; stroke-linejoin:round;">
</g>
<g style="fill:#000000; fill-opacity:1.0; 
stroke:#000000; stroke-width:0; stroke-opacity:1; 
stroke-linecap:round; stroke-linejoin:round;">
<circle cx="50400" cy="27600" r="68.8976" /> 
</g>
<g style="fill:#000000; fill-opacity:1.0; 
stroke:#000000; stroke-width:39.3701; stroke-opacity:1; 
stroke-linecap:round; stroke-linejoin:round;">
</g>
<g style="fill:#000000; fill-opacity:1.0; 
stroke:#000000; stroke-width:0; stroke-opacity:1; 
stroke-linecap:round; stroke-linejoin:round;">
<circle cx="50400" cy="26600" r="68.8976" /> 
</g>
<g style="fill:#000000; fill-opacity:1.0; 
stroke:#000000; stroke-width:39.3701; stroke-opacity:1; 
stroke-linecap:round; stroke-linejoin:round;">
</g>
<g style="fill:#000000; fill-opacity:1.0; 
stroke:#000000; stroke-width:0; stroke-opacity:1; 
stroke-linecap:round; stroke-linejoin:round;">
<circle cx="50400" cy="29929.4" r="68.8976" /> 
</g>
<g style="fill:#000000; fill-opacity:1.0; 
stroke:#000000; stroke-width:39.3701; stroke-opacity:1; 
stroke-linecap:round; stroke-linejoin:round;">
</g>
<g style="fill:#000000; fill-opacity:1.0; 
stroke:#000000; stroke-width:0; stroke-opacity:1; 
stroke-linecap:round; stroke-linejoin:round;">
<circle cx="50400" cy="28929.4" r="68.8976" /> 
</g>
<g style="fill:#000000; fill-opacity:1.0; 
stroke:#000000; stroke-width:39.3701; stroke-opacity:1; 
stroke-linecap:round; stroke-linejoin:round;">
</g>
<g style="fill:#000000; fill-opacity:1.0; 
stroke:#000000; stroke-width:0; stroke-opacity:1; 
stroke-linecap:round; stroke-linejoin:round;">
<circle cx="50414.4" cy="33979.4" r="68.8976" /> 
</g>
<g style="fill:#000000; fill-opacity:1.0; 
stroke:#000000; stroke-width:39.3701; stroke-opacity:1; 
stroke-linecap:round; stroke-linejoin:round;">
</g>
<g style="fill:#000000; fill-opacity:1.0; 
stroke:#000000; stroke-width:0; stroke-opacity:1; 
stroke-linecap:round; stroke-linejoin:round;">
<circle cx="50414.4" cy="34979.4" r="68.8976" /> 
</g>
<g style="fill:#000000; fill-opacity:1.0; 
stroke:#000000; stroke-width:39.3701; stroke-opacity:1; 
stroke-linecap:round; stroke-linejoin:round;">
</g>
<g style="fill:#000000; fill-opacity:1.0; 
stroke:#000000; stroke-width:0; stroke-opacity:1; 
stroke-linecap:round; stroke-linejoin:round;">
<circle cx="50414.4" cy="32679.4" r="68.8976" /> 
</g>
<g style="fill:#000000; fill-opacity:1.0; 
stroke:#000000; stroke-width:39.3701; stroke-opacity:1; 
stroke-linecap:round; stroke-linejoin:round;">
</g>
<g style="fill:#000000; fill-opacity:1.0; 
stroke:#000000; stroke-width:0; stroke-opacity:1; 
stroke-linecap:round; stroke-linejoin:round;">
<circle cx="50414.4" cy="31679.4" r="68.8976" /> 
</g>
<g style="fill:#000000; fill-opacity:1.0; 
stroke:#000000; stroke-width:39.3701; stroke-opacity:1; 
stroke-linecap:round; stroke-linejoin:round;">
</g>
<g style="fill:#000000; fill-opacity:1.0; 
stroke:#000000; stroke-width:0; stroke-opacity:1; 
stroke-linecap:round; stroke-linejoin:round;">
<circle cx="32700" cy="32924" r="68.8976" /> 
</g>
<g style="fill:#000000; fill-opacity:1.0; 
stroke:#000000; stroke-width:39.3701; stroke-opacity:1; 
stroke-linecap:round; stroke-linejoin:round;">
</g>
<g style="fill:#000000; fill-opacity:1.0; 
stroke:#000000; stroke-width:0; stroke-opacity:1; 
stroke-linecap:round; stroke-linejoin:round;">
<circle cx="32700" cy="31939.8" r="68.8976" /> 
</g>
<g style="fill:#000000; fill-opacity:1.0; 
stroke:#000000; stroke-width:39.3701; stroke-opacity:1; 
stroke-linecap:round; stroke-linejoin:round;">
</g>
<g style="fill:#000000; fill-opacity:1.0; 
stroke:#000000; stroke-width:0; stroke-opacity:1; 
stroke-linecap:round; stroke-linejoin:round;">
<circle cx="32700" cy="30955.5" r="68.8976" /> 
</g>
<g style="fill:#000000; fill-opacity:1.0; 
stroke:#000000; stroke-width:39.3701; stroke-opacity:1; 
stroke-linecap:round; stroke-linejoin:round;">
</g>
<g style="fill:#000000; fill-opacity:1.0; 
stroke:#000000; stroke-width:0; stroke-opacity:1; 
stroke-linecap:round; stroke-linejoin:round;">
<circle cx="32700" cy="29971.3" r="68.8976" /> 
</g>
<g style="fill:#000000; fill-opacity:1.0; 
stroke:#000000; stroke-width:39.3701; stroke-opacity:1; 
stroke-linecap:round; stroke-linejoin:round;">
</g>
<g style="fill:#000000; fill-opacity:1.0; 
stroke:#000000; stroke-width:0; stroke-opacity:1; 
stroke-linecap:round; stroke-linejoin:round;">
<circle cx="32700" cy="28987" r="68.8976" /> 
</g>
<g style="fill:#000000; fill-opacity:1.0; 
stroke:#000000; stroke-width:39.3701; stroke-opacity:1; 
stroke-linecap:round; stroke-linejoin:round;">
</g>
<g style="fill:#000000; fill-opacity:1.0; 
stroke:#000000; stroke-width:393.701; stroke-opacity:1; 
stroke-linecap:round; stroke-linejoin:round;">
</g>
<g style="fill:#000000; fill-opacity:0.0; 
stroke:#000000; stroke-width:393.701; stroke-opacity:1; 
stroke-linecap:round; stroke-linejoin:round;">
<path d="M35306 32800
L36093 32800
" />
<path d="M35306 35162
L36093 35162
" />
</g>
<g style="fill:#000000; fill-opacity:1.0; 
stroke:#000000; stroke-width:0; stroke-opacity:1; 
stroke-linecap:round; stroke-linejoin:round;">
<circle cx="31800" cy="25800" r="68.8976" /> 
</g>
<g style="fill:#000000; fill-opacity:1.0; 
stroke:#000000; stroke-width:39.3701; stroke-opacity:1; 
stroke-linecap:round; stroke-linejoin:round;">
</g>
<g style="fill:#000000; fill-opacity:1.0; 
stroke:#000000; stroke-width:0; stroke-opacity:1; 
stroke-linecap:round; stroke-linejoin:round;">
<circle cx="32800" cy="25800" r="68.8976" /> 
</g>
<g style="fill:#000000; fill-opacity:1.0; 
stroke:#000000; stroke-width:39.3701; stroke-opacity:1; 
stroke-linecap:round; stroke-linejoin:round;">
</g>
<g style="fill:#000000; fill-opacity:1.0; 
stroke:#000000; stroke-width:0; stroke-opacity:1; 
stroke-linecap:round; stroke-linejoin:round;">
<circle cx="33800" cy="25800" r="68.8976" /> 
</g>
<g style="fill:#000000; fill-opacity:1.0; 
stroke:#000000; stroke-width:39.3701; stroke-opacity:1; 
stroke-linecap:round; stroke-linejoin:round;">
</g>
<g style="fill:#000000; fill-opacity:1.0; 
stroke:#000000; stroke-width:0; stroke-opacity:1; 
stroke-linecap:round; stroke-linejoin:round;">
<circle cx="34800" cy="25800" r="68.8976" /> 
</g>
<g style="fill:#000000; fill-opacity:1.0; 
stroke:#000000; stroke-width:39.3701; stroke-opacity:1; 
stroke-linecap:round; stroke-linejoin:round;">
</g>
<g style="fill:#FFFFFF; fill-opacity:1.0; 
stroke:#FFFFFF; stroke-width:39.3701; stroke-opacity:1; 
stroke-linecap:round; stroke-linejoin:round;">
</g> 
</g> 
</svg>
