<?xml version="1.0" standalone="no"?>
 <!DOCTYPE svg PUBLIC "-//W3C//DTD SVG 1.1//EN" 
 "http://www.w3.org/Graphics/SVG/1.1/DTD/svg11.dtd"> 
<svg xmlns="http://www.w3.org/2000/svg" version="1.1" 
    width="29.7002cm" height="21.0007cm" viewBox="0 0 116930 82680 ">
<title>SVG Picture created as curtains-driver-F.Cu.svg date 2018/12/25 23:26:47 </title>
  <desc>Picture generated by PCBNEW </desc>
<g style="fill:#000000; fill-opacity:1;stroke:#000000; stroke-opacity:1;
stroke-linecap:round; stroke-linejoin:round; "
 transform="translate(0 0) scale(1 1)">
</g>
<g style="fill:#000000; fill-opacity:0.0; 
stroke:#000000; stroke-width:-0.000393701; stroke-opacity:1; 
stroke-linecap:round; stroke-linejoin:round;">
</g>
<g style="fill:#000000; fill-opacity:1.0; 
stroke:#000000; stroke-width:39.3701; stroke-opacity:1; 
stroke-linecap:round; stroke-linejoin:round;">
<rect x="62166.2" y="23075.4" width="25671.7" height="17214.8" rx="0" />
</g>
<g style="fill:#FFFFFF; fill-opacity:1.0; 
stroke:#FFFFFF; stroke-width:39.3701; stroke-opacity:1; 
stroke-linecap:round; stroke-linejoin:round;">
</g>
<g style="fill:#FFFFFF; fill-opacity:1.0; 
stroke:#FFFFFF; stroke-width:78.7402; stroke-opacity:1; 
stroke-linecap:round; stroke-linejoin:round;">
</g>
<g style="fill:#FFFFFF; fill-opacity:0.0; 
stroke:#FFFFFF; stroke-width:78.7402; stroke-opacity:1; 
stroke-linecap:round; stroke-linejoin:round;">
<path d="M64174 25100
L64174 36800
" />
<path d="M85830 25100
L85830 36800
" />
</g>
<g style="fill:#FFFFFF; fill-opacity:0.0; 
stroke:#FFFFFF; stroke-width:59.0551; stroke-opacity:1; 
stroke-linecap:round; stroke-linejoin:round;">
<path d="M64174 36811
L85827 36800
" />
<path d="M85827 25100
L64174 25100
" />
</g>
<g style="fill:#FFFFFF; fill-opacity:0.0; 
stroke:#FFFFFF; stroke-width:0; stroke-opacity:1; 
stroke-linecap:round; stroke-linejoin:round;">
</g>
<g style="fill:#FFFFFF; fill-opacity:1.0; 
stroke:#FFFFFF; stroke-width:0; stroke-opacity:1; 
stroke-linecap:round; stroke-linejoin:round;">
<polyline style="fill-rule:evenodd;"
points="73034,28795
73625,28795
73625,28204
73034,28204
73034,28795
" /> 
<polyline style="fill-rule:evenodd;"
points="73034,31866
73625,31866
73625,31275
73034,31275
73034,31866
" /> 
<polyline style="fill-rule:evenodd;"
points="75725,28204
75134,28204
75134,28795
75725,28795
75725,28204
" /> 
<polyline style="fill-rule:evenodd;"
points="75725,31275
75134,31275
75134,31866
75725,31866
75725,31275
" /> 
<polyline style="fill-rule:evenodd;"
points="77252,29155
77243,29157
77233,29159
77224,29163
77215,29167
77207,29172
77199,29177
77192,29184
77186,29191
77180,29199
77175,29207
77171,29216
77168,29225
77165,29234
77164,29244
77163,29253
77163,29746
77164,29755
77165,29765
77168,29774
77171,29783
77175,29792
77180,29800
77186,29808
77192,29815
77199,29822
77207,29827
77215,29832
77224,29836
77233,29840
77243,29842
77252,29844
77262,29844
77626,29844
77636,29844
77645,29842
77655,29840
77664,29836
77672,29832
77681,29827
77688,29822
77696,29815
77702,29808
77708,29800
77713,29792
77717,29783
77720,29774
77722,29765
77724,29755
77724,29746
77724,29253
77724,29244
77722,29234
77720,29225
77717,29216
77713,29207
77708,29199
77702,29191
77696,29184
77688,29177
77681,29172
77672,29167
77664,29163
77655,29159
77645,29157
77636,29155
77626,29155
77262,29155
77252,29155
" /> 
<polyline style="fill-rule:evenodd;"
points="78423,29155
78414,29157
78404,29159
78395,29163
78387,29167
78378,29172
78371,29177
78363,29184
78357,29191
78351,29199
78346,29207
78342,29216
78339,29225
78337,29234
78335,29244
78335,29253
78335,29746
78335,29755
78337,29765
78339,29774
78342,29783
78346,29792
78351,29800
78357,29808
78363,29815
78371,29822
78378,29827
78387,29832
78395,29836
78404,29840
78414,29842
78423,29844
78433,29844
78797,29844
78807,29844
78816,29842
78826,29840
78835,29836
78844,29832
78852,29827
78860,29822
78867,29815
78873,29808
78879,29800
78884,29792
78888,29783
78891,29774
78894,29765
78895,29755
78896,29746
78896,29253
78895,29244
78894,29234
78891,29225
78888,29216
78884,29207
78879,29199
78873,29191
78867,29184
78860,29177
78852,29172
78844,29167
78835,29163
78826,29159
78816,29157
78807,29155
78797,29155
78433,29155
78423,29155
" /> 
<polyline style="fill-rule:evenodd;"
points="79338,29124
79329,29125
79319,29128
79310,29131
79302,29135
79293,29140
79286,29146
79278,29152
79272,29160
79266,29167
79261,29176
79257,29184
79254,29193
79251,29203
79250,29212
79250,29222
79250,30777
79250,30787
79251,30796
79254,30806
79257,30815
79261,30823
79266,30832
79272,30839
79278,30847
79286,30853
79293,30859
79302,30864
79310,30868
79319,30871
79329,30874
79338,30875
79348,30875
80411,30875
80421,30875
80430,30874
80440,30871
80449,30868
80457,30864
80466,30859
80473,30853
80481,30847
80487,30839
80493,30832
80498,30823
80502,30815
80505,30806
80508,30796
80509,30787
80509,30777
80509,29222
80509,29212
80508,29203
80505,29193
80502,29184
80498,29176
80493,29167
80487,29160
80481,29152
80473,29146
80466,29140
80457,29135
80449,29131
80440,29128
80430,29125
80421,29124
80411,29124
79348,29124
79338,29124
" /> 
<polyline style="fill-rule:evenodd;"
points="81386,29124
81376,29125
81367,29128
81358,29131
81349,29135
81341,29140
81333,29146
81326,29152
81319,29160
81313,29167
81308,29176
81304,29184
81301,29193
81299,29203
81297,29212
81297,29222
81297,30777
81297,30787
81299,30796
81301,30806
81304,30815
81308,30823
81313,30832
81319,30839
81326,30847
81333,30853
81341,30859
81349,30864
81358,30868
81367,30871
81376,30874
81386,30875
81395,30875
82458,30875
82468,30875
82477,30874
82487,30871
82496,30868
82505,30864
82513,30859
82521,30853
82528,30847
82534,30839
82540,30832
82545,30823
82549,30815
82552,30806
82555,30796
82556,30787
82557,30777
82557,29222
82556,29212
82555,29203
82552,29193
82549,29184
82545,29176
82540,29167
82534,29160
82528,29152
82521,29146
82513,29140
82505,29135
82496,29131
82487,29128
82477,29125
82468,29124
82458,29124
81395,29124
81386,29124
" /> 
<polyline style="fill-rule:evenodd;"
points="79131,26303
80628,26303
80628,25516
79131,25516
79131,26303
" /> 
<polyline style="fill-rule:evenodd;"
points="79584,28783
80175,28783
80175,27996
79584,27996
79584,28783
" /> 
<polyline style="fill-rule:evenodd;"
points="78679,28783
79269,28783
79269,27996
78679,27996
78679,28783
" /> 
<polyline style="fill-rule:evenodd;"
points="80490,28783
81080,28783
81080,27996
80490,27996
80490,28783
" /> 
<circle cx="68830" cy="34500" r="433.071" /> 
</g>
<g style="fill:#FFFFFF; fill-opacity:1.0; 
stroke:#FFFFFF; stroke-width:39.3701; stroke-opacity:1; 
stroke-linecap:round; stroke-linejoin:round;">
</g>
<g style="fill:#FFFFFF; fill-opacity:1.0; 
stroke:#FFFFFF; stroke-width:0; stroke-opacity:1; 
stroke-linecap:round; stroke-linejoin:round;">
<circle cx="68430" cy="27500" r="433.071" /> 
</g>
<g style="fill:#FFFFFF; fill-opacity:1.0; 
stroke:#FFFFFF; stroke-width:39.3701; stroke-opacity:1; 
stroke-linecap:round; stroke-linejoin:round;">
</g>
<g style="fill:#FFFFFF; fill-opacity:1.0; 
stroke:#FFFFFF; stroke-width:0; stroke-opacity:1; 
stroke-linecap:round; stroke-linejoin:round;">
<circle cx="78880" cy="34600" r="433.071" /> 
</g>
<g style="fill:#FFFFFF; fill-opacity:1.0; 
stroke:#FFFFFF; stroke-width:39.3701; stroke-opacity:1; 
stroke-linecap:round; stroke-linejoin:round;">
</g>
<g style="fill:#FFFFFF; fill-opacity:1.0; 
stroke:#FFFFFF; stroke-width:0; stroke-opacity:1; 
stroke-linecap:round; stroke-linejoin:round;">
<circle cx="69080" cy="31500" r="433.071" /> 
</g>
<g style="fill:#FFFFFF; fill-opacity:1.0; 
stroke:#FFFFFF; stroke-width:39.3701; stroke-opacity:1; 
stroke-linecap:round; stroke-linejoin:round;">
</g>
<g style="fill:#FFFFFF; fill-opacity:1.0; 
stroke:#FFFFFF; stroke-width:0; stroke-opacity:1; 
stroke-linecap:round; stroke-linejoin:round;">
<circle cx="65780" cy="30800" r="433.071" /> 
</g>
<g style="fill:#FFFFFF; fill-opacity:1.0; 
stroke:#FFFFFF; stroke-width:39.3701; stroke-opacity:1; 
stroke-linecap:round; stroke-linejoin:round;">
</g>
<g style="fill:#FFFFFF; fill-opacity:1.0; 
stroke:#FFFFFF; stroke-width:0; stroke-opacity:1; 
stroke-linecap:round; stroke-linejoin:round;">
<circle cx="84180" cy="35250" r="433.071" /> 
</g>
<g style="fill:#FFFFFF; fill-opacity:1.0; 
stroke:#FFFFFF; stroke-width:39.3701; stroke-opacity:1; 
stroke-linecap:round; stroke-linejoin:round;">
</g>
<g style="fill:#FFFFFF; fill-opacity:1.0; 
stroke:#FFFFFF; stroke-width:0; stroke-opacity:1; 
stroke-linecap:round; stroke-linejoin:round;">
<circle cx="76330" cy="31650" r="433.071" /> 
</g>
<g style="fill:#FFFFFF; fill-opacity:1.0; 
stroke:#FFFFFF; stroke-width:39.3701; stroke-opacity:1; 
stroke-linecap:round; stroke-linejoin:round;">
</g>
<g style="fill:#FFFFFF; fill-opacity:1.0; 
stroke:#FFFFFF; stroke-width:0; stroke-opacity:1; 
stroke-linecap:round; stroke-linejoin:round;">
<circle cx="82380" cy="34000" r="413.386" /> 
</g>
<g style="fill:#FFFFFF; fill-opacity:1.0; 
stroke:#FFFFFF; stroke-width:39.3701; stroke-opacity:1; 
stroke-linecap:round; stroke-linejoin:round;">
</g>
<g style="fill:#FFFFFF; fill-opacity:1.0; 
stroke:#FFFFFF; stroke-width:0; stroke-opacity:1; 
stroke-linecap:round; stroke-linejoin:round;">
<circle cx="80030" cy="31700" r="413.386" /> 
</g>
<g style="fill:#FFFFFF; fill-opacity:1.0; 
stroke:#FFFFFF; stroke-width:39.3701; stroke-opacity:1; 
stroke-linecap:round; stroke-linejoin:round;">
</g>
<g style="fill:#FFFFFF; fill-opacity:1.0; 
stroke:#FFFFFF; stroke-width:0; stroke-opacity:1; 
stroke-linecap:round; stroke-linejoin:round;">
<circle cx="81101.3" cy="25755.1" r="413.386" /> 
</g>
<g style="fill:#FFFFFF; fill-opacity:1.0; 
stroke:#FFFFFF; stroke-width:39.3701; stroke-opacity:1; 
stroke-linecap:round; stroke-linejoin:round;">
</g>
<g style="fill:#FFFFFF; fill-opacity:1.0; 
stroke:#FFFFFF; stroke-width:0; stroke-opacity:1; 
stroke-linecap:round; stroke-linejoin:round;">
<circle cx="72430" cy="28508.7" r="433.071" /> 
</g>
<g style="fill:#FFFFFF; fill-opacity:1.0; 
stroke:#FFFFFF; stroke-width:39.3701; stroke-opacity:1; 
stroke-linecap:round; stroke-linejoin:round;">
</g>
<g style="fill:#FFFFFF; fill-opacity:1.0; 
stroke:#FFFFFF; stroke-width:314.961; stroke-opacity:1; 
stroke-linecap:round; stroke-linejoin:round;">
</g>
<g style="fill:#FFFFFF; fill-opacity:0.0; 
stroke:#FFFFFF; stroke-width:314.961; stroke-opacity:1; 
stroke-linecap:round; stroke-linejoin:round;">
<path d="M76040 28500
L75430 28500
" />
<path d="M76330 28789
L76040 28500
" />
<path d="M76330 31650
L76330 28789
" />
</g>
<g style="fill:#FFFFFF; fill-opacity:0.0; 
stroke:#FFFFFF; stroke-width:393.701; stroke-opacity:1; 
stroke-linecap:round; stroke-linejoin:round;">
<path d="M78615 28749
L78615 29500
" />
<path d="M78974 28390
L78615 28749
" />
<path d="M81795 34000
L82380 34000
" />
<path d="M79830 34000
L81795 34000
" />
<path d="M78615 32785
L79830 34000
" />
<path d="M78615 29500
L78615 32785
" />
</g>
<g style="fill:#FFFFFF; fill-opacity:0.0; 
stroke:#FFFFFF; stroke-width:314.961; stroke-opacity:1; 
stroke-linecap:round; stroke-linejoin:round;">
<path d="M79880 25909
L79880 28390
" />
<path d="M79880 28390
L79880 30000
" />
</g>
<g style="fill:#FFFFFF; fill-opacity:0.0; 
stroke:#FFFFFF; stroke-width:196.85; stroke-opacity:1; 
stroke-linecap:round; stroke-linejoin:round;">
<path d="M81339 25909
L81379 25950
" />
</g>
<g style="fill:#FFFFFF; fill-opacity:0.0; 
stroke:#FFFFFF; stroke-width:314.961; stroke-opacity:1; 
stroke-linecap:round; stroke-linejoin:round;">
<path d="M79880 31549
L80030 31699
" />
<path d="M79880 30000
L79880 31549
" />
<path d="M79880 25909
L80946 25909
" />
<path d="M80946 25909
L81101 25755
" />
<path d="M73330 28500
L72438 28500
" />
<path d="M72438 28500
L72430 28508
" />
</g>
<g style="fill:#FFFFFF; fill-opacity:1.0; 
stroke:#FFFFFF; stroke-width:100; stroke-opacity:1; 
stroke-linecap:round; stroke-linejoin:round;">
<polyline style="fill-rule:evenodd;"
points="84383,25421
84508,25546
84576,25711
84576,25888
84508,26053
84383,26178
84218,26246
84041,26246
83876,26178
83751,26053
83683,25888
83683,25711
83751,25546
83876,25421
83977,25379
83282,25379
83383,25421
83508,25546
83576,25711
83576,25888
83508,26053
83383,26178
83218,26246
83041,26246
82876,26178
82751,26053
82683,25888
82683,25711
82751,25546
82876,25421
82977,25379
82282,25379
82383,25421
82508,25546
82576,25711
82576,25888
82508,26053
82383,26178
82218,26246
82041,26246
81876,26178
81751,26053
81726,25993
81708,26085
81631,26201
81517,26277
81477,26317
81233,26418
80969,26418
80868,26376
80863,26401
80808,26483
80725,26539
80628,26558
80287,26558
80287,27770
80332,27800
80348,27784
80440,27746
80673,27746
80735,27808
80735,28340
80727,28340
80727,28440
80735,28440
80735,28971
80690,29016
80737,29087
80764,29222
80764,30777
80737,30912
80661,31027
80546,31103
80411,31130
80389,31130
80405,31137
80592,31324
80693,31568
80693,31831
80592,32075
80405,32262
80161,32363
79898,32363
79654,32262
79467,32075
79366,31831
79366,31568
79467,31324
79472,31319
79472,31130
79348,31130
79213,31103
79098,31027
79062,30973
79062,32600
80015,33553
81888,33553
82004,33437
82248,33336
82511,33336
82755,33437
82942,33624
83043,33868
83043,34131
82942,34375
82755,34562
82511,34663
82248,34663
82004,34562
81888,34446
79874,34446
79830,34455
79785,34446
79655,34420
79507,34322
79482,34284
79084,33886
66982,33886
66982,34072
66911,34243
66779,34374
66608,34445
66422,34445
66251,34374
66120,34243
66049,34072
66049,33886
66120,33715
66251,33583
66422,33512
66608,33512
66779,33583
66911,33715
66982,33886
79084,33886
78330,33132
78293,33107
78194,32959
78168,32829
78160,32785
78168,32741
78168,32586
66982,32586
66982,32772
66911,32943
66779,33074
66608,33145
66422,33145
66251,33074
66120,32943
66049,32772
66049,32586
66120,32415
66251,32283
66422,32212
66608,32212
66779,32283
66911,32415
66982,32586
78168,32586
78168,31514
77013,31514
77013,31785
76909,32036
76716,32229
76465,32333
76194,32333
75943,32229
75813,32099
75775,32116
75542,32116
75480,32053
75480,31620
75380,31620
75380,32053
75317,32116
75084,32116
74993,32078
74922,32007
74884,31915
74884,31683
73875,31683
73875,31915
73837,32007
73766,32078
73675,32116
73442,32116
73380,32053
73380,31620
73280,31620
73280,32053
73217,32116
72984,32116
72893,32078
72822,32007
72784,31915
72784,31683
72847,31620
73280,31620
73380,31620
73812,31620
73875,31683
74884,31683
74947,31620
75380,31620
75480,31620
75487,31620
75487,31586
66982,31586
66982,31772
66911,31943
66779,32074
66608,32145
66422,32145
66251,32074
66120,31943
66049,31772
66049,31586
66120,31415
66251,31283
66422,31212
66608,31212
66779,31283
66911,31415
66982,31586
75487,31586
75487,31520
75480,31520
75480,31088
75380,31088
75380,31520
74947,31520
74884,31458
74884,31225
73875,31225
73875,31458
73812,31520
73380,31520
73380,31088
73280,31088
73280,31520
72847,31520
72784,31458
72784,31225
72822,31133
72893,31063
72984,31025
73217,31025
73280,31088
73380,31088
73442,31025
73675,31025
73766,31063
73837,31133
73875,31225
74884,31225
74922,31133
74993,31063
75084,31025
75317,31025
75380,31088
75480,31088
75542,31025
75775,31025
75866,31063
75908,31105
75922,31091
75922,29836
66996,29836
66996,30022
66925,30193
66794,30324
66622,30395
66437,30395
66265,30324
66134,30193
66063,30022
66063,29836
66134,29665
66265,29533
66437,29462
66622,29462
66794,29533
66925,29665
66996,29836
75922,29836
75922,28958
75919,28955
75905,28975
75822,29030
75725,29050
75134,29050
75037,29030
74954,28975
74899,28892
74879,28795
74879,28204
73880,28204
73880,28795
73860,28892
73805,28975
73722,29030
73625,29050
73034,29050
72937,29030
72899,29005
72816,29087
72565,29191
72294,29191
72043,29087
71850,28895
71826,28836
66996,28836
66996,29022
66925,29193
66794,29324
66622,29395
66437,29395
66265,29324
66134,29193
66063,29022
66063,28836
66134,28665
66265,28533
66437,28462
66622,28462
66794,28533
66925,28665
66996,28836
71826,28836
71746,28644
71746,28372
71850,28121
72043,27929
72294,27825
72565,27825
72816,27929
72888,28001
72937,27969
73034,27949
73625,27949
73722,27969
73805,28024
73860,28107
73880,28204
74879,28204
74899,28107
74954,28024
75037,27969
75134,27949
75725,27949
75822,27969
75905,28024
75950,28092
76000,28092
76040,28084
76080,28092
76199,28116
76334,28206
76356,28240
76589,28473
76623,28495
76646,28530
76713,28630
76745,28789
76737,28829
76737,31091
76909,31263
77013,31514
78168,31514
78168,29973
78107,29881
78080,29746
78080,29612
77974,29612
77974,29894
77936,29986
77866,30056
77774,30094
77556,30094
77494,30031
77494,29550
77394,29550
77394,30031
77331,30094
77114,30094
77022,30056
76951,29986
76913,29894
76913,29612
76976,29550
77394,29550
77494,29550
77912,29550
77974,29612
78080,29612
78080,29253
78107,29118
78115,29105
77974,29105
77974,29387
77912,29450
77494,29450
77494,28968
77394,28968
77394,29450
76976,29450
76913,29387
76913,29105
76951,29013
77022,28943
77114,28905
77331,28905
77394,28968
77494,28968
77556,28905
77774,28905
77866,28943
77936,29013
77974,29105
78115,29105
78168,29026
78168,28793
78160,28749
78194,28574
78211,28550
78293,28426
78330,28401
78424,28308
78424,27996
78443,27898
78498,27816
78581,27760
78679,27741
79269,27741
79367,27760
79427,27801
79472,27770
79472,26558
79131,26558
79034,26539
78951,26483
78896,26401
78877,26303
78877,25516
78896,25418
78922,25379
78080,25379
78080,27500
78076,27519
78065,27535
78049,27546
78030,27550
70730,27550
70710,27546
70694,27535
70683,27519
70681,27507
66996,27507
66996,27692
66925,27864
66794,27995
66622,28066
66437,28066
66265,27995
66134,27864
66063,27692
66063,27507
66134,27335
66265,27204
66437,27133
66622,27133
66794,27204
66925,27335
66996,27507
70681,27507
70680,27500
70680,26507
66996,26507
66996,26692
66925,26864
66794,26995
66622,27066
66437,27066
66265,26995
66134,26864
66063,26692
66063,26507
66134,26335
66265,26204
66437,26133
66622,26133
66794,26204
66925,26335
66996,26507
70680,26507
70680,25379
64463,25379
64463,36531
85540,36520
85540,35162
82079,35162
82044,35336
81945,35484
81798,35583
81667,35609
80792,35609
80661,35583
80514,35484
80415,35336
80380,35162
80415,34987
80483,34886
66982,34886
66982,35072
66911,35243
66779,35374
66608,35445
66422,35445
66251,35374
66120,35243
66049,35072
66049,34886
66120,34715
66251,34583
66422,34512
66608,34512
66779,34583
66911,34715
66982,34886
80483,34886
80514,34840
80661,34741
80792,34715
81667,34715
81798,34741
81945,34840
82044,34987
82079,35162
85540,35162
85540,32837
84667,32837
84667,33010
84600,33171
84477,33294
84316,33361
84143,33361
83982,33294
83859,33171
83792,33010
83792,32837
83808,32800
82079,32800
82044,32974
81945,33122
81798,33220
81667,33246
80792,33246
80661,33220
80514,33122
80415,32974
80380,32800
80415,32625
80514,32477
80661,32379
80792,32353
81667,32353
81798,32379
81945,32477
82044,32625
82079,32800
83808,32800
83859,32676
83982,32553
84143,32487
84316,32487
84477,32553
84600,32676
84667,32837
85540,32837
85540,31852
84667,31852
84667,32026
84600,32187
84477,32310
84316,32376
84143,32376
83982,32310
83859,32187
83792,32026
83792,31852
83859,31692
83982,31569
84143,31502
84316,31502
84477,31569
84600,31692
84667,31852
85540,31852
85540,30868
84667,30868
84667,31042
84600,31203
84477,31325
84316,31392
84143,31392
83982,31325
83859,31203
83792,31042
83792,30868
83859,30707
83982,30585
84143,30518
84316,30518
84477,30585
84600,30707
84667,30868
85540,30868
85540,29884
84667,29884
84667,30058
84600,30218
84477,30341
84316,30408
84143,30408
83982,30341
83859,30218
83815,30112
82807,30112
82807,30925
82769,31017
82698,31087
82606,31125
82039,31125
81977,31063
81977,30050
81877,30050
81877,31063
81814,31125
81247,31125
81155,31087
81085,31017
81047,30925
81047,30112
81109,30050
81877,30050
81977,30050
82744,30050
82807,30112
83815,30112
83792,30058
83792,29884
83859,29723
83982,29600
84143,29534
84316,29534
84477,29600
84600,29723
84667,29884
85540,29884
85540,28900
84667,28900
84667,29073
84600,29234
84477,29357
84316,29424
84143,29424
83982,29357
83859,29234
83793,29074
82807,29074
82807,29887
82744,29950
81977,29950
81977,28936
81877,28936
81877,29950
81109,29950
81047,29887
81047,29074
81064,29033
80898,29033
80835,28971
80835,28440
81268,28440
81330,28502
81330,28833
81314,28874
81814,28874
81877,28936
81977,28936
82039,28874
82606,28874
82698,28912
82769,28982
82807,29074
83793,29074
83792,29073
83792,28900
83859,28739
83982,28616
84143,28550
84316,28550
84477,28616
84600,28739
84667,28900
85540,28900
85540,27946
81330,27946
81330,28277
81268,28340
80835,28340
80835,27808
80898,27746
81130,27746
81222,27784
81292,27854
81330,27946
85540,27946
85540,25976
85508,26053
85383,26178
85218,26246
85041,26246
84876,26178
84751,26053
84683,25888
84683,25711
84751,25546
84876,25421
84977,25379
84282,25379
84383,25421
" /> 
</g>
<g style="fill:#000000; fill-opacity:1.0; 
stroke:#000000; stroke-width:100; stroke-opacity:1; 
stroke-linecap:round; stroke-linejoin:round;">
</g>
<g style="fill:#000000; fill-opacity:1.0; 
stroke:#000000; stroke-width:0; stroke-opacity:1; 
stroke-linecap:round; stroke-linejoin:round;">
<circle cx="68830" cy="34500" r="68.8976" /> 
</g>
<g style="fill:#000000; fill-opacity:1.0; 
stroke:#000000; stroke-width:39.3701; stroke-opacity:1; 
stroke-linecap:round; stroke-linejoin:round;">
</g>
<g style="fill:#000000; fill-opacity:1.0; 
stroke:#000000; stroke-width:0; stroke-opacity:1; 
stroke-linecap:round; stroke-linejoin:round;">
<circle cx="68430" cy="27500" r="68.8976" /> 
</g>
<g style="fill:#000000; fill-opacity:1.0; 
stroke:#000000; stroke-width:39.3701; stroke-opacity:1; 
stroke-linecap:round; stroke-linejoin:round;">
</g>
<g style="fill:#000000; fill-opacity:1.0; 
stroke:#000000; stroke-width:0; stroke-opacity:1; 
stroke-linecap:round; stroke-linejoin:round;">
<circle cx="78880" cy="34600" r="68.8976" /> 
</g>
<g style="fill:#000000; fill-opacity:1.0; 
stroke:#000000; stroke-width:39.3701; stroke-opacity:1; 
stroke-linecap:round; stroke-linejoin:round;">
</g>
<g style="fill:#000000; fill-opacity:1.0; 
stroke:#000000; stroke-width:0; stroke-opacity:1; 
stroke-linecap:round; stroke-linejoin:round;">
<circle cx="69080" cy="31500" r="68.8976" /> 
</g>
<g style="fill:#000000; fill-opacity:1.0; 
stroke:#000000; stroke-width:39.3701; stroke-opacity:1; 
stroke-linecap:round; stroke-linejoin:round;">
</g>
<g style="fill:#000000; fill-opacity:1.0; 
stroke:#000000; stroke-width:0; stroke-opacity:1; 
stroke-linecap:round; stroke-linejoin:round;">
<circle cx="65780" cy="30800" r="68.8976" /> 
</g>
<g style="fill:#000000; fill-opacity:1.0; 
stroke:#000000; stroke-width:39.3701; stroke-opacity:1; 
stroke-linecap:round; stroke-linejoin:round;">
</g>
<g style="fill:#000000; fill-opacity:1.0; 
stroke:#000000; stroke-width:0; stroke-opacity:1; 
stroke-linecap:round; stroke-linejoin:round;">
<circle cx="84180" cy="35250" r="68.8976" /> 
</g>
<g style="fill:#000000; fill-opacity:1.0; 
stroke:#000000; stroke-width:39.3701; stroke-opacity:1; 
stroke-linecap:round; stroke-linejoin:round;">
</g>
<g style="fill:#000000; fill-opacity:1.0; 
stroke:#000000; stroke-width:0; stroke-opacity:1; 
stroke-linecap:round; stroke-linejoin:round;">
<circle cx="76330" cy="31650" r="68.8976" /> 
</g>
<g style="fill:#000000; fill-opacity:1.0; 
stroke:#000000; stroke-width:39.3701; stroke-opacity:1; 
stroke-linecap:round; stroke-linejoin:round;">
</g>
<g style="fill:#000000; fill-opacity:1.0; 
stroke:#000000; stroke-width:0; stroke-opacity:1; 
stroke-linecap:round; stroke-linejoin:round;">
<circle cx="82380" cy="34000" r="68.8976" /> 
</g>
<g style="fill:#000000; fill-opacity:1.0; 
stroke:#000000; stroke-width:39.3701; stroke-opacity:1; 
stroke-linecap:round; stroke-linejoin:round;">
</g>
<g style="fill:#000000; fill-opacity:1.0; 
stroke:#000000; stroke-width:0; stroke-opacity:1; 
stroke-linecap:round; stroke-linejoin:round;">
<circle cx="80030" cy="31700" r="68.8976" /> 
</g>
<g style="fill:#000000; fill-opacity:1.0; 
stroke:#000000; stroke-width:39.3701; stroke-opacity:1; 
stroke-linecap:round; stroke-linejoin:round;">
</g>
<g style="fill:#000000; fill-opacity:1.0; 
stroke:#000000; stroke-width:0; stroke-opacity:1; 
stroke-linecap:round; stroke-linejoin:round;">
<circle cx="81101.3" cy="25755.1" r="68.8976" /> 
</g>
<g style="fill:#000000; fill-opacity:1.0; 
stroke:#000000; stroke-width:39.3701; stroke-opacity:1; 
stroke-linecap:round; stroke-linejoin:round;">
</g>
<g style="fill:#000000; fill-opacity:1.0; 
stroke:#000000; stroke-width:0; stroke-opacity:1; 
stroke-linecap:round; stroke-linejoin:round;">
<circle cx="72430" cy="28508.7" r="68.8976" /> 
</g>
<g style="fill:#000000; fill-opacity:1.0; 
stroke:#000000; stroke-width:39.3701; stroke-opacity:1; 
stroke-linecap:round; stroke-linejoin:round;">
</g>
<g style="fill:#000000; fill-opacity:1.0; 
stroke:#000000; stroke-width:0; stroke-opacity:1; 
stroke-linecap:round; stroke-linejoin:round;">
<circle cx="66530" cy="27600" r="68.8976" /> 
</g>
<g style="fill:#000000; fill-opacity:1.0; 
stroke:#000000; stroke-width:39.3701; stroke-opacity:1; 
stroke-linecap:round; stroke-linejoin:round;">
</g>
<g style="fill:#000000; fill-opacity:1.0; 
stroke:#000000; stroke-width:0; stroke-opacity:1; 
stroke-linecap:round; stroke-linejoin:round;">
<circle cx="66530" cy="26600" r="68.8976" /> 
</g>
<g style="fill:#000000; fill-opacity:1.0; 
stroke:#000000; stroke-width:39.3701; stroke-opacity:1; 
stroke-linecap:round; stroke-linejoin:round;">
</g>
<g style="fill:#000000; fill-opacity:1.0; 
stroke:#000000; stroke-width:0; stroke-opacity:1; 
stroke-linecap:round; stroke-linejoin:round;">
<circle cx="66530" cy="29929.4" r="68.8976" /> 
</g>
<g style="fill:#000000; fill-opacity:1.0; 
stroke:#000000; stroke-width:39.3701; stroke-opacity:1; 
stroke-linecap:round; stroke-linejoin:round;">
</g>
<g style="fill:#000000; fill-opacity:1.0; 
stroke:#000000; stroke-width:0; stroke-opacity:1; 
stroke-linecap:round; stroke-linejoin:round;">
<circle cx="66530" cy="28929.4" r="68.8976" /> 
</g>
<g style="fill:#000000; fill-opacity:1.0; 
stroke:#000000; stroke-width:39.3701; stroke-opacity:1; 
stroke-linecap:round; stroke-linejoin:round;">
</g>
<g style="fill:#000000; fill-opacity:1.0; 
stroke:#000000; stroke-width:0; stroke-opacity:1; 
stroke-linecap:round; stroke-linejoin:round;">
<circle cx="66515.6" cy="33979.4" r="68.8976" /> 
</g>
<g style="fill:#000000; fill-opacity:1.0; 
stroke:#000000; stroke-width:39.3701; stroke-opacity:1; 
stroke-linecap:round; stroke-linejoin:round;">
</g>
<g style="fill:#000000; fill-opacity:1.0; 
stroke:#000000; stroke-width:0; stroke-opacity:1; 
stroke-linecap:round; stroke-linejoin:round;">
<circle cx="66515.6" cy="34979.4" r="68.8976" /> 
</g>
<g style="fill:#000000; fill-opacity:1.0; 
stroke:#000000; stroke-width:39.3701; stroke-opacity:1; 
stroke-linecap:round; stroke-linejoin:round;">
</g>
<g style="fill:#000000; fill-opacity:1.0; 
stroke:#000000; stroke-width:0; stroke-opacity:1; 
stroke-linecap:round; stroke-linejoin:round;">
<circle cx="66515.6" cy="32679.4" r="68.8976" /> 
</g>
<g style="fill:#000000; fill-opacity:1.0; 
stroke:#000000; stroke-width:39.3701; stroke-opacity:1; 
stroke-linecap:round; stroke-linejoin:round;">
</g>
<g style="fill:#000000; fill-opacity:1.0; 
stroke:#000000; stroke-width:0; stroke-opacity:1; 
stroke-linecap:round; stroke-linejoin:round;">
<circle cx="66515.6" cy="31679.4" r="68.8976" /> 
</g>
<g style="fill:#000000; fill-opacity:1.0; 
stroke:#000000; stroke-width:39.3701; stroke-opacity:1; 
stroke-linecap:round; stroke-linejoin:round;">
</g>
<g style="fill:#000000; fill-opacity:1.0; 
stroke:#000000; stroke-width:0; stroke-opacity:1; 
stroke-linecap:round; stroke-linejoin:round;">
<circle cx="84230" cy="32924" r="68.8976" /> 
</g>
<g style="fill:#000000; fill-opacity:1.0; 
stroke:#000000; stroke-width:39.3701; stroke-opacity:1; 
stroke-linecap:round; stroke-linejoin:round;">
</g>
<g style="fill:#000000; fill-opacity:1.0; 
stroke:#000000; stroke-width:0; stroke-opacity:1; 
stroke-linecap:round; stroke-linejoin:round;">
<circle cx="84230" cy="31939.8" r="68.8976" /> 
</g>
<g style="fill:#000000; fill-opacity:1.0; 
stroke:#000000; stroke-width:39.3701; stroke-opacity:1; 
stroke-linecap:round; stroke-linejoin:round;">
</g>
<g style="fill:#000000; fill-opacity:1.0; 
stroke:#000000; stroke-width:0; stroke-opacity:1; 
stroke-linecap:round; stroke-linejoin:round;">
<circle cx="84230" cy="30955.5" r="68.8976" /> 
</g>
<g style="fill:#000000; fill-opacity:1.0; 
stroke:#000000; stroke-width:39.3701; stroke-opacity:1; 
stroke-linecap:round; stroke-linejoin:round;">
</g>
<g style="fill:#000000; fill-opacity:1.0; 
stroke:#000000; stroke-width:0; stroke-opacity:1; 
stroke-linecap:round; stroke-linejoin:round;">
<circle cx="84230" cy="29971.3" r="68.8976" /> 
</g>
<g style="fill:#000000; fill-opacity:1.0; 
stroke:#000000; stroke-width:39.3701; stroke-opacity:1; 
stroke-linecap:round; stroke-linejoin:round;">
</g>
<g style="fill:#000000; fill-opacity:1.0; 
stroke:#000000; stroke-width:0; stroke-opacity:1; 
stroke-linecap:round; stroke-linejoin:round;">
<circle cx="84230" cy="28987" r="68.8976" /> 
</g>
<g style="fill:#000000; fill-opacity:1.0; 
stroke:#000000; stroke-width:39.3701; stroke-opacity:1; 
stroke-linecap:round; stroke-linejoin:round;">
</g>
<g style="fill:#000000; fill-opacity:1.0; 
stroke:#000000; stroke-width:393.701; stroke-opacity:1; 
stroke-linecap:round; stroke-linejoin:round;">
</g>
<g style="fill:#000000; fill-opacity:0.0; 
stroke:#000000; stroke-width:393.701; stroke-opacity:1; 
stroke-linecap:round; stroke-linejoin:round;">
<path d="M81623 32800
L80836 32800
" />
<path d="M81623 35162
L80836 35162
" />
</g>
<g style="fill:#000000; fill-opacity:1.0; 
stroke:#000000; stroke-width:0; stroke-opacity:1; 
stroke-linecap:round; stroke-linejoin:round;">
<circle cx="85130" cy="25800" r="68.8976" /> 
</g>
<g style="fill:#000000; fill-opacity:1.0; 
stroke:#000000; stroke-width:39.3701; stroke-opacity:1; 
stroke-linecap:round; stroke-linejoin:round;">
</g>
<g style="fill:#000000; fill-opacity:1.0; 
stroke:#000000; stroke-width:0; stroke-opacity:1; 
stroke-linecap:round; stroke-linejoin:round;">
<circle cx="84130" cy="25800" r="68.8976" /> 
</g>
<g style="fill:#000000; fill-opacity:1.0; 
stroke:#000000; stroke-width:39.3701; stroke-opacity:1; 
stroke-linecap:round; stroke-linejoin:round;">
</g>
<g style="fill:#000000; fill-opacity:1.0; 
stroke:#000000; stroke-width:0; stroke-opacity:1; 
stroke-linecap:round; stroke-linejoin:round;">
<circle cx="83130" cy="25800" r="68.8976" /> 
</g>
<g style="fill:#000000; fill-opacity:1.0; 
stroke:#000000; stroke-width:39.3701; stroke-opacity:1; 
stroke-linecap:round; stroke-linejoin:round;">
</g>
<g style="fill:#000000; fill-opacity:1.0; 
stroke:#000000; stroke-width:0; stroke-opacity:1; 
stroke-linecap:round; stroke-linejoin:round;">
<circle cx="82130" cy="25800" r="68.8976" /> 
</g>
<g style="fill:#000000; fill-opacity:1.0; 
stroke:#000000; stroke-width:39.3701; stroke-opacity:1; 
stroke-linecap:round; stroke-linejoin:round;">
</g>
<g style="fill:#FFFFFF; fill-opacity:1.0; 
stroke:#FFFFFF; stroke-width:39.3701; stroke-opacity:1; 
stroke-linecap:round; stroke-linejoin:round;">
</g> 
</svg>
