G04 #@! TF.GenerationSoftware,KiCad,Pcbnew,(5.1.2-1)-1*
G04 #@! TF.CreationDate,2019-10-05T22:58:12+03:00*
G04 #@! TF.ProjectId,curtains-driver,63757274-6169-46e7-932d-647269766572,rev?*
G04 #@! TF.SameCoordinates,Original*
G04 #@! TF.FileFunction,Legend,Top*
G04 #@! TF.FilePolarity,Positive*
%FSLAX46Y46*%
G04 Gerber Fmt 4.6, Leading zero omitted, Abs format (unit mm)*
G04 Created by KiCad (PCBNEW (5.1.2-1)-1) date 2019-10-05 22:58:12*
%MOMM*%
%LPD*%
G04 APERTURE LIST*
%ADD10C,0.150000*%
%ADD11C,0.120000*%
G04 APERTURE END LIST*
D10*
X101716666Y-66548857D02*
X101664285Y-66601238D01*
X101507142Y-66653619D01*
X101402380Y-66653619D01*
X101245238Y-66601238D01*
X101140476Y-66496476D01*
X101088095Y-66391714D01*
X101035714Y-66182190D01*
X101035714Y-66025047D01*
X101088095Y-65815523D01*
X101140476Y-65710761D01*
X101245238Y-65606000D01*
X101402380Y-65553619D01*
X101507142Y-65553619D01*
X101664285Y-65606000D01*
X101716666Y-65658380D01*
X102659523Y-65920285D02*
X102659523Y-66653619D01*
X102188095Y-65920285D02*
X102188095Y-66496476D01*
X102240476Y-66601238D01*
X102345238Y-66653619D01*
X102502380Y-66653619D01*
X102607142Y-66601238D01*
X102659523Y-66548857D01*
X103183333Y-66653619D02*
X103183333Y-65920285D01*
X103183333Y-66129809D02*
X103235714Y-66025047D01*
X103288095Y-65972666D01*
X103392857Y-65920285D01*
X103497619Y-65920285D01*
X103707142Y-65920285D02*
X104126190Y-65920285D01*
X103864285Y-65553619D02*
X103864285Y-66496476D01*
X103916666Y-66601238D01*
X104021428Y-66653619D01*
X104126190Y-66653619D01*
X104964285Y-66653619D02*
X104964285Y-66077428D01*
X104911904Y-65972666D01*
X104807142Y-65920285D01*
X104597619Y-65920285D01*
X104492857Y-65972666D01*
X104964285Y-66601238D02*
X104859523Y-66653619D01*
X104597619Y-66653619D01*
X104492857Y-66601238D01*
X104440476Y-66496476D01*
X104440476Y-66391714D01*
X104492857Y-66286952D01*
X104597619Y-66234571D01*
X104859523Y-66234571D01*
X104964285Y-66182190D01*
X105488095Y-66653619D02*
X105488095Y-65920285D01*
X105488095Y-65553619D02*
X105435714Y-65606000D01*
X105488095Y-65658380D01*
X105540476Y-65606000D01*
X105488095Y-65553619D01*
X105488095Y-65658380D01*
X106011904Y-65920285D02*
X106011904Y-66653619D01*
X106011904Y-66025047D02*
X106064285Y-65972666D01*
X106169047Y-65920285D01*
X106326190Y-65920285D01*
X106430952Y-65972666D01*
X106483333Y-66077428D01*
X106483333Y-66653619D01*
X107845238Y-66653619D02*
X107845238Y-65553619D01*
X108107142Y-65553619D01*
X108264285Y-65606000D01*
X108369047Y-65710761D01*
X108421428Y-65815523D01*
X108473809Y-66025047D01*
X108473809Y-66182190D01*
X108421428Y-66391714D01*
X108369047Y-66496476D01*
X108264285Y-66601238D01*
X108107142Y-66653619D01*
X107845238Y-66653619D01*
X108945238Y-66653619D02*
X108945238Y-65920285D01*
X108945238Y-66129809D02*
X108997619Y-66025047D01*
X109050000Y-65972666D01*
X109154761Y-65920285D01*
X109259523Y-65920285D01*
X109626190Y-66653619D02*
X109626190Y-65920285D01*
X109626190Y-65553619D02*
X109573809Y-65606000D01*
X109626190Y-65658380D01*
X109678571Y-65606000D01*
X109626190Y-65553619D01*
X109626190Y-65658380D01*
X110045238Y-65920285D02*
X110307142Y-66653619D01*
X110569047Y-65920285D01*
X111407142Y-66601238D02*
X111302380Y-66653619D01*
X111092857Y-66653619D01*
X110988095Y-66601238D01*
X110935714Y-66496476D01*
X110935714Y-66077428D01*
X110988095Y-65972666D01*
X111092857Y-65920285D01*
X111302380Y-65920285D01*
X111407142Y-65972666D01*
X111459523Y-66077428D01*
X111459523Y-66182190D01*
X110935714Y-66286952D01*
X111930952Y-66653619D02*
X111930952Y-65920285D01*
X111930952Y-66129809D02*
X111983333Y-66025047D01*
X112035714Y-65972666D01*
X112140476Y-65920285D01*
X112245238Y-65920285D01*
X113345238Y-65920285D02*
X113607142Y-66653619D01*
X113869047Y-65920285D01*
X114235714Y-65658380D02*
X114288095Y-65606000D01*
X114392857Y-65553619D01*
X114654761Y-65553619D01*
X114759523Y-65606000D01*
X114811904Y-65658380D01*
X114864285Y-65763142D01*
X114864285Y-65867904D01*
X114811904Y-66025047D01*
X114183333Y-66653619D01*
X114864285Y-66653619D01*
X105357142Y-68453619D02*
X105357142Y-67353619D01*
X105357142Y-67772666D02*
X105461904Y-67720285D01*
X105671428Y-67720285D01*
X105776190Y-67772666D01*
X105828571Y-67825047D01*
X105880952Y-67929809D01*
X105880952Y-68244095D01*
X105828571Y-68348857D01*
X105776190Y-68401238D01*
X105671428Y-68453619D01*
X105461904Y-68453619D01*
X105357142Y-68401238D01*
X106352380Y-68453619D02*
X106352380Y-67720285D01*
X106352380Y-67929809D02*
X106404761Y-67825047D01*
X106457142Y-67772666D01*
X106561904Y-67720285D01*
X106666666Y-67720285D01*
X107033333Y-67720285D02*
X107033333Y-68453619D01*
X107033333Y-67825047D02*
X107085714Y-67772666D01*
X107190476Y-67720285D01*
X107347619Y-67720285D01*
X107452380Y-67772666D01*
X107504761Y-67877428D01*
X107504761Y-68453619D01*
X107923809Y-67720285D02*
X108185714Y-68453619D01*
X108447619Y-67720285D01*
X108866666Y-68348857D02*
X108919047Y-68401238D01*
X108866666Y-68453619D01*
X108814285Y-68401238D01*
X108866666Y-68348857D01*
X108866666Y-68453619D01*
X109390476Y-68453619D02*
X109390476Y-67720285D01*
X109390476Y-67929809D02*
X109442857Y-67825047D01*
X109495238Y-67772666D01*
X109600000Y-67720285D01*
X109704761Y-67720285D01*
X110542857Y-67720285D02*
X110542857Y-68453619D01*
X110071428Y-67720285D02*
X110071428Y-68296476D01*
X110123809Y-68401238D01*
X110228571Y-68453619D01*
X110385714Y-68453619D01*
X110490476Y-68401238D01*
X110542857Y-68348857D01*
X125420380Y-83994380D02*
X124944190Y-84327714D01*
X125420380Y-84565809D02*
X124420380Y-84565809D01*
X124420380Y-84184857D01*
X124468000Y-84089619D01*
X124515619Y-84042000D01*
X124610857Y-83994380D01*
X124753714Y-83994380D01*
X124848952Y-84042000D01*
X124896571Y-84089619D01*
X124944190Y-84184857D01*
X124944190Y-84565809D01*
X124896571Y-83565809D02*
X124896571Y-83232476D01*
X125420380Y-83089619D02*
X125420380Y-83565809D01*
X124420380Y-83565809D01*
X124420380Y-83089619D01*
X124896571Y-82661047D02*
X124896571Y-82327714D01*
X125420380Y-82184857D02*
X125420380Y-82661047D01*
X124420380Y-82661047D01*
X124420380Y-82184857D01*
X125420380Y-81756285D02*
X124420380Y-81756285D01*
X124420380Y-81518190D01*
X124468000Y-81375333D01*
X124563238Y-81280095D01*
X124658476Y-81232476D01*
X124848952Y-81184857D01*
X124991809Y-81184857D01*
X125182285Y-81232476D01*
X125277523Y-81280095D01*
X125372761Y-81375333D01*
X125420380Y-81518190D01*
X125420380Y-81756285D01*
X124515619Y-80042000D02*
X124468000Y-79994380D01*
X124420380Y-79899142D01*
X124420380Y-79661047D01*
X124468000Y-79565809D01*
X124515619Y-79518190D01*
X124610857Y-79470571D01*
X124706095Y-79470571D01*
X124848952Y-79518190D01*
X125420380Y-80089619D01*
X125420380Y-79470571D01*
X125420380Y-90598380D02*
X124944190Y-90931714D01*
X125420380Y-91169809D02*
X124420380Y-91169809D01*
X124420380Y-90788857D01*
X124468000Y-90693619D01*
X124515619Y-90646000D01*
X124610857Y-90598380D01*
X124753714Y-90598380D01*
X124848952Y-90646000D01*
X124896571Y-90693619D01*
X124944190Y-90788857D01*
X124944190Y-91169809D01*
X124896571Y-90169809D02*
X124896571Y-89836476D01*
X125420380Y-89693619D02*
X125420380Y-90169809D01*
X124420380Y-90169809D01*
X124420380Y-89693619D01*
X124896571Y-89265047D02*
X124896571Y-88931714D01*
X125420380Y-88788857D02*
X125420380Y-89265047D01*
X124420380Y-89265047D01*
X124420380Y-88788857D01*
X125420380Y-88360285D02*
X124420380Y-88360285D01*
X124420380Y-88122190D01*
X124468000Y-87979333D01*
X124563238Y-87884095D01*
X124658476Y-87836476D01*
X124848952Y-87788857D01*
X124991809Y-87788857D01*
X125182285Y-87836476D01*
X125277523Y-87884095D01*
X125372761Y-87979333D01*
X125420380Y-88122190D01*
X125420380Y-88360285D01*
X125420380Y-86074571D02*
X125420380Y-86646000D01*
X125420380Y-86360285D02*
X124420380Y-86360285D01*
X124563238Y-86455523D01*
X124658476Y-86550761D01*
X124706095Y-86646000D01*
X125420380Y-77064952D02*
X124420380Y-77064952D01*
X124420380Y-76826857D01*
X124468000Y-76684000D01*
X124563238Y-76588761D01*
X124658476Y-76541142D01*
X124848952Y-76493523D01*
X124991809Y-76493523D01*
X125182285Y-76541142D01*
X125277523Y-76588761D01*
X125372761Y-76684000D01*
X125420380Y-76826857D01*
X125420380Y-77064952D01*
X124420380Y-75874476D02*
X124420380Y-75684000D01*
X124468000Y-75588761D01*
X124563238Y-75493523D01*
X124753714Y-75445904D01*
X125087047Y-75445904D01*
X125277523Y-75493523D01*
X125372761Y-75588761D01*
X125420380Y-75684000D01*
X125420380Y-75874476D01*
X125372761Y-75969714D01*
X125277523Y-76064952D01*
X125087047Y-76112571D01*
X124753714Y-76112571D01*
X124563238Y-76064952D01*
X124468000Y-75969714D01*
X124420380Y-75874476D01*
X124420380Y-75112571D02*
X125420380Y-74874476D01*
X124706095Y-74684000D01*
X125420380Y-74493523D01*
X124420380Y-74255428D01*
X125420380Y-73874476D02*
X124420380Y-73874476D01*
X125420380Y-73303047D01*
X124420380Y-73303047D01*
X124420380Y-69365714D02*
X125229904Y-69365714D01*
X125325142Y-69318095D01*
X125372761Y-69270476D01*
X125420380Y-69175238D01*
X125420380Y-68984761D01*
X125372761Y-68889523D01*
X125325142Y-68841904D01*
X125229904Y-68794285D01*
X124420380Y-68794285D01*
X125420380Y-68318095D02*
X124420380Y-68318095D01*
X124420380Y-67937142D01*
X124468000Y-67841904D01*
X124515619Y-67794285D01*
X124610857Y-67746666D01*
X124753714Y-67746666D01*
X124848952Y-67794285D01*
X124896571Y-67841904D01*
X124944190Y-67937142D01*
X124944190Y-68318095D01*
X134000000Y-63754000D02*
X134000000Y-93500000D01*
X78968600Y-63754000D02*
X78968600Y-93472000D01*
X134000000Y-93500000D02*
X78968600Y-93472000D01*
X78968600Y-63754000D02*
X134000000Y-63754000D01*
D11*
X125676000Y-85516000D02*
X125676000Y-85916000D01*
X126316000Y-85516000D02*
X125676000Y-85516000D01*
X132656000Y-91536000D02*
X125916000Y-91536000D01*
X132656000Y-85756000D02*
X125916000Y-85756000D01*
X125916000Y-85756000D02*
X125916000Y-91536000D01*
X132656000Y-85756000D02*
X132656000Y-91536000D01*
X131536000Y-85756000D02*
X131536000Y-91536000D01*
X126436000Y-85756000D02*
X126436000Y-91536000D01*
X125676000Y-78912000D02*
X125676000Y-79312000D01*
X126316000Y-78912000D02*
X125676000Y-78912000D01*
X132656000Y-84932000D02*
X125916000Y-84932000D01*
X132656000Y-79152000D02*
X125916000Y-79152000D01*
X125916000Y-79152000D02*
X125916000Y-84932000D01*
X132656000Y-79152000D02*
X132656000Y-84932000D01*
X131536000Y-79152000D02*
X131536000Y-84932000D01*
X126436000Y-79152000D02*
X126436000Y-84932000D01*
X117925400Y-89083200D02*
X117925400Y-86583200D01*
X119675400Y-90583200D02*
X121675400Y-90583200D01*
X123425400Y-89083200D02*
X123425400Y-86583200D01*
X119675400Y-85083200D02*
X121675400Y-85083200D01*
X118375400Y-89533200D02*
X117925400Y-89083200D01*
X118375400Y-86133200D02*
X117925400Y-86583200D01*
X122975400Y-86133200D02*
X123425400Y-86583200D01*
X122975400Y-89533200D02*
X123425400Y-89083200D01*
X123476200Y-76397800D02*
X123476200Y-78897800D01*
X121726200Y-74897800D02*
X119726200Y-74897800D01*
X117976200Y-76397800D02*
X117976200Y-78897800D01*
X121726200Y-80397800D02*
X119726200Y-80397800D01*
X123026200Y-75947800D02*
X123476200Y-76397800D01*
X123026200Y-79347800D02*
X123476200Y-78897800D01*
X118426200Y-79347800D02*
X117976200Y-78897800D01*
X118426200Y-75947800D02*
X117976200Y-76397800D01*
X110673800Y-86118200D02*
X105073800Y-86118200D01*
X110673800Y-90818200D02*
X110673800Y-86118200D01*
X93030500Y-80644000D02*
X93030500Y-77344000D01*
X93030500Y-77344000D02*
X87630500Y-77344000D01*
X93030500Y-80644000D02*
X87630500Y-80644000D01*
X104882048Y-74116000D02*
X105404552Y-74116000D01*
X104882048Y-72696000D02*
X105404552Y-72696000D01*
X115005752Y-79577000D02*
X114483248Y-79577000D01*
X115005752Y-78157000D02*
X114483248Y-78157000D01*
X104882048Y-70727500D02*
X105404552Y-70727500D01*
X104882048Y-72147500D02*
X105404552Y-72147500D01*
X102569600Y-87866136D02*
X102569600Y-89070264D01*
X104389600Y-87866136D02*
X104389600Y-89070264D01*
X102392564Y-80031000D02*
X101188436Y-80031000D01*
X102392564Y-78211000D02*
X101188436Y-78211000D01*
X83434500Y-92519500D02*
X83434500Y-92139500D01*
X79384500Y-92519500D02*
X79124500Y-92519500D01*
X83434500Y-92519500D02*
X81664500Y-92519500D01*
X83434500Y-84899500D02*
X83434500Y-85279500D01*
X81664500Y-84899500D02*
X83434500Y-84899500D01*
X79124500Y-84899500D02*
X79384500Y-84899500D01*
D10*
X105987000Y-74681000D02*
X105987000Y-74706000D01*
X110137000Y-74681000D02*
X110137000Y-74786000D01*
X110137000Y-84831000D02*
X110137000Y-84726000D01*
X105987000Y-84831000D02*
X105987000Y-84726000D01*
X105987000Y-74681000D02*
X110137000Y-74681000D01*
X105987000Y-84831000D02*
X110137000Y-84831000D01*
X105987000Y-74706000D02*
X104612000Y-74706000D01*
D11*
X113164500Y-84326000D02*
X113164500Y-82866000D01*
X116324500Y-84326000D02*
X116324500Y-82166000D01*
X116324500Y-84326000D02*
X115394500Y-84326000D01*
X113164500Y-84326000D02*
X114094500Y-84326000D01*
X116324500Y-75313000D02*
X115394500Y-75313000D01*
X113164500Y-75313000D02*
X114094500Y-75313000D01*
X113164500Y-75313000D02*
X113164500Y-77473000D01*
X116324500Y-75313000D02*
X116324500Y-76773000D01*
X115005752Y-80062000D02*
X114483248Y-80062000D01*
X115005752Y-81482000D02*
X114483248Y-81482000D01*
X111383400Y-87866136D02*
X111383400Y-89070264D01*
X113203400Y-87866136D02*
X113203400Y-89070264D01*
X111665936Y-72292800D02*
X112870064Y-72292800D01*
X111665936Y-74112800D02*
X112870064Y-74112800D01*
X132896000Y-71684600D02*
X132896000Y-71284600D01*
X132256000Y-71684600D02*
X132896000Y-71684600D01*
X125916000Y-65664600D02*
X132656000Y-65664600D01*
X125916000Y-71444600D02*
X132656000Y-71444600D01*
X132656000Y-71444600D02*
X132656000Y-65664600D01*
X125916000Y-71444600D02*
X125916000Y-65664600D01*
X127036000Y-71444600D02*
X127036000Y-65664600D01*
X132136000Y-71444600D02*
X132136000Y-65664600D01*
X132136000Y-78158666D02*
X132136000Y-72378666D01*
X127036000Y-78158666D02*
X127036000Y-72378666D01*
X125916000Y-78158666D02*
X125916000Y-72378666D01*
X132656000Y-78158666D02*
X132656000Y-72378666D01*
X125916000Y-78158666D02*
X132656000Y-78158666D01*
X125916000Y-72378666D02*
X132656000Y-72378666D01*
X132256000Y-78398666D02*
X132896000Y-78398666D01*
X132896000Y-78398666D02*
X132896000Y-77998666D01*
X85871500Y-67825500D02*
X84621500Y-67825500D01*
X85871500Y-69075500D02*
X85871500Y-67825500D01*
X80371500Y-82475500D02*
X80371500Y-75675500D01*
X83321500Y-82475500D02*
X80371500Y-82475500D01*
X83321500Y-83225500D02*
X83321500Y-82475500D01*
X80371500Y-68875500D02*
X80371500Y-75675500D01*
X83321500Y-68875500D02*
X80371500Y-68875500D01*
X83321500Y-68125500D02*
X83321500Y-68875500D01*
X85571500Y-83225500D02*
X85571500Y-81425500D01*
X84821500Y-83225500D02*
X85571500Y-83225500D01*
X84821500Y-81425500D02*
X84821500Y-83225500D01*
X85571500Y-81425500D02*
X84821500Y-81425500D01*
X85571500Y-69925500D02*
X85571500Y-68125500D01*
X84821500Y-69925500D02*
X85571500Y-69925500D01*
X84821500Y-68125500D02*
X84821500Y-69925500D01*
X85571500Y-68125500D02*
X84821500Y-68125500D01*
X85571500Y-79925500D02*
X85571500Y-71425500D01*
X84821500Y-79925500D02*
X85571500Y-79925500D01*
X84821500Y-71425500D02*
X84821500Y-79925500D01*
X85571500Y-71425500D02*
X84821500Y-71425500D01*
X85581500Y-83235500D02*
X85581500Y-68115500D01*
X79611500Y-83235500D02*
X85581500Y-83235500D01*
X79611500Y-68115500D02*
X79611500Y-83235500D01*
X85581500Y-68115500D02*
X79611500Y-68115500D01*
X98203936Y-76665500D02*
X99408064Y-76665500D01*
X98203936Y-74845500D02*
X99408064Y-74845500D01*
X86499500Y-69694869D02*
X86499500Y-68100131D01*
X90919500Y-69694869D02*
X90919500Y-68100131D01*
X87880500Y-82212000D02*
X86830500Y-82212000D01*
X86830500Y-83262000D02*
X86830500Y-82212000D01*
X96230440Y-84322920D02*
X96230500Y-97112000D01*
X96230500Y-97112000D02*
X87030500Y-97112000D01*
X93530500Y-82412000D02*
X96230500Y-82412000D01*
X96230500Y-82412000D02*
X96230500Y-84312000D01*
X87030500Y-97112000D02*
X87030500Y-82412000D01*
X87030500Y-82412000D02*
X89630500Y-82412000D01*
X98342500Y-67622500D02*
X97082500Y-67622500D01*
X91522500Y-67622500D02*
X92782500Y-67622500D01*
X98342500Y-71382500D02*
X98342500Y-67622500D01*
X91522500Y-73632500D02*
X91522500Y-67622500D01*
D10*
X119061123Y-82694471D02*
X118727790Y-82694471D01*
X118727790Y-83218280D02*
X118727790Y-82218280D01*
X119203980Y-82218280D01*
X120061123Y-83218280D02*
X119584933Y-83218280D01*
X119584933Y-82218280D01*
X120346838Y-82932566D02*
X120823028Y-82932566D01*
X120251600Y-83218280D02*
X120584933Y-82218280D01*
X120918266Y-83218280D01*
X121203980Y-83170661D02*
X121346838Y-83218280D01*
X121584933Y-83218280D01*
X121680171Y-83170661D01*
X121727790Y-83123042D01*
X121775409Y-83027804D01*
X121775409Y-82932566D01*
X121727790Y-82837328D01*
X121680171Y-82789709D01*
X121584933Y-82742090D01*
X121394457Y-82694471D01*
X121299219Y-82646852D01*
X121251600Y-82599233D01*
X121203980Y-82503995D01*
X121203980Y-82408757D01*
X121251600Y-82313519D01*
X121299219Y-82265900D01*
X121394457Y-82218280D01*
X121632552Y-82218280D01*
X121775409Y-82265900D01*
X122203980Y-83218280D02*
X122203980Y-82218280D01*
X122203980Y-82694471D02*
X122775409Y-82694471D01*
X122775409Y-83218280D02*
X122775409Y-82218280D01*
X119248419Y-73045580D02*
X118915085Y-72569390D01*
X118676990Y-73045580D02*
X118676990Y-72045580D01*
X119057942Y-72045580D01*
X119153180Y-72093200D01*
X119200800Y-72140819D01*
X119248419Y-72236057D01*
X119248419Y-72378914D01*
X119200800Y-72474152D01*
X119153180Y-72521771D01*
X119057942Y-72569390D01*
X118676990Y-72569390D01*
X119676990Y-72521771D02*
X120010323Y-72521771D01*
X120153180Y-73045580D02*
X119676990Y-73045580D01*
X119676990Y-72045580D01*
X120153180Y-72045580D01*
X120534133Y-72997961D02*
X120676990Y-73045580D01*
X120915085Y-73045580D01*
X121010323Y-72997961D01*
X121057942Y-72950342D01*
X121105561Y-72855104D01*
X121105561Y-72759866D01*
X121057942Y-72664628D01*
X121010323Y-72617009D01*
X120915085Y-72569390D01*
X120724609Y-72521771D01*
X120629371Y-72474152D01*
X120581752Y-72426533D01*
X120534133Y-72331295D01*
X120534133Y-72236057D01*
X120581752Y-72140819D01*
X120629371Y-72093200D01*
X120724609Y-72045580D01*
X120962704Y-72045580D01*
X121105561Y-72093200D01*
X121534133Y-72521771D02*
X121867466Y-72521771D01*
X122010323Y-73045580D02*
X121534133Y-73045580D01*
X121534133Y-72045580D01*
X122010323Y-72045580D01*
X122296038Y-72045580D02*
X122867466Y-72045580D01*
X122581752Y-73045580D02*
X122581752Y-72045580D01*
X107397609Y-91924190D02*
X107397609Y-92400380D01*
X107064276Y-91400380D02*
X107397609Y-91924190D01*
X107730942Y-91400380D01*
X108588085Y-92400380D02*
X108016657Y-92400380D01*
X108302371Y-92400380D02*
X108302371Y-91400380D01*
X108207133Y-91543238D01*
X108111895Y-91638476D01*
X108016657Y-91686095D01*
X89431904Y-76906380D02*
X89431904Y-75906380D01*
X89670000Y-75906380D01*
X89812857Y-75954000D01*
X89908095Y-76049238D01*
X89955714Y-76144476D01*
X90003333Y-76334952D01*
X90003333Y-76477809D01*
X89955714Y-76668285D01*
X89908095Y-76763523D01*
X89812857Y-76858761D01*
X89670000Y-76906380D01*
X89431904Y-76906380D01*
X90955714Y-76906380D02*
X90384285Y-76906380D01*
X90670000Y-76906380D02*
X90670000Y-75906380D01*
X90574761Y-76049238D01*
X90479523Y-76144476D01*
X90384285Y-76192095D01*
X101007942Y-73731380D02*
X100674609Y-73255190D01*
X100436514Y-73731380D02*
X100436514Y-72731380D01*
X100817466Y-72731380D01*
X100912704Y-72779000D01*
X100960323Y-72826619D01*
X101007942Y-72921857D01*
X101007942Y-73064714D01*
X100960323Y-73159952D01*
X100912704Y-73207571D01*
X100817466Y-73255190D01*
X100436514Y-73255190D01*
X101960323Y-73731380D02*
X101388895Y-73731380D01*
X101674609Y-73731380D02*
X101674609Y-72731380D01*
X101579371Y-72874238D01*
X101484133Y-72969476D01*
X101388895Y-73017095D01*
X102341276Y-72826619D02*
X102388895Y-72779000D01*
X102484133Y-72731380D01*
X102722228Y-72731380D01*
X102817466Y-72779000D01*
X102865085Y-72826619D01*
X102912704Y-72921857D01*
X102912704Y-73017095D01*
X102865085Y-73159952D01*
X102293657Y-73731380D01*
X102912704Y-73731380D01*
X117762280Y-79103457D02*
X117286090Y-79436790D01*
X117762280Y-79674885D02*
X116762280Y-79674885D01*
X116762280Y-79293933D01*
X116809900Y-79198695D01*
X116857519Y-79151076D01*
X116952757Y-79103457D01*
X117095614Y-79103457D01*
X117190852Y-79151076D01*
X117238471Y-79198695D01*
X117286090Y-79293933D01*
X117286090Y-79674885D01*
X117762280Y-78151076D02*
X117762280Y-78722504D01*
X117762280Y-78436790D02*
X116762280Y-78436790D01*
X116905138Y-78532028D01*
X117000376Y-78627266D01*
X117047995Y-78722504D01*
X117762280Y-77198695D02*
X117762280Y-77770123D01*
X117762280Y-77484409D02*
X116762280Y-77484409D01*
X116905138Y-77579647D01*
X117000376Y-77674885D01*
X117047995Y-77770123D01*
X100944442Y-72016880D02*
X100611109Y-71540690D01*
X100373014Y-72016880D02*
X100373014Y-71016880D01*
X100753966Y-71016880D01*
X100849204Y-71064500D01*
X100896823Y-71112119D01*
X100944442Y-71207357D01*
X100944442Y-71350214D01*
X100896823Y-71445452D01*
X100849204Y-71493071D01*
X100753966Y-71540690D01*
X100373014Y-71540690D01*
X101896823Y-72016880D02*
X101325395Y-72016880D01*
X101611109Y-72016880D02*
X101611109Y-71016880D01*
X101515871Y-71159738D01*
X101420633Y-71254976D01*
X101325395Y-71302595D01*
X102230157Y-71016880D02*
X102849204Y-71016880D01*
X102515871Y-71397833D01*
X102658728Y-71397833D01*
X102753966Y-71445452D01*
X102801585Y-71493071D01*
X102849204Y-71588309D01*
X102849204Y-71826404D01*
X102801585Y-71921642D01*
X102753966Y-71969261D01*
X102658728Y-72016880D01*
X102373014Y-72016880D01*
X102277776Y-71969261D01*
X102230157Y-71921642D01*
X103465333Y-92305142D02*
X103417714Y-92352761D01*
X103274857Y-92400380D01*
X103179619Y-92400380D01*
X103036761Y-92352761D01*
X102941523Y-92257523D01*
X102893904Y-92162285D01*
X102846285Y-91971809D01*
X102846285Y-91828952D01*
X102893904Y-91638476D01*
X102941523Y-91543238D01*
X103036761Y-91448000D01*
X103179619Y-91400380D01*
X103274857Y-91400380D01*
X103417714Y-91448000D01*
X103465333Y-91495619D01*
X103941523Y-92400380D02*
X104132000Y-92400380D01*
X104227238Y-92352761D01*
X104274857Y-92305142D01*
X104370095Y-92162285D01*
X104417714Y-91971809D01*
X104417714Y-91590857D01*
X104370095Y-91495619D01*
X104322476Y-91448000D01*
X104227238Y-91400380D01*
X104036761Y-91400380D01*
X103941523Y-91448000D01*
X103893904Y-91495619D01*
X103846285Y-91590857D01*
X103846285Y-91828952D01*
X103893904Y-91924190D01*
X103941523Y-91971809D01*
X104036761Y-92019428D01*
X104227238Y-92019428D01*
X104322476Y-91971809D01*
X104370095Y-91924190D01*
X104417714Y-91828952D01*
X101211142Y-81383142D02*
X101163523Y-81430761D01*
X101020666Y-81478380D01*
X100925428Y-81478380D01*
X100782571Y-81430761D01*
X100687333Y-81335523D01*
X100639714Y-81240285D01*
X100592095Y-81049809D01*
X100592095Y-80906952D01*
X100639714Y-80716476D01*
X100687333Y-80621238D01*
X100782571Y-80526000D01*
X100925428Y-80478380D01*
X101020666Y-80478380D01*
X101163523Y-80526000D01*
X101211142Y-80573619D01*
X102163523Y-81478380D02*
X101592095Y-81478380D01*
X101877809Y-81478380D02*
X101877809Y-80478380D01*
X101782571Y-80621238D01*
X101687333Y-80716476D01*
X101592095Y-80764095D01*
X102782571Y-80478380D02*
X102877809Y-80478380D01*
X102973047Y-80526000D01*
X103020666Y-80573619D01*
X103068285Y-80668857D01*
X103115904Y-80859333D01*
X103115904Y-81097428D01*
X103068285Y-81287904D01*
X103020666Y-81383142D01*
X102973047Y-81430761D01*
X102877809Y-81478380D01*
X102782571Y-81478380D01*
X102687333Y-81430761D01*
X102639714Y-81383142D01*
X102592095Y-81287904D01*
X102544476Y-81097428D01*
X102544476Y-80859333D01*
X102592095Y-80668857D01*
X102639714Y-80573619D01*
X102687333Y-80526000D01*
X102782571Y-80478380D01*
X84796380Y-89106333D02*
X85510666Y-89106333D01*
X85653523Y-89153952D01*
X85748761Y-89249190D01*
X85796380Y-89392047D01*
X85796380Y-89487285D01*
X84891619Y-88677761D02*
X84844000Y-88630142D01*
X84796380Y-88534904D01*
X84796380Y-88296809D01*
X84844000Y-88201571D01*
X84891619Y-88153952D01*
X84986857Y-88106333D01*
X85082095Y-88106333D01*
X85224952Y-88153952D01*
X85796380Y-88725380D01*
X85796380Y-88106333D01*
X107188095Y-79119480D02*
X107188095Y-79929004D01*
X107235714Y-80024242D01*
X107283333Y-80071861D01*
X107378571Y-80119480D01*
X107569047Y-80119480D01*
X107664285Y-80071861D01*
X107711904Y-80024242D01*
X107759523Y-79929004D01*
X107759523Y-79119480D01*
X108664285Y-79452814D02*
X108664285Y-80119480D01*
X108426190Y-79071861D02*
X108188095Y-79786147D01*
X108807142Y-79786147D01*
X114712761Y-86653619D02*
X114617523Y-86606000D01*
X114522285Y-86510761D01*
X114379428Y-86367904D01*
X114284190Y-86320285D01*
X114188952Y-86320285D01*
X114236571Y-86558380D02*
X114141333Y-86510761D01*
X114046095Y-86415523D01*
X113998476Y-86225047D01*
X113998476Y-85891714D01*
X114046095Y-85701238D01*
X114141333Y-85606000D01*
X114236571Y-85558380D01*
X114427047Y-85558380D01*
X114522285Y-85606000D01*
X114617523Y-85701238D01*
X114665142Y-85891714D01*
X114665142Y-86225047D01*
X114617523Y-86415523D01*
X114522285Y-86510761D01*
X114427047Y-86558380D01*
X114236571Y-86558380D01*
X115046095Y-85653619D02*
X115093714Y-85606000D01*
X115188952Y-85558380D01*
X115427047Y-85558380D01*
X115522285Y-85606000D01*
X115569904Y-85653619D01*
X115617523Y-85748857D01*
X115617523Y-85844095D01*
X115569904Y-85986952D01*
X114998476Y-86558380D01*
X115617523Y-86558380D01*
X116122461Y-74918819D02*
X116027223Y-74871200D01*
X115931985Y-74775961D01*
X115789128Y-74633104D01*
X115693890Y-74585485D01*
X115598652Y-74585485D01*
X115646271Y-74823580D02*
X115551033Y-74775961D01*
X115455795Y-74680723D01*
X115408176Y-74490247D01*
X115408176Y-74156914D01*
X115455795Y-73966438D01*
X115551033Y-73871200D01*
X115646271Y-73823580D01*
X115836747Y-73823580D01*
X115931985Y-73871200D01*
X116027223Y-73966438D01*
X116074842Y-74156914D01*
X116074842Y-74490247D01*
X116027223Y-74680723D01*
X115931985Y-74775961D01*
X115836747Y-74823580D01*
X115646271Y-74823580D01*
X117027223Y-74823580D02*
X116455795Y-74823580D01*
X116741509Y-74823580D02*
X116741509Y-73823580D01*
X116646271Y-73966438D01*
X116551033Y-74061676D01*
X116455795Y-74109295D01*
X117774980Y-81268866D02*
X117298790Y-81602200D01*
X117774980Y-81840295D02*
X116774980Y-81840295D01*
X116774980Y-81459342D01*
X116822600Y-81364104D01*
X116870219Y-81316485D01*
X116965457Y-81268866D01*
X117108314Y-81268866D01*
X117203552Y-81316485D01*
X117251171Y-81364104D01*
X117298790Y-81459342D01*
X117298790Y-81840295D01*
X117774980Y-80792676D02*
X117774980Y-80602200D01*
X117727361Y-80506961D01*
X117679742Y-80459342D01*
X117536885Y-80364104D01*
X117346409Y-80316485D01*
X116965457Y-80316485D01*
X116870219Y-80364104D01*
X116822600Y-80411723D01*
X116774980Y-80506961D01*
X116774980Y-80697438D01*
X116822600Y-80792676D01*
X116870219Y-80840295D01*
X116965457Y-80887914D01*
X117203552Y-80887914D01*
X117298790Y-80840295D01*
X117346409Y-80792676D01*
X117394028Y-80697438D01*
X117394028Y-80506961D01*
X117346409Y-80411723D01*
X117298790Y-80364104D01*
X117203552Y-80316485D01*
X111847333Y-92305142D02*
X111799714Y-92352761D01*
X111656857Y-92400380D01*
X111561619Y-92400380D01*
X111418761Y-92352761D01*
X111323523Y-92257523D01*
X111275904Y-92162285D01*
X111228285Y-91971809D01*
X111228285Y-91828952D01*
X111275904Y-91638476D01*
X111323523Y-91543238D01*
X111418761Y-91448000D01*
X111561619Y-91400380D01*
X111656857Y-91400380D01*
X111799714Y-91448000D01*
X111847333Y-91495619D01*
X112180666Y-91400380D02*
X112847333Y-91400380D01*
X112418761Y-92400380D01*
X112101333Y-71739942D02*
X112053714Y-71787561D01*
X111910857Y-71835180D01*
X111815619Y-71835180D01*
X111672761Y-71787561D01*
X111577523Y-71692323D01*
X111529904Y-71597085D01*
X111482285Y-71406609D01*
X111482285Y-71263752D01*
X111529904Y-71073276D01*
X111577523Y-70978038D01*
X111672761Y-70882800D01*
X111815619Y-70835180D01*
X111910857Y-70835180D01*
X112053714Y-70882800D01*
X112101333Y-70930419D01*
X112672761Y-71263752D02*
X112577523Y-71216133D01*
X112529904Y-71168514D01*
X112482285Y-71073276D01*
X112482285Y-71025657D01*
X112529904Y-70930419D01*
X112577523Y-70882800D01*
X112672761Y-70835180D01*
X112863238Y-70835180D01*
X112958476Y-70882800D01*
X113006095Y-70930419D01*
X113053714Y-71025657D01*
X113053714Y-71073276D01*
X113006095Y-71168514D01*
X112958476Y-71216133D01*
X112863238Y-71263752D01*
X112672761Y-71263752D01*
X112577523Y-71311371D01*
X112529904Y-71358990D01*
X112482285Y-71454228D01*
X112482285Y-71644704D01*
X112529904Y-71739942D01*
X112577523Y-71787561D01*
X112672761Y-71835180D01*
X112863238Y-71835180D01*
X112958476Y-71787561D01*
X113006095Y-71739942D01*
X113053714Y-71644704D01*
X113053714Y-71454228D01*
X113006095Y-71358990D01*
X112958476Y-71311371D01*
X112863238Y-71263752D01*
X82470666Y-66000380D02*
X82470666Y-66714666D01*
X82423047Y-66857523D01*
X82327809Y-66952761D01*
X82184952Y-67000380D01*
X82089714Y-67000380D01*
X82851619Y-66000380D02*
X83470666Y-66000380D01*
X83137333Y-66381333D01*
X83280190Y-66381333D01*
X83375428Y-66428952D01*
X83423047Y-66476571D01*
X83470666Y-66571809D01*
X83470666Y-66809904D01*
X83423047Y-66905142D01*
X83375428Y-66952761D01*
X83280190Y-67000380D01*
X82994476Y-67000380D01*
X82899238Y-66952761D01*
X82851619Y-66905142D01*
X97115333Y-78335142D02*
X97067714Y-78382761D01*
X96924857Y-78430380D01*
X96829619Y-78430380D01*
X96686761Y-78382761D01*
X96591523Y-78287523D01*
X96543904Y-78192285D01*
X96496285Y-78001809D01*
X96496285Y-77858952D01*
X96543904Y-77668476D01*
X96591523Y-77573238D01*
X96686761Y-77478000D01*
X96829619Y-77430380D01*
X96924857Y-77430380D01*
X97067714Y-77478000D01*
X97115333Y-77525619D01*
X97496285Y-77525619D02*
X97543904Y-77478000D01*
X97639142Y-77430380D01*
X97877238Y-77430380D01*
X97972476Y-77478000D01*
X98020095Y-77525619D01*
X98067714Y-77620857D01*
X98067714Y-77716095D01*
X98020095Y-77858952D01*
X97448666Y-78430380D01*
X98067714Y-78430380D01*
X88733333Y-74525142D02*
X88685714Y-74572761D01*
X88542857Y-74620380D01*
X88447619Y-74620380D01*
X88304761Y-74572761D01*
X88209523Y-74477523D01*
X88161904Y-74382285D01*
X88114285Y-74191809D01*
X88114285Y-74048952D01*
X88161904Y-73858476D01*
X88209523Y-73763238D01*
X88304761Y-73668000D01*
X88447619Y-73620380D01*
X88542857Y-73620380D01*
X88685714Y-73668000D01*
X88733333Y-73715619D01*
X89590476Y-73953714D02*
X89590476Y-74620380D01*
X89352380Y-73572761D02*
X89114285Y-74287047D01*
X89733333Y-74287047D01*
X94408666Y-80732380D02*
X94408666Y-81446666D01*
X94361047Y-81589523D01*
X94265809Y-81684761D01*
X94122952Y-81732380D01*
X94027714Y-81732380D01*
X95408666Y-81732380D02*
X94837238Y-81732380D01*
X95122952Y-81732380D02*
X95122952Y-80732380D01*
X95027714Y-80875238D01*
X94932476Y-80970476D01*
X94837238Y-81018095D01*
X94234095Y-69048380D02*
X94234095Y-69857904D01*
X94281714Y-69953142D01*
X94329333Y-70000761D01*
X94424571Y-70048380D01*
X94615047Y-70048380D01*
X94710285Y-70000761D01*
X94757904Y-69953142D01*
X94805523Y-69857904D01*
X94805523Y-69048380D01*
X95234095Y-69143619D02*
X95281714Y-69096000D01*
X95376952Y-69048380D01*
X95615047Y-69048380D01*
X95710285Y-69096000D01*
X95757904Y-69143619D01*
X95805523Y-69238857D01*
X95805523Y-69334095D01*
X95757904Y-69476952D01*
X95186476Y-70048380D01*
X95805523Y-70048380D01*
M02*
