G04 #@! TF.GenerationSoftware,KiCad,Pcbnew,(5.1.2-1)-1*
G04 #@! TF.CreationDate,2019-10-05T22:58:12+03:00*
G04 #@! TF.ProjectId,curtains-driver,63757274-6169-46e7-932d-647269766572,rev?*
G04 #@! TF.SameCoordinates,Original*
G04 #@! TF.FileFunction,Soldermask,Top*
G04 #@! TF.FilePolarity,Negative*
%FSLAX46Y46*%
G04 Gerber Fmt 4.6, Leading zero omitted, Abs format (unit mm)*
G04 Created by KiCad (PCBNEW (5.1.2-1)-1) date 2019-10-05 22:58:12*
%MOMM*%
%LPD*%
G04 APERTURE LIST*
%ADD10C,0.150000*%
%ADD11C,0.100000*%
G04 APERTURE END LIST*
D10*
X134000000Y-63754000D02*
X134000000Y-93500000D01*
X78968600Y-63754000D02*
X78968600Y-93472000D01*
X134000000Y-93500000D02*
X78968600Y-93472000D01*
X78968600Y-63754000D02*
X134000000Y-63754000D01*
D11*
G36*
X81525500Y-85333501D02*
G01*
X81527902Y-85357887D01*
X81535015Y-85381336D01*
X81546566Y-85402947D01*
X81562111Y-85421889D01*
X81581053Y-85437434D01*
X81602664Y-85448985D01*
X81626113Y-85456098D01*
X81650499Y-85458500D01*
X83925500Y-85458500D01*
X83925500Y-91960500D01*
X81650499Y-91960500D01*
X81626113Y-91962902D01*
X81602664Y-91970015D01*
X81581053Y-91981566D01*
X81562111Y-91997111D01*
X81546566Y-92016053D01*
X81535015Y-92037664D01*
X81527902Y-92061113D01*
X81525500Y-92085499D01*
X81525500Y-92858000D01*
X79523500Y-92858000D01*
X79523500Y-88911000D01*
X81525500Y-88911000D01*
X81525500Y-90258501D01*
X81527902Y-90282887D01*
X81535015Y-90306336D01*
X81546566Y-90327947D01*
X81562111Y-90346889D01*
X81581053Y-90362434D01*
X81602664Y-90373985D01*
X81626113Y-90381098D01*
X81650499Y-90383500D01*
X82318501Y-90383500D01*
X82342887Y-90381098D01*
X82366336Y-90373985D01*
X82387947Y-90362434D01*
X82406889Y-90346889D01*
X82422434Y-90327947D01*
X82433985Y-90306336D01*
X82441098Y-90282887D01*
X82443500Y-90258501D01*
X82443500Y-87160499D01*
X82441098Y-87136113D01*
X82433985Y-87112664D01*
X82422434Y-87091053D01*
X82406889Y-87072111D01*
X82387947Y-87056566D01*
X82366336Y-87045015D01*
X82342887Y-87037902D01*
X82318501Y-87035500D01*
X81650499Y-87035500D01*
X81626113Y-87037902D01*
X81602664Y-87045015D01*
X81581053Y-87056566D01*
X81562111Y-87072111D01*
X81546566Y-87091053D01*
X81535015Y-87112664D01*
X81527902Y-87136113D01*
X81525500Y-87160499D01*
X81525500Y-88508000D01*
X79523500Y-88508000D01*
X79523500Y-84561000D01*
X81525500Y-84561000D01*
X81525500Y-85333501D01*
X81525500Y-85333501D01*
G37*
G36*
X123126400Y-91884200D02*
G01*
X122024400Y-91884200D01*
X122024400Y-90082200D01*
X123126400Y-90082200D01*
X123126400Y-91884200D01*
X123126400Y-91884200D01*
G37*
G36*
X119326400Y-91884200D02*
G01*
X118224400Y-91884200D01*
X118224400Y-90082200D01*
X119326400Y-90082200D01*
X119326400Y-91884200D01*
X119326400Y-91884200D01*
G37*
G36*
X129500794Y-88836155D02*
G01*
X129607150Y-88857311D01*
X129707334Y-88898809D01*
X129807520Y-88940307D01*
X129987844Y-89060795D01*
X130141205Y-89214156D01*
X130261693Y-89394480D01*
X130261693Y-89394481D01*
X130344689Y-89594850D01*
X130387000Y-89807561D01*
X130387000Y-90024439D01*
X130344689Y-90237150D01*
X130316031Y-90306336D01*
X130261693Y-90437520D01*
X130141205Y-90617844D01*
X129987844Y-90771205D01*
X129807520Y-90891693D01*
X129607150Y-90974689D01*
X129500794Y-90995845D01*
X129394440Y-91017000D01*
X129177560Y-91017000D01*
X129071205Y-90995844D01*
X128964850Y-90974689D01*
X128764480Y-90891693D01*
X128584156Y-90771205D01*
X128430795Y-90617844D01*
X128310307Y-90437520D01*
X128255969Y-90306336D01*
X128227311Y-90237150D01*
X128185000Y-90024439D01*
X128185000Y-89807561D01*
X128227311Y-89594850D01*
X128310307Y-89394481D01*
X128310307Y-89394480D01*
X128430795Y-89214156D01*
X128584156Y-89060795D01*
X128764480Y-88940307D01*
X128864666Y-88898809D01*
X128964850Y-88857311D01*
X129071206Y-88836155D01*
X129177560Y-88815000D01*
X129394440Y-88815000D01*
X129500794Y-88836155D01*
X129500794Y-88836155D01*
G37*
G36*
X92857479Y-87775293D02*
G01*
X92991125Y-87815834D01*
X93114284Y-87881664D01*
X93222240Y-87970260D01*
X93310836Y-88078216D01*
X93376666Y-88201375D01*
X93417207Y-88335021D01*
X93431500Y-88480140D01*
X93431500Y-90143860D01*
X93417207Y-90288979D01*
X93376666Y-90422625D01*
X93310836Y-90545784D01*
X93222240Y-90653740D01*
X93114284Y-90742336D01*
X92991125Y-90808166D01*
X92857479Y-90848707D01*
X92712360Y-90863000D01*
X90548640Y-90863000D01*
X90403521Y-90848707D01*
X90269875Y-90808166D01*
X90146716Y-90742336D01*
X90038760Y-90653740D01*
X89950164Y-90545784D01*
X89884334Y-90422625D01*
X89843793Y-90288979D01*
X89829500Y-90143860D01*
X89829500Y-88480140D01*
X89843793Y-88335021D01*
X89884334Y-88201375D01*
X89950164Y-88078216D01*
X90038760Y-87970260D01*
X90146716Y-87881664D01*
X90269875Y-87815834D01*
X90403521Y-87775293D01*
X90548640Y-87761000D01*
X92712360Y-87761000D01*
X92857479Y-87775293D01*
X92857479Y-87775293D01*
G37*
G36*
X104255162Y-89196381D02*
G01*
X104290081Y-89206974D01*
X104322263Y-89224176D01*
X104350473Y-89247327D01*
X104373624Y-89275537D01*
X104390826Y-89307719D01*
X104401419Y-89342638D01*
X104405600Y-89385095D01*
X104405600Y-90526305D01*
X104401419Y-90568762D01*
X104390826Y-90603681D01*
X104373624Y-90635863D01*
X104350473Y-90664073D01*
X104322263Y-90687224D01*
X104290081Y-90704426D01*
X104255162Y-90715019D01*
X104212705Y-90719200D01*
X102746495Y-90719200D01*
X102704038Y-90715019D01*
X102669119Y-90704426D01*
X102636937Y-90687224D01*
X102608727Y-90664073D01*
X102585576Y-90635863D01*
X102568374Y-90603681D01*
X102557781Y-90568762D01*
X102553600Y-90526305D01*
X102553600Y-89385095D01*
X102557781Y-89342638D01*
X102568374Y-89307719D01*
X102585576Y-89275537D01*
X102608727Y-89247327D01*
X102636937Y-89224176D01*
X102669119Y-89206974D01*
X102704038Y-89196381D01*
X102746495Y-89192200D01*
X104212705Y-89192200D01*
X104255162Y-89196381D01*
X104255162Y-89196381D01*
G37*
G36*
X113068962Y-89196381D02*
G01*
X113103881Y-89206974D01*
X113136063Y-89224176D01*
X113164273Y-89247327D01*
X113187424Y-89275537D01*
X113204626Y-89307719D01*
X113215219Y-89342638D01*
X113219400Y-89385095D01*
X113219400Y-90526305D01*
X113215219Y-90568762D01*
X113204626Y-90603681D01*
X113187424Y-90635863D01*
X113164273Y-90664073D01*
X113136063Y-90687224D01*
X113103881Y-90704426D01*
X113068962Y-90715019D01*
X113026505Y-90719200D01*
X111560295Y-90719200D01*
X111517838Y-90715019D01*
X111482919Y-90704426D01*
X111450737Y-90687224D01*
X111422527Y-90664073D01*
X111399376Y-90635863D01*
X111382174Y-90603681D01*
X111371581Y-90568762D01*
X111367400Y-90526305D01*
X111367400Y-89385095D01*
X111371581Y-89342638D01*
X111382174Y-89307719D01*
X111399376Y-89275537D01*
X111422527Y-89247327D01*
X111450737Y-89224176D01*
X111482919Y-89206974D01*
X111517838Y-89196381D01*
X111560295Y-89192200D01*
X113026505Y-89192200D01*
X113068962Y-89196381D01*
X113068962Y-89196381D01*
G37*
G36*
X110524800Y-90669200D02*
G01*
X108322800Y-90669200D01*
X108322800Y-88767200D01*
X110524800Y-88767200D01*
X110524800Y-90669200D01*
X110524800Y-90669200D01*
G37*
G36*
X107424800Y-90669200D02*
G01*
X105222800Y-90669200D01*
X105222800Y-88767200D01*
X107424800Y-88767200D01*
X107424800Y-90669200D01*
X107424800Y-90669200D01*
G37*
G36*
X130387000Y-88477000D02*
G01*
X128185000Y-88477000D01*
X128185000Y-86275000D01*
X130387000Y-86275000D01*
X130387000Y-88477000D01*
X130387000Y-88477000D01*
G37*
G36*
X110524800Y-88169200D02*
G01*
X108322800Y-88169200D01*
X108322800Y-86267200D01*
X110524800Y-86267200D01*
X110524800Y-88169200D01*
X110524800Y-88169200D01*
G37*
G36*
X107424800Y-88169200D02*
G01*
X105222800Y-88169200D01*
X105222800Y-86267200D01*
X107424800Y-86267200D01*
X107424800Y-88169200D01*
X107424800Y-88169200D01*
G37*
G36*
X113068962Y-86221381D02*
G01*
X113103881Y-86231974D01*
X113136063Y-86249176D01*
X113164273Y-86272327D01*
X113187424Y-86300537D01*
X113204626Y-86332719D01*
X113215219Y-86367638D01*
X113219400Y-86410095D01*
X113219400Y-87551305D01*
X113215219Y-87593762D01*
X113204626Y-87628681D01*
X113187424Y-87660863D01*
X113164273Y-87689073D01*
X113136063Y-87712224D01*
X113103881Y-87729426D01*
X113068962Y-87740019D01*
X113026505Y-87744200D01*
X111560295Y-87744200D01*
X111517838Y-87740019D01*
X111482919Y-87729426D01*
X111450737Y-87712224D01*
X111422527Y-87689073D01*
X111399376Y-87660863D01*
X111382174Y-87628681D01*
X111371581Y-87593762D01*
X111367400Y-87551305D01*
X111367400Y-86410095D01*
X111371581Y-86367638D01*
X111382174Y-86332719D01*
X111399376Y-86300537D01*
X111422527Y-86272327D01*
X111450737Y-86249176D01*
X111482919Y-86231974D01*
X111517838Y-86221381D01*
X111560295Y-86217200D01*
X113026505Y-86217200D01*
X113068962Y-86221381D01*
X113068962Y-86221381D01*
G37*
G36*
X104255162Y-86221381D02*
G01*
X104290081Y-86231974D01*
X104322263Y-86249176D01*
X104350473Y-86272327D01*
X104373624Y-86300537D01*
X104390826Y-86332719D01*
X104401419Y-86367638D01*
X104405600Y-86410095D01*
X104405600Y-87551305D01*
X104401419Y-87593762D01*
X104390826Y-87628681D01*
X104373624Y-87660863D01*
X104350473Y-87689073D01*
X104322263Y-87712224D01*
X104290081Y-87729426D01*
X104255162Y-87740019D01*
X104212705Y-87744200D01*
X102746495Y-87744200D01*
X102704038Y-87740019D01*
X102669119Y-87729426D01*
X102636937Y-87712224D01*
X102608727Y-87689073D01*
X102585576Y-87660863D01*
X102568374Y-87628681D01*
X102557781Y-87593762D01*
X102553600Y-87551305D01*
X102553600Y-86410095D01*
X102557781Y-86367638D01*
X102568374Y-86332719D01*
X102585576Y-86300537D01*
X102608727Y-86272327D01*
X102636937Y-86249176D01*
X102669119Y-86231974D01*
X102704038Y-86221381D01*
X102746495Y-86217200D01*
X104212705Y-86217200D01*
X104255162Y-86221381D01*
X104255162Y-86221381D01*
G37*
G36*
X123126400Y-85584200D02*
G01*
X122024400Y-85584200D01*
X122024400Y-83782200D01*
X123126400Y-83782200D01*
X123126400Y-85584200D01*
X123126400Y-85584200D01*
G37*
G36*
X119326400Y-85584200D02*
G01*
X118224400Y-85584200D01*
X118224400Y-83782200D01*
X119326400Y-83782200D01*
X119326400Y-85584200D01*
X119326400Y-85584200D01*
G37*
G36*
X93431500Y-85113000D02*
G01*
X89829500Y-85113000D01*
X89829500Y-81511000D01*
X93431500Y-81511000D01*
X93431500Y-85113000D01*
X93431500Y-85113000D01*
G37*
G36*
X115195500Y-85067000D02*
G01*
X114293500Y-85067000D01*
X114293500Y-84065000D01*
X115195500Y-84065000D01*
X115195500Y-85067000D01*
X115195500Y-85067000D01*
G37*
G36*
X111563000Y-84552000D02*
G01*
X109961000Y-84552000D01*
X109961000Y-83850000D01*
X111563000Y-83850000D01*
X111563000Y-84552000D01*
X111563000Y-84552000D01*
G37*
G36*
X106163000Y-84552000D02*
G01*
X104561000Y-84552000D01*
X104561000Y-83850000D01*
X106163000Y-83850000D01*
X106163000Y-84552000D01*
X106163000Y-84552000D01*
G37*
G36*
X129500795Y-82232156D02*
G01*
X129607150Y-82253311D01*
X129807520Y-82336307D01*
X129987844Y-82456795D01*
X130141205Y-82610156D01*
X130261693Y-82790480D01*
X130344689Y-82990851D01*
X130387000Y-83203560D01*
X130387000Y-83420440D01*
X130344689Y-83633149D01*
X130261693Y-83833520D01*
X130141205Y-84013844D01*
X129987844Y-84167205D01*
X129807520Y-84287693D01*
X129607150Y-84370689D01*
X129500794Y-84391845D01*
X129394440Y-84413000D01*
X129177560Y-84413000D01*
X129071206Y-84391845D01*
X128964850Y-84370689D01*
X128764480Y-84287693D01*
X128584156Y-84167205D01*
X128430795Y-84013844D01*
X128310307Y-83833520D01*
X128227311Y-83633149D01*
X128185000Y-83420440D01*
X128185000Y-83203560D01*
X128227311Y-82990851D01*
X128310307Y-82790480D01*
X128430795Y-82610156D01*
X128584156Y-82456795D01*
X128764480Y-82336307D01*
X128864666Y-82294809D01*
X128964850Y-82253311D01*
X129071205Y-82232156D01*
X129177560Y-82211000D01*
X129394440Y-82211000D01*
X129500795Y-82232156D01*
X129500795Y-82232156D01*
G37*
G36*
X106163000Y-83282000D02*
G01*
X104561000Y-83282000D01*
X104561000Y-82580000D01*
X106163000Y-82580000D01*
X106163000Y-83282000D01*
X106163000Y-83282000D01*
G37*
G36*
X111563000Y-83282000D02*
G01*
X109961000Y-83282000D01*
X109961000Y-82580000D01*
X111563000Y-82580000D01*
X111563000Y-83282000D01*
X111563000Y-83282000D01*
G37*
G36*
X116145500Y-83067000D02*
G01*
X115243500Y-83067000D01*
X115243500Y-82065000D01*
X116145500Y-82065000D01*
X116145500Y-83067000D01*
X116145500Y-83067000D01*
G37*
G36*
X114245500Y-83067000D02*
G01*
X113343500Y-83067000D01*
X113343500Y-82065000D01*
X114245500Y-82065000D01*
X114245500Y-83067000D01*
X114245500Y-83067000D01*
G37*
G36*
X111563000Y-82012000D02*
G01*
X109961000Y-82012000D01*
X109961000Y-81310000D01*
X111563000Y-81310000D01*
X111563000Y-82012000D01*
X111563000Y-82012000D01*
G37*
G36*
X106163000Y-82012000D02*
G01*
X104561000Y-82012000D01*
X104561000Y-81310000D01*
X106163000Y-81310000D01*
X106163000Y-82012000D01*
X106163000Y-82012000D01*
G37*
G36*
X130387000Y-81873000D02*
G01*
X128185000Y-81873000D01*
X128185000Y-79671000D01*
X130387000Y-79671000D01*
X130387000Y-81873000D01*
X130387000Y-81873000D01*
G37*
G36*
X119377200Y-81698800D02*
G01*
X118275200Y-81698800D01*
X118275200Y-79896800D01*
X119377200Y-79896800D01*
X119377200Y-81698800D01*
X119377200Y-81698800D01*
G37*
G36*
X123177200Y-81698800D02*
G01*
X122075200Y-81698800D01*
X122075200Y-79896800D01*
X123177200Y-79896800D01*
X123177200Y-81698800D01*
X123177200Y-81698800D01*
G37*
G36*
X83356942Y-79781018D02*
G01*
X83423127Y-79787537D01*
X83592966Y-79839057D01*
X83749491Y-79922722D01*
X83785229Y-79952052D01*
X83886686Y-80035314D01*
X83948714Y-80110897D01*
X83999278Y-80172509D01*
X84082943Y-80329034D01*
X84134463Y-80498873D01*
X84151859Y-80675500D01*
X84134463Y-80852127D01*
X84082943Y-81021966D01*
X83999278Y-81178491D01*
X83969948Y-81214229D01*
X83886686Y-81315686D01*
X83785937Y-81398367D01*
X83749491Y-81428278D01*
X83592966Y-81511943D01*
X83423127Y-81563463D01*
X83356942Y-81569982D01*
X83290760Y-81576500D01*
X82952240Y-81576500D01*
X82886058Y-81569982D01*
X82819873Y-81563463D01*
X82650034Y-81511943D01*
X82493509Y-81428278D01*
X82457063Y-81398367D01*
X82356314Y-81315686D01*
X82273052Y-81214229D01*
X82243722Y-81178491D01*
X82160057Y-81021966D01*
X82108537Y-80852127D01*
X82091141Y-80675500D01*
X82108537Y-80498873D01*
X82160057Y-80329034D01*
X82243722Y-80172509D01*
X82294286Y-80110897D01*
X82356314Y-80035314D01*
X82457771Y-79952052D01*
X82493509Y-79922722D01*
X82650034Y-79839057D01*
X82819873Y-79787537D01*
X82886058Y-79781018D01*
X82952240Y-79774500D01*
X83290760Y-79774500D01*
X83356942Y-79781018D01*
X83356942Y-79781018D01*
G37*
G36*
X116233174Y-80025465D02*
G01*
X116270867Y-80036899D01*
X116305603Y-80055466D01*
X116336048Y-80080452D01*
X116361034Y-80110897D01*
X116379601Y-80145633D01*
X116391035Y-80183326D01*
X116395500Y-80228661D01*
X116395500Y-81315339D01*
X116391035Y-81360674D01*
X116379601Y-81398367D01*
X116361034Y-81433103D01*
X116336048Y-81463548D01*
X116305603Y-81488534D01*
X116270867Y-81507101D01*
X116233174Y-81518535D01*
X116187839Y-81523000D01*
X115351161Y-81523000D01*
X115305826Y-81518535D01*
X115268133Y-81507101D01*
X115233397Y-81488534D01*
X115202952Y-81463548D01*
X115177966Y-81433103D01*
X115159399Y-81398367D01*
X115147965Y-81360674D01*
X115143500Y-81315339D01*
X115143500Y-80228661D01*
X115147965Y-80183326D01*
X115159399Y-80145633D01*
X115177966Y-80110897D01*
X115202952Y-80080452D01*
X115233397Y-80055466D01*
X115268133Y-80036899D01*
X115305826Y-80025465D01*
X115351161Y-80021000D01*
X116187839Y-80021000D01*
X116233174Y-80025465D01*
X116233174Y-80025465D01*
G37*
G36*
X114183174Y-80025465D02*
G01*
X114220867Y-80036899D01*
X114255603Y-80055466D01*
X114286048Y-80080452D01*
X114311034Y-80110897D01*
X114329601Y-80145633D01*
X114341035Y-80183326D01*
X114345500Y-80228661D01*
X114345500Y-81315339D01*
X114341035Y-81360674D01*
X114329601Y-81398367D01*
X114311034Y-81433103D01*
X114286048Y-81463548D01*
X114255603Y-81488534D01*
X114220867Y-81507101D01*
X114183174Y-81518535D01*
X114137839Y-81523000D01*
X113301161Y-81523000D01*
X113255826Y-81518535D01*
X113218133Y-81507101D01*
X113183397Y-81488534D01*
X113152952Y-81463548D01*
X113127966Y-81433103D01*
X113109399Y-81398367D01*
X113097965Y-81360674D01*
X113093500Y-81315339D01*
X113093500Y-80228661D01*
X113097965Y-80183326D01*
X113109399Y-80145633D01*
X113127966Y-80110897D01*
X113152952Y-80080452D01*
X113183397Y-80055466D01*
X113218133Y-80036899D01*
X113255826Y-80025465D01*
X113301161Y-80021000D01*
X114137839Y-80021000D01*
X114183174Y-80025465D01*
X114183174Y-80025465D01*
G37*
G36*
X106163000Y-80742000D02*
G01*
X104561000Y-80742000D01*
X104561000Y-80040000D01*
X106163000Y-80040000D01*
X106163000Y-80742000D01*
X106163000Y-80742000D01*
G37*
G36*
X111563000Y-80742000D02*
G01*
X109961000Y-80742000D01*
X109961000Y-80040000D01*
X111563000Y-80040000D01*
X111563000Y-80742000D01*
X111563000Y-80742000D01*
G37*
G36*
X100916062Y-78199181D02*
G01*
X100950981Y-78209774D01*
X100983163Y-78226976D01*
X101011373Y-78250127D01*
X101034524Y-78278337D01*
X101051726Y-78310519D01*
X101062319Y-78345438D01*
X101066500Y-78387895D01*
X101066500Y-79854105D01*
X101062319Y-79896562D01*
X101051726Y-79931481D01*
X101034524Y-79963663D01*
X101011373Y-79991873D01*
X100983163Y-80015024D01*
X100950981Y-80032226D01*
X100916062Y-80042819D01*
X100873605Y-80047000D01*
X99732395Y-80047000D01*
X99689938Y-80042819D01*
X99655019Y-80032226D01*
X99622837Y-80015024D01*
X99594627Y-79991873D01*
X99571476Y-79963663D01*
X99554274Y-79931481D01*
X99543681Y-79896562D01*
X99539500Y-79854105D01*
X99539500Y-78387895D01*
X99543681Y-78345438D01*
X99554274Y-78310519D01*
X99571476Y-78278337D01*
X99594627Y-78250127D01*
X99622837Y-78226976D01*
X99655019Y-78209774D01*
X99689938Y-78199181D01*
X99732395Y-78195000D01*
X100873605Y-78195000D01*
X100916062Y-78199181D01*
X100916062Y-78199181D01*
G37*
G36*
X103891062Y-78199181D02*
G01*
X103925981Y-78209774D01*
X103958163Y-78226976D01*
X103986373Y-78250127D01*
X104009524Y-78278337D01*
X104026726Y-78310519D01*
X104037319Y-78345438D01*
X104041500Y-78387895D01*
X104041500Y-79854105D01*
X104037319Y-79896562D01*
X104026726Y-79931481D01*
X104009524Y-79963663D01*
X103986373Y-79991873D01*
X103958163Y-80015024D01*
X103925981Y-80032226D01*
X103891062Y-80042819D01*
X103848605Y-80047000D01*
X102707395Y-80047000D01*
X102664938Y-80042819D01*
X102630019Y-80032226D01*
X102597837Y-80015024D01*
X102569627Y-79991873D01*
X102546476Y-79963663D01*
X102529274Y-79931481D01*
X102518681Y-79896562D01*
X102514500Y-79854105D01*
X102514500Y-78387895D01*
X102518681Y-78345438D01*
X102529274Y-78310519D01*
X102546476Y-78278337D01*
X102569627Y-78250127D01*
X102597837Y-78226976D01*
X102630019Y-78209774D01*
X102664938Y-78199181D01*
X102707395Y-78195000D01*
X103848605Y-78195000D01*
X103891062Y-78199181D01*
X103891062Y-78199181D01*
G37*
G36*
X88931500Y-79945000D02*
G01*
X86329500Y-79945000D01*
X86329500Y-78043000D01*
X88931500Y-78043000D01*
X88931500Y-79945000D01*
X88931500Y-79945000D01*
G37*
G36*
X92931500Y-79945000D02*
G01*
X90329500Y-79945000D01*
X90329500Y-78043000D01*
X92931500Y-78043000D01*
X92931500Y-79945000D01*
X92931500Y-79945000D01*
G37*
G36*
X116233174Y-78120465D02*
G01*
X116270867Y-78131899D01*
X116305603Y-78150466D01*
X116336048Y-78175452D01*
X116361034Y-78205897D01*
X116379601Y-78240633D01*
X116391035Y-78278326D01*
X116395500Y-78323661D01*
X116395500Y-79410339D01*
X116391035Y-79455674D01*
X116379601Y-79493367D01*
X116361034Y-79528103D01*
X116336048Y-79558548D01*
X116305603Y-79583534D01*
X116270867Y-79602101D01*
X116233174Y-79613535D01*
X116187839Y-79618000D01*
X115351161Y-79618000D01*
X115305826Y-79613535D01*
X115268133Y-79602101D01*
X115233397Y-79583534D01*
X115202952Y-79558548D01*
X115177966Y-79528103D01*
X115159399Y-79493367D01*
X115147965Y-79455674D01*
X115143500Y-79410339D01*
X115143500Y-78323661D01*
X115147965Y-78278326D01*
X115159399Y-78240633D01*
X115177966Y-78205897D01*
X115202952Y-78175452D01*
X115233397Y-78150466D01*
X115268133Y-78131899D01*
X115305826Y-78120465D01*
X115351161Y-78116000D01*
X116187839Y-78116000D01*
X116233174Y-78120465D01*
X116233174Y-78120465D01*
G37*
G36*
X114183174Y-78120465D02*
G01*
X114220867Y-78131899D01*
X114255603Y-78150466D01*
X114286048Y-78175452D01*
X114311034Y-78205897D01*
X114329601Y-78240633D01*
X114341035Y-78278326D01*
X114345500Y-78323661D01*
X114345500Y-79410339D01*
X114341035Y-79455674D01*
X114329601Y-79493367D01*
X114311034Y-79528103D01*
X114286048Y-79558548D01*
X114255603Y-79583534D01*
X114220867Y-79602101D01*
X114183174Y-79613535D01*
X114137839Y-79618000D01*
X113301161Y-79618000D01*
X113255826Y-79613535D01*
X113218133Y-79602101D01*
X113183397Y-79583534D01*
X113152952Y-79558548D01*
X113127966Y-79528103D01*
X113109399Y-79493367D01*
X113097965Y-79455674D01*
X113093500Y-79410339D01*
X113093500Y-78323661D01*
X113097965Y-78278326D01*
X113109399Y-78240633D01*
X113127966Y-78205897D01*
X113152952Y-78175452D01*
X113183397Y-78150466D01*
X113218133Y-78131899D01*
X113255826Y-78120465D01*
X113301161Y-78116000D01*
X114137839Y-78116000D01*
X114183174Y-78120465D01*
X114183174Y-78120465D01*
G37*
G36*
X111563000Y-79472000D02*
G01*
X109961000Y-79472000D01*
X109961000Y-78770000D01*
X111563000Y-78770000D01*
X111563000Y-79472000D01*
X111563000Y-79472000D01*
G37*
G36*
X106163000Y-79472000D02*
G01*
X104561000Y-79472000D01*
X104561000Y-78770000D01*
X106163000Y-78770000D01*
X106163000Y-79472000D01*
X106163000Y-79472000D01*
G37*
G36*
X83356943Y-77281019D02*
G01*
X83423127Y-77287537D01*
X83592966Y-77339057D01*
X83749491Y-77422722D01*
X83785229Y-77452052D01*
X83886686Y-77535314D01*
X83969948Y-77636771D01*
X83999278Y-77672509D01*
X84082943Y-77829034D01*
X84134463Y-77998873D01*
X84151859Y-78175500D01*
X84134463Y-78352127D01*
X84082943Y-78521966D01*
X83999278Y-78678491D01*
X83969948Y-78714229D01*
X83886686Y-78815686D01*
X83785229Y-78898948D01*
X83749491Y-78928278D01*
X83592966Y-79011943D01*
X83423127Y-79063463D01*
X83356942Y-79069982D01*
X83290760Y-79076500D01*
X82952240Y-79076500D01*
X82886058Y-79069982D01*
X82819873Y-79063463D01*
X82650034Y-79011943D01*
X82493509Y-78928278D01*
X82457771Y-78898948D01*
X82356314Y-78815686D01*
X82273052Y-78714229D01*
X82243722Y-78678491D01*
X82160057Y-78521966D01*
X82108537Y-78352127D01*
X82091141Y-78175500D01*
X82108537Y-77998873D01*
X82160057Y-77829034D01*
X82243722Y-77672509D01*
X82273052Y-77636771D01*
X82356314Y-77535314D01*
X82457771Y-77452052D01*
X82493509Y-77422722D01*
X82650034Y-77339057D01*
X82819873Y-77287537D01*
X82886057Y-77281019D01*
X82952240Y-77274500D01*
X83290760Y-77274500D01*
X83356943Y-77281019D01*
X83356943Y-77281019D01*
G37*
G36*
X106163000Y-78202000D02*
G01*
X104561000Y-78202000D01*
X104561000Y-77500000D01*
X106163000Y-77500000D01*
X106163000Y-78202000D01*
X106163000Y-78202000D01*
G37*
G36*
X111563000Y-78202000D02*
G01*
X109961000Y-78202000D01*
X109961000Y-77500000D01*
X111563000Y-77500000D01*
X111563000Y-78202000D01*
X111563000Y-78202000D01*
G37*
G36*
X130387000Y-77639666D02*
G01*
X128185000Y-77639666D01*
X128185000Y-75437666D01*
X130387000Y-75437666D01*
X130387000Y-77639666D01*
X130387000Y-77639666D01*
G37*
G36*
X114245500Y-77574000D02*
G01*
X113343500Y-77574000D01*
X113343500Y-76572000D01*
X114245500Y-76572000D01*
X114245500Y-77574000D01*
X114245500Y-77574000D01*
G37*
G36*
X116145500Y-77574000D02*
G01*
X115243500Y-77574000D01*
X115243500Y-76572000D01*
X116145500Y-76572000D01*
X116145500Y-77574000D01*
X116145500Y-77574000D01*
G37*
G36*
X106163000Y-76932000D02*
G01*
X104561000Y-76932000D01*
X104561000Y-76230000D01*
X106163000Y-76230000D01*
X106163000Y-76932000D01*
X106163000Y-76932000D01*
G37*
G36*
X111563000Y-76932000D02*
G01*
X109961000Y-76932000D01*
X109961000Y-76230000D01*
X111563000Y-76230000D01*
X111563000Y-76932000D01*
X111563000Y-76932000D01*
G37*
G36*
X100906562Y-74833681D02*
G01*
X100941481Y-74844274D01*
X100973663Y-74861476D01*
X101001873Y-74884627D01*
X101025024Y-74912837D01*
X101042226Y-74945019D01*
X101052819Y-74979938D01*
X101057000Y-75022395D01*
X101057000Y-76488605D01*
X101052819Y-76531062D01*
X101042226Y-76565981D01*
X101025024Y-76598163D01*
X101001873Y-76626373D01*
X100973663Y-76649524D01*
X100941481Y-76666726D01*
X100906562Y-76677319D01*
X100864105Y-76681500D01*
X99722895Y-76681500D01*
X99680438Y-76677319D01*
X99645519Y-76666726D01*
X99613337Y-76649524D01*
X99585127Y-76626373D01*
X99561976Y-76598163D01*
X99544774Y-76565981D01*
X99534181Y-76531062D01*
X99530000Y-76488605D01*
X99530000Y-75022395D01*
X99534181Y-74979938D01*
X99544774Y-74945019D01*
X99561976Y-74912837D01*
X99585127Y-74884627D01*
X99613337Y-74861476D01*
X99645519Y-74844274D01*
X99680438Y-74833681D01*
X99722895Y-74829500D01*
X100864105Y-74829500D01*
X100906562Y-74833681D01*
X100906562Y-74833681D01*
G37*
G36*
X97931562Y-74833681D02*
G01*
X97966481Y-74844274D01*
X97998663Y-74861476D01*
X98026873Y-74884627D01*
X98050024Y-74912837D01*
X98067226Y-74945019D01*
X98077819Y-74979938D01*
X98082000Y-75022395D01*
X98082000Y-76488605D01*
X98077819Y-76531062D01*
X98067226Y-76565981D01*
X98050024Y-76598163D01*
X98026873Y-76626373D01*
X97998663Y-76649524D01*
X97966481Y-76666726D01*
X97931562Y-76677319D01*
X97889105Y-76681500D01*
X96747895Y-76681500D01*
X96705438Y-76677319D01*
X96670519Y-76666726D01*
X96638337Y-76649524D01*
X96610127Y-76626373D01*
X96586976Y-76598163D01*
X96569774Y-76565981D01*
X96559181Y-76531062D01*
X96555000Y-76488605D01*
X96555000Y-75022395D01*
X96559181Y-74979938D01*
X96569774Y-74945019D01*
X96586976Y-74912837D01*
X96610127Y-74884627D01*
X96638337Y-74861476D01*
X96670519Y-74844274D01*
X96705438Y-74833681D01*
X96747895Y-74829500D01*
X97889105Y-74829500D01*
X97931562Y-74833681D01*
X97931562Y-74833681D01*
G37*
G36*
X83356943Y-74781019D02*
G01*
X83423127Y-74787537D01*
X83592966Y-74839057D01*
X83749491Y-74922722D01*
X83776660Y-74945019D01*
X83886686Y-75035314D01*
X83969948Y-75136771D01*
X83999278Y-75172509D01*
X84082943Y-75329034D01*
X84134463Y-75498873D01*
X84151859Y-75675500D01*
X84134463Y-75852127D01*
X84082943Y-76021966D01*
X83999278Y-76178491D01*
X83969948Y-76214229D01*
X83886686Y-76315686D01*
X83785229Y-76398948D01*
X83749491Y-76428278D01*
X83592966Y-76511943D01*
X83423127Y-76563463D01*
X83356942Y-76569982D01*
X83290760Y-76576500D01*
X82952240Y-76576500D01*
X82886058Y-76569982D01*
X82819873Y-76563463D01*
X82650034Y-76511943D01*
X82493509Y-76428278D01*
X82457771Y-76398948D01*
X82356314Y-76315686D01*
X82273052Y-76214229D01*
X82243722Y-76178491D01*
X82160057Y-76021966D01*
X82108537Y-75852127D01*
X82091141Y-75675500D01*
X82108537Y-75498873D01*
X82160057Y-75329034D01*
X82243722Y-75172509D01*
X82273052Y-75136771D01*
X82356314Y-75035314D01*
X82466340Y-74945019D01*
X82493509Y-74922722D01*
X82650034Y-74839057D01*
X82819873Y-74787537D01*
X82886057Y-74781019D01*
X82952240Y-74774500D01*
X83290760Y-74774500D01*
X83356943Y-74781019D01*
X83356943Y-74781019D01*
G37*
G36*
X111563000Y-75662000D02*
G01*
X109961000Y-75662000D01*
X109961000Y-74960000D01*
X111563000Y-74960000D01*
X111563000Y-75662000D01*
X111563000Y-75662000D01*
G37*
G36*
X106163000Y-75662000D02*
G01*
X104561000Y-75662000D01*
X104561000Y-74960000D01*
X106163000Y-74960000D01*
X106163000Y-75662000D01*
X106163000Y-75662000D01*
G37*
G36*
X115195500Y-75574000D02*
G01*
X114293500Y-75574000D01*
X114293500Y-74572000D01*
X115195500Y-74572000D01*
X115195500Y-75574000D01*
X115195500Y-75574000D01*
G37*
G36*
X123177200Y-75398800D02*
G01*
X122075200Y-75398800D01*
X122075200Y-73596800D01*
X123177200Y-73596800D01*
X123177200Y-75398800D01*
X123177200Y-75398800D01*
G37*
G36*
X119377200Y-75398800D02*
G01*
X118275200Y-75398800D01*
X118275200Y-73596800D01*
X119377200Y-73596800D01*
X119377200Y-75398800D01*
X119377200Y-75398800D01*
G37*
G36*
X129500795Y-72918822D02*
G01*
X129607150Y-72939977D01*
X129707334Y-72981475D01*
X129807520Y-73022973D01*
X129987844Y-73143461D01*
X130141205Y-73296822D01*
X130261693Y-73477146D01*
X130261693Y-73477147D01*
X130344689Y-73677516D01*
X130344883Y-73678491D01*
X130387000Y-73890226D01*
X130387000Y-74107106D01*
X130344689Y-74319815D01*
X130261693Y-74520186D01*
X130141205Y-74700510D01*
X129987844Y-74853871D01*
X129807520Y-74974359D01*
X129757987Y-74994876D01*
X129607150Y-75057355D01*
X129500794Y-75078511D01*
X129394440Y-75099666D01*
X129177560Y-75099666D01*
X129071206Y-75078511D01*
X128964850Y-75057355D01*
X128814013Y-74994876D01*
X128764480Y-74974359D01*
X128584156Y-74853871D01*
X128430795Y-74700510D01*
X128310307Y-74520186D01*
X128227311Y-74319815D01*
X128185000Y-74107106D01*
X128185000Y-73890226D01*
X128227117Y-73678491D01*
X128227311Y-73677516D01*
X128310307Y-73477147D01*
X128310307Y-73477146D01*
X128430795Y-73296822D01*
X128584156Y-73143461D01*
X128764480Y-73022973D01*
X128864666Y-72981475D01*
X128964850Y-72939977D01*
X129071205Y-72918822D01*
X129177560Y-72897666D01*
X129394440Y-72897666D01*
X129500795Y-72918822D01*
X129500795Y-72918822D01*
G37*
G36*
X106631974Y-72659465D02*
G01*
X106669667Y-72670899D01*
X106704403Y-72689466D01*
X106734848Y-72714452D01*
X106759834Y-72744897D01*
X106778401Y-72779633D01*
X106789835Y-72817326D01*
X106794300Y-72862661D01*
X106794300Y-73949339D01*
X106789835Y-73994674D01*
X106778401Y-74032367D01*
X106759834Y-74067103D01*
X106734848Y-74097548D01*
X106704403Y-74122534D01*
X106669667Y-74141101D01*
X106631974Y-74152535D01*
X106586639Y-74157000D01*
X105749961Y-74157000D01*
X105704626Y-74152535D01*
X105666933Y-74141101D01*
X105632197Y-74122534D01*
X105601752Y-74097548D01*
X105576766Y-74067103D01*
X105558199Y-74032367D01*
X105546765Y-73994674D01*
X105542300Y-73949339D01*
X105542300Y-72862661D01*
X105546765Y-72817326D01*
X105558199Y-72779633D01*
X105576766Y-72744897D01*
X105601752Y-72714452D01*
X105632197Y-72689466D01*
X105666933Y-72670899D01*
X105704626Y-72659465D01*
X105749961Y-72655000D01*
X106586639Y-72655000D01*
X106631974Y-72659465D01*
X106631974Y-72659465D01*
G37*
G36*
X104581974Y-72659465D02*
G01*
X104619667Y-72670899D01*
X104654403Y-72689466D01*
X104684848Y-72714452D01*
X104709834Y-72744897D01*
X104728401Y-72779633D01*
X104739835Y-72817326D01*
X104744300Y-72862661D01*
X104744300Y-73949339D01*
X104739835Y-73994674D01*
X104728401Y-74032367D01*
X104709834Y-74067103D01*
X104684848Y-74097548D01*
X104654403Y-74122534D01*
X104619667Y-74141101D01*
X104581974Y-74152535D01*
X104536639Y-74157000D01*
X103699961Y-74157000D01*
X103654626Y-74152535D01*
X103616933Y-74141101D01*
X103582197Y-74122534D01*
X103551752Y-74097548D01*
X103526766Y-74067103D01*
X103508199Y-74032367D01*
X103496765Y-73994674D01*
X103492300Y-73949339D01*
X103492300Y-72862661D01*
X103496765Y-72817326D01*
X103508199Y-72779633D01*
X103526766Y-72744897D01*
X103551752Y-72714452D01*
X103582197Y-72689466D01*
X103616933Y-72670899D01*
X103654626Y-72659465D01*
X103699961Y-72655000D01*
X104536639Y-72655000D01*
X104581974Y-72659465D01*
X104581974Y-72659465D01*
G37*
G36*
X114368562Y-72280981D02*
G01*
X114403481Y-72291574D01*
X114435663Y-72308776D01*
X114463873Y-72331927D01*
X114487024Y-72360137D01*
X114504226Y-72392319D01*
X114514819Y-72427238D01*
X114519000Y-72469695D01*
X114519000Y-73935905D01*
X114514819Y-73978362D01*
X114504226Y-74013281D01*
X114487024Y-74045463D01*
X114463873Y-74073673D01*
X114435663Y-74096824D01*
X114403481Y-74114026D01*
X114368562Y-74124619D01*
X114326105Y-74128800D01*
X113184895Y-74128800D01*
X113142438Y-74124619D01*
X113107519Y-74114026D01*
X113075337Y-74096824D01*
X113047127Y-74073673D01*
X113023976Y-74045463D01*
X113006774Y-74013281D01*
X112996181Y-73978362D01*
X112992000Y-73935905D01*
X112992000Y-72469695D01*
X112996181Y-72427238D01*
X113006774Y-72392319D01*
X113023976Y-72360137D01*
X113047127Y-72331927D01*
X113075337Y-72308776D01*
X113107519Y-72291574D01*
X113142438Y-72280981D01*
X113184895Y-72276800D01*
X114326105Y-72276800D01*
X114368562Y-72280981D01*
X114368562Y-72280981D01*
G37*
G36*
X111393562Y-72280981D02*
G01*
X111428481Y-72291574D01*
X111460663Y-72308776D01*
X111488873Y-72331927D01*
X111512024Y-72360137D01*
X111529226Y-72392319D01*
X111539819Y-72427238D01*
X111544000Y-72469695D01*
X111544000Y-73935905D01*
X111539819Y-73978362D01*
X111529226Y-74013281D01*
X111512024Y-74045463D01*
X111488873Y-74073673D01*
X111460663Y-74096824D01*
X111428481Y-74114026D01*
X111393562Y-74124619D01*
X111351105Y-74128800D01*
X110209895Y-74128800D01*
X110167438Y-74124619D01*
X110132519Y-74114026D01*
X110100337Y-74096824D01*
X110072127Y-74073673D01*
X110048976Y-74045463D01*
X110031774Y-74013281D01*
X110021181Y-73978362D01*
X110017000Y-73935905D01*
X110017000Y-72469695D01*
X110021181Y-72427238D01*
X110031774Y-72392319D01*
X110048976Y-72360137D01*
X110072127Y-72331927D01*
X110100337Y-72308776D01*
X110132519Y-72291574D01*
X110167438Y-72280981D01*
X110209895Y-72276800D01*
X111351105Y-72276800D01*
X111393562Y-72280981D01*
X111393562Y-72280981D01*
G37*
G36*
X83356562Y-72280981D02*
G01*
X83423127Y-72287537D01*
X83592966Y-72339057D01*
X83749491Y-72422722D01*
X83785229Y-72452052D01*
X83886686Y-72535314D01*
X83969948Y-72636771D01*
X83999278Y-72672509D01*
X84082943Y-72829034D01*
X84134463Y-72998873D01*
X84151859Y-73175500D01*
X84134463Y-73352127D01*
X84082943Y-73521966D01*
X83999278Y-73678491D01*
X83969948Y-73714229D01*
X83886686Y-73815686D01*
X83802436Y-73884827D01*
X83749491Y-73928278D01*
X83592966Y-74011943D01*
X83423127Y-74063463D01*
X83356942Y-74069982D01*
X83290760Y-74076500D01*
X82952240Y-74076500D01*
X82886058Y-74069982D01*
X82819873Y-74063463D01*
X82650034Y-74011943D01*
X82493509Y-73928278D01*
X82440564Y-73884827D01*
X82356314Y-73815686D01*
X82273052Y-73714229D01*
X82243722Y-73678491D01*
X82160057Y-73521966D01*
X82108537Y-73352127D01*
X82091141Y-73175500D01*
X82108537Y-72998873D01*
X82160057Y-72829034D01*
X82243722Y-72672509D01*
X82273052Y-72636771D01*
X82356314Y-72535314D01*
X82457771Y-72452052D01*
X82493509Y-72422722D01*
X82650034Y-72339057D01*
X82819873Y-72287537D01*
X82886438Y-72280981D01*
X82952240Y-72274500D01*
X83290760Y-72274500D01*
X83356562Y-72280981D01*
X83356562Y-72280981D01*
G37*
G36*
X93433500Y-73733500D02*
G01*
X91831500Y-73733500D01*
X91831500Y-71631500D01*
X93433500Y-71631500D01*
X93433500Y-73733500D01*
X93433500Y-73733500D01*
G37*
G36*
X95733500Y-73733500D02*
G01*
X94131500Y-73733500D01*
X94131500Y-71631500D01*
X95733500Y-71631500D01*
X95733500Y-73733500D01*
X95733500Y-73733500D01*
G37*
G36*
X98033500Y-73733500D02*
G01*
X96431500Y-73733500D01*
X96431500Y-71631500D01*
X98033500Y-71631500D01*
X98033500Y-73733500D01*
X98033500Y-73733500D01*
G37*
G36*
X90862631Y-69850023D02*
G01*
X90891128Y-69858667D01*
X90917389Y-69872704D01*
X90940406Y-69891594D01*
X90959296Y-69914611D01*
X90973333Y-69940872D01*
X90981977Y-69969369D01*
X90985500Y-70005140D01*
X90985500Y-72989860D01*
X90981977Y-73025631D01*
X90973333Y-73054128D01*
X90959296Y-73080389D01*
X90940406Y-73103406D01*
X90917389Y-73122296D01*
X90891128Y-73136333D01*
X90862631Y-73144977D01*
X90826860Y-73148500D01*
X86592140Y-73148500D01*
X86556369Y-73144977D01*
X86527872Y-73136333D01*
X86501611Y-73122296D01*
X86478594Y-73103406D01*
X86459704Y-73080389D01*
X86445667Y-73054128D01*
X86437023Y-73025631D01*
X86433500Y-72989860D01*
X86433500Y-70005140D01*
X86437023Y-69969369D01*
X86445667Y-69940872D01*
X86459704Y-69914611D01*
X86478594Y-69891594D01*
X86501611Y-69872704D01*
X86527872Y-69858667D01*
X86556369Y-69850023D01*
X86592140Y-69846500D01*
X90826860Y-69846500D01*
X90862631Y-69850023D01*
X90862631Y-69850023D01*
G37*
G36*
X104581974Y-70690965D02*
G01*
X104619667Y-70702399D01*
X104654403Y-70720966D01*
X104684848Y-70745952D01*
X104709834Y-70776397D01*
X104728401Y-70811133D01*
X104739835Y-70848826D01*
X104744300Y-70894161D01*
X104744300Y-71980839D01*
X104739835Y-72026174D01*
X104728401Y-72063867D01*
X104709834Y-72098603D01*
X104684848Y-72129048D01*
X104654403Y-72154034D01*
X104619667Y-72172601D01*
X104581974Y-72184035D01*
X104536639Y-72188500D01*
X103699961Y-72188500D01*
X103654626Y-72184035D01*
X103616933Y-72172601D01*
X103582197Y-72154034D01*
X103551752Y-72129048D01*
X103526766Y-72098603D01*
X103508199Y-72063867D01*
X103496765Y-72026174D01*
X103492300Y-71980839D01*
X103492300Y-70894161D01*
X103496765Y-70848826D01*
X103508199Y-70811133D01*
X103526766Y-70776397D01*
X103551752Y-70745952D01*
X103582197Y-70720966D01*
X103616933Y-70702399D01*
X103654626Y-70690965D01*
X103699961Y-70686500D01*
X104536639Y-70686500D01*
X104581974Y-70690965D01*
X104581974Y-70690965D01*
G37*
G36*
X106631974Y-70690965D02*
G01*
X106669667Y-70702399D01*
X106704403Y-70720966D01*
X106734848Y-70745952D01*
X106759834Y-70776397D01*
X106778401Y-70811133D01*
X106789835Y-70848826D01*
X106794300Y-70894161D01*
X106794300Y-71980839D01*
X106789835Y-72026174D01*
X106778401Y-72063867D01*
X106759834Y-72098603D01*
X106734848Y-72129048D01*
X106704403Y-72154034D01*
X106669667Y-72172601D01*
X106631974Y-72184035D01*
X106586639Y-72188500D01*
X105749961Y-72188500D01*
X105704626Y-72184035D01*
X105666933Y-72172601D01*
X105632197Y-72154034D01*
X105601752Y-72129048D01*
X105576766Y-72098603D01*
X105558199Y-72063867D01*
X105546765Y-72026174D01*
X105542300Y-71980839D01*
X105542300Y-70894161D01*
X105546765Y-70848826D01*
X105558199Y-70811133D01*
X105576766Y-70776397D01*
X105601752Y-70745952D01*
X105632197Y-70720966D01*
X105666933Y-70702399D01*
X105704626Y-70690965D01*
X105749961Y-70686500D01*
X106586639Y-70686500D01*
X106631974Y-70690965D01*
X106631974Y-70690965D01*
G37*
G36*
X84005198Y-69778487D02*
G01*
X84038224Y-69788505D01*
X84068659Y-69804773D01*
X84095335Y-69826665D01*
X84117227Y-69853341D01*
X84133495Y-69883776D01*
X84143513Y-69916802D01*
X84147500Y-69957284D01*
X84147500Y-71393716D01*
X84143513Y-71434198D01*
X84133495Y-71467224D01*
X84117227Y-71497659D01*
X84095335Y-71524335D01*
X84068659Y-71546227D01*
X84038224Y-71562495D01*
X84005198Y-71572513D01*
X83964716Y-71576500D01*
X82278284Y-71576500D01*
X82237802Y-71572513D01*
X82204776Y-71562495D01*
X82174341Y-71546227D01*
X82147665Y-71524335D01*
X82125773Y-71497659D01*
X82109505Y-71467224D01*
X82099487Y-71434198D01*
X82095500Y-71393716D01*
X82095500Y-69957284D01*
X82099487Y-69916802D01*
X82109505Y-69883776D01*
X82125773Y-69853341D01*
X82147665Y-69826665D01*
X82174341Y-69804773D01*
X82204776Y-69788505D01*
X82237802Y-69778487D01*
X82278284Y-69774500D01*
X83964716Y-69774500D01*
X84005198Y-69778487D01*
X84005198Y-69778487D01*
G37*
G36*
X130387000Y-70925600D02*
G01*
X128185000Y-70925600D01*
X128185000Y-68723600D01*
X130387000Y-68723600D01*
X130387000Y-70925600D01*
X130387000Y-70925600D01*
G37*
G36*
X129500794Y-66204755D02*
G01*
X129607150Y-66225911D01*
X129807520Y-66308907D01*
X129987844Y-66429395D01*
X130141205Y-66582756D01*
X130261693Y-66763080D01*
X130344689Y-66963451D01*
X130387000Y-67176160D01*
X130387000Y-67393040D01*
X130344689Y-67605749D01*
X130261693Y-67806120D01*
X130141205Y-67986444D01*
X129987844Y-68139805D01*
X129807520Y-68260293D01*
X129707334Y-68301791D01*
X129607150Y-68343289D01*
X129500795Y-68364444D01*
X129394440Y-68385600D01*
X129177560Y-68385600D01*
X129071205Y-68364444D01*
X128964850Y-68343289D01*
X128764480Y-68260293D01*
X128584156Y-68139805D01*
X128430795Y-67986444D01*
X128310307Y-67806120D01*
X128227311Y-67605749D01*
X128185000Y-67393040D01*
X128185000Y-67176160D01*
X128227311Y-66963451D01*
X128310307Y-66763080D01*
X128430795Y-66582756D01*
X128584156Y-66429395D01*
X128764480Y-66308907D01*
X128964850Y-66225911D01*
X129071206Y-66204755D01*
X129177560Y-66183600D01*
X129394440Y-66183600D01*
X129500794Y-66204755D01*
X129500794Y-66204755D01*
G37*
G36*
X90862631Y-64650023D02*
G01*
X90891128Y-64658667D01*
X90917389Y-64672704D01*
X90940406Y-64691594D01*
X90959296Y-64714611D01*
X90973333Y-64740872D01*
X90981977Y-64769369D01*
X90985500Y-64805140D01*
X90985500Y-67789860D01*
X90981977Y-67825631D01*
X90973333Y-67854128D01*
X90959296Y-67880389D01*
X90940406Y-67903406D01*
X90917389Y-67922296D01*
X90891128Y-67936333D01*
X90862631Y-67944977D01*
X90826860Y-67948500D01*
X86592140Y-67948500D01*
X86556369Y-67944977D01*
X86527872Y-67936333D01*
X86501611Y-67922296D01*
X86478594Y-67903406D01*
X86459704Y-67880389D01*
X86445667Y-67854128D01*
X86437023Y-67825631D01*
X86433500Y-67789860D01*
X86433500Y-64805140D01*
X86437023Y-64769369D01*
X86445667Y-64740872D01*
X86459704Y-64714611D01*
X86478594Y-64691594D01*
X86501611Y-64672704D01*
X86527872Y-64658667D01*
X86556369Y-64650023D01*
X86592140Y-64646500D01*
X90826860Y-64646500D01*
X90862631Y-64650023D01*
X90862631Y-64650023D01*
G37*
G36*
X96883500Y-67433500D02*
G01*
X92981500Y-67433500D01*
X92981500Y-65331500D01*
X96883500Y-65331500D01*
X96883500Y-67433500D01*
X96883500Y-67433500D01*
G37*
M02*
