G04 #@! TF.GenerationSoftware,KiCad,Pcbnew,(5.1.0-0)*
G04 #@! TF.CreationDate,2019-04-05T23:49:43+03:00*
G04 #@! TF.ProjectId,curtains-driver,63757274-6169-46e7-932d-647269766572,rev?*
G04 #@! TF.SameCoordinates,Original*
G04 #@! TF.FileFunction,Copper,L1,Top*
G04 #@! TF.FilePolarity,Positive*
%FSLAX46Y46*%
G04 Gerber Fmt 4.6, Leading zero omitted, Abs format (unit mm)*
G04 Created by KiCad (PCBNEW (5.1.0-0)) date 2019-04-05 23:49:43*
%MOMM*%
%LPD*%
G04 APERTURE LIST*
%ADD10C,0.150000*%
%ADD11R,1.000000X1.700000*%
%ADD12R,2.100000X1.800000*%
%ADD13R,1.800000X2.500000*%
%ADD14C,0.100000*%
%ADD15C,1.150000*%
%ADD16C,1.425000*%
%ADD17R,1.380000X0.450000*%
%ADD18R,2.100000X1.475000*%
%ADD19R,1.900000X2.375000*%
%ADD20R,1.900000X1.175000*%
%ADD21R,1.500000X0.600000*%
%ADD22R,0.800000X0.900000*%
%ADD23C,2.100000*%
%ADD24R,2.100000X2.100000*%
%ADD25O,1.950000X1.700000*%
%ADD26C,1.700000*%
%ADD27C,3.200000*%
%ADD28R,3.500000X3.500000*%
%ADD29C,3.000000*%
%ADD30R,3.800000X2.000000*%
%ADD31R,1.500000X2.000000*%
%ADD32C,0.800000*%
%ADD33C,0.800000*%
%ADD34C,0.500000*%
%ADD35C,1.000000*%
%ADD36C,0.300000*%
%ADD37C,0.254000*%
G04 APERTURE END LIST*
D10*
X134000000Y-63754000D02*
X134000000Y-93500000D01*
X78968600Y-63754000D02*
X78968600Y-93472000D01*
X134000000Y-93500000D02*
X78968600Y-93472000D01*
X78968600Y-63754000D02*
X134000000Y-63754000D01*
D11*
X122575400Y-84683200D03*
X122575400Y-90983200D03*
X118775400Y-84683200D03*
X118775400Y-90983200D03*
X118826200Y-80797800D03*
X118826200Y-74497800D03*
X122626200Y-80797800D03*
X122626200Y-74497800D03*
D12*
X109423800Y-89718200D03*
X106323800Y-89718200D03*
X106323800Y-87218200D03*
X109423800Y-87218200D03*
D13*
X87833200Y-75978000D03*
X87833200Y-79978000D03*
D14*
G36*
X106517805Y-72707204D02*
G01*
X106542073Y-72710804D01*
X106565872Y-72716765D01*
X106588971Y-72725030D01*
X106611150Y-72735520D01*
X106632193Y-72748132D01*
X106651899Y-72762747D01*
X106670077Y-72779223D01*
X106686553Y-72797401D01*
X106701168Y-72817107D01*
X106713780Y-72838150D01*
X106724270Y-72860329D01*
X106732535Y-72883428D01*
X106738496Y-72907227D01*
X106742096Y-72931495D01*
X106743300Y-72955999D01*
X106743300Y-73856001D01*
X106742096Y-73880505D01*
X106738496Y-73904773D01*
X106732535Y-73928572D01*
X106724270Y-73951671D01*
X106713780Y-73973850D01*
X106701168Y-73994893D01*
X106686553Y-74014599D01*
X106670077Y-74032777D01*
X106651899Y-74049253D01*
X106632193Y-74063868D01*
X106611150Y-74076480D01*
X106588971Y-74086970D01*
X106565872Y-74095235D01*
X106542073Y-74101196D01*
X106517805Y-74104796D01*
X106493301Y-74106000D01*
X105843299Y-74106000D01*
X105818795Y-74104796D01*
X105794527Y-74101196D01*
X105770728Y-74095235D01*
X105747629Y-74086970D01*
X105725450Y-74076480D01*
X105704407Y-74063868D01*
X105684701Y-74049253D01*
X105666523Y-74032777D01*
X105650047Y-74014599D01*
X105635432Y-73994893D01*
X105622820Y-73973850D01*
X105612330Y-73951671D01*
X105604065Y-73928572D01*
X105598104Y-73904773D01*
X105594504Y-73880505D01*
X105593300Y-73856001D01*
X105593300Y-72955999D01*
X105594504Y-72931495D01*
X105598104Y-72907227D01*
X105604065Y-72883428D01*
X105612330Y-72860329D01*
X105622820Y-72838150D01*
X105635432Y-72817107D01*
X105650047Y-72797401D01*
X105666523Y-72779223D01*
X105684701Y-72762747D01*
X105704407Y-72748132D01*
X105725450Y-72735520D01*
X105747629Y-72725030D01*
X105770728Y-72716765D01*
X105794527Y-72710804D01*
X105818795Y-72707204D01*
X105843299Y-72706000D01*
X106493301Y-72706000D01*
X106517805Y-72707204D01*
X106517805Y-72707204D01*
G37*
D15*
X106168300Y-73406000D03*
D14*
G36*
X104467805Y-72707204D02*
G01*
X104492073Y-72710804D01*
X104515872Y-72716765D01*
X104538971Y-72725030D01*
X104561150Y-72735520D01*
X104582193Y-72748132D01*
X104601899Y-72762747D01*
X104620077Y-72779223D01*
X104636553Y-72797401D01*
X104651168Y-72817107D01*
X104663780Y-72838150D01*
X104674270Y-72860329D01*
X104682535Y-72883428D01*
X104688496Y-72907227D01*
X104692096Y-72931495D01*
X104693300Y-72955999D01*
X104693300Y-73856001D01*
X104692096Y-73880505D01*
X104688496Y-73904773D01*
X104682535Y-73928572D01*
X104674270Y-73951671D01*
X104663780Y-73973850D01*
X104651168Y-73994893D01*
X104636553Y-74014599D01*
X104620077Y-74032777D01*
X104601899Y-74049253D01*
X104582193Y-74063868D01*
X104561150Y-74076480D01*
X104538971Y-74086970D01*
X104515872Y-74095235D01*
X104492073Y-74101196D01*
X104467805Y-74104796D01*
X104443301Y-74106000D01*
X103793299Y-74106000D01*
X103768795Y-74104796D01*
X103744527Y-74101196D01*
X103720728Y-74095235D01*
X103697629Y-74086970D01*
X103675450Y-74076480D01*
X103654407Y-74063868D01*
X103634701Y-74049253D01*
X103616523Y-74032777D01*
X103600047Y-74014599D01*
X103585432Y-73994893D01*
X103572820Y-73973850D01*
X103562330Y-73951671D01*
X103554065Y-73928572D01*
X103548104Y-73904773D01*
X103544504Y-73880505D01*
X103543300Y-73856001D01*
X103543300Y-72955999D01*
X103544504Y-72931495D01*
X103548104Y-72907227D01*
X103554065Y-72883428D01*
X103562330Y-72860329D01*
X103572820Y-72838150D01*
X103585432Y-72817107D01*
X103600047Y-72797401D01*
X103616523Y-72779223D01*
X103634701Y-72762747D01*
X103654407Y-72748132D01*
X103675450Y-72735520D01*
X103697629Y-72725030D01*
X103720728Y-72716765D01*
X103744527Y-72710804D01*
X103768795Y-72707204D01*
X103793299Y-72706000D01*
X104443301Y-72706000D01*
X104467805Y-72707204D01*
X104467805Y-72707204D01*
G37*
D15*
X104118300Y-73406000D03*
D14*
G36*
X116119005Y-78168204D02*
G01*
X116143273Y-78171804D01*
X116167072Y-78177765D01*
X116190171Y-78186030D01*
X116212350Y-78196520D01*
X116233393Y-78209132D01*
X116253099Y-78223747D01*
X116271277Y-78240223D01*
X116287753Y-78258401D01*
X116302368Y-78278107D01*
X116314980Y-78299150D01*
X116325470Y-78321329D01*
X116333735Y-78344428D01*
X116339696Y-78368227D01*
X116343296Y-78392495D01*
X116344500Y-78416999D01*
X116344500Y-79317001D01*
X116343296Y-79341505D01*
X116339696Y-79365773D01*
X116333735Y-79389572D01*
X116325470Y-79412671D01*
X116314980Y-79434850D01*
X116302368Y-79455893D01*
X116287753Y-79475599D01*
X116271277Y-79493777D01*
X116253099Y-79510253D01*
X116233393Y-79524868D01*
X116212350Y-79537480D01*
X116190171Y-79547970D01*
X116167072Y-79556235D01*
X116143273Y-79562196D01*
X116119005Y-79565796D01*
X116094501Y-79567000D01*
X115444499Y-79567000D01*
X115419995Y-79565796D01*
X115395727Y-79562196D01*
X115371928Y-79556235D01*
X115348829Y-79547970D01*
X115326650Y-79537480D01*
X115305607Y-79524868D01*
X115285901Y-79510253D01*
X115267723Y-79493777D01*
X115251247Y-79475599D01*
X115236632Y-79455893D01*
X115224020Y-79434850D01*
X115213530Y-79412671D01*
X115205265Y-79389572D01*
X115199304Y-79365773D01*
X115195704Y-79341505D01*
X115194500Y-79317001D01*
X115194500Y-78416999D01*
X115195704Y-78392495D01*
X115199304Y-78368227D01*
X115205265Y-78344428D01*
X115213530Y-78321329D01*
X115224020Y-78299150D01*
X115236632Y-78278107D01*
X115251247Y-78258401D01*
X115267723Y-78240223D01*
X115285901Y-78223747D01*
X115305607Y-78209132D01*
X115326650Y-78196520D01*
X115348829Y-78186030D01*
X115371928Y-78177765D01*
X115395727Y-78171804D01*
X115419995Y-78168204D01*
X115444499Y-78167000D01*
X116094501Y-78167000D01*
X116119005Y-78168204D01*
X116119005Y-78168204D01*
G37*
D15*
X115769500Y-78867000D03*
D14*
G36*
X114069005Y-78168204D02*
G01*
X114093273Y-78171804D01*
X114117072Y-78177765D01*
X114140171Y-78186030D01*
X114162350Y-78196520D01*
X114183393Y-78209132D01*
X114203099Y-78223747D01*
X114221277Y-78240223D01*
X114237753Y-78258401D01*
X114252368Y-78278107D01*
X114264980Y-78299150D01*
X114275470Y-78321329D01*
X114283735Y-78344428D01*
X114289696Y-78368227D01*
X114293296Y-78392495D01*
X114294500Y-78416999D01*
X114294500Y-79317001D01*
X114293296Y-79341505D01*
X114289696Y-79365773D01*
X114283735Y-79389572D01*
X114275470Y-79412671D01*
X114264980Y-79434850D01*
X114252368Y-79455893D01*
X114237753Y-79475599D01*
X114221277Y-79493777D01*
X114203099Y-79510253D01*
X114183393Y-79524868D01*
X114162350Y-79537480D01*
X114140171Y-79547970D01*
X114117072Y-79556235D01*
X114093273Y-79562196D01*
X114069005Y-79565796D01*
X114044501Y-79567000D01*
X113394499Y-79567000D01*
X113369995Y-79565796D01*
X113345727Y-79562196D01*
X113321928Y-79556235D01*
X113298829Y-79547970D01*
X113276650Y-79537480D01*
X113255607Y-79524868D01*
X113235901Y-79510253D01*
X113217723Y-79493777D01*
X113201247Y-79475599D01*
X113186632Y-79455893D01*
X113174020Y-79434850D01*
X113163530Y-79412671D01*
X113155265Y-79389572D01*
X113149304Y-79365773D01*
X113145704Y-79341505D01*
X113144500Y-79317001D01*
X113144500Y-78416999D01*
X113145704Y-78392495D01*
X113149304Y-78368227D01*
X113155265Y-78344428D01*
X113163530Y-78321329D01*
X113174020Y-78299150D01*
X113186632Y-78278107D01*
X113201247Y-78258401D01*
X113217723Y-78240223D01*
X113235901Y-78223747D01*
X113255607Y-78209132D01*
X113276650Y-78196520D01*
X113298829Y-78186030D01*
X113321928Y-78177765D01*
X113345727Y-78171804D01*
X113369995Y-78168204D01*
X113394499Y-78167000D01*
X114044501Y-78167000D01*
X114069005Y-78168204D01*
X114069005Y-78168204D01*
G37*
D15*
X113719500Y-78867000D03*
D14*
G36*
X104467805Y-70738704D02*
G01*
X104492073Y-70742304D01*
X104515872Y-70748265D01*
X104538971Y-70756530D01*
X104561150Y-70767020D01*
X104582193Y-70779632D01*
X104601899Y-70794247D01*
X104620077Y-70810723D01*
X104636553Y-70828901D01*
X104651168Y-70848607D01*
X104663780Y-70869650D01*
X104674270Y-70891829D01*
X104682535Y-70914928D01*
X104688496Y-70938727D01*
X104692096Y-70962995D01*
X104693300Y-70987499D01*
X104693300Y-71887501D01*
X104692096Y-71912005D01*
X104688496Y-71936273D01*
X104682535Y-71960072D01*
X104674270Y-71983171D01*
X104663780Y-72005350D01*
X104651168Y-72026393D01*
X104636553Y-72046099D01*
X104620077Y-72064277D01*
X104601899Y-72080753D01*
X104582193Y-72095368D01*
X104561150Y-72107980D01*
X104538971Y-72118470D01*
X104515872Y-72126735D01*
X104492073Y-72132696D01*
X104467805Y-72136296D01*
X104443301Y-72137500D01*
X103793299Y-72137500D01*
X103768795Y-72136296D01*
X103744527Y-72132696D01*
X103720728Y-72126735D01*
X103697629Y-72118470D01*
X103675450Y-72107980D01*
X103654407Y-72095368D01*
X103634701Y-72080753D01*
X103616523Y-72064277D01*
X103600047Y-72046099D01*
X103585432Y-72026393D01*
X103572820Y-72005350D01*
X103562330Y-71983171D01*
X103554065Y-71960072D01*
X103548104Y-71936273D01*
X103544504Y-71912005D01*
X103543300Y-71887501D01*
X103543300Y-70987499D01*
X103544504Y-70962995D01*
X103548104Y-70938727D01*
X103554065Y-70914928D01*
X103562330Y-70891829D01*
X103572820Y-70869650D01*
X103585432Y-70848607D01*
X103600047Y-70828901D01*
X103616523Y-70810723D01*
X103634701Y-70794247D01*
X103654407Y-70779632D01*
X103675450Y-70767020D01*
X103697629Y-70756530D01*
X103720728Y-70748265D01*
X103744527Y-70742304D01*
X103768795Y-70738704D01*
X103793299Y-70737500D01*
X104443301Y-70737500D01*
X104467805Y-70738704D01*
X104467805Y-70738704D01*
G37*
D15*
X104118300Y-71437500D03*
D14*
G36*
X106517805Y-70738704D02*
G01*
X106542073Y-70742304D01*
X106565872Y-70748265D01*
X106588971Y-70756530D01*
X106611150Y-70767020D01*
X106632193Y-70779632D01*
X106651899Y-70794247D01*
X106670077Y-70810723D01*
X106686553Y-70828901D01*
X106701168Y-70848607D01*
X106713780Y-70869650D01*
X106724270Y-70891829D01*
X106732535Y-70914928D01*
X106738496Y-70938727D01*
X106742096Y-70962995D01*
X106743300Y-70987499D01*
X106743300Y-71887501D01*
X106742096Y-71912005D01*
X106738496Y-71936273D01*
X106732535Y-71960072D01*
X106724270Y-71983171D01*
X106713780Y-72005350D01*
X106701168Y-72026393D01*
X106686553Y-72046099D01*
X106670077Y-72064277D01*
X106651899Y-72080753D01*
X106632193Y-72095368D01*
X106611150Y-72107980D01*
X106588971Y-72118470D01*
X106565872Y-72126735D01*
X106542073Y-72132696D01*
X106517805Y-72136296D01*
X106493301Y-72137500D01*
X105843299Y-72137500D01*
X105818795Y-72136296D01*
X105794527Y-72132696D01*
X105770728Y-72126735D01*
X105747629Y-72118470D01*
X105725450Y-72107980D01*
X105704407Y-72095368D01*
X105684701Y-72080753D01*
X105666523Y-72064277D01*
X105650047Y-72046099D01*
X105635432Y-72026393D01*
X105622820Y-72005350D01*
X105612330Y-71983171D01*
X105604065Y-71960072D01*
X105598104Y-71936273D01*
X105594504Y-71912005D01*
X105593300Y-71887501D01*
X105593300Y-70987499D01*
X105594504Y-70962995D01*
X105598104Y-70938727D01*
X105604065Y-70914928D01*
X105612330Y-70891829D01*
X105622820Y-70869650D01*
X105635432Y-70848607D01*
X105650047Y-70828901D01*
X105666523Y-70810723D01*
X105684701Y-70794247D01*
X105704407Y-70779632D01*
X105725450Y-70767020D01*
X105747629Y-70756530D01*
X105770728Y-70748265D01*
X105794527Y-70742304D01*
X105818795Y-70738704D01*
X105843299Y-70737500D01*
X106493301Y-70737500D01*
X106517805Y-70738704D01*
X106517805Y-70738704D01*
G37*
D15*
X106168300Y-71437500D03*
D14*
G36*
X104129104Y-89244404D02*
G01*
X104153373Y-89248004D01*
X104177171Y-89253965D01*
X104200271Y-89262230D01*
X104222449Y-89272720D01*
X104243493Y-89285333D01*
X104263198Y-89299947D01*
X104281377Y-89316423D01*
X104297853Y-89334602D01*
X104312467Y-89354307D01*
X104325080Y-89375351D01*
X104335570Y-89397529D01*
X104343835Y-89420629D01*
X104349796Y-89444427D01*
X104353396Y-89468696D01*
X104354600Y-89493200D01*
X104354600Y-90418200D01*
X104353396Y-90442704D01*
X104349796Y-90466973D01*
X104343835Y-90490771D01*
X104335570Y-90513871D01*
X104325080Y-90536049D01*
X104312467Y-90557093D01*
X104297853Y-90576798D01*
X104281377Y-90594977D01*
X104263198Y-90611453D01*
X104243493Y-90626067D01*
X104222449Y-90638680D01*
X104200271Y-90649170D01*
X104177171Y-90657435D01*
X104153373Y-90663396D01*
X104129104Y-90666996D01*
X104104600Y-90668200D01*
X102854600Y-90668200D01*
X102830096Y-90666996D01*
X102805827Y-90663396D01*
X102782029Y-90657435D01*
X102758929Y-90649170D01*
X102736751Y-90638680D01*
X102715707Y-90626067D01*
X102696002Y-90611453D01*
X102677823Y-90594977D01*
X102661347Y-90576798D01*
X102646733Y-90557093D01*
X102634120Y-90536049D01*
X102623630Y-90513871D01*
X102615365Y-90490771D01*
X102609404Y-90466973D01*
X102605804Y-90442704D01*
X102604600Y-90418200D01*
X102604600Y-89493200D01*
X102605804Y-89468696D01*
X102609404Y-89444427D01*
X102615365Y-89420629D01*
X102623630Y-89397529D01*
X102634120Y-89375351D01*
X102646733Y-89354307D01*
X102661347Y-89334602D01*
X102677823Y-89316423D01*
X102696002Y-89299947D01*
X102715707Y-89285333D01*
X102736751Y-89272720D01*
X102758929Y-89262230D01*
X102782029Y-89253965D01*
X102805827Y-89248004D01*
X102830096Y-89244404D01*
X102854600Y-89243200D01*
X104104600Y-89243200D01*
X104129104Y-89244404D01*
X104129104Y-89244404D01*
G37*
D16*
X103479600Y-89955700D03*
D14*
G36*
X104129104Y-86269404D02*
G01*
X104153373Y-86273004D01*
X104177171Y-86278965D01*
X104200271Y-86287230D01*
X104222449Y-86297720D01*
X104243493Y-86310333D01*
X104263198Y-86324947D01*
X104281377Y-86341423D01*
X104297853Y-86359602D01*
X104312467Y-86379307D01*
X104325080Y-86400351D01*
X104335570Y-86422529D01*
X104343835Y-86445629D01*
X104349796Y-86469427D01*
X104353396Y-86493696D01*
X104354600Y-86518200D01*
X104354600Y-87443200D01*
X104353396Y-87467704D01*
X104349796Y-87491973D01*
X104343835Y-87515771D01*
X104335570Y-87538871D01*
X104325080Y-87561049D01*
X104312467Y-87582093D01*
X104297853Y-87601798D01*
X104281377Y-87619977D01*
X104263198Y-87636453D01*
X104243493Y-87651067D01*
X104222449Y-87663680D01*
X104200271Y-87674170D01*
X104177171Y-87682435D01*
X104153373Y-87688396D01*
X104129104Y-87691996D01*
X104104600Y-87693200D01*
X102854600Y-87693200D01*
X102830096Y-87691996D01*
X102805827Y-87688396D01*
X102782029Y-87682435D01*
X102758929Y-87674170D01*
X102736751Y-87663680D01*
X102715707Y-87651067D01*
X102696002Y-87636453D01*
X102677823Y-87619977D01*
X102661347Y-87601798D01*
X102646733Y-87582093D01*
X102634120Y-87561049D01*
X102623630Y-87538871D01*
X102615365Y-87515771D01*
X102609404Y-87491973D01*
X102605804Y-87467704D01*
X102604600Y-87443200D01*
X102604600Y-86518200D01*
X102605804Y-86493696D01*
X102609404Y-86469427D01*
X102615365Y-86445629D01*
X102623630Y-86422529D01*
X102634120Y-86400351D01*
X102646733Y-86379307D01*
X102661347Y-86359602D01*
X102677823Y-86341423D01*
X102696002Y-86324947D01*
X102715707Y-86310333D01*
X102736751Y-86297720D01*
X102758929Y-86287230D01*
X102782029Y-86278965D01*
X102805827Y-86273004D01*
X102830096Y-86269404D01*
X102854600Y-86268200D01*
X104104600Y-86268200D01*
X104129104Y-86269404D01*
X104129104Y-86269404D01*
G37*
D16*
X103479600Y-86980700D03*
D14*
G36*
X103765004Y-78247204D02*
G01*
X103789273Y-78250804D01*
X103813071Y-78256765D01*
X103836171Y-78265030D01*
X103858349Y-78275520D01*
X103879393Y-78288133D01*
X103899098Y-78302747D01*
X103917277Y-78319223D01*
X103933753Y-78337402D01*
X103948367Y-78357107D01*
X103960980Y-78378151D01*
X103971470Y-78400329D01*
X103979735Y-78423429D01*
X103985696Y-78447227D01*
X103989296Y-78471496D01*
X103990500Y-78496000D01*
X103990500Y-79746000D01*
X103989296Y-79770504D01*
X103985696Y-79794773D01*
X103979735Y-79818571D01*
X103971470Y-79841671D01*
X103960980Y-79863849D01*
X103948367Y-79884893D01*
X103933753Y-79904598D01*
X103917277Y-79922777D01*
X103899098Y-79939253D01*
X103879393Y-79953867D01*
X103858349Y-79966480D01*
X103836171Y-79976970D01*
X103813071Y-79985235D01*
X103789273Y-79991196D01*
X103765004Y-79994796D01*
X103740500Y-79996000D01*
X102815500Y-79996000D01*
X102790996Y-79994796D01*
X102766727Y-79991196D01*
X102742929Y-79985235D01*
X102719829Y-79976970D01*
X102697651Y-79966480D01*
X102676607Y-79953867D01*
X102656902Y-79939253D01*
X102638723Y-79922777D01*
X102622247Y-79904598D01*
X102607633Y-79884893D01*
X102595020Y-79863849D01*
X102584530Y-79841671D01*
X102576265Y-79818571D01*
X102570304Y-79794773D01*
X102566704Y-79770504D01*
X102565500Y-79746000D01*
X102565500Y-78496000D01*
X102566704Y-78471496D01*
X102570304Y-78447227D01*
X102576265Y-78423429D01*
X102584530Y-78400329D01*
X102595020Y-78378151D01*
X102607633Y-78357107D01*
X102622247Y-78337402D01*
X102638723Y-78319223D01*
X102656902Y-78302747D01*
X102676607Y-78288133D01*
X102697651Y-78275520D01*
X102719829Y-78265030D01*
X102742929Y-78256765D01*
X102766727Y-78250804D01*
X102790996Y-78247204D01*
X102815500Y-78246000D01*
X103740500Y-78246000D01*
X103765004Y-78247204D01*
X103765004Y-78247204D01*
G37*
D16*
X103278000Y-79121000D03*
D14*
G36*
X100790004Y-78247204D02*
G01*
X100814273Y-78250804D01*
X100838071Y-78256765D01*
X100861171Y-78265030D01*
X100883349Y-78275520D01*
X100904393Y-78288133D01*
X100924098Y-78302747D01*
X100942277Y-78319223D01*
X100958753Y-78337402D01*
X100973367Y-78357107D01*
X100985980Y-78378151D01*
X100996470Y-78400329D01*
X101004735Y-78423429D01*
X101010696Y-78447227D01*
X101014296Y-78471496D01*
X101015500Y-78496000D01*
X101015500Y-79746000D01*
X101014296Y-79770504D01*
X101010696Y-79794773D01*
X101004735Y-79818571D01*
X100996470Y-79841671D01*
X100985980Y-79863849D01*
X100973367Y-79884893D01*
X100958753Y-79904598D01*
X100942277Y-79922777D01*
X100924098Y-79939253D01*
X100904393Y-79953867D01*
X100883349Y-79966480D01*
X100861171Y-79976970D01*
X100838071Y-79985235D01*
X100814273Y-79991196D01*
X100790004Y-79994796D01*
X100765500Y-79996000D01*
X99840500Y-79996000D01*
X99815996Y-79994796D01*
X99791727Y-79991196D01*
X99767929Y-79985235D01*
X99744829Y-79976970D01*
X99722651Y-79966480D01*
X99701607Y-79953867D01*
X99681902Y-79939253D01*
X99663723Y-79922777D01*
X99647247Y-79904598D01*
X99632633Y-79884893D01*
X99620020Y-79863849D01*
X99609530Y-79841671D01*
X99601265Y-79818571D01*
X99595304Y-79794773D01*
X99591704Y-79770504D01*
X99590500Y-79746000D01*
X99590500Y-78496000D01*
X99591704Y-78471496D01*
X99595304Y-78447227D01*
X99601265Y-78423429D01*
X99609530Y-78400329D01*
X99620020Y-78378151D01*
X99632633Y-78357107D01*
X99647247Y-78337402D01*
X99663723Y-78319223D01*
X99681902Y-78302747D01*
X99701607Y-78288133D01*
X99722651Y-78275520D01*
X99744829Y-78265030D01*
X99767929Y-78256765D01*
X99791727Y-78250804D01*
X99815996Y-78247204D01*
X99840500Y-78246000D01*
X100765500Y-78246000D01*
X100790004Y-78247204D01*
X100790004Y-78247204D01*
G37*
D16*
X100303000Y-79121000D03*
D17*
X83184500Y-87409500D03*
X83184500Y-88059500D03*
X83184500Y-88709500D03*
X83184500Y-89359500D03*
X83184500Y-90009500D03*
D18*
X82824500Y-86247000D03*
X82824500Y-91172000D03*
D19*
X80524500Y-85799500D03*
X80524500Y-91619500D03*
D20*
X80524500Y-87869500D03*
X80524500Y-89549500D03*
D21*
X105362000Y-75311000D03*
X105362000Y-76581000D03*
X105362000Y-77851000D03*
X105362000Y-79121000D03*
X105362000Y-80391000D03*
X105362000Y-81661000D03*
X105362000Y-82931000D03*
X105362000Y-84201000D03*
X110762000Y-84201000D03*
X110762000Y-82931000D03*
X110762000Y-81661000D03*
X110762000Y-80391000D03*
X110762000Y-79121000D03*
X110762000Y-77851000D03*
X110762000Y-76581000D03*
X110762000Y-75311000D03*
D22*
X114744500Y-84566000D03*
X113794500Y-82566000D03*
X115694500Y-82566000D03*
X113794500Y-77073000D03*
X115694500Y-77073000D03*
X114744500Y-75073000D03*
D14*
G36*
X114069005Y-80073204D02*
G01*
X114093273Y-80076804D01*
X114117072Y-80082765D01*
X114140171Y-80091030D01*
X114162350Y-80101520D01*
X114183393Y-80114132D01*
X114203099Y-80128747D01*
X114221277Y-80145223D01*
X114237753Y-80163401D01*
X114252368Y-80183107D01*
X114264980Y-80204150D01*
X114275470Y-80226329D01*
X114283735Y-80249428D01*
X114289696Y-80273227D01*
X114293296Y-80297495D01*
X114294500Y-80321999D01*
X114294500Y-81222001D01*
X114293296Y-81246505D01*
X114289696Y-81270773D01*
X114283735Y-81294572D01*
X114275470Y-81317671D01*
X114264980Y-81339850D01*
X114252368Y-81360893D01*
X114237753Y-81380599D01*
X114221277Y-81398777D01*
X114203099Y-81415253D01*
X114183393Y-81429868D01*
X114162350Y-81442480D01*
X114140171Y-81452970D01*
X114117072Y-81461235D01*
X114093273Y-81467196D01*
X114069005Y-81470796D01*
X114044501Y-81472000D01*
X113394499Y-81472000D01*
X113369995Y-81470796D01*
X113345727Y-81467196D01*
X113321928Y-81461235D01*
X113298829Y-81452970D01*
X113276650Y-81442480D01*
X113255607Y-81429868D01*
X113235901Y-81415253D01*
X113217723Y-81398777D01*
X113201247Y-81380599D01*
X113186632Y-81360893D01*
X113174020Y-81339850D01*
X113163530Y-81317671D01*
X113155265Y-81294572D01*
X113149304Y-81270773D01*
X113145704Y-81246505D01*
X113144500Y-81222001D01*
X113144500Y-80321999D01*
X113145704Y-80297495D01*
X113149304Y-80273227D01*
X113155265Y-80249428D01*
X113163530Y-80226329D01*
X113174020Y-80204150D01*
X113186632Y-80183107D01*
X113201247Y-80163401D01*
X113217723Y-80145223D01*
X113235901Y-80128747D01*
X113255607Y-80114132D01*
X113276650Y-80101520D01*
X113298829Y-80091030D01*
X113321928Y-80082765D01*
X113345727Y-80076804D01*
X113369995Y-80073204D01*
X113394499Y-80072000D01*
X114044501Y-80072000D01*
X114069005Y-80073204D01*
X114069005Y-80073204D01*
G37*
D15*
X113719500Y-80772000D03*
D14*
G36*
X116119005Y-80073204D02*
G01*
X116143273Y-80076804D01*
X116167072Y-80082765D01*
X116190171Y-80091030D01*
X116212350Y-80101520D01*
X116233393Y-80114132D01*
X116253099Y-80128747D01*
X116271277Y-80145223D01*
X116287753Y-80163401D01*
X116302368Y-80183107D01*
X116314980Y-80204150D01*
X116325470Y-80226329D01*
X116333735Y-80249428D01*
X116339696Y-80273227D01*
X116343296Y-80297495D01*
X116344500Y-80321999D01*
X116344500Y-81222001D01*
X116343296Y-81246505D01*
X116339696Y-81270773D01*
X116333735Y-81294572D01*
X116325470Y-81317671D01*
X116314980Y-81339850D01*
X116302368Y-81360893D01*
X116287753Y-81380599D01*
X116271277Y-81398777D01*
X116253099Y-81415253D01*
X116233393Y-81429868D01*
X116212350Y-81442480D01*
X116190171Y-81452970D01*
X116167072Y-81461235D01*
X116143273Y-81467196D01*
X116119005Y-81470796D01*
X116094501Y-81472000D01*
X115444499Y-81472000D01*
X115419995Y-81470796D01*
X115395727Y-81467196D01*
X115371928Y-81461235D01*
X115348829Y-81452970D01*
X115326650Y-81442480D01*
X115305607Y-81429868D01*
X115285901Y-81415253D01*
X115267723Y-81398777D01*
X115251247Y-81380599D01*
X115236632Y-81360893D01*
X115224020Y-81339850D01*
X115213530Y-81317671D01*
X115205265Y-81294572D01*
X115199304Y-81270773D01*
X115195704Y-81246505D01*
X115194500Y-81222001D01*
X115194500Y-80321999D01*
X115195704Y-80297495D01*
X115199304Y-80273227D01*
X115205265Y-80249428D01*
X115213530Y-80226329D01*
X115224020Y-80204150D01*
X115236632Y-80183107D01*
X115251247Y-80163401D01*
X115267723Y-80145223D01*
X115285901Y-80128747D01*
X115305607Y-80114132D01*
X115326650Y-80101520D01*
X115348829Y-80091030D01*
X115371928Y-80082765D01*
X115395727Y-80076804D01*
X115419995Y-80073204D01*
X115444499Y-80072000D01*
X116094501Y-80072000D01*
X116119005Y-80073204D01*
X116119005Y-80073204D01*
G37*
D15*
X115769500Y-80772000D03*
D14*
G36*
X112942904Y-89244404D02*
G01*
X112967173Y-89248004D01*
X112990971Y-89253965D01*
X113014071Y-89262230D01*
X113036249Y-89272720D01*
X113057293Y-89285333D01*
X113076998Y-89299947D01*
X113095177Y-89316423D01*
X113111653Y-89334602D01*
X113126267Y-89354307D01*
X113138880Y-89375351D01*
X113149370Y-89397529D01*
X113157635Y-89420629D01*
X113163596Y-89444427D01*
X113167196Y-89468696D01*
X113168400Y-89493200D01*
X113168400Y-90418200D01*
X113167196Y-90442704D01*
X113163596Y-90466973D01*
X113157635Y-90490771D01*
X113149370Y-90513871D01*
X113138880Y-90536049D01*
X113126267Y-90557093D01*
X113111653Y-90576798D01*
X113095177Y-90594977D01*
X113076998Y-90611453D01*
X113057293Y-90626067D01*
X113036249Y-90638680D01*
X113014071Y-90649170D01*
X112990971Y-90657435D01*
X112967173Y-90663396D01*
X112942904Y-90666996D01*
X112918400Y-90668200D01*
X111668400Y-90668200D01*
X111643896Y-90666996D01*
X111619627Y-90663396D01*
X111595829Y-90657435D01*
X111572729Y-90649170D01*
X111550551Y-90638680D01*
X111529507Y-90626067D01*
X111509802Y-90611453D01*
X111491623Y-90594977D01*
X111475147Y-90576798D01*
X111460533Y-90557093D01*
X111447920Y-90536049D01*
X111437430Y-90513871D01*
X111429165Y-90490771D01*
X111423204Y-90466973D01*
X111419604Y-90442704D01*
X111418400Y-90418200D01*
X111418400Y-89493200D01*
X111419604Y-89468696D01*
X111423204Y-89444427D01*
X111429165Y-89420629D01*
X111437430Y-89397529D01*
X111447920Y-89375351D01*
X111460533Y-89354307D01*
X111475147Y-89334602D01*
X111491623Y-89316423D01*
X111509802Y-89299947D01*
X111529507Y-89285333D01*
X111550551Y-89272720D01*
X111572729Y-89262230D01*
X111595829Y-89253965D01*
X111619627Y-89248004D01*
X111643896Y-89244404D01*
X111668400Y-89243200D01*
X112918400Y-89243200D01*
X112942904Y-89244404D01*
X112942904Y-89244404D01*
G37*
D16*
X112293400Y-89955700D03*
D14*
G36*
X112942904Y-86269404D02*
G01*
X112967173Y-86273004D01*
X112990971Y-86278965D01*
X113014071Y-86287230D01*
X113036249Y-86297720D01*
X113057293Y-86310333D01*
X113076998Y-86324947D01*
X113095177Y-86341423D01*
X113111653Y-86359602D01*
X113126267Y-86379307D01*
X113138880Y-86400351D01*
X113149370Y-86422529D01*
X113157635Y-86445629D01*
X113163596Y-86469427D01*
X113167196Y-86493696D01*
X113168400Y-86518200D01*
X113168400Y-87443200D01*
X113167196Y-87467704D01*
X113163596Y-87491973D01*
X113157635Y-87515771D01*
X113149370Y-87538871D01*
X113138880Y-87561049D01*
X113126267Y-87582093D01*
X113111653Y-87601798D01*
X113095177Y-87619977D01*
X113076998Y-87636453D01*
X113057293Y-87651067D01*
X113036249Y-87663680D01*
X113014071Y-87674170D01*
X112990971Y-87682435D01*
X112967173Y-87688396D01*
X112942904Y-87691996D01*
X112918400Y-87693200D01*
X111668400Y-87693200D01*
X111643896Y-87691996D01*
X111619627Y-87688396D01*
X111595829Y-87682435D01*
X111572729Y-87674170D01*
X111550551Y-87663680D01*
X111529507Y-87651067D01*
X111509802Y-87636453D01*
X111491623Y-87619977D01*
X111475147Y-87601798D01*
X111460533Y-87582093D01*
X111447920Y-87561049D01*
X111437430Y-87538871D01*
X111429165Y-87515771D01*
X111423204Y-87491973D01*
X111419604Y-87467704D01*
X111418400Y-87443200D01*
X111418400Y-86518200D01*
X111419604Y-86493696D01*
X111423204Y-86469427D01*
X111429165Y-86445629D01*
X111437430Y-86422529D01*
X111447920Y-86400351D01*
X111460533Y-86379307D01*
X111475147Y-86359602D01*
X111491623Y-86341423D01*
X111509802Y-86324947D01*
X111529507Y-86310333D01*
X111550551Y-86297720D01*
X111572729Y-86287230D01*
X111595829Y-86278965D01*
X111619627Y-86273004D01*
X111643896Y-86269404D01*
X111668400Y-86268200D01*
X112918400Y-86268200D01*
X112942904Y-86269404D01*
X112942904Y-86269404D01*
G37*
D16*
X112293400Y-86980700D03*
D14*
G36*
X111267504Y-72329004D02*
G01*
X111291773Y-72332604D01*
X111315571Y-72338565D01*
X111338671Y-72346830D01*
X111360849Y-72357320D01*
X111381893Y-72369933D01*
X111401598Y-72384547D01*
X111419777Y-72401023D01*
X111436253Y-72419202D01*
X111450867Y-72438907D01*
X111463480Y-72459951D01*
X111473970Y-72482129D01*
X111482235Y-72505229D01*
X111488196Y-72529027D01*
X111491796Y-72553296D01*
X111493000Y-72577800D01*
X111493000Y-73827800D01*
X111491796Y-73852304D01*
X111488196Y-73876573D01*
X111482235Y-73900371D01*
X111473970Y-73923471D01*
X111463480Y-73945649D01*
X111450867Y-73966693D01*
X111436253Y-73986398D01*
X111419777Y-74004577D01*
X111401598Y-74021053D01*
X111381893Y-74035667D01*
X111360849Y-74048280D01*
X111338671Y-74058770D01*
X111315571Y-74067035D01*
X111291773Y-74072996D01*
X111267504Y-74076596D01*
X111243000Y-74077800D01*
X110318000Y-74077800D01*
X110293496Y-74076596D01*
X110269227Y-74072996D01*
X110245429Y-74067035D01*
X110222329Y-74058770D01*
X110200151Y-74048280D01*
X110179107Y-74035667D01*
X110159402Y-74021053D01*
X110141223Y-74004577D01*
X110124747Y-73986398D01*
X110110133Y-73966693D01*
X110097520Y-73945649D01*
X110087030Y-73923471D01*
X110078765Y-73900371D01*
X110072804Y-73876573D01*
X110069204Y-73852304D01*
X110068000Y-73827800D01*
X110068000Y-72577800D01*
X110069204Y-72553296D01*
X110072804Y-72529027D01*
X110078765Y-72505229D01*
X110087030Y-72482129D01*
X110097520Y-72459951D01*
X110110133Y-72438907D01*
X110124747Y-72419202D01*
X110141223Y-72401023D01*
X110159402Y-72384547D01*
X110179107Y-72369933D01*
X110200151Y-72357320D01*
X110222329Y-72346830D01*
X110245429Y-72338565D01*
X110269227Y-72332604D01*
X110293496Y-72329004D01*
X110318000Y-72327800D01*
X111243000Y-72327800D01*
X111267504Y-72329004D01*
X111267504Y-72329004D01*
G37*
D16*
X110780500Y-73202800D03*
D14*
G36*
X114242504Y-72329004D02*
G01*
X114266773Y-72332604D01*
X114290571Y-72338565D01*
X114313671Y-72346830D01*
X114335849Y-72357320D01*
X114356893Y-72369933D01*
X114376598Y-72384547D01*
X114394777Y-72401023D01*
X114411253Y-72419202D01*
X114425867Y-72438907D01*
X114438480Y-72459951D01*
X114448970Y-72482129D01*
X114457235Y-72505229D01*
X114463196Y-72529027D01*
X114466796Y-72553296D01*
X114468000Y-72577800D01*
X114468000Y-73827800D01*
X114466796Y-73852304D01*
X114463196Y-73876573D01*
X114457235Y-73900371D01*
X114448970Y-73923471D01*
X114438480Y-73945649D01*
X114425867Y-73966693D01*
X114411253Y-73986398D01*
X114394777Y-74004577D01*
X114376598Y-74021053D01*
X114356893Y-74035667D01*
X114335849Y-74048280D01*
X114313671Y-74058770D01*
X114290571Y-74067035D01*
X114266773Y-74072996D01*
X114242504Y-74076596D01*
X114218000Y-74077800D01*
X113293000Y-74077800D01*
X113268496Y-74076596D01*
X113244227Y-74072996D01*
X113220429Y-74067035D01*
X113197329Y-74058770D01*
X113175151Y-74048280D01*
X113154107Y-74035667D01*
X113134402Y-74021053D01*
X113116223Y-74004577D01*
X113099747Y-73986398D01*
X113085133Y-73966693D01*
X113072520Y-73945649D01*
X113062030Y-73923471D01*
X113053765Y-73900371D01*
X113047804Y-73876573D01*
X113044204Y-73852304D01*
X113043000Y-73827800D01*
X113043000Y-72577800D01*
X113044204Y-72553296D01*
X113047804Y-72529027D01*
X113053765Y-72505229D01*
X113062030Y-72482129D01*
X113072520Y-72459951D01*
X113085133Y-72438907D01*
X113099747Y-72419202D01*
X113116223Y-72401023D01*
X113134402Y-72384547D01*
X113154107Y-72369933D01*
X113175151Y-72357320D01*
X113197329Y-72346830D01*
X113220429Y-72338565D01*
X113244227Y-72332604D01*
X113268496Y-72329004D01*
X113293000Y-72327800D01*
X114218000Y-72327800D01*
X114242504Y-72329004D01*
X114242504Y-72329004D01*
G37*
D16*
X113755500Y-73202800D03*
D23*
X127990600Y-67284600D03*
D24*
X127990600Y-69824600D03*
X127990600Y-76538666D03*
D23*
X127990600Y-73998666D03*
X127990600Y-87426800D03*
D24*
X127990600Y-89966800D03*
X127990600Y-83252732D03*
D23*
X127990600Y-80712732D03*
D25*
X83121500Y-80675500D03*
X83121500Y-78175500D03*
X83121500Y-75675500D03*
X83121500Y-73175500D03*
D14*
G36*
X83871094Y-69826703D02*
G01*
X83895353Y-69830302D01*
X83919142Y-69836261D01*
X83942233Y-69844523D01*
X83964402Y-69855008D01*
X83985437Y-69867616D01*
X84005135Y-69882225D01*
X84023306Y-69898694D01*
X84039775Y-69916865D01*
X84054384Y-69936563D01*
X84066992Y-69957598D01*
X84077477Y-69979767D01*
X84085739Y-70002858D01*
X84091698Y-70026647D01*
X84095297Y-70050906D01*
X84096500Y-70075400D01*
X84096500Y-71275600D01*
X84095297Y-71300094D01*
X84091698Y-71324353D01*
X84085739Y-71348142D01*
X84077477Y-71371233D01*
X84066992Y-71393402D01*
X84054384Y-71414437D01*
X84039775Y-71434135D01*
X84023306Y-71452306D01*
X84005135Y-71468775D01*
X83985437Y-71483384D01*
X83964402Y-71495992D01*
X83942233Y-71506477D01*
X83919142Y-71514739D01*
X83895353Y-71520698D01*
X83871094Y-71524297D01*
X83846600Y-71525500D01*
X82396400Y-71525500D01*
X82371906Y-71524297D01*
X82347647Y-71520698D01*
X82323858Y-71514739D01*
X82300767Y-71506477D01*
X82278598Y-71495992D01*
X82257563Y-71483384D01*
X82237865Y-71468775D01*
X82219694Y-71452306D01*
X82203225Y-71434135D01*
X82188616Y-71414437D01*
X82176008Y-71393402D01*
X82165523Y-71371233D01*
X82157261Y-71348142D01*
X82151302Y-71324353D01*
X82147703Y-71300094D01*
X82146500Y-71275600D01*
X82146500Y-70075400D01*
X82147703Y-70050906D01*
X82151302Y-70026647D01*
X82157261Y-70002858D01*
X82165523Y-69979767D01*
X82176008Y-69957598D01*
X82188616Y-69936563D01*
X82203225Y-69916865D01*
X82219694Y-69898694D01*
X82237865Y-69882225D01*
X82257563Y-69867616D01*
X82278598Y-69855008D01*
X82300767Y-69844523D01*
X82323858Y-69836261D01*
X82347647Y-69830302D01*
X82371906Y-69826703D01*
X82396400Y-69825500D01*
X83846600Y-69825500D01*
X83871094Y-69826703D01*
X83871094Y-69826703D01*
G37*
D26*
X83121500Y-70675500D03*
D14*
G36*
X100780504Y-74881704D02*
G01*
X100804773Y-74885304D01*
X100828571Y-74891265D01*
X100851671Y-74899530D01*
X100873849Y-74910020D01*
X100894893Y-74922633D01*
X100914598Y-74937247D01*
X100932777Y-74953723D01*
X100949253Y-74971902D01*
X100963867Y-74991607D01*
X100976480Y-75012651D01*
X100986970Y-75034829D01*
X100995235Y-75057929D01*
X101001196Y-75081727D01*
X101004796Y-75105996D01*
X101006000Y-75130500D01*
X101006000Y-76380500D01*
X101004796Y-76405004D01*
X101001196Y-76429273D01*
X100995235Y-76453071D01*
X100986970Y-76476171D01*
X100976480Y-76498349D01*
X100963867Y-76519393D01*
X100949253Y-76539098D01*
X100932777Y-76557277D01*
X100914598Y-76573753D01*
X100894893Y-76588367D01*
X100873849Y-76600980D01*
X100851671Y-76611470D01*
X100828571Y-76619735D01*
X100804773Y-76625696D01*
X100780504Y-76629296D01*
X100756000Y-76630500D01*
X99831000Y-76630500D01*
X99806496Y-76629296D01*
X99782227Y-76625696D01*
X99758429Y-76619735D01*
X99735329Y-76611470D01*
X99713151Y-76600980D01*
X99692107Y-76588367D01*
X99672402Y-76573753D01*
X99654223Y-76557277D01*
X99637747Y-76539098D01*
X99623133Y-76519393D01*
X99610520Y-76498349D01*
X99600030Y-76476171D01*
X99591765Y-76453071D01*
X99585804Y-76429273D01*
X99582204Y-76405004D01*
X99581000Y-76380500D01*
X99581000Y-75130500D01*
X99582204Y-75105996D01*
X99585804Y-75081727D01*
X99591765Y-75057929D01*
X99600030Y-75034829D01*
X99610520Y-75012651D01*
X99623133Y-74991607D01*
X99637747Y-74971902D01*
X99654223Y-74953723D01*
X99672402Y-74937247D01*
X99692107Y-74922633D01*
X99713151Y-74910020D01*
X99735329Y-74899530D01*
X99758429Y-74891265D01*
X99782227Y-74885304D01*
X99806496Y-74881704D01*
X99831000Y-74880500D01*
X100756000Y-74880500D01*
X100780504Y-74881704D01*
X100780504Y-74881704D01*
G37*
D16*
X100293500Y-75755500D03*
D14*
G36*
X97805504Y-74881704D02*
G01*
X97829773Y-74885304D01*
X97853571Y-74891265D01*
X97876671Y-74899530D01*
X97898849Y-74910020D01*
X97919893Y-74922633D01*
X97939598Y-74937247D01*
X97957777Y-74953723D01*
X97974253Y-74971902D01*
X97988867Y-74991607D01*
X98001480Y-75012651D01*
X98011970Y-75034829D01*
X98020235Y-75057929D01*
X98026196Y-75081727D01*
X98029796Y-75105996D01*
X98031000Y-75130500D01*
X98031000Y-76380500D01*
X98029796Y-76405004D01*
X98026196Y-76429273D01*
X98020235Y-76453071D01*
X98011970Y-76476171D01*
X98001480Y-76498349D01*
X97988867Y-76519393D01*
X97974253Y-76539098D01*
X97957777Y-76557277D01*
X97939598Y-76573753D01*
X97919893Y-76588367D01*
X97898849Y-76600980D01*
X97876671Y-76611470D01*
X97853571Y-76619735D01*
X97829773Y-76625696D01*
X97805504Y-76629296D01*
X97781000Y-76630500D01*
X96856000Y-76630500D01*
X96831496Y-76629296D01*
X96807227Y-76625696D01*
X96783429Y-76619735D01*
X96760329Y-76611470D01*
X96738151Y-76600980D01*
X96717107Y-76588367D01*
X96697402Y-76573753D01*
X96679223Y-76557277D01*
X96662747Y-76539098D01*
X96648133Y-76519393D01*
X96635520Y-76498349D01*
X96625030Y-76476171D01*
X96616765Y-76453071D01*
X96610804Y-76429273D01*
X96607204Y-76405004D01*
X96606000Y-76380500D01*
X96606000Y-75130500D01*
X96607204Y-75105996D01*
X96610804Y-75081727D01*
X96616765Y-75057929D01*
X96625030Y-75034829D01*
X96635520Y-75012651D01*
X96648133Y-74991607D01*
X96662747Y-74971902D01*
X96679223Y-74953723D01*
X96697402Y-74937247D01*
X96717107Y-74922633D01*
X96738151Y-74910020D01*
X96760329Y-74899530D01*
X96783429Y-74891265D01*
X96807227Y-74885304D01*
X96831496Y-74881704D01*
X96856000Y-74880500D01*
X97781000Y-74880500D01*
X97805504Y-74881704D01*
X97805504Y-74881704D01*
G37*
D16*
X97318500Y-75755500D03*
D14*
G36*
X90709004Y-69898704D02*
G01*
X90733273Y-69902304D01*
X90757071Y-69908265D01*
X90780171Y-69916530D01*
X90802349Y-69927020D01*
X90823393Y-69939633D01*
X90843098Y-69954247D01*
X90861277Y-69970723D01*
X90877753Y-69988902D01*
X90892367Y-70008607D01*
X90904980Y-70029651D01*
X90915470Y-70051829D01*
X90923735Y-70074929D01*
X90929696Y-70098727D01*
X90933296Y-70122996D01*
X90934500Y-70147500D01*
X90934500Y-72847500D01*
X90933296Y-72872004D01*
X90929696Y-72896273D01*
X90923735Y-72920071D01*
X90915470Y-72943171D01*
X90904980Y-72965349D01*
X90892367Y-72986393D01*
X90877753Y-73006098D01*
X90861277Y-73024277D01*
X90843098Y-73040753D01*
X90823393Y-73055367D01*
X90802349Y-73067980D01*
X90780171Y-73078470D01*
X90757071Y-73086735D01*
X90733273Y-73092696D01*
X90709004Y-73096296D01*
X90684500Y-73097500D01*
X86734500Y-73097500D01*
X86709996Y-73096296D01*
X86685727Y-73092696D01*
X86661929Y-73086735D01*
X86638829Y-73078470D01*
X86616651Y-73067980D01*
X86595607Y-73055367D01*
X86575902Y-73040753D01*
X86557723Y-73024277D01*
X86541247Y-73006098D01*
X86526633Y-72986393D01*
X86514020Y-72965349D01*
X86503530Y-72943171D01*
X86495265Y-72920071D01*
X86489304Y-72896273D01*
X86485704Y-72872004D01*
X86484500Y-72847500D01*
X86484500Y-70147500D01*
X86485704Y-70122996D01*
X86489304Y-70098727D01*
X86495265Y-70074929D01*
X86503530Y-70051829D01*
X86514020Y-70029651D01*
X86526633Y-70008607D01*
X86541247Y-69988902D01*
X86557723Y-69970723D01*
X86575902Y-69954247D01*
X86595607Y-69939633D01*
X86616651Y-69927020D01*
X86638829Y-69916530D01*
X86661929Y-69908265D01*
X86685727Y-69902304D01*
X86709996Y-69898704D01*
X86734500Y-69897500D01*
X90684500Y-69897500D01*
X90709004Y-69898704D01*
X90709004Y-69898704D01*
G37*
D27*
X88709500Y-71497500D03*
D14*
G36*
X90709004Y-64698704D02*
G01*
X90733273Y-64702304D01*
X90757071Y-64708265D01*
X90780171Y-64716530D01*
X90802349Y-64727020D01*
X90823393Y-64739633D01*
X90843098Y-64754247D01*
X90861277Y-64770723D01*
X90877753Y-64788902D01*
X90892367Y-64808607D01*
X90904980Y-64829651D01*
X90915470Y-64851829D01*
X90923735Y-64874929D01*
X90929696Y-64898727D01*
X90933296Y-64922996D01*
X90934500Y-64947500D01*
X90934500Y-67647500D01*
X90933296Y-67672004D01*
X90929696Y-67696273D01*
X90923735Y-67720071D01*
X90915470Y-67743171D01*
X90904980Y-67765349D01*
X90892367Y-67786393D01*
X90877753Y-67806098D01*
X90861277Y-67824277D01*
X90843098Y-67840753D01*
X90823393Y-67855367D01*
X90802349Y-67867980D01*
X90780171Y-67878470D01*
X90757071Y-67886735D01*
X90733273Y-67892696D01*
X90709004Y-67896296D01*
X90684500Y-67897500D01*
X86734500Y-67897500D01*
X86709996Y-67896296D01*
X86685727Y-67892696D01*
X86661929Y-67886735D01*
X86638829Y-67878470D01*
X86616651Y-67867980D01*
X86595607Y-67855367D01*
X86575902Y-67840753D01*
X86557723Y-67824277D01*
X86541247Y-67806098D01*
X86526633Y-67786393D01*
X86514020Y-67765349D01*
X86503530Y-67743171D01*
X86495265Y-67720071D01*
X86489304Y-67696273D01*
X86485704Y-67672004D01*
X86484500Y-67647500D01*
X86484500Y-64947500D01*
X86485704Y-64922996D01*
X86489304Y-64898727D01*
X86495265Y-64874929D01*
X86503530Y-64851829D01*
X86514020Y-64829651D01*
X86526633Y-64808607D01*
X86541247Y-64788902D01*
X86557723Y-64770723D01*
X86575902Y-64754247D01*
X86595607Y-64739633D01*
X86616651Y-64727020D01*
X86638829Y-64716530D01*
X86661929Y-64708265D01*
X86685727Y-64702304D01*
X86709996Y-64698704D01*
X86734500Y-64697500D01*
X90684500Y-64697500D01*
X90709004Y-64698704D01*
X90709004Y-64698704D01*
G37*
D27*
X88709500Y-66297500D03*
D28*
X91630500Y-83312000D03*
D14*
G36*
X92704013Y-87815611D02*
G01*
X92776818Y-87826411D01*
X92848214Y-87844295D01*
X92917513Y-87869090D01*
X92984048Y-87900559D01*
X93047178Y-87938398D01*
X93106295Y-87982242D01*
X93160830Y-88031670D01*
X93210258Y-88086205D01*
X93254102Y-88145322D01*
X93291941Y-88208452D01*
X93323410Y-88274987D01*
X93348205Y-88344286D01*
X93366089Y-88415682D01*
X93376889Y-88488487D01*
X93380500Y-88562000D01*
X93380500Y-90062000D01*
X93376889Y-90135513D01*
X93366089Y-90208318D01*
X93348205Y-90279714D01*
X93323410Y-90349013D01*
X93291941Y-90415548D01*
X93254102Y-90478678D01*
X93210258Y-90537795D01*
X93160830Y-90592330D01*
X93106295Y-90641758D01*
X93047178Y-90685602D01*
X92984048Y-90723441D01*
X92917513Y-90754910D01*
X92848214Y-90779705D01*
X92776818Y-90797589D01*
X92704013Y-90808389D01*
X92630500Y-90812000D01*
X90630500Y-90812000D01*
X90556987Y-90808389D01*
X90484182Y-90797589D01*
X90412786Y-90779705D01*
X90343487Y-90754910D01*
X90276952Y-90723441D01*
X90213822Y-90685602D01*
X90154705Y-90641758D01*
X90100170Y-90592330D01*
X90050742Y-90537795D01*
X90006898Y-90478678D01*
X89969059Y-90415548D01*
X89937590Y-90349013D01*
X89912795Y-90279714D01*
X89894911Y-90208318D01*
X89884111Y-90135513D01*
X89880500Y-90062000D01*
X89880500Y-88562000D01*
X89884111Y-88488487D01*
X89894911Y-88415682D01*
X89912795Y-88344286D01*
X89937590Y-88274987D01*
X89969059Y-88208452D01*
X90006898Y-88145322D01*
X90050742Y-88086205D01*
X90100170Y-88031670D01*
X90154705Y-87982242D01*
X90213822Y-87938398D01*
X90276952Y-87900559D01*
X90343487Y-87869090D01*
X90412786Y-87844295D01*
X90484182Y-87826411D01*
X90556987Y-87815611D01*
X90630500Y-87812000D01*
X92630500Y-87812000D01*
X92704013Y-87815611D01*
X92704013Y-87815611D01*
G37*
D29*
X91630500Y-89312000D03*
D30*
X94932500Y-66382500D03*
D31*
X94932500Y-72682500D03*
X97232500Y-72682500D03*
X92632500Y-72682500D03*
D32*
X120904000Y-88773000D03*
X92024200Y-75209400D03*
X93116400Y-75209400D03*
X91998800Y-76276200D03*
X93091000Y-76276200D03*
X125501400Y-72009000D03*
X125501400Y-70891400D03*
X120980200Y-80899000D03*
X123444000Y-70891400D03*
X117919500Y-71374000D03*
X94234000Y-85095801D03*
X89960501Y-74784011D03*
X97383600Y-70002400D03*
X102552498Y-72390000D03*
X102616004Y-74422000D03*
X113601500Y-75057000D03*
X112735000Y-83756500D03*
D33*
X82377000Y-85799500D02*
X82824500Y-86247000D01*
X80524500Y-85799500D02*
X82377000Y-85799500D01*
X83059499Y-90134501D02*
X83184500Y-90134501D01*
X82824500Y-90369500D02*
X83059499Y-90134501D01*
X82824500Y-91172000D02*
X82824500Y-90369500D01*
D34*
X84374500Y-90009500D02*
X84408000Y-90043000D01*
X83184500Y-90009500D02*
X84374500Y-90009500D01*
X84408000Y-90043000D02*
X84772500Y-90043000D01*
D33*
X80972000Y-91172000D02*
X80524500Y-91619500D01*
X82824500Y-91172000D02*
X80972000Y-91172000D01*
D35*
X97318500Y-75755500D02*
X97318500Y-72768500D01*
X97318500Y-72768500D02*
X97232500Y-72682500D01*
X97318500Y-75755500D02*
X97318500Y-80374000D01*
X97318500Y-80374000D02*
X94380500Y-83312000D01*
X94380500Y-83312000D02*
X91630500Y-83312000D01*
X86912200Y-75978000D02*
X87833200Y-75978000D01*
X84996510Y-77893690D02*
X86912200Y-75978000D01*
X83121500Y-80775387D02*
X84996510Y-78900377D01*
X84996510Y-78900377D02*
X84996510Y-77893690D01*
X83121500Y-80675500D02*
X83121500Y-80775387D01*
X91630500Y-78473300D02*
X91630500Y-83312000D01*
X89135200Y-75978000D02*
X91630500Y-78473300D01*
X87833200Y-75978000D02*
X89135200Y-75978000D01*
D36*
X125882400Y-67284600D02*
X127990600Y-67284600D01*
X123444000Y-69723000D02*
X125882400Y-67284600D01*
X123444000Y-70891400D02*
X123444000Y-69723000D01*
D33*
X103278000Y-79121000D02*
X105362000Y-79121000D01*
X97303199Y-85095801D02*
X94234000Y-85095801D01*
X103278000Y-79121000D02*
X97303199Y-85095801D01*
X94932500Y-71857000D02*
X94932500Y-72107000D01*
X94932500Y-71857000D02*
X94932500Y-66382500D01*
X89960501Y-74784001D02*
X89960501Y-74784011D01*
X88709500Y-73533010D02*
X88709500Y-71497500D01*
X89960501Y-74784011D02*
X88709500Y-73533010D01*
X94805500Y-70739000D02*
X94932500Y-70866000D01*
X91630500Y-70739000D02*
X94805500Y-70739000D01*
X94932500Y-70866000D02*
X94932500Y-72682500D01*
X90872000Y-71497500D02*
X91630500Y-70739000D01*
X88709500Y-71497500D02*
X90872000Y-71497500D01*
X110762000Y-72144500D02*
X110753500Y-72136000D01*
X111515500Y-71374000D02*
X117919500Y-71374000D01*
X110753500Y-72136000D02*
X111515500Y-71374000D01*
X110762000Y-75311000D02*
X110762000Y-72144500D01*
X94830900Y-70764400D02*
X94805500Y-70739000D01*
X95961200Y-70764400D02*
X94830900Y-70764400D01*
X96723200Y-70002400D02*
X95961200Y-70764400D01*
X97383600Y-70002400D02*
X96723200Y-70002400D01*
D36*
X87833200Y-81528000D02*
X87833200Y-79978000D01*
X87833200Y-86563200D02*
X87833200Y-81528000D01*
X86986900Y-87409500D02*
X87833200Y-86563200D01*
X83184500Y-87409500D02*
X86986900Y-87409500D01*
X103504998Y-71437500D02*
X102552498Y-72390000D01*
X104118300Y-71437500D02*
X103504998Y-71437500D01*
X103632004Y-73406000D02*
X102616004Y-74422000D01*
X104118300Y-73406000D02*
X103632004Y-73406000D01*
X117094000Y-79311500D02*
X116649500Y-78867000D01*
X117094000Y-83185000D02*
X117094000Y-79311500D01*
X116713000Y-83566000D02*
X117094000Y-83185000D01*
X116649500Y-78867000D02*
X115769500Y-78867000D01*
X114173000Y-83566000D02*
X116713000Y-83566000D01*
X113794500Y-83187500D02*
X114173000Y-83566000D01*
X113794500Y-82566000D02*
X113794500Y-83187500D01*
X113719500Y-77148000D02*
X113794500Y-77073000D01*
X113719500Y-78867000D02*
X113719500Y-77148000D01*
X112966500Y-78867000D02*
X113719500Y-78867000D01*
X111950500Y-77851000D02*
X112966500Y-78867000D01*
X110762000Y-77851000D02*
X111950500Y-77851000D01*
X113157000Y-80772000D02*
X113719500Y-80772000D01*
X111506000Y-79121000D02*
X113157000Y-80772000D01*
X110762000Y-79121000D02*
X111506000Y-79121000D01*
X115600057Y-82566000D02*
X115694500Y-82566000D01*
X113806057Y-80772000D02*
X115600057Y-82566000D01*
X113719500Y-80772000D02*
X113806057Y-80772000D01*
X115125500Y-80772000D02*
X115769500Y-80772000D01*
X114794490Y-80440990D02*
X115125500Y-80772000D01*
X114794490Y-77483510D02*
X114794490Y-80440990D01*
X115205000Y-77073000D02*
X114794490Y-77483510D01*
X115694500Y-77073000D02*
X115205000Y-77073000D01*
X114728500Y-75057000D02*
X113601500Y-75057000D01*
X114744500Y-75073000D02*
X114728500Y-75057000D01*
X118251000Y-75073000D02*
X118826200Y-74497800D01*
X114744500Y-75073000D02*
X118251000Y-75073000D01*
X118826200Y-75647800D02*
X118826200Y-80797800D01*
X118826200Y-74497800D02*
X118826200Y-75647800D01*
X113544500Y-84566000D02*
X114744500Y-84566000D01*
X112735000Y-83756500D02*
X113544500Y-84566000D01*
X118658200Y-84566000D02*
X118775400Y-84683200D01*
X114744500Y-84566000D02*
X118658200Y-84566000D01*
X118775400Y-84683200D02*
X118775400Y-90983200D01*
X87577254Y-88709500D02*
X83184500Y-88709500D01*
X89418754Y-86868000D02*
X87577254Y-88709500D01*
X98499068Y-86868000D02*
X89418754Y-86868000D01*
X103036069Y-82330999D02*
X98499068Y-86868000D01*
X106282003Y-82330999D02*
X103036069Y-82330999D01*
X106553000Y-82060002D02*
X106282003Y-82330999D01*
X106553000Y-80645000D02*
X106553000Y-82060002D01*
X106299000Y-80391000D02*
X106553000Y-80645000D01*
X105362000Y-80391000D02*
X106299000Y-80391000D01*
X87308002Y-88059500D02*
X83184500Y-88059500D01*
X89198002Y-86169500D02*
X87308002Y-88059500D01*
X98016431Y-86169500D02*
X89198002Y-86169500D01*
X102524931Y-81661000D02*
X98016431Y-86169500D01*
X105362000Y-81661000D02*
X102524931Y-81661000D01*
X109661300Y-86980700D02*
X109423800Y-87218200D01*
X112293400Y-86980700D02*
X109661300Y-86980700D01*
X112293400Y-86106000D02*
X112293400Y-86980700D01*
X109829600Y-85572600D02*
X111760000Y-85572600D01*
X107188000Y-82931000D02*
X109829600Y-85572600D01*
X111760000Y-85572600D02*
X112293400Y-86106000D01*
X105362000Y-82931000D02*
X107188000Y-82931000D01*
X103479600Y-84836000D02*
X103479600Y-86980700D01*
X104114600Y-84201000D02*
X103479600Y-84836000D01*
X105362000Y-84201000D02*
X104114600Y-84201000D01*
X105364600Y-89718200D02*
X106323800Y-89718200D01*
X103479600Y-87833200D02*
X105364600Y-89718200D01*
X103479600Y-86980700D02*
X103479600Y-87833200D01*
X107569000Y-71882000D02*
X107111800Y-71424800D01*
X107111800Y-71424800D02*
X106181000Y-71424800D01*
X107569000Y-77368400D02*
X107569000Y-71882000D01*
X106181000Y-71424800D02*
X106168300Y-71437500D01*
X107086400Y-77851000D02*
X107569000Y-77368400D01*
X105362000Y-77851000D02*
X107086400Y-77851000D01*
X106883200Y-73406000D02*
X106168300Y-73406000D01*
X107061000Y-73583800D02*
X106883200Y-73406000D01*
X107061000Y-76327000D02*
X107061000Y-73583800D01*
X106807000Y-76581000D02*
X107061000Y-76327000D01*
X105362000Y-76581000D02*
X106807000Y-76581000D01*
D37*
G36*
X85858688Y-64573018D02*
G01*
X85846428Y-64697500D01*
X85849500Y-66011750D01*
X86008250Y-66170500D01*
X88582500Y-66170500D01*
X88582500Y-66150500D01*
X88836500Y-66150500D01*
X88836500Y-66170500D01*
X91410750Y-66170500D01*
X91569500Y-66011750D01*
X91572572Y-64697500D01*
X91560312Y-64573018D01*
X91527242Y-64464000D01*
X98679000Y-64464000D01*
X98679000Y-69850000D01*
X98681440Y-69874776D01*
X98688667Y-69898601D01*
X98700403Y-69920557D01*
X98716197Y-69939803D01*
X98735443Y-69955597D01*
X98757399Y-69967333D01*
X98781224Y-69974560D01*
X98806000Y-69977000D01*
X117348000Y-69977000D01*
X117372776Y-69974560D01*
X117396601Y-69967333D01*
X117418557Y-69955597D01*
X117437803Y-69939803D01*
X117453597Y-69920557D01*
X117465333Y-69898601D01*
X117472560Y-69874776D01*
X117475000Y-69850000D01*
X117475000Y-64464000D01*
X133290000Y-64464000D01*
X133290001Y-92789639D01*
X82112424Y-92763600D01*
X82111684Y-92546217D01*
X82538750Y-92544500D01*
X82697500Y-92385750D01*
X82697500Y-91299000D01*
X82951500Y-91299000D01*
X82951500Y-92385750D01*
X83110250Y-92544500D01*
X83874500Y-92547572D01*
X83998982Y-92535312D01*
X84118680Y-92499002D01*
X84228994Y-92440037D01*
X84325685Y-92360685D01*
X84405037Y-92263994D01*
X84464002Y-92153680D01*
X84500312Y-92033982D01*
X84512572Y-91909500D01*
X84509500Y-91457750D01*
X84350750Y-91299000D01*
X82951500Y-91299000D01*
X82697500Y-91299000D01*
X82677500Y-91299000D01*
X82677500Y-91045000D01*
X82697500Y-91045000D01*
X82697500Y-91025000D01*
X82951500Y-91025000D01*
X82951500Y-91045000D01*
X84350750Y-91045000D01*
X84509500Y-90886250D01*
X84510004Y-90812000D01*
X89242428Y-90812000D01*
X89254688Y-90936482D01*
X89290998Y-91056180D01*
X89349963Y-91166494D01*
X89429315Y-91263185D01*
X89526006Y-91342537D01*
X89636320Y-91401502D01*
X89756018Y-91437812D01*
X89880500Y-91450072D01*
X91344750Y-91447000D01*
X91503500Y-91288250D01*
X91503500Y-89439000D01*
X91757500Y-89439000D01*
X91757500Y-91288250D01*
X91916250Y-91447000D01*
X93380500Y-91450072D01*
X93504982Y-91437812D01*
X93624680Y-91401502D01*
X93734994Y-91342537D01*
X93831685Y-91263185D01*
X93911037Y-91166494D01*
X93970002Y-91056180D01*
X94006312Y-90936482D01*
X94018572Y-90812000D01*
X94018209Y-90668200D01*
X101966528Y-90668200D01*
X101978788Y-90792682D01*
X102015098Y-90912380D01*
X102074063Y-91022694D01*
X102153415Y-91119385D01*
X102250106Y-91198737D01*
X102360420Y-91257702D01*
X102480118Y-91294012D01*
X102604600Y-91306272D01*
X103193850Y-91303200D01*
X103352600Y-91144450D01*
X103352600Y-90082700D01*
X102128350Y-90082700D01*
X101969600Y-90241450D01*
X101966528Y-90668200D01*
X94018209Y-90668200D01*
X94015500Y-89597750D01*
X93856750Y-89439000D01*
X91757500Y-89439000D01*
X91503500Y-89439000D01*
X89404250Y-89439000D01*
X89245500Y-89597750D01*
X89242428Y-90812000D01*
X84510004Y-90812000D01*
X84512572Y-90434500D01*
X84502395Y-90331166D01*
X84509500Y-90266250D01*
X84477253Y-90234003D01*
X84464002Y-90190320D01*
X84405037Y-90080006D01*
X84347174Y-90009500D01*
X84405037Y-89938994D01*
X84464002Y-89828680D01*
X84477253Y-89784997D01*
X84509500Y-89752750D01*
X84502395Y-89687834D01*
X84512572Y-89584500D01*
X84512572Y-89494500D01*
X87538701Y-89494500D01*
X87577254Y-89498297D01*
X87615807Y-89494500D01*
X87615815Y-89494500D01*
X87731141Y-89483141D01*
X87879114Y-89438254D01*
X88015487Y-89365362D01*
X88135018Y-89267264D01*
X88159601Y-89237310D01*
X89243292Y-88153619D01*
X89245500Y-89026250D01*
X89404250Y-89185000D01*
X91503500Y-89185000D01*
X91503500Y-89165000D01*
X91757500Y-89165000D01*
X91757500Y-89185000D01*
X93856750Y-89185000D01*
X94015500Y-89026250D01*
X94018572Y-87812000D01*
X94006312Y-87687518D01*
X93995841Y-87653000D01*
X98460515Y-87653000D01*
X98499068Y-87656797D01*
X98537621Y-87653000D01*
X98537629Y-87653000D01*
X98652955Y-87641641D01*
X98800928Y-87596754D01*
X98937301Y-87523862D01*
X99056832Y-87425764D01*
X99081415Y-87395810D01*
X103361227Y-83115999D01*
X103973928Y-83115999D01*
X103973928Y-83231000D01*
X103986188Y-83355482D01*
X104006620Y-83422837D01*
X103960713Y-83427358D01*
X103829424Y-83467185D01*
X103812740Y-83472246D01*
X103676367Y-83545138D01*
X103556836Y-83643236D01*
X103532253Y-83673190D01*
X102951790Y-84253653D01*
X102921836Y-84278236D01*
X102823738Y-84397768D01*
X102750846Y-84534141D01*
X102705959Y-84682114D01*
X102694600Y-84797440D01*
X102694600Y-84797447D01*
X102690803Y-84836000D01*
X102694600Y-84874553D01*
X102694600Y-85645887D01*
X102681346Y-85647192D01*
X102514750Y-85697728D01*
X102361214Y-85779795D01*
X102226638Y-85890238D01*
X102116195Y-86024814D01*
X102034128Y-86178350D01*
X101983592Y-86344946D01*
X101966528Y-86518200D01*
X101966528Y-87443200D01*
X101983592Y-87616454D01*
X102034128Y-87783050D01*
X102116195Y-87936586D01*
X102226638Y-88071162D01*
X102361214Y-88181605D01*
X102514750Y-88263672D01*
X102681346Y-88314208D01*
X102854600Y-88331272D01*
X102872848Y-88331272D01*
X102897255Y-88361012D01*
X102897259Y-88361016D01*
X102921837Y-88390964D01*
X102951785Y-88415542D01*
X103144184Y-88607941D01*
X102604600Y-88605128D01*
X102480118Y-88617388D01*
X102360420Y-88653698D01*
X102250106Y-88712663D01*
X102153415Y-88792015D01*
X102074063Y-88888706D01*
X102015098Y-88999020D01*
X101978788Y-89118718D01*
X101966528Y-89243200D01*
X101969600Y-89669950D01*
X102128350Y-89828700D01*
X103352600Y-89828700D01*
X103352600Y-89808700D01*
X103606600Y-89808700D01*
X103606600Y-89828700D01*
X103626600Y-89828700D01*
X103626600Y-90082700D01*
X103606600Y-90082700D01*
X103606600Y-91144450D01*
X103765350Y-91303200D01*
X104354600Y-91306272D01*
X104479082Y-91294012D01*
X104598780Y-91257702D01*
X104709094Y-91198737D01*
X104805785Y-91119385D01*
X104837078Y-91081254D01*
X104919306Y-91148737D01*
X105029620Y-91207702D01*
X105149318Y-91244012D01*
X105273800Y-91256272D01*
X107373800Y-91256272D01*
X107498282Y-91244012D01*
X107617980Y-91207702D01*
X107728294Y-91148737D01*
X107824985Y-91069385D01*
X107873800Y-91009904D01*
X107922615Y-91069385D01*
X108019306Y-91148737D01*
X108129620Y-91207702D01*
X108249318Y-91244012D01*
X108373800Y-91256272D01*
X110473800Y-91256272D01*
X110598282Y-91244012D01*
X110717980Y-91207702D01*
X110828294Y-91148737D01*
X110924985Y-91069385D01*
X110925583Y-91068656D01*
X110967215Y-91119385D01*
X111063906Y-91198737D01*
X111174220Y-91257702D01*
X111293918Y-91294012D01*
X111418400Y-91306272D01*
X112007650Y-91303200D01*
X112166400Y-91144450D01*
X112166400Y-90082700D01*
X112420400Y-90082700D01*
X112420400Y-91144450D01*
X112579150Y-91303200D01*
X113168400Y-91306272D01*
X113292882Y-91294012D01*
X113412580Y-91257702D01*
X113522894Y-91198737D01*
X113619585Y-91119385D01*
X113698937Y-91022694D01*
X113757902Y-90912380D01*
X113794212Y-90792682D01*
X113806472Y-90668200D01*
X113803400Y-90241450D01*
X113644650Y-90082700D01*
X112420400Y-90082700D01*
X112166400Y-90082700D01*
X112146400Y-90082700D01*
X112146400Y-89828700D01*
X112166400Y-89828700D01*
X112166400Y-88766950D01*
X112420400Y-88766950D01*
X112420400Y-89828700D01*
X113644650Y-89828700D01*
X113803400Y-89669950D01*
X113806472Y-89243200D01*
X113794212Y-89118718D01*
X113757902Y-88999020D01*
X113698937Y-88888706D01*
X113619585Y-88792015D01*
X113522894Y-88712663D01*
X113412580Y-88653698D01*
X113292882Y-88617388D01*
X113168400Y-88605128D01*
X112579150Y-88608200D01*
X112420400Y-88766950D01*
X112166400Y-88766950D01*
X112007650Y-88608200D01*
X111418400Y-88605128D01*
X111293918Y-88617388D01*
X111174220Y-88653698D01*
X111099575Y-88693597D01*
X111063302Y-88574020D01*
X111006739Y-88468200D01*
X111063302Y-88362380D01*
X111099612Y-88242682D01*
X111110816Y-88128920D01*
X111175014Y-88181605D01*
X111328550Y-88263672D01*
X111495146Y-88314208D01*
X111668400Y-88331272D01*
X112918400Y-88331272D01*
X113091654Y-88314208D01*
X113258250Y-88263672D01*
X113411786Y-88181605D01*
X113546362Y-88071162D01*
X113656805Y-87936586D01*
X113738872Y-87783050D01*
X113789408Y-87616454D01*
X113806472Y-87443200D01*
X113806472Y-86518200D01*
X113789408Y-86344946D01*
X113738872Y-86178350D01*
X113656805Y-86024814D01*
X113546362Y-85890238D01*
X113411786Y-85779795D01*
X113258250Y-85697728D01*
X113091654Y-85647192D01*
X112918400Y-85630128D01*
X112918372Y-85630128D01*
X112851164Y-85548236D01*
X112821211Y-85523654D01*
X112342345Y-85044788D01*
X112317764Y-85014836D01*
X112198233Y-84916738D01*
X112061860Y-84843846D01*
X112050590Y-84840427D01*
X112101502Y-84745180D01*
X112137812Y-84625482D01*
X112139958Y-84603690D01*
X112244744Y-84673705D01*
X112433102Y-84751726D01*
X112633061Y-84791500D01*
X112659843Y-84791500D01*
X112962153Y-85093810D01*
X112986736Y-85123764D01*
X113106267Y-85221862D01*
X113204246Y-85274232D01*
X113242640Y-85294754D01*
X113390613Y-85339642D01*
X113465526Y-85347020D01*
X113505939Y-85351000D01*
X113505944Y-85351000D01*
X113544500Y-85354797D01*
X113583056Y-85351000D01*
X113803543Y-85351000D01*
X113813963Y-85370494D01*
X113893315Y-85467185D01*
X113990006Y-85546537D01*
X114100320Y-85605502D01*
X114220018Y-85641812D01*
X114344500Y-85654072D01*
X115144500Y-85654072D01*
X115268982Y-85641812D01*
X115388680Y-85605502D01*
X115498994Y-85546537D01*
X115595685Y-85467185D01*
X115675037Y-85370494D01*
X115685457Y-85351000D01*
X117637328Y-85351000D01*
X117637328Y-85533200D01*
X117649588Y-85657682D01*
X117685898Y-85777380D01*
X117744863Y-85887694D01*
X117824215Y-85984385D01*
X117920906Y-86063737D01*
X117990400Y-86100883D01*
X117990401Y-89565517D01*
X117920906Y-89602663D01*
X117824215Y-89682015D01*
X117744863Y-89778706D01*
X117685898Y-89889020D01*
X117649588Y-90008718D01*
X117637328Y-90133200D01*
X117637328Y-91833200D01*
X117649588Y-91957682D01*
X117685898Y-92077380D01*
X117744863Y-92187694D01*
X117824215Y-92284385D01*
X117920906Y-92363737D01*
X118031220Y-92422702D01*
X118150918Y-92459012D01*
X118275400Y-92471272D01*
X119275400Y-92471272D01*
X119399882Y-92459012D01*
X119519580Y-92422702D01*
X119629894Y-92363737D01*
X119726585Y-92284385D01*
X119805937Y-92187694D01*
X119864902Y-92077380D01*
X119901212Y-91957682D01*
X119913472Y-91833200D01*
X121437328Y-91833200D01*
X121449588Y-91957682D01*
X121485898Y-92077380D01*
X121544863Y-92187694D01*
X121624215Y-92284385D01*
X121720906Y-92363737D01*
X121831220Y-92422702D01*
X121950918Y-92459012D01*
X122075400Y-92471272D01*
X122289650Y-92468200D01*
X122448400Y-92309450D01*
X122448400Y-91110200D01*
X122702400Y-91110200D01*
X122702400Y-92309450D01*
X122861150Y-92468200D01*
X123075400Y-92471272D01*
X123199882Y-92459012D01*
X123319580Y-92422702D01*
X123429894Y-92363737D01*
X123526585Y-92284385D01*
X123605937Y-92187694D01*
X123664902Y-92077380D01*
X123701212Y-91957682D01*
X123713472Y-91833200D01*
X123710400Y-91268950D01*
X123551650Y-91110200D01*
X122702400Y-91110200D01*
X122448400Y-91110200D01*
X121599150Y-91110200D01*
X121440400Y-91268950D01*
X121437328Y-91833200D01*
X119913472Y-91833200D01*
X119913472Y-91016800D01*
X126302528Y-91016800D01*
X126314788Y-91141282D01*
X126351098Y-91260980D01*
X126410063Y-91371294D01*
X126489415Y-91467985D01*
X126586106Y-91547337D01*
X126696420Y-91606302D01*
X126816118Y-91642612D01*
X126940600Y-91654872D01*
X127704850Y-91651800D01*
X127863600Y-91493050D01*
X127863600Y-90093800D01*
X128117600Y-90093800D01*
X128117600Y-91493050D01*
X128276350Y-91651800D01*
X129040600Y-91654872D01*
X129165082Y-91642612D01*
X129284780Y-91606302D01*
X129395094Y-91547337D01*
X129491785Y-91467985D01*
X129571137Y-91371294D01*
X129630102Y-91260980D01*
X129666412Y-91141282D01*
X129678672Y-91016800D01*
X129675600Y-90252550D01*
X129516850Y-90093800D01*
X128117600Y-90093800D01*
X127863600Y-90093800D01*
X126464350Y-90093800D01*
X126305600Y-90252550D01*
X126302528Y-91016800D01*
X119913472Y-91016800D01*
X119913472Y-90133200D01*
X121437328Y-90133200D01*
X121440400Y-90697450D01*
X121599150Y-90856200D01*
X122448400Y-90856200D01*
X122448400Y-89656950D01*
X122702400Y-89656950D01*
X122702400Y-90856200D01*
X123551650Y-90856200D01*
X123710400Y-90697450D01*
X123713472Y-90133200D01*
X123701212Y-90008718D01*
X123664902Y-89889020D01*
X123605937Y-89778706D01*
X123526585Y-89682015D01*
X123429894Y-89602663D01*
X123319580Y-89543698D01*
X123199882Y-89507388D01*
X123075400Y-89495128D01*
X122861150Y-89498200D01*
X122702400Y-89656950D01*
X122448400Y-89656950D01*
X122289650Y-89498200D01*
X122075400Y-89495128D01*
X121950918Y-89507388D01*
X121831220Y-89543698D01*
X121720906Y-89602663D01*
X121624215Y-89682015D01*
X121544863Y-89778706D01*
X121485898Y-89889020D01*
X121449588Y-90008718D01*
X121437328Y-90133200D01*
X119913472Y-90133200D01*
X119901212Y-90008718D01*
X119864902Y-89889020D01*
X119805937Y-89778706D01*
X119726585Y-89682015D01*
X119629894Y-89602663D01*
X119560400Y-89565517D01*
X119560400Y-88916800D01*
X126302528Y-88916800D01*
X126305600Y-89681050D01*
X126464350Y-89839800D01*
X127863600Y-89839800D01*
X127863600Y-89819800D01*
X128117600Y-89819800D01*
X128117600Y-89839800D01*
X129516850Y-89839800D01*
X129675600Y-89681050D01*
X129678672Y-88916800D01*
X129666412Y-88792318D01*
X129630102Y-88672620D01*
X129571137Y-88562306D01*
X129491785Y-88465615D01*
X129395094Y-88386263D01*
X129381054Y-88378758D01*
X129483828Y-88224947D01*
X129610846Y-87918296D01*
X129675600Y-87592758D01*
X129675600Y-87260842D01*
X129610846Y-86935304D01*
X129483828Y-86628653D01*
X129299425Y-86352675D01*
X129064725Y-86117975D01*
X128788747Y-85933572D01*
X128482096Y-85806554D01*
X128156558Y-85741800D01*
X127824642Y-85741800D01*
X127499104Y-85806554D01*
X127192453Y-85933572D01*
X126916475Y-86117975D01*
X126681775Y-86352675D01*
X126497372Y-86628653D01*
X126370354Y-86935304D01*
X126305600Y-87260842D01*
X126305600Y-87592758D01*
X126370354Y-87918296D01*
X126497372Y-88224947D01*
X126600146Y-88378758D01*
X126586106Y-88386263D01*
X126489415Y-88465615D01*
X126410063Y-88562306D01*
X126351098Y-88672620D01*
X126314788Y-88792318D01*
X126302528Y-88916800D01*
X119560400Y-88916800D01*
X119560400Y-86100883D01*
X119629894Y-86063737D01*
X119726585Y-85984385D01*
X119805937Y-85887694D01*
X119864902Y-85777380D01*
X119901212Y-85657682D01*
X119913472Y-85533200D01*
X121437328Y-85533200D01*
X121449588Y-85657682D01*
X121485898Y-85777380D01*
X121544863Y-85887694D01*
X121624215Y-85984385D01*
X121720906Y-86063737D01*
X121831220Y-86122702D01*
X121950918Y-86159012D01*
X122075400Y-86171272D01*
X122289650Y-86168200D01*
X122448400Y-86009450D01*
X122448400Y-84810200D01*
X122702400Y-84810200D01*
X122702400Y-86009450D01*
X122861150Y-86168200D01*
X123075400Y-86171272D01*
X123199882Y-86159012D01*
X123319580Y-86122702D01*
X123429894Y-86063737D01*
X123526585Y-85984385D01*
X123605937Y-85887694D01*
X123664902Y-85777380D01*
X123701212Y-85657682D01*
X123713472Y-85533200D01*
X123710400Y-84968950D01*
X123551650Y-84810200D01*
X122702400Y-84810200D01*
X122448400Y-84810200D01*
X121599150Y-84810200D01*
X121440400Y-84968950D01*
X121437328Y-85533200D01*
X119913472Y-85533200D01*
X119913472Y-83833200D01*
X121437328Y-83833200D01*
X121440400Y-84397450D01*
X121599150Y-84556200D01*
X122448400Y-84556200D01*
X122448400Y-83356950D01*
X122702400Y-83356950D01*
X122702400Y-84556200D01*
X123551650Y-84556200D01*
X123710400Y-84397450D01*
X123710915Y-84302732D01*
X126302528Y-84302732D01*
X126314788Y-84427214D01*
X126351098Y-84546912D01*
X126410063Y-84657226D01*
X126489415Y-84753917D01*
X126586106Y-84833269D01*
X126696420Y-84892234D01*
X126816118Y-84928544D01*
X126940600Y-84940804D01*
X127704850Y-84937732D01*
X127863600Y-84778982D01*
X127863600Y-83379732D01*
X128117600Y-83379732D01*
X128117600Y-84778982D01*
X128276350Y-84937732D01*
X129040600Y-84940804D01*
X129165082Y-84928544D01*
X129284780Y-84892234D01*
X129395094Y-84833269D01*
X129491785Y-84753917D01*
X129571137Y-84657226D01*
X129630102Y-84546912D01*
X129666412Y-84427214D01*
X129678672Y-84302732D01*
X129675600Y-83538482D01*
X129516850Y-83379732D01*
X128117600Y-83379732D01*
X127863600Y-83379732D01*
X126464350Y-83379732D01*
X126305600Y-83538482D01*
X126302528Y-84302732D01*
X123710915Y-84302732D01*
X123713472Y-83833200D01*
X123701212Y-83708718D01*
X123664902Y-83589020D01*
X123605937Y-83478706D01*
X123526585Y-83382015D01*
X123429894Y-83302663D01*
X123319580Y-83243698D01*
X123199882Y-83207388D01*
X123075400Y-83195128D01*
X122861150Y-83198200D01*
X122702400Y-83356950D01*
X122448400Y-83356950D01*
X122289650Y-83198200D01*
X122075400Y-83195128D01*
X121950918Y-83207388D01*
X121831220Y-83243698D01*
X121720906Y-83302663D01*
X121624215Y-83382015D01*
X121544863Y-83478706D01*
X121485898Y-83589020D01*
X121449588Y-83708718D01*
X121437328Y-83833200D01*
X119913472Y-83833200D01*
X119901212Y-83708718D01*
X119864902Y-83589020D01*
X119805937Y-83478706D01*
X119726585Y-83382015D01*
X119629894Y-83302663D01*
X119519580Y-83243698D01*
X119399882Y-83207388D01*
X119275400Y-83195128D01*
X118275400Y-83195128D01*
X118150918Y-83207388D01*
X118031220Y-83243698D01*
X117920906Y-83302663D01*
X117864616Y-83348859D01*
X117866883Y-83341386D01*
X117867641Y-83338888D01*
X117875003Y-83264140D01*
X117879000Y-83223561D01*
X117879000Y-83223554D01*
X117882797Y-83185001D01*
X117879000Y-83146448D01*
X117879000Y-82102255D01*
X117971706Y-82178337D01*
X118082020Y-82237302D01*
X118201718Y-82273612D01*
X118326200Y-82285872D01*
X119326200Y-82285872D01*
X119450682Y-82273612D01*
X119570380Y-82237302D01*
X119680694Y-82178337D01*
X119777385Y-82098985D01*
X119856737Y-82002294D01*
X119915702Y-81891980D01*
X119952012Y-81772282D01*
X119964272Y-81647800D01*
X121488128Y-81647800D01*
X121500388Y-81772282D01*
X121536698Y-81891980D01*
X121595663Y-82002294D01*
X121675015Y-82098985D01*
X121771706Y-82178337D01*
X121882020Y-82237302D01*
X122001718Y-82273612D01*
X122126200Y-82285872D01*
X122340450Y-82282800D01*
X122499200Y-82124050D01*
X122499200Y-80924800D01*
X122753200Y-80924800D01*
X122753200Y-82124050D01*
X122911950Y-82282800D01*
X123126200Y-82285872D01*
X123250682Y-82273612D01*
X123370380Y-82237302D01*
X123435054Y-82202732D01*
X126302528Y-82202732D01*
X126305600Y-82966982D01*
X126464350Y-83125732D01*
X127863600Y-83125732D01*
X127863600Y-83105732D01*
X128117600Y-83105732D01*
X128117600Y-83125732D01*
X129516850Y-83125732D01*
X129675600Y-82966982D01*
X129678672Y-82202732D01*
X129666412Y-82078250D01*
X129630102Y-81958552D01*
X129571137Y-81848238D01*
X129491785Y-81751547D01*
X129395094Y-81672195D01*
X129381054Y-81664690D01*
X129483828Y-81510879D01*
X129610846Y-81204228D01*
X129675600Y-80878690D01*
X129675600Y-80546774D01*
X129610846Y-80221236D01*
X129483828Y-79914585D01*
X129299425Y-79638607D01*
X129064725Y-79403907D01*
X128788747Y-79219504D01*
X128482096Y-79092486D01*
X128156558Y-79027732D01*
X127824642Y-79027732D01*
X127499104Y-79092486D01*
X127192453Y-79219504D01*
X126916475Y-79403907D01*
X126681775Y-79638607D01*
X126497372Y-79914585D01*
X126370354Y-80221236D01*
X126305600Y-80546774D01*
X126305600Y-80878690D01*
X126370354Y-81204228D01*
X126497372Y-81510879D01*
X126600146Y-81664690D01*
X126586106Y-81672195D01*
X126489415Y-81751547D01*
X126410063Y-81848238D01*
X126351098Y-81958552D01*
X126314788Y-82078250D01*
X126302528Y-82202732D01*
X123435054Y-82202732D01*
X123480694Y-82178337D01*
X123577385Y-82098985D01*
X123656737Y-82002294D01*
X123715702Y-81891980D01*
X123752012Y-81772282D01*
X123764272Y-81647800D01*
X123761200Y-81083550D01*
X123602450Y-80924800D01*
X122753200Y-80924800D01*
X122499200Y-80924800D01*
X121649950Y-80924800D01*
X121491200Y-81083550D01*
X121488128Y-81647800D01*
X119964272Y-81647800D01*
X119964272Y-79947800D01*
X121488128Y-79947800D01*
X121491200Y-80512050D01*
X121649950Y-80670800D01*
X122499200Y-80670800D01*
X122499200Y-79471550D01*
X122753200Y-79471550D01*
X122753200Y-80670800D01*
X123602450Y-80670800D01*
X123761200Y-80512050D01*
X123764272Y-79947800D01*
X123752012Y-79823318D01*
X123715702Y-79703620D01*
X123656737Y-79593306D01*
X123577385Y-79496615D01*
X123480694Y-79417263D01*
X123370380Y-79358298D01*
X123250682Y-79321988D01*
X123126200Y-79309728D01*
X122911950Y-79312800D01*
X122753200Y-79471550D01*
X122499200Y-79471550D01*
X122340450Y-79312800D01*
X122126200Y-79309728D01*
X122001718Y-79321988D01*
X121882020Y-79358298D01*
X121771706Y-79417263D01*
X121675015Y-79496615D01*
X121595663Y-79593306D01*
X121536698Y-79703620D01*
X121500388Y-79823318D01*
X121488128Y-79947800D01*
X119964272Y-79947800D01*
X119952012Y-79823318D01*
X119915702Y-79703620D01*
X119856737Y-79593306D01*
X119777385Y-79496615D01*
X119680694Y-79417263D01*
X119611200Y-79380117D01*
X119611200Y-75915483D01*
X119680694Y-75878337D01*
X119777385Y-75798985D01*
X119856737Y-75702294D01*
X119915702Y-75591980D01*
X119952012Y-75472282D01*
X119964272Y-75347800D01*
X121488128Y-75347800D01*
X121500388Y-75472282D01*
X121536698Y-75591980D01*
X121595663Y-75702294D01*
X121675015Y-75798985D01*
X121771706Y-75878337D01*
X121882020Y-75937302D01*
X122001718Y-75973612D01*
X122126200Y-75985872D01*
X122340450Y-75982800D01*
X122499200Y-75824050D01*
X122499200Y-74624800D01*
X122753200Y-74624800D01*
X122753200Y-75824050D01*
X122911950Y-75982800D01*
X123126200Y-75985872D01*
X123250682Y-75973612D01*
X123370380Y-75937302D01*
X123480694Y-75878337D01*
X123577385Y-75798985D01*
X123656737Y-75702294D01*
X123715702Y-75591980D01*
X123747041Y-75488666D01*
X126302528Y-75488666D01*
X126302528Y-77588666D01*
X126314788Y-77713148D01*
X126351098Y-77832846D01*
X126410063Y-77943160D01*
X126489415Y-78039851D01*
X126586106Y-78119203D01*
X126696420Y-78178168D01*
X126816118Y-78214478D01*
X126940600Y-78226738D01*
X129040600Y-78226738D01*
X129165082Y-78214478D01*
X129284780Y-78178168D01*
X129395094Y-78119203D01*
X129491785Y-78039851D01*
X129571137Y-77943160D01*
X129630102Y-77832846D01*
X129666412Y-77713148D01*
X129678672Y-77588666D01*
X129678672Y-75488666D01*
X129666412Y-75364184D01*
X129630102Y-75244486D01*
X129571137Y-75134172D01*
X129491785Y-75037481D01*
X129395094Y-74958129D01*
X129381054Y-74950624D01*
X129483828Y-74796813D01*
X129610846Y-74490162D01*
X129675600Y-74164624D01*
X129675600Y-73832708D01*
X129610846Y-73507170D01*
X129483828Y-73200519D01*
X129299425Y-72924541D01*
X129064725Y-72689841D01*
X128788747Y-72505438D01*
X128482096Y-72378420D01*
X128156558Y-72313666D01*
X127824642Y-72313666D01*
X127499104Y-72378420D01*
X127192453Y-72505438D01*
X126916475Y-72689841D01*
X126681775Y-72924541D01*
X126497372Y-73200519D01*
X126370354Y-73507170D01*
X126305600Y-73832708D01*
X126305600Y-74164624D01*
X126370354Y-74490162D01*
X126497372Y-74796813D01*
X126600146Y-74950624D01*
X126586106Y-74958129D01*
X126489415Y-75037481D01*
X126410063Y-75134172D01*
X126351098Y-75244486D01*
X126314788Y-75364184D01*
X126302528Y-75488666D01*
X123747041Y-75488666D01*
X123752012Y-75472282D01*
X123764272Y-75347800D01*
X123761200Y-74783550D01*
X123602450Y-74624800D01*
X122753200Y-74624800D01*
X122499200Y-74624800D01*
X121649950Y-74624800D01*
X121491200Y-74783550D01*
X121488128Y-75347800D01*
X119964272Y-75347800D01*
X119964272Y-73647800D01*
X121488128Y-73647800D01*
X121491200Y-74212050D01*
X121649950Y-74370800D01*
X122499200Y-74370800D01*
X122499200Y-73171550D01*
X122753200Y-73171550D01*
X122753200Y-74370800D01*
X123602450Y-74370800D01*
X123761200Y-74212050D01*
X123764272Y-73647800D01*
X123752012Y-73523318D01*
X123715702Y-73403620D01*
X123656737Y-73293306D01*
X123577385Y-73196615D01*
X123480694Y-73117263D01*
X123370380Y-73058298D01*
X123250682Y-73021988D01*
X123126200Y-73009728D01*
X122911950Y-73012800D01*
X122753200Y-73171550D01*
X122499200Y-73171550D01*
X122340450Y-73012800D01*
X122126200Y-73009728D01*
X122001718Y-73021988D01*
X121882020Y-73058298D01*
X121771706Y-73117263D01*
X121675015Y-73196615D01*
X121595663Y-73293306D01*
X121536698Y-73403620D01*
X121500388Y-73523318D01*
X121488128Y-73647800D01*
X119964272Y-73647800D01*
X119952012Y-73523318D01*
X119915702Y-73403620D01*
X119856737Y-73293306D01*
X119777385Y-73196615D01*
X119680694Y-73117263D01*
X119570380Y-73058298D01*
X119450682Y-73021988D01*
X119326200Y-73009728D01*
X118326200Y-73009728D01*
X118201718Y-73021988D01*
X118082020Y-73058298D01*
X117971706Y-73117263D01*
X117875015Y-73196615D01*
X117795663Y-73293306D01*
X117736698Y-73403620D01*
X117700388Y-73523318D01*
X117688128Y-73647800D01*
X117688128Y-74288000D01*
X115685457Y-74288000D01*
X115675037Y-74268506D01*
X115595685Y-74171815D01*
X115498994Y-74092463D01*
X115388680Y-74033498D01*
X115268982Y-73997188D01*
X115144500Y-73984928D01*
X115105588Y-73984928D01*
X115103000Y-73488550D01*
X114944250Y-73329800D01*
X113882500Y-73329800D01*
X113882500Y-73349800D01*
X113628500Y-73349800D01*
X113628500Y-73329800D01*
X112566750Y-73329800D01*
X112408000Y-73488550D01*
X112404928Y-74077800D01*
X112417188Y-74202282D01*
X112453498Y-74321980D01*
X112512463Y-74432294D01*
X112591815Y-74528985D01*
X112672506Y-74595206D01*
X112606274Y-74755102D01*
X112566500Y-74955061D01*
X112566500Y-75158939D01*
X112606274Y-75358898D01*
X112684295Y-75547256D01*
X112797563Y-75716774D01*
X112941726Y-75860937D01*
X113111244Y-75974205D01*
X113210394Y-76015275D01*
X113150320Y-76033498D01*
X113040006Y-76092463D01*
X112943315Y-76171815D01*
X112863963Y-76268506D01*
X112804998Y-76378820D01*
X112768688Y-76498518D01*
X112756428Y-76623000D01*
X112756428Y-77523000D01*
X112759025Y-77549368D01*
X112532845Y-77323188D01*
X112508264Y-77293236D01*
X112388733Y-77195138D01*
X112252360Y-77122246D01*
X112115029Y-77080587D01*
X112137812Y-77005482D01*
X112150072Y-76881000D01*
X112150072Y-76281000D01*
X112137812Y-76156518D01*
X112101502Y-76036820D01*
X112052957Y-75946000D01*
X112101502Y-75855180D01*
X112137812Y-75735482D01*
X112150072Y-75611000D01*
X112150072Y-75011000D01*
X112137812Y-74886518D01*
X112101502Y-74766820D01*
X112042537Y-74656506D01*
X111963185Y-74559815D01*
X111866494Y-74480463D01*
X111850973Y-74472167D01*
X111870962Y-74455762D01*
X111981405Y-74321186D01*
X112063472Y-74167650D01*
X112114008Y-74001054D01*
X112131072Y-73827800D01*
X112131072Y-72577800D01*
X112114447Y-72409000D01*
X112405351Y-72409000D01*
X112408000Y-72917050D01*
X112566750Y-73075800D01*
X113628500Y-73075800D01*
X113628500Y-73055800D01*
X113882500Y-73055800D01*
X113882500Y-73075800D01*
X114944250Y-73075800D01*
X115103000Y-72917050D01*
X115105649Y-72409000D01*
X118021439Y-72409000D01*
X118071557Y-72399031D01*
X118122395Y-72394024D01*
X118171277Y-72379196D01*
X118221398Y-72369226D01*
X118268613Y-72349669D01*
X118317493Y-72334841D01*
X118362542Y-72310762D01*
X118409756Y-72291205D01*
X118452246Y-72262814D01*
X118497297Y-72238734D01*
X118536784Y-72206328D01*
X118579274Y-72177937D01*
X118615408Y-72141803D01*
X118654896Y-72109396D01*
X118687303Y-72069908D01*
X118723437Y-72033774D01*
X118751828Y-71991284D01*
X118784234Y-71951797D01*
X118808314Y-71906746D01*
X118836705Y-71864256D01*
X118856262Y-71817042D01*
X118880341Y-71771993D01*
X118895169Y-71723113D01*
X118914726Y-71675898D01*
X118924696Y-71625777D01*
X118939524Y-71576895D01*
X118944531Y-71526057D01*
X118954500Y-71475939D01*
X118954500Y-71424838D01*
X118959507Y-71374000D01*
X118954500Y-71323162D01*
X118954500Y-71272061D01*
X118944531Y-71221943D01*
X118939524Y-71171105D01*
X118924696Y-71122223D01*
X118914726Y-71072102D01*
X118895169Y-71024887D01*
X118880341Y-70976007D01*
X118856262Y-70930958D01*
X118836705Y-70883744D01*
X118808314Y-70841254D01*
X118784234Y-70796203D01*
X118778702Y-70789461D01*
X122409000Y-70789461D01*
X122409000Y-70993339D01*
X122448774Y-71193298D01*
X122526795Y-71381656D01*
X122640063Y-71551174D01*
X122784226Y-71695337D01*
X122953744Y-71808605D01*
X123142102Y-71886626D01*
X123342061Y-71926400D01*
X123545939Y-71926400D01*
X123745898Y-71886626D01*
X123934256Y-71808605D01*
X124103774Y-71695337D01*
X124247937Y-71551174D01*
X124361205Y-71381656D01*
X124439226Y-71193298D01*
X124479000Y-70993339D01*
X124479000Y-70789461D01*
X124439226Y-70589502D01*
X124361205Y-70401144D01*
X124247937Y-70231626D01*
X124229000Y-70212689D01*
X124229000Y-70048157D01*
X126207558Y-68069600D01*
X126491926Y-68069600D01*
X126497372Y-68082747D01*
X126600146Y-68236558D01*
X126586106Y-68244063D01*
X126489415Y-68323415D01*
X126410063Y-68420106D01*
X126351098Y-68530420D01*
X126314788Y-68650118D01*
X126302528Y-68774600D01*
X126302528Y-70874600D01*
X126314788Y-70999082D01*
X126351098Y-71118780D01*
X126410063Y-71229094D01*
X126489415Y-71325785D01*
X126586106Y-71405137D01*
X126696420Y-71464102D01*
X126816118Y-71500412D01*
X126940600Y-71512672D01*
X129040600Y-71512672D01*
X129165082Y-71500412D01*
X129284780Y-71464102D01*
X129395094Y-71405137D01*
X129491785Y-71325785D01*
X129571137Y-71229094D01*
X129630102Y-71118780D01*
X129666412Y-70999082D01*
X129678672Y-70874600D01*
X129678672Y-68774600D01*
X129666412Y-68650118D01*
X129630102Y-68530420D01*
X129571137Y-68420106D01*
X129491785Y-68323415D01*
X129395094Y-68244063D01*
X129381054Y-68236558D01*
X129483828Y-68082747D01*
X129610846Y-67776096D01*
X129675600Y-67450558D01*
X129675600Y-67118642D01*
X129610846Y-66793104D01*
X129483828Y-66486453D01*
X129299425Y-66210475D01*
X129064725Y-65975775D01*
X128788747Y-65791372D01*
X128482096Y-65664354D01*
X128156558Y-65599600D01*
X127824642Y-65599600D01*
X127499104Y-65664354D01*
X127192453Y-65791372D01*
X126916475Y-65975775D01*
X126681775Y-66210475D01*
X126497372Y-66486453D01*
X126491926Y-66499600D01*
X125920952Y-66499600D01*
X125882399Y-66495803D01*
X125843846Y-66499600D01*
X125843839Y-66499600D01*
X125742890Y-66509543D01*
X125728512Y-66510959D01*
X125694072Y-66521406D01*
X125580540Y-66555846D01*
X125444167Y-66628738D01*
X125383959Y-66678150D01*
X125354587Y-66702255D01*
X125354584Y-66702258D01*
X125324636Y-66726836D01*
X125300058Y-66756784D01*
X122916185Y-69140658D01*
X122886237Y-69165236D01*
X122861659Y-69195184D01*
X122861655Y-69195188D01*
X122829313Y-69234597D01*
X122788139Y-69284767D01*
X122760179Y-69337078D01*
X122715246Y-69421141D01*
X122670359Y-69569114D01*
X122655203Y-69723000D01*
X122659001Y-69761562D01*
X122659001Y-70212688D01*
X122640063Y-70231626D01*
X122526795Y-70401144D01*
X122448774Y-70589502D01*
X122409000Y-70789461D01*
X118778702Y-70789461D01*
X118751828Y-70756716D01*
X118723437Y-70714226D01*
X118687303Y-70678092D01*
X118654896Y-70638604D01*
X118615408Y-70606197D01*
X118579274Y-70570063D01*
X118536784Y-70541672D01*
X118497297Y-70509266D01*
X118452246Y-70485186D01*
X118409756Y-70456795D01*
X118362542Y-70437238D01*
X118317493Y-70413159D01*
X118268613Y-70398331D01*
X118221398Y-70378774D01*
X118171277Y-70368804D01*
X118122395Y-70353976D01*
X118071557Y-70348969D01*
X118021439Y-70339000D01*
X111566335Y-70339000D01*
X111515500Y-70333993D01*
X111464665Y-70339000D01*
X111464662Y-70339000D01*
X111312605Y-70353976D01*
X111117507Y-70413159D01*
X111045301Y-70451754D01*
X110937702Y-70509266D01*
X110851273Y-70580197D01*
X110780104Y-70638604D01*
X110747697Y-70678092D01*
X110057597Y-71368193D01*
X110018104Y-71400604D01*
X109910104Y-71532203D01*
X109888766Y-71558203D01*
X109792660Y-71738007D01*
X109741117Y-71907919D01*
X109690038Y-71949838D01*
X109579595Y-72084414D01*
X109497528Y-72237950D01*
X109446992Y-72404546D01*
X109429928Y-72577800D01*
X109429928Y-73827800D01*
X109446992Y-74001054D01*
X109497528Y-74167650D01*
X109579595Y-74321186D01*
X109690038Y-74455762D01*
X109695434Y-74460190D01*
X109657506Y-74480463D01*
X109560815Y-74559815D01*
X109481463Y-74656506D01*
X109422498Y-74766820D01*
X109386188Y-74886518D01*
X109373928Y-75011000D01*
X109373928Y-75611000D01*
X109386188Y-75735482D01*
X109422498Y-75855180D01*
X109471043Y-75946000D01*
X109422498Y-76036820D01*
X109386188Y-76156518D01*
X109373928Y-76281000D01*
X109373928Y-76881000D01*
X109386188Y-77005482D01*
X109422498Y-77125180D01*
X109471043Y-77216000D01*
X109422498Y-77306820D01*
X109386188Y-77426518D01*
X109373928Y-77551000D01*
X109373928Y-78151000D01*
X109386188Y-78275482D01*
X109422498Y-78395180D01*
X109471043Y-78486000D01*
X109422498Y-78576820D01*
X109386188Y-78696518D01*
X109373928Y-78821000D01*
X109373928Y-79421000D01*
X109386188Y-79545482D01*
X109422498Y-79665180D01*
X109471043Y-79756000D01*
X109422498Y-79846820D01*
X109386188Y-79966518D01*
X109373928Y-80091000D01*
X109373928Y-80691000D01*
X109386188Y-80815482D01*
X109422498Y-80935180D01*
X109471043Y-81026000D01*
X109422498Y-81116820D01*
X109386188Y-81236518D01*
X109373928Y-81361000D01*
X109373928Y-81961000D01*
X109386188Y-82085482D01*
X109422498Y-82205180D01*
X109471043Y-82296000D01*
X109422498Y-82386820D01*
X109386188Y-82506518D01*
X109373928Y-82631000D01*
X109373928Y-83231000D01*
X109386188Y-83355482D01*
X109422498Y-83475180D01*
X109471043Y-83566000D01*
X109422498Y-83656820D01*
X109386188Y-83776518D01*
X109373928Y-83901000D01*
X109373928Y-84006771D01*
X107770347Y-82403190D01*
X107745764Y-82373236D01*
X107626233Y-82275138D01*
X107489860Y-82202246D01*
X107341887Y-82157359D01*
X107332302Y-82156415D01*
X107335123Y-82127768D01*
X107338000Y-82098563D01*
X107338000Y-82098558D01*
X107341797Y-82060002D01*
X107338000Y-82021446D01*
X107338000Y-80683552D01*
X107341797Y-80644999D01*
X107338000Y-80606446D01*
X107338000Y-80606439D01*
X107326641Y-80491113D01*
X107281754Y-80343140D01*
X107208862Y-80206767D01*
X107110764Y-80087236D01*
X107080811Y-80062654D01*
X106881347Y-79863190D01*
X106856764Y-79833236D01*
X106737233Y-79735138D01*
X106680358Y-79704738D01*
X106701502Y-79665180D01*
X106737812Y-79545482D01*
X106750072Y-79421000D01*
X106750072Y-78821000D01*
X106737812Y-78696518D01*
X106719454Y-78636000D01*
X107047847Y-78636000D01*
X107086400Y-78639797D01*
X107124953Y-78636000D01*
X107124961Y-78636000D01*
X107240287Y-78624641D01*
X107388260Y-78579754D01*
X107524633Y-78506862D01*
X107644164Y-78408764D01*
X107668747Y-78378810D01*
X108096811Y-77950746D01*
X108126764Y-77926164D01*
X108224862Y-77806633D01*
X108297754Y-77670260D01*
X108335450Y-77545992D01*
X108342641Y-77522288D01*
X108347576Y-77472180D01*
X108354000Y-77406961D01*
X108354000Y-77406954D01*
X108357797Y-77368401D01*
X108354000Y-77329848D01*
X108354000Y-71920552D01*
X108357797Y-71881999D01*
X108354000Y-71843446D01*
X108354000Y-71843439D01*
X108342641Y-71728113D01*
X108342201Y-71726660D01*
X108312522Y-71628824D01*
X108297754Y-71580140D01*
X108224862Y-71443767D01*
X108126764Y-71324236D01*
X108096810Y-71299653D01*
X107694147Y-70896990D01*
X107669564Y-70867036D01*
X107550033Y-70768938D01*
X107413660Y-70696046D01*
X107319818Y-70667579D01*
X107313772Y-70647649D01*
X107231705Y-70494113D01*
X107121262Y-70359538D01*
X106986687Y-70249095D01*
X106833151Y-70167028D01*
X106666555Y-70116492D01*
X106493301Y-70099428D01*
X105843299Y-70099428D01*
X105670045Y-70116492D01*
X105503449Y-70167028D01*
X105349913Y-70249095D01*
X105215338Y-70359538D01*
X105143300Y-70447316D01*
X105071262Y-70359538D01*
X104936687Y-70249095D01*
X104783151Y-70167028D01*
X104616555Y-70116492D01*
X104443301Y-70099428D01*
X103793299Y-70099428D01*
X103620045Y-70116492D01*
X103453449Y-70167028D01*
X103299913Y-70249095D01*
X103165338Y-70359538D01*
X103054895Y-70494113D01*
X102972828Y-70647649D01*
X102922292Y-70814245D01*
X102911825Y-70920515D01*
X102477340Y-71355000D01*
X102450559Y-71355000D01*
X102250600Y-71394774D01*
X102062242Y-71472795D01*
X101892724Y-71586063D01*
X101748561Y-71730226D01*
X101635293Y-71899744D01*
X101557272Y-72088102D01*
X101517498Y-72288061D01*
X101517498Y-72491939D01*
X101557272Y-72691898D01*
X101635293Y-72880256D01*
X101748561Y-73049774D01*
X101892724Y-73193937D01*
X102062242Y-73307205D01*
X102250600Y-73385226D01*
X102386792Y-73412316D01*
X102314106Y-73426774D01*
X102125748Y-73504795D01*
X101956230Y-73618063D01*
X101812067Y-73762226D01*
X101698799Y-73931744D01*
X101620778Y-74120102D01*
X101581004Y-74320061D01*
X101581004Y-74523939D01*
X101618320Y-74711541D01*
X101595502Y-74636320D01*
X101536537Y-74526006D01*
X101457185Y-74429315D01*
X101360494Y-74349963D01*
X101250180Y-74290998D01*
X101130482Y-74254688D01*
X101006000Y-74242428D01*
X100579250Y-74245500D01*
X100420500Y-74404250D01*
X100420500Y-75628500D01*
X101482250Y-75628500D01*
X101641000Y-75469750D01*
X101644072Y-74880500D01*
X101631812Y-74756018D01*
X101625599Y-74735538D01*
X101698799Y-74912256D01*
X101812067Y-75081774D01*
X101956230Y-75225937D01*
X102125748Y-75339205D01*
X102314106Y-75417226D01*
X102514065Y-75457000D01*
X102717943Y-75457000D01*
X102917902Y-75417226D01*
X103106260Y-75339205D01*
X103275778Y-75225937D01*
X103419941Y-75081774D01*
X103533209Y-74912256D01*
X103611070Y-74724285D01*
X103620045Y-74727008D01*
X103793299Y-74744072D01*
X104034657Y-74744072D01*
X104022498Y-74766820D01*
X103986188Y-74886518D01*
X103973928Y-75011000D01*
X103977000Y-75025250D01*
X104135750Y-75184000D01*
X105235000Y-75184000D01*
X105235000Y-75164000D01*
X105489000Y-75164000D01*
X105489000Y-75184000D01*
X105509000Y-75184000D01*
X105509000Y-75438000D01*
X105489000Y-75438000D01*
X105489000Y-75458000D01*
X105235000Y-75458000D01*
X105235000Y-75438000D01*
X104135750Y-75438000D01*
X103977000Y-75596750D01*
X103973928Y-75611000D01*
X103986188Y-75735482D01*
X104022498Y-75855180D01*
X104071043Y-75946000D01*
X104022498Y-76036820D01*
X103986188Y-76156518D01*
X103973928Y-76281000D01*
X103973928Y-76881000D01*
X103986188Y-77005482D01*
X104022498Y-77125180D01*
X104071043Y-77216000D01*
X104022498Y-77306820D01*
X103986188Y-77426518D01*
X103973928Y-77551000D01*
X103973928Y-77643245D01*
X103913754Y-77624992D01*
X103740500Y-77607928D01*
X102815500Y-77607928D01*
X102642246Y-77624992D01*
X102475650Y-77675528D01*
X102322114Y-77757595D01*
X102187538Y-77868038D01*
X102077095Y-78002614D01*
X101995028Y-78156150D01*
X101944492Y-78322746D01*
X101927428Y-78496000D01*
X101927428Y-79007861D01*
X101589520Y-79345770D01*
X101491750Y-79248000D01*
X100430000Y-79248000D01*
X100430000Y-80472250D01*
X100446520Y-80488770D01*
X96874489Y-84060801D01*
X95236830Y-84060801D01*
X98081641Y-81215991D01*
X98124949Y-81180449D01*
X98266784Y-81007623D01*
X98372176Y-80810447D01*
X98437077Y-80596499D01*
X98453500Y-80429752D01*
X98453500Y-80429743D01*
X98458990Y-80374001D01*
X98453500Y-80318259D01*
X98453500Y-79996000D01*
X98952428Y-79996000D01*
X98964688Y-80120482D01*
X99000998Y-80240180D01*
X99059963Y-80350494D01*
X99139315Y-80447185D01*
X99236006Y-80526537D01*
X99346320Y-80585502D01*
X99466018Y-80621812D01*
X99590500Y-80634072D01*
X100017250Y-80631000D01*
X100176000Y-80472250D01*
X100176000Y-79248000D01*
X99114250Y-79248000D01*
X98955500Y-79406750D01*
X98952428Y-79996000D01*
X98453500Y-79996000D01*
X98453500Y-78246000D01*
X98952428Y-78246000D01*
X98955500Y-78835250D01*
X99114250Y-78994000D01*
X100176000Y-78994000D01*
X100176000Y-77769750D01*
X100430000Y-77769750D01*
X100430000Y-78994000D01*
X101491750Y-78994000D01*
X101650500Y-78835250D01*
X101653572Y-78246000D01*
X101641312Y-78121518D01*
X101605002Y-78001820D01*
X101546037Y-77891506D01*
X101466685Y-77794815D01*
X101369994Y-77715463D01*
X101259680Y-77656498D01*
X101139982Y-77620188D01*
X101015500Y-77607928D01*
X100588750Y-77611000D01*
X100430000Y-77769750D01*
X100176000Y-77769750D01*
X100017250Y-77611000D01*
X99590500Y-77607928D01*
X99466018Y-77620188D01*
X99346320Y-77656498D01*
X99236006Y-77715463D01*
X99139315Y-77794815D01*
X99059963Y-77891506D01*
X99000998Y-78001820D01*
X98964688Y-78121518D01*
X98952428Y-78246000D01*
X98453500Y-78246000D01*
X98453500Y-76954192D01*
X98519405Y-76873886D01*
X98601472Y-76720350D01*
X98628727Y-76630500D01*
X98942928Y-76630500D01*
X98955188Y-76754982D01*
X98991498Y-76874680D01*
X99050463Y-76984994D01*
X99129815Y-77081685D01*
X99226506Y-77161037D01*
X99336820Y-77220002D01*
X99456518Y-77256312D01*
X99581000Y-77268572D01*
X100007750Y-77265500D01*
X100166500Y-77106750D01*
X100166500Y-75882500D01*
X100420500Y-75882500D01*
X100420500Y-77106750D01*
X100579250Y-77265500D01*
X101006000Y-77268572D01*
X101130482Y-77256312D01*
X101250180Y-77220002D01*
X101360494Y-77161037D01*
X101457185Y-77081685D01*
X101536537Y-76984994D01*
X101595502Y-76874680D01*
X101631812Y-76754982D01*
X101644072Y-76630500D01*
X101641000Y-76041250D01*
X101482250Y-75882500D01*
X100420500Y-75882500D01*
X100166500Y-75882500D01*
X99104750Y-75882500D01*
X98946000Y-76041250D01*
X98942928Y-76630500D01*
X98628727Y-76630500D01*
X98652008Y-76553754D01*
X98669072Y-76380500D01*
X98669072Y-75130500D01*
X98652008Y-74957246D01*
X98628728Y-74880500D01*
X98942928Y-74880500D01*
X98946000Y-75469750D01*
X99104750Y-75628500D01*
X100166500Y-75628500D01*
X100166500Y-74404250D01*
X100007750Y-74245500D01*
X99581000Y-74242428D01*
X99456518Y-74254688D01*
X99336820Y-74290998D01*
X99226506Y-74349963D01*
X99129815Y-74429315D01*
X99050463Y-74526006D01*
X98991498Y-74636320D01*
X98955188Y-74756018D01*
X98942928Y-74880500D01*
X98628728Y-74880500D01*
X98601472Y-74790650D01*
X98519405Y-74637114D01*
X98453500Y-74556808D01*
X98453500Y-74109540D01*
X98513037Y-74036994D01*
X98572002Y-73926680D01*
X98608312Y-73806982D01*
X98620572Y-73682500D01*
X98620572Y-71682500D01*
X98608312Y-71558018D01*
X98572002Y-71438320D01*
X98513037Y-71328006D01*
X98433685Y-71231315D01*
X98336994Y-71151963D01*
X98226680Y-71092998D01*
X98106982Y-71056688D01*
X97982500Y-71044428D01*
X97144883Y-71044428D01*
X97151911Y-71037400D01*
X97485539Y-71037400D01*
X97535657Y-71027431D01*
X97586495Y-71022424D01*
X97635377Y-71007596D01*
X97685498Y-70997626D01*
X97732713Y-70978069D01*
X97781593Y-70963241D01*
X97826642Y-70939162D01*
X97873856Y-70919605D01*
X97916346Y-70891214D01*
X97961397Y-70867134D01*
X98000884Y-70834728D01*
X98043374Y-70806337D01*
X98079508Y-70770203D01*
X98118996Y-70737796D01*
X98151403Y-70698308D01*
X98187537Y-70662174D01*
X98215928Y-70619684D01*
X98248334Y-70580197D01*
X98272414Y-70535146D01*
X98300805Y-70492656D01*
X98320362Y-70445442D01*
X98344441Y-70400393D01*
X98359269Y-70351513D01*
X98378826Y-70304298D01*
X98388796Y-70254177D01*
X98403624Y-70205295D01*
X98408631Y-70154457D01*
X98418600Y-70104339D01*
X98418600Y-70053238D01*
X98423607Y-70002400D01*
X98418600Y-69951562D01*
X98418600Y-69900461D01*
X98408631Y-69850343D01*
X98403624Y-69799505D01*
X98388796Y-69750623D01*
X98378826Y-69700502D01*
X98359269Y-69653287D01*
X98344441Y-69604407D01*
X98320362Y-69559358D01*
X98300805Y-69512144D01*
X98272414Y-69469654D01*
X98248334Y-69424603D01*
X98215928Y-69385116D01*
X98187537Y-69342626D01*
X98151403Y-69306492D01*
X98118996Y-69267004D01*
X98079508Y-69234597D01*
X98043374Y-69198463D01*
X98000884Y-69170072D01*
X97961397Y-69137666D01*
X97916346Y-69113586D01*
X97873856Y-69085195D01*
X97826642Y-69065638D01*
X97781593Y-69041559D01*
X97732713Y-69026731D01*
X97685498Y-69007174D01*
X97635377Y-68997204D01*
X97586495Y-68982376D01*
X97535657Y-68977369D01*
X97485539Y-68967400D01*
X96774035Y-68967400D01*
X96723200Y-68962393D01*
X96672365Y-68967400D01*
X96672362Y-68967400D01*
X96520305Y-68982376D01*
X96325207Y-69041559D01*
X96277352Y-69067138D01*
X96145402Y-69137666D01*
X96027292Y-69234597D01*
X95987804Y-69267004D01*
X95967500Y-69291745D01*
X95967500Y-68020572D01*
X96832500Y-68020572D01*
X96956982Y-68008312D01*
X97076680Y-67972002D01*
X97186994Y-67913037D01*
X97283685Y-67833685D01*
X97363037Y-67736994D01*
X97422002Y-67626680D01*
X97458312Y-67506982D01*
X97470572Y-67382500D01*
X97470572Y-65382500D01*
X97458312Y-65258018D01*
X97422002Y-65138320D01*
X97363037Y-65028006D01*
X97283685Y-64931315D01*
X97186994Y-64851963D01*
X97076680Y-64792998D01*
X96956982Y-64756688D01*
X96832500Y-64744428D01*
X93032500Y-64744428D01*
X92908018Y-64756688D01*
X92788320Y-64792998D01*
X92678006Y-64851963D01*
X92581315Y-64931315D01*
X92501963Y-65028006D01*
X92442998Y-65138320D01*
X92406688Y-65258018D01*
X92394428Y-65382500D01*
X92394428Y-67382500D01*
X92406688Y-67506982D01*
X92442998Y-67626680D01*
X92501963Y-67736994D01*
X92581315Y-67833685D01*
X92678006Y-67913037D01*
X92788320Y-67972002D01*
X92908018Y-68008312D01*
X93032500Y-68020572D01*
X93897501Y-68020572D01*
X93897500Y-69704000D01*
X91681335Y-69704000D01*
X91630500Y-69698993D01*
X91579664Y-69704000D01*
X91579662Y-69704000D01*
X91456076Y-69716172D01*
X91422905Y-69654114D01*
X91312462Y-69519538D01*
X91177886Y-69409095D01*
X91024350Y-69327028D01*
X90857754Y-69276492D01*
X90684500Y-69259428D01*
X86734500Y-69259428D01*
X86561246Y-69276492D01*
X86394650Y-69327028D01*
X86241114Y-69409095D01*
X86106538Y-69519538D01*
X85996095Y-69654114D01*
X85914028Y-69807650D01*
X85863492Y-69974246D01*
X85846428Y-70147500D01*
X85846428Y-72847500D01*
X85863492Y-73020754D01*
X85914028Y-73187350D01*
X85996095Y-73340886D01*
X86106538Y-73475462D01*
X86241114Y-73585905D01*
X86394650Y-73667972D01*
X86561246Y-73718508D01*
X86734500Y-73735572D01*
X87689443Y-73735572D01*
X87689476Y-73735904D01*
X87748659Y-73931002D01*
X87833606Y-74089928D01*
X86933200Y-74089928D01*
X86808718Y-74102188D01*
X86689020Y-74138498D01*
X86578706Y-74197463D01*
X86482015Y-74276815D01*
X86402663Y-74373506D01*
X86343698Y-74483820D01*
X86307388Y-74603518D01*
X86295128Y-74728000D01*
X86295128Y-75020869D01*
X86278577Y-75029716D01*
X86105751Y-75171551D01*
X86070209Y-75214859D01*
X84233370Y-77051699D01*
X84225667Y-77058021D01*
X84075514Y-76934794D01*
X84058126Y-76925500D01*
X84075514Y-76916206D01*
X84301634Y-76730634D01*
X84487206Y-76504514D01*
X84625099Y-76246534D01*
X84710013Y-75966611D01*
X84738685Y-75675500D01*
X84710013Y-75384389D01*
X84625099Y-75104466D01*
X84487206Y-74846486D01*
X84301634Y-74620366D01*
X84075514Y-74434794D01*
X84058126Y-74425500D01*
X84075514Y-74416206D01*
X84301634Y-74230634D01*
X84487206Y-74004514D01*
X84625099Y-73746534D01*
X84710013Y-73466611D01*
X84738685Y-73175500D01*
X84710013Y-72884389D01*
X84625099Y-72604466D01*
X84487206Y-72346486D01*
X84301634Y-72120366D01*
X84238193Y-72068302D01*
X84339931Y-72013922D01*
X84474491Y-71903491D01*
X84584922Y-71768931D01*
X84666979Y-71615412D01*
X84717510Y-71448835D01*
X84734572Y-71275600D01*
X84734572Y-70075400D01*
X84717510Y-69902165D01*
X84666979Y-69735588D01*
X84584922Y-69582069D01*
X84474491Y-69447509D01*
X84339931Y-69337078D01*
X84186412Y-69255021D01*
X84019835Y-69204490D01*
X83846600Y-69187428D01*
X82396400Y-69187428D01*
X82223165Y-69204490D01*
X82056588Y-69255021D01*
X81903069Y-69337078D01*
X81768509Y-69447509D01*
X81658078Y-69582069D01*
X81576021Y-69735588D01*
X81525490Y-69902165D01*
X81508428Y-70075400D01*
X81508428Y-71275600D01*
X81525490Y-71448835D01*
X81576021Y-71615412D01*
X81658078Y-71768931D01*
X81768509Y-71903491D01*
X81903069Y-72013922D01*
X82004807Y-72068302D01*
X81941366Y-72120366D01*
X81755794Y-72346486D01*
X81617901Y-72604466D01*
X81532987Y-72884389D01*
X81504315Y-73175500D01*
X81532987Y-73466611D01*
X81617901Y-73746534D01*
X81755794Y-74004514D01*
X81941366Y-74230634D01*
X82167486Y-74416206D01*
X82184874Y-74425500D01*
X82167486Y-74434794D01*
X81941366Y-74620366D01*
X81755794Y-74846486D01*
X81617901Y-75104466D01*
X81532987Y-75384389D01*
X81504315Y-75675500D01*
X81532987Y-75966611D01*
X81617901Y-76246534D01*
X81755794Y-76504514D01*
X81941366Y-76730634D01*
X82167486Y-76916206D01*
X82184874Y-76925500D01*
X82167486Y-76934794D01*
X81941366Y-77120366D01*
X81755794Y-77346486D01*
X81617901Y-77604466D01*
X81532987Y-77884389D01*
X81504315Y-78175500D01*
X81532987Y-78466611D01*
X81617901Y-78746534D01*
X81755794Y-79004514D01*
X81941366Y-79230634D01*
X82167486Y-79416206D01*
X82184874Y-79425500D01*
X82167486Y-79434794D01*
X81941366Y-79620366D01*
X81755794Y-79846486D01*
X81617901Y-80104466D01*
X81532987Y-80384389D01*
X81504315Y-80675500D01*
X81532987Y-80966611D01*
X81617901Y-81246534D01*
X81755794Y-81504514D01*
X81941366Y-81730634D01*
X82167486Y-81916206D01*
X82425466Y-82054099D01*
X82705389Y-82139013D01*
X82923550Y-82160500D01*
X83319450Y-82160500D01*
X83537611Y-82139013D01*
X83817534Y-82054099D01*
X84075514Y-81916206D01*
X84301634Y-81730634D01*
X84487206Y-81504514D01*
X84625099Y-81246534D01*
X84710013Y-80966611D01*
X84729089Y-80772930D01*
X85759656Y-79742364D01*
X85802959Y-79706826D01*
X85847796Y-79652193D01*
X85944794Y-79534000D01*
X86050186Y-79336824D01*
X86115087Y-79122876D01*
X86137001Y-78900377D01*
X86131510Y-78844625D01*
X86131510Y-78363821D01*
X86681727Y-77813604D01*
X86689020Y-77817502D01*
X86808718Y-77853812D01*
X86933200Y-77866072D01*
X88733200Y-77866072D01*
X88857682Y-77853812D01*
X88977380Y-77817502D01*
X89087694Y-77758537D01*
X89184385Y-77679185D01*
X89205511Y-77653443D01*
X90495500Y-78943432D01*
X90495501Y-80923928D01*
X89880500Y-80923928D01*
X89756018Y-80936188D01*
X89636320Y-80972498D01*
X89526006Y-81031463D01*
X89429315Y-81110815D01*
X89371272Y-81181541D01*
X89371272Y-78728000D01*
X89359012Y-78603518D01*
X89322702Y-78483820D01*
X89263737Y-78373506D01*
X89184385Y-78276815D01*
X89087694Y-78197463D01*
X88977380Y-78138498D01*
X88857682Y-78102188D01*
X88733200Y-78089928D01*
X86933200Y-78089928D01*
X86808718Y-78102188D01*
X86689020Y-78138498D01*
X86578706Y-78197463D01*
X86482015Y-78276815D01*
X86402663Y-78373506D01*
X86343698Y-78483820D01*
X86307388Y-78603518D01*
X86295128Y-78728000D01*
X86295128Y-81228000D01*
X86307388Y-81352482D01*
X86343698Y-81472180D01*
X86402663Y-81582494D01*
X86482015Y-81679185D01*
X86578706Y-81758537D01*
X86689020Y-81817502D01*
X86808718Y-81853812D01*
X86933200Y-81866072D01*
X87048201Y-81866072D01*
X87048200Y-86238042D01*
X86661743Y-86624500D01*
X84510124Y-86624500D01*
X84509500Y-86532750D01*
X84350750Y-86374000D01*
X82951500Y-86374000D01*
X82951500Y-86394000D01*
X82697500Y-86394000D01*
X82697500Y-86374000D01*
X82677500Y-86374000D01*
X82677500Y-86120000D01*
X82697500Y-86120000D01*
X82697500Y-85033250D01*
X82951500Y-85033250D01*
X82951500Y-86120000D01*
X84350750Y-86120000D01*
X84509500Y-85961250D01*
X84512572Y-85509500D01*
X84500312Y-85385018D01*
X84464002Y-85265320D01*
X84405037Y-85155006D01*
X84325685Y-85058315D01*
X84228994Y-84978963D01*
X84118680Y-84919998D01*
X83998982Y-84883688D01*
X83874500Y-84871428D01*
X83110250Y-84874500D01*
X82951500Y-85033250D01*
X82697500Y-85033250D01*
X82538750Y-84874500D01*
X82111684Y-84872783D01*
X82112572Y-84612000D01*
X82100312Y-84487518D01*
X82064002Y-84367820D01*
X82005037Y-84257506D01*
X81925685Y-84160815D01*
X81828994Y-84081463D01*
X81718680Y-84022498D01*
X81598982Y-83986188D01*
X81474500Y-83973928D01*
X80810250Y-83977000D01*
X80651500Y-84135750D01*
X80651500Y-85672500D01*
X80671500Y-85672500D01*
X80671500Y-85926500D01*
X80651500Y-85926500D01*
X80651500Y-87742500D01*
X80671500Y-87742500D01*
X80671500Y-87996500D01*
X80651500Y-87996500D01*
X80651500Y-89422500D01*
X80671500Y-89422500D01*
X80671500Y-89676500D01*
X80651500Y-89676500D01*
X80651500Y-91492500D01*
X80671500Y-91492500D01*
X80671500Y-91746500D01*
X80651500Y-91746500D01*
X80651500Y-91766500D01*
X80397500Y-91766500D01*
X80397500Y-91746500D01*
X80377500Y-91746500D01*
X80377500Y-91492500D01*
X80397500Y-91492500D01*
X80397500Y-89676500D01*
X80377500Y-89676500D01*
X80377500Y-89422500D01*
X80397500Y-89422500D01*
X80397500Y-87996500D01*
X80377500Y-87996500D01*
X80377500Y-87742500D01*
X80397500Y-87742500D01*
X80397500Y-85926500D01*
X80377500Y-85926500D01*
X80377500Y-85672500D01*
X80397500Y-85672500D01*
X80397500Y-84135750D01*
X80238750Y-83977000D01*
X79678600Y-83974409D01*
X79678600Y-67897500D01*
X85846428Y-67897500D01*
X85858688Y-68021982D01*
X85894998Y-68141680D01*
X85953963Y-68251994D01*
X86033315Y-68348685D01*
X86130006Y-68428037D01*
X86240320Y-68487002D01*
X86360018Y-68523312D01*
X86484500Y-68535572D01*
X88423750Y-68532500D01*
X88582500Y-68373750D01*
X88582500Y-66424500D01*
X88836500Y-66424500D01*
X88836500Y-68373750D01*
X88995250Y-68532500D01*
X90934500Y-68535572D01*
X91058982Y-68523312D01*
X91178680Y-68487002D01*
X91288994Y-68428037D01*
X91385685Y-68348685D01*
X91465037Y-68251994D01*
X91524002Y-68141680D01*
X91560312Y-68021982D01*
X91572572Y-67897500D01*
X91569500Y-66583250D01*
X91410750Y-66424500D01*
X88836500Y-66424500D01*
X88582500Y-66424500D01*
X86008250Y-66424500D01*
X85849500Y-66583250D01*
X85846428Y-67897500D01*
X79678600Y-67897500D01*
X79678600Y-64464000D01*
X85891758Y-64464000D01*
X85858688Y-64573018D01*
X85858688Y-64573018D01*
G37*
X85858688Y-64573018D02*
X85846428Y-64697500D01*
X85849500Y-66011750D01*
X86008250Y-66170500D01*
X88582500Y-66170500D01*
X88582500Y-66150500D01*
X88836500Y-66150500D01*
X88836500Y-66170500D01*
X91410750Y-66170500D01*
X91569500Y-66011750D01*
X91572572Y-64697500D01*
X91560312Y-64573018D01*
X91527242Y-64464000D01*
X98679000Y-64464000D01*
X98679000Y-69850000D01*
X98681440Y-69874776D01*
X98688667Y-69898601D01*
X98700403Y-69920557D01*
X98716197Y-69939803D01*
X98735443Y-69955597D01*
X98757399Y-69967333D01*
X98781224Y-69974560D01*
X98806000Y-69977000D01*
X117348000Y-69977000D01*
X117372776Y-69974560D01*
X117396601Y-69967333D01*
X117418557Y-69955597D01*
X117437803Y-69939803D01*
X117453597Y-69920557D01*
X117465333Y-69898601D01*
X117472560Y-69874776D01*
X117475000Y-69850000D01*
X117475000Y-64464000D01*
X133290000Y-64464000D01*
X133290001Y-92789639D01*
X82112424Y-92763600D01*
X82111684Y-92546217D01*
X82538750Y-92544500D01*
X82697500Y-92385750D01*
X82697500Y-91299000D01*
X82951500Y-91299000D01*
X82951500Y-92385750D01*
X83110250Y-92544500D01*
X83874500Y-92547572D01*
X83998982Y-92535312D01*
X84118680Y-92499002D01*
X84228994Y-92440037D01*
X84325685Y-92360685D01*
X84405037Y-92263994D01*
X84464002Y-92153680D01*
X84500312Y-92033982D01*
X84512572Y-91909500D01*
X84509500Y-91457750D01*
X84350750Y-91299000D01*
X82951500Y-91299000D01*
X82697500Y-91299000D01*
X82677500Y-91299000D01*
X82677500Y-91045000D01*
X82697500Y-91045000D01*
X82697500Y-91025000D01*
X82951500Y-91025000D01*
X82951500Y-91045000D01*
X84350750Y-91045000D01*
X84509500Y-90886250D01*
X84510004Y-90812000D01*
X89242428Y-90812000D01*
X89254688Y-90936482D01*
X89290998Y-91056180D01*
X89349963Y-91166494D01*
X89429315Y-91263185D01*
X89526006Y-91342537D01*
X89636320Y-91401502D01*
X89756018Y-91437812D01*
X89880500Y-91450072D01*
X91344750Y-91447000D01*
X91503500Y-91288250D01*
X91503500Y-89439000D01*
X91757500Y-89439000D01*
X91757500Y-91288250D01*
X91916250Y-91447000D01*
X93380500Y-91450072D01*
X93504982Y-91437812D01*
X93624680Y-91401502D01*
X93734994Y-91342537D01*
X93831685Y-91263185D01*
X93911037Y-91166494D01*
X93970002Y-91056180D01*
X94006312Y-90936482D01*
X94018572Y-90812000D01*
X94018209Y-90668200D01*
X101966528Y-90668200D01*
X101978788Y-90792682D01*
X102015098Y-90912380D01*
X102074063Y-91022694D01*
X102153415Y-91119385D01*
X102250106Y-91198737D01*
X102360420Y-91257702D01*
X102480118Y-91294012D01*
X102604600Y-91306272D01*
X103193850Y-91303200D01*
X103352600Y-91144450D01*
X103352600Y-90082700D01*
X102128350Y-90082700D01*
X101969600Y-90241450D01*
X101966528Y-90668200D01*
X94018209Y-90668200D01*
X94015500Y-89597750D01*
X93856750Y-89439000D01*
X91757500Y-89439000D01*
X91503500Y-89439000D01*
X89404250Y-89439000D01*
X89245500Y-89597750D01*
X89242428Y-90812000D01*
X84510004Y-90812000D01*
X84512572Y-90434500D01*
X84502395Y-90331166D01*
X84509500Y-90266250D01*
X84477253Y-90234003D01*
X84464002Y-90190320D01*
X84405037Y-90080006D01*
X84347174Y-90009500D01*
X84405037Y-89938994D01*
X84464002Y-89828680D01*
X84477253Y-89784997D01*
X84509500Y-89752750D01*
X84502395Y-89687834D01*
X84512572Y-89584500D01*
X84512572Y-89494500D01*
X87538701Y-89494500D01*
X87577254Y-89498297D01*
X87615807Y-89494500D01*
X87615815Y-89494500D01*
X87731141Y-89483141D01*
X87879114Y-89438254D01*
X88015487Y-89365362D01*
X88135018Y-89267264D01*
X88159601Y-89237310D01*
X89243292Y-88153619D01*
X89245500Y-89026250D01*
X89404250Y-89185000D01*
X91503500Y-89185000D01*
X91503500Y-89165000D01*
X91757500Y-89165000D01*
X91757500Y-89185000D01*
X93856750Y-89185000D01*
X94015500Y-89026250D01*
X94018572Y-87812000D01*
X94006312Y-87687518D01*
X93995841Y-87653000D01*
X98460515Y-87653000D01*
X98499068Y-87656797D01*
X98537621Y-87653000D01*
X98537629Y-87653000D01*
X98652955Y-87641641D01*
X98800928Y-87596754D01*
X98937301Y-87523862D01*
X99056832Y-87425764D01*
X99081415Y-87395810D01*
X103361227Y-83115999D01*
X103973928Y-83115999D01*
X103973928Y-83231000D01*
X103986188Y-83355482D01*
X104006620Y-83422837D01*
X103960713Y-83427358D01*
X103829424Y-83467185D01*
X103812740Y-83472246D01*
X103676367Y-83545138D01*
X103556836Y-83643236D01*
X103532253Y-83673190D01*
X102951790Y-84253653D01*
X102921836Y-84278236D01*
X102823738Y-84397768D01*
X102750846Y-84534141D01*
X102705959Y-84682114D01*
X102694600Y-84797440D01*
X102694600Y-84797447D01*
X102690803Y-84836000D01*
X102694600Y-84874553D01*
X102694600Y-85645887D01*
X102681346Y-85647192D01*
X102514750Y-85697728D01*
X102361214Y-85779795D01*
X102226638Y-85890238D01*
X102116195Y-86024814D01*
X102034128Y-86178350D01*
X101983592Y-86344946D01*
X101966528Y-86518200D01*
X101966528Y-87443200D01*
X101983592Y-87616454D01*
X102034128Y-87783050D01*
X102116195Y-87936586D01*
X102226638Y-88071162D01*
X102361214Y-88181605D01*
X102514750Y-88263672D01*
X102681346Y-88314208D01*
X102854600Y-88331272D01*
X102872848Y-88331272D01*
X102897255Y-88361012D01*
X102897259Y-88361016D01*
X102921837Y-88390964D01*
X102951785Y-88415542D01*
X103144184Y-88607941D01*
X102604600Y-88605128D01*
X102480118Y-88617388D01*
X102360420Y-88653698D01*
X102250106Y-88712663D01*
X102153415Y-88792015D01*
X102074063Y-88888706D01*
X102015098Y-88999020D01*
X101978788Y-89118718D01*
X101966528Y-89243200D01*
X101969600Y-89669950D01*
X102128350Y-89828700D01*
X103352600Y-89828700D01*
X103352600Y-89808700D01*
X103606600Y-89808700D01*
X103606600Y-89828700D01*
X103626600Y-89828700D01*
X103626600Y-90082700D01*
X103606600Y-90082700D01*
X103606600Y-91144450D01*
X103765350Y-91303200D01*
X104354600Y-91306272D01*
X104479082Y-91294012D01*
X104598780Y-91257702D01*
X104709094Y-91198737D01*
X104805785Y-91119385D01*
X104837078Y-91081254D01*
X104919306Y-91148737D01*
X105029620Y-91207702D01*
X105149318Y-91244012D01*
X105273800Y-91256272D01*
X107373800Y-91256272D01*
X107498282Y-91244012D01*
X107617980Y-91207702D01*
X107728294Y-91148737D01*
X107824985Y-91069385D01*
X107873800Y-91009904D01*
X107922615Y-91069385D01*
X108019306Y-91148737D01*
X108129620Y-91207702D01*
X108249318Y-91244012D01*
X108373800Y-91256272D01*
X110473800Y-91256272D01*
X110598282Y-91244012D01*
X110717980Y-91207702D01*
X110828294Y-91148737D01*
X110924985Y-91069385D01*
X110925583Y-91068656D01*
X110967215Y-91119385D01*
X111063906Y-91198737D01*
X111174220Y-91257702D01*
X111293918Y-91294012D01*
X111418400Y-91306272D01*
X112007650Y-91303200D01*
X112166400Y-91144450D01*
X112166400Y-90082700D01*
X112420400Y-90082700D01*
X112420400Y-91144450D01*
X112579150Y-91303200D01*
X113168400Y-91306272D01*
X113292882Y-91294012D01*
X113412580Y-91257702D01*
X113522894Y-91198737D01*
X113619585Y-91119385D01*
X113698937Y-91022694D01*
X113757902Y-90912380D01*
X113794212Y-90792682D01*
X113806472Y-90668200D01*
X113803400Y-90241450D01*
X113644650Y-90082700D01*
X112420400Y-90082700D01*
X112166400Y-90082700D01*
X112146400Y-90082700D01*
X112146400Y-89828700D01*
X112166400Y-89828700D01*
X112166400Y-88766950D01*
X112420400Y-88766950D01*
X112420400Y-89828700D01*
X113644650Y-89828700D01*
X113803400Y-89669950D01*
X113806472Y-89243200D01*
X113794212Y-89118718D01*
X113757902Y-88999020D01*
X113698937Y-88888706D01*
X113619585Y-88792015D01*
X113522894Y-88712663D01*
X113412580Y-88653698D01*
X113292882Y-88617388D01*
X113168400Y-88605128D01*
X112579150Y-88608200D01*
X112420400Y-88766950D01*
X112166400Y-88766950D01*
X112007650Y-88608200D01*
X111418400Y-88605128D01*
X111293918Y-88617388D01*
X111174220Y-88653698D01*
X111099575Y-88693597D01*
X111063302Y-88574020D01*
X111006739Y-88468200D01*
X111063302Y-88362380D01*
X111099612Y-88242682D01*
X111110816Y-88128920D01*
X111175014Y-88181605D01*
X111328550Y-88263672D01*
X111495146Y-88314208D01*
X111668400Y-88331272D01*
X112918400Y-88331272D01*
X113091654Y-88314208D01*
X113258250Y-88263672D01*
X113411786Y-88181605D01*
X113546362Y-88071162D01*
X113656805Y-87936586D01*
X113738872Y-87783050D01*
X113789408Y-87616454D01*
X113806472Y-87443200D01*
X113806472Y-86518200D01*
X113789408Y-86344946D01*
X113738872Y-86178350D01*
X113656805Y-86024814D01*
X113546362Y-85890238D01*
X113411786Y-85779795D01*
X113258250Y-85697728D01*
X113091654Y-85647192D01*
X112918400Y-85630128D01*
X112918372Y-85630128D01*
X112851164Y-85548236D01*
X112821211Y-85523654D01*
X112342345Y-85044788D01*
X112317764Y-85014836D01*
X112198233Y-84916738D01*
X112061860Y-84843846D01*
X112050590Y-84840427D01*
X112101502Y-84745180D01*
X112137812Y-84625482D01*
X112139958Y-84603690D01*
X112244744Y-84673705D01*
X112433102Y-84751726D01*
X112633061Y-84791500D01*
X112659843Y-84791500D01*
X112962153Y-85093810D01*
X112986736Y-85123764D01*
X113106267Y-85221862D01*
X113204246Y-85274232D01*
X113242640Y-85294754D01*
X113390613Y-85339642D01*
X113465526Y-85347020D01*
X113505939Y-85351000D01*
X113505944Y-85351000D01*
X113544500Y-85354797D01*
X113583056Y-85351000D01*
X113803543Y-85351000D01*
X113813963Y-85370494D01*
X113893315Y-85467185D01*
X113990006Y-85546537D01*
X114100320Y-85605502D01*
X114220018Y-85641812D01*
X114344500Y-85654072D01*
X115144500Y-85654072D01*
X115268982Y-85641812D01*
X115388680Y-85605502D01*
X115498994Y-85546537D01*
X115595685Y-85467185D01*
X115675037Y-85370494D01*
X115685457Y-85351000D01*
X117637328Y-85351000D01*
X117637328Y-85533200D01*
X117649588Y-85657682D01*
X117685898Y-85777380D01*
X117744863Y-85887694D01*
X117824215Y-85984385D01*
X117920906Y-86063737D01*
X117990400Y-86100883D01*
X117990401Y-89565517D01*
X117920906Y-89602663D01*
X117824215Y-89682015D01*
X117744863Y-89778706D01*
X117685898Y-89889020D01*
X117649588Y-90008718D01*
X117637328Y-90133200D01*
X117637328Y-91833200D01*
X117649588Y-91957682D01*
X117685898Y-92077380D01*
X117744863Y-92187694D01*
X117824215Y-92284385D01*
X117920906Y-92363737D01*
X118031220Y-92422702D01*
X118150918Y-92459012D01*
X118275400Y-92471272D01*
X119275400Y-92471272D01*
X119399882Y-92459012D01*
X119519580Y-92422702D01*
X119629894Y-92363737D01*
X119726585Y-92284385D01*
X119805937Y-92187694D01*
X119864902Y-92077380D01*
X119901212Y-91957682D01*
X119913472Y-91833200D01*
X121437328Y-91833200D01*
X121449588Y-91957682D01*
X121485898Y-92077380D01*
X121544863Y-92187694D01*
X121624215Y-92284385D01*
X121720906Y-92363737D01*
X121831220Y-92422702D01*
X121950918Y-92459012D01*
X122075400Y-92471272D01*
X122289650Y-92468200D01*
X122448400Y-92309450D01*
X122448400Y-91110200D01*
X122702400Y-91110200D01*
X122702400Y-92309450D01*
X122861150Y-92468200D01*
X123075400Y-92471272D01*
X123199882Y-92459012D01*
X123319580Y-92422702D01*
X123429894Y-92363737D01*
X123526585Y-92284385D01*
X123605937Y-92187694D01*
X123664902Y-92077380D01*
X123701212Y-91957682D01*
X123713472Y-91833200D01*
X123710400Y-91268950D01*
X123551650Y-91110200D01*
X122702400Y-91110200D01*
X122448400Y-91110200D01*
X121599150Y-91110200D01*
X121440400Y-91268950D01*
X121437328Y-91833200D01*
X119913472Y-91833200D01*
X119913472Y-91016800D01*
X126302528Y-91016800D01*
X126314788Y-91141282D01*
X126351098Y-91260980D01*
X126410063Y-91371294D01*
X126489415Y-91467985D01*
X126586106Y-91547337D01*
X126696420Y-91606302D01*
X126816118Y-91642612D01*
X126940600Y-91654872D01*
X127704850Y-91651800D01*
X127863600Y-91493050D01*
X127863600Y-90093800D01*
X128117600Y-90093800D01*
X128117600Y-91493050D01*
X128276350Y-91651800D01*
X129040600Y-91654872D01*
X129165082Y-91642612D01*
X129284780Y-91606302D01*
X129395094Y-91547337D01*
X129491785Y-91467985D01*
X129571137Y-91371294D01*
X129630102Y-91260980D01*
X129666412Y-91141282D01*
X129678672Y-91016800D01*
X129675600Y-90252550D01*
X129516850Y-90093800D01*
X128117600Y-90093800D01*
X127863600Y-90093800D01*
X126464350Y-90093800D01*
X126305600Y-90252550D01*
X126302528Y-91016800D01*
X119913472Y-91016800D01*
X119913472Y-90133200D01*
X121437328Y-90133200D01*
X121440400Y-90697450D01*
X121599150Y-90856200D01*
X122448400Y-90856200D01*
X122448400Y-89656950D01*
X122702400Y-89656950D01*
X122702400Y-90856200D01*
X123551650Y-90856200D01*
X123710400Y-90697450D01*
X123713472Y-90133200D01*
X123701212Y-90008718D01*
X123664902Y-89889020D01*
X123605937Y-89778706D01*
X123526585Y-89682015D01*
X123429894Y-89602663D01*
X123319580Y-89543698D01*
X123199882Y-89507388D01*
X123075400Y-89495128D01*
X122861150Y-89498200D01*
X122702400Y-89656950D01*
X122448400Y-89656950D01*
X122289650Y-89498200D01*
X122075400Y-89495128D01*
X121950918Y-89507388D01*
X121831220Y-89543698D01*
X121720906Y-89602663D01*
X121624215Y-89682015D01*
X121544863Y-89778706D01*
X121485898Y-89889020D01*
X121449588Y-90008718D01*
X121437328Y-90133200D01*
X119913472Y-90133200D01*
X119901212Y-90008718D01*
X119864902Y-89889020D01*
X119805937Y-89778706D01*
X119726585Y-89682015D01*
X119629894Y-89602663D01*
X119560400Y-89565517D01*
X119560400Y-88916800D01*
X126302528Y-88916800D01*
X126305600Y-89681050D01*
X126464350Y-89839800D01*
X127863600Y-89839800D01*
X127863600Y-89819800D01*
X128117600Y-89819800D01*
X128117600Y-89839800D01*
X129516850Y-89839800D01*
X129675600Y-89681050D01*
X129678672Y-88916800D01*
X129666412Y-88792318D01*
X129630102Y-88672620D01*
X129571137Y-88562306D01*
X129491785Y-88465615D01*
X129395094Y-88386263D01*
X129381054Y-88378758D01*
X129483828Y-88224947D01*
X129610846Y-87918296D01*
X129675600Y-87592758D01*
X129675600Y-87260842D01*
X129610846Y-86935304D01*
X129483828Y-86628653D01*
X129299425Y-86352675D01*
X129064725Y-86117975D01*
X128788747Y-85933572D01*
X128482096Y-85806554D01*
X128156558Y-85741800D01*
X127824642Y-85741800D01*
X127499104Y-85806554D01*
X127192453Y-85933572D01*
X126916475Y-86117975D01*
X126681775Y-86352675D01*
X126497372Y-86628653D01*
X126370354Y-86935304D01*
X126305600Y-87260842D01*
X126305600Y-87592758D01*
X126370354Y-87918296D01*
X126497372Y-88224947D01*
X126600146Y-88378758D01*
X126586106Y-88386263D01*
X126489415Y-88465615D01*
X126410063Y-88562306D01*
X126351098Y-88672620D01*
X126314788Y-88792318D01*
X126302528Y-88916800D01*
X119560400Y-88916800D01*
X119560400Y-86100883D01*
X119629894Y-86063737D01*
X119726585Y-85984385D01*
X119805937Y-85887694D01*
X119864902Y-85777380D01*
X119901212Y-85657682D01*
X119913472Y-85533200D01*
X121437328Y-85533200D01*
X121449588Y-85657682D01*
X121485898Y-85777380D01*
X121544863Y-85887694D01*
X121624215Y-85984385D01*
X121720906Y-86063737D01*
X121831220Y-86122702D01*
X121950918Y-86159012D01*
X122075400Y-86171272D01*
X122289650Y-86168200D01*
X122448400Y-86009450D01*
X122448400Y-84810200D01*
X122702400Y-84810200D01*
X122702400Y-86009450D01*
X122861150Y-86168200D01*
X123075400Y-86171272D01*
X123199882Y-86159012D01*
X123319580Y-86122702D01*
X123429894Y-86063737D01*
X123526585Y-85984385D01*
X123605937Y-85887694D01*
X123664902Y-85777380D01*
X123701212Y-85657682D01*
X123713472Y-85533200D01*
X123710400Y-84968950D01*
X123551650Y-84810200D01*
X122702400Y-84810200D01*
X122448400Y-84810200D01*
X121599150Y-84810200D01*
X121440400Y-84968950D01*
X121437328Y-85533200D01*
X119913472Y-85533200D01*
X119913472Y-83833200D01*
X121437328Y-83833200D01*
X121440400Y-84397450D01*
X121599150Y-84556200D01*
X122448400Y-84556200D01*
X122448400Y-83356950D01*
X122702400Y-83356950D01*
X122702400Y-84556200D01*
X123551650Y-84556200D01*
X123710400Y-84397450D01*
X123710915Y-84302732D01*
X126302528Y-84302732D01*
X126314788Y-84427214D01*
X126351098Y-84546912D01*
X126410063Y-84657226D01*
X126489415Y-84753917D01*
X126586106Y-84833269D01*
X126696420Y-84892234D01*
X126816118Y-84928544D01*
X126940600Y-84940804D01*
X127704850Y-84937732D01*
X127863600Y-84778982D01*
X127863600Y-83379732D01*
X128117600Y-83379732D01*
X128117600Y-84778982D01*
X128276350Y-84937732D01*
X129040600Y-84940804D01*
X129165082Y-84928544D01*
X129284780Y-84892234D01*
X129395094Y-84833269D01*
X129491785Y-84753917D01*
X129571137Y-84657226D01*
X129630102Y-84546912D01*
X129666412Y-84427214D01*
X129678672Y-84302732D01*
X129675600Y-83538482D01*
X129516850Y-83379732D01*
X128117600Y-83379732D01*
X127863600Y-83379732D01*
X126464350Y-83379732D01*
X126305600Y-83538482D01*
X126302528Y-84302732D01*
X123710915Y-84302732D01*
X123713472Y-83833200D01*
X123701212Y-83708718D01*
X123664902Y-83589020D01*
X123605937Y-83478706D01*
X123526585Y-83382015D01*
X123429894Y-83302663D01*
X123319580Y-83243698D01*
X123199882Y-83207388D01*
X123075400Y-83195128D01*
X122861150Y-83198200D01*
X122702400Y-83356950D01*
X122448400Y-83356950D01*
X122289650Y-83198200D01*
X122075400Y-83195128D01*
X121950918Y-83207388D01*
X121831220Y-83243698D01*
X121720906Y-83302663D01*
X121624215Y-83382015D01*
X121544863Y-83478706D01*
X121485898Y-83589020D01*
X121449588Y-83708718D01*
X121437328Y-83833200D01*
X119913472Y-83833200D01*
X119901212Y-83708718D01*
X119864902Y-83589020D01*
X119805937Y-83478706D01*
X119726585Y-83382015D01*
X119629894Y-83302663D01*
X119519580Y-83243698D01*
X119399882Y-83207388D01*
X119275400Y-83195128D01*
X118275400Y-83195128D01*
X118150918Y-83207388D01*
X118031220Y-83243698D01*
X117920906Y-83302663D01*
X117864616Y-83348859D01*
X117866883Y-83341386D01*
X117867641Y-83338888D01*
X117875003Y-83264140D01*
X117879000Y-83223561D01*
X117879000Y-83223554D01*
X117882797Y-83185001D01*
X117879000Y-83146448D01*
X117879000Y-82102255D01*
X117971706Y-82178337D01*
X118082020Y-82237302D01*
X118201718Y-82273612D01*
X118326200Y-82285872D01*
X119326200Y-82285872D01*
X119450682Y-82273612D01*
X119570380Y-82237302D01*
X119680694Y-82178337D01*
X119777385Y-82098985D01*
X119856737Y-82002294D01*
X119915702Y-81891980D01*
X119952012Y-81772282D01*
X119964272Y-81647800D01*
X121488128Y-81647800D01*
X121500388Y-81772282D01*
X121536698Y-81891980D01*
X121595663Y-82002294D01*
X121675015Y-82098985D01*
X121771706Y-82178337D01*
X121882020Y-82237302D01*
X122001718Y-82273612D01*
X122126200Y-82285872D01*
X122340450Y-82282800D01*
X122499200Y-82124050D01*
X122499200Y-80924800D01*
X122753200Y-80924800D01*
X122753200Y-82124050D01*
X122911950Y-82282800D01*
X123126200Y-82285872D01*
X123250682Y-82273612D01*
X123370380Y-82237302D01*
X123435054Y-82202732D01*
X126302528Y-82202732D01*
X126305600Y-82966982D01*
X126464350Y-83125732D01*
X127863600Y-83125732D01*
X127863600Y-83105732D01*
X128117600Y-83105732D01*
X128117600Y-83125732D01*
X129516850Y-83125732D01*
X129675600Y-82966982D01*
X129678672Y-82202732D01*
X129666412Y-82078250D01*
X129630102Y-81958552D01*
X129571137Y-81848238D01*
X129491785Y-81751547D01*
X129395094Y-81672195D01*
X129381054Y-81664690D01*
X129483828Y-81510879D01*
X129610846Y-81204228D01*
X129675600Y-80878690D01*
X129675600Y-80546774D01*
X129610846Y-80221236D01*
X129483828Y-79914585D01*
X129299425Y-79638607D01*
X129064725Y-79403907D01*
X128788747Y-79219504D01*
X128482096Y-79092486D01*
X128156558Y-79027732D01*
X127824642Y-79027732D01*
X127499104Y-79092486D01*
X127192453Y-79219504D01*
X126916475Y-79403907D01*
X126681775Y-79638607D01*
X126497372Y-79914585D01*
X126370354Y-80221236D01*
X126305600Y-80546774D01*
X126305600Y-80878690D01*
X126370354Y-81204228D01*
X126497372Y-81510879D01*
X126600146Y-81664690D01*
X126586106Y-81672195D01*
X126489415Y-81751547D01*
X126410063Y-81848238D01*
X126351098Y-81958552D01*
X126314788Y-82078250D01*
X126302528Y-82202732D01*
X123435054Y-82202732D01*
X123480694Y-82178337D01*
X123577385Y-82098985D01*
X123656737Y-82002294D01*
X123715702Y-81891980D01*
X123752012Y-81772282D01*
X123764272Y-81647800D01*
X123761200Y-81083550D01*
X123602450Y-80924800D01*
X122753200Y-80924800D01*
X122499200Y-80924800D01*
X121649950Y-80924800D01*
X121491200Y-81083550D01*
X121488128Y-81647800D01*
X119964272Y-81647800D01*
X119964272Y-79947800D01*
X121488128Y-79947800D01*
X121491200Y-80512050D01*
X121649950Y-80670800D01*
X122499200Y-80670800D01*
X122499200Y-79471550D01*
X122753200Y-79471550D01*
X122753200Y-80670800D01*
X123602450Y-80670800D01*
X123761200Y-80512050D01*
X123764272Y-79947800D01*
X123752012Y-79823318D01*
X123715702Y-79703620D01*
X123656737Y-79593306D01*
X123577385Y-79496615D01*
X123480694Y-79417263D01*
X123370380Y-79358298D01*
X123250682Y-79321988D01*
X123126200Y-79309728D01*
X122911950Y-79312800D01*
X122753200Y-79471550D01*
X122499200Y-79471550D01*
X122340450Y-79312800D01*
X122126200Y-79309728D01*
X122001718Y-79321988D01*
X121882020Y-79358298D01*
X121771706Y-79417263D01*
X121675015Y-79496615D01*
X121595663Y-79593306D01*
X121536698Y-79703620D01*
X121500388Y-79823318D01*
X121488128Y-79947800D01*
X119964272Y-79947800D01*
X119952012Y-79823318D01*
X119915702Y-79703620D01*
X119856737Y-79593306D01*
X119777385Y-79496615D01*
X119680694Y-79417263D01*
X119611200Y-79380117D01*
X119611200Y-75915483D01*
X119680694Y-75878337D01*
X119777385Y-75798985D01*
X119856737Y-75702294D01*
X119915702Y-75591980D01*
X119952012Y-75472282D01*
X119964272Y-75347800D01*
X121488128Y-75347800D01*
X121500388Y-75472282D01*
X121536698Y-75591980D01*
X121595663Y-75702294D01*
X121675015Y-75798985D01*
X121771706Y-75878337D01*
X121882020Y-75937302D01*
X122001718Y-75973612D01*
X122126200Y-75985872D01*
X122340450Y-75982800D01*
X122499200Y-75824050D01*
X122499200Y-74624800D01*
X122753200Y-74624800D01*
X122753200Y-75824050D01*
X122911950Y-75982800D01*
X123126200Y-75985872D01*
X123250682Y-75973612D01*
X123370380Y-75937302D01*
X123480694Y-75878337D01*
X123577385Y-75798985D01*
X123656737Y-75702294D01*
X123715702Y-75591980D01*
X123747041Y-75488666D01*
X126302528Y-75488666D01*
X126302528Y-77588666D01*
X126314788Y-77713148D01*
X126351098Y-77832846D01*
X126410063Y-77943160D01*
X126489415Y-78039851D01*
X126586106Y-78119203D01*
X126696420Y-78178168D01*
X126816118Y-78214478D01*
X126940600Y-78226738D01*
X129040600Y-78226738D01*
X129165082Y-78214478D01*
X129284780Y-78178168D01*
X129395094Y-78119203D01*
X129491785Y-78039851D01*
X129571137Y-77943160D01*
X129630102Y-77832846D01*
X129666412Y-77713148D01*
X129678672Y-77588666D01*
X129678672Y-75488666D01*
X129666412Y-75364184D01*
X129630102Y-75244486D01*
X129571137Y-75134172D01*
X129491785Y-75037481D01*
X129395094Y-74958129D01*
X129381054Y-74950624D01*
X129483828Y-74796813D01*
X129610846Y-74490162D01*
X129675600Y-74164624D01*
X129675600Y-73832708D01*
X129610846Y-73507170D01*
X129483828Y-73200519D01*
X129299425Y-72924541D01*
X129064725Y-72689841D01*
X128788747Y-72505438D01*
X128482096Y-72378420D01*
X128156558Y-72313666D01*
X127824642Y-72313666D01*
X127499104Y-72378420D01*
X127192453Y-72505438D01*
X126916475Y-72689841D01*
X126681775Y-72924541D01*
X126497372Y-73200519D01*
X126370354Y-73507170D01*
X126305600Y-73832708D01*
X126305600Y-74164624D01*
X126370354Y-74490162D01*
X126497372Y-74796813D01*
X126600146Y-74950624D01*
X126586106Y-74958129D01*
X126489415Y-75037481D01*
X126410063Y-75134172D01*
X126351098Y-75244486D01*
X126314788Y-75364184D01*
X126302528Y-75488666D01*
X123747041Y-75488666D01*
X123752012Y-75472282D01*
X123764272Y-75347800D01*
X123761200Y-74783550D01*
X123602450Y-74624800D01*
X122753200Y-74624800D01*
X122499200Y-74624800D01*
X121649950Y-74624800D01*
X121491200Y-74783550D01*
X121488128Y-75347800D01*
X119964272Y-75347800D01*
X119964272Y-73647800D01*
X121488128Y-73647800D01*
X121491200Y-74212050D01*
X121649950Y-74370800D01*
X122499200Y-74370800D01*
X122499200Y-73171550D01*
X122753200Y-73171550D01*
X122753200Y-74370800D01*
X123602450Y-74370800D01*
X123761200Y-74212050D01*
X123764272Y-73647800D01*
X123752012Y-73523318D01*
X123715702Y-73403620D01*
X123656737Y-73293306D01*
X123577385Y-73196615D01*
X123480694Y-73117263D01*
X123370380Y-73058298D01*
X123250682Y-73021988D01*
X123126200Y-73009728D01*
X122911950Y-73012800D01*
X122753200Y-73171550D01*
X122499200Y-73171550D01*
X122340450Y-73012800D01*
X122126200Y-73009728D01*
X122001718Y-73021988D01*
X121882020Y-73058298D01*
X121771706Y-73117263D01*
X121675015Y-73196615D01*
X121595663Y-73293306D01*
X121536698Y-73403620D01*
X121500388Y-73523318D01*
X121488128Y-73647800D01*
X119964272Y-73647800D01*
X119952012Y-73523318D01*
X119915702Y-73403620D01*
X119856737Y-73293306D01*
X119777385Y-73196615D01*
X119680694Y-73117263D01*
X119570380Y-73058298D01*
X119450682Y-73021988D01*
X119326200Y-73009728D01*
X118326200Y-73009728D01*
X118201718Y-73021988D01*
X118082020Y-73058298D01*
X117971706Y-73117263D01*
X117875015Y-73196615D01*
X117795663Y-73293306D01*
X117736698Y-73403620D01*
X117700388Y-73523318D01*
X117688128Y-73647800D01*
X117688128Y-74288000D01*
X115685457Y-74288000D01*
X115675037Y-74268506D01*
X115595685Y-74171815D01*
X115498994Y-74092463D01*
X115388680Y-74033498D01*
X115268982Y-73997188D01*
X115144500Y-73984928D01*
X115105588Y-73984928D01*
X115103000Y-73488550D01*
X114944250Y-73329800D01*
X113882500Y-73329800D01*
X113882500Y-73349800D01*
X113628500Y-73349800D01*
X113628500Y-73329800D01*
X112566750Y-73329800D01*
X112408000Y-73488550D01*
X112404928Y-74077800D01*
X112417188Y-74202282D01*
X112453498Y-74321980D01*
X112512463Y-74432294D01*
X112591815Y-74528985D01*
X112672506Y-74595206D01*
X112606274Y-74755102D01*
X112566500Y-74955061D01*
X112566500Y-75158939D01*
X112606274Y-75358898D01*
X112684295Y-75547256D01*
X112797563Y-75716774D01*
X112941726Y-75860937D01*
X113111244Y-75974205D01*
X113210394Y-76015275D01*
X113150320Y-76033498D01*
X113040006Y-76092463D01*
X112943315Y-76171815D01*
X112863963Y-76268506D01*
X112804998Y-76378820D01*
X112768688Y-76498518D01*
X112756428Y-76623000D01*
X112756428Y-77523000D01*
X112759025Y-77549368D01*
X112532845Y-77323188D01*
X112508264Y-77293236D01*
X112388733Y-77195138D01*
X112252360Y-77122246D01*
X112115029Y-77080587D01*
X112137812Y-77005482D01*
X112150072Y-76881000D01*
X112150072Y-76281000D01*
X112137812Y-76156518D01*
X112101502Y-76036820D01*
X112052957Y-75946000D01*
X112101502Y-75855180D01*
X112137812Y-75735482D01*
X112150072Y-75611000D01*
X112150072Y-75011000D01*
X112137812Y-74886518D01*
X112101502Y-74766820D01*
X112042537Y-74656506D01*
X111963185Y-74559815D01*
X111866494Y-74480463D01*
X111850973Y-74472167D01*
X111870962Y-74455762D01*
X111981405Y-74321186D01*
X112063472Y-74167650D01*
X112114008Y-74001054D01*
X112131072Y-73827800D01*
X112131072Y-72577800D01*
X112114447Y-72409000D01*
X112405351Y-72409000D01*
X112408000Y-72917050D01*
X112566750Y-73075800D01*
X113628500Y-73075800D01*
X113628500Y-73055800D01*
X113882500Y-73055800D01*
X113882500Y-73075800D01*
X114944250Y-73075800D01*
X115103000Y-72917050D01*
X115105649Y-72409000D01*
X118021439Y-72409000D01*
X118071557Y-72399031D01*
X118122395Y-72394024D01*
X118171277Y-72379196D01*
X118221398Y-72369226D01*
X118268613Y-72349669D01*
X118317493Y-72334841D01*
X118362542Y-72310762D01*
X118409756Y-72291205D01*
X118452246Y-72262814D01*
X118497297Y-72238734D01*
X118536784Y-72206328D01*
X118579274Y-72177937D01*
X118615408Y-72141803D01*
X118654896Y-72109396D01*
X118687303Y-72069908D01*
X118723437Y-72033774D01*
X118751828Y-71991284D01*
X118784234Y-71951797D01*
X118808314Y-71906746D01*
X118836705Y-71864256D01*
X118856262Y-71817042D01*
X118880341Y-71771993D01*
X118895169Y-71723113D01*
X118914726Y-71675898D01*
X118924696Y-71625777D01*
X118939524Y-71576895D01*
X118944531Y-71526057D01*
X118954500Y-71475939D01*
X118954500Y-71424838D01*
X118959507Y-71374000D01*
X118954500Y-71323162D01*
X118954500Y-71272061D01*
X118944531Y-71221943D01*
X118939524Y-71171105D01*
X118924696Y-71122223D01*
X118914726Y-71072102D01*
X118895169Y-71024887D01*
X118880341Y-70976007D01*
X118856262Y-70930958D01*
X118836705Y-70883744D01*
X118808314Y-70841254D01*
X118784234Y-70796203D01*
X118778702Y-70789461D01*
X122409000Y-70789461D01*
X122409000Y-70993339D01*
X122448774Y-71193298D01*
X122526795Y-71381656D01*
X122640063Y-71551174D01*
X122784226Y-71695337D01*
X122953744Y-71808605D01*
X123142102Y-71886626D01*
X123342061Y-71926400D01*
X123545939Y-71926400D01*
X123745898Y-71886626D01*
X123934256Y-71808605D01*
X124103774Y-71695337D01*
X124247937Y-71551174D01*
X124361205Y-71381656D01*
X124439226Y-71193298D01*
X124479000Y-70993339D01*
X124479000Y-70789461D01*
X124439226Y-70589502D01*
X124361205Y-70401144D01*
X124247937Y-70231626D01*
X124229000Y-70212689D01*
X124229000Y-70048157D01*
X126207558Y-68069600D01*
X126491926Y-68069600D01*
X126497372Y-68082747D01*
X126600146Y-68236558D01*
X126586106Y-68244063D01*
X126489415Y-68323415D01*
X126410063Y-68420106D01*
X126351098Y-68530420D01*
X126314788Y-68650118D01*
X126302528Y-68774600D01*
X126302528Y-70874600D01*
X126314788Y-70999082D01*
X126351098Y-71118780D01*
X126410063Y-71229094D01*
X126489415Y-71325785D01*
X126586106Y-71405137D01*
X126696420Y-71464102D01*
X126816118Y-71500412D01*
X126940600Y-71512672D01*
X129040600Y-71512672D01*
X129165082Y-71500412D01*
X129284780Y-71464102D01*
X129395094Y-71405137D01*
X129491785Y-71325785D01*
X129571137Y-71229094D01*
X129630102Y-71118780D01*
X129666412Y-70999082D01*
X129678672Y-70874600D01*
X129678672Y-68774600D01*
X129666412Y-68650118D01*
X129630102Y-68530420D01*
X129571137Y-68420106D01*
X129491785Y-68323415D01*
X129395094Y-68244063D01*
X129381054Y-68236558D01*
X129483828Y-68082747D01*
X129610846Y-67776096D01*
X129675600Y-67450558D01*
X129675600Y-67118642D01*
X129610846Y-66793104D01*
X129483828Y-66486453D01*
X129299425Y-66210475D01*
X129064725Y-65975775D01*
X128788747Y-65791372D01*
X128482096Y-65664354D01*
X128156558Y-65599600D01*
X127824642Y-65599600D01*
X127499104Y-65664354D01*
X127192453Y-65791372D01*
X126916475Y-65975775D01*
X126681775Y-66210475D01*
X126497372Y-66486453D01*
X126491926Y-66499600D01*
X125920952Y-66499600D01*
X125882399Y-66495803D01*
X125843846Y-66499600D01*
X125843839Y-66499600D01*
X125742890Y-66509543D01*
X125728512Y-66510959D01*
X125694072Y-66521406D01*
X125580540Y-66555846D01*
X125444167Y-66628738D01*
X125383959Y-66678150D01*
X125354587Y-66702255D01*
X125354584Y-66702258D01*
X125324636Y-66726836D01*
X125300058Y-66756784D01*
X122916185Y-69140658D01*
X122886237Y-69165236D01*
X122861659Y-69195184D01*
X122861655Y-69195188D01*
X122829313Y-69234597D01*
X122788139Y-69284767D01*
X122760179Y-69337078D01*
X122715246Y-69421141D01*
X122670359Y-69569114D01*
X122655203Y-69723000D01*
X122659001Y-69761562D01*
X122659001Y-70212688D01*
X122640063Y-70231626D01*
X122526795Y-70401144D01*
X122448774Y-70589502D01*
X122409000Y-70789461D01*
X118778702Y-70789461D01*
X118751828Y-70756716D01*
X118723437Y-70714226D01*
X118687303Y-70678092D01*
X118654896Y-70638604D01*
X118615408Y-70606197D01*
X118579274Y-70570063D01*
X118536784Y-70541672D01*
X118497297Y-70509266D01*
X118452246Y-70485186D01*
X118409756Y-70456795D01*
X118362542Y-70437238D01*
X118317493Y-70413159D01*
X118268613Y-70398331D01*
X118221398Y-70378774D01*
X118171277Y-70368804D01*
X118122395Y-70353976D01*
X118071557Y-70348969D01*
X118021439Y-70339000D01*
X111566335Y-70339000D01*
X111515500Y-70333993D01*
X111464665Y-70339000D01*
X111464662Y-70339000D01*
X111312605Y-70353976D01*
X111117507Y-70413159D01*
X111045301Y-70451754D01*
X110937702Y-70509266D01*
X110851273Y-70580197D01*
X110780104Y-70638604D01*
X110747697Y-70678092D01*
X110057597Y-71368193D01*
X110018104Y-71400604D01*
X109910104Y-71532203D01*
X109888766Y-71558203D01*
X109792660Y-71738007D01*
X109741117Y-71907919D01*
X109690038Y-71949838D01*
X109579595Y-72084414D01*
X109497528Y-72237950D01*
X109446992Y-72404546D01*
X109429928Y-72577800D01*
X109429928Y-73827800D01*
X109446992Y-74001054D01*
X109497528Y-74167650D01*
X109579595Y-74321186D01*
X109690038Y-74455762D01*
X109695434Y-74460190D01*
X109657506Y-74480463D01*
X109560815Y-74559815D01*
X109481463Y-74656506D01*
X109422498Y-74766820D01*
X109386188Y-74886518D01*
X109373928Y-75011000D01*
X109373928Y-75611000D01*
X109386188Y-75735482D01*
X109422498Y-75855180D01*
X109471043Y-75946000D01*
X109422498Y-76036820D01*
X109386188Y-76156518D01*
X109373928Y-76281000D01*
X109373928Y-76881000D01*
X109386188Y-77005482D01*
X109422498Y-77125180D01*
X109471043Y-77216000D01*
X109422498Y-77306820D01*
X109386188Y-77426518D01*
X109373928Y-77551000D01*
X109373928Y-78151000D01*
X109386188Y-78275482D01*
X109422498Y-78395180D01*
X109471043Y-78486000D01*
X109422498Y-78576820D01*
X109386188Y-78696518D01*
X109373928Y-78821000D01*
X109373928Y-79421000D01*
X109386188Y-79545482D01*
X109422498Y-79665180D01*
X109471043Y-79756000D01*
X109422498Y-79846820D01*
X109386188Y-79966518D01*
X109373928Y-80091000D01*
X109373928Y-80691000D01*
X109386188Y-80815482D01*
X109422498Y-80935180D01*
X109471043Y-81026000D01*
X109422498Y-81116820D01*
X109386188Y-81236518D01*
X109373928Y-81361000D01*
X109373928Y-81961000D01*
X109386188Y-82085482D01*
X109422498Y-82205180D01*
X109471043Y-82296000D01*
X109422498Y-82386820D01*
X109386188Y-82506518D01*
X109373928Y-82631000D01*
X109373928Y-83231000D01*
X109386188Y-83355482D01*
X109422498Y-83475180D01*
X109471043Y-83566000D01*
X109422498Y-83656820D01*
X109386188Y-83776518D01*
X109373928Y-83901000D01*
X109373928Y-84006771D01*
X107770347Y-82403190D01*
X107745764Y-82373236D01*
X107626233Y-82275138D01*
X107489860Y-82202246D01*
X107341887Y-82157359D01*
X107332302Y-82156415D01*
X107335123Y-82127768D01*
X107338000Y-82098563D01*
X107338000Y-82098558D01*
X107341797Y-82060002D01*
X107338000Y-82021446D01*
X107338000Y-80683552D01*
X107341797Y-80644999D01*
X107338000Y-80606446D01*
X107338000Y-80606439D01*
X107326641Y-80491113D01*
X107281754Y-80343140D01*
X107208862Y-80206767D01*
X107110764Y-80087236D01*
X107080811Y-80062654D01*
X106881347Y-79863190D01*
X106856764Y-79833236D01*
X106737233Y-79735138D01*
X106680358Y-79704738D01*
X106701502Y-79665180D01*
X106737812Y-79545482D01*
X106750072Y-79421000D01*
X106750072Y-78821000D01*
X106737812Y-78696518D01*
X106719454Y-78636000D01*
X107047847Y-78636000D01*
X107086400Y-78639797D01*
X107124953Y-78636000D01*
X107124961Y-78636000D01*
X107240287Y-78624641D01*
X107388260Y-78579754D01*
X107524633Y-78506862D01*
X107644164Y-78408764D01*
X107668747Y-78378810D01*
X108096811Y-77950746D01*
X108126764Y-77926164D01*
X108224862Y-77806633D01*
X108297754Y-77670260D01*
X108335450Y-77545992D01*
X108342641Y-77522288D01*
X108347576Y-77472180D01*
X108354000Y-77406961D01*
X108354000Y-77406954D01*
X108357797Y-77368401D01*
X108354000Y-77329848D01*
X108354000Y-71920552D01*
X108357797Y-71881999D01*
X108354000Y-71843446D01*
X108354000Y-71843439D01*
X108342641Y-71728113D01*
X108342201Y-71726660D01*
X108312522Y-71628824D01*
X108297754Y-71580140D01*
X108224862Y-71443767D01*
X108126764Y-71324236D01*
X108096810Y-71299653D01*
X107694147Y-70896990D01*
X107669564Y-70867036D01*
X107550033Y-70768938D01*
X107413660Y-70696046D01*
X107319818Y-70667579D01*
X107313772Y-70647649D01*
X107231705Y-70494113D01*
X107121262Y-70359538D01*
X106986687Y-70249095D01*
X106833151Y-70167028D01*
X106666555Y-70116492D01*
X106493301Y-70099428D01*
X105843299Y-70099428D01*
X105670045Y-70116492D01*
X105503449Y-70167028D01*
X105349913Y-70249095D01*
X105215338Y-70359538D01*
X105143300Y-70447316D01*
X105071262Y-70359538D01*
X104936687Y-70249095D01*
X104783151Y-70167028D01*
X104616555Y-70116492D01*
X104443301Y-70099428D01*
X103793299Y-70099428D01*
X103620045Y-70116492D01*
X103453449Y-70167028D01*
X103299913Y-70249095D01*
X103165338Y-70359538D01*
X103054895Y-70494113D01*
X102972828Y-70647649D01*
X102922292Y-70814245D01*
X102911825Y-70920515D01*
X102477340Y-71355000D01*
X102450559Y-71355000D01*
X102250600Y-71394774D01*
X102062242Y-71472795D01*
X101892724Y-71586063D01*
X101748561Y-71730226D01*
X101635293Y-71899744D01*
X101557272Y-72088102D01*
X101517498Y-72288061D01*
X101517498Y-72491939D01*
X101557272Y-72691898D01*
X101635293Y-72880256D01*
X101748561Y-73049774D01*
X101892724Y-73193937D01*
X102062242Y-73307205D01*
X102250600Y-73385226D01*
X102386792Y-73412316D01*
X102314106Y-73426774D01*
X102125748Y-73504795D01*
X101956230Y-73618063D01*
X101812067Y-73762226D01*
X101698799Y-73931744D01*
X101620778Y-74120102D01*
X101581004Y-74320061D01*
X101581004Y-74523939D01*
X101618320Y-74711541D01*
X101595502Y-74636320D01*
X101536537Y-74526006D01*
X101457185Y-74429315D01*
X101360494Y-74349963D01*
X101250180Y-74290998D01*
X101130482Y-74254688D01*
X101006000Y-74242428D01*
X100579250Y-74245500D01*
X100420500Y-74404250D01*
X100420500Y-75628500D01*
X101482250Y-75628500D01*
X101641000Y-75469750D01*
X101644072Y-74880500D01*
X101631812Y-74756018D01*
X101625599Y-74735538D01*
X101698799Y-74912256D01*
X101812067Y-75081774D01*
X101956230Y-75225937D01*
X102125748Y-75339205D01*
X102314106Y-75417226D01*
X102514065Y-75457000D01*
X102717943Y-75457000D01*
X102917902Y-75417226D01*
X103106260Y-75339205D01*
X103275778Y-75225937D01*
X103419941Y-75081774D01*
X103533209Y-74912256D01*
X103611070Y-74724285D01*
X103620045Y-74727008D01*
X103793299Y-74744072D01*
X104034657Y-74744072D01*
X104022498Y-74766820D01*
X103986188Y-74886518D01*
X103973928Y-75011000D01*
X103977000Y-75025250D01*
X104135750Y-75184000D01*
X105235000Y-75184000D01*
X105235000Y-75164000D01*
X105489000Y-75164000D01*
X105489000Y-75184000D01*
X105509000Y-75184000D01*
X105509000Y-75438000D01*
X105489000Y-75438000D01*
X105489000Y-75458000D01*
X105235000Y-75458000D01*
X105235000Y-75438000D01*
X104135750Y-75438000D01*
X103977000Y-75596750D01*
X103973928Y-75611000D01*
X103986188Y-75735482D01*
X104022498Y-75855180D01*
X104071043Y-75946000D01*
X104022498Y-76036820D01*
X103986188Y-76156518D01*
X103973928Y-76281000D01*
X103973928Y-76881000D01*
X103986188Y-77005482D01*
X104022498Y-77125180D01*
X104071043Y-77216000D01*
X104022498Y-77306820D01*
X103986188Y-77426518D01*
X103973928Y-77551000D01*
X103973928Y-77643245D01*
X103913754Y-77624992D01*
X103740500Y-77607928D01*
X102815500Y-77607928D01*
X102642246Y-77624992D01*
X102475650Y-77675528D01*
X102322114Y-77757595D01*
X102187538Y-77868038D01*
X102077095Y-78002614D01*
X101995028Y-78156150D01*
X101944492Y-78322746D01*
X101927428Y-78496000D01*
X101927428Y-79007861D01*
X101589520Y-79345770D01*
X101491750Y-79248000D01*
X100430000Y-79248000D01*
X100430000Y-80472250D01*
X100446520Y-80488770D01*
X96874489Y-84060801D01*
X95236830Y-84060801D01*
X98081641Y-81215991D01*
X98124949Y-81180449D01*
X98266784Y-81007623D01*
X98372176Y-80810447D01*
X98437077Y-80596499D01*
X98453500Y-80429752D01*
X98453500Y-80429743D01*
X98458990Y-80374001D01*
X98453500Y-80318259D01*
X98453500Y-79996000D01*
X98952428Y-79996000D01*
X98964688Y-80120482D01*
X99000998Y-80240180D01*
X99059963Y-80350494D01*
X99139315Y-80447185D01*
X99236006Y-80526537D01*
X99346320Y-80585502D01*
X99466018Y-80621812D01*
X99590500Y-80634072D01*
X100017250Y-80631000D01*
X100176000Y-80472250D01*
X100176000Y-79248000D01*
X99114250Y-79248000D01*
X98955500Y-79406750D01*
X98952428Y-79996000D01*
X98453500Y-79996000D01*
X98453500Y-78246000D01*
X98952428Y-78246000D01*
X98955500Y-78835250D01*
X99114250Y-78994000D01*
X100176000Y-78994000D01*
X100176000Y-77769750D01*
X100430000Y-77769750D01*
X100430000Y-78994000D01*
X101491750Y-78994000D01*
X101650500Y-78835250D01*
X101653572Y-78246000D01*
X101641312Y-78121518D01*
X101605002Y-78001820D01*
X101546037Y-77891506D01*
X101466685Y-77794815D01*
X101369994Y-77715463D01*
X101259680Y-77656498D01*
X101139982Y-77620188D01*
X101015500Y-77607928D01*
X100588750Y-77611000D01*
X100430000Y-77769750D01*
X100176000Y-77769750D01*
X100017250Y-77611000D01*
X99590500Y-77607928D01*
X99466018Y-77620188D01*
X99346320Y-77656498D01*
X99236006Y-77715463D01*
X99139315Y-77794815D01*
X99059963Y-77891506D01*
X99000998Y-78001820D01*
X98964688Y-78121518D01*
X98952428Y-78246000D01*
X98453500Y-78246000D01*
X98453500Y-76954192D01*
X98519405Y-76873886D01*
X98601472Y-76720350D01*
X98628727Y-76630500D01*
X98942928Y-76630500D01*
X98955188Y-76754982D01*
X98991498Y-76874680D01*
X99050463Y-76984994D01*
X99129815Y-77081685D01*
X99226506Y-77161037D01*
X99336820Y-77220002D01*
X99456518Y-77256312D01*
X99581000Y-77268572D01*
X100007750Y-77265500D01*
X100166500Y-77106750D01*
X100166500Y-75882500D01*
X100420500Y-75882500D01*
X100420500Y-77106750D01*
X100579250Y-77265500D01*
X101006000Y-77268572D01*
X101130482Y-77256312D01*
X101250180Y-77220002D01*
X101360494Y-77161037D01*
X101457185Y-77081685D01*
X101536537Y-76984994D01*
X101595502Y-76874680D01*
X101631812Y-76754982D01*
X101644072Y-76630500D01*
X101641000Y-76041250D01*
X101482250Y-75882500D01*
X100420500Y-75882500D01*
X100166500Y-75882500D01*
X99104750Y-75882500D01*
X98946000Y-76041250D01*
X98942928Y-76630500D01*
X98628727Y-76630500D01*
X98652008Y-76553754D01*
X98669072Y-76380500D01*
X98669072Y-75130500D01*
X98652008Y-74957246D01*
X98628728Y-74880500D01*
X98942928Y-74880500D01*
X98946000Y-75469750D01*
X99104750Y-75628500D01*
X100166500Y-75628500D01*
X100166500Y-74404250D01*
X100007750Y-74245500D01*
X99581000Y-74242428D01*
X99456518Y-74254688D01*
X99336820Y-74290998D01*
X99226506Y-74349963D01*
X99129815Y-74429315D01*
X99050463Y-74526006D01*
X98991498Y-74636320D01*
X98955188Y-74756018D01*
X98942928Y-74880500D01*
X98628728Y-74880500D01*
X98601472Y-74790650D01*
X98519405Y-74637114D01*
X98453500Y-74556808D01*
X98453500Y-74109540D01*
X98513037Y-74036994D01*
X98572002Y-73926680D01*
X98608312Y-73806982D01*
X98620572Y-73682500D01*
X98620572Y-71682500D01*
X98608312Y-71558018D01*
X98572002Y-71438320D01*
X98513037Y-71328006D01*
X98433685Y-71231315D01*
X98336994Y-71151963D01*
X98226680Y-71092998D01*
X98106982Y-71056688D01*
X97982500Y-71044428D01*
X97144883Y-71044428D01*
X97151911Y-71037400D01*
X97485539Y-71037400D01*
X97535657Y-71027431D01*
X97586495Y-71022424D01*
X97635377Y-71007596D01*
X97685498Y-70997626D01*
X97732713Y-70978069D01*
X97781593Y-70963241D01*
X97826642Y-70939162D01*
X97873856Y-70919605D01*
X97916346Y-70891214D01*
X97961397Y-70867134D01*
X98000884Y-70834728D01*
X98043374Y-70806337D01*
X98079508Y-70770203D01*
X98118996Y-70737796D01*
X98151403Y-70698308D01*
X98187537Y-70662174D01*
X98215928Y-70619684D01*
X98248334Y-70580197D01*
X98272414Y-70535146D01*
X98300805Y-70492656D01*
X98320362Y-70445442D01*
X98344441Y-70400393D01*
X98359269Y-70351513D01*
X98378826Y-70304298D01*
X98388796Y-70254177D01*
X98403624Y-70205295D01*
X98408631Y-70154457D01*
X98418600Y-70104339D01*
X98418600Y-70053238D01*
X98423607Y-70002400D01*
X98418600Y-69951562D01*
X98418600Y-69900461D01*
X98408631Y-69850343D01*
X98403624Y-69799505D01*
X98388796Y-69750623D01*
X98378826Y-69700502D01*
X98359269Y-69653287D01*
X98344441Y-69604407D01*
X98320362Y-69559358D01*
X98300805Y-69512144D01*
X98272414Y-69469654D01*
X98248334Y-69424603D01*
X98215928Y-69385116D01*
X98187537Y-69342626D01*
X98151403Y-69306492D01*
X98118996Y-69267004D01*
X98079508Y-69234597D01*
X98043374Y-69198463D01*
X98000884Y-69170072D01*
X97961397Y-69137666D01*
X97916346Y-69113586D01*
X97873856Y-69085195D01*
X97826642Y-69065638D01*
X97781593Y-69041559D01*
X97732713Y-69026731D01*
X97685498Y-69007174D01*
X97635377Y-68997204D01*
X97586495Y-68982376D01*
X97535657Y-68977369D01*
X97485539Y-68967400D01*
X96774035Y-68967400D01*
X96723200Y-68962393D01*
X96672365Y-68967400D01*
X96672362Y-68967400D01*
X96520305Y-68982376D01*
X96325207Y-69041559D01*
X96277352Y-69067138D01*
X96145402Y-69137666D01*
X96027292Y-69234597D01*
X95987804Y-69267004D01*
X95967500Y-69291745D01*
X95967500Y-68020572D01*
X96832500Y-68020572D01*
X96956982Y-68008312D01*
X97076680Y-67972002D01*
X97186994Y-67913037D01*
X97283685Y-67833685D01*
X97363037Y-67736994D01*
X97422002Y-67626680D01*
X97458312Y-67506982D01*
X97470572Y-67382500D01*
X97470572Y-65382500D01*
X97458312Y-65258018D01*
X97422002Y-65138320D01*
X97363037Y-65028006D01*
X97283685Y-64931315D01*
X97186994Y-64851963D01*
X97076680Y-64792998D01*
X96956982Y-64756688D01*
X96832500Y-64744428D01*
X93032500Y-64744428D01*
X92908018Y-64756688D01*
X92788320Y-64792998D01*
X92678006Y-64851963D01*
X92581315Y-64931315D01*
X92501963Y-65028006D01*
X92442998Y-65138320D01*
X92406688Y-65258018D01*
X92394428Y-65382500D01*
X92394428Y-67382500D01*
X92406688Y-67506982D01*
X92442998Y-67626680D01*
X92501963Y-67736994D01*
X92581315Y-67833685D01*
X92678006Y-67913037D01*
X92788320Y-67972002D01*
X92908018Y-68008312D01*
X93032500Y-68020572D01*
X93897501Y-68020572D01*
X93897500Y-69704000D01*
X91681335Y-69704000D01*
X91630500Y-69698993D01*
X91579664Y-69704000D01*
X91579662Y-69704000D01*
X91456076Y-69716172D01*
X91422905Y-69654114D01*
X91312462Y-69519538D01*
X91177886Y-69409095D01*
X91024350Y-69327028D01*
X90857754Y-69276492D01*
X90684500Y-69259428D01*
X86734500Y-69259428D01*
X86561246Y-69276492D01*
X86394650Y-69327028D01*
X86241114Y-69409095D01*
X86106538Y-69519538D01*
X85996095Y-69654114D01*
X85914028Y-69807650D01*
X85863492Y-69974246D01*
X85846428Y-70147500D01*
X85846428Y-72847500D01*
X85863492Y-73020754D01*
X85914028Y-73187350D01*
X85996095Y-73340886D01*
X86106538Y-73475462D01*
X86241114Y-73585905D01*
X86394650Y-73667972D01*
X86561246Y-73718508D01*
X86734500Y-73735572D01*
X87689443Y-73735572D01*
X87689476Y-73735904D01*
X87748659Y-73931002D01*
X87833606Y-74089928D01*
X86933200Y-74089928D01*
X86808718Y-74102188D01*
X86689020Y-74138498D01*
X86578706Y-74197463D01*
X86482015Y-74276815D01*
X86402663Y-74373506D01*
X86343698Y-74483820D01*
X86307388Y-74603518D01*
X86295128Y-74728000D01*
X86295128Y-75020869D01*
X86278577Y-75029716D01*
X86105751Y-75171551D01*
X86070209Y-75214859D01*
X84233370Y-77051699D01*
X84225667Y-77058021D01*
X84075514Y-76934794D01*
X84058126Y-76925500D01*
X84075514Y-76916206D01*
X84301634Y-76730634D01*
X84487206Y-76504514D01*
X84625099Y-76246534D01*
X84710013Y-75966611D01*
X84738685Y-75675500D01*
X84710013Y-75384389D01*
X84625099Y-75104466D01*
X84487206Y-74846486D01*
X84301634Y-74620366D01*
X84075514Y-74434794D01*
X84058126Y-74425500D01*
X84075514Y-74416206D01*
X84301634Y-74230634D01*
X84487206Y-74004514D01*
X84625099Y-73746534D01*
X84710013Y-73466611D01*
X84738685Y-73175500D01*
X84710013Y-72884389D01*
X84625099Y-72604466D01*
X84487206Y-72346486D01*
X84301634Y-72120366D01*
X84238193Y-72068302D01*
X84339931Y-72013922D01*
X84474491Y-71903491D01*
X84584922Y-71768931D01*
X84666979Y-71615412D01*
X84717510Y-71448835D01*
X84734572Y-71275600D01*
X84734572Y-70075400D01*
X84717510Y-69902165D01*
X84666979Y-69735588D01*
X84584922Y-69582069D01*
X84474491Y-69447509D01*
X84339931Y-69337078D01*
X84186412Y-69255021D01*
X84019835Y-69204490D01*
X83846600Y-69187428D01*
X82396400Y-69187428D01*
X82223165Y-69204490D01*
X82056588Y-69255021D01*
X81903069Y-69337078D01*
X81768509Y-69447509D01*
X81658078Y-69582069D01*
X81576021Y-69735588D01*
X81525490Y-69902165D01*
X81508428Y-70075400D01*
X81508428Y-71275600D01*
X81525490Y-71448835D01*
X81576021Y-71615412D01*
X81658078Y-71768931D01*
X81768509Y-71903491D01*
X81903069Y-72013922D01*
X82004807Y-72068302D01*
X81941366Y-72120366D01*
X81755794Y-72346486D01*
X81617901Y-72604466D01*
X81532987Y-72884389D01*
X81504315Y-73175500D01*
X81532987Y-73466611D01*
X81617901Y-73746534D01*
X81755794Y-74004514D01*
X81941366Y-74230634D01*
X82167486Y-74416206D01*
X82184874Y-74425500D01*
X82167486Y-74434794D01*
X81941366Y-74620366D01*
X81755794Y-74846486D01*
X81617901Y-75104466D01*
X81532987Y-75384389D01*
X81504315Y-75675500D01*
X81532987Y-75966611D01*
X81617901Y-76246534D01*
X81755794Y-76504514D01*
X81941366Y-76730634D01*
X82167486Y-76916206D01*
X82184874Y-76925500D01*
X82167486Y-76934794D01*
X81941366Y-77120366D01*
X81755794Y-77346486D01*
X81617901Y-77604466D01*
X81532987Y-77884389D01*
X81504315Y-78175500D01*
X81532987Y-78466611D01*
X81617901Y-78746534D01*
X81755794Y-79004514D01*
X81941366Y-79230634D01*
X82167486Y-79416206D01*
X82184874Y-79425500D01*
X82167486Y-79434794D01*
X81941366Y-79620366D01*
X81755794Y-79846486D01*
X81617901Y-80104466D01*
X81532987Y-80384389D01*
X81504315Y-80675500D01*
X81532987Y-80966611D01*
X81617901Y-81246534D01*
X81755794Y-81504514D01*
X81941366Y-81730634D01*
X82167486Y-81916206D01*
X82425466Y-82054099D01*
X82705389Y-82139013D01*
X82923550Y-82160500D01*
X83319450Y-82160500D01*
X83537611Y-82139013D01*
X83817534Y-82054099D01*
X84075514Y-81916206D01*
X84301634Y-81730634D01*
X84487206Y-81504514D01*
X84625099Y-81246534D01*
X84710013Y-80966611D01*
X84729089Y-80772930D01*
X85759656Y-79742364D01*
X85802959Y-79706826D01*
X85847796Y-79652193D01*
X85944794Y-79534000D01*
X86050186Y-79336824D01*
X86115087Y-79122876D01*
X86137001Y-78900377D01*
X86131510Y-78844625D01*
X86131510Y-78363821D01*
X86681727Y-77813604D01*
X86689020Y-77817502D01*
X86808718Y-77853812D01*
X86933200Y-77866072D01*
X88733200Y-77866072D01*
X88857682Y-77853812D01*
X88977380Y-77817502D01*
X89087694Y-77758537D01*
X89184385Y-77679185D01*
X89205511Y-77653443D01*
X90495500Y-78943432D01*
X90495501Y-80923928D01*
X89880500Y-80923928D01*
X89756018Y-80936188D01*
X89636320Y-80972498D01*
X89526006Y-81031463D01*
X89429315Y-81110815D01*
X89371272Y-81181541D01*
X89371272Y-78728000D01*
X89359012Y-78603518D01*
X89322702Y-78483820D01*
X89263737Y-78373506D01*
X89184385Y-78276815D01*
X89087694Y-78197463D01*
X88977380Y-78138498D01*
X88857682Y-78102188D01*
X88733200Y-78089928D01*
X86933200Y-78089928D01*
X86808718Y-78102188D01*
X86689020Y-78138498D01*
X86578706Y-78197463D01*
X86482015Y-78276815D01*
X86402663Y-78373506D01*
X86343698Y-78483820D01*
X86307388Y-78603518D01*
X86295128Y-78728000D01*
X86295128Y-81228000D01*
X86307388Y-81352482D01*
X86343698Y-81472180D01*
X86402663Y-81582494D01*
X86482015Y-81679185D01*
X86578706Y-81758537D01*
X86689020Y-81817502D01*
X86808718Y-81853812D01*
X86933200Y-81866072D01*
X87048201Y-81866072D01*
X87048200Y-86238042D01*
X86661743Y-86624500D01*
X84510124Y-86624500D01*
X84509500Y-86532750D01*
X84350750Y-86374000D01*
X82951500Y-86374000D01*
X82951500Y-86394000D01*
X82697500Y-86394000D01*
X82697500Y-86374000D01*
X82677500Y-86374000D01*
X82677500Y-86120000D01*
X82697500Y-86120000D01*
X82697500Y-85033250D01*
X82951500Y-85033250D01*
X82951500Y-86120000D01*
X84350750Y-86120000D01*
X84509500Y-85961250D01*
X84512572Y-85509500D01*
X84500312Y-85385018D01*
X84464002Y-85265320D01*
X84405037Y-85155006D01*
X84325685Y-85058315D01*
X84228994Y-84978963D01*
X84118680Y-84919998D01*
X83998982Y-84883688D01*
X83874500Y-84871428D01*
X83110250Y-84874500D01*
X82951500Y-85033250D01*
X82697500Y-85033250D01*
X82538750Y-84874500D01*
X82111684Y-84872783D01*
X82112572Y-84612000D01*
X82100312Y-84487518D01*
X82064002Y-84367820D01*
X82005037Y-84257506D01*
X81925685Y-84160815D01*
X81828994Y-84081463D01*
X81718680Y-84022498D01*
X81598982Y-83986188D01*
X81474500Y-83973928D01*
X80810250Y-83977000D01*
X80651500Y-84135750D01*
X80651500Y-85672500D01*
X80671500Y-85672500D01*
X80671500Y-85926500D01*
X80651500Y-85926500D01*
X80651500Y-87742500D01*
X80671500Y-87742500D01*
X80671500Y-87996500D01*
X80651500Y-87996500D01*
X80651500Y-89422500D01*
X80671500Y-89422500D01*
X80671500Y-89676500D01*
X80651500Y-89676500D01*
X80651500Y-91492500D01*
X80671500Y-91492500D01*
X80671500Y-91746500D01*
X80651500Y-91746500D01*
X80651500Y-91766500D01*
X80397500Y-91766500D01*
X80397500Y-91746500D01*
X80377500Y-91746500D01*
X80377500Y-91492500D01*
X80397500Y-91492500D01*
X80397500Y-89676500D01*
X80377500Y-89676500D01*
X80377500Y-89422500D01*
X80397500Y-89422500D01*
X80397500Y-87996500D01*
X80377500Y-87996500D01*
X80377500Y-87742500D01*
X80397500Y-87742500D01*
X80397500Y-85926500D01*
X80377500Y-85926500D01*
X80377500Y-85672500D01*
X80397500Y-85672500D01*
X80397500Y-84135750D01*
X80238750Y-83977000D01*
X79678600Y-83974409D01*
X79678600Y-67897500D01*
X85846428Y-67897500D01*
X85858688Y-68021982D01*
X85894998Y-68141680D01*
X85953963Y-68251994D01*
X86033315Y-68348685D01*
X86130006Y-68428037D01*
X86240320Y-68487002D01*
X86360018Y-68523312D01*
X86484500Y-68535572D01*
X88423750Y-68532500D01*
X88582500Y-68373750D01*
X88582500Y-66424500D01*
X88836500Y-66424500D01*
X88836500Y-68373750D01*
X88995250Y-68532500D01*
X90934500Y-68535572D01*
X91058982Y-68523312D01*
X91178680Y-68487002D01*
X91288994Y-68428037D01*
X91385685Y-68348685D01*
X91465037Y-68251994D01*
X91524002Y-68141680D01*
X91560312Y-68021982D01*
X91572572Y-67897500D01*
X91569500Y-66583250D01*
X91410750Y-66424500D01*
X88836500Y-66424500D01*
X88582500Y-66424500D01*
X86008250Y-66424500D01*
X85849500Y-66583250D01*
X85846428Y-67897500D01*
X79678600Y-67897500D01*
X79678600Y-64464000D01*
X85891758Y-64464000D01*
X85858688Y-64573018D01*
G36*
X92759500Y-72555500D02*
G01*
X92779500Y-72555500D01*
X92779500Y-72809500D01*
X92759500Y-72809500D01*
X92759500Y-74158750D01*
X92918250Y-74317500D01*
X93382500Y-74320572D01*
X93506982Y-74308312D01*
X93626680Y-74272002D01*
X93736994Y-74213037D01*
X93782500Y-74175691D01*
X93828006Y-74213037D01*
X93938320Y-74272002D01*
X94058018Y-74308312D01*
X94182500Y-74320572D01*
X95682500Y-74320572D01*
X95806982Y-74308312D01*
X95926680Y-74272002D01*
X96036994Y-74213037D01*
X96082500Y-74175691D01*
X96128006Y-74213037D01*
X96183501Y-74242700D01*
X96183500Y-74556808D01*
X96117595Y-74637114D01*
X96035528Y-74790650D01*
X95984992Y-74957246D01*
X95967928Y-75130500D01*
X95967928Y-76380500D01*
X95984992Y-76553754D01*
X96035528Y-76720350D01*
X96117595Y-76873886D01*
X96183500Y-76954192D01*
X96183501Y-79903867D01*
X94018572Y-82068797D01*
X94018572Y-81562000D01*
X94006312Y-81437518D01*
X93970002Y-81317820D01*
X93911037Y-81207506D01*
X93831685Y-81110815D01*
X93734994Y-81031463D01*
X93624680Y-80972498D01*
X93504982Y-80936188D01*
X93380500Y-80923928D01*
X92765500Y-80923928D01*
X92765500Y-78529051D01*
X92770991Y-78473299D01*
X92749077Y-78250801D01*
X92684176Y-78036853D01*
X92665875Y-78002614D01*
X92578784Y-77839677D01*
X92436949Y-77666851D01*
X92393641Y-77631309D01*
X90458424Y-75696093D01*
X90493247Y-75672825D01*
X90538298Y-75648745D01*
X90577785Y-75616339D01*
X90620275Y-75587948D01*
X90656409Y-75551814D01*
X90695897Y-75519407D01*
X90728304Y-75479919D01*
X90764438Y-75443785D01*
X90792829Y-75401295D01*
X90825235Y-75361808D01*
X90833717Y-75345940D01*
X90849315Y-75316757D01*
X90877706Y-75274267D01*
X90897263Y-75227053D01*
X90921342Y-75182004D01*
X90936169Y-75133126D01*
X90955727Y-75085909D01*
X90965697Y-75035785D01*
X90980525Y-74986905D01*
X90985532Y-74936069D01*
X90995501Y-74885950D01*
X90995501Y-74834846D01*
X91000508Y-74784011D01*
X90995501Y-74733176D01*
X90995501Y-74682072D01*
X90985534Y-74631964D01*
X90980525Y-74581106D01*
X90965691Y-74532205D01*
X90955727Y-74482113D01*
X90936181Y-74434925D01*
X90921342Y-74386008D01*
X90897244Y-74340924D01*
X90877706Y-74293755D01*
X90849342Y-74251305D01*
X90825235Y-74206204D01*
X90792793Y-74166673D01*
X90764438Y-74124237D01*
X90728349Y-74088148D01*
X90695897Y-74048605D01*
X90656354Y-74016153D01*
X90375773Y-73735572D01*
X90684500Y-73735572D01*
X90857754Y-73718508D01*
X91024350Y-73667972D01*
X91177886Y-73585905D01*
X91245081Y-73530760D01*
X91244428Y-73682500D01*
X91256688Y-73806982D01*
X91292998Y-73926680D01*
X91351963Y-74036994D01*
X91431315Y-74133685D01*
X91528006Y-74213037D01*
X91638320Y-74272002D01*
X91758018Y-74308312D01*
X91882500Y-74320572D01*
X92346750Y-74317500D01*
X92505500Y-74158750D01*
X92505500Y-72809500D01*
X92485500Y-72809500D01*
X92485500Y-72555500D01*
X92505500Y-72555500D01*
X92505500Y-72535500D01*
X92759500Y-72535500D01*
X92759500Y-72555500D01*
X92759500Y-72555500D01*
G37*
X92759500Y-72555500D02*
X92779500Y-72555500D01*
X92779500Y-72809500D01*
X92759500Y-72809500D01*
X92759500Y-74158750D01*
X92918250Y-74317500D01*
X93382500Y-74320572D01*
X93506982Y-74308312D01*
X93626680Y-74272002D01*
X93736994Y-74213037D01*
X93782500Y-74175691D01*
X93828006Y-74213037D01*
X93938320Y-74272002D01*
X94058018Y-74308312D01*
X94182500Y-74320572D01*
X95682500Y-74320572D01*
X95806982Y-74308312D01*
X95926680Y-74272002D01*
X96036994Y-74213037D01*
X96082500Y-74175691D01*
X96128006Y-74213037D01*
X96183501Y-74242700D01*
X96183500Y-74556808D01*
X96117595Y-74637114D01*
X96035528Y-74790650D01*
X95984992Y-74957246D01*
X95967928Y-75130500D01*
X95967928Y-76380500D01*
X95984992Y-76553754D01*
X96035528Y-76720350D01*
X96117595Y-76873886D01*
X96183500Y-76954192D01*
X96183501Y-79903867D01*
X94018572Y-82068797D01*
X94018572Y-81562000D01*
X94006312Y-81437518D01*
X93970002Y-81317820D01*
X93911037Y-81207506D01*
X93831685Y-81110815D01*
X93734994Y-81031463D01*
X93624680Y-80972498D01*
X93504982Y-80936188D01*
X93380500Y-80923928D01*
X92765500Y-80923928D01*
X92765500Y-78529051D01*
X92770991Y-78473299D01*
X92749077Y-78250801D01*
X92684176Y-78036853D01*
X92665875Y-78002614D01*
X92578784Y-77839677D01*
X92436949Y-77666851D01*
X92393641Y-77631309D01*
X90458424Y-75696093D01*
X90493247Y-75672825D01*
X90538298Y-75648745D01*
X90577785Y-75616339D01*
X90620275Y-75587948D01*
X90656409Y-75551814D01*
X90695897Y-75519407D01*
X90728304Y-75479919D01*
X90764438Y-75443785D01*
X90792829Y-75401295D01*
X90825235Y-75361808D01*
X90833717Y-75345940D01*
X90849315Y-75316757D01*
X90877706Y-75274267D01*
X90897263Y-75227053D01*
X90921342Y-75182004D01*
X90936169Y-75133126D01*
X90955727Y-75085909D01*
X90965697Y-75035785D01*
X90980525Y-74986905D01*
X90985532Y-74936069D01*
X90995501Y-74885950D01*
X90995501Y-74834846D01*
X91000508Y-74784011D01*
X90995501Y-74733176D01*
X90995501Y-74682072D01*
X90985534Y-74631964D01*
X90980525Y-74581106D01*
X90965691Y-74532205D01*
X90955727Y-74482113D01*
X90936181Y-74434925D01*
X90921342Y-74386008D01*
X90897244Y-74340924D01*
X90877706Y-74293755D01*
X90849342Y-74251305D01*
X90825235Y-74206204D01*
X90792793Y-74166673D01*
X90764438Y-74124237D01*
X90728349Y-74088148D01*
X90695897Y-74048605D01*
X90656354Y-74016153D01*
X90375773Y-73735572D01*
X90684500Y-73735572D01*
X90857754Y-73718508D01*
X91024350Y-73667972D01*
X91177886Y-73585905D01*
X91245081Y-73530760D01*
X91244428Y-73682500D01*
X91256688Y-73806982D01*
X91292998Y-73926680D01*
X91351963Y-74036994D01*
X91431315Y-74133685D01*
X91528006Y-74213037D01*
X91638320Y-74272002D01*
X91758018Y-74308312D01*
X91882500Y-74320572D01*
X92346750Y-74317500D01*
X92505500Y-74158750D01*
X92505500Y-72809500D01*
X92485500Y-72809500D01*
X92485500Y-72555500D01*
X92505500Y-72555500D01*
X92505500Y-72535500D01*
X92759500Y-72535500D01*
X92759500Y-72555500D01*
M02*
