G04 #@! TF.GenerationSoftware,KiCad,Pcbnew,(5.1.0-0)*
G04 #@! TF.CreationDate,2019-04-05T23:49:43+03:00*
G04 #@! TF.ProjectId,curtains-driver,63757274-6169-46e7-932d-647269766572,rev?*
G04 #@! TF.SameCoordinates,Original*
G04 #@! TF.FileFunction,Copper,L2,Bot*
G04 #@! TF.FilePolarity,Positive*
%FSLAX46Y46*%
G04 Gerber Fmt 4.6, Leading zero omitted, Abs format (unit mm)*
G04 Created by KiCad (PCBNEW (5.1.0-0)) date 2019-04-05 23:49:43*
%MOMM*%
%LPD*%
G04 APERTURE LIST*
%ADD10C,0.150000*%
%ADD11C,0.100000*%
%ADD12C,1.150000*%
%ADD13C,1.425000*%
%ADD14C,2.100000*%
%ADD15R,2.100000X2.100000*%
%ADD16O,1.950000X1.700000*%
%ADD17C,1.700000*%
%ADD18R,1.100000X2.500000*%
%ADD19R,2.500000X1.100000*%
%ADD20R,3.500000X3.500000*%
%ADD21C,3.000000*%
%ADD22R,1.500000X0.600000*%
%ADD23C,0.800000*%
%ADD24C,0.300000*%
%ADD25C,0.800000*%
%ADD26C,1.000000*%
%ADD27C,0.254000*%
G04 APERTURE END LIST*
D10*
X134000000Y-63754000D02*
X134000000Y-93500000D01*
X78968600Y-63754000D02*
X78968600Y-93472000D01*
X134000000Y-93500000D02*
X78968600Y-93472000D01*
X78968600Y-63754000D02*
X134000000Y-63754000D01*
D11*
G36*
X97858105Y-70943604D02*
G01*
X97882373Y-70947204D01*
X97906172Y-70953165D01*
X97929271Y-70961430D01*
X97951450Y-70971920D01*
X97972493Y-70984532D01*
X97992199Y-70999147D01*
X98010377Y-71015623D01*
X98026853Y-71033801D01*
X98041468Y-71053507D01*
X98054080Y-71074550D01*
X98064570Y-71096729D01*
X98072835Y-71119828D01*
X98078796Y-71143627D01*
X98082396Y-71167895D01*
X98083600Y-71192399D01*
X98083600Y-71842401D01*
X98082396Y-71866905D01*
X98078796Y-71891173D01*
X98072835Y-71914972D01*
X98064570Y-71938071D01*
X98054080Y-71960250D01*
X98041468Y-71981293D01*
X98026853Y-72000999D01*
X98010377Y-72019177D01*
X97992199Y-72035653D01*
X97972493Y-72050268D01*
X97951450Y-72062880D01*
X97929271Y-72073370D01*
X97906172Y-72081635D01*
X97882373Y-72087596D01*
X97858105Y-72091196D01*
X97833601Y-72092400D01*
X96933599Y-72092400D01*
X96909095Y-72091196D01*
X96884827Y-72087596D01*
X96861028Y-72081635D01*
X96837929Y-72073370D01*
X96815750Y-72062880D01*
X96794707Y-72050268D01*
X96775001Y-72035653D01*
X96756823Y-72019177D01*
X96740347Y-72000999D01*
X96725732Y-71981293D01*
X96713120Y-71960250D01*
X96702630Y-71938071D01*
X96694365Y-71914972D01*
X96688404Y-71891173D01*
X96684804Y-71866905D01*
X96683600Y-71842401D01*
X96683600Y-71192399D01*
X96684804Y-71167895D01*
X96688404Y-71143627D01*
X96694365Y-71119828D01*
X96702630Y-71096729D01*
X96713120Y-71074550D01*
X96725732Y-71053507D01*
X96740347Y-71033801D01*
X96756823Y-71015623D01*
X96775001Y-70999147D01*
X96794707Y-70984532D01*
X96815750Y-70971920D01*
X96837929Y-70961430D01*
X96861028Y-70953165D01*
X96884827Y-70947204D01*
X96909095Y-70943604D01*
X96933599Y-70942400D01*
X97833601Y-70942400D01*
X97858105Y-70943604D01*
X97858105Y-70943604D01*
G37*
D12*
X97383600Y-71517400D03*
D11*
G36*
X97858105Y-72993604D02*
G01*
X97882373Y-72997204D01*
X97906172Y-73003165D01*
X97929271Y-73011430D01*
X97951450Y-73021920D01*
X97972493Y-73034532D01*
X97992199Y-73049147D01*
X98010377Y-73065623D01*
X98026853Y-73083801D01*
X98041468Y-73103507D01*
X98054080Y-73124550D01*
X98064570Y-73146729D01*
X98072835Y-73169828D01*
X98078796Y-73193627D01*
X98082396Y-73217895D01*
X98083600Y-73242399D01*
X98083600Y-73892401D01*
X98082396Y-73916905D01*
X98078796Y-73941173D01*
X98072835Y-73964972D01*
X98064570Y-73988071D01*
X98054080Y-74010250D01*
X98041468Y-74031293D01*
X98026853Y-74050999D01*
X98010377Y-74069177D01*
X97992199Y-74085653D01*
X97972493Y-74100268D01*
X97951450Y-74112880D01*
X97929271Y-74123370D01*
X97906172Y-74131635D01*
X97882373Y-74137596D01*
X97858105Y-74141196D01*
X97833601Y-74142400D01*
X96933599Y-74142400D01*
X96909095Y-74141196D01*
X96884827Y-74137596D01*
X96861028Y-74131635D01*
X96837929Y-74123370D01*
X96815750Y-74112880D01*
X96794707Y-74100268D01*
X96775001Y-74085653D01*
X96756823Y-74069177D01*
X96740347Y-74050999D01*
X96725732Y-74031293D01*
X96713120Y-74010250D01*
X96702630Y-73988071D01*
X96694365Y-73964972D01*
X96688404Y-73941173D01*
X96684804Y-73916905D01*
X96683600Y-73892401D01*
X96683600Y-73242399D01*
X96684804Y-73217895D01*
X96688404Y-73193627D01*
X96694365Y-73169828D01*
X96702630Y-73146729D01*
X96713120Y-73124550D01*
X96725732Y-73103507D01*
X96740347Y-73083801D01*
X96756823Y-73065623D01*
X96775001Y-73049147D01*
X96794707Y-73034532D01*
X96815750Y-73021920D01*
X96837929Y-73011430D01*
X96861028Y-73003165D01*
X96884827Y-72997204D01*
X96909095Y-72993604D01*
X96933599Y-72992400D01*
X97833601Y-72992400D01*
X97858105Y-72993604D01*
X97858105Y-72993604D01*
G37*
D12*
X97383600Y-73567400D03*
D11*
G36*
X119394504Y-73675204D02*
G01*
X119418773Y-73678804D01*
X119442571Y-73684765D01*
X119465671Y-73693030D01*
X119487849Y-73703520D01*
X119508893Y-73716133D01*
X119528598Y-73730747D01*
X119546777Y-73747223D01*
X119563253Y-73765402D01*
X119577867Y-73785107D01*
X119590480Y-73806151D01*
X119600970Y-73828329D01*
X119609235Y-73851429D01*
X119615196Y-73875227D01*
X119618796Y-73899496D01*
X119620000Y-73924000D01*
X119620000Y-74849000D01*
X119618796Y-74873504D01*
X119615196Y-74897773D01*
X119609235Y-74921571D01*
X119600970Y-74944671D01*
X119590480Y-74966849D01*
X119577867Y-74987893D01*
X119563253Y-75007598D01*
X119546777Y-75025777D01*
X119528598Y-75042253D01*
X119508893Y-75056867D01*
X119487849Y-75069480D01*
X119465671Y-75079970D01*
X119442571Y-75088235D01*
X119418773Y-75094196D01*
X119394504Y-75097796D01*
X119370000Y-75099000D01*
X118120000Y-75099000D01*
X118095496Y-75097796D01*
X118071227Y-75094196D01*
X118047429Y-75088235D01*
X118024329Y-75079970D01*
X118002151Y-75069480D01*
X117981107Y-75056867D01*
X117961402Y-75042253D01*
X117943223Y-75025777D01*
X117926747Y-75007598D01*
X117912133Y-74987893D01*
X117899520Y-74966849D01*
X117889030Y-74944671D01*
X117880765Y-74921571D01*
X117874804Y-74897773D01*
X117871204Y-74873504D01*
X117870000Y-74849000D01*
X117870000Y-73924000D01*
X117871204Y-73899496D01*
X117874804Y-73875227D01*
X117880765Y-73851429D01*
X117889030Y-73828329D01*
X117899520Y-73806151D01*
X117912133Y-73785107D01*
X117926747Y-73765402D01*
X117943223Y-73747223D01*
X117961402Y-73730747D01*
X117981107Y-73716133D01*
X118002151Y-73703520D01*
X118024329Y-73693030D01*
X118047429Y-73684765D01*
X118071227Y-73678804D01*
X118095496Y-73675204D01*
X118120000Y-73674000D01*
X119370000Y-73674000D01*
X119394504Y-73675204D01*
X119394504Y-73675204D01*
G37*
D13*
X118745000Y-74386500D03*
D11*
G36*
X119394504Y-76650204D02*
G01*
X119418773Y-76653804D01*
X119442571Y-76659765D01*
X119465671Y-76668030D01*
X119487849Y-76678520D01*
X119508893Y-76691133D01*
X119528598Y-76705747D01*
X119546777Y-76722223D01*
X119563253Y-76740402D01*
X119577867Y-76760107D01*
X119590480Y-76781151D01*
X119600970Y-76803329D01*
X119609235Y-76826429D01*
X119615196Y-76850227D01*
X119618796Y-76874496D01*
X119620000Y-76899000D01*
X119620000Y-77824000D01*
X119618796Y-77848504D01*
X119615196Y-77872773D01*
X119609235Y-77896571D01*
X119600970Y-77919671D01*
X119590480Y-77941849D01*
X119577867Y-77962893D01*
X119563253Y-77982598D01*
X119546777Y-78000777D01*
X119528598Y-78017253D01*
X119508893Y-78031867D01*
X119487849Y-78044480D01*
X119465671Y-78054970D01*
X119442571Y-78063235D01*
X119418773Y-78069196D01*
X119394504Y-78072796D01*
X119370000Y-78074000D01*
X118120000Y-78074000D01*
X118095496Y-78072796D01*
X118071227Y-78069196D01*
X118047429Y-78063235D01*
X118024329Y-78054970D01*
X118002151Y-78044480D01*
X117981107Y-78031867D01*
X117961402Y-78017253D01*
X117943223Y-78000777D01*
X117926747Y-77982598D01*
X117912133Y-77962893D01*
X117899520Y-77941849D01*
X117889030Y-77919671D01*
X117880765Y-77896571D01*
X117874804Y-77872773D01*
X117871204Y-77848504D01*
X117870000Y-77824000D01*
X117870000Y-76899000D01*
X117871204Y-76874496D01*
X117874804Y-76850227D01*
X117880765Y-76826429D01*
X117889030Y-76803329D01*
X117899520Y-76781151D01*
X117912133Y-76760107D01*
X117926747Y-76740402D01*
X117943223Y-76722223D01*
X117961402Y-76705747D01*
X117981107Y-76691133D01*
X118002151Y-76678520D01*
X118024329Y-76668030D01*
X118047429Y-76659765D01*
X118071227Y-76653804D01*
X118095496Y-76650204D01*
X118120000Y-76649000D01*
X119370000Y-76649000D01*
X119394504Y-76650204D01*
X119394504Y-76650204D01*
G37*
D13*
X118745000Y-77361500D03*
D11*
G36*
X116411504Y-88758604D02*
G01*
X116435773Y-88762204D01*
X116459571Y-88768165D01*
X116482671Y-88776430D01*
X116504849Y-88786920D01*
X116525893Y-88799533D01*
X116545598Y-88814147D01*
X116563777Y-88830623D01*
X116580253Y-88848802D01*
X116594867Y-88868507D01*
X116607480Y-88889551D01*
X116617970Y-88911729D01*
X116626235Y-88934829D01*
X116632196Y-88958627D01*
X116635796Y-88982896D01*
X116637000Y-89007400D01*
X116637000Y-89932400D01*
X116635796Y-89956904D01*
X116632196Y-89981173D01*
X116626235Y-90004971D01*
X116617970Y-90028071D01*
X116607480Y-90050249D01*
X116594867Y-90071293D01*
X116580253Y-90090998D01*
X116563777Y-90109177D01*
X116545598Y-90125653D01*
X116525893Y-90140267D01*
X116504849Y-90152880D01*
X116482671Y-90163370D01*
X116459571Y-90171635D01*
X116435773Y-90177596D01*
X116411504Y-90181196D01*
X116387000Y-90182400D01*
X115137000Y-90182400D01*
X115112496Y-90181196D01*
X115088227Y-90177596D01*
X115064429Y-90171635D01*
X115041329Y-90163370D01*
X115019151Y-90152880D01*
X114998107Y-90140267D01*
X114978402Y-90125653D01*
X114960223Y-90109177D01*
X114943747Y-90090998D01*
X114929133Y-90071293D01*
X114916520Y-90050249D01*
X114906030Y-90028071D01*
X114897765Y-90004971D01*
X114891804Y-89981173D01*
X114888204Y-89956904D01*
X114887000Y-89932400D01*
X114887000Y-89007400D01*
X114888204Y-88982896D01*
X114891804Y-88958627D01*
X114897765Y-88934829D01*
X114906030Y-88911729D01*
X114916520Y-88889551D01*
X114929133Y-88868507D01*
X114943747Y-88848802D01*
X114960223Y-88830623D01*
X114978402Y-88814147D01*
X114998107Y-88799533D01*
X115019151Y-88786920D01*
X115041329Y-88776430D01*
X115064429Y-88768165D01*
X115088227Y-88762204D01*
X115112496Y-88758604D01*
X115137000Y-88757400D01*
X116387000Y-88757400D01*
X116411504Y-88758604D01*
X116411504Y-88758604D01*
G37*
D13*
X115762000Y-89469900D03*
D11*
G36*
X116411504Y-91733604D02*
G01*
X116435773Y-91737204D01*
X116459571Y-91743165D01*
X116482671Y-91751430D01*
X116504849Y-91761920D01*
X116525893Y-91774533D01*
X116545598Y-91789147D01*
X116563777Y-91805623D01*
X116580253Y-91823802D01*
X116594867Y-91843507D01*
X116607480Y-91864551D01*
X116617970Y-91886729D01*
X116626235Y-91909829D01*
X116632196Y-91933627D01*
X116635796Y-91957896D01*
X116637000Y-91982400D01*
X116637000Y-92907400D01*
X116635796Y-92931904D01*
X116632196Y-92956173D01*
X116626235Y-92979971D01*
X116617970Y-93003071D01*
X116607480Y-93025249D01*
X116594867Y-93046293D01*
X116580253Y-93065998D01*
X116563777Y-93084177D01*
X116545598Y-93100653D01*
X116525893Y-93115267D01*
X116504849Y-93127880D01*
X116482671Y-93138370D01*
X116459571Y-93146635D01*
X116435773Y-93152596D01*
X116411504Y-93156196D01*
X116387000Y-93157400D01*
X115137000Y-93157400D01*
X115112496Y-93156196D01*
X115088227Y-93152596D01*
X115064429Y-93146635D01*
X115041329Y-93138370D01*
X115019151Y-93127880D01*
X114998107Y-93115267D01*
X114978402Y-93100653D01*
X114960223Y-93084177D01*
X114943747Y-93065998D01*
X114929133Y-93046293D01*
X114916520Y-93025249D01*
X114906030Y-93003071D01*
X114897765Y-92979971D01*
X114891804Y-92956173D01*
X114888204Y-92931904D01*
X114887000Y-92907400D01*
X114887000Y-91982400D01*
X114888204Y-91957896D01*
X114891804Y-91933627D01*
X114897765Y-91909829D01*
X114906030Y-91886729D01*
X114916520Y-91864551D01*
X114929133Y-91843507D01*
X114943747Y-91823802D01*
X114960223Y-91805623D01*
X114978402Y-91789147D01*
X114998107Y-91774533D01*
X115019151Y-91761920D01*
X115041329Y-91751430D01*
X115064429Y-91743165D01*
X115088227Y-91737204D01*
X115112496Y-91733604D01*
X115137000Y-91732400D01*
X116387000Y-91732400D01*
X116411504Y-91733604D01*
X116411504Y-91733604D01*
G37*
D13*
X115762000Y-92444900D03*
D11*
G36*
X96098505Y-79971604D02*
G01*
X96122773Y-79975204D01*
X96146572Y-79981165D01*
X96169671Y-79989430D01*
X96191850Y-79999920D01*
X96212893Y-80012532D01*
X96232599Y-80027147D01*
X96250777Y-80043623D01*
X96267253Y-80061801D01*
X96281868Y-80081507D01*
X96294480Y-80102550D01*
X96304970Y-80124729D01*
X96313235Y-80147828D01*
X96319196Y-80171627D01*
X96322796Y-80195895D01*
X96324000Y-80220399D01*
X96324000Y-81120401D01*
X96322796Y-81144905D01*
X96319196Y-81169173D01*
X96313235Y-81192972D01*
X96304970Y-81216071D01*
X96294480Y-81238250D01*
X96281868Y-81259293D01*
X96267253Y-81278999D01*
X96250777Y-81297177D01*
X96232599Y-81313653D01*
X96212893Y-81328268D01*
X96191850Y-81340880D01*
X96169671Y-81351370D01*
X96146572Y-81359635D01*
X96122773Y-81365596D01*
X96098505Y-81369196D01*
X96074001Y-81370400D01*
X95423999Y-81370400D01*
X95399495Y-81369196D01*
X95375227Y-81365596D01*
X95351428Y-81359635D01*
X95328329Y-81351370D01*
X95306150Y-81340880D01*
X95285107Y-81328268D01*
X95265401Y-81313653D01*
X95247223Y-81297177D01*
X95230747Y-81278999D01*
X95216132Y-81259293D01*
X95203520Y-81238250D01*
X95193030Y-81216071D01*
X95184765Y-81192972D01*
X95178804Y-81169173D01*
X95175204Y-81144905D01*
X95174000Y-81120401D01*
X95174000Y-80220399D01*
X95175204Y-80195895D01*
X95178804Y-80171627D01*
X95184765Y-80147828D01*
X95193030Y-80124729D01*
X95203520Y-80102550D01*
X95216132Y-80081507D01*
X95230747Y-80061801D01*
X95247223Y-80043623D01*
X95265401Y-80027147D01*
X95285107Y-80012532D01*
X95306150Y-79999920D01*
X95328329Y-79989430D01*
X95351428Y-79981165D01*
X95375227Y-79975204D01*
X95399495Y-79971604D01*
X95423999Y-79970400D01*
X96074001Y-79970400D01*
X96098505Y-79971604D01*
X96098505Y-79971604D01*
G37*
D12*
X95749000Y-80670400D03*
D11*
G36*
X98148505Y-79971604D02*
G01*
X98172773Y-79975204D01*
X98196572Y-79981165D01*
X98219671Y-79989430D01*
X98241850Y-79999920D01*
X98262893Y-80012532D01*
X98282599Y-80027147D01*
X98300777Y-80043623D01*
X98317253Y-80061801D01*
X98331868Y-80081507D01*
X98344480Y-80102550D01*
X98354970Y-80124729D01*
X98363235Y-80147828D01*
X98369196Y-80171627D01*
X98372796Y-80195895D01*
X98374000Y-80220399D01*
X98374000Y-81120401D01*
X98372796Y-81144905D01*
X98369196Y-81169173D01*
X98363235Y-81192972D01*
X98354970Y-81216071D01*
X98344480Y-81238250D01*
X98331868Y-81259293D01*
X98317253Y-81278999D01*
X98300777Y-81297177D01*
X98282599Y-81313653D01*
X98262893Y-81328268D01*
X98241850Y-81340880D01*
X98219671Y-81351370D01*
X98196572Y-81359635D01*
X98172773Y-81365596D01*
X98148505Y-81369196D01*
X98124001Y-81370400D01*
X97473999Y-81370400D01*
X97449495Y-81369196D01*
X97425227Y-81365596D01*
X97401428Y-81359635D01*
X97378329Y-81351370D01*
X97356150Y-81340880D01*
X97335107Y-81328268D01*
X97315401Y-81313653D01*
X97297223Y-81297177D01*
X97280747Y-81278999D01*
X97266132Y-81259293D01*
X97253520Y-81238250D01*
X97243030Y-81216071D01*
X97234765Y-81192972D01*
X97228804Y-81169173D01*
X97225204Y-81144905D01*
X97224000Y-81120401D01*
X97224000Y-80220399D01*
X97225204Y-80195895D01*
X97228804Y-80171627D01*
X97234765Y-80147828D01*
X97243030Y-80124729D01*
X97253520Y-80102550D01*
X97266132Y-80081507D01*
X97280747Y-80061801D01*
X97297223Y-80043623D01*
X97315401Y-80027147D01*
X97335107Y-80012532D01*
X97356150Y-79999920D01*
X97378329Y-79989430D01*
X97401428Y-79981165D01*
X97425227Y-79975204D01*
X97449495Y-79971604D01*
X97473999Y-79970400D01*
X98124001Y-79970400D01*
X98148505Y-79971604D01*
X98148505Y-79971604D01*
G37*
D12*
X97799000Y-80670400D03*
D11*
G36*
X98148505Y-81970604D02*
G01*
X98172773Y-81974204D01*
X98196572Y-81980165D01*
X98219671Y-81988430D01*
X98241850Y-81998920D01*
X98262893Y-82011532D01*
X98282599Y-82026147D01*
X98300777Y-82042623D01*
X98317253Y-82060801D01*
X98331868Y-82080507D01*
X98344480Y-82101550D01*
X98354970Y-82123729D01*
X98363235Y-82146828D01*
X98369196Y-82170627D01*
X98372796Y-82194895D01*
X98374000Y-82219399D01*
X98374000Y-83119401D01*
X98372796Y-83143905D01*
X98369196Y-83168173D01*
X98363235Y-83191972D01*
X98354970Y-83215071D01*
X98344480Y-83237250D01*
X98331868Y-83258293D01*
X98317253Y-83277999D01*
X98300777Y-83296177D01*
X98282599Y-83312653D01*
X98262893Y-83327268D01*
X98241850Y-83339880D01*
X98219671Y-83350370D01*
X98196572Y-83358635D01*
X98172773Y-83364596D01*
X98148505Y-83368196D01*
X98124001Y-83369400D01*
X97473999Y-83369400D01*
X97449495Y-83368196D01*
X97425227Y-83364596D01*
X97401428Y-83358635D01*
X97378329Y-83350370D01*
X97356150Y-83339880D01*
X97335107Y-83327268D01*
X97315401Y-83312653D01*
X97297223Y-83296177D01*
X97280747Y-83277999D01*
X97266132Y-83258293D01*
X97253520Y-83237250D01*
X97243030Y-83215071D01*
X97234765Y-83191972D01*
X97228804Y-83168173D01*
X97225204Y-83143905D01*
X97224000Y-83119401D01*
X97224000Y-82219399D01*
X97225204Y-82194895D01*
X97228804Y-82170627D01*
X97234765Y-82146828D01*
X97243030Y-82123729D01*
X97253520Y-82101550D01*
X97266132Y-82080507D01*
X97280747Y-82060801D01*
X97297223Y-82042623D01*
X97315401Y-82026147D01*
X97335107Y-82011532D01*
X97356150Y-81998920D01*
X97378329Y-81988430D01*
X97401428Y-81980165D01*
X97425227Y-81974204D01*
X97449495Y-81970604D01*
X97473999Y-81969400D01*
X98124001Y-81969400D01*
X98148505Y-81970604D01*
X98148505Y-81970604D01*
G37*
D12*
X97799000Y-82669400D03*
D11*
G36*
X96098505Y-81970604D02*
G01*
X96122773Y-81974204D01*
X96146572Y-81980165D01*
X96169671Y-81988430D01*
X96191850Y-81998920D01*
X96212893Y-82011532D01*
X96232599Y-82026147D01*
X96250777Y-82042623D01*
X96267253Y-82060801D01*
X96281868Y-82080507D01*
X96294480Y-82101550D01*
X96304970Y-82123729D01*
X96313235Y-82146828D01*
X96319196Y-82170627D01*
X96322796Y-82194895D01*
X96324000Y-82219399D01*
X96324000Y-83119401D01*
X96322796Y-83143905D01*
X96319196Y-83168173D01*
X96313235Y-83191972D01*
X96304970Y-83215071D01*
X96294480Y-83237250D01*
X96281868Y-83258293D01*
X96267253Y-83277999D01*
X96250777Y-83296177D01*
X96232599Y-83312653D01*
X96212893Y-83327268D01*
X96191850Y-83339880D01*
X96169671Y-83350370D01*
X96146572Y-83358635D01*
X96122773Y-83364596D01*
X96098505Y-83368196D01*
X96074001Y-83369400D01*
X95423999Y-83369400D01*
X95399495Y-83368196D01*
X95375227Y-83364596D01*
X95351428Y-83358635D01*
X95328329Y-83350370D01*
X95306150Y-83339880D01*
X95285107Y-83327268D01*
X95265401Y-83312653D01*
X95247223Y-83296177D01*
X95230747Y-83277999D01*
X95216132Y-83258293D01*
X95203520Y-83237250D01*
X95193030Y-83215071D01*
X95184765Y-83191972D01*
X95178804Y-83168173D01*
X95175204Y-83143905D01*
X95174000Y-83119401D01*
X95174000Y-82219399D01*
X95175204Y-82194895D01*
X95178804Y-82170627D01*
X95184765Y-82146828D01*
X95193030Y-82123729D01*
X95203520Y-82101550D01*
X95216132Y-82080507D01*
X95230747Y-82060801D01*
X95247223Y-82042623D01*
X95265401Y-82026147D01*
X95285107Y-82011532D01*
X95306150Y-81998920D01*
X95328329Y-81988430D01*
X95351428Y-81980165D01*
X95375227Y-81974204D01*
X95399495Y-81970604D01*
X95423999Y-81969400D01*
X96074001Y-81969400D01*
X96098505Y-81970604D01*
X96098505Y-81970604D01*
G37*
D12*
X95749000Y-82669400D03*
D11*
G36*
X96098505Y-83970604D02*
G01*
X96122773Y-83974204D01*
X96146572Y-83980165D01*
X96169671Y-83988430D01*
X96191850Y-83998920D01*
X96212893Y-84011532D01*
X96232599Y-84026147D01*
X96250777Y-84042623D01*
X96267253Y-84060801D01*
X96281868Y-84080507D01*
X96294480Y-84101550D01*
X96304970Y-84123729D01*
X96313235Y-84146828D01*
X96319196Y-84170627D01*
X96322796Y-84194895D01*
X96324000Y-84219399D01*
X96324000Y-85119401D01*
X96322796Y-85143905D01*
X96319196Y-85168173D01*
X96313235Y-85191972D01*
X96304970Y-85215071D01*
X96294480Y-85237250D01*
X96281868Y-85258293D01*
X96267253Y-85277999D01*
X96250777Y-85296177D01*
X96232599Y-85312653D01*
X96212893Y-85327268D01*
X96191850Y-85339880D01*
X96169671Y-85350370D01*
X96146572Y-85358635D01*
X96122773Y-85364596D01*
X96098505Y-85368196D01*
X96074001Y-85369400D01*
X95423999Y-85369400D01*
X95399495Y-85368196D01*
X95375227Y-85364596D01*
X95351428Y-85358635D01*
X95328329Y-85350370D01*
X95306150Y-85339880D01*
X95285107Y-85327268D01*
X95265401Y-85312653D01*
X95247223Y-85296177D01*
X95230747Y-85277999D01*
X95216132Y-85258293D01*
X95203520Y-85237250D01*
X95193030Y-85215071D01*
X95184765Y-85191972D01*
X95178804Y-85168173D01*
X95175204Y-85143905D01*
X95174000Y-85119401D01*
X95174000Y-84219399D01*
X95175204Y-84194895D01*
X95178804Y-84170627D01*
X95184765Y-84146828D01*
X95193030Y-84123729D01*
X95203520Y-84101550D01*
X95216132Y-84080507D01*
X95230747Y-84060801D01*
X95247223Y-84042623D01*
X95265401Y-84026147D01*
X95285107Y-84011532D01*
X95306150Y-83998920D01*
X95328329Y-83988430D01*
X95351428Y-83980165D01*
X95375227Y-83974204D01*
X95399495Y-83970604D01*
X95423999Y-83969400D01*
X96074001Y-83969400D01*
X96098505Y-83970604D01*
X96098505Y-83970604D01*
G37*
D12*
X95749000Y-84669400D03*
D11*
G36*
X98148505Y-83970604D02*
G01*
X98172773Y-83974204D01*
X98196572Y-83980165D01*
X98219671Y-83988430D01*
X98241850Y-83998920D01*
X98262893Y-84011532D01*
X98282599Y-84026147D01*
X98300777Y-84042623D01*
X98317253Y-84060801D01*
X98331868Y-84080507D01*
X98344480Y-84101550D01*
X98354970Y-84123729D01*
X98363235Y-84146828D01*
X98369196Y-84170627D01*
X98372796Y-84194895D01*
X98374000Y-84219399D01*
X98374000Y-85119401D01*
X98372796Y-85143905D01*
X98369196Y-85168173D01*
X98363235Y-85191972D01*
X98354970Y-85215071D01*
X98344480Y-85237250D01*
X98331868Y-85258293D01*
X98317253Y-85277999D01*
X98300777Y-85296177D01*
X98282599Y-85312653D01*
X98262893Y-85327268D01*
X98241850Y-85339880D01*
X98219671Y-85350370D01*
X98196572Y-85358635D01*
X98172773Y-85364596D01*
X98148505Y-85368196D01*
X98124001Y-85369400D01*
X97473999Y-85369400D01*
X97449495Y-85368196D01*
X97425227Y-85364596D01*
X97401428Y-85358635D01*
X97378329Y-85350370D01*
X97356150Y-85339880D01*
X97335107Y-85327268D01*
X97315401Y-85312653D01*
X97297223Y-85296177D01*
X97280747Y-85277999D01*
X97266132Y-85258293D01*
X97253520Y-85237250D01*
X97243030Y-85215071D01*
X97234765Y-85191972D01*
X97228804Y-85168173D01*
X97225204Y-85143905D01*
X97224000Y-85119401D01*
X97224000Y-84219399D01*
X97225204Y-84194895D01*
X97228804Y-84170627D01*
X97234765Y-84146828D01*
X97243030Y-84123729D01*
X97253520Y-84101550D01*
X97266132Y-84080507D01*
X97280747Y-84060801D01*
X97297223Y-84042623D01*
X97315401Y-84026147D01*
X97335107Y-84011532D01*
X97356150Y-83998920D01*
X97378329Y-83988430D01*
X97401428Y-83980165D01*
X97425227Y-83974204D01*
X97449495Y-83970604D01*
X97473999Y-83969400D01*
X98124001Y-83969400D01*
X98148505Y-83970604D01*
X98148505Y-83970604D01*
G37*
D12*
X97799000Y-84669400D03*
D11*
G36*
X125823505Y-90367204D02*
G01*
X125847773Y-90370804D01*
X125871572Y-90376765D01*
X125894671Y-90385030D01*
X125916850Y-90395520D01*
X125937893Y-90408132D01*
X125957599Y-90422747D01*
X125975777Y-90439223D01*
X125992253Y-90457401D01*
X126006868Y-90477107D01*
X126019480Y-90498150D01*
X126029970Y-90520329D01*
X126038235Y-90543428D01*
X126044196Y-90567227D01*
X126047796Y-90591495D01*
X126049000Y-90615999D01*
X126049000Y-91266001D01*
X126047796Y-91290505D01*
X126044196Y-91314773D01*
X126038235Y-91338572D01*
X126029970Y-91361671D01*
X126019480Y-91383850D01*
X126006868Y-91404893D01*
X125992253Y-91424599D01*
X125975777Y-91442777D01*
X125957599Y-91459253D01*
X125937893Y-91473868D01*
X125916850Y-91486480D01*
X125894671Y-91496970D01*
X125871572Y-91505235D01*
X125847773Y-91511196D01*
X125823505Y-91514796D01*
X125799001Y-91516000D01*
X124898999Y-91516000D01*
X124874495Y-91514796D01*
X124850227Y-91511196D01*
X124826428Y-91505235D01*
X124803329Y-91496970D01*
X124781150Y-91486480D01*
X124760107Y-91473868D01*
X124740401Y-91459253D01*
X124722223Y-91442777D01*
X124705747Y-91424599D01*
X124691132Y-91404893D01*
X124678520Y-91383850D01*
X124668030Y-91361671D01*
X124659765Y-91338572D01*
X124653804Y-91314773D01*
X124650204Y-91290505D01*
X124649000Y-91266001D01*
X124649000Y-90615999D01*
X124650204Y-90591495D01*
X124653804Y-90567227D01*
X124659765Y-90543428D01*
X124668030Y-90520329D01*
X124678520Y-90498150D01*
X124691132Y-90477107D01*
X124705747Y-90457401D01*
X124722223Y-90439223D01*
X124740401Y-90422747D01*
X124760107Y-90408132D01*
X124781150Y-90395520D01*
X124803329Y-90385030D01*
X124826428Y-90376765D01*
X124850227Y-90370804D01*
X124874495Y-90367204D01*
X124898999Y-90366000D01*
X125799001Y-90366000D01*
X125823505Y-90367204D01*
X125823505Y-90367204D01*
G37*
D12*
X125349000Y-90941000D03*
D11*
G36*
X125823505Y-88317204D02*
G01*
X125847773Y-88320804D01*
X125871572Y-88326765D01*
X125894671Y-88335030D01*
X125916850Y-88345520D01*
X125937893Y-88358132D01*
X125957599Y-88372747D01*
X125975777Y-88389223D01*
X125992253Y-88407401D01*
X126006868Y-88427107D01*
X126019480Y-88448150D01*
X126029970Y-88470329D01*
X126038235Y-88493428D01*
X126044196Y-88517227D01*
X126047796Y-88541495D01*
X126049000Y-88565999D01*
X126049000Y-89216001D01*
X126047796Y-89240505D01*
X126044196Y-89264773D01*
X126038235Y-89288572D01*
X126029970Y-89311671D01*
X126019480Y-89333850D01*
X126006868Y-89354893D01*
X125992253Y-89374599D01*
X125975777Y-89392777D01*
X125957599Y-89409253D01*
X125937893Y-89423868D01*
X125916850Y-89436480D01*
X125894671Y-89446970D01*
X125871572Y-89455235D01*
X125847773Y-89461196D01*
X125823505Y-89464796D01*
X125799001Y-89466000D01*
X124898999Y-89466000D01*
X124874495Y-89464796D01*
X124850227Y-89461196D01*
X124826428Y-89455235D01*
X124803329Y-89446970D01*
X124781150Y-89436480D01*
X124760107Y-89423868D01*
X124740401Y-89409253D01*
X124722223Y-89392777D01*
X124705747Y-89374599D01*
X124691132Y-89354893D01*
X124678520Y-89333850D01*
X124668030Y-89311671D01*
X124659765Y-89288572D01*
X124653804Y-89264773D01*
X124650204Y-89240505D01*
X124649000Y-89216001D01*
X124649000Y-88565999D01*
X124650204Y-88541495D01*
X124653804Y-88517227D01*
X124659765Y-88493428D01*
X124668030Y-88470329D01*
X124678520Y-88448150D01*
X124691132Y-88427107D01*
X124705747Y-88407401D01*
X124722223Y-88389223D01*
X124740401Y-88372747D01*
X124760107Y-88358132D01*
X124781150Y-88345520D01*
X124803329Y-88335030D01*
X124826428Y-88326765D01*
X124850227Y-88320804D01*
X124874495Y-88317204D01*
X124898999Y-88316000D01*
X125799001Y-88316000D01*
X125823505Y-88317204D01*
X125823505Y-88317204D01*
G37*
D12*
X125349000Y-88891000D03*
D11*
G36*
X125823505Y-78014870D02*
G01*
X125847773Y-78018470D01*
X125871572Y-78024431D01*
X125894671Y-78032696D01*
X125916850Y-78043186D01*
X125937893Y-78055798D01*
X125957599Y-78070413D01*
X125975777Y-78086889D01*
X125992253Y-78105067D01*
X126006868Y-78124773D01*
X126019480Y-78145816D01*
X126029970Y-78167995D01*
X126038235Y-78191094D01*
X126044196Y-78214893D01*
X126047796Y-78239161D01*
X126049000Y-78263665D01*
X126049000Y-78913667D01*
X126047796Y-78938171D01*
X126044196Y-78962439D01*
X126038235Y-78986238D01*
X126029970Y-79009337D01*
X126019480Y-79031516D01*
X126006868Y-79052559D01*
X125992253Y-79072265D01*
X125975777Y-79090443D01*
X125957599Y-79106919D01*
X125937893Y-79121534D01*
X125916850Y-79134146D01*
X125894671Y-79144636D01*
X125871572Y-79152901D01*
X125847773Y-79158862D01*
X125823505Y-79162462D01*
X125799001Y-79163666D01*
X124898999Y-79163666D01*
X124874495Y-79162462D01*
X124850227Y-79158862D01*
X124826428Y-79152901D01*
X124803329Y-79144636D01*
X124781150Y-79134146D01*
X124760107Y-79121534D01*
X124740401Y-79106919D01*
X124722223Y-79090443D01*
X124705747Y-79072265D01*
X124691132Y-79052559D01*
X124678520Y-79031516D01*
X124668030Y-79009337D01*
X124659765Y-78986238D01*
X124653804Y-78962439D01*
X124650204Y-78938171D01*
X124649000Y-78913667D01*
X124649000Y-78263665D01*
X124650204Y-78239161D01*
X124653804Y-78214893D01*
X124659765Y-78191094D01*
X124668030Y-78167995D01*
X124678520Y-78145816D01*
X124691132Y-78124773D01*
X124705747Y-78105067D01*
X124722223Y-78086889D01*
X124740401Y-78070413D01*
X124760107Y-78055798D01*
X124781150Y-78043186D01*
X124803329Y-78032696D01*
X124826428Y-78024431D01*
X124850227Y-78018470D01*
X124874495Y-78014870D01*
X124898999Y-78013666D01*
X125799001Y-78013666D01*
X125823505Y-78014870D01*
X125823505Y-78014870D01*
G37*
D12*
X125349000Y-78588666D03*
D11*
G36*
X125823505Y-75964870D02*
G01*
X125847773Y-75968470D01*
X125871572Y-75974431D01*
X125894671Y-75982696D01*
X125916850Y-75993186D01*
X125937893Y-76005798D01*
X125957599Y-76020413D01*
X125975777Y-76036889D01*
X125992253Y-76055067D01*
X126006868Y-76074773D01*
X126019480Y-76095816D01*
X126029970Y-76117995D01*
X126038235Y-76141094D01*
X126044196Y-76164893D01*
X126047796Y-76189161D01*
X126049000Y-76213665D01*
X126049000Y-76863667D01*
X126047796Y-76888171D01*
X126044196Y-76912439D01*
X126038235Y-76936238D01*
X126029970Y-76959337D01*
X126019480Y-76981516D01*
X126006868Y-77002559D01*
X125992253Y-77022265D01*
X125975777Y-77040443D01*
X125957599Y-77056919D01*
X125937893Y-77071534D01*
X125916850Y-77084146D01*
X125894671Y-77094636D01*
X125871572Y-77102901D01*
X125847773Y-77108862D01*
X125823505Y-77112462D01*
X125799001Y-77113666D01*
X124898999Y-77113666D01*
X124874495Y-77112462D01*
X124850227Y-77108862D01*
X124826428Y-77102901D01*
X124803329Y-77094636D01*
X124781150Y-77084146D01*
X124760107Y-77071534D01*
X124740401Y-77056919D01*
X124722223Y-77040443D01*
X124705747Y-77022265D01*
X124691132Y-77002559D01*
X124678520Y-76981516D01*
X124668030Y-76959337D01*
X124659765Y-76936238D01*
X124653804Y-76912439D01*
X124650204Y-76888171D01*
X124649000Y-76863667D01*
X124649000Y-76213665D01*
X124650204Y-76189161D01*
X124653804Y-76164893D01*
X124659765Y-76141094D01*
X124668030Y-76117995D01*
X124678520Y-76095816D01*
X124691132Y-76074773D01*
X124705747Y-76055067D01*
X124722223Y-76036889D01*
X124740401Y-76020413D01*
X124760107Y-76005798D01*
X124781150Y-75993186D01*
X124803329Y-75982696D01*
X124826428Y-75974431D01*
X124850227Y-75968470D01*
X124874495Y-75964870D01*
X124898999Y-75963666D01*
X125799001Y-75963666D01*
X125823505Y-75964870D01*
X125823505Y-75964870D01*
G37*
D12*
X125349000Y-76538666D03*
D11*
G36*
X123918505Y-75964870D02*
G01*
X123942773Y-75968470D01*
X123966572Y-75974431D01*
X123989671Y-75982696D01*
X124011850Y-75993186D01*
X124032893Y-76005798D01*
X124052599Y-76020413D01*
X124070777Y-76036889D01*
X124087253Y-76055067D01*
X124101868Y-76074773D01*
X124114480Y-76095816D01*
X124124970Y-76117995D01*
X124133235Y-76141094D01*
X124139196Y-76164893D01*
X124142796Y-76189161D01*
X124144000Y-76213665D01*
X124144000Y-76863667D01*
X124142796Y-76888171D01*
X124139196Y-76912439D01*
X124133235Y-76936238D01*
X124124970Y-76959337D01*
X124114480Y-76981516D01*
X124101868Y-77002559D01*
X124087253Y-77022265D01*
X124070777Y-77040443D01*
X124052599Y-77056919D01*
X124032893Y-77071534D01*
X124011850Y-77084146D01*
X123989671Y-77094636D01*
X123966572Y-77102901D01*
X123942773Y-77108862D01*
X123918505Y-77112462D01*
X123894001Y-77113666D01*
X122993999Y-77113666D01*
X122969495Y-77112462D01*
X122945227Y-77108862D01*
X122921428Y-77102901D01*
X122898329Y-77094636D01*
X122876150Y-77084146D01*
X122855107Y-77071534D01*
X122835401Y-77056919D01*
X122817223Y-77040443D01*
X122800747Y-77022265D01*
X122786132Y-77002559D01*
X122773520Y-76981516D01*
X122763030Y-76959337D01*
X122754765Y-76936238D01*
X122748804Y-76912439D01*
X122745204Y-76888171D01*
X122744000Y-76863667D01*
X122744000Y-76213665D01*
X122745204Y-76189161D01*
X122748804Y-76164893D01*
X122754765Y-76141094D01*
X122763030Y-76117995D01*
X122773520Y-76095816D01*
X122786132Y-76074773D01*
X122800747Y-76055067D01*
X122817223Y-76036889D01*
X122835401Y-76020413D01*
X122855107Y-76005798D01*
X122876150Y-75993186D01*
X122898329Y-75982696D01*
X122921428Y-75974431D01*
X122945227Y-75968470D01*
X122969495Y-75964870D01*
X122993999Y-75963666D01*
X123894001Y-75963666D01*
X123918505Y-75964870D01*
X123918505Y-75964870D01*
G37*
D12*
X123444000Y-76538666D03*
D11*
G36*
X123918505Y-78014870D02*
G01*
X123942773Y-78018470D01*
X123966572Y-78024431D01*
X123989671Y-78032696D01*
X124011850Y-78043186D01*
X124032893Y-78055798D01*
X124052599Y-78070413D01*
X124070777Y-78086889D01*
X124087253Y-78105067D01*
X124101868Y-78124773D01*
X124114480Y-78145816D01*
X124124970Y-78167995D01*
X124133235Y-78191094D01*
X124139196Y-78214893D01*
X124142796Y-78239161D01*
X124144000Y-78263665D01*
X124144000Y-78913667D01*
X124142796Y-78938171D01*
X124139196Y-78962439D01*
X124133235Y-78986238D01*
X124124970Y-79009337D01*
X124114480Y-79031516D01*
X124101868Y-79052559D01*
X124087253Y-79072265D01*
X124070777Y-79090443D01*
X124052599Y-79106919D01*
X124032893Y-79121534D01*
X124011850Y-79134146D01*
X123989671Y-79144636D01*
X123966572Y-79152901D01*
X123942773Y-79158862D01*
X123918505Y-79162462D01*
X123894001Y-79163666D01*
X122993999Y-79163666D01*
X122969495Y-79162462D01*
X122945227Y-79158862D01*
X122921428Y-79152901D01*
X122898329Y-79144636D01*
X122876150Y-79134146D01*
X122855107Y-79121534D01*
X122835401Y-79106919D01*
X122817223Y-79090443D01*
X122800747Y-79072265D01*
X122786132Y-79052559D01*
X122773520Y-79031516D01*
X122763030Y-79009337D01*
X122754765Y-78986238D01*
X122748804Y-78962439D01*
X122745204Y-78938171D01*
X122744000Y-78913667D01*
X122744000Y-78263665D01*
X122745204Y-78239161D01*
X122748804Y-78214893D01*
X122754765Y-78191094D01*
X122763030Y-78167995D01*
X122773520Y-78145816D01*
X122786132Y-78124773D01*
X122800747Y-78105067D01*
X122817223Y-78086889D01*
X122835401Y-78070413D01*
X122855107Y-78055798D01*
X122876150Y-78043186D01*
X122898329Y-78032696D01*
X122921428Y-78024431D01*
X122945227Y-78018470D01*
X122969495Y-78014870D01*
X122993999Y-78013666D01*
X123894001Y-78013666D01*
X123918505Y-78014870D01*
X123918505Y-78014870D01*
G37*
D12*
X123444000Y-78588666D03*
D11*
G36*
X120108505Y-71812704D02*
G01*
X120132773Y-71816304D01*
X120156572Y-71822265D01*
X120179671Y-71830530D01*
X120201850Y-71841020D01*
X120222893Y-71853632D01*
X120242599Y-71868247D01*
X120260777Y-71884723D01*
X120277253Y-71902901D01*
X120291868Y-71922607D01*
X120304480Y-71943650D01*
X120314970Y-71965829D01*
X120323235Y-71988928D01*
X120329196Y-72012727D01*
X120332796Y-72036995D01*
X120334000Y-72061499D01*
X120334000Y-72711501D01*
X120332796Y-72736005D01*
X120329196Y-72760273D01*
X120323235Y-72784072D01*
X120314970Y-72807171D01*
X120304480Y-72829350D01*
X120291868Y-72850393D01*
X120277253Y-72870099D01*
X120260777Y-72888277D01*
X120242599Y-72904753D01*
X120222893Y-72919368D01*
X120201850Y-72931980D01*
X120179671Y-72942470D01*
X120156572Y-72950735D01*
X120132773Y-72956696D01*
X120108505Y-72960296D01*
X120084001Y-72961500D01*
X119183999Y-72961500D01*
X119159495Y-72960296D01*
X119135227Y-72956696D01*
X119111428Y-72950735D01*
X119088329Y-72942470D01*
X119066150Y-72931980D01*
X119045107Y-72919368D01*
X119025401Y-72904753D01*
X119007223Y-72888277D01*
X118990747Y-72870099D01*
X118976132Y-72850393D01*
X118963520Y-72829350D01*
X118953030Y-72807171D01*
X118944765Y-72784072D01*
X118938804Y-72760273D01*
X118935204Y-72736005D01*
X118934000Y-72711501D01*
X118934000Y-72061499D01*
X118935204Y-72036995D01*
X118938804Y-72012727D01*
X118944765Y-71988928D01*
X118953030Y-71965829D01*
X118963520Y-71943650D01*
X118976132Y-71922607D01*
X118990747Y-71902901D01*
X119007223Y-71884723D01*
X119025401Y-71868247D01*
X119045107Y-71853632D01*
X119066150Y-71841020D01*
X119088329Y-71830530D01*
X119111428Y-71822265D01*
X119135227Y-71816304D01*
X119159495Y-71812704D01*
X119183999Y-71811500D01*
X120084001Y-71811500D01*
X120108505Y-71812704D01*
X120108505Y-71812704D01*
G37*
D12*
X119634000Y-72386500D03*
D11*
G36*
X120108505Y-69762704D02*
G01*
X120132773Y-69766304D01*
X120156572Y-69772265D01*
X120179671Y-69780530D01*
X120201850Y-69791020D01*
X120222893Y-69803632D01*
X120242599Y-69818247D01*
X120260777Y-69834723D01*
X120277253Y-69852901D01*
X120291868Y-69872607D01*
X120304480Y-69893650D01*
X120314970Y-69915829D01*
X120323235Y-69938928D01*
X120329196Y-69962727D01*
X120332796Y-69986995D01*
X120334000Y-70011499D01*
X120334000Y-70661501D01*
X120332796Y-70686005D01*
X120329196Y-70710273D01*
X120323235Y-70734072D01*
X120314970Y-70757171D01*
X120304480Y-70779350D01*
X120291868Y-70800393D01*
X120277253Y-70820099D01*
X120260777Y-70838277D01*
X120242599Y-70854753D01*
X120222893Y-70869368D01*
X120201850Y-70881980D01*
X120179671Y-70892470D01*
X120156572Y-70900735D01*
X120132773Y-70906696D01*
X120108505Y-70910296D01*
X120084001Y-70911500D01*
X119183999Y-70911500D01*
X119159495Y-70910296D01*
X119135227Y-70906696D01*
X119111428Y-70900735D01*
X119088329Y-70892470D01*
X119066150Y-70881980D01*
X119045107Y-70869368D01*
X119025401Y-70854753D01*
X119007223Y-70838277D01*
X118990747Y-70820099D01*
X118976132Y-70800393D01*
X118963520Y-70779350D01*
X118953030Y-70757171D01*
X118944765Y-70734072D01*
X118938804Y-70710273D01*
X118935204Y-70686005D01*
X118934000Y-70661501D01*
X118934000Y-70011499D01*
X118935204Y-69986995D01*
X118938804Y-69962727D01*
X118944765Y-69938928D01*
X118953030Y-69915829D01*
X118963520Y-69893650D01*
X118976132Y-69872607D01*
X118990747Y-69852901D01*
X119007223Y-69834723D01*
X119025401Y-69818247D01*
X119045107Y-69803632D01*
X119066150Y-69791020D01*
X119088329Y-69780530D01*
X119111428Y-69772265D01*
X119135227Y-69766304D01*
X119159495Y-69762704D01*
X119183999Y-69761500D01*
X120084001Y-69761500D01*
X120108505Y-69762704D01*
X120108505Y-69762704D01*
G37*
D12*
X119634000Y-70336500D03*
D11*
G36*
X122013505Y-71762704D02*
G01*
X122037773Y-71766304D01*
X122061572Y-71772265D01*
X122084671Y-71780530D01*
X122106850Y-71791020D01*
X122127893Y-71803632D01*
X122147599Y-71818247D01*
X122165777Y-71834723D01*
X122182253Y-71852901D01*
X122196868Y-71872607D01*
X122209480Y-71893650D01*
X122219970Y-71915829D01*
X122228235Y-71938928D01*
X122234196Y-71962727D01*
X122237796Y-71986995D01*
X122239000Y-72011499D01*
X122239000Y-72661501D01*
X122237796Y-72686005D01*
X122234196Y-72710273D01*
X122228235Y-72734072D01*
X122219970Y-72757171D01*
X122209480Y-72779350D01*
X122196868Y-72800393D01*
X122182253Y-72820099D01*
X122165777Y-72838277D01*
X122147599Y-72854753D01*
X122127893Y-72869368D01*
X122106850Y-72881980D01*
X122084671Y-72892470D01*
X122061572Y-72900735D01*
X122037773Y-72906696D01*
X122013505Y-72910296D01*
X121989001Y-72911500D01*
X121088999Y-72911500D01*
X121064495Y-72910296D01*
X121040227Y-72906696D01*
X121016428Y-72900735D01*
X120993329Y-72892470D01*
X120971150Y-72881980D01*
X120950107Y-72869368D01*
X120930401Y-72854753D01*
X120912223Y-72838277D01*
X120895747Y-72820099D01*
X120881132Y-72800393D01*
X120868520Y-72779350D01*
X120858030Y-72757171D01*
X120849765Y-72734072D01*
X120843804Y-72710273D01*
X120840204Y-72686005D01*
X120839000Y-72661501D01*
X120839000Y-72011499D01*
X120840204Y-71986995D01*
X120843804Y-71962727D01*
X120849765Y-71938928D01*
X120858030Y-71915829D01*
X120868520Y-71893650D01*
X120881132Y-71872607D01*
X120895747Y-71852901D01*
X120912223Y-71834723D01*
X120930401Y-71818247D01*
X120950107Y-71803632D01*
X120971150Y-71791020D01*
X120993329Y-71780530D01*
X121016428Y-71772265D01*
X121040227Y-71766304D01*
X121064495Y-71762704D01*
X121088999Y-71761500D01*
X121989001Y-71761500D01*
X122013505Y-71762704D01*
X122013505Y-71762704D01*
G37*
D12*
X121539000Y-72336500D03*
D11*
G36*
X122013505Y-73812704D02*
G01*
X122037773Y-73816304D01*
X122061572Y-73822265D01*
X122084671Y-73830530D01*
X122106850Y-73841020D01*
X122127893Y-73853632D01*
X122147599Y-73868247D01*
X122165777Y-73884723D01*
X122182253Y-73902901D01*
X122196868Y-73922607D01*
X122209480Y-73943650D01*
X122219970Y-73965829D01*
X122228235Y-73988928D01*
X122234196Y-74012727D01*
X122237796Y-74036995D01*
X122239000Y-74061499D01*
X122239000Y-74711501D01*
X122237796Y-74736005D01*
X122234196Y-74760273D01*
X122228235Y-74784072D01*
X122219970Y-74807171D01*
X122209480Y-74829350D01*
X122196868Y-74850393D01*
X122182253Y-74870099D01*
X122165777Y-74888277D01*
X122147599Y-74904753D01*
X122127893Y-74919368D01*
X122106850Y-74931980D01*
X122084671Y-74942470D01*
X122061572Y-74950735D01*
X122037773Y-74956696D01*
X122013505Y-74960296D01*
X121989001Y-74961500D01*
X121088999Y-74961500D01*
X121064495Y-74960296D01*
X121040227Y-74956696D01*
X121016428Y-74950735D01*
X120993329Y-74942470D01*
X120971150Y-74931980D01*
X120950107Y-74919368D01*
X120930401Y-74904753D01*
X120912223Y-74888277D01*
X120895747Y-74870099D01*
X120881132Y-74850393D01*
X120868520Y-74829350D01*
X120858030Y-74807171D01*
X120849765Y-74784072D01*
X120843804Y-74760273D01*
X120840204Y-74736005D01*
X120839000Y-74711501D01*
X120839000Y-74061499D01*
X120840204Y-74036995D01*
X120843804Y-74012727D01*
X120849765Y-73988928D01*
X120858030Y-73965829D01*
X120868520Y-73943650D01*
X120881132Y-73922607D01*
X120895747Y-73902901D01*
X120912223Y-73884723D01*
X120930401Y-73868247D01*
X120950107Y-73853632D01*
X120971150Y-73841020D01*
X120993329Y-73830530D01*
X121016428Y-73822265D01*
X121040227Y-73816304D01*
X121064495Y-73812704D01*
X121088999Y-73811500D01*
X121989001Y-73811500D01*
X122013505Y-73812704D01*
X122013505Y-73812704D01*
G37*
D12*
X121539000Y-74386500D03*
D11*
G36*
X123918505Y-73812704D02*
G01*
X123942773Y-73816304D01*
X123966572Y-73822265D01*
X123989671Y-73830530D01*
X124011850Y-73841020D01*
X124032893Y-73853632D01*
X124052599Y-73868247D01*
X124070777Y-73884723D01*
X124087253Y-73902901D01*
X124101868Y-73922607D01*
X124114480Y-73943650D01*
X124124970Y-73965829D01*
X124133235Y-73988928D01*
X124139196Y-74012727D01*
X124142796Y-74036995D01*
X124144000Y-74061499D01*
X124144000Y-74711501D01*
X124142796Y-74736005D01*
X124139196Y-74760273D01*
X124133235Y-74784072D01*
X124124970Y-74807171D01*
X124114480Y-74829350D01*
X124101868Y-74850393D01*
X124087253Y-74870099D01*
X124070777Y-74888277D01*
X124052599Y-74904753D01*
X124032893Y-74919368D01*
X124011850Y-74931980D01*
X123989671Y-74942470D01*
X123966572Y-74950735D01*
X123942773Y-74956696D01*
X123918505Y-74960296D01*
X123894001Y-74961500D01*
X122993999Y-74961500D01*
X122969495Y-74960296D01*
X122945227Y-74956696D01*
X122921428Y-74950735D01*
X122898329Y-74942470D01*
X122876150Y-74931980D01*
X122855107Y-74919368D01*
X122835401Y-74904753D01*
X122817223Y-74888277D01*
X122800747Y-74870099D01*
X122786132Y-74850393D01*
X122773520Y-74829350D01*
X122763030Y-74807171D01*
X122754765Y-74784072D01*
X122748804Y-74760273D01*
X122745204Y-74736005D01*
X122744000Y-74711501D01*
X122744000Y-74061499D01*
X122745204Y-74036995D01*
X122748804Y-74012727D01*
X122754765Y-73988928D01*
X122763030Y-73965829D01*
X122773520Y-73943650D01*
X122786132Y-73922607D01*
X122800747Y-73902901D01*
X122817223Y-73884723D01*
X122835401Y-73868247D01*
X122855107Y-73853632D01*
X122876150Y-73841020D01*
X122898329Y-73830530D01*
X122921428Y-73822265D01*
X122945227Y-73816304D01*
X122969495Y-73812704D01*
X122993999Y-73811500D01*
X123894001Y-73811500D01*
X123918505Y-73812704D01*
X123918505Y-73812704D01*
G37*
D12*
X123444000Y-74386500D03*
D11*
G36*
X123918505Y-71762704D02*
G01*
X123942773Y-71766304D01*
X123966572Y-71772265D01*
X123989671Y-71780530D01*
X124011850Y-71791020D01*
X124032893Y-71803632D01*
X124052599Y-71818247D01*
X124070777Y-71834723D01*
X124087253Y-71852901D01*
X124101868Y-71872607D01*
X124114480Y-71893650D01*
X124124970Y-71915829D01*
X124133235Y-71938928D01*
X124139196Y-71962727D01*
X124142796Y-71986995D01*
X124144000Y-72011499D01*
X124144000Y-72661501D01*
X124142796Y-72686005D01*
X124139196Y-72710273D01*
X124133235Y-72734072D01*
X124124970Y-72757171D01*
X124114480Y-72779350D01*
X124101868Y-72800393D01*
X124087253Y-72820099D01*
X124070777Y-72838277D01*
X124052599Y-72854753D01*
X124032893Y-72869368D01*
X124011850Y-72881980D01*
X123989671Y-72892470D01*
X123966572Y-72900735D01*
X123942773Y-72906696D01*
X123918505Y-72910296D01*
X123894001Y-72911500D01*
X122993999Y-72911500D01*
X122969495Y-72910296D01*
X122945227Y-72906696D01*
X122921428Y-72900735D01*
X122898329Y-72892470D01*
X122876150Y-72881980D01*
X122855107Y-72869368D01*
X122835401Y-72854753D01*
X122817223Y-72838277D01*
X122800747Y-72820099D01*
X122786132Y-72800393D01*
X122773520Y-72779350D01*
X122763030Y-72757171D01*
X122754765Y-72734072D01*
X122748804Y-72710273D01*
X122745204Y-72686005D01*
X122744000Y-72661501D01*
X122744000Y-72011499D01*
X122745204Y-71986995D01*
X122748804Y-71962727D01*
X122754765Y-71938928D01*
X122763030Y-71915829D01*
X122773520Y-71893650D01*
X122786132Y-71872607D01*
X122800747Y-71852901D01*
X122817223Y-71834723D01*
X122835401Y-71818247D01*
X122855107Y-71803632D01*
X122876150Y-71791020D01*
X122898329Y-71780530D01*
X122921428Y-71772265D01*
X122945227Y-71766304D01*
X122969495Y-71762704D01*
X122993999Y-71761500D01*
X123894001Y-71761500D01*
X123918505Y-71762704D01*
X123918505Y-71762704D01*
G37*
D12*
X123444000Y-72336500D03*
D14*
X127990600Y-67284600D03*
D15*
X127990600Y-69824600D03*
X127990600Y-76538666D03*
D14*
X127990600Y-73998666D03*
X127990600Y-87426800D03*
D15*
X127990600Y-89966800D03*
X127990600Y-83252732D03*
D14*
X127990600Y-80712732D03*
D16*
X83121500Y-80675500D03*
X83121500Y-78175500D03*
X83121500Y-75675500D03*
X83121500Y-73175500D03*
D11*
G36*
X83871094Y-69826703D02*
G01*
X83895353Y-69830302D01*
X83919142Y-69836261D01*
X83942233Y-69844523D01*
X83964402Y-69855008D01*
X83985437Y-69867616D01*
X84005135Y-69882225D01*
X84023306Y-69898694D01*
X84039775Y-69916865D01*
X84054384Y-69936563D01*
X84066992Y-69957598D01*
X84077477Y-69979767D01*
X84085739Y-70002858D01*
X84091698Y-70026647D01*
X84095297Y-70050906D01*
X84096500Y-70075400D01*
X84096500Y-71275600D01*
X84095297Y-71300094D01*
X84091698Y-71324353D01*
X84085739Y-71348142D01*
X84077477Y-71371233D01*
X84066992Y-71393402D01*
X84054384Y-71414437D01*
X84039775Y-71434135D01*
X84023306Y-71452306D01*
X84005135Y-71468775D01*
X83985437Y-71483384D01*
X83964402Y-71495992D01*
X83942233Y-71506477D01*
X83919142Y-71514739D01*
X83895353Y-71520698D01*
X83871094Y-71524297D01*
X83846600Y-71525500D01*
X82396400Y-71525500D01*
X82371906Y-71524297D01*
X82347647Y-71520698D01*
X82323858Y-71514739D01*
X82300767Y-71506477D01*
X82278598Y-71495992D01*
X82257563Y-71483384D01*
X82237865Y-71468775D01*
X82219694Y-71452306D01*
X82203225Y-71434135D01*
X82188616Y-71414437D01*
X82176008Y-71393402D01*
X82165523Y-71371233D01*
X82157261Y-71348142D01*
X82151302Y-71324353D01*
X82147703Y-71300094D01*
X82146500Y-71275600D01*
X82146500Y-70075400D01*
X82147703Y-70050906D01*
X82151302Y-70026647D01*
X82157261Y-70002858D01*
X82165523Y-69979767D01*
X82176008Y-69957598D01*
X82188616Y-69936563D01*
X82203225Y-69916865D01*
X82219694Y-69898694D01*
X82237865Y-69882225D01*
X82257563Y-69867616D01*
X82278598Y-69855008D01*
X82300767Y-69844523D01*
X82323858Y-69836261D01*
X82347647Y-69830302D01*
X82371906Y-69826703D01*
X82396400Y-69825500D01*
X83846600Y-69825500D01*
X83871094Y-69826703D01*
X83871094Y-69826703D01*
G37*
D17*
X83121500Y-70675500D03*
D18*
X103072000Y-88086500D03*
X105072000Y-88086500D03*
X107072000Y-88086500D03*
X109072000Y-88086500D03*
X111072000Y-88086500D03*
X113072000Y-88086500D03*
D19*
X100362000Y-72386500D03*
X100362000Y-74386500D03*
X100362000Y-76386500D03*
X100362000Y-78386500D03*
X100362000Y-80386500D03*
X100362000Y-82386500D03*
X100362000Y-84386500D03*
X100362000Y-86386500D03*
X115762000Y-86386500D03*
X115762000Y-84386500D03*
X115762000Y-82386500D03*
X115762000Y-80386500D03*
X115762000Y-78386500D03*
X115762000Y-76386500D03*
X115762000Y-74386500D03*
X115762000Y-72386500D03*
D11*
G36*
X119394504Y-83675204D02*
G01*
X119418773Y-83678804D01*
X119442571Y-83684765D01*
X119465671Y-83693030D01*
X119487849Y-83703520D01*
X119508893Y-83716133D01*
X119528598Y-83730747D01*
X119546777Y-83747223D01*
X119563253Y-83765402D01*
X119577867Y-83785107D01*
X119590480Y-83806151D01*
X119600970Y-83828329D01*
X119609235Y-83851429D01*
X119615196Y-83875227D01*
X119618796Y-83899496D01*
X119620000Y-83924000D01*
X119620000Y-84849000D01*
X119618796Y-84873504D01*
X119615196Y-84897773D01*
X119609235Y-84921571D01*
X119600970Y-84944671D01*
X119590480Y-84966849D01*
X119577867Y-84987893D01*
X119563253Y-85007598D01*
X119546777Y-85025777D01*
X119528598Y-85042253D01*
X119508893Y-85056867D01*
X119487849Y-85069480D01*
X119465671Y-85079970D01*
X119442571Y-85088235D01*
X119418773Y-85094196D01*
X119394504Y-85097796D01*
X119370000Y-85099000D01*
X118120000Y-85099000D01*
X118095496Y-85097796D01*
X118071227Y-85094196D01*
X118047429Y-85088235D01*
X118024329Y-85079970D01*
X118002151Y-85069480D01*
X117981107Y-85056867D01*
X117961402Y-85042253D01*
X117943223Y-85025777D01*
X117926747Y-85007598D01*
X117912133Y-84987893D01*
X117899520Y-84966849D01*
X117889030Y-84944671D01*
X117880765Y-84921571D01*
X117874804Y-84897773D01*
X117871204Y-84873504D01*
X117870000Y-84849000D01*
X117870000Y-83924000D01*
X117871204Y-83899496D01*
X117874804Y-83875227D01*
X117880765Y-83851429D01*
X117889030Y-83828329D01*
X117899520Y-83806151D01*
X117912133Y-83785107D01*
X117926747Y-83765402D01*
X117943223Y-83747223D01*
X117961402Y-83730747D01*
X117981107Y-83716133D01*
X118002151Y-83703520D01*
X118024329Y-83693030D01*
X118047429Y-83684765D01*
X118071227Y-83678804D01*
X118095496Y-83675204D01*
X118120000Y-83674000D01*
X119370000Y-83674000D01*
X119394504Y-83675204D01*
X119394504Y-83675204D01*
G37*
D13*
X118745000Y-84386500D03*
D11*
G36*
X119394504Y-86650204D02*
G01*
X119418773Y-86653804D01*
X119442571Y-86659765D01*
X119465671Y-86668030D01*
X119487849Y-86678520D01*
X119508893Y-86691133D01*
X119528598Y-86705747D01*
X119546777Y-86722223D01*
X119563253Y-86740402D01*
X119577867Y-86760107D01*
X119590480Y-86781151D01*
X119600970Y-86803329D01*
X119609235Y-86826429D01*
X119615196Y-86850227D01*
X119618796Y-86874496D01*
X119620000Y-86899000D01*
X119620000Y-87824000D01*
X119618796Y-87848504D01*
X119615196Y-87872773D01*
X119609235Y-87896571D01*
X119600970Y-87919671D01*
X119590480Y-87941849D01*
X119577867Y-87962893D01*
X119563253Y-87982598D01*
X119546777Y-88000777D01*
X119528598Y-88017253D01*
X119508893Y-88031867D01*
X119487849Y-88044480D01*
X119465671Y-88054970D01*
X119442571Y-88063235D01*
X119418773Y-88069196D01*
X119394504Y-88072796D01*
X119370000Y-88074000D01*
X118120000Y-88074000D01*
X118095496Y-88072796D01*
X118071227Y-88069196D01*
X118047429Y-88063235D01*
X118024329Y-88054970D01*
X118002151Y-88044480D01*
X117981107Y-88031867D01*
X117961402Y-88017253D01*
X117943223Y-88000777D01*
X117926747Y-87982598D01*
X117912133Y-87962893D01*
X117899520Y-87941849D01*
X117889030Y-87919671D01*
X117880765Y-87896571D01*
X117874804Y-87872773D01*
X117871204Y-87848504D01*
X117870000Y-87824000D01*
X117870000Y-86899000D01*
X117871204Y-86874496D01*
X117874804Y-86850227D01*
X117880765Y-86826429D01*
X117889030Y-86803329D01*
X117899520Y-86781151D01*
X117912133Y-86760107D01*
X117926747Y-86740402D01*
X117943223Y-86722223D01*
X117961402Y-86705747D01*
X117981107Y-86691133D01*
X118002151Y-86678520D01*
X118024329Y-86668030D01*
X118047429Y-86659765D01*
X118071227Y-86653804D01*
X118095496Y-86650204D01*
X118120000Y-86649000D01*
X119370000Y-86649000D01*
X119394504Y-86650204D01*
X119394504Y-86650204D01*
G37*
D13*
X118745000Y-87361500D03*
D11*
G36*
X119394504Y-81675204D02*
G01*
X119418773Y-81678804D01*
X119442571Y-81684765D01*
X119465671Y-81693030D01*
X119487849Y-81703520D01*
X119508893Y-81716133D01*
X119528598Y-81730747D01*
X119546777Y-81747223D01*
X119563253Y-81765402D01*
X119577867Y-81785107D01*
X119590480Y-81806151D01*
X119600970Y-81828329D01*
X119609235Y-81851429D01*
X119615196Y-81875227D01*
X119618796Y-81899496D01*
X119620000Y-81924000D01*
X119620000Y-82849000D01*
X119618796Y-82873504D01*
X119615196Y-82897773D01*
X119609235Y-82921571D01*
X119600970Y-82944671D01*
X119590480Y-82966849D01*
X119577867Y-82987893D01*
X119563253Y-83007598D01*
X119546777Y-83025777D01*
X119528598Y-83042253D01*
X119508893Y-83056867D01*
X119487849Y-83069480D01*
X119465671Y-83079970D01*
X119442571Y-83088235D01*
X119418773Y-83094196D01*
X119394504Y-83097796D01*
X119370000Y-83099000D01*
X118120000Y-83099000D01*
X118095496Y-83097796D01*
X118071227Y-83094196D01*
X118047429Y-83088235D01*
X118024329Y-83079970D01*
X118002151Y-83069480D01*
X117981107Y-83056867D01*
X117961402Y-83042253D01*
X117943223Y-83025777D01*
X117926747Y-83007598D01*
X117912133Y-82987893D01*
X117899520Y-82966849D01*
X117889030Y-82944671D01*
X117880765Y-82921571D01*
X117874804Y-82897773D01*
X117871204Y-82873504D01*
X117870000Y-82849000D01*
X117870000Y-81924000D01*
X117871204Y-81899496D01*
X117874804Y-81875227D01*
X117880765Y-81851429D01*
X117889030Y-81828329D01*
X117899520Y-81806151D01*
X117912133Y-81785107D01*
X117926747Y-81765402D01*
X117943223Y-81747223D01*
X117961402Y-81730747D01*
X117981107Y-81716133D01*
X118002151Y-81703520D01*
X118024329Y-81693030D01*
X118047429Y-81684765D01*
X118071227Y-81678804D01*
X118095496Y-81675204D01*
X118120000Y-81674000D01*
X119370000Y-81674000D01*
X119394504Y-81675204D01*
X119394504Y-81675204D01*
G37*
D13*
X118745000Y-82386500D03*
D11*
G36*
X119394504Y-78700204D02*
G01*
X119418773Y-78703804D01*
X119442571Y-78709765D01*
X119465671Y-78718030D01*
X119487849Y-78728520D01*
X119508893Y-78741133D01*
X119528598Y-78755747D01*
X119546777Y-78772223D01*
X119563253Y-78790402D01*
X119577867Y-78810107D01*
X119590480Y-78831151D01*
X119600970Y-78853329D01*
X119609235Y-78876429D01*
X119615196Y-78900227D01*
X119618796Y-78924496D01*
X119620000Y-78949000D01*
X119620000Y-79874000D01*
X119618796Y-79898504D01*
X119615196Y-79922773D01*
X119609235Y-79946571D01*
X119600970Y-79969671D01*
X119590480Y-79991849D01*
X119577867Y-80012893D01*
X119563253Y-80032598D01*
X119546777Y-80050777D01*
X119528598Y-80067253D01*
X119508893Y-80081867D01*
X119487849Y-80094480D01*
X119465671Y-80104970D01*
X119442571Y-80113235D01*
X119418773Y-80119196D01*
X119394504Y-80122796D01*
X119370000Y-80124000D01*
X118120000Y-80124000D01*
X118095496Y-80122796D01*
X118071227Y-80119196D01*
X118047429Y-80113235D01*
X118024329Y-80104970D01*
X118002151Y-80094480D01*
X117981107Y-80081867D01*
X117961402Y-80067253D01*
X117943223Y-80050777D01*
X117926747Y-80032598D01*
X117912133Y-80012893D01*
X117899520Y-79991849D01*
X117889030Y-79969671D01*
X117880765Y-79946571D01*
X117874804Y-79922773D01*
X117871204Y-79898504D01*
X117870000Y-79874000D01*
X117870000Y-78949000D01*
X117871204Y-78924496D01*
X117874804Y-78900227D01*
X117880765Y-78876429D01*
X117889030Y-78853329D01*
X117899520Y-78831151D01*
X117912133Y-78810107D01*
X117926747Y-78790402D01*
X117943223Y-78772223D01*
X117961402Y-78755747D01*
X117981107Y-78741133D01*
X118002151Y-78728520D01*
X118024329Y-78718030D01*
X118047429Y-78709765D01*
X118071227Y-78703804D01*
X118095496Y-78700204D01*
X118120000Y-78699000D01*
X119370000Y-78699000D01*
X119394504Y-78700204D01*
X119394504Y-78700204D01*
G37*
D13*
X118745000Y-79411500D03*
D20*
X91630500Y-83312000D03*
D11*
G36*
X92704013Y-87815611D02*
G01*
X92776818Y-87826411D01*
X92848214Y-87844295D01*
X92917513Y-87869090D01*
X92984048Y-87900559D01*
X93047178Y-87938398D01*
X93106295Y-87982242D01*
X93160830Y-88031670D01*
X93210258Y-88086205D01*
X93254102Y-88145322D01*
X93291941Y-88208452D01*
X93323410Y-88274987D01*
X93348205Y-88344286D01*
X93366089Y-88415682D01*
X93376889Y-88488487D01*
X93380500Y-88562000D01*
X93380500Y-90062000D01*
X93376889Y-90135513D01*
X93366089Y-90208318D01*
X93348205Y-90279714D01*
X93323410Y-90349013D01*
X93291941Y-90415548D01*
X93254102Y-90478678D01*
X93210258Y-90537795D01*
X93160830Y-90592330D01*
X93106295Y-90641758D01*
X93047178Y-90685602D01*
X92984048Y-90723441D01*
X92917513Y-90754910D01*
X92848214Y-90779705D01*
X92776818Y-90797589D01*
X92704013Y-90808389D01*
X92630500Y-90812000D01*
X90630500Y-90812000D01*
X90556987Y-90808389D01*
X90484182Y-90797589D01*
X90412786Y-90779705D01*
X90343487Y-90754910D01*
X90276952Y-90723441D01*
X90213822Y-90685602D01*
X90154705Y-90641758D01*
X90100170Y-90592330D01*
X90050742Y-90537795D01*
X90006898Y-90478678D01*
X89969059Y-90415548D01*
X89937590Y-90349013D01*
X89912795Y-90279714D01*
X89894911Y-90208318D01*
X89884111Y-90135513D01*
X89880500Y-90062000D01*
X89880500Y-88562000D01*
X89884111Y-88488487D01*
X89894911Y-88415682D01*
X89912795Y-88344286D01*
X89937590Y-88274987D01*
X89969059Y-88208452D01*
X90006898Y-88145322D01*
X90050742Y-88086205D01*
X90100170Y-88031670D01*
X90154705Y-87982242D01*
X90213822Y-87938398D01*
X90276952Y-87900559D01*
X90343487Y-87869090D01*
X90412786Y-87844295D01*
X90484182Y-87826411D01*
X90556987Y-87815611D01*
X90630500Y-87812000D01*
X92630500Y-87812000D01*
X92704013Y-87815611D01*
X92704013Y-87815611D01*
G37*
D21*
X91630500Y-89312000D03*
D22*
X95244000Y-69723000D03*
X95244000Y-70993000D03*
X95244000Y-72263000D03*
X95244000Y-73533000D03*
X95244000Y-74803000D03*
X95244000Y-76073000D03*
X95244000Y-77343000D03*
X95244000Y-78613000D03*
X88144000Y-78613000D03*
X88144000Y-77343000D03*
X88144000Y-76073000D03*
X88144000Y-74803000D03*
X88144000Y-73533000D03*
X88144000Y-72263000D03*
X88144000Y-70993000D03*
X88144000Y-69723000D03*
D23*
X120904000Y-88773000D03*
X92024200Y-75209400D03*
X93116400Y-75209400D03*
X91998800Y-76276200D03*
X93091000Y-76276200D03*
X125501400Y-72009000D03*
X125501400Y-70891400D03*
X120980200Y-80899000D03*
X123444000Y-70891400D03*
X117919500Y-71374000D03*
X94234000Y-85095801D03*
X89960501Y-74784011D03*
X97383600Y-70002400D03*
X102552498Y-72390000D03*
X102616004Y-74422000D03*
X113601500Y-75057000D03*
X112735000Y-83756500D03*
D24*
X115062000Y-82390000D02*
X118872000Y-82390000D01*
X124115500Y-82386500D02*
X125349000Y-81153000D01*
X118745000Y-82386500D02*
X124115500Y-82386500D01*
X125349000Y-81153000D02*
X125349000Y-78588666D01*
X127204266Y-78588666D02*
X125349000Y-78588666D01*
X127990600Y-79375000D02*
X127204266Y-78588666D01*
X127990600Y-80712732D02*
X127990600Y-79375000D01*
X115062000Y-84390000D02*
X118846500Y-84390000D01*
X119692500Y-84386500D02*
X118745000Y-84386500D01*
X124197000Y-88891000D02*
X119692500Y-84386500D01*
X125349000Y-88891000D02*
X124197000Y-88891000D01*
X125857000Y-87426800D02*
X127990600Y-87426800D01*
X125349000Y-87934800D02*
X125857000Y-87426800D01*
X125349000Y-88891000D02*
X125349000Y-87934800D01*
X98474000Y-84669400D02*
X98756900Y-84386500D01*
X98756900Y-84386500D02*
X101062000Y-84386500D01*
X97799000Y-84669400D02*
X98474000Y-84669400D01*
X101047700Y-82372200D02*
X101062000Y-82386500D01*
X98771200Y-82372200D02*
X101047700Y-82372200D01*
X98474000Y-82669400D02*
X98771200Y-82372200D01*
X97799000Y-82669400D02*
X98474000Y-82669400D01*
D25*
X101062000Y-86386500D02*
X102930000Y-84518500D01*
D26*
X91630500Y-83312000D02*
X90233500Y-83312000D01*
X90233500Y-83312000D02*
X88144000Y-81222500D01*
X88144000Y-81222500D02*
X88144000Y-78613000D01*
X88144000Y-78613000D02*
X88138000Y-78613000D01*
D24*
X100998000Y-76454000D02*
X101062000Y-76390000D01*
X97612200Y-76454000D02*
X100998000Y-76454000D01*
X97231200Y-76073000D02*
X97612200Y-76454000D01*
X95244000Y-76073000D02*
X97231200Y-76073000D01*
X96794000Y-77343000D02*
X95244000Y-77343000D01*
X97841000Y-78390000D02*
X96794000Y-77343000D01*
X101062000Y-78390000D02*
X97841000Y-78390000D01*
D25*
X87185500Y-73533000D02*
X88144000Y-73533000D01*
X84328000Y-70675500D02*
X87185500Y-73533000D01*
X83121500Y-70675500D02*
X84328000Y-70675500D01*
X86614000Y-74803000D02*
X88144000Y-74803000D01*
X84986500Y-73175500D02*
X86614000Y-74803000D01*
X83121500Y-73175500D02*
X84986500Y-73175500D01*
X83519000Y-76073000D02*
X83121500Y-75675500D01*
X88144000Y-76073000D02*
X83519000Y-76073000D01*
X84896500Y-78175500D02*
X85759010Y-77312990D01*
X83121500Y-78175500D02*
X84896500Y-78175500D01*
X85759010Y-77312990D02*
X87599519Y-77312990D01*
D24*
X123444000Y-72336500D02*
X123444000Y-70891400D01*
X115062000Y-74386500D02*
X118745000Y-74386500D01*
X118745000Y-74386500D02*
X121539000Y-74386500D01*
X121539000Y-74386500D02*
X123444000Y-74386500D01*
X125257500Y-74386500D02*
X125645334Y-73998666D01*
X125645334Y-73998666D02*
X127990600Y-73998666D01*
X123444000Y-74386500D02*
X125257500Y-74386500D01*
D25*
X95749000Y-80391000D02*
X95749000Y-82390000D01*
X115088500Y-86360000D02*
X115062000Y-86386500D01*
X115697000Y-86360000D02*
X115088500Y-86360000D01*
X128052592Y-76020667D02*
X127980915Y-75948990D01*
X94234000Y-83185000D02*
X94234000Y-85095801D01*
X95029000Y-82390000D02*
X94234000Y-83185000D01*
X95749000Y-82390000D02*
X95029000Y-82390000D01*
X89960501Y-78149501D02*
X89960501Y-74784011D01*
X92202000Y-80391000D02*
X89960501Y-78149501D01*
X95749000Y-80391000D02*
X92202000Y-80391000D01*
X117919500Y-70980300D02*
X117919500Y-71374000D01*
X118567200Y-70332600D02*
X117919500Y-70980300D01*
X119630100Y-70332600D02*
X118567200Y-70332600D01*
X119634000Y-70336500D02*
X119630100Y-70332600D01*
X97383600Y-71517400D02*
X97383600Y-70002400D01*
X115747800Y-89455700D02*
X115762000Y-89469900D01*
X115747800Y-87072300D02*
X115747800Y-89455700D01*
X115062000Y-86386500D02*
X115747800Y-87072300D01*
X115750900Y-89458800D02*
X115762000Y-89469900D01*
X114706400Y-89458800D02*
X115750900Y-89458800D01*
X113868200Y-90297000D02*
X114706400Y-89458800D01*
X94234000Y-88455500D02*
X96075500Y-90297000D01*
X96075500Y-90297000D02*
X113868200Y-90297000D01*
X94234000Y-85095801D02*
X94234000Y-88455500D01*
X119430800Y-90932000D02*
X117968700Y-89469900D01*
X125272800Y-90932000D02*
X119430800Y-90932000D01*
X117968700Y-89469900D02*
X115762000Y-89469900D01*
X123444000Y-76538666D02*
X125349000Y-76538666D01*
X125349000Y-76538666D02*
X127990600Y-76538666D01*
X127660400Y-69824600D02*
X127990600Y-69824600D01*
X121005600Y-67843400D02*
X125679200Y-67843400D01*
X125679200Y-67843400D02*
X127660400Y-69824600D01*
X119634000Y-69215000D02*
X121005600Y-67843400D01*
X119634000Y-70336500D02*
X119634000Y-69215000D01*
X129840600Y-69824600D02*
X131191000Y-71175000D01*
X127990600Y-69824600D02*
X129840600Y-69824600D01*
X131191000Y-75188266D02*
X129840600Y-76538666D01*
X129840600Y-76538666D02*
X127990600Y-76538666D01*
X131191000Y-71175000D02*
X131191000Y-75188266D01*
X131241800Y-90075602D02*
X131241800Y-77939866D01*
X129598002Y-91719400D02*
X131241800Y-90075602D01*
X126127400Y-91719400D02*
X129598002Y-91719400D01*
X131241800Y-77939866D02*
X129840600Y-76538666D01*
X125349000Y-90941000D02*
X126127400Y-91719400D01*
D24*
X122517000Y-78070667D02*
X123317000Y-78070667D01*
X120395323Y-75948990D02*
X122517000Y-78070667D01*
X117726490Y-75948990D02*
X120395323Y-75948990D01*
X117348480Y-76327000D02*
X117726490Y-75948990D01*
X115121500Y-76327000D02*
X117348480Y-76327000D01*
X115062000Y-76386500D02*
X115121500Y-76327000D01*
X101065500Y-72390000D02*
X102552498Y-72390000D01*
X101062000Y-72386500D02*
X101065500Y-72390000D01*
X98755200Y-72390000D02*
X97612200Y-73533000D01*
X97612200Y-73533000D02*
X95244000Y-73533000D01*
X101062000Y-72390000D02*
X98755200Y-72390000D01*
X101097500Y-74422000D02*
X102616004Y-74422000D01*
X98475800Y-74803000D02*
X95244000Y-74803000D01*
X98856800Y-74422000D02*
X98475800Y-74803000D01*
X101030000Y-74422000D02*
X98856800Y-74422000D01*
X115062000Y-72386500D02*
X115036490Y-72412010D01*
X119634000Y-72386500D02*
X115062000Y-72386500D01*
X113601500Y-73113900D02*
X113601500Y-75057000D01*
X114328900Y-72386500D02*
X113601500Y-73113900D01*
X115062000Y-72386500D02*
X114328900Y-72386500D01*
X101061000Y-80391000D02*
X101062000Y-80390000D01*
X101062000Y-80386500D02*
X109365000Y-80386500D01*
X109365000Y-80386500D02*
X112735000Y-83756500D01*
X98757900Y-80386500D02*
X101062000Y-80386500D01*
X98474000Y-80670400D02*
X98757900Y-80386500D01*
X97799000Y-80670400D02*
X98474000Y-80670400D01*
D27*
G36*
X98679000Y-69850000D02*
G01*
X98681440Y-69874776D01*
X98688667Y-69898601D01*
X98700403Y-69920557D01*
X98716197Y-69939803D01*
X98735443Y-69955597D01*
X98757399Y-69967333D01*
X98781224Y-69974560D01*
X98806000Y-69977000D01*
X117348000Y-69977000D01*
X117372776Y-69974560D01*
X117396601Y-69967333D01*
X117418557Y-69955597D01*
X117437803Y-69939803D01*
X117453597Y-69920557D01*
X117465333Y-69898601D01*
X117472560Y-69874776D01*
X117475000Y-69850000D01*
X117475000Y-64464000D01*
X133290000Y-64464000D01*
X133290001Y-92789639D01*
X117272366Y-92781489D01*
X117272000Y-92730650D01*
X117113250Y-92571900D01*
X115889000Y-92571900D01*
X115889000Y-92591900D01*
X115635000Y-92591900D01*
X115635000Y-92571900D01*
X114410750Y-92571900D01*
X114252000Y-92730650D01*
X114251645Y-92779952D01*
X79678600Y-92762362D01*
X79678600Y-91732400D01*
X114248928Y-91732400D01*
X114252000Y-92159150D01*
X114410750Y-92317900D01*
X115635000Y-92317900D01*
X115635000Y-91256150D01*
X115889000Y-91256150D01*
X115889000Y-92317900D01*
X117113250Y-92317900D01*
X117272000Y-92159150D01*
X117275072Y-91732400D01*
X117262812Y-91607918D01*
X117226502Y-91488220D01*
X117167537Y-91377906D01*
X117088185Y-91281215D01*
X116991494Y-91201863D01*
X116881180Y-91142898D01*
X116761482Y-91106588D01*
X116637000Y-91094328D01*
X116047750Y-91097400D01*
X115889000Y-91256150D01*
X115635000Y-91256150D01*
X115476250Y-91097400D01*
X114887000Y-91094328D01*
X114762518Y-91106588D01*
X114642820Y-91142898D01*
X114532506Y-91201863D01*
X114435815Y-91281215D01*
X114356463Y-91377906D01*
X114297498Y-91488220D01*
X114261188Y-91607918D01*
X114248928Y-91732400D01*
X79678600Y-91732400D01*
X79678600Y-90812000D01*
X89242428Y-90812000D01*
X89254688Y-90936482D01*
X89290998Y-91056180D01*
X89349963Y-91166494D01*
X89429315Y-91263185D01*
X89526006Y-91342537D01*
X89636320Y-91401502D01*
X89756018Y-91437812D01*
X89880500Y-91450072D01*
X91344750Y-91447000D01*
X91503500Y-91288250D01*
X91503500Y-89439000D01*
X89404250Y-89439000D01*
X89245500Y-89597750D01*
X89242428Y-90812000D01*
X79678600Y-90812000D01*
X79678600Y-87812000D01*
X89242428Y-87812000D01*
X89245500Y-89026250D01*
X89404250Y-89185000D01*
X91503500Y-89185000D01*
X91503500Y-87335750D01*
X91344750Y-87177000D01*
X89880500Y-87173928D01*
X89756018Y-87186188D01*
X89636320Y-87222498D01*
X89526006Y-87281463D01*
X89429315Y-87360815D01*
X89349963Y-87457506D01*
X89290998Y-87567820D01*
X89254688Y-87687518D01*
X89242428Y-87812000D01*
X79678600Y-87812000D01*
X79678600Y-73175500D01*
X81504315Y-73175500D01*
X81532987Y-73466611D01*
X81617901Y-73746534D01*
X81755794Y-74004514D01*
X81941366Y-74230634D01*
X82167486Y-74416206D01*
X82184874Y-74425500D01*
X82167486Y-74434794D01*
X81941366Y-74620366D01*
X81755794Y-74846486D01*
X81617901Y-75104466D01*
X81532987Y-75384389D01*
X81504315Y-75675500D01*
X81532987Y-75966611D01*
X81617901Y-76246534D01*
X81755794Y-76504514D01*
X81941366Y-76730634D01*
X82167486Y-76916206D01*
X82184874Y-76925500D01*
X82167486Y-76934794D01*
X81941366Y-77120366D01*
X81755794Y-77346486D01*
X81617901Y-77604466D01*
X81532987Y-77884389D01*
X81504315Y-78175500D01*
X81532987Y-78466611D01*
X81617901Y-78746534D01*
X81755794Y-79004514D01*
X81941366Y-79230634D01*
X82167486Y-79416206D01*
X82184874Y-79425500D01*
X82167486Y-79434794D01*
X81941366Y-79620366D01*
X81755794Y-79846486D01*
X81617901Y-80104466D01*
X81532987Y-80384389D01*
X81504315Y-80675500D01*
X81532987Y-80966611D01*
X81617901Y-81246534D01*
X81755794Y-81504514D01*
X81941366Y-81730634D01*
X82167486Y-81916206D01*
X82425466Y-82054099D01*
X82705389Y-82139013D01*
X82923550Y-82160500D01*
X83319450Y-82160500D01*
X83537611Y-82139013D01*
X83817534Y-82054099D01*
X84075514Y-81916206D01*
X84301634Y-81730634D01*
X84487206Y-81504514D01*
X84625099Y-81246534D01*
X84710013Y-80966611D01*
X84738685Y-80675500D01*
X84710013Y-80384389D01*
X84625099Y-80104466D01*
X84487206Y-79846486D01*
X84301634Y-79620366D01*
X84075514Y-79434794D01*
X84058126Y-79425500D01*
X84075514Y-79416206D01*
X84301634Y-79230634D01*
X84318158Y-79210500D01*
X84845672Y-79210500D01*
X84896500Y-79215506D01*
X84947328Y-79210500D01*
X84947338Y-79210500D01*
X85099395Y-79195524D01*
X85294493Y-79136341D01*
X85474297Y-79040234D01*
X85631896Y-78910896D01*
X85664307Y-78871403D01*
X86187721Y-78347990D01*
X86755928Y-78347990D01*
X86755928Y-78913000D01*
X86768188Y-79037482D01*
X86804498Y-79157180D01*
X86863463Y-79267494D01*
X86942815Y-79364185D01*
X87009001Y-79418502D01*
X87009000Y-81166748D01*
X87003509Y-81222500D01*
X87009000Y-81278251D01*
X87025423Y-81444998D01*
X87090324Y-81658946D01*
X87195716Y-81856123D01*
X87337551Y-82028949D01*
X87380865Y-82064496D01*
X89242428Y-83926060D01*
X89242428Y-85062000D01*
X89254688Y-85186482D01*
X89290998Y-85306180D01*
X89349963Y-85416494D01*
X89429315Y-85513185D01*
X89526006Y-85592537D01*
X89636320Y-85651502D01*
X89756018Y-85687812D01*
X89880500Y-85700072D01*
X93199000Y-85700072D01*
X93199001Y-87174309D01*
X91916250Y-87177000D01*
X91757500Y-87335750D01*
X91757500Y-89185000D01*
X91777500Y-89185000D01*
X91777500Y-89439000D01*
X91757500Y-89439000D01*
X91757500Y-91288250D01*
X91916250Y-91447000D01*
X93380500Y-91450072D01*
X93504982Y-91437812D01*
X93624680Y-91401502D01*
X93734994Y-91342537D01*
X93831685Y-91263185D01*
X93911037Y-91166494D01*
X93970002Y-91056180D01*
X94006312Y-90936482D01*
X94018572Y-90812000D01*
X94015761Y-89700971D01*
X95307697Y-90992908D01*
X95340104Y-91032396D01*
X95379592Y-91064803D01*
X95497702Y-91161734D01*
X95572779Y-91201863D01*
X95677507Y-91257841D01*
X95872605Y-91317024D01*
X96024662Y-91332000D01*
X96024671Y-91332000D01*
X96075499Y-91337006D01*
X96126327Y-91332000D01*
X113817372Y-91332000D01*
X113868200Y-91337006D01*
X113919028Y-91332000D01*
X113919038Y-91332000D01*
X114071095Y-91317024D01*
X114266193Y-91257841D01*
X114445997Y-91161734D01*
X114603596Y-91032396D01*
X114636007Y-90992903D01*
X114857678Y-90771233D01*
X114963746Y-90803408D01*
X115137000Y-90820472D01*
X116387000Y-90820472D01*
X116560254Y-90803408D01*
X116726850Y-90752872D01*
X116880386Y-90670805D01*
X117014962Y-90560362D01*
X117060478Y-90504900D01*
X117539990Y-90504900D01*
X118662997Y-91627908D01*
X118695404Y-91667396D01*
X118734892Y-91699803D01*
X118853002Y-91796734D01*
X118949109Y-91848104D01*
X119032807Y-91892841D01*
X119227905Y-91952024D01*
X119379962Y-91967000D01*
X119379965Y-91967000D01*
X119430800Y-91972007D01*
X119481635Y-91967000D01*
X124360035Y-91967000D01*
X124405613Y-92004405D01*
X124559149Y-92086472D01*
X124725745Y-92137008D01*
X124898999Y-92154072D01*
X125098361Y-92154072D01*
X125359597Y-92415308D01*
X125392004Y-92454796D01*
X125431492Y-92487203D01*
X125549602Y-92584134D01*
X125645709Y-92635504D01*
X125729407Y-92680241D01*
X125924505Y-92739424D01*
X126076562Y-92754400D01*
X126076565Y-92754400D01*
X126127400Y-92759407D01*
X126178235Y-92754400D01*
X129547174Y-92754400D01*
X129598002Y-92759406D01*
X129648830Y-92754400D01*
X129648840Y-92754400D01*
X129800897Y-92739424D01*
X129995995Y-92680241D01*
X130175799Y-92584134D01*
X130333398Y-92454796D01*
X130365809Y-92415303D01*
X131937708Y-90843405D01*
X131977196Y-90810998D01*
X132072399Y-90694993D01*
X132106534Y-90653400D01*
X132193913Y-90489924D01*
X132202641Y-90473595D01*
X132261824Y-90278497D01*
X132276800Y-90126440D01*
X132276800Y-90126431D01*
X132281806Y-90075603D01*
X132276800Y-90024775D01*
X132276800Y-77990693D01*
X132281806Y-77939865D01*
X132276800Y-77889037D01*
X132276800Y-77889028D01*
X132261824Y-77736971D01*
X132202641Y-77541873D01*
X132149896Y-77443194D01*
X132106534Y-77362068D01*
X132009603Y-77243958D01*
X131977196Y-77204470D01*
X131937708Y-77172063D01*
X131304311Y-76538666D01*
X131886908Y-75956069D01*
X131926396Y-75923662D01*
X131979719Y-75858688D01*
X132055734Y-75766064D01*
X132132377Y-75622674D01*
X132151841Y-75586259D01*
X132211024Y-75391161D01*
X132226000Y-75239104D01*
X132226000Y-75239102D01*
X132231007Y-75188266D01*
X132226000Y-75137431D01*
X132226000Y-71225835D01*
X132231007Y-71175000D01*
X132226000Y-71124162D01*
X132211024Y-70972105D01*
X132151841Y-70777007D01*
X132083320Y-70648812D01*
X132055734Y-70597202D01*
X131958803Y-70479092D01*
X131926396Y-70439604D01*
X131886908Y-70407197D01*
X130608407Y-69128697D01*
X130575996Y-69089204D01*
X130418397Y-68959866D01*
X130238593Y-68863759D01*
X130043495Y-68804576D01*
X129891438Y-68789600D01*
X129891428Y-68789600D01*
X129840600Y-68784594D01*
X129789772Y-68789600D01*
X129678672Y-68789600D01*
X129678672Y-68774600D01*
X129666412Y-68650118D01*
X129630102Y-68530420D01*
X129571137Y-68420106D01*
X129491785Y-68323415D01*
X129395094Y-68244063D01*
X129381054Y-68236558D01*
X129483828Y-68082747D01*
X129610846Y-67776096D01*
X129675600Y-67450558D01*
X129675600Y-67118642D01*
X129610846Y-66793104D01*
X129483828Y-66486453D01*
X129299425Y-66210475D01*
X129064725Y-65975775D01*
X128788747Y-65791372D01*
X128482096Y-65664354D01*
X128156558Y-65599600D01*
X127824642Y-65599600D01*
X127499104Y-65664354D01*
X127192453Y-65791372D01*
X126916475Y-65975775D01*
X126681775Y-66210475D01*
X126497372Y-66486453D01*
X126370354Y-66793104D01*
X126322715Y-67032599D01*
X126256997Y-66978666D01*
X126077193Y-66882559D01*
X125882095Y-66823376D01*
X125730038Y-66808400D01*
X125730028Y-66808400D01*
X125679200Y-66803394D01*
X125628372Y-66808400D01*
X121056427Y-66808400D01*
X121005599Y-66803394D01*
X120954771Y-66808400D01*
X120954762Y-66808400D01*
X120802705Y-66823376D01*
X120607607Y-66882559D01*
X120523909Y-66927296D01*
X120427802Y-66978666D01*
X120309692Y-67075597D01*
X120270204Y-67108004D01*
X120237797Y-67147492D01*
X118938092Y-68447198D01*
X118898605Y-68479604D01*
X118866198Y-68519092D01*
X118866197Y-68519093D01*
X118769266Y-68637203D01*
X118673160Y-68817007D01*
X118613977Y-69012105D01*
X118593994Y-69215000D01*
X118599001Y-69265837D01*
X118599001Y-69295726D01*
X118567199Y-69292594D01*
X118516371Y-69297600D01*
X118516362Y-69297600D01*
X118364305Y-69312576D01*
X118169207Y-69371759D01*
X118085509Y-69416496D01*
X117989402Y-69467866D01*
X117935450Y-69512144D01*
X117831804Y-69597204D01*
X117799393Y-69636697D01*
X117223597Y-70212493D01*
X117184104Y-70244904D01*
X117054766Y-70402503D01*
X116958659Y-70582308D01*
X116899476Y-70777406D01*
X116884500Y-70929463D01*
X116884500Y-70929472D01*
X116879494Y-70980300D01*
X116884500Y-71031128D01*
X116884500Y-71198428D01*
X114512000Y-71198428D01*
X114387518Y-71210688D01*
X114267820Y-71246998D01*
X114157506Y-71305963D01*
X114060815Y-71385315D01*
X113981463Y-71482006D01*
X113922498Y-71592320D01*
X113886188Y-71712018D01*
X113883799Y-71736274D01*
X113844008Y-71768931D01*
X113801087Y-71804155D01*
X113801084Y-71804158D01*
X113771136Y-71828736D01*
X113746557Y-71858685D01*
X113073689Y-72531553D01*
X113043736Y-72556136D01*
X112945638Y-72675668D01*
X112872746Y-72812041D01*
X112827859Y-72960014D01*
X112816500Y-73075340D01*
X112816500Y-73075347D01*
X112812703Y-73113900D01*
X112816500Y-73152453D01*
X112816501Y-74378288D01*
X112797563Y-74397226D01*
X112684295Y-74566744D01*
X112606274Y-74755102D01*
X112566500Y-74955061D01*
X112566500Y-75158939D01*
X112606274Y-75358898D01*
X112684295Y-75547256D01*
X112797563Y-75716774D01*
X112941726Y-75860937D01*
X113111244Y-75974205D01*
X113299602Y-76052226D01*
X113499561Y-76092000D01*
X113703439Y-76092000D01*
X113873928Y-76058088D01*
X113873928Y-76936500D01*
X113886188Y-77060982D01*
X113922498Y-77180680D01*
X113981463Y-77290994D01*
X114059842Y-77386500D01*
X113981463Y-77482006D01*
X113922498Y-77592320D01*
X113886188Y-77712018D01*
X113873928Y-77836500D01*
X113873928Y-78936500D01*
X113886188Y-79060982D01*
X113922498Y-79180680D01*
X113981463Y-79290994D01*
X114059842Y-79386500D01*
X113981463Y-79482006D01*
X113922498Y-79592320D01*
X113886188Y-79712018D01*
X113873928Y-79836500D01*
X113873928Y-80936500D01*
X113886188Y-81060982D01*
X113922498Y-81180680D01*
X113981463Y-81290994D01*
X114059842Y-81386500D01*
X113981463Y-81482006D01*
X113922498Y-81592320D01*
X113886188Y-81712018D01*
X113873928Y-81836500D01*
X113873928Y-82936500D01*
X113886188Y-83060982D01*
X113922498Y-83180680D01*
X113981463Y-83290994D01*
X114059842Y-83386500D01*
X113981463Y-83482006D01*
X113922498Y-83592320D01*
X113886188Y-83712018D01*
X113873928Y-83836500D01*
X113873928Y-84936500D01*
X113886188Y-85060982D01*
X113922498Y-85180680D01*
X113981463Y-85290994D01*
X114059842Y-85386500D01*
X113981463Y-85482006D01*
X113922498Y-85592320D01*
X113886188Y-85712018D01*
X113873928Y-85836500D01*
X113873928Y-86251139D01*
X113866180Y-86246998D01*
X113746482Y-86210688D01*
X113622000Y-86198428D01*
X112522000Y-86198428D01*
X112397518Y-86210688D01*
X112277820Y-86246998D01*
X112167506Y-86305963D01*
X112072000Y-86384342D01*
X111976494Y-86305963D01*
X111866180Y-86246998D01*
X111746482Y-86210688D01*
X111622000Y-86198428D01*
X110522000Y-86198428D01*
X110397518Y-86210688D01*
X110277820Y-86246998D01*
X110167506Y-86305963D01*
X110072000Y-86384342D01*
X109976494Y-86305963D01*
X109866180Y-86246998D01*
X109746482Y-86210688D01*
X109622000Y-86198428D01*
X108522000Y-86198428D01*
X108397518Y-86210688D01*
X108277820Y-86246998D01*
X108167506Y-86305963D01*
X108072000Y-86384342D01*
X107976494Y-86305963D01*
X107866180Y-86246998D01*
X107746482Y-86210688D01*
X107622000Y-86198428D01*
X106522000Y-86198428D01*
X106397518Y-86210688D01*
X106277820Y-86246998D01*
X106167506Y-86305963D01*
X106072000Y-86384342D01*
X105976494Y-86305963D01*
X105866180Y-86246998D01*
X105746482Y-86210688D01*
X105622000Y-86198428D01*
X104522000Y-86198428D01*
X104397518Y-86210688D01*
X104277820Y-86246998D01*
X104167506Y-86305963D01*
X104072000Y-86384342D01*
X103976494Y-86305963D01*
X103866180Y-86246998D01*
X103746482Y-86210688D01*
X103622000Y-86198428D01*
X102522000Y-86198428D01*
X102397518Y-86210688D01*
X102277820Y-86246998D01*
X102247000Y-86263472D01*
X102247000Y-86259498D01*
X102088252Y-86259498D01*
X102247000Y-86100750D01*
X102250072Y-85836500D01*
X102237812Y-85712018D01*
X102201502Y-85592320D01*
X102142537Y-85482006D01*
X102064158Y-85386500D01*
X102142537Y-85290994D01*
X102201502Y-85180680D01*
X102237812Y-85060982D01*
X102250072Y-84936500D01*
X102250072Y-83836500D01*
X102237812Y-83712018D01*
X102201502Y-83592320D01*
X102142537Y-83482006D01*
X102064158Y-83386500D01*
X102142537Y-83290994D01*
X102201502Y-83180680D01*
X102237812Y-83060982D01*
X102250072Y-82936500D01*
X102250072Y-81836500D01*
X102237812Y-81712018D01*
X102201502Y-81592320D01*
X102142537Y-81482006D01*
X102064158Y-81386500D01*
X102142537Y-81290994D01*
X102201502Y-81180680D01*
X102204287Y-81171500D01*
X109039843Y-81171500D01*
X111700000Y-83831657D01*
X111700000Y-83858439D01*
X111739774Y-84058398D01*
X111817795Y-84246756D01*
X111931063Y-84416274D01*
X112075226Y-84560437D01*
X112244744Y-84673705D01*
X112433102Y-84751726D01*
X112633061Y-84791500D01*
X112836939Y-84791500D01*
X113036898Y-84751726D01*
X113225256Y-84673705D01*
X113394774Y-84560437D01*
X113538937Y-84416274D01*
X113652205Y-84246756D01*
X113730226Y-84058398D01*
X113770000Y-83858439D01*
X113770000Y-83654561D01*
X113730226Y-83454602D01*
X113652205Y-83266244D01*
X113538937Y-83096726D01*
X113394774Y-82952563D01*
X113225256Y-82839295D01*
X113036898Y-82761274D01*
X112836939Y-82721500D01*
X112810157Y-82721500D01*
X109947347Y-79858690D01*
X109922764Y-79828736D01*
X109803233Y-79730638D01*
X109666860Y-79657746D01*
X109518887Y-79612859D01*
X109403561Y-79601500D01*
X109403553Y-79601500D01*
X109365000Y-79597703D01*
X109326447Y-79601500D01*
X102204287Y-79601500D01*
X102201502Y-79592320D01*
X102142537Y-79482006D01*
X102064158Y-79386500D01*
X102142537Y-79290994D01*
X102201502Y-79180680D01*
X102237812Y-79060982D01*
X102250072Y-78936500D01*
X102250072Y-77836500D01*
X102237812Y-77712018D01*
X102201502Y-77592320D01*
X102142537Y-77482006D01*
X102064158Y-77386500D01*
X102142537Y-77290994D01*
X102201502Y-77180680D01*
X102237812Y-77060982D01*
X102250072Y-76936500D01*
X102250072Y-75836500D01*
X102237812Y-75712018D01*
X102201502Y-75592320D01*
X102142537Y-75482006D01*
X102064158Y-75386500D01*
X102111038Y-75329376D01*
X102125748Y-75339205D01*
X102314106Y-75417226D01*
X102514065Y-75457000D01*
X102717943Y-75457000D01*
X102917902Y-75417226D01*
X103106260Y-75339205D01*
X103275778Y-75225937D01*
X103419941Y-75081774D01*
X103533209Y-74912256D01*
X103611230Y-74723898D01*
X103651004Y-74523939D01*
X103651004Y-74320061D01*
X103611230Y-74120102D01*
X103533209Y-73931744D01*
X103419941Y-73762226D01*
X103275778Y-73618063D01*
X103106260Y-73504795D01*
X102917902Y-73426774D01*
X102781710Y-73399684D01*
X102854396Y-73385226D01*
X103042754Y-73307205D01*
X103212272Y-73193937D01*
X103356435Y-73049774D01*
X103469703Y-72880256D01*
X103547724Y-72691898D01*
X103587498Y-72491939D01*
X103587498Y-72288061D01*
X103547724Y-72088102D01*
X103469703Y-71899744D01*
X103356435Y-71730226D01*
X103212272Y-71586063D01*
X103042754Y-71472795D01*
X102854396Y-71394774D01*
X102654437Y-71355000D01*
X102450559Y-71355000D01*
X102250600Y-71394774D01*
X102116525Y-71450310D01*
X102063185Y-71385315D01*
X101966494Y-71305963D01*
X101856180Y-71246998D01*
X101736482Y-71210688D01*
X101612000Y-71198428D01*
X99112000Y-71198428D01*
X98987518Y-71210688D01*
X98867820Y-71246998D01*
X98757506Y-71305963D01*
X98721672Y-71335371D01*
X98721672Y-71192399D01*
X98704608Y-71019145D01*
X98654072Y-70852549D01*
X98572005Y-70699013D01*
X98461562Y-70564438D01*
X98418600Y-70529180D01*
X98418600Y-69900461D01*
X98408631Y-69850343D01*
X98403624Y-69799505D01*
X98388796Y-69750623D01*
X98378826Y-69700502D01*
X98359269Y-69653287D01*
X98344441Y-69604407D01*
X98320362Y-69559358D01*
X98300805Y-69512144D01*
X98272414Y-69469654D01*
X98248334Y-69424603D01*
X98215928Y-69385116D01*
X98187537Y-69342626D01*
X98151403Y-69306492D01*
X98118996Y-69267004D01*
X98079508Y-69234597D01*
X98043374Y-69198463D01*
X98000884Y-69170072D01*
X97961397Y-69137666D01*
X97916346Y-69113586D01*
X97873856Y-69085195D01*
X97826642Y-69065638D01*
X97781593Y-69041559D01*
X97732713Y-69026731D01*
X97685498Y-69007174D01*
X97635377Y-68997204D01*
X97586495Y-68982376D01*
X97535657Y-68977369D01*
X97485539Y-68967400D01*
X97434438Y-68967400D01*
X97383600Y-68962393D01*
X97332762Y-68967400D01*
X97281661Y-68967400D01*
X97231542Y-68977369D01*
X97180706Y-68982376D01*
X97131826Y-68997204D01*
X97081702Y-69007174D01*
X97034484Y-69026732D01*
X96985608Y-69041559D01*
X96940562Y-69065637D01*
X96893344Y-69085195D01*
X96850850Y-69113588D01*
X96805804Y-69137666D01*
X96766321Y-69170069D01*
X96723826Y-69198463D01*
X96687687Y-69234602D01*
X96648205Y-69267004D01*
X96620083Y-69301271D01*
X96619812Y-69298518D01*
X96583502Y-69178820D01*
X96524537Y-69068506D01*
X96445185Y-68971815D01*
X96348494Y-68892463D01*
X96238180Y-68833498D01*
X96118482Y-68797188D01*
X95994000Y-68784928D01*
X94494000Y-68784928D01*
X94369518Y-68797188D01*
X94249820Y-68833498D01*
X94139506Y-68892463D01*
X94042815Y-68971815D01*
X93963463Y-69068506D01*
X93904498Y-69178820D01*
X93868188Y-69298518D01*
X93855928Y-69423000D01*
X93855928Y-70023000D01*
X93868188Y-70147482D01*
X93904498Y-70267180D01*
X93953043Y-70358000D01*
X93904498Y-70448820D01*
X93868188Y-70568518D01*
X93855928Y-70693000D01*
X93855928Y-71293000D01*
X93868188Y-71417482D01*
X93904498Y-71537180D01*
X93953043Y-71628000D01*
X93904498Y-71718820D01*
X93868188Y-71838518D01*
X93855928Y-71963000D01*
X93855928Y-72563000D01*
X93868188Y-72687482D01*
X93904498Y-72807180D01*
X93953043Y-72898000D01*
X93904498Y-72988820D01*
X93868188Y-73108518D01*
X93855928Y-73233000D01*
X93855928Y-73833000D01*
X93868188Y-73957482D01*
X93904498Y-74077180D01*
X93953043Y-74168000D01*
X93904498Y-74258820D01*
X93868188Y-74378518D01*
X93855928Y-74503000D01*
X93855928Y-75103000D01*
X93868188Y-75227482D01*
X93904498Y-75347180D01*
X93953043Y-75438000D01*
X93904498Y-75528820D01*
X93868188Y-75648518D01*
X93855928Y-75773000D01*
X93855928Y-76373000D01*
X93868188Y-76497482D01*
X93904498Y-76617180D01*
X93953043Y-76708000D01*
X93904498Y-76798820D01*
X93868188Y-76918518D01*
X93855928Y-77043000D01*
X93855928Y-77643000D01*
X93868188Y-77767482D01*
X93904498Y-77887180D01*
X93953043Y-77978000D01*
X93904498Y-78068820D01*
X93868188Y-78188518D01*
X93855928Y-78313000D01*
X93859000Y-78327250D01*
X94017750Y-78486000D01*
X95117000Y-78486000D01*
X95117000Y-78466000D01*
X95371000Y-78466000D01*
X95371000Y-78486000D01*
X96470250Y-78486000D01*
X96629000Y-78327250D01*
X96632072Y-78313000D01*
X96629694Y-78288851D01*
X97258653Y-78917810D01*
X97283236Y-78947764D01*
X97402767Y-79045862D01*
X97523402Y-79110342D01*
X97539140Y-79118754D01*
X97687113Y-79163642D01*
X97762026Y-79171020D01*
X97802439Y-79175000D01*
X97802444Y-79175000D01*
X97841000Y-79178797D01*
X97879556Y-79175000D01*
X98520775Y-79175000D01*
X98522498Y-79180680D01*
X98581463Y-79290994D01*
X98659842Y-79386500D01*
X98592423Y-79468651D01*
X98463851Y-79399928D01*
X98297255Y-79349392D01*
X98124001Y-79332328D01*
X97473999Y-79332328D01*
X97300745Y-79349392D01*
X97134149Y-79399928D01*
X96980613Y-79481995D01*
X96846038Y-79592438D01*
X96774000Y-79680216D01*
X96701962Y-79592438D01*
X96567387Y-79481995D01*
X96413851Y-79399928D01*
X96404930Y-79397222D01*
X96445185Y-79364185D01*
X96524537Y-79267494D01*
X96583502Y-79157180D01*
X96619812Y-79037482D01*
X96632072Y-78913000D01*
X96629000Y-78898750D01*
X96470250Y-78740000D01*
X95371000Y-78740000D01*
X95371000Y-78760000D01*
X95117000Y-78760000D01*
X95117000Y-78740000D01*
X94017750Y-78740000D01*
X93859000Y-78898750D01*
X93855928Y-78913000D01*
X93868188Y-79037482D01*
X93904498Y-79157180D01*
X93963463Y-79267494D01*
X94036098Y-79356000D01*
X92630711Y-79356000D01*
X90995501Y-77720791D01*
X90995501Y-74682072D01*
X90985532Y-74631954D01*
X90980525Y-74581116D01*
X90965697Y-74532234D01*
X90955727Y-74482113D01*
X90936170Y-74434898D01*
X90921342Y-74386018D01*
X90897263Y-74340969D01*
X90877706Y-74293755D01*
X90849315Y-74251265D01*
X90825235Y-74206214D01*
X90792829Y-74166727D01*
X90764438Y-74124237D01*
X90728304Y-74088103D01*
X90695897Y-74048615D01*
X90656409Y-74016208D01*
X90620275Y-73980074D01*
X90577785Y-73951683D01*
X90538298Y-73919277D01*
X90493247Y-73895197D01*
X90450757Y-73866806D01*
X90403543Y-73847249D01*
X90358494Y-73823170D01*
X90309614Y-73808342D01*
X90262399Y-73788785D01*
X90212278Y-73778815D01*
X90163396Y-73763987D01*
X90112558Y-73758980D01*
X90062440Y-73749011D01*
X90011339Y-73749011D01*
X89960501Y-73744004D01*
X89909663Y-73749011D01*
X89858562Y-73749011D01*
X89808443Y-73758980D01*
X89757607Y-73763987D01*
X89708727Y-73778815D01*
X89658603Y-73788785D01*
X89611385Y-73808343D01*
X89562509Y-73823170D01*
X89531403Y-73839797D01*
X89532072Y-73833000D01*
X89532072Y-73233000D01*
X89519812Y-73108518D01*
X89483502Y-72988820D01*
X89434957Y-72898000D01*
X89483502Y-72807180D01*
X89519812Y-72687482D01*
X89532072Y-72563000D01*
X89532072Y-71963000D01*
X89519812Y-71838518D01*
X89483502Y-71718820D01*
X89434957Y-71628000D01*
X89483502Y-71537180D01*
X89519812Y-71417482D01*
X89532072Y-71293000D01*
X89532072Y-70693000D01*
X89519812Y-70568518D01*
X89483502Y-70448820D01*
X89434957Y-70358000D01*
X89483502Y-70267180D01*
X89519812Y-70147482D01*
X89532072Y-70023000D01*
X89532072Y-69423000D01*
X89519812Y-69298518D01*
X89483502Y-69178820D01*
X89424537Y-69068506D01*
X89345185Y-68971815D01*
X89248494Y-68892463D01*
X89138180Y-68833498D01*
X89018482Y-68797188D01*
X88894000Y-68784928D01*
X87394000Y-68784928D01*
X87269518Y-68797188D01*
X87149820Y-68833498D01*
X87039506Y-68892463D01*
X86942815Y-68971815D01*
X86863463Y-69068506D01*
X86804498Y-69178820D01*
X86768188Y-69298518D01*
X86755928Y-69423000D01*
X86755928Y-70023000D01*
X86768188Y-70147482D01*
X86804498Y-70267180D01*
X86853043Y-70358000D01*
X86804498Y-70448820D01*
X86768188Y-70568518D01*
X86755928Y-70693000D01*
X86755928Y-71293000D01*
X86768188Y-71417482D01*
X86804498Y-71537180D01*
X86853043Y-71628000D01*
X86815133Y-71698923D01*
X85095807Y-69979597D01*
X85063396Y-69940104D01*
X84905797Y-69810766D01*
X84725993Y-69714659D01*
X84642207Y-69689243D01*
X84584922Y-69582069D01*
X84474491Y-69447509D01*
X84339931Y-69337078D01*
X84186412Y-69255021D01*
X84019835Y-69204490D01*
X83846600Y-69187428D01*
X82396400Y-69187428D01*
X82223165Y-69204490D01*
X82056588Y-69255021D01*
X81903069Y-69337078D01*
X81768509Y-69447509D01*
X81658078Y-69582069D01*
X81576021Y-69735588D01*
X81525490Y-69902165D01*
X81508428Y-70075400D01*
X81508428Y-71275600D01*
X81525490Y-71448835D01*
X81576021Y-71615412D01*
X81658078Y-71768931D01*
X81768509Y-71903491D01*
X81903069Y-72013922D01*
X82004807Y-72068302D01*
X81941366Y-72120366D01*
X81755794Y-72346486D01*
X81617901Y-72604466D01*
X81532987Y-72884389D01*
X81504315Y-73175500D01*
X79678600Y-73175500D01*
X79678600Y-64464000D01*
X98679000Y-64464000D01*
X98679000Y-69850000D01*
X98679000Y-69850000D01*
G37*
X98679000Y-69850000D02*
X98681440Y-69874776D01*
X98688667Y-69898601D01*
X98700403Y-69920557D01*
X98716197Y-69939803D01*
X98735443Y-69955597D01*
X98757399Y-69967333D01*
X98781224Y-69974560D01*
X98806000Y-69977000D01*
X117348000Y-69977000D01*
X117372776Y-69974560D01*
X117396601Y-69967333D01*
X117418557Y-69955597D01*
X117437803Y-69939803D01*
X117453597Y-69920557D01*
X117465333Y-69898601D01*
X117472560Y-69874776D01*
X117475000Y-69850000D01*
X117475000Y-64464000D01*
X133290000Y-64464000D01*
X133290001Y-92789639D01*
X117272366Y-92781489D01*
X117272000Y-92730650D01*
X117113250Y-92571900D01*
X115889000Y-92571900D01*
X115889000Y-92591900D01*
X115635000Y-92591900D01*
X115635000Y-92571900D01*
X114410750Y-92571900D01*
X114252000Y-92730650D01*
X114251645Y-92779952D01*
X79678600Y-92762362D01*
X79678600Y-91732400D01*
X114248928Y-91732400D01*
X114252000Y-92159150D01*
X114410750Y-92317900D01*
X115635000Y-92317900D01*
X115635000Y-91256150D01*
X115889000Y-91256150D01*
X115889000Y-92317900D01*
X117113250Y-92317900D01*
X117272000Y-92159150D01*
X117275072Y-91732400D01*
X117262812Y-91607918D01*
X117226502Y-91488220D01*
X117167537Y-91377906D01*
X117088185Y-91281215D01*
X116991494Y-91201863D01*
X116881180Y-91142898D01*
X116761482Y-91106588D01*
X116637000Y-91094328D01*
X116047750Y-91097400D01*
X115889000Y-91256150D01*
X115635000Y-91256150D01*
X115476250Y-91097400D01*
X114887000Y-91094328D01*
X114762518Y-91106588D01*
X114642820Y-91142898D01*
X114532506Y-91201863D01*
X114435815Y-91281215D01*
X114356463Y-91377906D01*
X114297498Y-91488220D01*
X114261188Y-91607918D01*
X114248928Y-91732400D01*
X79678600Y-91732400D01*
X79678600Y-90812000D01*
X89242428Y-90812000D01*
X89254688Y-90936482D01*
X89290998Y-91056180D01*
X89349963Y-91166494D01*
X89429315Y-91263185D01*
X89526006Y-91342537D01*
X89636320Y-91401502D01*
X89756018Y-91437812D01*
X89880500Y-91450072D01*
X91344750Y-91447000D01*
X91503500Y-91288250D01*
X91503500Y-89439000D01*
X89404250Y-89439000D01*
X89245500Y-89597750D01*
X89242428Y-90812000D01*
X79678600Y-90812000D01*
X79678600Y-87812000D01*
X89242428Y-87812000D01*
X89245500Y-89026250D01*
X89404250Y-89185000D01*
X91503500Y-89185000D01*
X91503500Y-87335750D01*
X91344750Y-87177000D01*
X89880500Y-87173928D01*
X89756018Y-87186188D01*
X89636320Y-87222498D01*
X89526006Y-87281463D01*
X89429315Y-87360815D01*
X89349963Y-87457506D01*
X89290998Y-87567820D01*
X89254688Y-87687518D01*
X89242428Y-87812000D01*
X79678600Y-87812000D01*
X79678600Y-73175500D01*
X81504315Y-73175500D01*
X81532987Y-73466611D01*
X81617901Y-73746534D01*
X81755794Y-74004514D01*
X81941366Y-74230634D01*
X82167486Y-74416206D01*
X82184874Y-74425500D01*
X82167486Y-74434794D01*
X81941366Y-74620366D01*
X81755794Y-74846486D01*
X81617901Y-75104466D01*
X81532987Y-75384389D01*
X81504315Y-75675500D01*
X81532987Y-75966611D01*
X81617901Y-76246534D01*
X81755794Y-76504514D01*
X81941366Y-76730634D01*
X82167486Y-76916206D01*
X82184874Y-76925500D01*
X82167486Y-76934794D01*
X81941366Y-77120366D01*
X81755794Y-77346486D01*
X81617901Y-77604466D01*
X81532987Y-77884389D01*
X81504315Y-78175500D01*
X81532987Y-78466611D01*
X81617901Y-78746534D01*
X81755794Y-79004514D01*
X81941366Y-79230634D01*
X82167486Y-79416206D01*
X82184874Y-79425500D01*
X82167486Y-79434794D01*
X81941366Y-79620366D01*
X81755794Y-79846486D01*
X81617901Y-80104466D01*
X81532987Y-80384389D01*
X81504315Y-80675500D01*
X81532987Y-80966611D01*
X81617901Y-81246534D01*
X81755794Y-81504514D01*
X81941366Y-81730634D01*
X82167486Y-81916206D01*
X82425466Y-82054099D01*
X82705389Y-82139013D01*
X82923550Y-82160500D01*
X83319450Y-82160500D01*
X83537611Y-82139013D01*
X83817534Y-82054099D01*
X84075514Y-81916206D01*
X84301634Y-81730634D01*
X84487206Y-81504514D01*
X84625099Y-81246534D01*
X84710013Y-80966611D01*
X84738685Y-80675500D01*
X84710013Y-80384389D01*
X84625099Y-80104466D01*
X84487206Y-79846486D01*
X84301634Y-79620366D01*
X84075514Y-79434794D01*
X84058126Y-79425500D01*
X84075514Y-79416206D01*
X84301634Y-79230634D01*
X84318158Y-79210500D01*
X84845672Y-79210500D01*
X84896500Y-79215506D01*
X84947328Y-79210500D01*
X84947338Y-79210500D01*
X85099395Y-79195524D01*
X85294493Y-79136341D01*
X85474297Y-79040234D01*
X85631896Y-78910896D01*
X85664307Y-78871403D01*
X86187721Y-78347990D01*
X86755928Y-78347990D01*
X86755928Y-78913000D01*
X86768188Y-79037482D01*
X86804498Y-79157180D01*
X86863463Y-79267494D01*
X86942815Y-79364185D01*
X87009001Y-79418502D01*
X87009000Y-81166748D01*
X87003509Y-81222500D01*
X87009000Y-81278251D01*
X87025423Y-81444998D01*
X87090324Y-81658946D01*
X87195716Y-81856123D01*
X87337551Y-82028949D01*
X87380865Y-82064496D01*
X89242428Y-83926060D01*
X89242428Y-85062000D01*
X89254688Y-85186482D01*
X89290998Y-85306180D01*
X89349963Y-85416494D01*
X89429315Y-85513185D01*
X89526006Y-85592537D01*
X89636320Y-85651502D01*
X89756018Y-85687812D01*
X89880500Y-85700072D01*
X93199000Y-85700072D01*
X93199001Y-87174309D01*
X91916250Y-87177000D01*
X91757500Y-87335750D01*
X91757500Y-89185000D01*
X91777500Y-89185000D01*
X91777500Y-89439000D01*
X91757500Y-89439000D01*
X91757500Y-91288250D01*
X91916250Y-91447000D01*
X93380500Y-91450072D01*
X93504982Y-91437812D01*
X93624680Y-91401502D01*
X93734994Y-91342537D01*
X93831685Y-91263185D01*
X93911037Y-91166494D01*
X93970002Y-91056180D01*
X94006312Y-90936482D01*
X94018572Y-90812000D01*
X94015761Y-89700971D01*
X95307697Y-90992908D01*
X95340104Y-91032396D01*
X95379592Y-91064803D01*
X95497702Y-91161734D01*
X95572779Y-91201863D01*
X95677507Y-91257841D01*
X95872605Y-91317024D01*
X96024662Y-91332000D01*
X96024671Y-91332000D01*
X96075499Y-91337006D01*
X96126327Y-91332000D01*
X113817372Y-91332000D01*
X113868200Y-91337006D01*
X113919028Y-91332000D01*
X113919038Y-91332000D01*
X114071095Y-91317024D01*
X114266193Y-91257841D01*
X114445997Y-91161734D01*
X114603596Y-91032396D01*
X114636007Y-90992903D01*
X114857678Y-90771233D01*
X114963746Y-90803408D01*
X115137000Y-90820472D01*
X116387000Y-90820472D01*
X116560254Y-90803408D01*
X116726850Y-90752872D01*
X116880386Y-90670805D01*
X117014962Y-90560362D01*
X117060478Y-90504900D01*
X117539990Y-90504900D01*
X118662997Y-91627908D01*
X118695404Y-91667396D01*
X118734892Y-91699803D01*
X118853002Y-91796734D01*
X118949109Y-91848104D01*
X119032807Y-91892841D01*
X119227905Y-91952024D01*
X119379962Y-91967000D01*
X119379965Y-91967000D01*
X119430800Y-91972007D01*
X119481635Y-91967000D01*
X124360035Y-91967000D01*
X124405613Y-92004405D01*
X124559149Y-92086472D01*
X124725745Y-92137008D01*
X124898999Y-92154072D01*
X125098361Y-92154072D01*
X125359597Y-92415308D01*
X125392004Y-92454796D01*
X125431492Y-92487203D01*
X125549602Y-92584134D01*
X125645709Y-92635504D01*
X125729407Y-92680241D01*
X125924505Y-92739424D01*
X126076562Y-92754400D01*
X126076565Y-92754400D01*
X126127400Y-92759407D01*
X126178235Y-92754400D01*
X129547174Y-92754400D01*
X129598002Y-92759406D01*
X129648830Y-92754400D01*
X129648840Y-92754400D01*
X129800897Y-92739424D01*
X129995995Y-92680241D01*
X130175799Y-92584134D01*
X130333398Y-92454796D01*
X130365809Y-92415303D01*
X131937708Y-90843405D01*
X131977196Y-90810998D01*
X132072399Y-90694993D01*
X132106534Y-90653400D01*
X132193913Y-90489924D01*
X132202641Y-90473595D01*
X132261824Y-90278497D01*
X132276800Y-90126440D01*
X132276800Y-90126431D01*
X132281806Y-90075603D01*
X132276800Y-90024775D01*
X132276800Y-77990693D01*
X132281806Y-77939865D01*
X132276800Y-77889037D01*
X132276800Y-77889028D01*
X132261824Y-77736971D01*
X132202641Y-77541873D01*
X132149896Y-77443194D01*
X132106534Y-77362068D01*
X132009603Y-77243958D01*
X131977196Y-77204470D01*
X131937708Y-77172063D01*
X131304311Y-76538666D01*
X131886908Y-75956069D01*
X131926396Y-75923662D01*
X131979719Y-75858688D01*
X132055734Y-75766064D01*
X132132377Y-75622674D01*
X132151841Y-75586259D01*
X132211024Y-75391161D01*
X132226000Y-75239104D01*
X132226000Y-75239102D01*
X132231007Y-75188266D01*
X132226000Y-75137431D01*
X132226000Y-71225835D01*
X132231007Y-71175000D01*
X132226000Y-71124162D01*
X132211024Y-70972105D01*
X132151841Y-70777007D01*
X132083320Y-70648812D01*
X132055734Y-70597202D01*
X131958803Y-70479092D01*
X131926396Y-70439604D01*
X131886908Y-70407197D01*
X130608407Y-69128697D01*
X130575996Y-69089204D01*
X130418397Y-68959866D01*
X130238593Y-68863759D01*
X130043495Y-68804576D01*
X129891438Y-68789600D01*
X129891428Y-68789600D01*
X129840600Y-68784594D01*
X129789772Y-68789600D01*
X129678672Y-68789600D01*
X129678672Y-68774600D01*
X129666412Y-68650118D01*
X129630102Y-68530420D01*
X129571137Y-68420106D01*
X129491785Y-68323415D01*
X129395094Y-68244063D01*
X129381054Y-68236558D01*
X129483828Y-68082747D01*
X129610846Y-67776096D01*
X129675600Y-67450558D01*
X129675600Y-67118642D01*
X129610846Y-66793104D01*
X129483828Y-66486453D01*
X129299425Y-66210475D01*
X129064725Y-65975775D01*
X128788747Y-65791372D01*
X128482096Y-65664354D01*
X128156558Y-65599600D01*
X127824642Y-65599600D01*
X127499104Y-65664354D01*
X127192453Y-65791372D01*
X126916475Y-65975775D01*
X126681775Y-66210475D01*
X126497372Y-66486453D01*
X126370354Y-66793104D01*
X126322715Y-67032599D01*
X126256997Y-66978666D01*
X126077193Y-66882559D01*
X125882095Y-66823376D01*
X125730038Y-66808400D01*
X125730028Y-66808400D01*
X125679200Y-66803394D01*
X125628372Y-66808400D01*
X121056427Y-66808400D01*
X121005599Y-66803394D01*
X120954771Y-66808400D01*
X120954762Y-66808400D01*
X120802705Y-66823376D01*
X120607607Y-66882559D01*
X120523909Y-66927296D01*
X120427802Y-66978666D01*
X120309692Y-67075597D01*
X120270204Y-67108004D01*
X120237797Y-67147492D01*
X118938092Y-68447198D01*
X118898605Y-68479604D01*
X118866198Y-68519092D01*
X118866197Y-68519093D01*
X118769266Y-68637203D01*
X118673160Y-68817007D01*
X118613977Y-69012105D01*
X118593994Y-69215000D01*
X118599001Y-69265837D01*
X118599001Y-69295726D01*
X118567199Y-69292594D01*
X118516371Y-69297600D01*
X118516362Y-69297600D01*
X118364305Y-69312576D01*
X118169207Y-69371759D01*
X118085509Y-69416496D01*
X117989402Y-69467866D01*
X117935450Y-69512144D01*
X117831804Y-69597204D01*
X117799393Y-69636697D01*
X117223597Y-70212493D01*
X117184104Y-70244904D01*
X117054766Y-70402503D01*
X116958659Y-70582308D01*
X116899476Y-70777406D01*
X116884500Y-70929463D01*
X116884500Y-70929472D01*
X116879494Y-70980300D01*
X116884500Y-71031128D01*
X116884500Y-71198428D01*
X114512000Y-71198428D01*
X114387518Y-71210688D01*
X114267820Y-71246998D01*
X114157506Y-71305963D01*
X114060815Y-71385315D01*
X113981463Y-71482006D01*
X113922498Y-71592320D01*
X113886188Y-71712018D01*
X113883799Y-71736274D01*
X113844008Y-71768931D01*
X113801087Y-71804155D01*
X113801084Y-71804158D01*
X113771136Y-71828736D01*
X113746557Y-71858685D01*
X113073689Y-72531553D01*
X113043736Y-72556136D01*
X112945638Y-72675668D01*
X112872746Y-72812041D01*
X112827859Y-72960014D01*
X112816500Y-73075340D01*
X112816500Y-73075347D01*
X112812703Y-73113900D01*
X112816500Y-73152453D01*
X112816501Y-74378288D01*
X112797563Y-74397226D01*
X112684295Y-74566744D01*
X112606274Y-74755102D01*
X112566500Y-74955061D01*
X112566500Y-75158939D01*
X112606274Y-75358898D01*
X112684295Y-75547256D01*
X112797563Y-75716774D01*
X112941726Y-75860937D01*
X113111244Y-75974205D01*
X113299602Y-76052226D01*
X113499561Y-76092000D01*
X113703439Y-76092000D01*
X113873928Y-76058088D01*
X113873928Y-76936500D01*
X113886188Y-77060982D01*
X113922498Y-77180680D01*
X113981463Y-77290994D01*
X114059842Y-77386500D01*
X113981463Y-77482006D01*
X113922498Y-77592320D01*
X113886188Y-77712018D01*
X113873928Y-77836500D01*
X113873928Y-78936500D01*
X113886188Y-79060982D01*
X113922498Y-79180680D01*
X113981463Y-79290994D01*
X114059842Y-79386500D01*
X113981463Y-79482006D01*
X113922498Y-79592320D01*
X113886188Y-79712018D01*
X113873928Y-79836500D01*
X113873928Y-80936500D01*
X113886188Y-81060982D01*
X113922498Y-81180680D01*
X113981463Y-81290994D01*
X114059842Y-81386500D01*
X113981463Y-81482006D01*
X113922498Y-81592320D01*
X113886188Y-81712018D01*
X113873928Y-81836500D01*
X113873928Y-82936500D01*
X113886188Y-83060982D01*
X113922498Y-83180680D01*
X113981463Y-83290994D01*
X114059842Y-83386500D01*
X113981463Y-83482006D01*
X113922498Y-83592320D01*
X113886188Y-83712018D01*
X113873928Y-83836500D01*
X113873928Y-84936500D01*
X113886188Y-85060982D01*
X113922498Y-85180680D01*
X113981463Y-85290994D01*
X114059842Y-85386500D01*
X113981463Y-85482006D01*
X113922498Y-85592320D01*
X113886188Y-85712018D01*
X113873928Y-85836500D01*
X113873928Y-86251139D01*
X113866180Y-86246998D01*
X113746482Y-86210688D01*
X113622000Y-86198428D01*
X112522000Y-86198428D01*
X112397518Y-86210688D01*
X112277820Y-86246998D01*
X112167506Y-86305963D01*
X112072000Y-86384342D01*
X111976494Y-86305963D01*
X111866180Y-86246998D01*
X111746482Y-86210688D01*
X111622000Y-86198428D01*
X110522000Y-86198428D01*
X110397518Y-86210688D01*
X110277820Y-86246998D01*
X110167506Y-86305963D01*
X110072000Y-86384342D01*
X109976494Y-86305963D01*
X109866180Y-86246998D01*
X109746482Y-86210688D01*
X109622000Y-86198428D01*
X108522000Y-86198428D01*
X108397518Y-86210688D01*
X108277820Y-86246998D01*
X108167506Y-86305963D01*
X108072000Y-86384342D01*
X107976494Y-86305963D01*
X107866180Y-86246998D01*
X107746482Y-86210688D01*
X107622000Y-86198428D01*
X106522000Y-86198428D01*
X106397518Y-86210688D01*
X106277820Y-86246998D01*
X106167506Y-86305963D01*
X106072000Y-86384342D01*
X105976494Y-86305963D01*
X105866180Y-86246998D01*
X105746482Y-86210688D01*
X105622000Y-86198428D01*
X104522000Y-86198428D01*
X104397518Y-86210688D01*
X104277820Y-86246998D01*
X104167506Y-86305963D01*
X104072000Y-86384342D01*
X103976494Y-86305963D01*
X103866180Y-86246998D01*
X103746482Y-86210688D01*
X103622000Y-86198428D01*
X102522000Y-86198428D01*
X102397518Y-86210688D01*
X102277820Y-86246998D01*
X102247000Y-86263472D01*
X102247000Y-86259498D01*
X102088252Y-86259498D01*
X102247000Y-86100750D01*
X102250072Y-85836500D01*
X102237812Y-85712018D01*
X102201502Y-85592320D01*
X102142537Y-85482006D01*
X102064158Y-85386500D01*
X102142537Y-85290994D01*
X102201502Y-85180680D01*
X102237812Y-85060982D01*
X102250072Y-84936500D01*
X102250072Y-83836500D01*
X102237812Y-83712018D01*
X102201502Y-83592320D01*
X102142537Y-83482006D01*
X102064158Y-83386500D01*
X102142537Y-83290994D01*
X102201502Y-83180680D01*
X102237812Y-83060982D01*
X102250072Y-82936500D01*
X102250072Y-81836500D01*
X102237812Y-81712018D01*
X102201502Y-81592320D01*
X102142537Y-81482006D01*
X102064158Y-81386500D01*
X102142537Y-81290994D01*
X102201502Y-81180680D01*
X102204287Y-81171500D01*
X109039843Y-81171500D01*
X111700000Y-83831657D01*
X111700000Y-83858439D01*
X111739774Y-84058398D01*
X111817795Y-84246756D01*
X111931063Y-84416274D01*
X112075226Y-84560437D01*
X112244744Y-84673705D01*
X112433102Y-84751726D01*
X112633061Y-84791500D01*
X112836939Y-84791500D01*
X113036898Y-84751726D01*
X113225256Y-84673705D01*
X113394774Y-84560437D01*
X113538937Y-84416274D01*
X113652205Y-84246756D01*
X113730226Y-84058398D01*
X113770000Y-83858439D01*
X113770000Y-83654561D01*
X113730226Y-83454602D01*
X113652205Y-83266244D01*
X113538937Y-83096726D01*
X113394774Y-82952563D01*
X113225256Y-82839295D01*
X113036898Y-82761274D01*
X112836939Y-82721500D01*
X112810157Y-82721500D01*
X109947347Y-79858690D01*
X109922764Y-79828736D01*
X109803233Y-79730638D01*
X109666860Y-79657746D01*
X109518887Y-79612859D01*
X109403561Y-79601500D01*
X109403553Y-79601500D01*
X109365000Y-79597703D01*
X109326447Y-79601500D01*
X102204287Y-79601500D01*
X102201502Y-79592320D01*
X102142537Y-79482006D01*
X102064158Y-79386500D01*
X102142537Y-79290994D01*
X102201502Y-79180680D01*
X102237812Y-79060982D01*
X102250072Y-78936500D01*
X102250072Y-77836500D01*
X102237812Y-77712018D01*
X102201502Y-77592320D01*
X102142537Y-77482006D01*
X102064158Y-77386500D01*
X102142537Y-77290994D01*
X102201502Y-77180680D01*
X102237812Y-77060982D01*
X102250072Y-76936500D01*
X102250072Y-75836500D01*
X102237812Y-75712018D01*
X102201502Y-75592320D01*
X102142537Y-75482006D01*
X102064158Y-75386500D01*
X102111038Y-75329376D01*
X102125748Y-75339205D01*
X102314106Y-75417226D01*
X102514065Y-75457000D01*
X102717943Y-75457000D01*
X102917902Y-75417226D01*
X103106260Y-75339205D01*
X103275778Y-75225937D01*
X103419941Y-75081774D01*
X103533209Y-74912256D01*
X103611230Y-74723898D01*
X103651004Y-74523939D01*
X103651004Y-74320061D01*
X103611230Y-74120102D01*
X103533209Y-73931744D01*
X103419941Y-73762226D01*
X103275778Y-73618063D01*
X103106260Y-73504795D01*
X102917902Y-73426774D01*
X102781710Y-73399684D01*
X102854396Y-73385226D01*
X103042754Y-73307205D01*
X103212272Y-73193937D01*
X103356435Y-73049774D01*
X103469703Y-72880256D01*
X103547724Y-72691898D01*
X103587498Y-72491939D01*
X103587498Y-72288061D01*
X103547724Y-72088102D01*
X103469703Y-71899744D01*
X103356435Y-71730226D01*
X103212272Y-71586063D01*
X103042754Y-71472795D01*
X102854396Y-71394774D01*
X102654437Y-71355000D01*
X102450559Y-71355000D01*
X102250600Y-71394774D01*
X102116525Y-71450310D01*
X102063185Y-71385315D01*
X101966494Y-71305963D01*
X101856180Y-71246998D01*
X101736482Y-71210688D01*
X101612000Y-71198428D01*
X99112000Y-71198428D01*
X98987518Y-71210688D01*
X98867820Y-71246998D01*
X98757506Y-71305963D01*
X98721672Y-71335371D01*
X98721672Y-71192399D01*
X98704608Y-71019145D01*
X98654072Y-70852549D01*
X98572005Y-70699013D01*
X98461562Y-70564438D01*
X98418600Y-70529180D01*
X98418600Y-69900461D01*
X98408631Y-69850343D01*
X98403624Y-69799505D01*
X98388796Y-69750623D01*
X98378826Y-69700502D01*
X98359269Y-69653287D01*
X98344441Y-69604407D01*
X98320362Y-69559358D01*
X98300805Y-69512144D01*
X98272414Y-69469654D01*
X98248334Y-69424603D01*
X98215928Y-69385116D01*
X98187537Y-69342626D01*
X98151403Y-69306492D01*
X98118996Y-69267004D01*
X98079508Y-69234597D01*
X98043374Y-69198463D01*
X98000884Y-69170072D01*
X97961397Y-69137666D01*
X97916346Y-69113586D01*
X97873856Y-69085195D01*
X97826642Y-69065638D01*
X97781593Y-69041559D01*
X97732713Y-69026731D01*
X97685498Y-69007174D01*
X97635377Y-68997204D01*
X97586495Y-68982376D01*
X97535657Y-68977369D01*
X97485539Y-68967400D01*
X97434438Y-68967400D01*
X97383600Y-68962393D01*
X97332762Y-68967400D01*
X97281661Y-68967400D01*
X97231542Y-68977369D01*
X97180706Y-68982376D01*
X97131826Y-68997204D01*
X97081702Y-69007174D01*
X97034484Y-69026732D01*
X96985608Y-69041559D01*
X96940562Y-69065637D01*
X96893344Y-69085195D01*
X96850850Y-69113588D01*
X96805804Y-69137666D01*
X96766321Y-69170069D01*
X96723826Y-69198463D01*
X96687687Y-69234602D01*
X96648205Y-69267004D01*
X96620083Y-69301271D01*
X96619812Y-69298518D01*
X96583502Y-69178820D01*
X96524537Y-69068506D01*
X96445185Y-68971815D01*
X96348494Y-68892463D01*
X96238180Y-68833498D01*
X96118482Y-68797188D01*
X95994000Y-68784928D01*
X94494000Y-68784928D01*
X94369518Y-68797188D01*
X94249820Y-68833498D01*
X94139506Y-68892463D01*
X94042815Y-68971815D01*
X93963463Y-69068506D01*
X93904498Y-69178820D01*
X93868188Y-69298518D01*
X93855928Y-69423000D01*
X93855928Y-70023000D01*
X93868188Y-70147482D01*
X93904498Y-70267180D01*
X93953043Y-70358000D01*
X93904498Y-70448820D01*
X93868188Y-70568518D01*
X93855928Y-70693000D01*
X93855928Y-71293000D01*
X93868188Y-71417482D01*
X93904498Y-71537180D01*
X93953043Y-71628000D01*
X93904498Y-71718820D01*
X93868188Y-71838518D01*
X93855928Y-71963000D01*
X93855928Y-72563000D01*
X93868188Y-72687482D01*
X93904498Y-72807180D01*
X93953043Y-72898000D01*
X93904498Y-72988820D01*
X93868188Y-73108518D01*
X93855928Y-73233000D01*
X93855928Y-73833000D01*
X93868188Y-73957482D01*
X93904498Y-74077180D01*
X93953043Y-74168000D01*
X93904498Y-74258820D01*
X93868188Y-74378518D01*
X93855928Y-74503000D01*
X93855928Y-75103000D01*
X93868188Y-75227482D01*
X93904498Y-75347180D01*
X93953043Y-75438000D01*
X93904498Y-75528820D01*
X93868188Y-75648518D01*
X93855928Y-75773000D01*
X93855928Y-76373000D01*
X93868188Y-76497482D01*
X93904498Y-76617180D01*
X93953043Y-76708000D01*
X93904498Y-76798820D01*
X93868188Y-76918518D01*
X93855928Y-77043000D01*
X93855928Y-77643000D01*
X93868188Y-77767482D01*
X93904498Y-77887180D01*
X93953043Y-77978000D01*
X93904498Y-78068820D01*
X93868188Y-78188518D01*
X93855928Y-78313000D01*
X93859000Y-78327250D01*
X94017750Y-78486000D01*
X95117000Y-78486000D01*
X95117000Y-78466000D01*
X95371000Y-78466000D01*
X95371000Y-78486000D01*
X96470250Y-78486000D01*
X96629000Y-78327250D01*
X96632072Y-78313000D01*
X96629694Y-78288851D01*
X97258653Y-78917810D01*
X97283236Y-78947764D01*
X97402767Y-79045862D01*
X97523402Y-79110342D01*
X97539140Y-79118754D01*
X97687113Y-79163642D01*
X97762026Y-79171020D01*
X97802439Y-79175000D01*
X97802444Y-79175000D01*
X97841000Y-79178797D01*
X97879556Y-79175000D01*
X98520775Y-79175000D01*
X98522498Y-79180680D01*
X98581463Y-79290994D01*
X98659842Y-79386500D01*
X98592423Y-79468651D01*
X98463851Y-79399928D01*
X98297255Y-79349392D01*
X98124001Y-79332328D01*
X97473999Y-79332328D01*
X97300745Y-79349392D01*
X97134149Y-79399928D01*
X96980613Y-79481995D01*
X96846038Y-79592438D01*
X96774000Y-79680216D01*
X96701962Y-79592438D01*
X96567387Y-79481995D01*
X96413851Y-79399928D01*
X96404930Y-79397222D01*
X96445185Y-79364185D01*
X96524537Y-79267494D01*
X96583502Y-79157180D01*
X96619812Y-79037482D01*
X96632072Y-78913000D01*
X96629000Y-78898750D01*
X96470250Y-78740000D01*
X95371000Y-78740000D01*
X95371000Y-78760000D01*
X95117000Y-78760000D01*
X95117000Y-78740000D01*
X94017750Y-78740000D01*
X93859000Y-78898750D01*
X93855928Y-78913000D01*
X93868188Y-79037482D01*
X93904498Y-79157180D01*
X93963463Y-79267494D01*
X94036098Y-79356000D01*
X92630711Y-79356000D01*
X90995501Y-77720791D01*
X90995501Y-74682072D01*
X90985532Y-74631954D01*
X90980525Y-74581116D01*
X90965697Y-74532234D01*
X90955727Y-74482113D01*
X90936170Y-74434898D01*
X90921342Y-74386018D01*
X90897263Y-74340969D01*
X90877706Y-74293755D01*
X90849315Y-74251265D01*
X90825235Y-74206214D01*
X90792829Y-74166727D01*
X90764438Y-74124237D01*
X90728304Y-74088103D01*
X90695897Y-74048615D01*
X90656409Y-74016208D01*
X90620275Y-73980074D01*
X90577785Y-73951683D01*
X90538298Y-73919277D01*
X90493247Y-73895197D01*
X90450757Y-73866806D01*
X90403543Y-73847249D01*
X90358494Y-73823170D01*
X90309614Y-73808342D01*
X90262399Y-73788785D01*
X90212278Y-73778815D01*
X90163396Y-73763987D01*
X90112558Y-73758980D01*
X90062440Y-73749011D01*
X90011339Y-73749011D01*
X89960501Y-73744004D01*
X89909663Y-73749011D01*
X89858562Y-73749011D01*
X89808443Y-73758980D01*
X89757607Y-73763987D01*
X89708727Y-73778815D01*
X89658603Y-73788785D01*
X89611385Y-73808343D01*
X89562509Y-73823170D01*
X89531403Y-73839797D01*
X89532072Y-73833000D01*
X89532072Y-73233000D01*
X89519812Y-73108518D01*
X89483502Y-72988820D01*
X89434957Y-72898000D01*
X89483502Y-72807180D01*
X89519812Y-72687482D01*
X89532072Y-72563000D01*
X89532072Y-71963000D01*
X89519812Y-71838518D01*
X89483502Y-71718820D01*
X89434957Y-71628000D01*
X89483502Y-71537180D01*
X89519812Y-71417482D01*
X89532072Y-71293000D01*
X89532072Y-70693000D01*
X89519812Y-70568518D01*
X89483502Y-70448820D01*
X89434957Y-70358000D01*
X89483502Y-70267180D01*
X89519812Y-70147482D01*
X89532072Y-70023000D01*
X89532072Y-69423000D01*
X89519812Y-69298518D01*
X89483502Y-69178820D01*
X89424537Y-69068506D01*
X89345185Y-68971815D01*
X89248494Y-68892463D01*
X89138180Y-68833498D01*
X89018482Y-68797188D01*
X88894000Y-68784928D01*
X87394000Y-68784928D01*
X87269518Y-68797188D01*
X87149820Y-68833498D01*
X87039506Y-68892463D01*
X86942815Y-68971815D01*
X86863463Y-69068506D01*
X86804498Y-69178820D01*
X86768188Y-69298518D01*
X86755928Y-69423000D01*
X86755928Y-70023000D01*
X86768188Y-70147482D01*
X86804498Y-70267180D01*
X86853043Y-70358000D01*
X86804498Y-70448820D01*
X86768188Y-70568518D01*
X86755928Y-70693000D01*
X86755928Y-71293000D01*
X86768188Y-71417482D01*
X86804498Y-71537180D01*
X86853043Y-71628000D01*
X86815133Y-71698923D01*
X85095807Y-69979597D01*
X85063396Y-69940104D01*
X84905797Y-69810766D01*
X84725993Y-69714659D01*
X84642207Y-69689243D01*
X84584922Y-69582069D01*
X84474491Y-69447509D01*
X84339931Y-69337078D01*
X84186412Y-69255021D01*
X84019835Y-69204490D01*
X83846600Y-69187428D01*
X82396400Y-69187428D01*
X82223165Y-69204490D01*
X82056588Y-69255021D01*
X81903069Y-69337078D01*
X81768509Y-69447509D01*
X81658078Y-69582069D01*
X81576021Y-69735588D01*
X81525490Y-69902165D01*
X81508428Y-70075400D01*
X81508428Y-71275600D01*
X81525490Y-71448835D01*
X81576021Y-71615412D01*
X81658078Y-71768931D01*
X81768509Y-71903491D01*
X81903069Y-72013922D01*
X82004807Y-72068302D01*
X81941366Y-72120366D01*
X81755794Y-72346486D01*
X81617901Y-72604466D01*
X81532987Y-72884389D01*
X81504315Y-73175500D01*
X79678600Y-73175500D01*
X79678600Y-64464000D01*
X98679000Y-64464000D01*
X98679000Y-69850000D01*
G36*
X130206801Y-78368578D02*
G01*
X130206800Y-89646891D01*
X129638371Y-90215321D01*
X129516850Y-90093800D01*
X128117600Y-90093800D01*
X128117600Y-90113800D01*
X127863600Y-90113800D01*
X127863600Y-90093800D01*
X127843600Y-90093800D01*
X127843600Y-89839800D01*
X127863600Y-89839800D01*
X127863600Y-89819800D01*
X128117600Y-89819800D01*
X128117600Y-89839800D01*
X129516850Y-89839800D01*
X129675600Y-89681050D01*
X129678672Y-88916800D01*
X129666412Y-88792318D01*
X129630102Y-88672620D01*
X129571137Y-88562306D01*
X129491785Y-88465615D01*
X129395094Y-88386263D01*
X129381054Y-88378758D01*
X129483828Y-88224947D01*
X129610846Y-87918296D01*
X129675600Y-87592758D01*
X129675600Y-87260842D01*
X129610846Y-86935304D01*
X129483828Y-86628653D01*
X129299425Y-86352675D01*
X129064725Y-86117975D01*
X128788747Y-85933572D01*
X128482096Y-85806554D01*
X128156558Y-85741800D01*
X127824642Y-85741800D01*
X127499104Y-85806554D01*
X127192453Y-85933572D01*
X126916475Y-86117975D01*
X126681775Y-86352675D01*
X126497372Y-86628653D01*
X126491926Y-86641800D01*
X125895552Y-86641800D01*
X125856999Y-86638003D01*
X125818446Y-86641800D01*
X125818439Y-86641800D01*
X125717490Y-86651743D01*
X125703112Y-86653159D01*
X125668672Y-86663606D01*
X125555140Y-86698046D01*
X125418767Y-86770938D01*
X125299236Y-86869036D01*
X125274653Y-86898990D01*
X124821185Y-87352458D01*
X124791237Y-87377036D01*
X124766659Y-87406984D01*
X124766655Y-87406988D01*
X124750637Y-87426506D01*
X124693139Y-87496567D01*
X124677406Y-87526002D01*
X124620246Y-87632941D01*
X124588824Y-87736526D01*
X124559149Y-87745528D01*
X124405613Y-87827595D01*
X124316712Y-87900554D01*
X120718890Y-84302732D01*
X126302528Y-84302732D01*
X126314788Y-84427214D01*
X126351098Y-84546912D01*
X126410063Y-84657226D01*
X126489415Y-84753917D01*
X126586106Y-84833269D01*
X126696420Y-84892234D01*
X126816118Y-84928544D01*
X126940600Y-84940804D01*
X127704850Y-84937732D01*
X127863600Y-84778982D01*
X127863600Y-83379732D01*
X128117600Y-83379732D01*
X128117600Y-84778982D01*
X128276350Y-84937732D01*
X129040600Y-84940804D01*
X129165082Y-84928544D01*
X129284780Y-84892234D01*
X129395094Y-84833269D01*
X129491785Y-84753917D01*
X129571137Y-84657226D01*
X129630102Y-84546912D01*
X129666412Y-84427214D01*
X129678672Y-84302732D01*
X129675600Y-83538482D01*
X129516850Y-83379732D01*
X128117600Y-83379732D01*
X127863600Y-83379732D01*
X126464350Y-83379732D01*
X126305600Y-83538482D01*
X126302528Y-84302732D01*
X120718890Y-84302732D01*
X120274847Y-83858690D01*
X120250264Y-83828736D01*
X120248551Y-83827330D01*
X120241008Y-83750746D01*
X120190472Y-83584150D01*
X120108405Y-83430614D01*
X120072202Y-83386500D01*
X120108405Y-83342386D01*
X120190472Y-83188850D01*
X120195735Y-83171500D01*
X124076947Y-83171500D01*
X124115500Y-83175297D01*
X124154053Y-83171500D01*
X124154061Y-83171500D01*
X124269387Y-83160141D01*
X124417360Y-83115254D01*
X124553733Y-83042362D01*
X124673264Y-82944264D01*
X124697847Y-82914310D01*
X125876817Y-81735341D01*
X125906764Y-81710764D01*
X125938418Y-81672195D01*
X125986809Y-81613230D01*
X126004862Y-81591233D01*
X126077754Y-81454860D01*
X126122641Y-81306887D01*
X126134000Y-81191561D01*
X126134000Y-81191554D01*
X126137797Y-81153001D01*
X126134000Y-81114448D01*
X126134000Y-79735610D01*
X126138851Y-79734138D01*
X126292387Y-79652071D01*
X126426962Y-79541628D01*
X126537405Y-79407053D01*
X126555251Y-79373666D01*
X126879109Y-79373666D01*
X126912912Y-79407470D01*
X126681775Y-79638607D01*
X126497372Y-79914585D01*
X126370354Y-80221236D01*
X126305600Y-80546774D01*
X126305600Y-80878690D01*
X126370354Y-81204228D01*
X126497372Y-81510879D01*
X126600146Y-81664690D01*
X126586106Y-81672195D01*
X126489415Y-81751547D01*
X126410063Y-81848238D01*
X126351098Y-81958552D01*
X126314788Y-82078250D01*
X126302528Y-82202732D01*
X126305600Y-82966982D01*
X126464350Y-83125732D01*
X127863600Y-83125732D01*
X127863600Y-83105732D01*
X128117600Y-83105732D01*
X128117600Y-83125732D01*
X129516850Y-83125732D01*
X129675600Y-82966982D01*
X129678672Y-82202732D01*
X129666412Y-82078250D01*
X129630102Y-81958552D01*
X129571137Y-81848238D01*
X129491785Y-81751547D01*
X129395094Y-81672195D01*
X129381054Y-81664690D01*
X129483828Y-81510879D01*
X129610846Y-81204228D01*
X129675600Y-80878690D01*
X129675600Y-80546774D01*
X129610846Y-80221236D01*
X129483828Y-79914585D01*
X129299425Y-79638607D01*
X129064725Y-79403907D01*
X128788747Y-79219504D01*
X128760161Y-79207663D01*
X128756479Y-79195523D01*
X128719354Y-79073140D01*
X128704773Y-79045861D01*
X128646462Y-78936767D01*
X128548364Y-78817236D01*
X128518415Y-78792657D01*
X127952495Y-78226738D01*
X129040600Y-78226738D01*
X129165082Y-78214478D01*
X129284780Y-78178168D01*
X129395094Y-78119203D01*
X129491785Y-78039851D01*
X129571137Y-77943160D01*
X129630102Y-77832846D01*
X129639637Y-77801413D01*
X130206801Y-78368578D01*
X130206801Y-78368578D01*
G37*
X130206801Y-78368578D02*
X130206800Y-89646891D01*
X129638371Y-90215321D01*
X129516850Y-90093800D01*
X128117600Y-90093800D01*
X128117600Y-90113800D01*
X127863600Y-90113800D01*
X127863600Y-90093800D01*
X127843600Y-90093800D01*
X127843600Y-89839800D01*
X127863600Y-89839800D01*
X127863600Y-89819800D01*
X128117600Y-89819800D01*
X128117600Y-89839800D01*
X129516850Y-89839800D01*
X129675600Y-89681050D01*
X129678672Y-88916800D01*
X129666412Y-88792318D01*
X129630102Y-88672620D01*
X129571137Y-88562306D01*
X129491785Y-88465615D01*
X129395094Y-88386263D01*
X129381054Y-88378758D01*
X129483828Y-88224947D01*
X129610846Y-87918296D01*
X129675600Y-87592758D01*
X129675600Y-87260842D01*
X129610846Y-86935304D01*
X129483828Y-86628653D01*
X129299425Y-86352675D01*
X129064725Y-86117975D01*
X128788747Y-85933572D01*
X128482096Y-85806554D01*
X128156558Y-85741800D01*
X127824642Y-85741800D01*
X127499104Y-85806554D01*
X127192453Y-85933572D01*
X126916475Y-86117975D01*
X126681775Y-86352675D01*
X126497372Y-86628653D01*
X126491926Y-86641800D01*
X125895552Y-86641800D01*
X125856999Y-86638003D01*
X125818446Y-86641800D01*
X125818439Y-86641800D01*
X125717490Y-86651743D01*
X125703112Y-86653159D01*
X125668672Y-86663606D01*
X125555140Y-86698046D01*
X125418767Y-86770938D01*
X125299236Y-86869036D01*
X125274653Y-86898990D01*
X124821185Y-87352458D01*
X124791237Y-87377036D01*
X124766659Y-87406984D01*
X124766655Y-87406988D01*
X124750637Y-87426506D01*
X124693139Y-87496567D01*
X124677406Y-87526002D01*
X124620246Y-87632941D01*
X124588824Y-87736526D01*
X124559149Y-87745528D01*
X124405613Y-87827595D01*
X124316712Y-87900554D01*
X120718890Y-84302732D01*
X126302528Y-84302732D01*
X126314788Y-84427214D01*
X126351098Y-84546912D01*
X126410063Y-84657226D01*
X126489415Y-84753917D01*
X126586106Y-84833269D01*
X126696420Y-84892234D01*
X126816118Y-84928544D01*
X126940600Y-84940804D01*
X127704850Y-84937732D01*
X127863600Y-84778982D01*
X127863600Y-83379732D01*
X128117600Y-83379732D01*
X128117600Y-84778982D01*
X128276350Y-84937732D01*
X129040600Y-84940804D01*
X129165082Y-84928544D01*
X129284780Y-84892234D01*
X129395094Y-84833269D01*
X129491785Y-84753917D01*
X129571137Y-84657226D01*
X129630102Y-84546912D01*
X129666412Y-84427214D01*
X129678672Y-84302732D01*
X129675600Y-83538482D01*
X129516850Y-83379732D01*
X128117600Y-83379732D01*
X127863600Y-83379732D01*
X126464350Y-83379732D01*
X126305600Y-83538482D01*
X126302528Y-84302732D01*
X120718890Y-84302732D01*
X120274847Y-83858690D01*
X120250264Y-83828736D01*
X120248551Y-83827330D01*
X120241008Y-83750746D01*
X120190472Y-83584150D01*
X120108405Y-83430614D01*
X120072202Y-83386500D01*
X120108405Y-83342386D01*
X120190472Y-83188850D01*
X120195735Y-83171500D01*
X124076947Y-83171500D01*
X124115500Y-83175297D01*
X124154053Y-83171500D01*
X124154061Y-83171500D01*
X124269387Y-83160141D01*
X124417360Y-83115254D01*
X124553733Y-83042362D01*
X124673264Y-82944264D01*
X124697847Y-82914310D01*
X125876817Y-81735341D01*
X125906764Y-81710764D01*
X125938418Y-81672195D01*
X125986809Y-81613230D01*
X126004862Y-81591233D01*
X126077754Y-81454860D01*
X126122641Y-81306887D01*
X126134000Y-81191561D01*
X126134000Y-81191554D01*
X126137797Y-81153001D01*
X126134000Y-81114448D01*
X126134000Y-79735610D01*
X126138851Y-79734138D01*
X126292387Y-79652071D01*
X126426962Y-79541628D01*
X126537405Y-79407053D01*
X126555251Y-79373666D01*
X126879109Y-79373666D01*
X126912912Y-79407470D01*
X126681775Y-79638607D01*
X126497372Y-79914585D01*
X126370354Y-80221236D01*
X126305600Y-80546774D01*
X126305600Y-80878690D01*
X126370354Y-81204228D01*
X126497372Y-81510879D01*
X126600146Y-81664690D01*
X126586106Y-81672195D01*
X126489415Y-81751547D01*
X126410063Y-81848238D01*
X126351098Y-81958552D01*
X126314788Y-82078250D01*
X126302528Y-82202732D01*
X126305600Y-82966982D01*
X126464350Y-83125732D01*
X127863600Y-83125732D01*
X127863600Y-83105732D01*
X128117600Y-83105732D01*
X128117600Y-83125732D01*
X129516850Y-83125732D01*
X129675600Y-82966982D01*
X129678672Y-82202732D01*
X129666412Y-82078250D01*
X129630102Y-81958552D01*
X129571137Y-81848238D01*
X129491785Y-81751547D01*
X129395094Y-81672195D01*
X129381054Y-81664690D01*
X129483828Y-81510879D01*
X129610846Y-81204228D01*
X129675600Y-80878690D01*
X129675600Y-80546774D01*
X129610846Y-80221236D01*
X129483828Y-79914585D01*
X129299425Y-79638607D01*
X129064725Y-79403907D01*
X128788747Y-79219504D01*
X128760161Y-79207663D01*
X128756479Y-79195523D01*
X128719354Y-79073140D01*
X128704773Y-79045861D01*
X128646462Y-78936767D01*
X128548364Y-78817236D01*
X128518415Y-78792657D01*
X127952495Y-78226738D01*
X129040600Y-78226738D01*
X129165082Y-78214478D01*
X129284780Y-78178168D01*
X129395094Y-78119203D01*
X129491785Y-78039851D01*
X129571137Y-77943160D01*
X129630102Y-77832846D01*
X129639637Y-77801413D01*
X130206801Y-78368578D01*
G36*
X117626614Y-85587405D02*
G01*
X117780150Y-85669472D01*
X117946746Y-85720008D01*
X118120000Y-85737072D01*
X119370000Y-85737072D01*
X119543254Y-85720008D01*
X119709850Y-85669472D01*
X119811162Y-85615319D01*
X123614658Y-89418816D01*
X123639236Y-89448764D01*
X123669184Y-89473342D01*
X123669187Y-89473345D01*
X123696192Y-89495507D01*
X123758767Y-89546862D01*
X123895140Y-89619754D01*
X124043113Y-89664641D01*
X124141877Y-89674369D01*
X124160595Y-89709387D01*
X124271038Y-89843962D01*
X124335665Y-89897000D01*
X119859511Y-89897000D01*
X118736507Y-88773997D01*
X118704096Y-88734504D01*
X118555607Y-88612643D01*
X118618000Y-88550250D01*
X118618000Y-87488500D01*
X118872000Y-87488500D01*
X118872000Y-88550250D01*
X119030750Y-88709000D01*
X119620000Y-88712072D01*
X119744482Y-88699812D01*
X119864180Y-88663502D01*
X119974494Y-88604537D01*
X120071185Y-88525185D01*
X120150537Y-88428494D01*
X120209502Y-88318180D01*
X120245812Y-88198482D01*
X120258072Y-88074000D01*
X120255000Y-87647250D01*
X120096250Y-87488500D01*
X118872000Y-87488500D01*
X118618000Y-87488500D01*
X118598000Y-87488500D01*
X118598000Y-87234500D01*
X118618000Y-87234500D01*
X118618000Y-86172750D01*
X118872000Y-86172750D01*
X118872000Y-87234500D01*
X120096250Y-87234500D01*
X120255000Y-87075750D01*
X120258072Y-86649000D01*
X120245812Y-86524518D01*
X120209502Y-86404820D01*
X120150537Y-86294506D01*
X120071185Y-86197815D01*
X119974494Y-86118463D01*
X119864180Y-86059498D01*
X119744482Y-86023188D01*
X119620000Y-86010928D01*
X119030750Y-86014000D01*
X118872000Y-86172750D01*
X118618000Y-86172750D01*
X118459250Y-86014000D01*
X117870000Y-86010928D01*
X117745518Y-86023188D01*
X117650072Y-86052141D01*
X117650072Y-85836500D01*
X117637812Y-85712018D01*
X117601502Y-85592320D01*
X117577197Y-85546850D01*
X117626614Y-85587405D01*
X117626614Y-85587405D01*
G37*
X117626614Y-85587405D02*
X117780150Y-85669472D01*
X117946746Y-85720008D01*
X118120000Y-85737072D01*
X119370000Y-85737072D01*
X119543254Y-85720008D01*
X119709850Y-85669472D01*
X119811162Y-85615319D01*
X123614658Y-89418816D01*
X123639236Y-89448764D01*
X123669184Y-89473342D01*
X123669187Y-89473345D01*
X123696192Y-89495507D01*
X123758767Y-89546862D01*
X123895140Y-89619754D01*
X124043113Y-89664641D01*
X124141877Y-89674369D01*
X124160595Y-89709387D01*
X124271038Y-89843962D01*
X124335665Y-89897000D01*
X119859511Y-89897000D01*
X118736507Y-88773997D01*
X118704096Y-88734504D01*
X118555607Y-88612643D01*
X118618000Y-88550250D01*
X118618000Y-87488500D01*
X118872000Y-87488500D01*
X118872000Y-88550250D01*
X119030750Y-88709000D01*
X119620000Y-88712072D01*
X119744482Y-88699812D01*
X119864180Y-88663502D01*
X119974494Y-88604537D01*
X120071185Y-88525185D01*
X120150537Y-88428494D01*
X120209502Y-88318180D01*
X120245812Y-88198482D01*
X120258072Y-88074000D01*
X120255000Y-87647250D01*
X120096250Y-87488500D01*
X118872000Y-87488500D01*
X118618000Y-87488500D01*
X118598000Y-87488500D01*
X118598000Y-87234500D01*
X118618000Y-87234500D01*
X118618000Y-86172750D01*
X118872000Y-86172750D01*
X118872000Y-87234500D01*
X120096250Y-87234500D01*
X120255000Y-87075750D01*
X120258072Y-86649000D01*
X120245812Y-86524518D01*
X120209502Y-86404820D01*
X120150537Y-86294506D01*
X120071185Y-86197815D01*
X119974494Y-86118463D01*
X119864180Y-86059498D01*
X119744482Y-86023188D01*
X119620000Y-86010928D01*
X119030750Y-86014000D01*
X118872000Y-86172750D01*
X118618000Y-86172750D01*
X118459250Y-86014000D01*
X117870000Y-86010928D01*
X117745518Y-86023188D01*
X117650072Y-86052141D01*
X117650072Y-85836500D01*
X117637812Y-85712018D01*
X117601502Y-85592320D01*
X117577197Y-85546850D01*
X117626614Y-85587405D01*
G36*
X95876000Y-84542400D02*
G01*
X95896000Y-84542400D01*
X95896000Y-84796400D01*
X95876000Y-84796400D01*
X95876000Y-85845650D01*
X96034750Y-86004400D01*
X96324000Y-86007472D01*
X96448482Y-85995212D01*
X96568180Y-85958902D01*
X96678494Y-85899937D01*
X96775185Y-85820585D01*
X96840658Y-85740806D01*
X96846038Y-85747362D01*
X96980613Y-85857805D01*
X97134149Y-85939872D01*
X97300745Y-85990408D01*
X97473999Y-86007472D01*
X98124001Y-86007472D01*
X98297255Y-85990408D01*
X98463851Y-85939872D01*
X98475060Y-85933881D01*
X98477000Y-86100750D01*
X98635750Y-86259500D01*
X100235000Y-86259500D01*
X100235000Y-86239500D01*
X100489000Y-86239500D01*
X100489000Y-86259500D01*
X100509000Y-86259500D01*
X100509000Y-86513500D01*
X100489000Y-86513500D01*
X100489000Y-87412750D01*
X100647750Y-87571500D01*
X101612000Y-87574572D01*
X101736482Y-87562312D01*
X101856180Y-87526002D01*
X101883928Y-87511170D01*
X101883928Y-89262000D01*
X96504211Y-89262000D01*
X95269000Y-88026790D01*
X95269000Y-86936500D01*
X98473928Y-86936500D01*
X98486188Y-87060982D01*
X98522498Y-87180680D01*
X98581463Y-87290994D01*
X98660815Y-87387685D01*
X98757506Y-87467037D01*
X98867820Y-87526002D01*
X98987518Y-87562312D01*
X99112000Y-87574572D01*
X100076250Y-87571500D01*
X100235000Y-87412750D01*
X100235000Y-86513500D01*
X98635750Y-86513500D01*
X98477000Y-86672250D01*
X98473928Y-86936500D01*
X95269000Y-86936500D01*
X95269000Y-86006463D01*
X95463250Y-86004400D01*
X95622000Y-85845650D01*
X95622000Y-84796400D01*
X95602000Y-84796400D01*
X95602000Y-84542400D01*
X95622000Y-84542400D01*
X95622000Y-84522400D01*
X95876000Y-84522400D01*
X95876000Y-84542400D01*
X95876000Y-84542400D01*
G37*
X95876000Y-84542400D02*
X95896000Y-84542400D01*
X95896000Y-84796400D01*
X95876000Y-84796400D01*
X95876000Y-85845650D01*
X96034750Y-86004400D01*
X96324000Y-86007472D01*
X96448482Y-85995212D01*
X96568180Y-85958902D01*
X96678494Y-85899937D01*
X96775185Y-85820585D01*
X96840658Y-85740806D01*
X96846038Y-85747362D01*
X96980613Y-85857805D01*
X97134149Y-85939872D01*
X97300745Y-85990408D01*
X97473999Y-86007472D01*
X98124001Y-86007472D01*
X98297255Y-85990408D01*
X98463851Y-85939872D01*
X98475060Y-85933881D01*
X98477000Y-86100750D01*
X98635750Y-86259500D01*
X100235000Y-86259500D01*
X100235000Y-86239500D01*
X100489000Y-86239500D01*
X100489000Y-86259500D01*
X100509000Y-86259500D01*
X100509000Y-86513500D01*
X100489000Y-86513500D01*
X100489000Y-87412750D01*
X100647750Y-87571500D01*
X101612000Y-87574572D01*
X101736482Y-87562312D01*
X101856180Y-87526002D01*
X101883928Y-87511170D01*
X101883928Y-89262000D01*
X96504211Y-89262000D01*
X95269000Y-88026790D01*
X95269000Y-86936500D01*
X98473928Y-86936500D01*
X98486188Y-87060982D01*
X98522498Y-87180680D01*
X98581463Y-87290994D01*
X98660815Y-87387685D01*
X98757506Y-87467037D01*
X98867820Y-87526002D01*
X98987518Y-87562312D01*
X99112000Y-87574572D01*
X100076250Y-87571500D01*
X100235000Y-87412750D01*
X100235000Y-86513500D01*
X98635750Y-86513500D01*
X98477000Y-86672250D01*
X98473928Y-86936500D01*
X95269000Y-86936500D01*
X95269000Y-86006463D01*
X95463250Y-86004400D01*
X95622000Y-85845650D01*
X95622000Y-84796400D01*
X95602000Y-84796400D01*
X95602000Y-84542400D01*
X95622000Y-84542400D01*
X95622000Y-84522400D01*
X95876000Y-84522400D01*
X95876000Y-84542400D01*
G36*
X121934658Y-78598483D02*
G01*
X121959236Y-78628431D01*
X121989184Y-78653009D01*
X121989187Y-78653012D01*
X122016298Y-78675261D01*
X122078767Y-78726529D01*
X122105928Y-78741047D01*
X122105928Y-78913667D01*
X122122992Y-79086921D01*
X122173528Y-79253517D01*
X122255595Y-79407053D01*
X122366038Y-79541628D01*
X122500613Y-79652071D01*
X122654149Y-79734138D01*
X122820745Y-79784674D01*
X122993999Y-79801738D01*
X123894001Y-79801738D01*
X124067255Y-79784674D01*
X124233851Y-79734138D01*
X124387387Y-79652071D01*
X124396500Y-79644592D01*
X124405613Y-79652071D01*
X124559149Y-79734138D01*
X124564001Y-79735610D01*
X124564000Y-80827842D01*
X123790343Y-81601500D01*
X120195735Y-81601500D01*
X120190472Y-81584150D01*
X120108405Y-81430614D01*
X119997962Y-81296038D01*
X119863386Y-81185595D01*
X119709850Y-81103528D01*
X119543254Y-81052992D01*
X119370000Y-81035928D01*
X118120000Y-81035928D01*
X117946746Y-81052992D01*
X117780150Y-81103528D01*
X117626614Y-81185595D01*
X117577197Y-81226150D01*
X117601502Y-81180680D01*
X117637812Y-81060982D01*
X117650072Y-80936500D01*
X117650072Y-80720859D01*
X117745518Y-80749812D01*
X117870000Y-80762072D01*
X118459250Y-80759000D01*
X118618000Y-80600250D01*
X118618000Y-79538500D01*
X118872000Y-79538500D01*
X118872000Y-80600250D01*
X119030750Y-80759000D01*
X119620000Y-80762072D01*
X119744482Y-80749812D01*
X119864180Y-80713502D01*
X119974494Y-80654537D01*
X120071185Y-80575185D01*
X120150537Y-80478494D01*
X120209502Y-80368180D01*
X120245812Y-80248482D01*
X120258072Y-80124000D01*
X120255000Y-79697250D01*
X120096250Y-79538500D01*
X118872000Y-79538500D01*
X118618000Y-79538500D01*
X118598000Y-79538500D01*
X118598000Y-79284500D01*
X118618000Y-79284500D01*
X118618000Y-77488500D01*
X118872000Y-77488500D01*
X118872000Y-79284500D01*
X120096250Y-79284500D01*
X120255000Y-79125750D01*
X120258072Y-78699000D01*
X120245812Y-78574518D01*
X120209502Y-78454820D01*
X120172984Y-78386500D01*
X120209502Y-78318180D01*
X120245812Y-78198482D01*
X120258072Y-78074000D01*
X120255000Y-77647250D01*
X120096250Y-77488500D01*
X118872000Y-77488500D01*
X118618000Y-77488500D01*
X118598000Y-77488500D01*
X118598000Y-77234500D01*
X118618000Y-77234500D01*
X118618000Y-77214500D01*
X118872000Y-77214500D01*
X118872000Y-77234500D01*
X120096250Y-77234500D01*
X120255000Y-77075750D01*
X120256122Y-76919946D01*
X121934658Y-78598483D01*
X121934658Y-78598483D01*
G37*
X121934658Y-78598483D02*
X121959236Y-78628431D01*
X121989184Y-78653009D01*
X121989187Y-78653012D01*
X122016298Y-78675261D01*
X122078767Y-78726529D01*
X122105928Y-78741047D01*
X122105928Y-78913667D01*
X122122992Y-79086921D01*
X122173528Y-79253517D01*
X122255595Y-79407053D01*
X122366038Y-79541628D01*
X122500613Y-79652071D01*
X122654149Y-79734138D01*
X122820745Y-79784674D01*
X122993999Y-79801738D01*
X123894001Y-79801738D01*
X124067255Y-79784674D01*
X124233851Y-79734138D01*
X124387387Y-79652071D01*
X124396500Y-79644592D01*
X124405613Y-79652071D01*
X124559149Y-79734138D01*
X124564001Y-79735610D01*
X124564000Y-80827842D01*
X123790343Y-81601500D01*
X120195735Y-81601500D01*
X120190472Y-81584150D01*
X120108405Y-81430614D01*
X119997962Y-81296038D01*
X119863386Y-81185595D01*
X119709850Y-81103528D01*
X119543254Y-81052992D01*
X119370000Y-81035928D01*
X118120000Y-81035928D01*
X117946746Y-81052992D01*
X117780150Y-81103528D01*
X117626614Y-81185595D01*
X117577197Y-81226150D01*
X117601502Y-81180680D01*
X117637812Y-81060982D01*
X117650072Y-80936500D01*
X117650072Y-80720859D01*
X117745518Y-80749812D01*
X117870000Y-80762072D01*
X118459250Y-80759000D01*
X118618000Y-80600250D01*
X118618000Y-79538500D01*
X118872000Y-79538500D01*
X118872000Y-80600250D01*
X119030750Y-80759000D01*
X119620000Y-80762072D01*
X119744482Y-80749812D01*
X119864180Y-80713502D01*
X119974494Y-80654537D01*
X120071185Y-80575185D01*
X120150537Y-80478494D01*
X120209502Y-80368180D01*
X120245812Y-80248482D01*
X120258072Y-80124000D01*
X120255000Y-79697250D01*
X120096250Y-79538500D01*
X118872000Y-79538500D01*
X118618000Y-79538500D01*
X118598000Y-79538500D01*
X118598000Y-79284500D01*
X118618000Y-79284500D01*
X118618000Y-77488500D01*
X118872000Y-77488500D01*
X118872000Y-79284500D01*
X120096250Y-79284500D01*
X120255000Y-79125750D01*
X120258072Y-78699000D01*
X120245812Y-78574518D01*
X120209502Y-78454820D01*
X120172984Y-78386500D01*
X120209502Y-78318180D01*
X120245812Y-78198482D01*
X120258072Y-78074000D01*
X120255000Y-77647250D01*
X120096250Y-77488500D01*
X118872000Y-77488500D01*
X118618000Y-77488500D01*
X118598000Y-77488500D01*
X118598000Y-77234500D01*
X118618000Y-77234500D01*
X118618000Y-77214500D01*
X118872000Y-77214500D01*
X118872000Y-77234500D01*
X120096250Y-77234500D01*
X120255000Y-77075750D01*
X120256122Y-76919946D01*
X121934658Y-78598483D01*
G36*
X126302528Y-69930439D02*
G01*
X126302528Y-70874600D01*
X126314788Y-70999082D01*
X126351098Y-71118780D01*
X126410063Y-71229094D01*
X126489415Y-71325785D01*
X126586106Y-71405137D01*
X126696420Y-71464102D01*
X126816118Y-71500412D01*
X126940600Y-71512672D01*
X129040600Y-71512672D01*
X129165082Y-71500412D01*
X129284780Y-71464102D01*
X129395094Y-71405137D01*
X129491785Y-71325785D01*
X129571137Y-71229094D01*
X129630102Y-71118780D01*
X129639637Y-71087347D01*
X130156000Y-71603711D01*
X130156001Y-74759554D01*
X129639637Y-75275919D01*
X129630102Y-75244486D01*
X129571137Y-75134172D01*
X129491785Y-75037481D01*
X129395094Y-74958129D01*
X129381054Y-74950624D01*
X129483828Y-74796813D01*
X129610846Y-74490162D01*
X129675600Y-74164624D01*
X129675600Y-73832708D01*
X129610846Y-73507170D01*
X129483828Y-73200519D01*
X129299425Y-72924541D01*
X129064725Y-72689841D01*
X128788747Y-72505438D01*
X128482096Y-72378420D01*
X128156558Y-72313666D01*
X127824642Y-72313666D01*
X127499104Y-72378420D01*
X127192453Y-72505438D01*
X126916475Y-72689841D01*
X126681775Y-72924541D01*
X126497372Y-73200519D01*
X126491926Y-73213666D01*
X125683886Y-73213666D01*
X125645333Y-73209869D01*
X125606780Y-73213666D01*
X125606773Y-73213666D01*
X125505824Y-73223609D01*
X125491446Y-73225025D01*
X125343474Y-73269912D01*
X125207101Y-73342804D01*
X125087570Y-73440902D01*
X125062987Y-73470856D01*
X124932343Y-73601500D01*
X124650251Y-73601500D01*
X124632405Y-73568113D01*
X124521962Y-73433538D01*
X124434184Y-73361500D01*
X124521962Y-73289462D01*
X124632405Y-73154887D01*
X124714472Y-73001351D01*
X124765008Y-72834755D01*
X124782072Y-72661501D01*
X124782072Y-72011499D01*
X124765008Y-71838245D01*
X124714472Y-71671649D01*
X124632405Y-71518113D01*
X124521962Y-71383538D01*
X124401407Y-71284601D01*
X124439226Y-71193298D01*
X124479000Y-70993339D01*
X124479000Y-70789461D01*
X124439226Y-70589502D01*
X124361205Y-70401144D01*
X124247937Y-70231626D01*
X124103774Y-70087463D01*
X123934256Y-69974195D01*
X123745898Y-69896174D01*
X123545939Y-69856400D01*
X123342061Y-69856400D01*
X123142102Y-69896174D01*
X122953744Y-69974195D01*
X122784226Y-70087463D01*
X122640063Y-70231626D01*
X122526795Y-70401144D01*
X122448774Y-70589502D01*
X122409000Y-70789461D01*
X122409000Y-70993339D01*
X122442056Y-71159523D01*
X122363482Y-71135688D01*
X122239000Y-71123428D01*
X121824750Y-71126500D01*
X121666000Y-71285250D01*
X121666000Y-72209500D01*
X121686000Y-72209500D01*
X121686000Y-72463500D01*
X121666000Y-72463500D01*
X121666000Y-72483500D01*
X121412000Y-72483500D01*
X121412000Y-72463500D01*
X121392000Y-72463500D01*
X121392000Y-72209500D01*
X121412000Y-72209500D01*
X121412000Y-71285250D01*
X121253250Y-71126500D01*
X120839219Y-71123430D01*
X120904472Y-71001351D01*
X120955008Y-70834755D01*
X120972072Y-70661501D01*
X120972072Y-70011499D01*
X120955008Y-69838245D01*
X120904472Y-69671649D01*
X120822405Y-69518113D01*
X120809871Y-69502840D01*
X121434311Y-68878400D01*
X125250490Y-68878400D01*
X126302528Y-69930439D01*
X126302528Y-69930439D01*
G37*
X126302528Y-69930439D02*
X126302528Y-70874600D01*
X126314788Y-70999082D01*
X126351098Y-71118780D01*
X126410063Y-71229094D01*
X126489415Y-71325785D01*
X126586106Y-71405137D01*
X126696420Y-71464102D01*
X126816118Y-71500412D01*
X126940600Y-71512672D01*
X129040600Y-71512672D01*
X129165082Y-71500412D01*
X129284780Y-71464102D01*
X129395094Y-71405137D01*
X129491785Y-71325785D01*
X129571137Y-71229094D01*
X129630102Y-71118780D01*
X129639637Y-71087347D01*
X130156000Y-71603711D01*
X130156001Y-74759554D01*
X129639637Y-75275919D01*
X129630102Y-75244486D01*
X129571137Y-75134172D01*
X129491785Y-75037481D01*
X129395094Y-74958129D01*
X129381054Y-74950624D01*
X129483828Y-74796813D01*
X129610846Y-74490162D01*
X129675600Y-74164624D01*
X129675600Y-73832708D01*
X129610846Y-73507170D01*
X129483828Y-73200519D01*
X129299425Y-72924541D01*
X129064725Y-72689841D01*
X128788747Y-72505438D01*
X128482096Y-72378420D01*
X128156558Y-72313666D01*
X127824642Y-72313666D01*
X127499104Y-72378420D01*
X127192453Y-72505438D01*
X126916475Y-72689841D01*
X126681775Y-72924541D01*
X126497372Y-73200519D01*
X126491926Y-73213666D01*
X125683886Y-73213666D01*
X125645333Y-73209869D01*
X125606780Y-73213666D01*
X125606773Y-73213666D01*
X125505824Y-73223609D01*
X125491446Y-73225025D01*
X125343474Y-73269912D01*
X125207101Y-73342804D01*
X125087570Y-73440902D01*
X125062987Y-73470856D01*
X124932343Y-73601500D01*
X124650251Y-73601500D01*
X124632405Y-73568113D01*
X124521962Y-73433538D01*
X124434184Y-73361500D01*
X124521962Y-73289462D01*
X124632405Y-73154887D01*
X124714472Y-73001351D01*
X124765008Y-72834755D01*
X124782072Y-72661501D01*
X124782072Y-72011499D01*
X124765008Y-71838245D01*
X124714472Y-71671649D01*
X124632405Y-71518113D01*
X124521962Y-71383538D01*
X124401407Y-71284601D01*
X124439226Y-71193298D01*
X124479000Y-70993339D01*
X124479000Y-70789461D01*
X124439226Y-70589502D01*
X124361205Y-70401144D01*
X124247937Y-70231626D01*
X124103774Y-70087463D01*
X123934256Y-69974195D01*
X123745898Y-69896174D01*
X123545939Y-69856400D01*
X123342061Y-69856400D01*
X123142102Y-69896174D01*
X122953744Y-69974195D01*
X122784226Y-70087463D01*
X122640063Y-70231626D01*
X122526795Y-70401144D01*
X122448774Y-70589502D01*
X122409000Y-70789461D01*
X122409000Y-70993339D01*
X122442056Y-71159523D01*
X122363482Y-71135688D01*
X122239000Y-71123428D01*
X121824750Y-71126500D01*
X121666000Y-71285250D01*
X121666000Y-72209500D01*
X121686000Y-72209500D01*
X121686000Y-72463500D01*
X121666000Y-72463500D01*
X121666000Y-72483500D01*
X121412000Y-72483500D01*
X121412000Y-72463500D01*
X121392000Y-72463500D01*
X121392000Y-72209500D01*
X121412000Y-72209500D01*
X121412000Y-71285250D01*
X121253250Y-71126500D01*
X120839219Y-71123430D01*
X120904472Y-71001351D01*
X120955008Y-70834755D01*
X120972072Y-70661501D01*
X120972072Y-70011499D01*
X120955008Y-69838245D01*
X120904472Y-69671649D01*
X120822405Y-69518113D01*
X120809871Y-69502840D01*
X121434311Y-68878400D01*
X125250490Y-68878400D01*
X126302528Y-69930439D01*
M02*
