G04 #@! TF.GenerationSoftware,KiCad,Pcbnew,(5.1.2-1)-1*
G04 #@! TF.CreationDate,2019-10-05T22:58:12+03:00*
G04 #@! TF.ProjectId,curtains-driver,63757274-6169-46e7-932d-647269766572,rev?*
G04 #@! TF.SameCoordinates,Original*
G04 #@! TF.FileFunction,Soldermask,Bot*
G04 #@! TF.FilePolarity,Negative*
%FSLAX46Y46*%
G04 Gerber Fmt 4.6, Leading zero omitted, Abs format (unit mm)*
G04 Created by KiCad (PCBNEW (5.1.2-1)-1) date 2019-10-05 22:58:12*
%MOMM*%
%LPD*%
G04 APERTURE LIST*
%ADD10C,0.150000*%
%ADD11C,0.100000*%
G04 APERTURE END LIST*
D10*
X134000000Y-63754000D02*
X134000000Y-93500000D01*
X78968600Y-63754000D02*
X78968600Y-93472000D01*
X134000000Y-93500000D02*
X78968600Y-93472000D01*
X78968600Y-63754000D02*
X134000000Y-63754000D01*
D11*
G36*
X116537562Y-91685581D02*
G01*
X116572481Y-91696174D01*
X116604663Y-91713376D01*
X116632873Y-91736527D01*
X116656024Y-91764737D01*
X116673226Y-91796919D01*
X116683819Y-91831838D01*
X116688000Y-91874295D01*
X116688000Y-93015505D01*
X116683819Y-93057962D01*
X116673226Y-93092881D01*
X116656024Y-93125063D01*
X116632873Y-93153273D01*
X116604663Y-93176424D01*
X116572481Y-93193626D01*
X116537562Y-93204219D01*
X116495105Y-93208400D01*
X115028895Y-93208400D01*
X114986438Y-93204219D01*
X114951519Y-93193626D01*
X114919337Y-93176424D01*
X114891127Y-93153273D01*
X114867976Y-93125063D01*
X114850774Y-93092881D01*
X114840181Y-93057962D01*
X114836000Y-93015505D01*
X114836000Y-91874295D01*
X114840181Y-91831838D01*
X114850774Y-91796919D01*
X114867976Y-91764737D01*
X114891127Y-91736527D01*
X114919337Y-91713376D01*
X114951519Y-91696174D01*
X114986438Y-91685581D01*
X115028895Y-91681400D01*
X116495105Y-91681400D01*
X116537562Y-91685581D01*
X116537562Y-91685581D01*
G37*
G36*
X125937674Y-90319465D02*
G01*
X125975367Y-90330899D01*
X126010103Y-90349466D01*
X126040548Y-90374452D01*
X126065534Y-90404897D01*
X126084101Y-90439633D01*
X126095535Y-90477326D01*
X126100000Y-90522661D01*
X126100000Y-91359339D01*
X126095535Y-91404674D01*
X126084101Y-91442367D01*
X126065534Y-91477103D01*
X126040548Y-91507548D01*
X126010103Y-91532534D01*
X125975367Y-91551101D01*
X125937674Y-91562535D01*
X125892339Y-91567000D01*
X124805661Y-91567000D01*
X124760326Y-91562535D01*
X124722633Y-91551101D01*
X124687897Y-91532534D01*
X124657452Y-91507548D01*
X124632466Y-91477103D01*
X124613899Y-91442367D01*
X124602465Y-91404674D01*
X124598000Y-91359339D01*
X124598000Y-90522661D01*
X124602465Y-90477326D01*
X124613899Y-90439633D01*
X124632466Y-90404897D01*
X124657452Y-90374452D01*
X124687897Y-90349466D01*
X124722633Y-90330899D01*
X124760326Y-90319465D01*
X124805661Y-90315000D01*
X125892339Y-90315000D01*
X125937674Y-90319465D01*
X125937674Y-90319465D01*
G37*
G36*
X129447030Y-88825461D02*
G01*
X129607150Y-88857311D01*
X129642071Y-88871776D01*
X129807520Y-88940307D01*
X129987844Y-89060795D01*
X130141205Y-89214156D01*
X130261693Y-89394480D01*
X130261693Y-89394481D01*
X130344689Y-89594850D01*
X130387000Y-89807561D01*
X130387000Y-90024439D01*
X130344689Y-90237150D01*
X130312442Y-90315000D01*
X130261693Y-90437520D01*
X130141205Y-90617844D01*
X129987844Y-90771205D01*
X129807520Y-90891693D01*
X129607150Y-90974689D01*
X129500794Y-90995845D01*
X129394440Y-91017000D01*
X129177560Y-91017000D01*
X129071205Y-90995844D01*
X128964850Y-90974689D01*
X128764480Y-90891693D01*
X128584156Y-90771205D01*
X128430795Y-90617844D01*
X128310307Y-90437520D01*
X128259558Y-90315000D01*
X128227311Y-90237150D01*
X128185000Y-90024439D01*
X128185000Y-89807561D01*
X128227311Y-89594850D01*
X128310307Y-89394481D01*
X128310307Y-89394480D01*
X128430795Y-89214156D01*
X128584156Y-89060795D01*
X128764480Y-88940307D01*
X128929929Y-88871776D01*
X128964850Y-88857311D01*
X129124970Y-88825461D01*
X129177560Y-88815000D01*
X129394440Y-88815000D01*
X129447030Y-88825461D01*
X129447030Y-88825461D01*
G37*
G36*
X92857479Y-87775293D02*
G01*
X92991125Y-87815834D01*
X93114284Y-87881664D01*
X93222240Y-87970260D01*
X93310836Y-88078216D01*
X93376666Y-88201375D01*
X93417207Y-88335021D01*
X93431500Y-88480140D01*
X93431500Y-90143860D01*
X93417207Y-90288979D01*
X93376666Y-90422625D01*
X93310836Y-90545784D01*
X93222240Y-90653740D01*
X93114284Y-90742336D01*
X92991125Y-90808166D01*
X92857479Y-90848707D01*
X92712360Y-90863000D01*
X90548640Y-90863000D01*
X90403521Y-90848707D01*
X90269875Y-90808166D01*
X90146716Y-90742336D01*
X90038760Y-90653740D01*
X89950164Y-90545784D01*
X89884334Y-90422625D01*
X89843793Y-90288979D01*
X89829500Y-90143860D01*
X89829500Y-88480140D01*
X89843793Y-88335021D01*
X89884334Y-88201375D01*
X89950164Y-88078216D01*
X90038760Y-87970260D01*
X90146716Y-87881664D01*
X90269875Y-87815834D01*
X90403521Y-87775293D01*
X90548640Y-87761000D01*
X92712360Y-87761000D01*
X92857479Y-87775293D01*
X92857479Y-87775293D01*
G37*
G36*
X116537562Y-88710581D02*
G01*
X116572481Y-88721174D01*
X116604663Y-88738376D01*
X116632873Y-88761527D01*
X116656024Y-88789737D01*
X116673226Y-88821919D01*
X116683819Y-88856838D01*
X116688000Y-88899295D01*
X116688000Y-90040505D01*
X116683819Y-90082962D01*
X116673226Y-90117881D01*
X116656024Y-90150063D01*
X116632873Y-90178273D01*
X116604663Y-90201424D01*
X116572481Y-90218626D01*
X116537562Y-90229219D01*
X116495105Y-90233400D01*
X115028895Y-90233400D01*
X114986438Y-90229219D01*
X114951519Y-90218626D01*
X114919337Y-90201424D01*
X114891127Y-90178273D01*
X114867976Y-90150063D01*
X114850774Y-90117881D01*
X114840181Y-90082962D01*
X114836000Y-90040505D01*
X114836000Y-88899295D01*
X114840181Y-88856838D01*
X114850774Y-88821919D01*
X114867976Y-88789737D01*
X114891127Y-88761527D01*
X114919337Y-88738376D01*
X114951519Y-88721174D01*
X114986438Y-88710581D01*
X115028895Y-88706400D01*
X116495105Y-88706400D01*
X116537562Y-88710581D01*
X116537562Y-88710581D01*
G37*
G36*
X125937674Y-88269465D02*
G01*
X125975367Y-88280899D01*
X126010103Y-88299466D01*
X126040548Y-88324452D01*
X126065534Y-88354897D01*
X126084101Y-88389633D01*
X126095535Y-88427326D01*
X126100000Y-88472661D01*
X126100000Y-89309339D01*
X126095535Y-89354674D01*
X126084101Y-89392367D01*
X126065534Y-89427103D01*
X126040548Y-89457548D01*
X126010103Y-89482534D01*
X125975367Y-89501101D01*
X125937674Y-89512535D01*
X125892339Y-89517000D01*
X124805661Y-89517000D01*
X124760326Y-89512535D01*
X124722633Y-89501101D01*
X124687897Y-89482534D01*
X124657452Y-89457548D01*
X124632466Y-89427103D01*
X124613899Y-89392367D01*
X124602465Y-89354674D01*
X124598000Y-89309339D01*
X124598000Y-88472661D01*
X124602465Y-88427326D01*
X124613899Y-88389633D01*
X124632466Y-88354897D01*
X124657452Y-88324452D01*
X124687897Y-88299466D01*
X124722633Y-88280899D01*
X124760326Y-88269465D01*
X124805661Y-88265000D01*
X125892339Y-88265000D01*
X125937674Y-88269465D01*
X125937674Y-88269465D01*
G37*
G36*
X103673000Y-89387500D02*
G01*
X102471000Y-89387500D01*
X102471000Y-86785500D01*
X103673000Y-86785500D01*
X103673000Y-89387500D01*
X103673000Y-89387500D01*
G37*
G36*
X113673000Y-89387500D02*
G01*
X112471000Y-89387500D01*
X112471000Y-86785500D01*
X113673000Y-86785500D01*
X113673000Y-89387500D01*
X113673000Y-89387500D01*
G37*
G36*
X105673000Y-89387500D02*
G01*
X104471000Y-89387500D01*
X104471000Y-86785500D01*
X105673000Y-86785500D01*
X105673000Y-89387500D01*
X105673000Y-89387500D01*
G37*
G36*
X107673000Y-89387500D02*
G01*
X106471000Y-89387500D01*
X106471000Y-86785500D01*
X107673000Y-86785500D01*
X107673000Y-89387500D01*
X107673000Y-89387500D01*
G37*
G36*
X109673000Y-89387500D02*
G01*
X108471000Y-89387500D01*
X108471000Y-86785500D01*
X109673000Y-86785500D01*
X109673000Y-89387500D01*
X109673000Y-89387500D01*
G37*
G36*
X111673000Y-89387500D02*
G01*
X110471000Y-89387500D01*
X110471000Y-86785500D01*
X111673000Y-86785500D01*
X111673000Y-89387500D01*
X111673000Y-89387500D01*
G37*
G36*
X130387000Y-88477000D02*
G01*
X128185000Y-88477000D01*
X128185000Y-86275000D01*
X130387000Y-86275000D01*
X130387000Y-88477000D01*
X130387000Y-88477000D01*
G37*
G36*
X119520562Y-86602181D02*
G01*
X119555481Y-86612774D01*
X119587663Y-86629976D01*
X119615873Y-86653127D01*
X119639024Y-86681337D01*
X119656226Y-86713519D01*
X119666819Y-86748438D01*
X119671000Y-86790895D01*
X119671000Y-87932105D01*
X119666819Y-87974562D01*
X119656226Y-88009481D01*
X119639024Y-88041663D01*
X119615873Y-88069873D01*
X119587663Y-88093024D01*
X119555481Y-88110226D01*
X119520562Y-88120819D01*
X119478105Y-88125000D01*
X118011895Y-88125000D01*
X117969438Y-88120819D01*
X117934519Y-88110226D01*
X117902337Y-88093024D01*
X117874127Y-88069873D01*
X117850976Y-88041663D01*
X117833774Y-88009481D01*
X117823181Y-87974562D01*
X117819000Y-87932105D01*
X117819000Y-86790895D01*
X117823181Y-86748438D01*
X117833774Y-86713519D01*
X117850976Y-86681337D01*
X117874127Y-86653127D01*
X117902337Y-86629976D01*
X117934519Y-86612774D01*
X117969438Y-86602181D01*
X118011895Y-86598000D01*
X119478105Y-86598000D01*
X119520562Y-86602181D01*
X119520562Y-86602181D01*
G37*
G36*
X98378674Y-86763465D02*
G01*
X98416367Y-86774899D01*
X98451103Y-86793466D01*
X98481548Y-86818452D01*
X98506534Y-86848897D01*
X98525101Y-86883633D01*
X98536535Y-86921326D01*
X98541000Y-86966661D01*
X98541000Y-87803339D01*
X98536535Y-87848674D01*
X98525101Y-87886367D01*
X98506534Y-87921103D01*
X98481548Y-87951548D01*
X98451103Y-87976534D01*
X98416367Y-87995101D01*
X98378674Y-88006535D01*
X98333339Y-88011000D01*
X97246661Y-88011000D01*
X97201326Y-88006535D01*
X97163633Y-87995101D01*
X97128897Y-87976534D01*
X97098452Y-87951548D01*
X97073466Y-87921103D01*
X97054899Y-87886367D01*
X97043465Y-87848674D01*
X97039000Y-87803339D01*
X97039000Y-86966661D01*
X97043465Y-86921326D01*
X97054899Y-86883633D01*
X97073466Y-86848897D01*
X97098452Y-86818452D01*
X97128897Y-86793466D01*
X97163633Y-86774899D01*
X97201326Y-86763465D01*
X97246661Y-86759000D01*
X98333339Y-86759000D01*
X98378674Y-86763465D01*
X98378674Y-86763465D01*
G37*
G36*
X117063000Y-86987500D02*
G01*
X114461000Y-86987500D01*
X114461000Y-85785500D01*
X117063000Y-85785500D01*
X117063000Y-86987500D01*
X117063000Y-86987500D01*
G37*
G36*
X101663000Y-86987500D02*
G01*
X99061000Y-86987500D01*
X99061000Y-85785500D01*
X101663000Y-85785500D01*
X101663000Y-86987500D01*
X101663000Y-86987500D01*
G37*
G36*
X98378674Y-84713465D02*
G01*
X98416367Y-84724899D01*
X98451103Y-84743466D01*
X98481548Y-84768452D01*
X98506534Y-84798897D01*
X98525101Y-84833633D01*
X98536535Y-84871326D01*
X98541000Y-84916661D01*
X98541000Y-85753339D01*
X98536535Y-85798674D01*
X98525101Y-85836367D01*
X98506534Y-85871103D01*
X98481548Y-85901548D01*
X98451103Y-85926534D01*
X98416367Y-85945101D01*
X98378674Y-85956535D01*
X98333339Y-85961000D01*
X97246661Y-85961000D01*
X97201326Y-85956535D01*
X97163633Y-85945101D01*
X97128897Y-85926534D01*
X97098452Y-85901548D01*
X97073466Y-85871103D01*
X97054899Y-85836367D01*
X97043465Y-85798674D01*
X97039000Y-85753339D01*
X97039000Y-84916661D01*
X97043465Y-84871326D01*
X97054899Y-84833633D01*
X97073466Y-84798897D01*
X97098452Y-84768452D01*
X97128897Y-84743466D01*
X97163633Y-84724899D01*
X97201326Y-84713465D01*
X97246661Y-84709000D01*
X98333339Y-84709000D01*
X98378674Y-84713465D01*
X98378674Y-84713465D01*
G37*
G36*
X119520562Y-83627181D02*
G01*
X119555481Y-83637774D01*
X119587663Y-83654976D01*
X119615873Y-83678127D01*
X119639024Y-83706337D01*
X119656226Y-83738519D01*
X119666819Y-83773438D01*
X119671000Y-83815895D01*
X119671000Y-84957105D01*
X119666819Y-84999562D01*
X119656226Y-85034481D01*
X119639024Y-85066663D01*
X119615873Y-85094873D01*
X119587663Y-85118024D01*
X119555481Y-85135226D01*
X119520562Y-85145819D01*
X119478105Y-85150000D01*
X118011895Y-85150000D01*
X117969438Y-85145819D01*
X117934519Y-85135226D01*
X117902337Y-85118024D01*
X117874127Y-85094873D01*
X117850976Y-85066663D01*
X117833774Y-85034481D01*
X117823181Y-84999562D01*
X117819000Y-84957105D01*
X117819000Y-83815895D01*
X117823181Y-83773438D01*
X117833774Y-83738519D01*
X117850976Y-83706337D01*
X117874127Y-83678127D01*
X117902337Y-83654976D01*
X117934519Y-83637774D01*
X117969438Y-83627181D01*
X118011895Y-83623000D01*
X119478105Y-83623000D01*
X119520562Y-83627181D01*
X119520562Y-83627181D01*
G37*
G36*
X93431500Y-85113000D02*
G01*
X89829500Y-85113000D01*
X89829500Y-81511000D01*
X93431500Y-81511000D01*
X93431500Y-85113000D01*
X93431500Y-85113000D01*
G37*
G36*
X101663000Y-84987500D02*
G01*
X99061000Y-84987500D01*
X99061000Y-83785500D01*
X101663000Y-83785500D01*
X101663000Y-84987500D01*
X101663000Y-84987500D01*
G37*
G36*
X117063000Y-84987500D02*
G01*
X114461000Y-84987500D01*
X114461000Y-83785500D01*
X117063000Y-83785500D01*
X117063000Y-84987500D01*
X117063000Y-84987500D01*
G37*
G36*
X129500795Y-82232156D02*
G01*
X129607150Y-82253311D01*
X129807520Y-82336307D01*
X129987844Y-82456795D01*
X130141205Y-82610156D01*
X130261693Y-82790480D01*
X130261693Y-82790481D01*
X130321294Y-82934369D01*
X130344689Y-82990851D01*
X130367366Y-83104852D01*
X130387000Y-83203561D01*
X130387000Y-83420439D01*
X130344689Y-83633150D01*
X130335648Y-83654976D01*
X130261693Y-83833520D01*
X130141205Y-84013844D01*
X129987844Y-84167205D01*
X129807520Y-84287693D01*
X129607150Y-84370689D01*
X129500794Y-84391845D01*
X129394440Y-84413000D01*
X129177560Y-84413000D01*
X129071206Y-84391845D01*
X128964850Y-84370689D01*
X128764480Y-84287693D01*
X128584156Y-84167205D01*
X128430795Y-84013844D01*
X128310307Y-83833520D01*
X128236352Y-83654976D01*
X128227311Y-83633150D01*
X128185000Y-83420439D01*
X128185000Y-83203561D01*
X128204635Y-83104852D01*
X128227311Y-82990851D01*
X128250707Y-82934369D01*
X128310307Y-82790481D01*
X128310307Y-82790480D01*
X128430795Y-82610156D01*
X128584156Y-82456795D01*
X128764480Y-82336307D01*
X128864666Y-82294809D01*
X128964850Y-82253311D01*
X129071205Y-82232156D01*
X129177560Y-82211000D01*
X129394440Y-82211000D01*
X129500795Y-82232156D01*
X129500795Y-82232156D01*
G37*
G36*
X96212674Y-82684865D02*
G01*
X96250367Y-82696299D01*
X96285103Y-82714866D01*
X96315548Y-82739852D01*
X96340534Y-82770297D01*
X96359101Y-82805033D01*
X96370535Y-82842726D01*
X96375000Y-82888061D01*
X96375000Y-83974739D01*
X96370535Y-84020074D01*
X96359101Y-84057767D01*
X96340534Y-84092503D01*
X96315548Y-84122948D01*
X96285103Y-84147934D01*
X96250367Y-84166501D01*
X96212674Y-84177935D01*
X96167339Y-84182400D01*
X95330661Y-84182400D01*
X95285326Y-84177935D01*
X95247633Y-84166501D01*
X95212897Y-84147934D01*
X95182452Y-84122948D01*
X95157466Y-84092503D01*
X95138899Y-84057767D01*
X95127465Y-84020074D01*
X95123000Y-83974739D01*
X95123000Y-82888061D01*
X95127465Y-82842726D01*
X95138899Y-82805033D01*
X95157466Y-82770297D01*
X95182452Y-82739852D01*
X95212897Y-82714866D01*
X95247633Y-82696299D01*
X95285326Y-82684865D01*
X95330661Y-82680400D01*
X96167339Y-82680400D01*
X96212674Y-82684865D01*
X96212674Y-82684865D01*
G37*
G36*
X98262674Y-82684865D02*
G01*
X98300367Y-82696299D01*
X98335103Y-82714866D01*
X98365548Y-82739852D01*
X98390534Y-82770297D01*
X98409101Y-82805033D01*
X98420535Y-82842726D01*
X98425000Y-82888061D01*
X98425000Y-83974739D01*
X98420535Y-84020074D01*
X98409101Y-84057767D01*
X98390534Y-84092503D01*
X98365548Y-84122948D01*
X98335103Y-84147934D01*
X98300367Y-84166501D01*
X98262674Y-84177935D01*
X98217339Y-84182400D01*
X97380661Y-84182400D01*
X97335326Y-84177935D01*
X97297633Y-84166501D01*
X97262897Y-84147934D01*
X97232452Y-84122948D01*
X97207466Y-84092503D01*
X97188899Y-84057767D01*
X97177465Y-84020074D01*
X97173000Y-83974739D01*
X97173000Y-82888061D01*
X97177465Y-82842726D01*
X97188899Y-82805033D01*
X97207466Y-82770297D01*
X97232452Y-82739852D01*
X97262897Y-82714866D01*
X97297633Y-82696299D01*
X97335326Y-82684865D01*
X97380661Y-82680400D01*
X98217339Y-82680400D01*
X98262674Y-82684865D01*
X98262674Y-82684865D01*
G37*
G36*
X119520562Y-81627181D02*
G01*
X119555481Y-81637774D01*
X119587663Y-81654976D01*
X119615873Y-81678127D01*
X119639024Y-81706337D01*
X119656226Y-81738519D01*
X119666819Y-81773438D01*
X119671000Y-81815895D01*
X119671000Y-82957105D01*
X119666819Y-82999562D01*
X119656226Y-83034481D01*
X119639024Y-83066663D01*
X119615873Y-83094873D01*
X119587663Y-83118024D01*
X119555481Y-83135226D01*
X119520562Y-83145819D01*
X119478105Y-83150000D01*
X118011895Y-83150000D01*
X117969438Y-83145819D01*
X117934519Y-83135226D01*
X117902337Y-83118024D01*
X117874127Y-83094873D01*
X117850976Y-83066663D01*
X117833774Y-83034481D01*
X117823181Y-82999562D01*
X117819000Y-82957105D01*
X117819000Y-81815895D01*
X117823181Y-81773438D01*
X117833774Y-81738519D01*
X117850976Y-81706337D01*
X117874127Y-81678127D01*
X117902337Y-81654976D01*
X117934519Y-81637774D01*
X117969438Y-81627181D01*
X118011895Y-81623000D01*
X119478105Y-81623000D01*
X119520562Y-81627181D01*
X119520562Y-81627181D01*
G37*
G36*
X117063000Y-82987500D02*
G01*
X114461000Y-82987500D01*
X114461000Y-81785500D01*
X117063000Y-81785500D01*
X117063000Y-82987500D01*
X117063000Y-82987500D01*
G37*
G36*
X101663000Y-82987500D02*
G01*
X99061000Y-82987500D01*
X99061000Y-81785500D01*
X101663000Y-81785500D01*
X101663000Y-82987500D01*
X101663000Y-82987500D01*
G37*
G36*
X96212674Y-80685865D02*
G01*
X96250367Y-80697299D01*
X96285103Y-80715866D01*
X96315548Y-80740852D01*
X96340534Y-80771297D01*
X96359101Y-80806033D01*
X96370535Y-80843726D01*
X96375000Y-80889061D01*
X96375000Y-81975739D01*
X96370535Y-82021074D01*
X96359101Y-82058767D01*
X96340534Y-82093503D01*
X96315548Y-82123948D01*
X96285103Y-82148934D01*
X96250367Y-82167501D01*
X96212674Y-82178935D01*
X96167339Y-82183400D01*
X95330661Y-82183400D01*
X95285326Y-82178935D01*
X95247633Y-82167501D01*
X95212897Y-82148934D01*
X95182452Y-82123948D01*
X95157466Y-82093503D01*
X95138899Y-82058767D01*
X95127465Y-82021074D01*
X95123000Y-81975739D01*
X95123000Y-80889061D01*
X95127465Y-80843726D01*
X95138899Y-80806033D01*
X95157466Y-80771297D01*
X95182452Y-80740852D01*
X95212897Y-80715866D01*
X95247633Y-80697299D01*
X95285326Y-80685865D01*
X95330661Y-80681400D01*
X96167339Y-80681400D01*
X96212674Y-80685865D01*
X96212674Y-80685865D01*
G37*
G36*
X98262674Y-80685865D02*
G01*
X98300367Y-80697299D01*
X98335103Y-80715866D01*
X98365548Y-80740852D01*
X98390534Y-80771297D01*
X98409101Y-80806033D01*
X98420535Y-80843726D01*
X98425000Y-80889061D01*
X98425000Y-81975739D01*
X98420535Y-82021074D01*
X98409101Y-82058767D01*
X98390534Y-82093503D01*
X98365548Y-82123948D01*
X98335103Y-82148934D01*
X98300367Y-82167501D01*
X98262674Y-82178935D01*
X98217339Y-82183400D01*
X97380661Y-82183400D01*
X97335326Y-82178935D01*
X97297633Y-82167501D01*
X97262897Y-82148934D01*
X97232452Y-82123948D01*
X97207466Y-82093503D01*
X97188899Y-82058767D01*
X97177465Y-82021074D01*
X97173000Y-81975739D01*
X97173000Y-80889061D01*
X97177465Y-80843726D01*
X97188899Y-80806033D01*
X97207466Y-80771297D01*
X97232452Y-80740852D01*
X97262897Y-80715866D01*
X97297633Y-80697299D01*
X97335326Y-80685865D01*
X97380661Y-80681400D01*
X98217339Y-80681400D01*
X98262674Y-80685865D01*
X98262674Y-80685865D01*
G37*
G36*
X130387000Y-81873000D02*
G01*
X128185000Y-81873000D01*
X128185000Y-79671000D01*
X130387000Y-79671000D01*
X130387000Y-81873000D01*
X130387000Y-81873000D01*
G37*
G36*
X83356942Y-79781018D02*
G01*
X83423127Y-79787537D01*
X83592966Y-79839057D01*
X83749491Y-79922722D01*
X83785229Y-79952052D01*
X83886686Y-80035314D01*
X83964270Y-80129852D01*
X83999278Y-80172509D01*
X84082943Y-80329034D01*
X84134463Y-80498873D01*
X84151859Y-80675500D01*
X84134463Y-80852127D01*
X84082943Y-81021966D01*
X83999278Y-81178491D01*
X83969948Y-81214229D01*
X83886686Y-81315686D01*
X83785229Y-81398948D01*
X83749491Y-81428278D01*
X83592966Y-81511943D01*
X83423127Y-81563463D01*
X83356942Y-81569982D01*
X83290760Y-81576500D01*
X82952240Y-81576500D01*
X82886058Y-81569982D01*
X82819873Y-81563463D01*
X82650034Y-81511943D01*
X82493509Y-81428278D01*
X82457771Y-81398948D01*
X82356314Y-81315686D01*
X82273052Y-81214229D01*
X82243722Y-81178491D01*
X82160057Y-81021966D01*
X82108537Y-80852127D01*
X82091141Y-80675500D01*
X82108537Y-80498873D01*
X82160057Y-80329034D01*
X82243722Y-80172509D01*
X82278730Y-80129852D01*
X82356314Y-80035314D01*
X82457771Y-79952052D01*
X82493509Y-79922722D01*
X82650034Y-79839057D01*
X82819873Y-79787537D01*
X82886058Y-79781018D01*
X82952240Y-79774500D01*
X83290760Y-79774500D01*
X83356942Y-79781018D01*
X83356942Y-79781018D01*
G37*
G36*
X117063000Y-80987500D02*
G01*
X114461000Y-80987500D01*
X114461000Y-79785500D01*
X117063000Y-79785500D01*
X117063000Y-80987500D01*
X117063000Y-80987500D01*
G37*
G36*
X101663000Y-80987500D02*
G01*
X99061000Y-80987500D01*
X99061000Y-79785500D01*
X101663000Y-79785500D01*
X101663000Y-80987500D01*
X101663000Y-80987500D01*
G37*
G36*
X119520562Y-78652181D02*
G01*
X119555481Y-78662774D01*
X119587663Y-78679976D01*
X119615873Y-78703127D01*
X119639024Y-78731337D01*
X119656226Y-78763519D01*
X119666819Y-78798438D01*
X119671000Y-78840895D01*
X119671000Y-79982105D01*
X119666819Y-80024562D01*
X119656226Y-80059481D01*
X119639024Y-80091663D01*
X119615873Y-80119873D01*
X119587663Y-80143024D01*
X119555481Y-80160226D01*
X119520562Y-80170819D01*
X119478105Y-80175000D01*
X118011895Y-80175000D01*
X117969438Y-80170819D01*
X117934519Y-80160226D01*
X117902337Y-80143024D01*
X117874127Y-80119873D01*
X117850976Y-80091663D01*
X117833774Y-80059481D01*
X117823181Y-80024562D01*
X117819000Y-79982105D01*
X117819000Y-78840895D01*
X117823181Y-78798438D01*
X117833774Y-78763519D01*
X117850976Y-78731337D01*
X117874127Y-78703127D01*
X117902337Y-78679976D01*
X117934519Y-78662774D01*
X117969438Y-78652181D01*
X118011895Y-78648000D01*
X119478105Y-78648000D01*
X119520562Y-78652181D01*
X119520562Y-78652181D01*
G37*
G36*
X94775000Y-79817500D02*
G01*
X93173000Y-79817500D01*
X93173000Y-79115500D01*
X94775000Y-79115500D01*
X94775000Y-79817500D01*
X94775000Y-79817500D01*
G37*
G36*
X87675000Y-79817500D02*
G01*
X86073000Y-79817500D01*
X86073000Y-79115500D01*
X87675000Y-79115500D01*
X87675000Y-79817500D01*
X87675000Y-79817500D01*
G37*
G36*
X124286674Y-77967131D02*
G01*
X124324367Y-77978565D01*
X124359103Y-77997132D01*
X124389548Y-78022118D01*
X124414534Y-78052563D01*
X124433101Y-78087299D01*
X124444535Y-78124992D01*
X124449000Y-78170327D01*
X124449000Y-79007005D01*
X124444535Y-79052340D01*
X124433101Y-79090033D01*
X124414534Y-79124769D01*
X124389548Y-79155214D01*
X124359103Y-79180200D01*
X124324367Y-79198767D01*
X124286674Y-79210201D01*
X124241339Y-79214666D01*
X123154661Y-79214666D01*
X123109326Y-79210201D01*
X123071633Y-79198767D01*
X123036897Y-79180200D01*
X123006452Y-79155214D01*
X122981466Y-79124769D01*
X122962899Y-79090033D01*
X122951465Y-79052340D01*
X122947000Y-79007005D01*
X122947000Y-78170327D01*
X122951465Y-78124992D01*
X122962899Y-78087299D01*
X122981466Y-78052563D01*
X123006452Y-78022118D01*
X123036897Y-77997132D01*
X123071633Y-77978565D01*
X123109326Y-77967131D01*
X123154661Y-77962666D01*
X124241339Y-77962666D01*
X124286674Y-77967131D01*
X124286674Y-77967131D01*
G37*
G36*
X126318674Y-77967131D02*
G01*
X126356367Y-77978565D01*
X126391103Y-77997132D01*
X126421548Y-78022118D01*
X126446534Y-78052563D01*
X126465101Y-78087299D01*
X126476535Y-78124992D01*
X126481000Y-78170327D01*
X126481000Y-79007005D01*
X126476535Y-79052340D01*
X126465101Y-79090033D01*
X126446534Y-79124769D01*
X126421548Y-79155214D01*
X126391103Y-79180200D01*
X126356367Y-79198767D01*
X126318674Y-79210201D01*
X126273339Y-79214666D01*
X125186661Y-79214666D01*
X125141326Y-79210201D01*
X125103633Y-79198767D01*
X125068897Y-79180200D01*
X125038452Y-79155214D01*
X125013466Y-79124769D01*
X124994899Y-79090033D01*
X124983465Y-79052340D01*
X124979000Y-79007005D01*
X124979000Y-78170327D01*
X124983465Y-78124992D01*
X124994899Y-78087299D01*
X125013466Y-78052563D01*
X125038452Y-78022118D01*
X125068897Y-77997132D01*
X125103633Y-77978565D01*
X125141326Y-77967131D01*
X125186661Y-77962666D01*
X126273339Y-77962666D01*
X126318674Y-77967131D01*
X126318674Y-77967131D01*
G37*
G36*
X83356943Y-77281019D02*
G01*
X83423127Y-77287537D01*
X83592966Y-77339057D01*
X83749491Y-77422722D01*
X83785229Y-77452052D01*
X83886686Y-77535314D01*
X83969948Y-77636771D01*
X83999278Y-77672509D01*
X84082943Y-77829034D01*
X84134463Y-77998873D01*
X84151859Y-78175500D01*
X84134463Y-78352127D01*
X84082943Y-78521966D01*
X83999278Y-78678491D01*
X83969948Y-78714229D01*
X83886686Y-78815686D01*
X83785229Y-78898948D01*
X83749491Y-78928278D01*
X83592966Y-79011943D01*
X83423127Y-79063463D01*
X83356942Y-79069982D01*
X83290760Y-79076500D01*
X82952240Y-79076500D01*
X82886058Y-79069982D01*
X82819873Y-79063463D01*
X82650034Y-79011943D01*
X82493509Y-78928278D01*
X82457771Y-78898948D01*
X82356314Y-78815686D01*
X82273052Y-78714229D01*
X82243722Y-78678491D01*
X82160057Y-78521966D01*
X82108537Y-78352127D01*
X82091141Y-78175500D01*
X82108537Y-77998873D01*
X82160057Y-77829034D01*
X82243722Y-77672509D01*
X82273052Y-77636771D01*
X82356314Y-77535314D01*
X82457771Y-77452052D01*
X82493509Y-77422722D01*
X82650034Y-77339057D01*
X82819873Y-77287537D01*
X82886057Y-77281019D01*
X82952240Y-77274500D01*
X83290760Y-77274500D01*
X83356943Y-77281019D01*
X83356943Y-77281019D01*
G37*
G36*
X117063000Y-78987500D02*
G01*
X114461000Y-78987500D01*
X114461000Y-77785500D01*
X117063000Y-77785500D01*
X117063000Y-78987500D01*
X117063000Y-78987500D01*
G37*
G36*
X101663000Y-78987500D02*
G01*
X99061000Y-78987500D01*
X99061000Y-77785500D01*
X101663000Y-77785500D01*
X101663000Y-78987500D01*
X101663000Y-78987500D01*
G37*
G36*
X87675000Y-78547500D02*
G01*
X86073000Y-78547500D01*
X86073000Y-77845500D01*
X87675000Y-77845500D01*
X87675000Y-78547500D01*
X87675000Y-78547500D01*
G37*
G36*
X94775000Y-78547500D02*
G01*
X93173000Y-78547500D01*
X93173000Y-77845500D01*
X94775000Y-77845500D01*
X94775000Y-78547500D01*
X94775000Y-78547500D01*
G37*
G36*
X119520562Y-76602181D02*
G01*
X119555481Y-76612774D01*
X119587663Y-76629976D01*
X119615873Y-76653127D01*
X119639024Y-76681337D01*
X119656226Y-76713519D01*
X119666819Y-76748438D01*
X119671000Y-76790895D01*
X119671000Y-77932105D01*
X119666819Y-77974562D01*
X119656226Y-78009481D01*
X119639024Y-78041663D01*
X119615873Y-78069873D01*
X119587663Y-78093024D01*
X119555481Y-78110226D01*
X119520562Y-78120819D01*
X119478105Y-78125000D01*
X118011895Y-78125000D01*
X117969438Y-78120819D01*
X117934519Y-78110226D01*
X117902337Y-78093024D01*
X117874127Y-78069873D01*
X117850976Y-78041663D01*
X117833774Y-78009481D01*
X117823181Y-77974562D01*
X117819000Y-77932105D01*
X117819000Y-76790895D01*
X117823181Y-76748438D01*
X117833774Y-76713519D01*
X117850976Y-76681337D01*
X117874127Y-76653127D01*
X117902337Y-76629976D01*
X117934519Y-76612774D01*
X117969438Y-76602181D01*
X118011895Y-76598000D01*
X119478105Y-76598000D01*
X119520562Y-76602181D01*
X119520562Y-76602181D01*
G37*
G36*
X130387000Y-77639666D02*
G01*
X128185000Y-77639666D01*
X128185000Y-75437666D01*
X130387000Y-75437666D01*
X130387000Y-77639666D01*
X130387000Y-77639666D01*
G37*
G36*
X87675000Y-77277500D02*
G01*
X86073000Y-77277500D01*
X86073000Y-76575500D01*
X87675000Y-76575500D01*
X87675000Y-77277500D01*
X87675000Y-77277500D01*
G37*
G36*
X94775000Y-77277500D02*
G01*
X93173000Y-77277500D01*
X93173000Y-76575500D01*
X94775000Y-76575500D01*
X94775000Y-77277500D01*
X94775000Y-77277500D01*
G37*
G36*
X126318674Y-75917131D02*
G01*
X126356367Y-75928565D01*
X126391103Y-75947132D01*
X126421548Y-75972118D01*
X126446534Y-76002563D01*
X126465101Y-76037299D01*
X126476535Y-76074992D01*
X126481000Y-76120327D01*
X126481000Y-76957005D01*
X126476535Y-77002340D01*
X126465101Y-77040033D01*
X126446534Y-77074769D01*
X126421548Y-77105214D01*
X126391103Y-77130200D01*
X126356367Y-77148767D01*
X126318674Y-77160201D01*
X126273339Y-77164666D01*
X125186661Y-77164666D01*
X125141326Y-77160201D01*
X125103633Y-77148767D01*
X125068897Y-77130200D01*
X125038452Y-77105214D01*
X125013466Y-77074769D01*
X124994899Y-77040033D01*
X124983465Y-77002340D01*
X124979000Y-76957005D01*
X124979000Y-76120327D01*
X124983465Y-76074992D01*
X124994899Y-76037299D01*
X125013466Y-76002563D01*
X125038452Y-75972118D01*
X125068897Y-75947132D01*
X125103633Y-75928565D01*
X125141326Y-75917131D01*
X125186661Y-75912666D01*
X126273339Y-75912666D01*
X126318674Y-75917131D01*
X126318674Y-75917131D01*
G37*
G36*
X124286674Y-75917131D02*
G01*
X124324367Y-75928565D01*
X124359103Y-75947132D01*
X124389548Y-75972118D01*
X124414534Y-76002563D01*
X124433101Y-76037299D01*
X124444535Y-76074992D01*
X124449000Y-76120327D01*
X124449000Y-76957005D01*
X124444535Y-77002340D01*
X124433101Y-77040033D01*
X124414534Y-77074769D01*
X124389548Y-77105214D01*
X124359103Y-77130200D01*
X124324367Y-77148767D01*
X124286674Y-77160201D01*
X124241339Y-77164666D01*
X123154661Y-77164666D01*
X123109326Y-77160201D01*
X123071633Y-77148767D01*
X123036897Y-77130200D01*
X123006452Y-77105214D01*
X122981466Y-77074769D01*
X122962899Y-77040033D01*
X122951465Y-77002340D01*
X122947000Y-76957005D01*
X122947000Y-76120327D01*
X122951465Y-76074992D01*
X122962899Y-76037299D01*
X122981466Y-76002563D01*
X123006452Y-75972118D01*
X123036897Y-75947132D01*
X123071633Y-75928565D01*
X123109326Y-75917131D01*
X123154661Y-75912666D01*
X124241339Y-75912666D01*
X124286674Y-75917131D01*
X124286674Y-75917131D01*
G37*
G36*
X122163674Y-75814965D02*
G01*
X122201367Y-75826399D01*
X122236103Y-75844966D01*
X122266548Y-75869952D01*
X122291534Y-75900397D01*
X122310101Y-75935133D01*
X122321535Y-75972826D01*
X122326000Y-76018161D01*
X122326000Y-76854839D01*
X122321535Y-76900174D01*
X122310101Y-76937867D01*
X122291534Y-76972603D01*
X122266548Y-77003048D01*
X122236103Y-77028034D01*
X122201367Y-77046601D01*
X122163674Y-77058035D01*
X122118339Y-77062500D01*
X121031661Y-77062500D01*
X120986326Y-77058035D01*
X120948633Y-77046601D01*
X120913897Y-77028034D01*
X120883452Y-77003048D01*
X120858466Y-76972603D01*
X120839899Y-76937867D01*
X120828465Y-76900174D01*
X120824000Y-76854839D01*
X120824000Y-76018161D01*
X120828465Y-75972826D01*
X120839899Y-75935133D01*
X120858466Y-75900397D01*
X120883452Y-75869952D01*
X120913897Y-75844966D01*
X120948633Y-75826399D01*
X120986326Y-75814965D01*
X121031661Y-75810500D01*
X122118339Y-75810500D01*
X122163674Y-75814965D01*
X122163674Y-75814965D01*
G37*
G36*
X101663000Y-76987500D02*
G01*
X99061000Y-76987500D01*
X99061000Y-75785500D01*
X101663000Y-75785500D01*
X101663000Y-76987500D01*
X101663000Y-76987500D01*
G37*
G36*
X117063000Y-76987500D02*
G01*
X114461000Y-76987500D01*
X114461000Y-75785500D01*
X117063000Y-75785500D01*
X117063000Y-76987500D01*
X117063000Y-76987500D01*
G37*
G36*
X83356943Y-74781019D02*
G01*
X83423127Y-74787537D01*
X83592966Y-74839057D01*
X83749491Y-74922722D01*
X83785229Y-74952052D01*
X83886686Y-75035314D01*
X83954563Y-75118024D01*
X83999278Y-75172509D01*
X84082943Y-75329034D01*
X84134463Y-75498873D01*
X84151859Y-75675500D01*
X84134463Y-75852127D01*
X84087331Y-76007500D01*
X84082942Y-76021968D01*
X84074747Y-76037299D01*
X83999278Y-76178491D01*
X83994068Y-76184839D01*
X83886686Y-76315686D01*
X83785229Y-76398948D01*
X83749491Y-76428278D01*
X83592966Y-76511943D01*
X83423127Y-76563463D01*
X83356942Y-76569982D01*
X83290760Y-76576500D01*
X82952240Y-76576500D01*
X82886058Y-76569982D01*
X82819873Y-76563463D01*
X82650034Y-76511943D01*
X82493509Y-76428278D01*
X82457771Y-76398948D01*
X82356314Y-76315686D01*
X82248932Y-76184839D01*
X82243722Y-76178491D01*
X82168253Y-76037299D01*
X82160058Y-76021968D01*
X82155669Y-76007500D01*
X82108537Y-75852127D01*
X82091141Y-75675500D01*
X82108537Y-75498873D01*
X82160057Y-75329034D01*
X82243722Y-75172509D01*
X82288437Y-75118024D01*
X82356314Y-75035314D01*
X82457771Y-74952052D01*
X82493509Y-74922722D01*
X82650034Y-74839057D01*
X82819873Y-74787537D01*
X82886057Y-74781019D01*
X82952240Y-74774500D01*
X83290760Y-74774500D01*
X83356943Y-74781019D01*
X83356943Y-74781019D01*
G37*
G36*
X94775000Y-76007500D02*
G01*
X93173000Y-76007500D01*
X93173000Y-75305500D01*
X94775000Y-75305500D01*
X94775000Y-76007500D01*
X94775000Y-76007500D01*
G37*
G36*
X87675000Y-76007500D02*
G01*
X86073000Y-76007500D01*
X86073000Y-75305500D01*
X87675000Y-75305500D01*
X87675000Y-76007500D01*
X87675000Y-76007500D01*
G37*
G36*
X119520562Y-73627181D02*
G01*
X119555481Y-73637774D01*
X119587663Y-73654976D01*
X119615873Y-73678127D01*
X119639024Y-73706337D01*
X119656226Y-73738519D01*
X119666819Y-73773438D01*
X119671000Y-73815895D01*
X119671000Y-74957105D01*
X119666819Y-74999562D01*
X119656226Y-75034481D01*
X119639024Y-75066663D01*
X119615873Y-75094873D01*
X119587663Y-75118024D01*
X119555481Y-75135226D01*
X119520562Y-75145819D01*
X119478105Y-75150000D01*
X118011895Y-75150000D01*
X117969438Y-75145819D01*
X117934519Y-75135226D01*
X117902337Y-75118024D01*
X117874127Y-75094873D01*
X117850976Y-75066663D01*
X117833774Y-75034481D01*
X117823181Y-74999562D01*
X117819000Y-74957105D01*
X117819000Y-73815895D01*
X117823181Y-73773438D01*
X117833774Y-73738519D01*
X117850976Y-73706337D01*
X117874127Y-73678127D01*
X117902337Y-73654976D01*
X117934519Y-73637774D01*
X117969438Y-73627181D01*
X118011895Y-73623000D01*
X119478105Y-73623000D01*
X119520562Y-73627181D01*
X119520562Y-73627181D01*
G37*
G36*
X129489782Y-72916631D02*
G01*
X129607150Y-72939977D01*
X129671498Y-72966631D01*
X129807520Y-73022973D01*
X129987844Y-73143461D01*
X130141205Y-73296822D01*
X130261693Y-73477146D01*
X130261693Y-73477147D01*
X130344689Y-73677516D01*
X130344883Y-73678491D01*
X130387000Y-73890226D01*
X130387000Y-74107106D01*
X130344689Y-74319815D01*
X130261693Y-74520186D01*
X130141205Y-74700510D01*
X129987844Y-74853871D01*
X129807520Y-74974359D01*
X129715439Y-75012500D01*
X129607150Y-75057355D01*
X129500794Y-75078511D01*
X129394440Y-75099666D01*
X129177560Y-75099666D01*
X129071206Y-75078511D01*
X128964850Y-75057355D01*
X128856561Y-75012500D01*
X128764480Y-74974359D01*
X128584156Y-74853871D01*
X128430795Y-74700510D01*
X128310307Y-74520186D01*
X128227311Y-74319815D01*
X128185000Y-74107106D01*
X128185000Y-73890226D01*
X128227117Y-73678491D01*
X128227311Y-73677516D01*
X128310307Y-73477147D01*
X128310307Y-73477146D01*
X128430795Y-73296822D01*
X128584156Y-73143461D01*
X128764480Y-73022973D01*
X128900502Y-72966631D01*
X128964850Y-72939977D01*
X129082218Y-72916631D01*
X129177560Y-72897666D01*
X129394440Y-72897666D01*
X129489782Y-72916631D01*
X129489782Y-72916631D01*
G37*
G36*
X122163674Y-73764965D02*
G01*
X122201367Y-73776399D01*
X122236103Y-73794966D01*
X122266548Y-73819952D01*
X122291534Y-73850397D01*
X122310101Y-73885133D01*
X122321535Y-73922826D01*
X122326000Y-73968161D01*
X122326000Y-74804839D01*
X122321535Y-74850174D01*
X122310101Y-74887867D01*
X122291534Y-74922603D01*
X122266548Y-74953048D01*
X122236103Y-74978034D01*
X122201367Y-74996601D01*
X122163674Y-75008035D01*
X122118339Y-75012500D01*
X121031661Y-75012500D01*
X120986326Y-75008035D01*
X120948633Y-74996601D01*
X120913897Y-74978034D01*
X120883452Y-74953048D01*
X120858466Y-74922603D01*
X120839899Y-74887867D01*
X120828465Y-74850174D01*
X120824000Y-74804839D01*
X120824000Y-73968161D01*
X120828465Y-73922826D01*
X120839899Y-73885133D01*
X120858466Y-73850397D01*
X120883452Y-73819952D01*
X120913897Y-73794966D01*
X120948633Y-73776399D01*
X120986326Y-73764965D01*
X121031661Y-73760500D01*
X122118339Y-73760500D01*
X122163674Y-73764965D01*
X122163674Y-73764965D01*
G37*
G36*
X124113674Y-73764965D02*
G01*
X124151367Y-73776399D01*
X124186103Y-73794966D01*
X124216548Y-73819952D01*
X124241534Y-73850397D01*
X124260101Y-73885133D01*
X124271535Y-73922826D01*
X124276000Y-73968161D01*
X124276000Y-74804839D01*
X124271535Y-74850174D01*
X124260101Y-74887867D01*
X124241534Y-74922603D01*
X124216548Y-74953048D01*
X124186103Y-74978034D01*
X124151367Y-74996601D01*
X124113674Y-75008035D01*
X124068339Y-75012500D01*
X122981661Y-75012500D01*
X122936326Y-75008035D01*
X122898633Y-74996601D01*
X122863897Y-74978034D01*
X122833452Y-74953048D01*
X122808466Y-74922603D01*
X122789899Y-74887867D01*
X122778465Y-74850174D01*
X122774000Y-74804839D01*
X122774000Y-73968161D01*
X122778465Y-73922826D01*
X122789899Y-73885133D01*
X122808466Y-73850397D01*
X122833452Y-73819952D01*
X122863897Y-73794966D01*
X122898633Y-73776399D01*
X122936326Y-73764965D01*
X122981661Y-73760500D01*
X124068339Y-73760500D01*
X124113674Y-73764965D01*
X124113674Y-73764965D01*
G37*
G36*
X117063000Y-74987500D02*
G01*
X114461000Y-74987500D01*
X114461000Y-73785500D01*
X117063000Y-73785500D01*
X117063000Y-74987500D01*
X117063000Y-74987500D01*
G37*
G36*
X101663000Y-74987500D02*
G01*
X99061000Y-74987500D01*
X99061000Y-73785500D01*
X101663000Y-73785500D01*
X101663000Y-74987500D01*
X101663000Y-74987500D01*
G37*
G36*
X87675000Y-74737500D02*
G01*
X86073000Y-74737500D01*
X86073000Y-74035500D01*
X87675000Y-74035500D01*
X87675000Y-74737500D01*
X87675000Y-74737500D01*
G37*
G36*
X94775000Y-74737500D02*
G01*
X93173000Y-74737500D01*
X93173000Y-74035500D01*
X94775000Y-74035500D01*
X94775000Y-74737500D01*
X94775000Y-74737500D01*
G37*
G36*
X83356943Y-72281019D02*
G01*
X83423127Y-72287537D01*
X83592966Y-72339057D01*
X83749491Y-72422722D01*
X83785229Y-72452052D01*
X83886686Y-72535314D01*
X83969948Y-72636771D01*
X83999278Y-72672509D01*
X84082943Y-72829034D01*
X84134463Y-72998873D01*
X84151859Y-73175500D01*
X84134463Y-73352127D01*
X84082943Y-73521966D01*
X83999278Y-73678491D01*
X83976425Y-73706337D01*
X83886686Y-73815686D01*
X83802063Y-73885133D01*
X83749491Y-73928278D01*
X83592966Y-74011943D01*
X83423127Y-74063463D01*
X83356942Y-74069982D01*
X83290760Y-74076500D01*
X82952240Y-74076500D01*
X82886058Y-74069982D01*
X82819873Y-74063463D01*
X82650034Y-74011943D01*
X82493509Y-73928278D01*
X82440937Y-73885133D01*
X82356314Y-73815686D01*
X82266575Y-73706337D01*
X82243722Y-73678491D01*
X82160057Y-73521966D01*
X82108537Y-73352127D01*
X82091141Y-73175500D01*
X82108537Y-72998873D01*
X82160057Y-72829034D01*
X82243722Y-72672509D01*
X82273052Y-72636771D01*
X82356314Y-72535314D01*
X82457771Y-72452052D01*
X82493509Y-72422722D01*
X82650034Y-72339057D01*
X82819873Y-72287537D01*
X82886057Y-72281019D01*
X82952240Y-72274500D01*
X83290760Y-72274500D01*
X83356943Y-72281019D01*
X83356943Y-72281019D01*
G37*
G36*
X87675000Y-73467500D02*
G01*
X86073000Y-73467500D01*
X86073000Y-72765500D01*
X87675000Y-72765500D01*
X87675000Y-73467500D01*
X87675000Y-73467500D01*
G37*
G36*
X94775000Y-73467500D02*
G01*
X93173000Y-73467500D01*
X93173000Y-72765500D01*
X94775000Y-72765500D01*
X94775000Y-73467500D01*
X94775000Y-73467500D01*
G37*
G36*
X122168174Y-71778465D02*
G01*
X122205867Y-71789899D01*
X122240603Y-71808466D01*
X122271048Y-71833452D01*
X122296034Y-71863897D01*
X122314601Y-71898633D01*
X122326035Y-71936326D01*
X122330500Y-71981661D01*
X122330500Y-72818339D01*
X122326035Y-72863674D01*
X122314601Y-72901367D01*
X122296034Y-72936103D01*
X122271048Y-72966548D01*
X122240603Y-72991534D01*
X122205867Y-73010101D01*
X122168174Y-73021535D01*
X122122839Y-73026000D01*
X121036161Y-73026000D01*
X120990826Y-73021535D01*
X120953133Y-73010101D01*
X120918397Y-72991534D01*
X120887952Y-72966548D01*
X120862966Y-72936103D01*
X120844399Y-72901367D01*
X120832965Y-72863674D01*
X120828500Y-72818339D01*
X120828500Y-71981661D01*
X120832965Y-71936326D01*
X120844399Y-71898633D01*
X120862966Y-71863897D01*
X120887952Y-71833452D01*
X120918397Y-71808466D01*
X120953133Y-71789899D01*
X120990826Y-71778465D01*
X121036161Y-71774000D01*
X122122839Y-71774000D01*
X122168174Y-71778465D01*
X122168174Y-71778465D01*
G37*
G36*
X120222674Y-71764965D02*
G01*
X120260367Y-71776399D01*
X120295103Y-71794966D01*
X120325548Y-71819952D01*
X120350534Y-71850397D01*
X120369101Y-71885133D01*
X120380535Y-71922826D01*
X120385000Y-71968161D01*
X120385000Y-72804839D01*
X120380535Y-72850174D01*
X120369101Y-72887867D01*
X120350534Y-72922603D01*
X120325548Y-72953048D01*
X120295103Y-72978034D01*
X120260367Y-72996601D01*
X120222674Y-73008035D01*
X120177339Y-73012500D01*
X119090661Y-73012500D01*
X119045326Y-73008035D01*
X119007633Y-72996601D01*
X118972897Y-72978034D01*
X118942452Y-72953048D01*
X118917466Y-72922603D01*
X118898899Y-72887867D01*
X118887465Y-72850174D01*
X118883000Y-72804839D01*
X118883000Y-71968161D01*
X118887465Y-71922826D01*
X118898899Y-71885133D01*
X118917466Y-71850397D01*
X118942452Y-71819952D01*
X118972897Y-71794966D01*
X119007633Y-71776399D01*
X119045326Y-71764965D01*
X119090661Y-71760500D01*
X120177339Y-71760500D01*
X120222674Y-71764965D01*
X120222674Y-71764965D01*
G37*
G36*
X97588674Y-71764965D02*
G01*
X97626367Y-71776399D01*
X97661103Y-71794966D01*
X97691548Y-71819952D01*
X97716534Y-71850397D01*
X97735101Y-71885133D01*
X97746535Y-71922826D01*
X97751000Y-71968161D01*
X97751000Y-72804839D01*
X97746535Y-72850174D01*
X97735101Y-72887867D01*
X97716534Y-72922603D01*
X97691548Y-72953048D01*
X97661103Y-72978034D01*
X97626367Y-72996601D01*
X97588674Y-73008035D01*
X97543339Y-73012500D01*
X96456661Y-73012500D01*
X96411326Y-73008035D01*
X96373633Y-72996601D01*
X96338897Y-72978034D01*
X96308452Y-72953048D01*
X96283466Y-72922603D01*
X96264899Y-72887867D01*
X96253465Y-72850174D01*
X96249000Y-72804839D01*
X96249000Y-71968161D01*
X96253465Y-71922826D01*
X96264899Y-71885133D01*
X96283466Y-71850397D01*
X96308452Y-71819952D01*
X96338897Y-71794966D01*
X96373633Y-71776399D01*
X96411326Y-71764965D01*
X96456661Y-71760500D01*
X97543339Y-71760500D01*
X97588674Y-71764965D01*
X97588674Y-71764965D01*
G37*
G36*
X101663000Y-72987500D02*
G01*
X99061000Y-72987500D01*
X99061000Y-71785500D01*
X101663000Y-71785500D01*
X101663000Y-72987500D01*
X101663000Y-72987500D01*
G37*
G36*
X117063000Y-72987500D02*
G01*
X114461000Y-72987500D01*
X114461000Y-71785500D01*
X117063000Y-71785500D01*
X117063000Y-72987500D01*
X117063000Y-72987500D01*
G37*
G36*
X124113674Y-71714965D02*
G01*
X124151367Y-71726399D01*
X124186103Y-71744966D01*
X124216548Y-71769952D01*
X124241534Y-71800397D01*
X124260101Y-71835133D01*
X124271535Y-71872826D01*
X124276000Y-71918161D01*
X124276000Y-72754839D01*
X124271535Y-72800174D01*
X124260101Y-72837867D01*
X124241534Y-72872603D01*
X124216548Y-72903048D01*
X124186103Y-72928034D01*
X124151367Y-72946601D01*
X124113674Y-72958035D01*
X124068339Y-72962500D01*
X122981661Y-72962500D01*
X122936326Y-72958035D01*
X122898633Y-72946601D01*
X122863897Y-72928034D01*
X122833452Y-72903048D01*
X122808466Y-72872603D01*
X122789899Y-72837867D01*
X122778465Y-72800174D01*
X122774000Y-72754839D01*
X122774000Y-71918161D01*
X122778465Y-71872826D01*
X122789899Y-71835133D01*
X122808466Y-71800397D01*
X122833452Y-71769952D01*
X122863897Y-71744966D01*
X122898633Y-71726399D01*
X122936326Y-71714965D01*
X122981661Y-71710500D01*
X124068339Y-71710500D01*
X124113674Y-71714965D01*
X124113674Y-71714965D01*
G37*
G36*
X94775000Y-72197500D02*
G01*
X93173000Y-72197500D01*
X93173000Y-71495500D01*
X94775000Y-71495500D01*
X94775000Y-72197500D01*
X94775000Y-72197500D01*
G37*
G36*
X87675000Y-72197500D02*
G01*
X86073000Y-72197500D01*
X86073000Y-71495500D01*
X87675000Y-71495500D01*
X87675000Y-72197500D01*
X87675000Y-72197500D01*
G37*
G36*
X84005198Y-69778487D02*
G01*
X84038224Y-69788505D01*
X84068659Y-69804773D01*
X84095335Y-69826665D01*
X84117227Y-69853341D01*
X84133495Y-69883776D01*
X84143513Y-69916802D01*
X84147500Y-69957284D01*
X84147500Y-71393716D01*
X84143513Y-71434198D01*
X84133495Y-71467224D01*
X84117227Y-71497659D01*
X84095335Y-71524335D01*
X84068659Y-71546227D01*
X84038224Y-71562495D01*
X84005198Y-71572513D01*
X83964716Y-71576500D01*
X82278284Y-71576500D01*
X82237802Y-71572513D01*
X82204776Y-71562495D01*
X82174341Y-71546227D01*
X82147665Y-71524335D01*
X82125773Y-71497659D01*
X82109505Y-71467224D01*
X82099487Y-71434198D01*
X82095500Y-71393716D01*
X82095500Y-69957284D01*
X82099487Y-69916802D01*
X82109505Y-69883776D01*
X82125773Y-69853341D01*
X82147665Y-69826665D01*
X82174341Y-69804773D01*
X82204776Y-69788505D01*
X82237802Y-69778487D01*
X82278284Y-69774500D01*
X83964716Y-69774500D01*
X84005198Y-69778487D01*
X84005198Y-69778487D01*
G37*
G36*
X122168174Y-69728465D02*
G01*
X122205867Y-69739899D01*
X122240603Y-69758466D01*
X122271048Y-69783452D01*
X122296034Y-69813897D01*
X122314601Y-69848633D01*
X122326035Y-69886326D01*
X122330500Y-69931661D01*
X122330500Y-70768339D01*
X122326035Y-70813674D01*
X122314601Y-70851367D01*
X122296034Y-70886103D01*
X122271048Y-70916548D01*
X122240603Y-70941534D01*
X122205867Y-70960101D01*
X122168174Y-70971535D01*
X122122839Y-70976000D01*
X121036161Y-70976000D01*
X120990826Y-70971535D01*
X120953133Y-70960101D01*
X120918397Y-70941534D01*
X120887952Y-70916548D01*
X120862966Y-70886103D01*
X120844399Y-70851367D01*
X120832965Y-70813674D01*
X120828500Y-70768339D01*
X120828500Y-69931661D01*
X120832965Y-69886326D01*
X120844399Y-69848633D01*
X120862966Y-69813897D01*
X120887952Y-69783452D01*
X120918397Y-69758466D01*
X120953133Y-69739899D01*
X120990826Y-69728465D01*
X121036161Y-69724000D01*
X122122839Y-69724000D01*
X122168174Y-69728465D01*
X122168174Y-69728465D01*
G37*
G36*
X120222674Y-69714965D02*
G01*
X120260367Y-69726399D01*
X120295103Y-69744966D01*
X120325548Y-69769952D01*
X120350534Y-69800397D01*
X120369101Y-69835133D01*
X120380535Y-69872826D01*
X120385000Y-69918161D01*
X120385000Y-70754839D01*
X120380535Y-70800174D01*
X120369101Y-70837867D01*
X120350534Y-70872603D01*
X120325548Y-70903048D01*
X120295103Y-70928034D01*
X120260367Y-70946601D01*
X120222674Y-70958035D01*
X120177339Y-70962500D01*
X119090661Y-70962500D01*
X119045326Y-70958035D01*
X119007633Y-70946601D01*
X118972897Y-70928034D01*
X118942452Y-70903048D01*
X118917466Y-70872603D01*
X118898899Y-70837867D01*
X118887465Y-70800174D01*
X118883000Y-70754839D01*
X118883000Y-69918161D01*
X118887465Y-69872826D01*
X118898899Y-69835133D01*
X118917466Y-69800397D01*
X118942452Y-69769952D01*
X118972897Y-69744966D01*
X119007633Y-69726399D01*
X119045326Y-69714965D01*
X119090661Y-69710500D01*
X120177339Y-69710500D01*
X120222674Y-69714965D01*
X120222674Y-69714965D01*
G37*
G36*
X97588674Y-69714965D02*
G01*
X97626367Y-69726399D01*
X97661103Y-69744966D01*
X97691548Y-69769952D01*
X97716534Y-69800397D01*
X97735101Y-69835133D01*
X97746535Y-69872826D01*
X97751000Y-69918161D01*
X97751000Y-70754839D01*
X97746535Y-70800174D01*
X97735101Y-70837867D01*
X97716534Y-70872603D01*
X97691548Y-70903048D01*
X97661103Y-70928034D01*
X97626367Y-70946601D01*
X97588674Y-70958035D01*
X97543339Y-70962500D01*
X96456661Y-70962500D01*
X96411326Y-70958035D01*
X96373633Y-70946601D01*
X96338897Y-70928034D01*
X96308452Y-70903048D01*
X96283466Y-70872603D01*
X96264899Y-70837867D01*
X96253465Y-70800174D01*
X96249000Y-70754839D01*
X96249000Y-69918161D01*
X96253465Y-69872826D01*
X96264899Y-69835133D01*
X96283466Y-69800397D01*
X96308452Y-69769952D01*
X96338897Y-69744966D01*
X96373633Y-69726399D01*
X96411326Y-69714965D01*
X96456661Y-69710500D01*
X97543339Y-69710500D01*
X97588674Y-69714965D01*
X97588674Y-69714965D01*
G37*
G36*
X94775000Y-70927500D02*
G01*
X93173000Y-70927500D01*
X93173000Y-70225500D01*
X94775000Y-70225500D01*
X94775000Y-70927500D01*
X94775000Y-70927500D01*
G37*
G36*
X87675000Y-70927500D02*
G01*
X86073000Y-70927500D01*
X86073000Y-70225500D01*
X87675000Y-70225500D01*
X87675000Y-70927500D01*
X87675000Y-70927500D01*
G37*
G36*
X130387000Y-70925600D02*
G01*
X128185000Y-70925600D01*
X128185000Y-68723600D01*
X130387000Y-68723600D01*
X130387000Y-70925600D01*
X130387000Y-70925600D01*
G37*
G36*
X129500794Y-66204755D02*
G01*
X129607150Y-66225911D01*
X129807520Y-66308907D01*
X129987844Y-66429395D01*
X130141205Y-66582756D01*
X130261693Y-66763080D01*
X130344689Y-66963451D01*
X130387000Y-67176160D01*
X130387000Y-67393040D01*
X130344689Y-67605749D01*
X130261693Y-67806120D01*
X130141205Y-67986444D01*
X129987844Y-68139805D01*
X129807520Y-68260293D01*
X129707334Y-68301791D01*
X129607150Y-68343289D01*
X129500795Y-68364444D01*
X129394440Y-68385600D01*
X129177560Y-68385600D01*
X129071205Y-68364444D01*
X128964850Y-68343289D01*
X128764480Y-68260293D01*
X128584156Y-68139805D01*
X128430795Y-67986444D01*
X128310307Y-67806120D01*
X128227311Y-67605749D01*
X128185000Y-67393040D01*
X128185000Y-67176160D01*
X128227311Y-66963451D01*
X128310307Y-66763080D01*
X128430795Y-66582756D01*
X128584156Y-66429395D01*
X128764480Y-66308907D01*
X128964850Y-66225911D01*
X129071206Y-66204755D01*
X129177560Y-66183600D01*
X129394440Y-66183600D01*
X129500794Y-66204755D01*
X129500794Y-66204755D01*
G37*
M02*
