M48
; DRILL file {KiCad (5.1.0-0)} date 2019 April 05, Friday 23:49:53
; FORMAT={-:-/ absolute / metric / decimal}
; #@! TF.CreationDate,2019-04-05T23:49:53+03:00
; #@! TF.GenerationSoftware,Kicad,Pcbnew,(5.1.0-0)
FMAT,2
METRIC
T1C0.400
T2C0.950
T3C1.000
T4C1.100
%
G90
G05
T1
X89.961Y-74.784
X91.999Y-76.276
X92.024Y-75.209
X93.091Y-76.276
X93.116Y-75.209
X94.234Y-85.096
X97.384Y-70.002
X102.552Y-72.39
X102.616Y-74.422
X112.735Y-83.757
X113.602Y-75.057
X117.919Y-71.374
X120.904Y-88.773
X120.98Y-80.899
X123.444Y-70.891
X125.501Y-70.891
X125.501Y-72.009
T2
X83.121Y-70.675
X83.121Y-73.175
X83.121Y-75.675
X83.121Y-78.175
X83.121Y-80.675
T4
X127.991Y-87.427
X127.991Y-89.967
X127.991Y-73.999
X127.991Y-76.539
X127.991Y-67.285
X127.991Y-69.825
X127.991Y-80.713
X127.991Y-83.253
T3
G00X90.63Y-83.312
M15
G01X92.63Y-83.312
M16
G05
G00X90.63Y-89.312
M15
G01X92.63Y-89.312
M16
G05
T0
M30
