G04 #@! TF.GenerationSoftware,KiCad,Pcbnew,(5.1.0-0)*
G04 #@! TF.CreationDate,2019-04-05T23:49:43+03:00*
G04 #@! TF.ProjectId,curtains-driver,63757274-6169-46e7-932d-647269766572,rev?*
G04 #@! TF.SameCoordinates,Original*
G04 #@! TF.FileFunction,Paste,Bot*
G04 #@! TF.FilePolarity,Positive*
%FSLAX46Y46*%
G04 Gerber Fmt 4.6, Leading zero omitted, Abs format (unit mm)*
G04 Created by KiCad (PCBNEW (5.1.0-0)) date 2019-04-05 23:49:43*
%MOMM*%
%LPD*%
G04 APERTURE LIST*
%ADD10C,0.150000*%
%ADD11C,0.100000*%
%ADD12C,1.150000*%
%ADD13C,1.425000*%
%ADD14R,1.100000X2.500000*%
%ADD15R,2.500000X1.100000*%
%ADD16R,1.500000X0.600000*%
G04 APERTURE END LIST*
D10*
X134000000Y-63754000D02*
X134000000Y-93500000D01*
X78968600Y-63754000D02*
X78968600Y-93472000D01*
X134000000Y-93500000D02*
X78968600Y-93472000D01*
X78968600Y-63754000D02*
X134000000Y-63754000D01*
D11*
G36*
X97858105Y-70943604D02*
G01*
X97882373Y-70947204D01*
X97906172Y-70953165D01*
X97929271Y-70961430D01*
X97951450Y-70971920D01*
X97972493Y-70984532D01*
X97992199Y-70999147D01*
X98010377Y-71015623D01*
X98026853Y-71033801D01*
X98041468Y-71053507D01*
X98054080Y-71074550D01*
X98064570Y-71096729D01*
X98072835Y-71119828D01*
X98078796Y-71143627D01*
X98082396Y-71167895D01*
X98083600Y-71192399D01*
X98083600Y-71842401D01*
X98082396Y-71866905D01*
X98078796Y-71891173D01*
X98072835Y-71914972D01*
X98064570Y-71938071D01*
X98054080Y-71960250D01*
X98041468Y-71981293D01*
X98026853Y-72000999D01*
X98010377Y-72019177D01*
X97992199Y-72035653D01*
X97972493Y-72050268D01*
X97951450Y-72062880D01*
X97929271Y-72073370D01*
X97906172Y-72081635D01*
X97882373Y-72087596D01*
X97858105Y-72091196D01*
X97833601Y-72092400D01*
X96933599Y-72092400D01*
X96909095Y-72091196D01*
X96884827Y-72087596D01*
X96861028Y-72081635D01*
X96837929Y-72073370D01*
X96815750Y-72062880D01*
X96794707Y-72050268D01*
X96775001Y-72035653D01*
X96756823Y-72019177D01*
X96740347Y-72000999D01*
X96725732Y-71981293D01*
X96713120Y-71960250D01*
X96702630Y-71938071D01*
X96694365Y-71914972D01*
X96688404Y-71891173D01*
X96684804Y-71866905D01*
X96683600Y-71842401D01*
X96683600Y-71192399D01*
X96684804Y-71167895D01*
X96688404Y-71143627D01*
X96694365Y-71119828D01*
X96702630Y-71096729D01*
X96713120Y-71074550D01*
X96725732Y-71053507D01*
X96740347Y-71033801D01*
X96756823Y-71015623D01*
X96775001Y-70999147D01*
X96794707Y-70984532D01*
X96815750Y-70971920D01*
X96837929Y-70961430D01*
X96861028Y-70953165D01*
X96884827Y-70947204D01*
X96909095Y-70943604D01*
X96933599Y-70942400D01*
X97833601Y-70942400D01*
X97858105Y-70943604D01*
X97858105Y-70943604D01*
G37*
D12*
X97383600Y-71517400D03*
D11*
G36*
X97858105Y-72993604D02*
G01*
X97882373Y-72997204D01*
X97906172Y-73003165D01*
X97929271Y-73011430D01*
X97951450Y-73021920D01*
X97972493Y-73034532D01*
X97992199Y-73049147D01*
X98010377Y-73065623D01*
X98026853Y-73083801D01*
X98041468Y-73103507D01*
X98054080Y-73124550D01*
X98064570Y-73146729D01*
X98072835Y-73169828D01*
X98078796Y-73193627D01*
X98082396Y-73217895D01*
X98083600Y-73242399D01*
X98083600Y-73892401D01*
X98082396Y-73916905D01*
X98078796Y-73941173D01*
X98072835Y-73964972D01*
X98064570Y-73988071D01*
X98054080Y-74010250D01*
X98041468Y-74031293D01*
X98026853Y-74050999D01*
X98010377Y-74069177D01*
X97992199Y-74085653D01*
X97972493Y-74100268D01*
X97951450Y-74112880D01*
X97929271Y-74123370D01*
X97906172Y-74131635D01*
X97882373Y-74137596D01*
X97858105Y-74141196D01*
X97833601Y-74142400D01*
X96933599Y-74142400D01*
X96909095Y-74141196D01*
X96884827Y-74137596D01*
X96861028Y-74131635D01*
X96837929Y-74123370D01*
X96815750Y-74112880D01*
X96794707Y-74100268D01*
X96775001Y-74085653D01*
X96756823Y-74069177D01*
X96740347Y-74050999D01*
X96725732Y-74031293D01*
X96713120Y-74010250D01*
X96702630Y-73988071D01*
X96694365Y-73964972D01*
X96688404Y-73941173D01*
X96684804Y-73916905D01*
X96683600Y-73892401D01*
X96683600Y-73242399D01*
X96684804Y-73217895D01*
X96688404Y-73193627D01*
X96694365Y-73169828D01*
X96702630Y-73146729D01*
X96713120Y-73124550D01*
X96725732Y-73103507D01*
X96740347Y-73083801D01*
X96756823Y-73065623D01*
X96775001Y-73049147D01*
X96794707Y-73034532D01*
X96815750Y-73021920D01*
X96837929Y-73011430D01*
X96861028Y-73003165D01*
X96884827Y-72997204D01*
X96909095Y-72993604D01*
X96933599Y-72992400D01*
X97833601Y-72992400D01*
X97858105Y-72993604D01*
X97858105Y-72993604D01*
G37*
D12*
X97383600Y-73567400D03*
D11*
G36*
X119394504Y-73675204D02*
G01*
X119418773Y-73678804D01*
X119442571Y-73684765D01*
X119465671Y-73693030D01*
X119487849Y-73703520D01*
X119508893Y-73716133D01*
X119528598Y-73730747D01*
X119546777Y-73747223D01*
X119563253Y-73765402D01*
X119577867Y-73785107D01*
X119590480Y-73806151D01*
X119600970Y-73828329D01*
X119609235Y-73851429D01*
X119615196Y-73875227D01*
X119618796Y-73899496D01*
X119620000Y-73924000D01*
X119620000Y-74849000D01*
X119618796Y-74873504D01*
X119615196Y-74897773D01*
X119609235Y-74921571D01*
X119600970Y-74944671D01*
X119590480Y-74966849D01*
X119577867Y-74987893D01*
X119563253Y-75007598D01*
X119546777Y-75025777D01*
X119528598Y-75042253D01*
X119508893Y-75056867D01*
X119487849Y-75069480D01*
X119465671Y-75079970D01*
X119442571Y-75088235D01*
X119418773Y-75094196D01*
X119394504Y-75097796D01*
X119370000Y-75099000D01*
X118120000Y-75099000D01*
X118095496Y-75097796D01*
X118071227Y-75094196D01*
X118047429Y-75088235D01*
X118024329Y-75079970D01*
X118002151Y-75069480D01*
X117981107Y-75056867D01*
X117961402Y-75042253D01*
X117943223Y-75025777D01*
X117926747Y-75007598D01*
X117912133Y-74987893D01*
X117899520Y-74966849D01*
X117889030Y-74944671D01*
X117880765Y-74921571D01*
X117874804Y-74897773D01*
X117871204Y-74873504D01*
X117870000Y-74849000D01*
X117870000Y-73924000D01*
X117871204Y-73899496D01*
X117874804Y-73875227D01*
X117880765Y-73851429D01*
X117889030Y-73828329D01*
X117899520Y-73806151D01*
X117912133Y-73785107D01*
X117926747Y-73765402D01*
X117943223Y-73747223D01*
X117961402Y-73730747D01*
X117981107Y-73716133D01*
X118002151Y-73703520D01*
X118024329Y-73693030D01*
X118047429Y-73684765D01*
X118071227Y-73678804D01*
X118095496Y-73675204D01*
X118120000Y-73674000D01*
X119370000Y-73674000D01*
X119394504Y-73675204D01*
X119394504Y-73675204D01*
G37*
D13*
X118745000Y-74386500D03*
D11*
G36*
X119394504Y-76650204D02*
G01*
X119418773Y-76653804D01*
X119442571Y-76659765D01*
X119465671Y-76668030D01*
X119487849Y-76678520D01*
X119508893Y-76691133D01*
X119528598Y-76705747D01*
X119546777Y-76722223D01*
X119563253Y-76740402D01*
X119577867Y-76760107D01*
X119590480Y-76781151D01*
X119600970Y-76803329D01*
X119609235Y-76826429D01*
X119615196Y-76850227D01*
X119618796Y-76874496D01*
X119620000Y-76899000D01*
X119620000Y-77824000D01*
X119618796Y-77848504D01*
X119615196Y-77872773D01*
X119609235Y-77896571D01*
X119600970Y-77919671D01*
X119590480Y-77941849D01*
X119577867Y-77962893D01*
X119563253Y-77982598D01*
X119546777Y-78000777D01*
X119528598Y-78017253D01*
X119508893Y-78031867D01*
X119487849Y-78044480D01*
X119465671Y-78054970D01*
X119442571Y-78063235D01*
X119418773Y-78069196D01*
X119394504Y-78072796D01*
X119370000Y-78074000D01*
X118120000Y-78074000D01*
X118095496Y-78072796D01*
X118071227Y-78069196D01*
X118047429Y-78063235D01*
X118024329Y-78054970D01*
X118002151Y-78044480D01*
X117981107Y-78031867D01*
X117961402Y-78017253D01*
X117943223Y-78000777D01*
X117926747Y-77982598D01*
X117912133Y-77962893D01*
X117899520Y-77941849D01*
X117889030Y-77919671D01*
X117880765Y-77896571D01*
X117874804Y-77872773D01*
X117871204Y-77848504D01*
X117870000Y-77824000D01*
X117870000Y-76899000D01*
X117871204Y-76874496D01*
X117874804Y-76850227D01*
X117880765Y-76826429D01*
X117889030Y-76803329D01*
X117899520Y-76781151D01*
X117912133Y-76760107D01*
X117926747Y-76740402D01*
X117943223Y-76722223D01*
X117961402Y-76705747D01*
X117981107Y-76691133D01*
X118002151Y-76678520D01*
X118024329Y-76668030D01*
X118047429Y-76659765D01*
X118071227Y-76653804D01*
X118095496Y-76650204D01*
X118120000Y-76649000D01*
X119370000Y-76649000D01*
X119394504Y-76650204D01*
X119394504Y-76650204D01*
G37*
D13*
X118745000Y-77361500D03*
D11*
G36*
X116411504Y-88758604D02*
G01*
X116435773Y-88762204D01*
X116459571Y-88768165D01*
X116482671Y-88776430D01*
X116504849Y-88786920D01*
X116525893Y-88799533D01*
X116545598Y-88814147D01*
X116563777Y-88830623D01*
X116580253Y-88848802D01*
X116594867Y-88868507D01*
X116607480Y-88889551D01*
X116617970Y-88911729D01*
X116626235Y-88934829D01*
X116632196Y-88958627D01*
X116635796Y-88982896D01*
X116637000Y-89007400D01*
X116637000Y-89932400D01*
X116635796Y-89956904D01*
X116632196Y-89981173D01*
X116626235Y-90004971D01*
X116617970Y-90028071D01*
X116607480Y-90050249D01*
X116594867Y-90071293D01*
X116580253Y-90090998D01*
X116563777Y-90109177D01*
X116545598Y-90125653D01*
X116525893Y-90140267D01*
X116504849Y-90152880D01*
X116482671Y-90163370D01*
X116459571Y-90171635D01*
X116435773Y-90177596D01*
X116411504Y-90181196D01*
X116387000Y-90182400D01*
X115137000Y-90182400D01*
X115112496Y-90181196D01*
X115088227Y-90177596D01*
X115064429Y-90171635D01*
X115041329Y-90163370D01*
X115019151Y-90152880D01*
X114998107Y-90140267D01*
X114978402Y-90125653D01*
X114960223Y-90109177D01*
X114943747Y-90090998D01*
X114929133Y-90071293D01*
X114916520Y-90050249D01*
X114906030Y-90028071D01*
X114897765Y-90004971D01*
X114891804Y-89981173D01*
X114888204Y-89956904D01*
X114887000Y-89932400D01*
X114887000Y-89007400D01*
X114888204Y-88982896D01*
X114891804Y-88958627D01*
X114897765Y-88934829D01*
X114906030Y-88911729D01*
X114916520Y-88889551D01*
X114929133Y-88868507D01*
X114943747Y-88848802D01*
X114960223Y-88830623D01*
X114978402Y-88814147D01*
X114998107Y-88799533D01*
X115019151Y-88786920D01*
X115041329Y-88776430D01*
X115064429Y-88768165D01*
X115088227Y-88762204D01*
X115112496Y-88758604D01*
X115137000Y-88757400D01*
X116387000Y-88757400D01*
X116411504Y-88758604D01*
X116411504Y-88758604D01*
G37*
D13*
X115762000Y-89469900D03*
D11*
G36*
X116411504Y-91733604D02*
G01*
X116435773Y-91737204D01*
X116459571Y-91743165D01*
X116482671Y-91751430D01*
X116504849Y-91761920D01*
X116525893Y-91774533D01*
X116545598Y-91789147D01*
X116563777Y-91805623D01*
X116580253Y-91823802D01*
X116594867Y-91843507D01*
X116607480Y-91864551D01*
X116617970Y-91886729D01*
X116626235Y-91909829D01*
X116632196Y-91933627D01*
X116635796Y-91957896D01*
X116637000Y-91982400D01*
X116637000Y-92907400D01*
X116635796Y-92931904D01*
X116632196Y-92956173D01*
X116626235Y-92979971D01*
X116617970Y-93003071D01*
X116607480Y-93025249D01*
X116594867Y-93046293D01*
X116580253Y-93065998D01*
X116563777Y-93084177D01*
X116545598Y-93100653D01*
X116525893Y-93115267D01*
X116504849Y-93127880D01*
X116482671Y-93138370D01*
X116459571Y-93146635D01*
X116435773Y-93152596D01*
X116411504Y-93156196D01*
X116387000Y-93157400D01*
X115137000Y-93157400D01*
X115112496Y-93156196D01*
X115088227Y-93152596D01*
X115064429Y-93146635D01*
X115041329Y-93138370D01*
X115019151Y-93127880D01*
X114998107Y-93115267D01*
X114978402Y-93100653D01*
X114960223Y-93084177D01*
X114943747Y-93065998D01*
X114929133Y-93046293D01*
X114916520Y-93025249D01*
X114906030Y-93003071D01*
X114897765Y-92979971D01*
X114891804Y-92956173D01*
X114888204Y-92931904D01*
X114887000Y-92907400D01*
X114887000Y-91982400D01*
X114888204Y-91957896D01*
X114891804Y-91933627D01*
X114897765Y-91909829D01*
X114906030Y-91886729D01*
X114916520Y-91864551D01*
X114929133Y-91843507D01*
X114943747Y-91823802D01*
X114960223Y-91805623D01*
X114978402Y-91789147D01*
X114998107Y-91774533D01*
X115019151Y-91761920D01*
X115041329Y-91751430D01*
X115064429Y-91743165D01*
X115088227Y-91737204D01*
X115112496Y-91733604D01*
X115137000Y-91732400D01*
X116387000Y-91732400D01*
X116411504Y-91733604D01*
X116411504Y-91733604D01*
G37*
D13*
X115762000Y-92444900D03*
D11*
G36*
X96098505Y-79971604D02*
G01*
X96122773Y-79975204D01*
X96146572Y-79981165D01*
X96169671Y-79989430D01*
X96191850Y-79999920D01*
X96212893Y-80012532D01*
X96232599Y-80027147D01*
X96250777Y-80043623D01*
X96267253Y-80061801D01*
X96281868Y-80081507D01*
X96294480Y-80102550D01*
X96304970Y-80124729D01*
X96313235Y-80147828D01*
X96319196Y-80171627D01*
X96322796Y-80195895D01*
X96324000Y-80220399D01*
X96324000Y-81120401D01*
X96322796Y-81144905D01*
X96319196Y-81169173D01*
X96313235Y-81192972D01*
X96304970Y-81216071D01*
X96294480Y-81238250D01*
X96281868Y-81259293D01*
X96267253Y-81278999D01*
X96250777Y-81297177D01*
X96232599Y-81313653D01*
X96212893Y-81328268D01*
X96191850Y-81340880D01*
X96169671Y-81351370D01*
X96146572Y-81359635D01*
X96122773Y-81365596D01*
X96098505Y-81369196D01*
X96074001Y-81370400D01*
X95423999Y-81370400D01*
X95399495Y-81369196D01*
X95375227Y-81365596D01*
X95351428Y-81359635D01*
X95328329Y-81351370D01*
X95306150Y-81340880D01*
X95285107Y-81328268D01*
X95265401Y-81313653D01*
X95247223Y-81297177D01*
X95230747Y-81278999D01*
X95216132Y-81259293D01*
X95203520Y-81238250D01*
X95193030Y-81216071D01*
X95184765Y-81192972D01*
X95178804Y-81169173D01*
X95175204Y-81144905D01*
X95174000Y-81120401D01*
X95174000Y-80220399D01*
X95175204Y-80195895D01*
X95178804Y-80171627D01*
X95184765Y-80147828D01*
X95193030Y-80124729D01*
X95203520Y-80102550D01*
X95216132Y-80081507D01*
X95230747Y-80061801D01*
X95247223Y-80043623D01*
X95265401Y-80027147D01*
X95285107Y-80012532D01*
X95306150Y-79999920D01*
X95328329Y-79989430D01*
X95351428Y-79981165D01*
X95375227Y-79975204D01*
X95399495Y-79971604D01*
X95423999Y-79970400D01*
X96074001Y-79970400D01*
X96098505Y-79971604D01*
X96098505Y-79971604D01*
G37*
D12*
X95749000Y-80670400D03*
D11*
G36*
X98148505Y-79971604D02*
G01*
X98172773Y-79975204D01*
X98196572Y-79981165D01*
X98219671Y-79989430D01*
X98241850Y-79999920D01*
X98262893Y-80012532D01*
X98282599Y-80027147D01*
X98300777Y-80043623D01*
X98317253Y-80061801D01*
X98331868Y-80081507D01*
X98344480Y-80102550D01*
X98354970Y-80124729D01*
X98363235Y-80147828D01*
X98369196Y-80171627D01*
X98372796Y-80195895D01*
X98374000Y-80220399D01*
X98374000Y-81120401D01*
X98372796Y-81144905D01*
X98369196Y-81169173D01*
X98363235Y-81192972D01*
X98354970Y-81216071D01*
X98344480Y-81238250D01*
X98331868Y-81259293D01*
X98317253Y-81278999D01*
X98300777Y-81297177D01*
X98282599Y-81313653D01*
X98262893Y-81328268D01*
X98241850Y-81340880D01*
X98219671Y-81351370D01*
X98196572Y-81359635D01*
X98172773Y-81365596D01*
X98148505Y-81369196D01*
X98124001Y-81370400D01*
X97473999Y-81370400D01*
X97449495Y-81369196D01*
X97425227Y-81365596D01*
X97401428Y-81359635D01*
X97378329Y-81351370D01*
X97356150Y-81340880D01*
X97335107Y-81328268D01*
X97315401Y-81313653D01*
X97297223Y-81297177D01*
X97280747Y-81278999D01*
X97266132Y-81259293D01*
X97253520Y-81238250D01*
X97243030Y-81216071D01*
X97234765Y-81192972D01*
X97228804Y-81169173D01*
X97225204Y-81144905D01*
X97224000Y-81120401D01*
X97224000Y-80220399D01*
X97225204Y-80195895D01*
X97228804Y-80171627D01*
X97234765Y-80147828D01*
X97243030Y-80124729D01*
X97253520Y-80102550D01*
X97266132Y-80081507D01*
X97280747Y-80061801D01*
X97297223Y-80043623D01*
X97315401Y-80027147D01*
X97335107Y-80012532D01*
X97356150Y-79999920D01*
X97378329Y-79989430D01*
X97401428Y-79981165D01*
X97425227Y-79975204D01*
X97449495Y-79971604D01*
X97473999Y-79970400D01*
X98124001Y-79970400D01*
X98148505Y-79971604D01*
X98148505Y-79971604D01*
G37*
D12*
X97799000Y-80670400D03*
D11*
G36*
X98148505Y-81970604D02*
G01*
X98172773Y-81974204D01*
X98196572Y-81980165D01*
X98219671Y-81988430D01*
X98241850Y-81998920D01*
X98262893Y-82011532D01*
X98282599Y-82026147D01*
X98300777Y-82042623D01*
X98317253Y-82060801D01*
X98331868Y-82080507D01*
X98344480Y-82101550D01*
X98354970Y-82123729D01*
X98363235Y-82146828D01*
X98369196Y-82170627D01*
X98372796Y-82194895D01*
X98374000Y-82219399D01*
X98374000Y-83119401D01*
X98372796Y-83143905D01*
X98369196Y-83168173D01*
X98363235Y-83191972D01*
X98354970Y-83215071D01*
X98344480Y-83237250D01*
X98331868Y-83258293D01*
X98317253Y-83277999D01*
X98300777Y-83296177D01*
X98282599Y-83312653D01*
X98262893Y-83327268D01*
X98241850Y-83339880D01*
X98219671Y-83350370D01*
X98196572Y-83358635D01*
X98172773Y-83364596D01*
X98148505Y-83368196D01*
X98124001Y-83369400D01*
X97473999Y-83369400D01*
X97449495Y-83368196D01*
X97425227Y-83364596D01*
X97401428Y-83358635D01*
X97378329Y-83350370D01*
X97356150Y-83339880D01*
X97335107Y-83327268D01*
X97315401Y-83312653D01*
X97297223Y-83296177D01*
X97280747Y-83277999D01*
X97266132Y-83258293D01*
X97253520Y-83237250D01*
X97243030Y-83215071D01*
X97234765Y-83191972D01*
X97228804Y-83168173D01*
X97225204Y-83143905D01*
X97224000Y-83119401D01*
X97224000Y-82219399D01*
X97225204Y-82194895D01*
X97228804Y-82170627D01*
X97234765Y-82146828D01*
X97243030Y-82123729D01*
X97253520Y-82101550D01*
X97266132Y-82080507D01*
X97280747Y-82060801D01*
X97297223Y-82042623D01*
X97315401Y-82026147D01*
X97335107Y-82011532D01*
X97356150Y-81998920D01*
X97378329Y-81988430D01*
X97401428Y-81980165D01*
X97425227Y-81974204D01*
X97449495Y-81970604D01*
X97473999Y-81969400D01*
X98124001Y-81969400D01*
X98148505Y-81970604D01*
X98148505Y-81970604D01*
G37*
D12*
X97799000Y-82669400D03*
D11*
G36*
X96098505Y-81970604D02*
G01*
X96122773Y-81974204D01*
X96146572Y-81980165D01*
X96169671Y-81988430D01*
X96191850Y-81998920D01*
X96212893Y-82011532D01*
X96232599Y-82026147D01*
X96250777Y-82042623D01*
X96267253Y-82060801D01*
X96281868Y-82080507D01*
X96294480Y-82101550D01*
X96304970Y-82123729D01*
X96313235Y-82146828D01*
X96319196Y-82170627D01*
X96322796Y-82194895D01*
X96324000Y-82219399D01*
X96324000Y-83119401D01*
X96322796Y-83143905D01*
X96319196Y-83168173D01*
X96313235Y-83191972D01*
X96304970Y-83215071D01*
X96294480Y-83237250D01*
X96281868Y-83258293D01*
X96267253Y-83277999D01*
X96250777Y-83296177D01*
X96232599Y-83312653D01*
X96212893Y-83327268D01*
X96191850Y-83339880D01*
X96169671Y-83350370D01*
X96146572Y-83358635D01*
X96122773Y-83364596D01*
X96098505Y-83368196D01*
X96074001Y-83369400D01*
X95423999Y-83369400D01*
X95399495Y-83368196D01*
X95375227Y-83364596D01*
X95351428Y-83358635D01*
X95328329Y-83350370D01*
X95306150Y-83339880D01*
X95285107Y-83327268D01*
X95265401Y-83312653D01*
X95247223Y-83296177D01*
X95230747Y-83277999D01*
X95216132Y-83258293D01*
X95203520Y-83237250D01*
X95193030Y-83215071D01*
X95184765Y-83191972D01*
X95178804Y-83168173D01*
X95175204Y-83143905D01*
X95174000Y-83119401D01*
X95174000Y-82219399D01*
X95175204Y-82194895D01*
X95178804Y-82170627D01*
X95184765Y-82146828D01*
X95193030Y-82123729D01*
X95203520Y-82101550D01*
X95216132Y-82080507D01*
X95230747Y-82060801D01*
X95247223Y-82042623D01*
X95265401Y-82026147D01*
X95285107Y-82011532D01*
X95306150Y-81998920D01*
X95328329Y-81988430D01*
X95351428Y-81980165D01*
X95375227Y-81974204D01*
X95399495Y-81970604D01*
X95423999Y-81969400D01*
X96074001Y-81969400D01*
X96098505Y-81970604D01*
X96098505Y-81970604D01*
G37*
D12*
X95749000Y-82669400D03*
D11*
G36*
X96098505Y-83970604D02*
G01*
X96122773Y-83974204D01*
X96146572Y-83980165D01*
X96169671Y-83988430D01*
X96191850Y-83998920D01*
X96212893Y-84011532D01*
X96232599Y-84026147D01*
X96250777Y-84042623D01*
X96267253Y-84060801D01*
X96281868Y-84080507D01*
X96294480Y-84101550D01*
X96304970Y-84123729D01*
X96313235Y-84146828D01*
X96319196Y-84170627D01*
X96322796Y-84194895D01*
X96324000Y-84219399D01*
X96324000Y-85119401D01*
X96322796Y-85143905D01*
X96319196Y-85168173D01*
X96313235Y-85191972D01*
X96304970Y-85215071D01*
X96294480Y-85237250D01*
X96281868Y-85258293D01*
X96267253Y-85277999D01*
X96250777Y-85296177D01*
X96232599Y-85312653D01*
X96212893Y-85327268D01*
X96191850Y-85339880D01*
X96169671Y-85350370D01*
X96146572Y-85358635D01*
X96122773Y-85364596D01*
X96098505Y-85368196D01*
X96074001Y-85369400D01*
X95423999Y-85369400D01*
X95399495Y-85368196D01*
X95375227Y-85364596D01*
X95351428Y-85358635D01*
X95328329Y-85350370D01*
X95306150Y-85339880D01*
X95285107Y-85327268D01*
X95265401Y-85312653D01*
X95247223Y-85296177D01*
X95230747Y-85277999D01*
X95216132Y-85258293D01*
X95203520Y-85237250D01*
X95193030Y-85215071D01*
X95184765Y-85191972D01*
X95178804Y-85168173D01*
X95175204Y-85143905D01*
X95174000Y-85119401D01*
X95174000Y-84219399D01*
X95175204Y-84194895D01*
X95178804Y-84170627D01*
X95184765Y-84146828D01*
X95193030Y-84123729D01*
X95203520Y-84101550D01*
X95216132Y-84080507D01*
X95230747Y-84060801D01*
X95247223Y-84042623D01*
X95265401Y-84026147D01*
X95285107Y-84011532D01*
X95306150Y-83998920D01*
X95328329Y-83988430D01*
X95351428Y-83980165D01*
X95375227Y-83974204D01*
X95399495Y-83970604D01*
X95423999Y-83969400D01*
X96074001Y-83969400D01*
X96098505Y-83970604D01*
X96098505Y-83970604D01*
G37*
D12*
X95749000Y-84669400D03*
D11*
G36*
X98148505Y-83970604D02*
G01*
X98172773Y-83974204D01*
X98196572Y-83980165D01*
X98219671Y-83988430D01*
X98241850Y-83998920D01*
X98262893Y-84011532D01*
X98282599Y-84026147D01*
X98300777Y-84042623D01*
X98317253Y-84060801D01*
X98331868Y-84080507D01*
X98344480Y-84101550D01*
X98354970Y-84123729D01*
X98363235Y-84146828D01*
X98369196Y-84170627D01*
X98372796Y-84194895D01*
X98374000Y-84219399D01*
X98374000Y-85119401D01*
X98372796Y-85143905D01*
X98369196Y-85168173D01*
X98363235Y-85191972D01*
X98354970Y-85215071D01*
X98344480Y-85237250D01*
X98331868Y-85258293D01*
X98317253Y-85277999D01*
X98300777Y-85296177D01*
X98282599Y-85312653D01*
X98262893Y-85327268D01*
X98241850Y-85339880D01*
X98219671Y-85350370D01*
X98196572Y-85358635D01*
X98172773Y-85364596D01*
X98148505Y-85368196D01*
X98124001Y-85369400D01*
X97473999Y-85369400D01*
X97449495Y-85368196D01*
X97425227Y-85364596D01*
X97401428Y-85358635D01*
X97378329Y-85350370D01*
X97356150Y-85339880D01*
X97335107Y-85327268D01*
X97315401Y-85312653D01*
X97297223Y-85296177D01*
X97280747Y-85277999D01*
X97266132Y-85258293D01*
X97253520Y-85237250D01*
X97243030Y-85215071D01*
X97234765Y-85191972D01*
X97228804Y-85168173D01*
X97225204Y-85143905D01*
X97224000Y-85119401D01*
X97224000Y-84219399D01*
X97225204Y-84194895D01*
X97228804Y-84170627D01*
X97234765Y-84146828D01*
X97243030Y-84123729D01*
X97253520Y-84101550D01*
X97266132Y-84080507D01*
X97280747Y-84060801D01*
X97297223Y-84042623D01*
X97315401Y-84026147D01*
X97335107Y-84011532D01*
X97356150Y-83998920D01*
X97378329Y-83988430D01*
X97401428Y-83980165D01*
X97425227Y-83974204D01*
X97449495Y-83970604D01*
X97473999Y-83969400D01*
X98124001Y-83969400D01*
X98148505Y-83970604D01*
X98148505Y-83970604D01*
G37*
D12*
X97799000Y-84669400D03*
D11*
G36*
X125823505Y-90367204D02*
G01*
X125847773Y-90370804D01*
X125871572Y-90376765D01*
X125894671Y-90385030D01*
X125916850Y-90395520D01*
X125937893Y-90408132D01*
X125957599Y-90422747D01*
X125975777Y-90439223D01*
X125992253Y-90457401D01*
X126006868Y-90477107D01*
X126019480Y-90498150D01*
X126029970Y-90520329D01*
X126038235Y-90543428D01*
X126044196Y-90567227D01*
X126047796Y-90591495D01*
X126049000Y-90615999D01*
X126049000Y-91266001D01*
X126047796Y-91290505D01*
X126044196Y-91314773D01*
X126038235Y-91338572D01*
X126029970Y-91361671D01*
X126019480Y-91383850D01*
X126006868Y-91404893D01*
X125992253Y-91424599D01*
X125975777Y-91442777D01*
X125957599Y-91459253D01*
X125937893Y-91473868D01*
X125916850Y-91486480D01*
X125894671Y-91496970D01*
X125871572Y-91505235D01*
X125847773Y-91511196D01*
X125823505Y-91514796D01*
X125799001Y-91516000D01*
X124898999Y-91516000D01*
X124874495Y-91514796D01*
X124850227Y-91511196D01*
X124826428Y-91505235D01*
X124803329Y-91496970D01*
X124781150Y-91486480D01*
X124760107Y-91473868D01*
X124740401Y-91459253D01*
X124722223Y-91442777D01*
X124705747Y-91424599D01*
X124691132Y-91404893D01*
X124678520Y-91383850D01*
X124668030Y-91361671D01*
X124659765Y-91338572D01*
X124653804Y-91314773D01*
X124650204Y-91290505D01*
X124649000Y-91266001D01*
X124649000Y-90615999D01*
X124650204Y-90591495D01*
X124653804Y-90567227D01*
X124659765Y-90543428D01*
X124668030Y-90520329D01*
X124678520Y-90498150D01*
X124691132Y-90477107D01*
X124705747Y-90457401D01*
X124722223Y-90439223D01*
X124740401Y-90422747D01*
X124760107Y-90408132D01*
X124781150Y-90395520D01*
X124803329Y-90385030D01*
X124826428Y-90376765D01*
X124850227Y-90370804D01*
X124874495Y-90367204D01*
X124898999Y-90366000D01*
X125799001Y-90366000D01*
X125823505Y-90367204D01*
X125823505Y-90367204D01*
G37*
D12*
X125349000Y-90941000D03*
D11*
G36*
X125823505Y-88317204D02*
G01*
X125847773Y-88320804D01*
X125871572Y-88326765D01*
X125894671Y-88335030D01*
X125916850Y-88345520D01*
X125937893Y-88358132D01*
X125957599Y-88372747D01*
X125975777Y-88389223D01*
X125992253Y-88407401D01*
X126006868Y-88427107D01*
X126019480Y-88448150D01*
X126029970Y-88470329D01*
X126038235Y-88493428D01*
X126044196Y-88517227D01*
X126047796Y-88541495D01*
X126049000Y-88565999D01*
X126049000Y-89216001D01*
X126047796Y-89240505D01*
X126044196Y-89264773D01*
X126038235Y-89288572D01*
X126029970Y-89311671D01*
X126019480Y-89333850D01*
X126006868Y-89354893D01*
X125992253Y-89374599D01*
X125975777Y-89392777D01*
X125957599Y-89409253D01*
X125937893Y-89423868D01*
X125916850Y-89436480D01*
X125894671Y-89446970D01*
X125871572Y-89455235D01*
X125847773Y-89461196D01*
X125823505Y-89464796D01*
X125799001Y-89466000D01*
X124898999Y-89466000D01*
X124874495Y-89464796D01*
X124850227Y-89461196D01*
X124826428Y-89455235D01*
X124803329Y-89446970D01*
X124781150Y-89436480D01*
X124760107Y-89423868D01*
X124740401Y-89409253D01*
X124722223Y-89392777D01*
X124705747Y-89374599D01*
X124691132Y-89354893D01*
X124678520Y-89333850D01*
X124668030Y-89311671D01*
X124659765Y-89288572D01*
X124653804Y-89264773D01*
X124650204Y-89240505D01*
X124649000Y-89216001D01*
X124649000Y-88565999D01*
X124650204Y-88541495D01*
X124653804Y-88517227D01*
X124659765Y-88493428D01*
X124668030Y-88470329D01*
X124678520Y-88448150D01*
X124691132Y-88427107D01*
X124705747Y-88407401D01*
X124722223Y-88389223D01*
X124740401Y-88372747D01*
X124760107Y-88358132D01*
X124781150Y-88345520D01*
X124803329Y-88335030D01*
X124826428Y-88326765D01*
X124850227Y-88320804D01*
X124874495Y-88317204D01*
X124898999Y-88316000D01*
X125799001Y-88316000D01*
X125823505Y-88317204D01*
X125823505Y-88317204D01*
G37*
D12*
X125349000Y-88891000D03*
D11*
G36*
X125823505Y-78014870D02*
G01*
X125847773Y-78018470D01*
X125871572Y-78024431D01*
X125894671Y-78032696D01*
X125916850Y-78043186D01*
X125937893Y-78055798D01*
X125957599Y-78070413D01*
X125975777Y-78086889D01*
X125992253Y-78105067D01*
X126006868Y-78124773D01*
X126019480Y-78145816D01*
X126029970Y-78167995D01*
X126038235Y-78191094D01*
X126044196Y-78214893D01*
X126047796Y-78239161D01*
X126049000Y-78263665D01*
X126049000Y-78913667D01*
X126047796Y-78938171D01*
X126044196Y-78962439D01*
X126038235Y-78986238D01*
X126029970Y-79009337D01*
X126019480Y-79031516D01*
X126006868Y-79052559D01*
X125992253Y-79072265D01*
X125975777Y-79090443D01*
X125957599Y-79106919D01*
X125937893Y-79121534D01*
X125916850Y-79134146D01*
X125894671Y-79144636D01*
X125871572Y-79152901D01*
X125847773Y-79158862D01*
X125823505Y-79162462D01*
X125799001Y-79163666D01*
X124898999Y-79163666D01*
X124874495Y-79162462D01*
X124850227Y-79158862D01*
X124826428Y-79152901D01*
X124803329Y-79144636D01*
X124781150Y-79134146D01*
X124760107Y-79121534D01*
X124740401Y-79106919D01*
X124722223Y-79090443D01*
X124705747Y-79072265D01*
X124691132Y-79052559D01*
X124678520Y-79031516D01*
X124668030Y-79009337D01*
X124659765Y-78986238D01*
X124653804Y-78962439D01*
X124650204Y-78938171D01*
X124649000Y-78913667D01*
X124649000Y-78263665D01*
X124650204Y-78239161D01*
X124653804Y-78214893D01*
X124659765Y-78191094D01*
X124668030Y-78167995D01*
X124678520Y-78145816D01*
X124691132Y-78124773D01*
X124705747Y-78105067D01*
X124722223Y-78086889D01*
X124740401Y-78070413D01*
X124760107Y-78055798D01*
X124781150Y-78043186D01*
X124803329Y-78032696D01*
X124826428Y-78024431D01*
X124850227Y-78018470D01*
X124874495Y-78014870D01*
X124898999Y-78013666D01*
X125799001Y-78013666D01*
X125823505Y-78014870D01*
X125823505Y-78014870D01*
G37*
D12*
X125349000Y-78588666D03*
D11*
G36*
X125823505Y-75964870D02*
G01*
X125847773Y-75968470D01*
X125871572Y-75974431D01*
X125894671Y-75982696D01*
X125916850Y-75993186D01*
X125937893Y-76005798D01*
X125957599Y-76020413D01*
X125975777Y-76036889D01*
X125992253Y-76055067D01*
X126006868Y-76074773D01*
X126019480Y-76095816D01*
X126029970Y-76117995D01*
X126038235Y-76141094D01*
X126044196Y-76164893D01*
X126047796Y-76189161D01*
X126049000Y-76213665D01*
X126049000Y-76863667D01*
X126047796Y-76888171D01*
X126044196Y-76912439D01*
X126038235Y-76936238D01*
X126029970Y-76959337D01*
X126019480Y-76981516D01*
X126006868Y-77002559D01*
X125992253Y-77022265D01*
X125975777Y-77040443D01*
X125957599Y-77056919D01*
X125937893Y-77071534D01*
X125916850Y-77084146D01*
X125894671Y-77094636D01*
X125871572Y-77102901D01*
X125847773Y-77108862D01*
X125823505Y-77112462D01*
X125799001Y-77113666D01*
X124898999Y-77113666D01*
X124874495Y-77112462D01*
X124850227Y-77108862D01*
X124826428Y-77102901D01*
X124803329Y-77094636D01*
X124781150Y-77084146D01*
X124760107Y-77071534D01*
X124740401Y-77056919D01*
X124722223Y-77040443D01*
X124705747Y-77022265D01*
X124691132Y-77002559D01*
X124678520Y-76981516D01*
X124668030Y-76959337D01*
X124659765Y-76936238D01*
X124653804Y-76912439D01*
X124650204Y-76888171D01*
X124649000Y-76863667D01*
X124649000Y-76213665D01*
X124650204Y-76189161D01*
X124653804Y-76164893D01*
X124659765Y-76141094D01*
X124668030Y-76117995D01*
X124678520Y-76095816D01*
X124691132Y-76074773D01*
X124705747Y-76055067D01*
X124722223Y-76036889D01*
X124740401Y-76020413D01*
X124760107Y-76005798D01*
X124781150Y-75993186D01*
X124803329Y-75982696D01*
X124826428Y-75974431D01*
X124850227Y-75968470D01*
X124874495Y-75964870D01*
X124898999Y-75963666D01*
X125799001Y-75963666D01*
X125823505Y-75964870D01*
X125823505Y-75964870D01*
G37*
D12*
X125349000Y-76538666D03*
D11*
G36*
X123918505Y-75964870D02*
G01*
X123942773Y-75968470D01*
X123966572Y-75974431D01*
X123989671Y-75982696D01*
X124011850Y-75993186D01*
X124032893Y-76005798D01*
X124052599Y-76020413D01*
X124070777Y-76036889D01*
X124087253Y-76055067D01*
X124101868Y-76074773D01*
X124114480Y-76095816D01*
X124124970Y-76117995D01*
X124133235Y-76141094D01*
X124139196Y-76164893D01*
X124142796Y-76189161D01*
X124144000Y-76213665D01*
X124144000Y-76863667D01*
X124142796Y-76888171D01*
X124139196Y-76912439D01*
X124133235Y-76936238D01*
X124124970Y-76959337D01*
X124114480Y-76981516D01*
X124101868Y-77002559D01*
X124087253Y-77022265D01*
X124070777Y-77040443D01*
X124052599Y-77056919D01*
X124032893Y-77071534D01*
X124011850Y-77084146D01*
X123989671Y-77094636D01*
X123966572Y-77102901D01*
X123942773Y-77108862D01*
X123918505Y-77112462D01*
X123894001Y-77113666D01*
X122993999Y-77113666D01*
X122969495Y-77112462D01*
X122945227Y-77108862D01*
X122921428Y-77102901D01*
X122898329Y-77094636D01*
X122876150Y-77084146D01*
X122855107Y-77071534D01*
X122835401Y-77056919D01*
X122817223Y-77040443D01*
X122800747Y-77022265D01*
X122786132Y-77002559D01*
X122773520Y-76981516D01*
X122763030Y-76959337D01*
X122754765Y-76936238D01*
X122748804Y-76912439D01*
X122745204Y-76888171D01*
X122744000Y-76863667D01*
X122744000Y-76213665D01*
X122745204Y-76189161D01*
X122748804Y-76164893D01*
X122754765Y-76141094D01*
X122763030Y-76117995D01*
X122773520Y-76095816D01*
X122786132Y-76074773D01*
X122800747Y-76055067D01*
X122817223Y-76036889D01*
X122835401Y-76020413D01*
X122855107Y-76005798D01*
X122876150Y-75993186D01*
X122898329Y-75982696D01*
X122921428Y-75974431D01*
X122945227Y-75968470D01*
X122969495Y-75964870D01*
X122993999Y-75963666D01*
X123894001Y-75963666D01*
X123918505Y-75964870D01*
X123918505Y-75964870D01*
G37*
D12*
X123444000Y-76538666D03*
D11*
G36*
X123918505Y-78014870D02*
G01*
X123942773Y-78018470D01*
X123966572Y-78024431D01*
X123989671Y-78032696D01*
X124011850Y-78043186D01*
X124032893Y-78055798D01*
X124052599Y-78070413D01*
X124070777Y-78086889D01*
X124087253Y-78105067D01*
X124101868Y-78124773D01*
X124114480Y-78145816D01*
X124124970Y-78167995D01*
X124133235Y-78191094D01*
X124139196Y-78214893D01*
X124142796Y-78239161D01*
X124144000Y-78263665D01*
X124144000Y-78913667D01*
X124142796Y-78938171D01*
X124139196Y-78962439D01*
X124133235Y-78986238D01*
X124124970Y-79009337D01*
X124114480Y-79031516D01*
X124101868Y-79052559D01*
X124087253Y-79072265D01*
X124070777Y-79090443D01*
X124052599Y-79106919D01*
X124032893Y-79121534D01*
X124011850Y-79134146D01*
X123989671Y-79144636D01*
X123966572Y-79152901D01*
X123942773Y-79158862D01*
X123918505Y-79162462D01*
X123894001Y-79163666D01*
X122993999Y-79163666D01*
X122969495Y-79162462D01*
X122945227Y-79158862D01*
X122921428Y-79152901D01*
X122898329Y-79144636D01*
X122876150Y-79134146D01*
X122855107Y-79121534D01*
X122835401Y-79106919D01*
X122817223Y-79090443D01*
X122800747Y-79072265D01*
X122786132Y-79052559D01*
X122773520Y-79031516D01*
X122763030Y-79009337D01*
X122754765Y-78986238D01*
X122748804Y-78962439D01*
X122745204Y-78938171D01*
X122744000Y-78913667D01*
X122744000Y-78263665D01*
X122745204Y-78239161D01*
X122748804Y-78214893D01*
X122754765Y-78191094D01*
X122763030Y-78167995D01*
X122773520Y-78145816D01*
X122786132Y-78124773D01*
X122800747Y-78105067D01*
X122817223Y-78086889D01*
X122835401Y-78070413D01*
X122855107Y-78055798D01*
X122876150Y-78043186D01*
X122898329Y-78032696D01*
X122921428Y-78024431D01*
X122945227Y-78018470D01*
X122969495Y-78014870D01*
X122993999Y-78013666D01*
X123894001Y-78013666D01*
X123918505Y-78014870D01*
X123918505Y-78014870D01*
G37*
D12*
X123444000Y-78588666D03*
D11*
G36*
X120108505Y-71812704D02*
G01*
X120132773Y-71816304D01*
X120156572Y-71822265D01*
X120179671Y-71830530D01*
X120201850Y-71841020D01*
X120222893Y-71853632D01*
X120242599Y-71868247D01*
X120260777Y-71884723D01*
X120277253Y-71902901D01*
X120291868Y-71922607D01*
X120304480Y-71943650D01*
X120314970Y-71965829D01*
X120323235Y-71988928D01*
X120329196Y-72012727D01*
X120332796Y-72036995D01*
X120334000Y-72061499D01*
X120334000Y-72711501D01*
X120332796Y-72736005D01*
X120329196Y-72760273D01*
X120323235Y-72784072D01*
X120314970Y-72807171D01*
X120304480Y-72829350D01*
X120291868Y-72850393D01*
X120277253Y-72870099D01*
X120260777Y-72888277D01*
X120242599Y-72904753D01*
X120222893Y-72919368D01*
X120201850Y-72931980D01*
X120179671Y-72942470D01*
X120156572Y-72950735D01*
X120132773Y-72956696D01*
X120108505Y-72960296D01*
X120084001Y-72961500D01*
X119183999Y-72961500D01*
X119159495Y-72960296D01*
X119135227Y-72956696D01*
X119111428Y-72950735D01*
X119088329Y-72942470D01*
X119066150Y-72931980D01*
X119045107Y-72919368D01*
X119025401Y-72904753D01*
X119007223Y-72888277D01*
X118990747Y-72870099D01*
X118976132Y-72850393D01*
X118963520Y-72829350D01*
X118953030Y-72807171D01*
X118944765Y-72784072D01*
X118938804Y-72760273D01*
X118935204Y-72736005D01*
X118934000Y-72711501D01*
X118934000Y-72061499D01*
X118935204Y-72036995D01*
X118938804Y-72012727D01*
X118944765Y-71988928D01*
X118953030Y-71965829D01*
X118963520Y-71943650D01*
X118976132Y-71922607D01*
X118990747Y-71902901D01*
X119007223Y-71884723D01*
X119025401Y-71868247D01*
X119045107Y-71853632D01*
X119066150Y-71841020D01*
X119088329Y-71830530D01*
X119111428Y-71822265D01*
X119135227Y-71816304D01*
X119159495Y-71812704D01*
X119183999Y-71811500D01*
X120084001Y-71811500D01*
X120108505Y-71812704D01*
X120108505Y-71812704D01*
G37*
D12*
X119634000Y-72386500D03*
D11*
G36*
X120108505Y-69762704D02*
G01*
X120132773Y-69766304D01*
X120156572Y-69772265D01*
X120179671Y-69780530D01*
X120201850Y-69791020D01*
X120222893Y-69803632D01*
X120242599Y-69818247D01*
X120260777Y-69834723D01*
X120277253Y-69852901D01*
X120291868Y-69872607D01*
X120304480Y-69893650D01*
X120314970Y-69915829D01*
X120323235Y-69938928D01*
X120329196Y-69962727D01*
X120332796Y-69986995D01*
X120334000Y-70011499D01*
X120334000Y-70661501D01*
X120332796Y-70686005D01*
X120329196Y-70710273D01*
X120323235Y-70734072D01*
X120314970Y-70757171D01*
X120304480Y-70779350D01*
X120291868Y-70800393D01*
X120277253Y-70820099D01*
X120260777Y-70838277D01*
X120242599Y-70854753D01*
X120222893Y-70869368D01*
X120201850Y-70881980D01*
X120179671Y-70892470D01*
X120156572Y-70900735D01*
X120132773Y-70906696D01*
X120108505Y-70910296D01*
X120084001Y-70911500D01*
X119183999Y-70911500D01*
X119159495Y-70910296D01*
X119135227Y-70906696D01*
X119111428Y-70900735D01*
X119088329Y-70892470D01*
X119066150Y-70881980D01*
X119045107Y-70869368D01*
X119025401Y-70854753D01*
X119007223Y-70838277D01*
X118990747Y-70820099D01*
X118976132Y-70800393D01*
X118963520Y-70779350D01*
X118953030Y-70757171D01*
X118944765Y-70734072D01*
X118938804Y-70710273D01*
X118935204Y-70686005D01*
X118934000Y-70661501D01*
X118934000Y-70011499D01*
X118935204Y-69986995D01*
X118938804Y-69962727D01*
X118944765Y-69938928D01*
X118953030Y-69915829D01*
X118963520Y-69893650D01*
X118976132Y-69872607D01*
X118990747Y-69852901D01*
X119007223Y-69834723D01*
X119025401Y-69818247D01*
X119045107Y-69803632D01*
X119066150Y-69791020D01*
X119088329Y-69780530D01*
X119111428Y-69772265D01*
X119135227Y-69766304D01*
X119159495Y-69762704D01*
X119183999Y-69761500D01*
X120084001Y-69761500D01*
X120108505Y-69762704D01*
X120108505Y-69762704D01*
G37*
D12*
X119634000Y-70336500D03*
D11*
G36*
X122013505Y-71762704D02*
G01*
X122037773Y-71766304D01*
X122061572Y-71772265D01*
X122084671Y-71780530D01*
X122106850Y-71791020D01*
X122127893Y-71803632D01*
X122147599Y-71818247D01*
X122165777Y-71834723D01*
X122182253Y-71852901D01*
X122196868Y-71872607D01*
X122209480Y-71893650D01*
X122219970Y-71915829D01*
X122228235Y-71938928D01*
X122234196Y-71962727D01*
X122237796Y-71986995D01*
X122239000Y-72011499D01*
X122239000Y-72661501D01*
X122237796Y-72686005D01*
X122234196Y-72710273D01*
X122228235Y-72734072D01*
X122219970Y-72757171D01*
X122209480Y-72779350D01*
X122196868Y-72800393D01*
X122182253Y-72820099D01*
X122165777Y-72838277D01*
X122147599Y-72854753D01*
X122127893Y-72869368D01*
X122106850Y-72881980D01*
X122084671Y-72892470D01*
X122061572Y-72900735D01*
X122037773Y-72906696D01*
X122013505Y-72910296D01*
X121989001Y-72911500D01*
X121088999Y-72911500D01*
X121064495Y-72910296D01*
X121040227Y-72906696D01*
X121016428Y-72900735D01*
X120993329Y-72892470D01*
X120971150Y-72881980D01*
X120950107Y-72869368D01*
X120930401Y-72854753D01*
X120912223Y-72838277D01*
X120895747Y-72820099D01*
X120881132Y-72800393D01*
X120868520Y-72779350D01*
X120858030Y-72757171D01*
X120849765Y-72734072D01*
X120843804Y-72710273D01*
X120840204Y-72686005D01*
X120839000Y-72661501D01*
X120839000Y-72011499D01*
X120840204Y-71986995D01*
X120843804Y-71962727D01*
X120849765Y-71938928D01*
X120858030Y-71915829D01*
X120868520Y-71893650D01*
X120881132Y-71872607D01*
X120895747Y-71852901D01*
X120912223Y-71834723D01*
X120930401Y-71818247D01*
X120950107Y-71803632D01*
X120971150Y-71791020D01*
X120993329Y-71780530D01*
X121016428Y-71772265D01*
X121040227Y-71766304D01*
X121064495Y-71762704D01*
X121088999Y-71761500D01*
X121989001Y-71761500D01*
X122013505Y-71762704D01*
X122013505Y-71762704D01*
G37*
D12*
X121539000Y-72336500D03*
D11*
G36*
X122013505Y-73812704D02*
G01*
X122037773Y-73816304D01*
X122061572Y-73822265D01*
X122084671Y-73830530D01*
X122106850Y-73841020D01*
X122127893Y-73853632D01*
X122147599Y-73868247D01*
X122165777Y-73884723D01*
X122182253Y-73902901D01*
X122196868Y-73922607D01*
X122209480Y-73943650D01*
X122219970Y-73965829D01*
X122228235Y-73988928D01*
X122234196Y-74012727D01*
X122237796Y-74036995D01*
X122239000Y-74061499D01*
X122239000Y-74711501D01*
X122237796Y-74736005D01*
X122234196Y-74760273D01*
X122228235Y-74784072D01*
X122219970Y-74807171D01*
X122209480Y-74829350D01*
X122196868Y-74850393D01*
X122182253Y-74870099D01*
X122165777Y-74888277D01*
X122147599Y-74904753D01*
X122127893Y-74919368D01*
X122106850Y-74931980D01*
X122084671Y-74942470D01*
X122061572Y-74950735D01*
X122037773Y-74956696D01*
X122013505Y-74960296D01*
X121989001Y-74961500D01*
X121088999Y-74961500D01*
X121064495Y-74960296D01*
X121040227Y-74956696D01*
X121016428Y-74950735D01*
X120993329Y-74942470D01*
X120971150Y-74931980D01*
X120950107Y-74919368D01*
X120930401Y-74904753D01*
X120912223Y-74888277D01*
X120895747Y-74870099D01*
X120881132Y-74850393D01*
X120868520Y-74829350D01*
X120858030Y-74807171D01*
X120849765Y-74784072D01*
X120843804Y-74760273D01*
X120840204Y-74736005D01*
X120839000Y-74711501D01*
X120839000Y-74061499D01*
X120840204Y-74036995D01*
X120843804Y-74012727D01*
X120849765Y-73988928D01*
X120858030Y-73965829D01*
X120868520Y-73943650D01*
X120881132Y-73922607D01*
X120895747Y-73902901D01*
X120912223Y-73884723D01*
X120930401Y-73868247D01*
X120950107Y-73853632D01*
X120971150Y-73841020D01*
X120993329Y-73830530D01*
X121016428Y-73822265D01*
X121040227Y-73816304D01*
X121064495Y-73812704D01*
X121088999Y-73811500D01*
X121989001Y-73811500D01*
X122013505Y-73812704D01*
X122013505Y-73812704D01*
G37*
D12*
X121539000Y-74386500D03*
D11*
G36*
X123918505Y-73812704D02*
G01*
X123942773Y-73816304D01*
X123966572Y-73822265D01*
X123989671Y-73830530D01*
X124011850Y-73841020D01*
X124032893Y-73853632D01*
X124052599Y-73868247D01*
X124070777Y-73884723D01*
X124087253Y-73902901D01*
X124101868Y-73922607D01*
X124114480Y-73943650D01*
X124124970Y-73965829D01*
X124133235Y-73988928D01*
X124139196Y-74012727D01*
X124142796Y-74036995D01*
X124144000Y-74061499D01*
X124144000Y-74711501D01*
X124142796Y-74736005D01*
X124139196Y-74760273D01*
X124133235Y-74784072D01*
X124124970Y-74807171D01*
X124114480Y-74829350D01*
X124101868Y-74850393D01*
X124087253Y-74870099D01*
X124070777Y-74888277D01*
X124052599Y-74904753D01*
X124032893Y-74919368D01*
X124011850Y-74931980D01*
X123989671Y-74942470D01*
X123966572Y-74950735D01*
X123942773Y-74956696D01*
X123918505Y-74960296D01*
X123894001Y-74961500D01*
X122993999Y-74961500D01*
X122969495Y-74960296D01*
X122945227Y-74956696D01*
X122921428Y-74950735D01*
X122898329Y-74942470D01*
X122876150Y-74931980D01*
X122855107Y-74919368D01*
X122835401Y-74904753D01*
X122817223Y-74888277D01*
X122800747Y-74870099D01*
X122786132Y-74850393D01*
X122773520Y-74829350D01*
X122763030Y-74807171D01*
X122754765Y-74784072D01*
X122748804Y-74760273D01*
X122745204Y-74736005D01*
X122744000Y-74711501D01*
X122744000Y-74061499D01*
X122745204Y-74036995D01*
X122748804Y-74012727D01*
X122754765Y-73988928D01*
X122763030Y-73965829D01*
X122773520Y-73943650D01*
X122786132Y-73922607D01*
X122800747Y-73902901D01*
X122817223Y-73884723D01*
X122835401Y-73868247D01*
X122855107Y-73853632D01*
X122876150Y-73841020D01*
X122898329Y-73830530D01*
X122921428Y-73822265D01*
X122945227Y-73816304D01*
X122969495Y-73812704D01*
X122993999Y-73811500D01*
X123894001Y-73811500D01*
X123918505Y-73812704D01*
X123918505Y-73812704D01*
G37*
D12*
X123444000Y-74386500D03*
D11*
G36*
X123918505Y-71762704D02*
G01*
X123942773Y-71766304D01*
X123966572Y-71772265D01*
X123989671Y-71780530D01*
X124011850Y-71791020D01*
X124032893Y-71803632D01*
X124052599Y-71818247D01*
X124070777Y-71834723D01*
X124087253Y-71852901D01*
X124101868Y-71872607D01*
X124114480Y-71893650D01*
X124124970Y-71915829D01*
X124133235Y-71938928D01*
X124139196Y-71962727D01*
X124142796Y-71986995D01*
X124144000Y-72011499D01*
X124144000Y-72661501D01*
X124142796Y-72686005D01*
X124139196Y-72710273D01*
X124133235Y-72734072D01*
X124124970Y-72757171D01*
X124114480Y-72779350D01*
X124101868Y-72800393D01*
X124087253Y-72820099D01*
X124070777Y-72838277D01*
X124052599Y-72854753D01*
X124032893Y-72869368D01*
X124011850Y-72881980D01*
X123989671Y-72892470D01*
X123966572Y-72900735D01*
X123942773Y-72906696D01*
X123918505Y-72910296D01*
X123894001Y-72911500D01*
X122993999Y-72911500D01*
X122969495Y-72910296D01*
X122945227Y-72906696D01*
X122921428Y-72900735D01*
X122898329Y-72892470D01*
X122876150Y-72881980D01*
X122855107Y-72869368D01*
X122835401Y-72854753D01*
X122817223Y-72838277D01*
X122800747Y-72820099D01*
X122786132Y-72800393D01*
X122773520Y-72779350D01*
X122763030Y-72757171D01*
X122754765Y-72734072D01*
X122748804Y-72710273D01*
X122745204Y-72686005D01*
X122744000Y-72661501D01*
X122744000Y-72011499D01*
X122745204Y-71986995D01*
X122748804Y-71962727D01*
X122754765Y-71938928D01*
X122763030Y-71915829D01*
X122773520Y-71893650D01*
X122786132Y-71872607D01*
X122800747Y-71852901D01*
X122817223Y-71834723D01*
X122835401Y-71818247D01*
X122855107Y-71803632D01*
X122876150Y-71791020D01*
X122898329Y-71780530D01*
X122921428Y-71772265D01*
X122945227Y-71766304D01*
X122969495Y-71762704D01*
X122993999Y-71761500D01*
X123894001Y-71761500D01*
X123918505Y-71762704D01*
X123918505Y-71762704D01*
G37*
D12*
X123444000Y-72336500D03*
D14*
X103072000Y-88086500D03*
X105072000Y-88086500D03*
X107072000Y-88086500D03*
X109072000Y-88086500D03*
X111072000Y-88086500D03*
X113072000Y-88086500D03*
D15*
X100362000Y-72386500D03*
X100362000Y-74386500D03*
X100362000Y-76386500D03*
X100362000Y-78386500D03*
X100362000Y-80386500D03*
X100362000Y-82386500D03*
X100362000Y-84386500D03*
X100362000Y-86386500D03*
X115762000Y-86386500D03*
X115762000Y-84386500D03*
X115762000Y-82386500D03*
X115762000Y-80386500D03*
X115762000Y-78386500D03*
X115762000Y-76386500D03*
X115762000Y-74386500D03*
X115762000Y-72386500D03*
D11*
G36*
X119394504Y-83675204D02*
G01*
X119418773Y-83678804D01*
X119442571Y-83684765D01*
X119465671Y-83693030D01*
X119487849Y-83703520D01*
X119508893Y-83716133D01*
X119528598Y-83730747D01*
X119546777Y-83747223D01*
X119563253Y-83765402D01*
X119577867Y-83785107D01*
X119590480Y-83806151D01*
X119600970Y-83828329D01*
X119609235Y-83851429D01*
X119615196Y-83875227D01*
X119618796Y-83899496D01*
X119620000Y-83924000D01*
X119620000Y-84849000D01*
X119618796Y-84873504D01*
X119615196Y-84897773D01*
X119609235Y-84921571D01*
X119600970Y-84944671D01*
X119590480Y-84966849D01*
X119577867Y-84987893D01*
X119563253Y-85007598D01*
X119546777Y-85025777D01*
X119528598Y-85042253D01*
X119508893Y-85056867D01*
X119487849Y-85069480D01*
X119465671Y-85079970D01*
X119442571Y-85088235D01*
X119418773Y-85094196D01*
X119394504Y-85097796D01*
X119370000Y-85099000D01*
X118120000Y-85099000D01*
X118095496Y-85097796D01*
X118071227Y-85094196D01*
X118047429Y-85088235D01*
X118024329Y-85079970D01*
X118002151Y-85069480D01*
X117981107Y-85056867D01*
X117961402Y-85042253D01*
X117943223Y-85025777D01*
X117926747Y-85007598D01*
X117912133Y-84987893D01*
X117899520Y-84966849D01*
X117889030Y-84944671D01*
X117880765Y-84921571D01*
X117874804Y-84897773D01*
X117871204Y-84873504D01*
X117870000Y-84849000D01*
X117870000Y-83924000D01*
X117871204Y-83899496D01*
X117874804Y-83875227D01*
X117880765Y-83851429D01*
X117889030Y-83828329D01*
X117899520Y-83806151D01*
X117912133Y-83785107D01*
X117926747Y-83765402D01*
X117943223Y-83747223D01*
X117961402Y-83730747D01*
X117981107Y-83716133D01*
X118002151Y-83703520D01*
X118024329Y-83693030D01*
X118047429Y-83684765D01*
X118071227Y-83678804D01*
X118095496Y-83675204D01*
X118120000Y-83674000D01*
X119370000Y-83674000D01*
X119394504Y-83675204D01*
X119394504Y-83675204D01*
G37*
D13*
X118745000Y-84386500D03*
D11*
G36*
X119394504Y-86650204D02*
G01*
X119418773Y-86653804D01*
X119442571Y-86659765D01*
X119465671Y-86668030D01*
X119487849Y-86678520D01*
X119508893Y-86691133D01*
X119528598Y-86705747D01*
X119546777Y-86722223D01*
X119563253Y-86740402D01*
X119577867Y-86760107D01*
X119590480Y-86781151D01*
X119600970Y-86803329D01*
X119609235Y-86826429D01*
X119615196Y-86850227D01*
X119618796Y-86874496D01*
X119620000Y-86899000D01*
X119620000Y-87824000D01*
X119618796Y-87848504D01*
X119615196Y-87872773D01*
X119609235Y-87896571D01*
X119600970Y-87919671D01*
X119590480Y-87941849D01*
X119577867Y-87962893D01*
X119563253Y-87982598D01*
X119546777Y-88000777D01*
X119528598Y-88017253D01*
X119508893Y-88031867D01*
X119487849Y-88044480D01*
X119465671Y-88054970D01*
X119442571Y-88063235D01*
X119418773Y-88069196D01*
X119394504Y-88072796D01*
X119370000Y-88074000D01*
X118120000Y-88074000D01*
X118095496Y-88072796D01*
X118071227Y-88069196D01*
X118047429Y-88063235D01*
X118024329Y-88054970D01*
X118002151Y-88044480D01*
X117981107Y-88031867D01*
X117961402Y-88017253D01*
X117943223Y-88000777D01*
X117926747Y-87982598D01*
X117912133Y-87962893D01*
X117899520Y-87941849D01*
X117889030Y-87919671D01*
X117880765Y-87896571D01*
X117874804Y-87872773D01*
X117871204Y-87848504D01*
X117870000Y-87824000D01*
X117870000Y-86899000D01*
X117871204Y-86874496D01*
X117874804Y-86850227D01*
X117880765Y-86826429D01*
X117889030Y-86803329D01*
X117899520Y-86781151D01*
X117912133Y-86760107D01*
X117926747Y-86740402D01*
X117943223Y-86722223D01*
X117961402Y-86705747D01*
X117981107Y-86691133D01*
X118002151Y-86678520D01*
X118024329Y-86668030D01*
X118047429Y-86659765D01*
X118071227Y-86653804D01*
X118095496Y-86650204D01*
X118120000Y-86649000D01*
X119370000Y-86649000D01*
X119394504Y-86650204D01*
X119394504Y-86650204D01*
G37*
D13*
X118745000Y-87361500D03*
D11*
G36*
X119394504Y-81675204D02*
G01*
X119418773Y-81678804D01*
X119442571Y-81684765D01*
X119465671Y-81693030D01*
X119487849Y-81703520D01*
X119508893Y-81716133D01*
X119528598Y-81730747D01*
X119546777Y-81747223D01*
X119563253Y-81765402D01*
X119577867Y-81785107D01*
X119590480Y-81806151D01*
X119600970Y-81828329D01*
X119609235Y-81851429D01*
X119615196Y-81875227D01*
X119618796Y-81899496D01*
X119620000Y-81924000D01*
X119620000Y-82849000D01*
X119618796Y-82873504D01*
X119615196Y-82897773D01*
X119609235Y-82921571D01*
X119600970Y-82944671D01*
X119590480Y-82966849D01*
X119577867Y-82987893D01*
X119563253Y-83007598D01*
X119546777Y-83025777D01*
X119528598Y-83042253D01*
X119508893Y-83056867D01*
X119487849Y-83069480D01*
X119465671Y-83079970D01*
X119442571Y-83088235D01*
X119418773Y-83094196D01*
X119394504Y-83097796D01*
X119370000Y-83099000D01*
X118120000Y-83099000D01*
X118095496Y-83097796D01*
X118071227Y-83094196D01*
X118047429Y-83088235D01*
X118024329Y-83079970D01*
X118002151Y-83069480D01*
X117981107Y-83056867D01*
X117961402Y-83042253D01*
X117943223Y-83025777D01*
X117926747Y-83007598D01*
X117912133Y-82987893D01*
X117899520Y-82966849D01*
X117889030Y-82944671D01*
X117880765Y-82921571D01*
X117874804Y-82897773D01*
X117871204Y-82873504D01*
X117870000Y-82849000D01*
X117870000Y-81924000D01*
X117871204Y-81899496D01*
X117874804Y-81875227D01*
X117880765Y-81851429D01*
X117889030Y-81828329D01*
X117899520Y-81806151D01*
X117912133Y-81785107D01*
X117926747Y-81765402D01*
X117943223Y-81747223D01*
X117961402Y-81730747D01*
X117981107Y-81716133D01*
X118002151Y-81703520D01*
X118024329Y-81693030D01*
X118047429Y-81684765D01*
X118071227Y-81678804D01*
X118095496Y-81675204D01*
X118120000Y-81674000D01*
X119370000Y-81674000D01*
X119394504Y-81675204D01*
X119394504Y-81675204D01*
G37*
D13*
X118745000Y-82386500D03*
D11*
G36*
X119394504Y-78700204D02*
G01*
X119418773Y-78703804D01*
X119442571Y-78709765D01*
X119465671Y-78718030D01*
X119487849Y-78728520D01*
X119508893Y-78741133D01*
X119528598Y-78755747D01*
X119546777Y-78772223D01*
X119563253Y-78790402D01*
X119577867Y-78810107D01*
X119590480Y-78831151D01*
X119600970Y-78853329D01*
X119609235Y-78876429D01*
X119615196Y-78900227D01*
X119618796Y-78924496D01*
X119620000Y-78949000D01*
X119620000Y-79874000D01*
X119618796Y-79898504D01*
X119615196Y-79922773D01*
X119609235Y-79946571D01*
X119600970Y-79969671D01*
X119590480Y-79991849D01*
X119577867Y-80012893D01*
X119563253Y-80032598D01*
X119546777Y-80050777D01*
X119528598Y-80067253D01*
X119508893Y-80081867D01*
X119487849Y-80094480D01*
X119465671Y-80104970D01*
X119442571Y-80113235D01*
X119418773Y-80119196D01*
X119394504Y-80122796D01*
X119370000Y-80124000D01*
X118120000Y-80124000D01*
X118095496Y-80122796D01*
X118071227Y-80119196D01*
X118047429Y-80113235D01*
X118024329Y-80104970D01*
X118002151Y-80094480D01*
X117981107Y-80081867D01*
X117961402Y-80067253D01*
X117943223Y-80050777D01*
X117926747Y-80032598D01*
X117912133Y-80012893D01*
X117899520Y-79991849D01*
X117889030Y-79969671D01*
X117880765Y-79946571D01*
X117874804Y-79922773D01*
X117871204Y-79898504D01*
X117870000Y-79874000D01*
X117870000Y-78949000D01*
X117871204Y-78924496D01*
X117874804Y-78900227D01*
X117880765Y-78876429D01*
X117889030Y-78853329D01*
X117899520Y-78831151D01*
X117912133Y-78810107D01*
X117926747Y-78790402D01*
X117943223Y-78772223D01*
X117961402Y-78755747D01*
X117981107Y-78741133D01*
X118002151Y-78728520D01*
X118024329Y-78718030D01*
X118047429Y-78709765D01*
X118071227Y-78703804D01*
X118095496Y-78700204D01*
X118120000Y-78699000D01*
X119370000Y-78699000D01*
X119394504Y-78700204D01*
X119394504Y-78700204D01*
G37*
D13*
X118745000Y-79411500D03*
D16*
X95244000Y-69723000D03*
X95244000Y-70993000D03*
X95244000Y-72263000D03*
X95244000Y-73533000D03*
X95244000Y-74803000D03*
X95244000Y-76073000D03*
X95244000Y-77343000D03*
X95244000Y-78613000D03*
X88144000Y-78613000D03*
X88144000Y-77343000D03*
X88144000Y-76073000D03*
X88144000Y-74803000D03*
X88144000Y-73533000D03*
X88144000Y-72263000D03*
X88144000Y-70993000D03*
X88144000Y-69723000D03*
M02*
