G04 #@! TF.GenerationSoftware,KiCad,Pcbnew,(5.1.0-0)*
G04 #@! TF.CreationDate,2019-04-05T23:49:43+03:00*
G04 #@! TF.ProjectId,curtains-driver,63757274-6169-46e7-932d-647269766572,rev?*
G04 #@! TF.SameCoordinates,Original*
G04 #@! TF.FileFunction,Legend,Bot*
G04 #@! TF.FilePolarity,Positive*
%FSLAX46Y46*%
G04 Gerber Fmt 4.6, Leading zero omitted, Abs format (unit mm)*
G04 Created by KiCad (PCBNEW (5.1.0-0)) date 2019-04-05 23:49:43*
%MOMM*%
%LPD*%
G04 APERTURE LIST*
%ADD10C,0.150000*%
%ADD11C,0.120000*%
%ADD12C,0.152400*%
G04 APERTURE END LIST*
D10*
X134000000Y-63754000D02*
X134000000Y-93500000D01*
X78968600Y-63754000D02*
X78968600Y-93472000D01*
X134000000Y-93500000D02*
X78968600Y-93472000D01*
X78968600Y-63754000D02*
X134000000Y-63754000D01*
D11*
X96673600Y-72803652D02*
X96673600Y-72281148D01*
X98093600Y-72803652D02*
X98093600Y-72281148D01*
X117835000Y-75271936D02*
X117835000Y-76476064D01*
X119655000Y-75271936D02*
X119655000Y-76476064D01*
X114852000Y-90355336D02*
X114852000Y-91559464D01*
X116672000Y-90355336D02*
X116672000Y-91559464D01*
X96512748Y-81380400D02*
X97035252Y-81380400D01*
X96512748Y-79960400D02*
X97035252Y-79960400D01*
X96512748Y-81959400D02*
X97035252Y-81959400D01*
X96512748Y-83379400D02*
X97035252Y-83379400D01*
X96512748Y-85379400D02*
X97035252Y-85379400D01*
X96512748Y-83959400D02*
X97035252Y-83959400D01*
X126059000Y-89654748D02*
X126059000Y-90177252D01*
X124639000Y-89654748D02*
X124639000Y-90177252D01*
X126059000Y-77824918D02*
X126059000Y-77302414D01*
X124639000Y-77824918D02*
X124639000Y-77302414D01*
X122734000Y-77824918D02*
X122734000Y-77302414D01*
X124154000Y-77824918D02*
X124154000Y-77302414D01*
X120344000Y-71622752D02*
X120344000Y-71100248D01*
X118924000Y-71622752D02*
X118924000Y-71100248D01*
X120829000Y-73100248D02*
X120829000Y-73622752D01*
X122249000Y-73100248D02*
X122249000Y-73622752D01*
X124154000Y-73622752D02*
X124154000Y-73100248D01*
X122734000Y-73622752D02*
X122734000Y-73100248D01*
D12*
X100076000Y-88007500D02*
X100076000Y-87245500D01*
X116078000Y-88007500D02*
X100076000Y-88007500D01*
X116078000Y-87245500D02*
X116078000Y-88007500D01*
D11*
X117835000Y-85271936D02*
X117835000Y-86476064D01*
X119655000Y-85271936D02*
X119655000Y-86476064D01*
X119655000Y-81501064D02*
X119655000Y-80296936D01*
X117835000Y-81501064D02*
X117835000Y-80296936D01*
D10*
X94469000Y-68893000D02*
X94469000Y-69168000D01*
X88919000Y-68893000D02*
X88919000Y-69248000D01*
X88919000Y-79443000D02*
X88919000Y-79088000D01*
X94469000Y-79443000D02*
X94469000Y-79088000D01*
X94469000Y-68893000D02*
X88919000Y-68893000D01*
X94469000Y-79443000D02*
X88919000Y-79443000D01*
X94469000Y-69168000D02*
X95994000Y-69168000D01*
X99485980Y-71899542D02*
X99009790Y-71566209D01*
X99485980Y-71328114D02*
X98485980Y-71328114D01*
X98485980Y-71709066D01*
X98533600Y-71804304D01*
X98581219Y-71851923D01*
X98676457Y-71899542D01*
X98819314Y-71899542D01*
X98914552Y-71851923D01*
X98962171Y-71804304D01*
X99009790Y-71709066D01*
X99009790Y-71328114D01*
X99485980Y-72851923D02*
X99485980Y-72280495D01*
X99485980Y-72566209D02*
X98485980Y-72566209D01*
X98628838Y-72470971D01*
X98724076Y-72375733D01*
X98771695Y-72280495D01*
X98819314Y-73709066D02*
X99485980Y-73709066D01*
X98438361Y-73470971D02*
X99152647Y-73232876D01*
X99152647Y-73851923D01*
X121134142Y-75842833D02*
X121181761Y-75795214D01*
X121229380Y-75652357D01*
X121229380Y-75557119D01*
X121181761Y-75414261D01*
X121086523Y-75319023D01*
X120991285Y-75271404D01*
X120800809Y-75223785D01*
X120657952Y-75223785D01*
X120467476Y-75271404D01*
X120372238Y-75319023D01*
X120277000Y-75414261D01*
X120229380Y-75557119D01*
X120229380Y-75652357D01*
X120277000Y-75795214D01*
X120324619Y-75842833D01*
X120229380Y-76699976D02*
X120229380Y-76509500D01*
X120277000Y-76414261D01*
X120324619Y-76366642D01*
X120467476Y-76271404D01*
X120657952Y-76223785D01*
X121038904Y-76223785D01*
X121134142Y-76271404D01*
X121181761Y-76319023D01*
X121229380Y-76414261D01*
X121229380Y-76604738D01*
X121181761Y-76699976D01*
X121134142Y-76747595D01*
X121038904Y-76795214D01*
X120800809Y-76795214D01*
X120705571Y-76747595D01*
X120657952Y-76699976D01*
X120610333Y-76604738D01*
X120610333Y-76414261D01*
X120657952Y-76319023D01*
X120705571Y-76271404D01*
X120800809Y-76223785D01*
X118022642Y-90790733D02*
X118070261Y-90743114D01*
X118117880Y-90600257D01*
X118117880Y-90505019D01*
X118070261Y-90362161D01*
X117975023Y-90266923D01*
X117879785Y-90219304D01*
X117689309Y-90171685D01*
X117546452Y-90171685D01*
X117355976Y-90219304D01*
X117260738Y-90266923D01*
X117165500Y-90362161D01*
X117117880Y-90505019D01*
X117117880Y-90600257D01*
X117165500Y-90743114D01*
X117213119Y-90790733D01*
X117117880Y-91695495D02*
X117117880Y-91219304D01*
X117594071Y-91171685D01*
X117546452Y-91219304D01*
X117498833Y-91314542D01*
X117498833Y-91552638D01*
X117546452Y-91647876D01*
X117594071Y-91695495D01*
X117689309Y-91743114D01*
X117927404Y-91743114D01*
X118022642Y-91695495D01*
X118070261Y-91647876D01*
X118117880Y-91552638D01*
X118117880Y-91314542D01*
X118070261Y-91219304D01*
X118022642Y-91171685D01*
X96940666Y-86964780D02*
X97274000Y-86488590D01*
X97512095Y-86964780D02*
X97512095Y-85964780D01*
X97131142Y-85964780D01*
X97035904Y-86012400D01*
X96988285Y-86060019D01*
X96940666Y-86155257D01*
X96940666Y-86298114D01*
X96988285Y-86393352D01*
X97035904Y-86440971D01*
X97131142Y-86488590D01*
X97512095Y-86488590D01*
X96607333Y-85964780D02*
X95940666Y-85964780D01*
X96369238Y-86964780D01*
X96940666Y-88425280D02*
X97274000Y-87949090D01*
X97512095Y-88425280D02*
X97512095Y-87425280D01*
X97131142Y-87425280D01*
X97035904Y-87472900D01*
X96988285Y-87520519D01*
X96940666Y-87615757D01*
X96940666Y-87758614D01*
X96988285Y-87853852D01*
X97035904Y-87901471D01*
X97131142Y-87949090D01*
X97512095Y-87949090D01*
X96083523Y-87425280D02*
X96274000Y-87425280D01*
X96369238Y-87472900D01*
X96416857Y-87520519D01*
X96512095Y-87663376D01*
X96559714Y-87853852D01*
X96559714Y-88234804D01*
X96512095Y-88330042D01*
X96464476Y-88377661D01*
X96369238Y-88425280D01*
X96178761Y-88425280D01*
X96083523Y-88377661D01*
X96035904Y-88330042D01*
X95988285Y-88234804D01*
X95988285Y-87996709D01*
X96035904Y-87901471D01*
X96083523Y-87853852D01*
X96178761Y-87806233D01*
X96369238Y-87806233D01*
X96464476Y-87853852D01*
X96512095Y-87901471D01*
X96559714Y-87996709D01*
X97004166Y-89885780D02*
X97337500Y-89409590D01*
X97575595Y-89885780D02*
X97575595Y-88885780D01*
X97194642Y-88885780D01*
X97099404Y-88933400D01*
X97051785Y-88981019D01*
X97004166Y-89076257D01*
X97004166Y-89219114D01*
X97051785Y-89314352D01*
X97099404Y-89361971D01*
X97194642Y-89409590D01*
X97575595Y-89409590D01*
X96099404Y-88885780D02*
X96575595Y-88885780D01*
X96623214Y-89361971D01*
X96575595Y-89314352D01*
X96480357Y-89266733D01*
X96242261Y-89266733D01*
X96147023Y-89314352D01*
X96099404Y-89361971D01*
X96051785Y-89457209D01*
X96051785Y-89695304D01*
X96099404Y-89790542D01*
X96147023Y-89838161D01*
X96242261Y-89885780D01*
X96480357Y-89885780D01*
X96575595Y-89838161D01*
X96623214Y-89790542D01*
X125801380Y-86701333D02*
X125325190Y-86368000D01*
X125801380Y-86129904D02*
X124801380Y-86129904D01*
X124801380Y-86510857D01*
X124849000Y-86606095D01*
X124896619Y-86653714D01*
X124991857Y-86701333D01*
X125134714Y-86701333D01*
X125229952Y-86653714D01*
X125277571Y-86606095D01*
X125325190Y-86510857D01*
X125325190Y-86129904D01*
X125134714Y-87558476D02*
X125801380Y-87558476D01*
X124753761Y-87320380D02*
X125468047Y-87082285D01*
X125468047Y-87701333D01*
X125801380Y-80361332D02*
X125325190Y-80027999D01*
X125801380Y-79789903D02*
X124801380Y-79789903D01*
X124801380Y-80170856D01*
X124849000Y-80266094D01*
X124896619Y-80313713D01*
X124991857Y-80361332D01*
X125134714Y-80361332D01*
X125229952Y-80313713D01*
X125277571Y-80266094D01*
X125325190Y-80170856D01*
X125325190Y-79789903D01*
X124801380Y-80694665D02*
X124801380Y-81313713D01*
X125182333Y-80980379D01*
X125182333Y-81123237D01*
X125229952Y-81218475D01*
X125277571Y-81266094D01*
X125372809Y-81313713D01*
X125610904Y-81313713D01*
X125706142Y-81266094D01*
X125753761Y-81218475D01*
X125801380Y-81123237D01*
X125801380Y-80837522D01*
X125753761Y-80742284D01*
X125706142Y-80694665D01*
X123896380Y-80361332D02*
X123420190Y-80027999D01*
X123896380Y-79789903D02*
X122896380Y-79789903D01*
X122896380Y-80170856D01*
X122944000Y-80266094D01*
X122991619Y-80313713D01*
X123086857Y-80361332D01*
X123229714Y-80361332D01*
X123324952Y-80313713D01*
X123372571Y-80266094D01*
X123420190Y-80170856D01*
X123420190Y-79789903D01*
X122991619Y-80742284D02*
X122944000Y-80789903D01*
X122896380Y-80885141D01*
X122896380Y-81123237D01*
X122944000Y-81218475D01*
X122991619Y-81266094D01*
X123086857Y-81313713D01*
X123182095Y-81313713D01*
X123324952Y-81266094D01*
X123896380Y-80694665D01*
X123896380Y-81313713D01*
X120086380Y-68222833D02*
X119610190Y-67889500D01*
X120086380Y-67651404D02*
X119086380Y-67651404D01*
X119086380Y-68032357D01*
X119134000Y-68127595D01*
X119181619Y-68175214D01*
X119276857Y-68222833D01*
X119419714Y-68222833D01*
X119514952Y-68175214D01*
X119562571Y-68127595D01*
X119610190Y-68032357D01*
X119610190Y-67651404D01*
X120086380Y-69175214D02*
X120086380Y-68603785D01*
X120086380Y-68889500D02*
X119086380Y-68889500D01*
X119229238Y-68794261D01*
X119324476Y-68699023D01*
X119372095Y-68603785D01*
X122054880Y-69207142D02*
X121578690Y-68873809D01*
X122054880Y-68635714D02*
X121054880Y-68635714D01*
X121054880Y-69016666D01*
X121102500Y-69111904D01*
X121150119Y-69159523D01*
X121245357Y-69207142D01*
X121388214Y-69207142D01*
X121483452Y-69159523D01*
X121531071Y-69111904D01*
X121578690Y-69016666D01*
X121578690Y-68635714D01*
X122054880Y-70159523D02*
X122054880Y-69588095D01*
X122054880Y-69873809D02*
X121054880Y-69873809D01*
X121197738Y-69778571D01*
X121292976Y-69683333D01*
X121340595Y-69588095D01*
X121054880Y-70778571D02*
X121054880Y-70873809D01*
X121102500Y-70969047D01*
X121150119Y-71016666D01*
X121245357Y-71064285D01*
X121435833Y-71111904D01*
X121673928Y-71111904D01*
X121864404Y-71064285D01*
X121959642Y-71016666D01*
X122007261Y-70969047D01*
X122054880Y-70873809D01*
X122054880Y-70778571D01*
X122007261Y-70683333D01*
X121959642Y-70635714D01*
X121864404Y-70588095D01*
X121673928Y-70540476D01*
X121435833Y-70540476D01*
X121245357Y-70588095D01*
X121150119Y-70635714D01*
X121102500Y-70683333D01*
X121054880Y-70778571D01*
X123959880Y-69175333D02*
X123483690Y-68842000D01*
X123959880Y-68603904D02*
X122959880Y-68603904D01*
X122959880Y-68984857D01*
X123007500Y-69080095D01*
X123055119Y-69127714D01*
X123150357Y-69175333D01*
X123293214Y-69175333D01*
X123388452Y-69127714D01*
X123436071Y-69080095D01*
X123483690Y-68984857D01*
X123483690Y-68603904D01*
X123388452Y-69746761D02*
X123340833Y-69651523D01*
X123293214Y-69603904D01*
X123197976Y-69556285D01*
X123150357Y-69556285D01*
X123055119Y-69603904D01*
X123007500Y-69651523D01*
X122959880Y-69746761D01*
X122959880Y-69937238D01*
X123007500Y-70032476D01*
X123055119Y-70080095D01*
X123150357Y-70127714D01*
X123197976Y-70127714D01*
X123293214Y-70080095D01*
X123340833Y-70032476D01*
X123388452Y-69937238D01*
X123388452Y-69746761D01*
X123436071Y-69651523D01*
X123483690Y-69603904D01*
X123578928Y-69556285D01*
X123769404Y-69556285D01*
X123864642Y-69603904D01*
X123912261Y-69651523D01*
X123959880Y-69746761D01*
X123959880Y-69937238D01*
X123912261Y-70032476D01*
X123864642Y-70080095D01*
X123769404Y-70127714D01*
X123578928Y-70127714D01*
X123483690Y-70080095D01*
X123436071Y-70032476D01*
X123388452Y-69937238D01*
X97178880Y-66865595D02*
X97988404Y-66865595D01*
X98083642Y-66913214D01*
X98131261Y-66960833D01*
X98178880Y-67056071D01*
X98178880Y-67246547D01*
X98131261Y-67341785D01*
X98083642Y-67389404D01*
X97988404Y-67437023D01*
X97178880Y-67437023D01*
X98178880Y-68437023D02*
X98178880Y-67865595D01*
X98178880Y-68151309D02*
X97178880Y-68151309D01*
X97321738Y-68056071D01*
X97416976Y-67960833D01*
X97464595Y-67865595D01*
X121007142Y-85685333D02*
X121054761Y-85637714D01*
X121102380Y-85494857D01*
X121102380Y-85399619D01*
X121054761Y-85256761D01*
X120959523Y-85161523D01*
X120864285Y-85113904D01*
X120673809Y-85066285D01*
X120530952Y-85066285D01*
X120340476Y-85113904D01*
X120245238Y-85161523D01*
X120150000Y-85256761D01*
X120102380Y-85399619D01*
X120102380Y-85494857D01*
X120150000Y-85637714D01*
X120197619Y-85685333D01*
X120102380Y-86018666D02*
X120102380Y-86637714D01*
X120483333Y-86304380D01*
X120483333Y-86447238D01*
X120530952Y-86542476D01*
X120578571Y-86590095D01*
X120673809Y-86637714D01*
X120911904Y-86637714D01*
X121007142Y-86590095D01*
X121054761Y-86542476D01*
X121102380Y-86447238D01*
X121102380Y-86161523D01*
X121054761Y-86066285D01*
X121007142Y-86018666D01*
X121007142Y-80732333D02*
X121054761Y-80684714D01*
X121102380Y-80541857D01*
X121102380Y-80446619D01*
X121054761Y-80303761D01*
X120959523Y-80208523D01*
X120864285Y-80160904D01*
X120673809Y-80113285D01*
X120530952Y-80113285D01*
X120340476Y-80160904D01*
X120245238Y-80208523D01*
X120150000Y-80303761D01*
X120102380Y-80446619D01*
X120102380Y-80541857D01*
X120150000Y-80684714D01*
X120197619Y-80732333D01*
X121102380Y-81684714D02*
X121102380Y-81113285D01*
X121102380Y-81399000D02*
X120102380Y-81399000D01*
X120245238Y-81303761D01*
X120340476Y-81208523D01*
X120388095Y-81113285D01*
X92455904Y-67143380D02*
X92455904Y-67952904D01*
X92408285Y-68048142D01*
X92360666Y-68095761D01*
X92265428Y-68143380D01*
X92074952Y-68143380D01*
X91979714Y-68095761D01*
X91932095Y-68048142D01*
X91884476Y-67952904D01*
X91884476Y-67143380D01*
X91503523Y-67143380D02*
X90884476Y-67143380D01*
X91217809Y-67524333D01*
X91074952Y-67524333D01*
X90979714Y-67571952D01*
X90932095Y-67619571D01*
X90884476Y-67714809D01*
X90884476Y-67952904D01*
X90932095Y-68048142D01*
X90979714Y-68095761D01*
X91074952Y-68143380D01*
X91360666Y-68143380D01*
X91455904Y-68095761D01*
X91503523Y-68048142D01*
M02*
