G04 #@! TF.GenerationSoftware,KiCad,Pcbnew,(5.1.2-1)-1*
G04 #@! TF.CreationDate,2019-10-05T22:58:12+03:00*
G04 #@! TF.ProjectId,curtains-driver,63757274-6169-46e7-932d-647269766572,rev?*
G04 #@! TF.SameCoordinates,Original*
G04 #@! TF.FileFunction,Paste,Top*
G04 #@! TF.FilePolarity,Positive*
%FSLAX46Y46*%
G04 Gerber Fmt 4.6, Leading zero omitted, Abs format (unit mm)*
G04 Created by KiCad (PCBNEW (5.1.2-1)-1) date 2019-10-05 22:58:12*
%MOMM*%
%LPD*%
G04 APERTURE LIST*
%ADD10C,0.150000*%
%ADD11R,1.000000X1.700000*%
%ADD12R,2.100000X1.800000*%
%ADD13R,2.500000X1.800000*%
%ADD14C,0.100000*%
%ADD15C,1.150000*%
%ADD16C,1.425000*%
%ADD17R,1.380000X0.450000*%
%ADD18R,2.100000X1.475000*%
%ADD19R,1.900000X2.375000*%
%ADD20R,1.900000X1.175000*%
%ADD21R,1.500000X0.600000*%
%ADD22R,0.800000X0.900000*%
%ADD23C,3.200000*%
%ADD24R,3.800000X2.000000*%
%ADD25R,1.500000X2.000000*%
G04 APERTURE END LIST*
D10*
X134000000Y-63754000D02*
X134000000Y-93500000D01*
X78968600Y-63754000D02*
X78968600Y-93472000D01*
X134000000Y-93500000D02*
X78968600Y-93472000D01*
X78968600Y-63754000D02*
X134000000Y-63754000D01*
D11*
X122575400Y-84683200D03*
X122575400Y-90983200D03*
X118775400Y-84683200D03*
X118775400Y-90983200D03*
X118826200Y-80797800D03*
X118826200Y-74497800D03*
X122626200Y-80797800D03*
X122626200Y-74497800D03*
D12*
X109423800Y-89718200D03*
X106323800Y-89718200D03*
X106323800Y-87218200D03*
X109423800Y-87218200D03*
D13*
X91630500Y-78994000D03*
X87630500Y-78994000D03*
D14*
G36*
X106517805Y-72707204D02*
G01*
X106542073Y-72710804D01*
X106565872Y-72716765D01*
X106588971Y-72725030D01*
X106611150Y-72735520D01*
X106632193Y-72748132D01*
X106651899Y-72762747D01*
X106670077Y-72779223D01*
X106686553Y-72797401D01*
X106701168Y-72817107D01*
X106713780Y-72838150D01*
X106724270Y-72860329D01*
X106732535Y-72883428D01*
X106738496Y-72907227D01*
X106742096Y-72931495D01*
X106743300Y-72955999D01*
X106743300Y-73856001D01*
X106742096Y-73880505D01*
X106738496Y-73904773D01*
X106732535Y-73928572D01*
X106724270Y-73951671D01*
X106713780Y-73973850D01*
X106701168Y-73994893D01*
X106686553Y-74014599D01*
X106670077Y-74032777D01*
X106651899Y-74049253D01*
X106632193Y-74063868D01*
X106611150Y-74076480D01*
X106588971Y-74086970D01*
X106565872Y-74095235D01*
X106542073Y-74101196D01*
X106517805Y-74104796D01*
X106493301Y-74106000D01*
X105843299Y-74106000D01*
X105818795Y-74104796D01*
X105794527Y-74101196D01*
X105770728Y-74095235D01*
X105747629Y-74086970D01*
X105725450Y-74076480D01*
X105704407Y-74063868D01*
X105684701Y-74049253D01*
X105666523Y-74032777D01*
X105650047Y-74014599D01*
X105635432Y-73994893D01*
X105622820Y-73973850D01*
X105612330Y-73951671D01*
X105604065Y-73928572D01*
X105598104Y-73904773D01*
X105594504Y-73880505D01*
X105593300Y-73856001D01*
X105593300Y-72955999D01*
X105594504Y-72931495D01*
X105598104Y-72907227D01*
X105604065Y-72883428D01*
X105612330Y-72860329D01*
X105622820Y-72838150D01*
X105635432Y-72817107D01*
X105650047Y-72797401D01*
X105666523Y-72779223D01*
X105684701Y-72762747D01*
X105704407Y-72748132D01*
X105725450Y-72735520D01*
X105747629Y-72725030D01*
X105770728Y-72716765D01*
X105794527Y-72710804D01*
X105818795Y-72707204D01*
X105843299Y-72706000D01*
X106493301Y-72706000D01*
X106517805Y-72707204D01*
X106517805Y-72707204D01*
G37*
D15*
X106168300Y-73406000D03*
D14*
G36*
X104467805Y-72707204D02*
G01*
X104492073Y-72710804D01*
X104515872Y-72716765D01*
X104538971Y-72725030D01*
X104561150Y-72735520D01*
X104582193Y-72748132D01*
X104601899Y-72762747D01*
X104620077Y-72779223D01*
X104636553Y-72797401D01*
X104651168Y-72817107D01*
X104663780Y-72838150D01*
X104674270Y-72860329D01*
X104682535Y-72883428D01*
X104688496Y-72907227D01*
X104692096Y-72931495D01*
X104693300Y-72955999D01*
X104693300Y-73856001D01*
X104692096Y-73880505D01*
X104688496Y-73904773D01*
X104682535Y-73928572D01*
X104674270Y-73951671D01*
X104663780Y-73973850D01*
X104651168Y-73994893D01*
X104636553Y-74014599D01*
X104620077Y-74032777D01*
X104601899Y-74049253D01*
X104582193Y-74063868D01*
X104561150Y-74076480D01*
X104538971Y-74086970D01*
X104515872Y-74095235D01*
X104492073Y-74101196D01*
X104467805Y-74104796D01*
X104443301Y-74106000D01*
X103793299Y-74106000D01*
X103768795Y-74104796D01*
X103744527Y-74101196D01*
X103720728Y-74095235D01*
X103697629Y-74086970D01*
X103675450Y-74076480D01*
X103654407Y-74063868D01*
X103634701Y-74049253D01*
X103616523Y-74032777D01*
X103600047Y-74014599D01*
X103585432Y-73994893D01*
X103572820Y-73973850D01*
X103562330Y-73951671D01*
X103554065Y-73928572D01*
X103548104Y-73904773D01*
X103544504Y-73880505D01*
X103543300Y-73856001D01*
X103543300Y-72955999D01*
X103544504Y-72931495D01*
X103548104Y-72907227D01*
X103554065Y-72883428D01*
X103562330Y-72860329D01*
X103572820Y-72838150D01*
X103585432Y-72817107D01*
X103600047Y-72797401D01*
X103616523Y-72779223D01*
X103634701Y-72762747D01*
X103654407Y-72748132D01*
X103675450Y-72735520D01*
X103697629Y-72725030D01*
X103720728Y-72716765D01*
X103744527Y-72710804D01*
X103768795Y-72707204D01*
X103793299Y-72706000D01*
X104443301Y-72706000D01*
X104467805Y-72707204D01*
X104467805Y-72707204D01*
G37*
D15*
X104118300Y-73406000D03*
D14*
G36*
X116119005Y-78168204D02*
G01*
X116143273Y-78171804D01*
X116167072Y-78177765D01*
X116190171Y-78186030D01*
X116212350Y-78196520D01*
X116233393Y-78209132D01*
X116253099Y-78223747D01*
X116271277Y-78240223D01*
X116287753Y-78258401D01*
X116302368Y-78278107D01*
X116314980Y-78299150D01*
X116325470Y-78321329D01*
X116333735Y-78344428D01*
X116339696Y-78368227D01*
X116343296Y-78392495D01*
X116344500Y-78416999D01*
X116344500Y-79317001D01*
X116343296Y-79341505D01*
X116339696Y-79365773D01*
X116333735Y-79389572D01*
X116325470Y-79412671D01*
X116314980Y-79434850D01*
X116302368Y-79455893D01*
X116287753Y-79475599D01*
X116271277Y-79493777D01*
X116253099Y-79510253D01*
X116233393Y-79524868D01*
X116212350Y-79537480D01*
X116190171Y-79547970D01*
X116167072Y-79556235D01*
X116143273Y-79562196D01*
X116119005Y-79565796D01*
X116094501Y-79567000D01*
X115444499Y-79567000D01*
X115419995Y-79565796D01*
X115395727Y-79562196D01*
X115371928Y-79556235D01*
X115348829Y-79547970D01*
X115326650Y-79537480D01*
X115305607Y-79524868D01*
X115285901Y-79510253D01*
X115267723Y-79493777D01*
X115251247Y-79475599D01*
X115236632Y-79455893D01*
X115224020Y-79434850D01*
X115213530Y-79412671D01*
X115205265Y-79389572D01*
X115199304Y-79365773D01*
X115195704Y-79341505D01*
X115194500Y-79317001D01*
X115194500Y-78416999D01*
X115195704Y-78392495D01*
X115199304Y-78368227D01*
X115205265Y-78344428D01*
X115213530Y-78321329D01*
X115224020Y-78299150D01*
X115236632Y-78278107D01*
X115251247Y-78258401D01*
X115267723Y-78240223D01*
X115285901Y-78223747D01*
X115305607Y-78209132D01*
X115326650Y-78196520D01*
X115348829Y-78186030D01*
X115371928Y-78177765D01*
X115395727Y-78171804D01*
X115419995Y-78168204D01*
X115444499Y-78167000D01*
X116094501Y-78167000D01*
X116119005Y-78168204D01*
X116119005Y-78168204D01*
G37*
D15*
X115769500Y-78867000D03*
D14*
G36*
X114069005Y-78168204D02*
G01*
X114093273Y-78171804D01*
X114117072Y-78177765D01*
X114140171Y-78186030D01*
X114162350Y-78196520D01*
X114183393Y-78209132D01*
X114203099Y-78223747D01*
X114221277Y-78240223D01*
X114237753Y-78258401D01*
X114252368Y-78278107D01*
X114264980Y-78299150D01*
X114275470Y-78321329D01*
X114283735Y-78344428D01*
X114289696Y-78368227D01*
X114293296Y-78392495D01*
X114294500Y-78416999D01*
X114294500Y-79317001D01*
X114293296Y-79341505D01*
X114289696Y-79365773D01*
X114283735Y-79389572D01*
X114275470Y-79412671D01*
X114264980Y-79434850D01*
X114252368Y-79455893D01*
X114237753Y-79475599D01*
X114221277Y-79493777D01*
X114203099Y-79510253D01*
X114183393Y-79524868D01*
X114162350Y-79537480D01*
X114140171Y-79547970D01*
X114117072Y-79556235D01*
X114093273Y-79562196D01*
X114069005Y-79565796D01*
X114044501Y-79567000D01*
X113394499Y-79567000D01*
X113369995Y-79565796D01*
X113345727Y-79562196D01*
X113321928Y-79556235D01*
X113298829Y-79547970D01*
X113276650Y-79537480D01*
X113255607Y-79524868D01*
X113235901Y-79510253D01*
X113217723Y-79493777D01*
X113201247Y-79475599D01*
X113186632Y-79455893D01*
X113174020Y-79434850D01*
X113163530Y-79412671D01*
X113155265Y-79389572D01*
X113149304Y-79365773D01*
X113145704Y-79341505D01*
X113144500Y-79317001D01*
X113144500Y-78416999D01*
X113145704Y-78392495D01*
X113149304Y-78368227D01*
X113155265Y-78344428D01*
X113163530Y-78321329D01*
X113174020Y-78299150D01*
X113186632Y-78278107D01*
X113201247Y-78258401D01*
X113217723Y-78240223D01*
X113235901Y-78223747D01*
X113255607Y-78209132D01*
X113276650Y-78196520D01*
X113298829Y-78186030D01*
X113321928Y-78177765D01*
X113345727Y-78171804D01*
X113369995Y-78168204D01*
X113394499Y-78167000D01*
X114044501Y-78167000D01*
X114069005Y-78168204D01*
X114069005Y-78168204D01*
G37*
D15*
X113719500Y-78867000D03*
D14*
G36*
X104467805Y-70738704D02*
G01*
X104492073Y-70742304D01*
X104515872Y-70748265D01*
X104538971Y-70756530D01*
X104561150Y-70767020D01*
X104582193Y-70779632D01*
X104601899Y-70794247D01*
X104620077Y-70810723D01*
X104636553Y-70828901D01*
X104651168Y-70848607D01*
X104663780Y-70869650D01*
X104674270Y-70891829D01*
X104682535Y-70914928D01*
X104688496Y-70938727D01*
X104692096Y-70962995D01*
X104693300Y-70987499D01*
X104693300Y-71887501D01*
X104692096Y-71912005D01*
X104688496Y-71936273D01*
X104682535Y-71960072D01*
X104674270Y-71983171D01*
X104663780Y-72005350D01*
X104651168Y-72026393D01*
X104636553Y-72046099D01*
X104620077Y-72064277D01*
X104601899Y-72080753D01*
X104582193Y-72095368D01*
X104561150Y-72107980D01*
X104538971Y-72118470D01*
X104515872Y-72126735D01*
X104492073Y-72132696D01*
X104467805Y-72136296D01*
X104443301Y-72137500D01*
X103793299Y-72137500D01*
X103768795Y-72136296D01*
X103744527Y-72132696D01*
X103720728Y-72126735D01*
X103697629Y-72118470D01*
X103675450Y-72107980D01*
X103654407Y-72095368D01*
X103634701Y-72080753D01*
X103616523Y-72064277D01*
X103600047Y-72046099D01*
X103585432Y-72026393D01*
X103572820Y-72005350D01*
X103562330Y-71983171D01*
X103554065Y-71960072D01*
X103548104Y-71936273D01*
X103544504Y-71912005D01*
X103543300Y-71887501D01*
X103543300Y-70987499D01*
X103544504Y-70962995D01*
X103548104Y-70938727D01*
X103554065Y-70914928D01*
X103562330Y-70891829D01*
X103572820Y-70869650D01*
X103585432Y-70848607D01*
X103600047Y-70828901D01*
X103616523Y-70810723D01*
X103634701Y-70794247D01*
X103654407Y-70779632D01*
X103675450Y-70767020D01*
X103697629Y-70756530D01*
X103720728Y-70748265D01*
X103744527Y-70742304D01*
X103768795Y-70738704D01*
X103793299Y-70737500D01*
X104443301Y-70737500D01*
X104467805Y-70738704D01*
X104467805Y-70738704D01*
G37*
D15*
X104118300Y-71437500D03*
D14*
G36*
X106517805Y-70738704D02*
G01*
X106542073Y-70742304D01*
X106565872Y-70748265D01*
X106588971Y-70756530D01*
X106611150Y-70767020D01*
X106632193Y-70779632D01*
X106651899Y-70794247D01*
X106670077Y-70810723D01*
X106686553Y-70828901D01*
X106701168Y-70848607D01*
X106713780Y-70869650D01*
X106724270Y-70891829D01*
X106732535Y-70914928D01*
X106738496Y-70938727D01*
X106742096Y-70962995D01*
X106743300Y-70987499D01*
X106743300Y-71887501D01*
X106742096Y-71912005D01*
X106738496Y-71936273D01*
X106732535Y-71960072D01*
X106724270Y-71983171D01*
X106713780Y-72005350D01*
X106701168Y-72026393D01*
X106686553Y-72046099D01*
X106670077Y-72064277D01*
X106651899Y-72080753D01*
X106632193Y-72095368D01*
X106611150Y-72107980D01*
X106588971Y-72118470D01*
X106565872Y-72126735D01*
X106542073Y-72132696D01*
X106517805Y-72136296D01*
X106493301Y-72137500D01*
X105843299Y-72137500D01*
X105818795Y-72136296D01*
X105794527Y-72132696D01*
X105770728Y-72126735D01*
X105747629Y-72118470D01*
X105725450Y-72107980D01*
X105704407Y-72095368D01*
X105684701Y-72080753D01*
X105666523Y-72064277D01*
X105650047Y-72046099D01*
X105635432Y-72026393D01*
X105622820Y-72005350D01*
X105612330Y-71983171D01*
X105604065Y-71960072D01*
X105598104Y-71936273D01*
X105594504Y-71912005D01*
X105593300Y-71887501D01*
X105593300Y-70987499D01*
X105594504Y-70962995D01*
X105598104Y-70938727D01*
X105604065Y-70914928D01*
X105612330Y-70891829D01*
X105622820Y-70869650D01*
X105635432Y-70848607D01*
X105650047Y-70828901D01*
X105666523Y-70810723D01*
X105684701Y-70794247D01*
X105704407Y-70779632D01*
X105725450Y-70767020D01*
X105747629Y-70756530D01*
X105770728Y-70748265D01*
X105794527Y-70742304D01*
X105818795Y-70738704D01*
X105843299Y-70737500D01*
X106493301Y-70737500D01*
X106517805Y-70738704D01*
X106517805Y-70738704D01*
G37*
D15*
X106168300Y-71437500D03*
D14*
G36*
X104129104Y-89244404D02*
G01*
X104153373Y-89248004D01*
X104177171Y-89253965D01*
X104200271Y-89262230D01*
X104222449Y-89272720D01*
X104243493Y-89285333D01*
X104263198Y-89299947D01*
X104281377Y-89316423D01*
X104297853Y-89334602D01*
X104312467Y-89354307D01*
X104325080Y-89375351D01*
X104335570Y-89397529D01*
X104343835Y-89420629D01*
X104349796Y-89444427D01*
X104353396Y-89468696D01*
X104354600Y-89493200D01*
X104354600Y-90418200D01*
X104353396Y-90442704D01*
X104349796Y-90466973D01*
X104343835Y-90490771D01*
X104335570Y-90513871D01*
X104325080Y-90536049D01*
X104312467Y-90557093D01*
X104297853Y-90576798D01*
X104281377Y-90594977D01*
X104263198Y-90611453D01*
X104243493Y-90626067D01*
X104222449Y-90638680D01*
X104200271Y-90649170D01*
X104177171Y-90657435D01*
X104153373Y-90663396D01*
X104129104Y-90666996D01*
X104104600Y-90668200D01*
X102854600Y-90668200D01*
X102830096Y-90666996D01*
X102805827Y-90663396D01*
X102782029Y-90657435D01*
X102758929Y-90649170D01*
X102736751Y-90638680D01*
X102715707Y-90626067D01*
X102696002Y-90611453D01*
X102677823Y-90594977D01*
X102661347Y-90576798D01*
X102646733Y-90557093D01*
X102634120Y-90536049D01*
X102623630Y-90513871D01*
X102615365Y-90490771D01*
X102609404Y-90466973D01*
X102605804Y-90442704D01*
X102604600Y-90418200D01*
X102604600Y-89493200D01*
X102605804Y-89468696D01*
X102609404Y-89444427D01*
X102615365Y-89420629D01*
X102623630Y-89397529D01*
X102634120Y-89375351D01*
X102646733Y-89354307D01*
X102661347Y-89334602D01*
X102677823Y-89316423D01*
X102696002Y-89299947D01*
X102715707Y-89285333D01*
X102736751Y-89272720D01*
X102758929Y-89262230D01*
X102782029Y-89253965D01*
X102805827Y-89248004D01*
X102830096Y-89244404D01*
X102854600Y-89243200D01*
X104104600Y-89243200D01*
X104129104Y-89244404D01*
X104129104Y-89244404D01*
G37*
D16*
X103479600Y-89955700D03*
D14*
G36*
X104129104Y-86269404D02*
G01*
X104153373Y-86273004D01*
X104177171Y-86278965D01*
X104200271Y-86287230D01*
X104222449Y-86297720D01*
X104243493Y-86310333D01*
X104263198Y-86324947D01*
X104281377Y-86341423D01*
X104297853Y-86359602D01*
X104312467Y-86379307D01*
X104325080Y-86400351D01*
X104335570Y-86422529D01*
X104343835Y-86445629D01*
X104349796Y-86469427D01*
X104353396Y-86493696D01*
X104354600Y-86518200D01*
X104354600Y-87443200D01*
X104353396Y-87467704D01*
X104349796Y-87491973D01*
X104343835Y-87515771D01*
X104335570Y-87538871D01*
X104325080Y-87561049D01*
X104312467Y-87582093D01*
X104297853Y-87601798D01*
X104281377Y-87619977D01*
X104263198Y-87636453D01*
X104243493Y-87651067D01*
X104222449Y-87663680D01*
X104200271Y-87674170D01*
X104177171Y-87682435D01*
X104153373Y-87688396D01*
X104129104Y-87691996D01*
X104104600Y-87693200D01*
X102854600Y-87693200D01*
X102830096Y-87691996D01*
X102805827Y-87688396D01*
X102782029Y-87682435D01*
X102758929Y-87674170D01*
X102736751Y-87663680D01*
X102715707Y-87651067D01*
X102696002Y-87636453D01*
X102677823Y-87619977D01*
X102661347Y-87601798D01*
X102646733Y-87582093D01*
X102634120Y-87561049D01*
X102623630Y-87538871D01*
X102615365Y-87515771D01*
X102609404Y-87491973D01*
X102605804Y-87467704D01*
X102604600Y-87443200D01*
X102604600Y-86518200D01*
X102605804Y-86493696D01*
X102609404Y-86469427D01*
X102615365Y-86445629D01*
X102623630Y-86422529D01*
X102634120Y-86400351D01*
X102646733Y-86379307D01*
X102661347Y-86359602D01*
X102677823Y-86341423D01*
X102696002Y-86324947D01*
X102715707Y-86310333D01*
X102736751Y-86297720D01*
X102758929Y-86287230D01*
X102782029Y-86278965D01*
X102805827Y-86273004D01*
X102830096Y-86269404D01*
X102854600Y-86268200D01*
X104104600Y-86268200D01*
X104129104Y-86269404D01*
X104129104Y-86269404D01*
G37*
D16*
X103479600Y-86980700D03*
D14*
G36*
X103765004Y-78247204D02*
G01*
X103789273Y-78250804D01*
X103813071Y-78256765D01*
X103836171Y-78265030D01*
X103858349Y-78275520D01*
X103879393Y-78288133D01*
X103899098Y-78302747D01*
X103917277Y-78319223D01*
X103933753Y-78337402D01*
X103948367Y-78357107D01*
X103960980Y-78378151D01*
X103971470Y-78400329D01*
X103979735Y-78423429D01*
X103985696Y-78447227D01*
X103989296Y-78471496D01*
X103990500Y-78496000D01*
X103990500Y-79746000D01*
X103989296Y-79770504D01*
X103985696Y-79794773D01*
X103979735Y-79818571D01*
X103971470Y-79841671D01*
X103960980Y-79863849D01*
X103948367Y-79884893D01*
X103933753Y-79904598D01*
X103917277Y-79922777D01*
X103899098Y-79939253D01*
X103879393Y-79953867D01*
X103858349Y-79966480D01*
X103836171Y-79976970D01*
X103813071Y-79985235D01*
X103789273Y-79991196D01*
X103765004Y-79994796D01*
X103740500Y-79996000D01*
X102815500Y-79996000D01*
X102790996Y-79994796D01*
X102766727Y-79991196D01*
X102742929Y-79985235D01*
X102719829Y-79976970D01*
X102697651Y-79966480D01*
X102676607Y-79953867D01*
X102656902Y-79939253D01*
X102638723Y-79922777D01*
X102622247Y-79904598D01*
X102607633Y-79884893D01*
X102595020Y-79863849D01*
X102584530Y-79841671D01*
X102576265Y-79818571D01*
X102570304Y-79794773D01*
X102566704Y-79770504D01*
X102565500Y-79746000D01*
X102565500Y-78496000D01*
X102566704Y-78471496D01*
X102570304Y-78447227D01*
X102576265Y-78423429D01*
X102584530Y-78400329D01*
X102595020Y-78378151D01*
X102607633Y-78357107D01*
X102622247Y-78337402D01*
X102638723Y-78319223D01*
X102656902Y-78302747D01*
X102676607Y-78288133D01*
X102697651Y-78275520D01*
X102719829Y-78265030D01*
X102742929Y-78256765D01*
X102766727Y-78250804D01*
X102790996Y-78247204D01*
X102815500Y-78246000D01*
X103740500Y-78246000D01*
X103765004Y-78247204D01*
X103765004Y-78247204D01*
G37*
D16*
X103278000Y-79121000D03*
D14*
G36*
X100790004Y-78247204D02*
G01*
X100814273Y-78250804D01*
X100838071Y-78256765D01*
X100861171Y-78265030D01*
X100883349Y-78275520D01*
X100904393Y-78288133D01*
X100924098Y-78302747D01*
X100942277Y-78319223D01*
X100958753Y-78337402D01*
X100973367Y-78357107D01*
X100985980Y-78378151D01*
X100996470Y-78400329D01*
X101004735Y-78423429D01*
X101010696Y-78447227D01*
X101014296Y-78471496D01*
X101015500Y-78496000D01*
X101015500Y-79746000D01*
X101014296Y-79770504D01*
X101010696Y-79794773D01*
X101004735Y-79818571D01*
X100996470Y-79841671D01*
X100985980Y-79863849D01*
X100973367Y-79884893D01*
X100958753Y-79904598D01*
X100942277Y-79922777D01*
X100924098Y-79939253D01*
X100904393Y-79953867D01*
X100883349Y-79966480D01*
X100861171Y-79976970D01*
X100838071Y-79985235D01*
X100814273Y-79991196D01*
X100790004Y-79994796D01*
X100765500Y-79996000D01*
X99840500Y-79996000D01*
X99815996Y-79994796D01*
X99791727Y-79991196D01*
X99767929Y-79985235D01*
X99744829Y-79976970D01*
X99722651Y-79966480D01*
X99701607Y-79953867D01*
X99681902Y-79939253D01*
X99663723Y-79922777D01*
X99647247Y-79904598D01*
X99632633Y-79884893D01*
X99620020Y-79863849D01*
X99609530Y-79841671D01*
X99601265Y-79818571D01*
X99595304Y-79794773D01*
X99591704Y-79770504D01*
X99590500Y-79746000D01*
X99590500Y-78496000D01*
X99591704Y-78471496D01*
X99595304Y-78447227D01*
X99601265Y-78423429D01*
X99609530Y-78400329D01*
X99620020Y-78378151D01*
X99632633Y-78357107D01*
X99647247Y-78337402D01*
X99663723Y-78319223D01*
X99681902Y-78302747D01*
X99701607Y-78288133D01*
X99722651Y-78275520D01*
X99744829Y-78265030D01*
X99767929Y-78256765D01*
X99791727Y-78250804D01*
X99815996Y-78247204D01*
X99840500Y-78246000D01*
X100765500Y-78246000D01*
X100790004Y-78247204D01*
X100790004Y-78247204D01*
G37*
D16*
X100303000Y-79121000D03*
D17*
X83184500Y-87409500D03*
X83184500Y-88059500D03*
X83184500Y-88709500D03*
X83184500Y-89359500D03*
X83184500Y-90009500D03*
D18*
X82824500Y-86247000D03*
X82824500Y-91172000D03*
D19*
X80524500Y-85799500D03*
X80524500Y-91619500D03*
D20*
X80524500Y-87869500D03*
X80524500Y-89549500D03*
D21*
X105362000Y-75311000D03*
X105362000Y-76581000D03*
X105362000Y-77851000D03*
X105362000Y-79121000D03*
X105362000Y-80391000D03*
X105362000Y-81661000D03*
X105362000Y-82931000D03*
X105362000Y-84201000D03*
X110762000Y-84201000D03*
X110762000Y-82931000D03*
X110762000Y-81661000D03*
X110762000Y-80391000D03*
X110762000Y-79121000D03*
X110762000Y-77851000D03*
X110762000Y-76581000D03*
X110762000Y-75311000D03*
D22*
X114744500Y-84566000D03*
X113794500Y-82566000D03*
X115694500Y-82566000D03*
X113794500Y-77073000D03*
X115694500Y-77073000D03*
X114744500Y-75073000D03*
D14*
G36*
X114069005Y-80073204D02*
G01*
X114093273Y-80076804D01*
X114117072Y-80082765D01*
X114140171Y-80091030D01*
X114162350Y-80101520D01*
X114183393Y-80114132D01*
X114203099Y-80128747D01*
X114221277Y-80145223D01*
X114237753Y-80163401D01*
X114252368Y-80183107D01*
X114264980Y-80204150D01*
X114275470Y-80226329D01*
X114283735Y-80249428D01*
X114289696Y-80273227D01*
X114293296Y-80297495D01*
X114294500Y-80321999D01*
X114294500Y-81222001D01*
X114293296Y-81246505D01*
X114289696Y-81270773D01*
X114283735Y-81294572D01*
X114275470Y-81317671D01*
X114264980Y-81339850D01*
X114252368Y-81360893D01*
X114237753Y-81380599D01*
X114221277Y-81398777D01*
X114203099Y-81415253D01*
X114183393Y-81429868D01*
X114162350Y-81442480D01*
X114140171Y-81452970D01*
X114117072Y-81461235D01*
X114093273Y-81467196D01*
X114069005Y-81470796D01*
X114044501Y-81472000D01*
X113394499Y-81472000D01*
X113369995Y-81470796D01*
X113345727Y-81467196D01*
X113321928Y-81461235D01*
X113298829Y-81452970D01*
X113276650Y-81442480D01*
X113255607Y-81429868D01*
X113235901Y-81415253D01*
X113217723Y-81398777D01*
X113201247Y-81380599D01*
X113186632Y-81360893D01*
X113174020Y-81339850D01*
X113163530Y-81317671D01*
X113155265Y-81294572D01*
X113149304Y-81270773D01*
X113145704Y-81246505D01*
X113144500Y-81222001D01*
X113144500Y-80321999D01*
X113145704Y-80297495D01*
X113149304Y-80273227D01*
X113155265Y-80249428D01*
X113163530Y-80226329D01*
X113174020Y-80204150D01*
X113186632Y-80183107D01*
X113201247Y-80163401D01*
X113217723Y-80145223D01*
X113235901Y-80128747D01*
X113255607Y-80114132D01*
X113276650Y-80101520D01*
X113298829Y-80091030D01*
X113321928Y-80082765D01*
X113345727Y-80076804D01*
X113369995Y-80073204D01*
X113394499Y-80072000D01*
X114044501Y-80072000D01*
X114069005Y-80073204D01*
X114069005Y-80073204D01*
G37*
D15*
X113719500Y-80772000D03*
D14*
G36*
X116119005Y-80073204D02*
G01*
X116143273Y-80076804D01*
X116167072Y-80082765D01*
X116190171Y-80091030D01*
X116212350Y-80101520D01*
X116233393Y-80114132D01*
X116253099Y-80128747D01*
X116271277Y-80145223D01*
X116287753Y-80163401D01*
X116302368Y-80183107D01*
X116314980Y-80204150D01*
X116325470Y-80226329D01*
X116333735Y-80249428D01*
X116339696Y-80273227D01*
X116343296Y-80297495D01*
X116344500Y-80321999D01*
X116344500Y-81222001D01*
X116343296Y-81246505D01*
X116339696Y-81270773D01*
X116333735Y-81294572D01*
X116325470Y-81317671D01*
X116314980Y-81339850D01*
X116302368Y-81360893D01*
X116287753Y-81380599D01*
X116271277Y-81398777D01*
X116253099Y-81415253D01*
X116233393Y-81429868D01*
X116212350Y-81442480D01*
X116190171Y-81452970D01*
X116167072Y-81461235D01*
X116143273Y-81467196D01*
X116119005Y-81470796D01*
X116094501Y-81472000D01*
X115444499Y-81472000D01*
X115419995Y-81470796D01*
X115395727Y-81467196D01*
X115371928Y-81461235D01*
X115348829Y-81452970D01*
X115326650Y-81442480D01*
X115305607Y-81429868D01*
X115285901Y-81415253D01*
X115267723Y-81398777D01*
X115251247Y-81380599D01*
X115236632Y-81360893D01*
X115224020Y-81339850D01*
X115213530Y-81317671D01*
X115205265Y-81294572D01*
X115199304Y-81270773D01*
X115195704Y-81246505D01*
X115194500Y-81222001D01*
X115194500Y-80321999D01*
X115195704Y-80297495D01*
X115199304Y-80273227D01*
X115205265Y-80249428D01*
X115213530Y-80226329D01*
X115224020Y-80204150D01*
X115236632Y-80183107D01*
X115251247Y-80163401D01*
X115267723Y-80145223D01*
X115285901Y-80128747D01*
X115305607Y-80114132D01*
X115326650Y-80101520D01*
X115348829Y-80091030D01*
X115371928Y-80082765D01*
X115395727Y-80076804D01*
X115419995Y-80073204D01*
X115444499Y-80072000D01*
X116094501Y-80072000D01*
X116119005Y-80073204D01*
X116119005Y-80073204D01*
G37*
D15*
X115769500Y-80772000D03*
D14*
G36*
X112942904Y-89244404D02*
G01*
X112967173Y-89248004D01*
X112990971Y-89253965D01*
X113014071Y-89262230D01*
X113036249Y-89272720D01*
X113057293Y-89285333D01*
X113076998Y-89299947D01*
X113095177Y-89316423D01*
X113111653Y-89334602D01*
X113126267Y-89354307D01*
X113138880Y-89375351D01*
X113149370Y-89397529D01*
X113157635Y-89420629D01*
X113163596Y-89444427D01*
X113167196Y-89468696D01*
X113168400Y-89493200D01*
X113168400Y-90418200D01*
X113167196Y-90442704D01*
X113163596Y-90466973D01*
X113157635Y-90490771D01*
X113149370Y-90513871D01*
X113138880Y-90536049D01*
X113126267Y-90557093D01*
X113111653Y-90576798D01*
X113095177Y-90594977D01*
X113076998Y-90611453D01*
X113057293Y-90626067D01*
X113036249Y-90638680D01*
X113014071Y-90649170D01*
X112990971Y-90657435D01*
X112967173Y-90663396D01*
X112942904Y-90666996D01*
X112918400Y-90668200D01*
X111668400Y-90668200D01*
X111643896Y-90666996D01*
X111619627Y-90663396D01*
X111595829Y-90657435D01*
X111572729Y-90649170D01*
X111550551Y-90638680D01*
X111529507Y-90626067D01*
X111509802Y-90611453D01*
X111491623Y-90594977D01*
X111475147Y-90576798D01*
X111460533Y-90557093D01*
X111447920Y-90536049D01*
X111437430Y-90513871D01*
X111429165Y-90490771D01*
X111423204Y-90466973D01*
X111419604Y-90442704D01*
X111418400Y-90418200D01*
X111418400Y-89493200D01*
X111419604Y-89468696D01*
X111423204Y-89444427D01*
X111429165Y-89420629D01*
X111437430Y-89397529D01*
X111447920Y-89375351D01*
X111460533Y-89354307D01*
X111475147Y-89334602D01*
X111491623Y-89316423D01*
X111509802Y-89299947D01*
X111529507Y-89285333D01*
X111550551Y-89272720D01*
X111572729Y-89262230D01*
X111595829Y-89253965D01*
X111619627Y-89248004D01*
X111643896Y-89244404D01*
X111668400Y-89243200D01*
X112918400Y-89243200D01*
X112942904Y-89244404D01*
X112942904Y-89244404D01*
G37*
D16*
X112293400Y-89955700D03*
D14*
G36*
X112942904Y-86269404D02*
G01*
X112967173Y-86273004D01*
X112990971Y-86278965D01*
X113014071Y-86287230D01*
X113036249Y-86297720D01*
X113057293Y-86310333D01*
X113076998Y-86324947D01*
X113095177Y-86341423D01*
X113111653Y-86359602D01*
X113126267Y-86379307D01*
X113138880Y-86400351D01*
X113149370Y-86422529D01*
X113157635Y-86445629D01*
X113163596Y-86469427D01*
X113167196Y-86493696D01*
X113168400Y-86518200D01*
X113168400Y-87443200D01*
X113167196Y-87467704D01*
X113163596Y-87491973D01*
X113157635Y-87515771D01*
X113149370Y-87538871D01*
X113138880Y-87561049D01*
X113126267Y-87582093D01*
X113111653Y-87601798D01*
X113095177Y-87619977D01*
X113076998Y-87636453D01*
X113057293Y-87651067D01*
X113036249Y-87663680D01*
X113014071Y-87674170D01*
X112990971Y-87682435D01*
X112967173Y-87688396D01*
X112942904Y-87691996D01*
X112918400Y-87693200D01*
X111668400Y-87693200D01*
X111643896Y-87691996D01*
X111619627Y-87688396D01*
X111595829Y-87682435D01*
X111572729Y-87674170D01*
X111550551Y-87663680D01*
X111529507Y-87651067D01*
X111509802Y-87636453D01*
X111491623Y-87619977D01*
X111475147Y-87601798D01*
X111460533Y-87582093D01*
X111447920Y-87561049D01*
X111437430Y-87538871D01*
X111429165Y-87515771D01*
X111423204Y-87491973D01*
X111419604Y-87467704D01*
X111418400Y-87443200D01*
X111418400Y-86518200D01*
X111419604Y-86493696D01*
X111423204Y-86469427D01*
X111429165Y-86445629D01*
X111437430Y-86422529D01*
X111447920Y-86400351D01*
X111460533Y-86379307D01*
X111475147Y-86359602D01*
X111491623Y-86341423D01*
X111509802Y-86324947D01*
X111529507Y-86310333D01*
X111550551Y-86297720D01*
X111572729Y-86287230D01*
X111595829Y-86278965D01*
X111619627Y-86273004D01*
X111643896Y-86269404D01*
X111668400Y-86268200D01*
X112918400Y-86268200D01*
X112942904Y-86269404D01*
X112942904Y-86269404D01*
G37*
D16*
X112293400Y-86980700D03*
D14*
G36*
X111267504Y-72329004D02*
G01*
X111291773Y-72332604D01*
X111315571Y-72338565D01*
X111338671Y-72346830D01*
X111360849Y-72357320D01*
X111381893Y-72369933D01*
X111401598Y-72384547D01*
X111419777Y-72401023D01*
X111436253Y-72419202D01*
X111450867Y-72438907D01*
X111463480Y-72459951D01*
X111473970Y-72482129D01*
X111482235Y-72505229D01*
X111488196Y-72529027D01*
X111491796Y-72553296D01*
X111493000Y-72577800D01*
X111493000Y-73827800D01*
X111491796Y-73852304D01*
X111488196Y-73876573D01*
X111482235Y-73900371D01*
X111473970Y-73923471D01*
X111463480Y-73945649D01*
X111450867Y-73966693D01*
X111436253Y-73986398D01*
X111419777Y-74004577D01*
X111401598Y-74021053D01*
X111381893Y-74035667D01*
X111360849Y-74048280D01*
X111338671Y-74058770D01*
X111315571Y-74067035D01*
X111291773Y-74072996D01*
X111267504Y-74076596D01*
X111243000Y-74077800D01*
X110318000Y-74077800D01*
X110293496Y-74076596D01*
X110269227Y-74072996D01*
X110245429Y-74067035D01*
X110222329Y-74058770D01*
X110200151Y-74048280D01*
X110179107Y-74035667D01*
X110159402Y-74021053D01*
X110141223Y-74004577D01*
X110124747Y-73986398D01*
X110110133Y-73966693D01*
X110097520Y-73945649D01*
X110087030Y-73923471D01*
X110078765Y-73900371D01*
X110072804Y-73876573D01*
X110069204Y-73852304D01*
X110068000Y-73827800D01*
X110068000Y-72577800D01*
X110069204Y-72553296D01*
X110072804Y-72529027D01*
X110078765Y-72505229D01*
X110087030Y-72482129D01*
X110097520Y-72459951D01*
X110110133Y-72438907D01*
X110124747Y-72419202D01*
X110141223Y-72401023D01*
X110159402Y-72384547D01*
X110179107Y-72369933D01*
X110200151Y-72357320D01*
X110222329Y-72346830D01*
X110245429Y-72338565D01*
X110269227Y-72332604D01*
X110293496Y-72329004D01*
X110318000Y-72327800D01*
X111243000Y-72327800D01*
X111267504Y-72329004D01*
X111267504Y-72329004D01*
G37*
D16*
X110780500Y-73202800D03*
D14*
G36*
X114242504Y-72329004D02*
G01*
X114266773Y-72332604D01*
X114290571Y-72338565D01*
X114313671Y-72346830D01*
X114335849Y-72357320D01*
X114356893Y-72369933D01*
X114376598Y-72384547D01*
X114394777Y-72401023D01*
X114411253Y-72419202D01*
X114425867Y-72438907D01*
X114438480Y-72459951D01*
X114448970Y-72482129D01*
X114457235Y-72505229D01*
X114463196Y-72529027D01*
X114466796Y-72553296D01*
X114468000Y-72577800D01*
X114468000Y-73827800D01*
X114466796Y-73852304D01*
X114463196Y-73876573D01*
X114457235Y-73900371D01*
X114448970Y-73923471D01*
X114438480Y-73945649D01*
X114425867Y-73966693D01*
X114411253Y-73986398D01*
X114394777Y-74004577D01*
X114376598Y-74021053D01*
X114356893Y-74035667D01*
X114335849Y-74048280D01*
X114313671Y-74058770D01*
X114290571Y-74067035D01*
X114266773Y-74072996D01*
X114242504Y-74076596D01*
X114218000Y-74077800D01*
X113293000Y-74077800D01*
X113268496Y-74076596D01*
X113244227Y-74072996D01*
X113220429Y-74067035D01*
X113197329Y-74058770D01*
X113175151Y-74048280D01*
X113154107Y-74035667D01*
X113134402Y-74021053D01*
X113116223Y-74004577D01*
X113099747Y-73986398D01*
X113085133Y-73966693D01*
X113072520Y-73945649D01*
X113062030Y-73923471D01*
X113053765Y-73900371D01*
X113047804Y-73876573D01*
X113044204Y-73852304D01*
X113043000Y-73827800D01*
X113043000Y-72577800D01*
X113044204Y-72553296D01*
X113047804Y-72529027D01*
X113053765Y-72505229D01*
X113062030Y-72482129D01*
X113072520Y-72459951D01*
X113085133Y-72438907D01*
X113099747Y-72419202D01*
X113116223Y-72401023D01*
X113134402Y-72384547D01*
X113154107Y-72369933D01*
X113175151Y-72357320D01*
X113197329Y-72346830D01*
X113220429Y-72338565D01*
X113244227Y-72332604D01*
X113268496Y-72329004D01*
X113293000Y-72327800D01*
X114218000Y-72327800D01*
X114242504Y-72329004D01*
X114242504Y-72329004D01*
G37*
D16*
X113755500Y-73202800D03*
D14*
G36*
X100780504Y-74881704D02*
G01*
X100804773Y-74885304D01*
X100828571Y-74891265D01*
X100851671Y-74899530D01*
X100873849Y-74910020D01*
X100894893Y-74922633D01*
X100914598Y-74937247D01*
X100932777Y-74953723D01*
X100949253Y-74971902D01*
X100963867Y-74991607D01*
X100976480Y-75012651D01*
X100986970Y-75034829D01*
X100995235Y-75057929D01*
X101001196Y-75081727D01*
X101004796Y-75105996D01*
X101006000Y-75130500D01*
X101006000Y-76380500D01*
X101004796Y-76405004D01*
X101001196Y-76429273D01*
X100995235Y-76453071D01*
X100986970Y-76476171D01*
X100976480Y-76498349D01*
X100963867Y-76519393D01*
X100949253Y-76539098D01*
X100932777Y-76557277D01*
X100914598Y-76573753D01*
X100894893Y-76588367D01*
X100873849Y-76600980D01*
X100851671Y-76611470D01*
X100828571Y-76619735D01*
X100804773Y-76625696D01*
X100780504Y-76629296D01*
X100756000Y-76630500D01*
X99831000Y-76630500D01*
X99806496Y-76629296D01*
X99782227Y-76625696D01*
X99758429Y-76619735D01*
X99735329Y-76611470D01*
X99713151Y-76600980D01*
X99692107Y-76588367D01*
X99672402Y-76573753D01*
X99654223Y-76557277D01*
X99637747Y-76539098D01*
X99623133Y-76519393D01*
X99610520Y-76498349D01*
X99600030Y-76476171D01*
X99591765Y-76453071D01*
X99585804Y-76429273D01*
X99582204Y-76405004D01*
X99581000Y-76380500D01*
X99581000Y-75130500D01*
X99582204Y-75105996D01*
X99585804Y-75081727D01*
X99591765Y-75057929D01*
X99600030Y-75034829D01*
X99610520Y-75012651D01*
X99623133Y-74991607D01*
X99637747Y-74971902D01*
X99654223Y-74953723D01*
X99672402Y-74937247D01*
X99692107Y-74922633D01*
X99713151Y-74910020D01*
X99735329Y-74899530D01*
X99758429Y-74891265D01*
X99782227Y-74885304D01*
X99806496Y-74881704D01*
X99831000Y-74880500D01*
X100756000Y-74880500D01*
X100780504Y-74881704D01*
X100780504Y-74881704D01*
G37*
D16*
X100293500Y-75755500D03*
D14*
G36*
X97805504Y-74881704D02*
G01*
X97829773Y-74885304D01*
X97853571Y-74891265D01*
X97876671Y-74899530D01*
X97898849Y-74910020D01*
X97919893Y-74922633D01*
X97939598Y-74937247D01*
X97957777Y-74953723D01*
X97974253Y-74971902D01*
X97988867Y-74991607D01*
X98001480Y-75012651D01*
X98011970Y-75034829D01*
X98020235Y-75057929D01*
X98026196Y-75081727D01*
X98029796Y-75105996D01*
X98031000Y-75130500D01*
X98031000Y-76380500D01*
X98029796Y-76405004D01*
X98026196Y-76429273D01*
X98020235Y-76453071D01*
X98011970Y-76476171D01*
X98001480Y-76498349D01*
X97988867Y-76519393D01*
X97974253Y-76539098D01*
X97957777Y-76557277D01*
X97939598Y-76573753D01*
X97919893Y-76588367D01*
X97898849Y-76600980D01*
X97876671Y-76611470D01*
X97853571Y-76619735D01*
X97829773Y-76625696D01*
X97805504Y-76629296D01*
X97781000Y-76630500D01*
X96856000Y-76630500D01*
X96831496Y-76629296D01*
X96807227Y-76625696D01*
X96783429Y-76619735D01*
X96760329Y-76611470D01*
X96738151Y-76600980D01*
X96717107Y-76588367D01*
X96697402Y-76573753D01*
X96679223Y-76557277D01*
X96662747Y-76539098D01*
X96648133Y-76519393D01*
X96635520Y-76498349D01*
X96625030Y-76476171D01*
X96616765Y-76453071D01*
X96610804Y-76429273D01*
X96607204Y-76405004D01*
X96606000Y-76380500D01*
X96606000Y-75130500D01*
X96607204Y-75105996D01*
X96610804Y-75081727D01*
X96616765Y-75057929D01*
X96625030Y-75034829D01*
X96635520Y-75012651D01*
X96648133Y-74991607D01*
X96662747Y-74971902D01*
X96679223Y-74953723D01*
X96697402Y-74937247D01*
X96717107Y-74922633D01*
X96738151Y-74910020D01*
X96760329Y-74899530D01*
X96783429Y-74891265D01*
X96807227Y-74885304D01*
X96831496Y-74881704D01*
X96856000Y-74880500D01*
X97781000Y-74880500D01*
X97805504Y-74881704D01*
X97805504Y-74881704D01*
G37*
D16*
X97318500Y-75755500D03*
D14*
G36*
X90709004Y-69898704D02*
G01*
X90733273Y-69902304D01*
X90757071Y-69908265D01*
X90780171Y-69916530D01*
X90802349Y-69927020D01*
X90823393Y-69939633D01*
X90843098Y-69954247D01*
X90861277Y-69970723D01*
X90877753Y-69988902D01*
X90892367Y-70008607D01*
X90904980Y-70029651D01*
X90915470Y-70051829D01*
X90923735Y-70074929D01*
X90929696Y-70098727D01*
X90933296Y-70122996D01*
X90934500Y-70147500D01*
X90934500Y-72847500D01*
X90933296Y-72872004D01*
X90929696Y-72896273D01*
X90923735Y-72920071D01*
X90915470Y-72943171D01*
X90904980Y-72965349D01*
X90892367Y-72986393D01*
X90877753Y-73006098D01*
X90861277Y-73024277D01*
X90843098Y-73040753D01*
X90823393Y-73055367D01*
X90802349Y-73067980D01*
X90780171Y-73078470D01*
X90757071Y-73086735D01*
X90733273Y-73092696D01*
X90709004Y-73096296D01*
X90684500Y-73097500D01*
X86734500Y-73097500D01*
X86709996Y-73096296D01*
X86685727Y-73092696D01*
X86661929Y-73086735D01*
X86638829Y-73078470D01*
X86616651Y-73067980D01*
X86595607Y-73055367D01*
X86575902Y-73040753D01*
X86557723Y-73024277D01*
X86541247Y-73006098D01*
X86526633Y-72986393D01*
X86514020Y-72965349D01*
X86503530Y-72943171D01*
X86495265Y-72920071D01*
X86489304Y-72896273D01*
X86485704Y-72872004D01*
X86484500Y-72847500D01*
X86484500Y-70147500D01*
X86485704Y-70122996D01*
X86489304Y-70098727D01*
X86495265Y-70074929D01*
X86503530Y-70051829D01*
X86514020Y-70029651D01*
X86526633Y-70008607D01*
X86541247Y-69988902D01*
X86557723Y-69970723D01*
X86575902Y-69954247D01*
X86595607Y-69939633D01*
X86616651Y-69927020D01*
X86638829Y-69916530D01*
X86661929Y-69908265D01*
X86685727Y-69902304D01*
X86709996Y-69898704D01*
X86734500Y-69897500D01*
X90684500Y-69897500D01*
X90709004Y-69898704D01*
X90709004Y-69898704D01*
G37*
D23*
X88709500Y-71497500D03*
D14*
G36*
X90709004Y-64698704D02*
G01*
X90733273Y-64702304D01*
X90757071Y-64708265D01*
X90780171Y-64716530D01*
X90802349Y-64727020D01*
X90823393Y-64739633D01*
X90843098Y-64754247D01*
X90861277Y-64770723D01*
X90877753Y-64788902D01*
X90892367Y-64808607D01*
X90904980Y-64829651D01*
X90915470Y-64851829D01*
X90923735Y-64874929D01*
X90929696Y-64898727D01*
X90933296Y-64922996D01*
X90934500Y-64947500D01*
X90934500Y-67647500D01*
X90933296Y-67672004D01*
X90929696Y-67696273D01*
X90923735Y-67720071D01*
X90915470Y-67743171D01*
X90904980Y-67765349D01*
X90892367Y-67786393D01*
X90877753Y-67806098D01*
X90861277Y-67824277D01*
X90843098Y-67840753D01*
X90823393Y-67855367D01*
X90802349Y-67867980D01*
X90780171Y-67878470D01*
X90757071Y-67886735D01*
X90733273Y-67892696D01*
X90709004Y-67896296D01*
X90684500Y-67897500D01*
X86734500Y-67897500D01*
X86709996Y-67896296D01*
X86685727Y-67892696D01*
X86661929Y-67886735D01*
X86638829Y-67878470D01*
X86616651Y-67867980D01*
X86595607Y-67855367D01*
X86575902Y-67840753D01*
X86557723Y-67824277D01*
X86541247Y-67806098D01*
X86526633Y-67786393D01*
X86514020Y-67765349D01*
X86503530Y-67743171D01*
X86495265Y-67720071D01*
X86489304Y-67696273D01*
X86485704Y-67672004D01*
X86484500Y-67647500D01*
X86484500Y-64947500D01*
X86485704Y-64922996D01*
X86489304Y-64898727D01*
X86495265Y-64874929D01*
X86503530Y-64851829D01*
X86514020Y-64829651D01*
X86526633Y-64808607D01*
X86541247Y-64788902D01*
X86557723Y-64770723D01*
X86575902Y-64754247D01*
X86595607Y-64739633D01*
X86616651Y-64727020D01*
X86638829Y-64716530D01*
X86661929Y-64708265D01*
X86685727Y-64702304D01*
X86709996Y-64698704D01*
X86734500Y-64697500D01*
X90684500Y-64697500D01*
X90709004Y-64698704D01*
X90709004Y-64698704D01*
G37*
D23*
X88709500Y-66297500D03*
D24*
X94932500Y-66382500D03*
D25*
X94932500Y-72682500D03*
X97232500Y-72682500D03*
X92632500Y-72682500D03*
M02*
