M48
; DRILL file {KiCad (5.1.2-1)-1} date 2019 October 05, Saturday 22:59:41
; FORMAT={-:-/ absolute / metric / decimal}
; #@! TF.CreationDate,2019-10-05T22:59:41+03:00
; #@! TF.GenerationSoftware,Kicad,Pcbnew,(5.1.2-1)-1
FMAT,2
METRIC
T1C0.400
T2C0.950
T3C1.000
T4C1.100
%
G90
G05
T1
X89.916Y-74.168
X95.758Y-85.344
X97.0Y-68.5
X102.552Y-72.39
X102.616Y-74.422
X112.735Y-83.757
X113.602Y-75.057
X117.919Y-71.374
X120.904Y-88.773
X120.98Y-80.899
X123.444Y-70.891
X125.501Y-70.891
X125.501Y-72.009
T2
X83.121Y-70.675
X83.121Y-73.175
X83.121Y-75.675
X83.121Y-78.175
X83.121Y-80.675
T4
X129.286Y-67.285
X129.286Y-69.825
X129.286Y-87.376
X129.286Y-89.916
X129.286Y-73.999
X129.286Y-76.539
X129.286Y-80.772
X129.286Y-83.312
T3
G00X90.63Y-83.312
M15
G01X92.63Y-83.312
M16
G05
G00X90.63Y-89.312
M15
G01X92.63Y-89.312
M16
G05
T0
M30
