G04 #@! TF.GenerationSoftware,KiCad,Pcbnew,(5.1.2-1)-1*
G04 #@! TF.CreationDate,2019-10-05T22:58:12+03:00*
G04 #@! TF.ProjectId,curtains-driver,63757274-6169-46e7-932d-647269766572,rev?*
G04 #@! TF.SameCoordinates,Original*
G04 #@! TF.FileFunction,Legend,Bot*
G04 #@! TF.FilePolarity,Positive*
%FSLAX46Y46*%
G04 Gerber Fmt 4.6, Leading zero omitted, Abs format (unit mm)*
G04 Created by KiCad (PCBNEW (5.1.2-1)-1) date 2019-10-05 22:58:12*
%MOMM*%
%LPD*%
G04 APERTURE LIST*
%ADD10C,0.150000*%
%ADD11C,0.152400*%
%ADD12C,0.120000*%
G04 APERTURE END LIST*
D10*
X107656380Y-73612952D02*
X108370666Y-73612952D01*
X108513523Y-73565333D01*
X108608761Y-73470095D01*
X108656380Y-73327238D01*
X108656380Y-73232000D01*
X108656380Y-74565333D02*
X108656380Y-74089142D01*
X107656380Y-74089142D01*
X108561142Y-75470095D02*
X108608761Y-75422476D01*
X108656380Y-75279619D01*
X108656380Y-75184380D01*
X108608761Y-75041523D01*
X108513523Y-74946285D01*
X108418285Y-74898666D01*
X108227809Y-74851047D01*
X108084952Y-74851047D01*
X107894476Y-74898666D01*
X107799238Y-74946285D01*
X107704000Y-75041523D01*
X107656380Y-75184380D01*
X107656380Y-75279619D01*
X107704000Y-75422476D01*
X107751619Y-75470095D01*
X107656380Y-76184380D02*
X108370666Y-76184380D01*
X108513523Y-76136761D01*
X108608761Y-76041523D01*
X108656380Y-75898666D01*
X108656380Y-75803428D01*
X108656380Y-77136761D02*
X108656380Y-76660571D01*
X107656380Y-76660571D01*
X108561142Y-78041523D02*
X108608761Y-77993904D01*
X108656380Y-77851047D01*
X108656380Y-77755809D01*
X108608761Y-77612952D01*
X108513523Y-77517714D01*
X108418285Y-77470095D01*
X108227809Y-77422476D01*
X108084952Y-77422476D01*
X107894476Y-77470095D01*
X107799238Y-77517714D01*
X107704000Y-77612952D01*
X107656380Y-77755809D01*
X107656380Y-77851047D01*
X107704000Y-77993904D01*
X107751619Y-78041523D01*
X107656380Y-78755809D02*
X108370666Y-78755809D01*
X108513523Y-78708190D01*
X108608761Y-78612952D01*
X108656380Y-78470095D01*
X108656380Y-78374857D01*
X108656380Y-79708190D02*
X108656380Y-79232000D01*
X107656380Y-79232000D01*
X108561142Y-80612952D02*
X108608761Y-80565333D01*
X108656380Y-80422476D01*
X108656380Y-80327238D01*
X108608761Y-80184380D01*
X108513523Y-80089142D01*
X108418285Y-80041523D01*
X108227809Y-79993904D01*
X108084952Y-79993904D01*
X107894476Y-80041523D01*
X107799238Y-80089142D01*
X107704000Y-80184380D01*
X107656380Y-80327238D01*
X107656380Y-80422476D01*
X107704000Y-80565333D01*
X107751619Y-80612952D01*
X107656380Y-81327238D02*
X108370666Y-81327238D01*
X108513523Y-81279619D01*
X108608761Y-81184380D01*
X108656380Y-81041523D01*
X108656380Y-80946285D01*
X108656380Y-82279619D02*
X108656380Y-81803428D01*
X107656380Y-81803428D01*
X108561142Y-83184380D02*
X108608761Y-83136761D01*
X108656380Y-82993904D01*
X108656380Y-82898666D01*
X108608761Y-82755809D01*
X108513523Y-82660571D01*
X108418285Y-82612952D01*
X108227809Y-82565333D01*
X108084952Y-82565333D01*
X107894476Y-82612952D01*
X107799238Y-82660571D01*
X107704000Y-82755809D01*
X107656380Y-82898666D01*
X107656380Y-82993904D01*
X107704000Y-83136761D01*
X107751619Y-83184380D01*
X134000000Y-63754000D02*
X134000000Y-93500000D01*
X78968600Y-63754000D02*
X78968600Y-93472000D01*
X134000000Y-93500000D02*
X78968600Y-93472000D01*
X78968600Y-63754000D02*
X134000000Y-63754000D01*
D11*
X100076000Y-88007500D02*
X100076000Y-87245500D01*
X116078000Y-88007500D02*
X100076000Y-88007500D01*
X116078000Y-87245500D02*
X116078000Y-88007500D01*
D12*
X122285000Y-75150248D02*
X122285000Y-75672752D01*
X120865000Y-75150248D02*
X120865000Y-75672752D01*
X96290000Y-71622752D02*
X96290000Y-71100248D01*
X97710000Y-71622752D02*
X97710000Y-71100248D01*
X117835000Y-75271936D02*
X117835000Y-76476064D01*
X119655000Y-75271936D02*
X119655000Y-76476064D01*
X114852000Y-90355336D02*
X114852000Y-91559464D01*
X116672000Y-90355336D02*
X116672000Y-91559464D01*
X96512748Y-82142400D02*
X97035252Y-82142400D01*
X96512748Y-80722400D02*
X97035252Y-80722400D01*
X96512748Y-82721400D02*
X97035252Y-82721400D01*
X96512748Y-84141400D02*
X97035252Y-84141400D01*
X98500000Y-86621252D02*
X98500000Y-86098748D01*
X97080000Y-86621252D02*
X97080000Y-86098748D01*
X126059000Y-89654748D02*
X126059000Y-90177252D01*
X124639000Y-89654748D02*
X124639000Y-90177252D01*
X126440000Y-77824918D02*
X126440000Y-77302414D01*
X125020000Y-77824918D02*
X125020000Y-77302414D01*
X122988000Y-77824918D02*
X122988000Y-77302414D01*
X124408000Y-77824918D02*
X124408000Y-77302414D01*
X120344000Y-71622752D02*
X120344000Y-71100248D01*
X118924000Y-71622752D02*
X118924000Y-71100248D01*
X120869500Y-71113748D02*
X120869500Y-71636252D01*
X122289500Y-71113748D02*
X122289500Y-71636252D01*
X124235000Y-73622752D02*
X124235000Y-73100248D01*
X122815000Y-73622752D02*
X122815000Y-73100248D01*
X117835000Y-85271936D02*
X117835000Y-86476064D01*
X119655000Y-85271936D02*
X119655000Y-86476064D01*
X119655000Y-81501064D02*
X119655000Y-80296936D01*
X117835000Y-81501064D02*
X117835000Y-80296936D01*
D10*
X93199000Y-69746500D02*
X93199000Y-70021500D01*
X87649000Y-69746500D02*
X87649000Y-70101500D01*
X87649000Y-80296500D02*
X87649000Y-79941500D01*
X93199000Y-80296500D02*
X93199000Y-79941500D01*
X93199000Y-69746500D02*
X87649000Y-69746500D01*
X93199000Y-80296500D02*
X87649000Y-80296500D01*
X93199000Y-70021500D02*
X94724000Y-70021500D01*
X108965904Y-88606380D02*
X108965904Y-89415904D01*
X108918285Y-89511142D01*
X108870666Y-89558761D01*
X108775428Y-89606380D01*
X108584952Y-89606380D01*
X108489714Y-89558761D01*
X108442095Y-89511142D01*
X108394476Y-89415904D01*
X108394476Y-88606380D01*
X107394476Y-89606380D02*
X107965904Y-89606380D01*
X107680190Y-89606380D02*
X107680190Y-88606380D01*
X107775428Y-88749238D01*
X107870666Y-88844476D01*
X107965904Y-88892095D01*
X122118380Y-78097142D02*
X121642190Y-77763809D01*
X122118380Y-77525714D02*
X121118380Y-77525714D01*
X121118380Y-77906666D01*
X121166000Y-78001904D01*
X121213619Y-78049523D01*
X121308857Y-78097142D01*
X121451714Y-78097142D01*
X121546952Y-78049523D01*
X121594571Y-78001904D01*
X121642190Y-77906666D01*
X121642190Y-77525714D01*
X122118380Y-79049523D02*
X122118380Y-78478095D01*
X122118380Y-78763809D02*
X121118380Y-78763809D01*
X121261238Y-78668571D01*
X121356476Y-78573333D01*
X121404095Y-78478095D01*
X121118380Y-79954285D02*
X121118380Y-79478095D01*
X121594571Y-79430476D01*
X121546952Y-79478095D01*
X121499333Y-79573333D01*
X121499333Y-79811428D01*
X121546952Y-79906666D01*
X121594571Y-79954285D01*
X121689809Y-80001904D01*
X121927904Y-80001904D01*
X122023142Y-79954285D01*
X122070761Y-79906666D01*
X122118380Y-79811428D01*
X122118380Y-79573333D01*
X122070761Y-79478095D01*
X122023142Y-79430476D01*
X95826780Y-70592642D02*
X95350590Y-70259309D01*
X95826780Y-70021214D02*
X94826780Y-70021214D01*
X94826780Y-70402166D01*
X94874400Y-70497404D01*
X94922019Y-70545023D01*
X95017257Y-70592642D01*
X95160114Y-70592642D01*
X95255352Y-70545023D01*
X95302971Y-70497404D01*
X95350590Y-70402166D01*
X95350590Y-70021214D01*
X95826780Y-71545023D02*
X95826780Y-70973595D01*
X95826780Y-71259309D02*
X94826780Y-71259309D01*
X94969638Y-71164071D01*
X95064876Y-71068833D01*
X95112495Y-70973595D01*
X95160114Y-72402166D02*
X95826780Y-72402166D01*
X94779161Y-72164071D02*
X95493447Y-71925976D01*
X95493447Y-72545023D01*
X118467142Y-71969333D02*
X118514761Y-71921714D01*
X118562380Y-71778857D01*
X118562380Y-71683619D01*
X118514761Y-71540761D01*
X118419523Y-71445523D01*
X118324285Y-71397904D01*
X118133809Y-71350285D01*
X117990952Y-71350285D01*
X117800476Y-71397904D01*
X117705238Y-71445523D01*
X117610000Y-71540761D01*
X117562380Y-71683619D01*
X117562380Y-71778857D01*
X117610000Y-71921714D01*
X117657619Y-71969333D01*
X117562380Y-72826476D02*
X117562380Y-72636000D01*
X117610000Y-72540761D01*
X117657619Y-72493142D01*
X117800476Y-72397904D01*
X117990952Y-72350285D01*
X118371904Y-72350285D01*
X118467142Y-72397904D01*
X118514761Y-72445523D01*
X118562380Y-72540761D01*
X118562380Y-72731238D01*
X118514761Y-72826476D01*
X118467142Y-72874095D01*
X118371904Y-72921714D01*
X118133809Y-72921714D01*
X118038571Y-72874095D01*
X117990952Y-72826476D01*
X117943333Y-72731238D01*
X117943333Y-72540761D01*
X117990952Y-72445523D01*
X118038571Y-72397904D01*
X118133809Y-72350285D01*
X118022642Y-90790733D02*
X118070261Y-90743114D01*
X118117880Y-90600257D01*
X118117880Y-90505019D01*
X118070261Y-90362161D01*
X117975023Y-90266923D01*
X117879785Y-90219304D01*
X117689309Y-90171685D01*
X117546452Y-90171685D01*
X117355976Y-90219304D01*
X117260738Y-90266923D01*
X117165500Y-90362161D01*
X117117880Y-90505019D01*
X117117880Y-90600257D01*
X117165500Y-90743114D01*
X117213119Y-90790733D01*
X117117880Y-91695495D02*
X117117880Y-91219304D01*
X117594071Y-91171685D01*
X117546452Y-91219304D01*
X117498833Y-91314542D01*
X117498833Y-91552638D01*
X117546452Y-91647876D01*
X117594071Y-91695495D01*
X117689309Y-91743114D01*
X117927404Y-91743114D01*
X118022642Y-91695495D01*
X118070261Y-91647876D01*
X118117880Y-91552638D01*
X118117880Y-91314542D01*
X118070261Y-91219304D01*
X118022642Y-91171685D01*
X97194666Y-78430380D02*
X97528000Y-77954190D01*
X97766095Y-78430380D02*
X97766095Y-77430380D01*
X97385142Y-77430380D01*
X97289904Y-77478000D01*
X97242285Y-77525619D01*
X97194666Y-77620857D01*
X97194666Y-77763714D01*
X97242285Y-77858952D01*
X97289904Y-77906571D01*
X97385142Y-77954190D01*
X97766095Y-77954190D01*
X96861333Y-77430380D02*
X96194666Y-77430380D01*
X96623238Y-78430380D01*
X97194666Y-79954380D02*
X97528000Y-79478190D01*
X97766095Y-79954380D02*
X97766095Y-78954380D01*
X97385142Y-78954380D01*
X97289904Y-79002000D01*
X97242285Y-79049619D01*
X97194666Y-79144857D01*
X97194666Y-79287714D01*
X97242285Y-79382952D01*
X97289904Y-79430571D01*
X97385142Y-79478190D01*
X97766095Y-79478190D01*
X96337523Y-78954380D02*
X96528000Y-78954380D01*
X96623238Y-79002000D01*
X96670857Y-79049619D01*
X96766095Y-79192476D01*
X96813714Y-79382952D01*
X96813714Y-79763904D01*
X96766095Y-79859142D01*
X96718476Y-79906761D01*
X96623238Y-79954380D01*
X96432761Y-79954380D01*
X96337523Y-79906761D01*
X96289904Y-79859142D01*
X96242285Y-79763904D01*
X96242285Y-79525809D01*
X96289904Y-79430571D01*
X96337523Y-79382952D01*
X96432761Y-79335333D01*
X96623238Y-79335333D01*
X96718476Y-79382952D01*
X96766095Y-79430571D01*
X96813714Y-79525809D01*
X98242380Y-89241333D02*
X97766190Y-88908000D01*
X98242380Y-88669904D02*
X97242380Y-88669904D01*
X97242380Y-89050857D01*
X97290000Y-89146095D01*
X97337619Y-89193714D01*
X97432857Y-89241333D01*
X97575714Y-89241333D01*
X97670952Y-89193714D01*
X97718571Y-89146095D01*
X97766190Y-89050857D01*
X97766190Y-88669904D01*
X97242380Y-90146095D02*
X97242380Y-89669904D01*
X97718571Y-89622285D01*
X97670952Y-89669904D01*
X97623333Y-89765142D01*
X97623333Y-90003238D01*
X97670952Y-90098476D01*
X97718571Y-90146095D01*
X97813809Y-90193714D01*
X98051904Y-90193714D01*
X98147142Y-90146095D01*
X98194761Y-90098476D01*
X98242380Y-90003238D01*
X98242380Y-89765142D01*
X98194761Y-89669904D01*
X98147142Y-89622285D01*
X125801380Y-86701333D02*
X125325190Y-86368000D01*
X125801380Y-86129904D02*
X124801380Y-86129904D01*
X124801380Y-86510857D01*
X124849000Y-86606095D01*
X124896619Y-86653714D01*
X124991857Y-86701333D01*
X125134714Y-86701333D01*
X125229952Y-86653714D01*
X125277571Y-86606095D01*
X125325190Y-86510857D01*
X125325190Y-86129904D01*
X125134714Y-87558476D02*
X125801380Y-87558476D01*
X124753761Y-87320380D02*
X125468047Y-87082285D01*
X125468047Y-87701333D01*
X126182380Y-80361332D02*
X125706190Y-80027999D01*
X126182380Y-79789903D02*
X125182380Y-79789903D01*
X125182380Y-80170856D01*
X125230000Y-80266094D01*
X125277619Y-80313713D01*
X125372857Y-80361332D01*
X125515714Y-80361332D01*
X125610952Y-80313713D01*
X125658571Y-80266094D01*
X125706190Y-80170856D01*
X125706190Y-79789903D01*
X125182380Y-80694665D02*
X125182380Y-81313713D01*
X125563333Y-80980379D01*
X125563333Y-81123237D01*
X125610952Y-81218475D01*
X125658571Y-81266094D01*
X125753809Y-81313713D01*
X125991904Y-81313713D01*
X126087142Y-81266094D01*
X126134761Y-81218475D01*
X126182380Y-81123237D01*
X126182380Y-80837522D01*
X126134761Y-80742284D01*
X126087142Y-80694665D01*
X124150380Y-80361332D02*
X123674190Y-80027999D01*
X124150380Y-79789903D02*
X123150380Y-79789903D01*
X123150380Y-80170856D01*
X123198000Y-80266094D01*
X123245619Y-80313713D01*
X123340857Y-80361332D01*
X123483714Y-80361332D01*
X123578952Y-80313713D01*
X123626571Y-80266094D01*
X123674190Y-80170856D01*
X123674190Y-79789903D01*
X123245619Y-80742284D02*
X123198000Y-80789903D01*
X123150380Y-80885141D01*
X123150380Y-81123237D01*
X123198000Y-81218475D01*
X123245619Y-81266094D01*
X123340857Y-81313713D01*
X123436095Y-81313713D01*
X123578952Y-81266094D01*
X124150380Y-80694665D01*
X124150380Y-81313713D01*
X120086380Y-68222833D02*
X119610190Y-67889500D01*
X120086380Y-67651404D02*
X119086380Y-67651404D01*
X119086380Y-68032357D01*
X119134000Y-68127595D01*
X119181619Y-68175214D01*
X119276857Y-68222833D01*
X119419714Y-68222833D01*
X119514952Y-68175214D01*
X119562571Y-68127595D01*
X119610190Y-68032357D01*
X119610190Y-67651404D01*
X120086380Y-69175214D02*
X120086380Y-68603785D01*
X120086380Y-68889500D02*
X119086380Y-68889500D01*
X119229238Y-68794261D01*
X119324476Y-68699023D01*
X119372095Y-68603785D01*
X122095380Y-67220642D02*
X121619190Y-66887309D01*
X122095380Y-66649214D02*
X121095380Y-66649214D01*
X121095380Y-67030166D01*
X121143000Y-67125404D01*
X121190619Y-67173023D01*
X121285857Y-67220642D01*
X121428714Y-67220642D01*
X121523952Y-67173023D01*
X121571571Y-67125404D01*
X121619190Y-67030166D01*
X121619190Y-66649214D01*
X122095380Y-68173023D02*
X122095380Y-67601595D01*
X122095380Y-67887309D02*
X121095380Y-67887309D01*
X121238238Y-67792071D01*
X121333476Y-67696833D01*
X121381095Y-67601595D01*
X121095380Y-68792071D02*
X121095380Y-68887309D01*
X121143000Y-68982547D01*
X121190619Y-69030166D01*
X121285857Y-69077785D01*
X121476333Y-69125404D01*
X121714428Y-69125404D01*
X121904904Y-69077785D01*
X122000142Y-69030166D01*
X122047761Y-68982547D01*
X122095380Y-68887309D01*
X122095380Y-68792071D01*
X122047761Y-68696833D01*
X122000142Y-68649214D01*
X121904904Y-68601595D01*
X121714428Y-68553976D01*
X121476333Y-68553976D01*
X121285857Y-68601595D01*
X121190619Y-68649214D01*
X121143000Y-68696833D01*
X121095380Y-68792071D01*
X124040880Y-69937333D02*
X123564690Y-69604000D01*
X124040880Y-69365904D02*
X123040880Y-69365904D01*
X123040880Y-69746857D01*
X123088500Y-69842095D01*
X123136119Y-69889714D01*
X123231357Y-69937333D01*
X123374214Y-69937333D01*
X123469452Y-69889714D01*
X123517071Y-69842095D01*
X123564690Y-69746857D01*
X123564690Y-69365904D01*
X123469452Y-70508761D02*
X123421833Y-70413523D01*
X123374214Y-70365904D01*
X123278976Y-70318285D01*
X123231357Y-70318285D01*
X123136119Y-70365904D01*
X123088500Y-70413523D01*
X123040880Y-70508761D01*
X123040880Y-70699238D01*
X123088500Y-70794476D01*
X123136119Y-70842095D01*
X123231357Y-70889714D01*
X123278976Y-70889714D01*
X123374214Y-70842095D01*
X123421833Y-70794476D01*
X123469452Y-70699238D01*
X123469452Y-70508761D01*
X123517071Y-70413523D01*
X123564690Y-70365904D01*
X123659928Y-70318285D01*
X123850404Y-70318285D01*
X123945642Y-70365904D01*
X123993261Y-70413523D01*
X124040880Y-70508761D01*
X124040880Y-70699238D01*
X123993261Y-70794476D01*
X123945642Y-70842095D01*
X123850404Y-70889714D01*
X123659928Y-70889714D01*
X123564690Y-70842095D01*
X123517071Y-70794476D01*
X123469452Y-70699238D01*
X121007142Y-85685333D02*
X121054761Y-85637714D01*
X121102380Y-85494857D01*
X121102380Y-85399619D01*
X121054761Y-85256761D01*
X120959523Y-85161523D01*
X120864285Y-85113904D01*
X120673809Y-85066285D01*
X120530952Y-85066285D01*
X120340476Y-85113904D01*
X120245238Y-85161523D01*
X120150000Y-85256761D01*
X120102380Y-85399619D01*
X120102380Y-85494857D01*
X120150000Y-85637714D01*
X120197619Y-85685333D01*
X120102380Y-86018666D02*
X120102380Y-86637714D01*
X120483333Y-86304380D01*
X120483333Y-86447238D01*
X120530952Y-86542476D01*
X120578571Y-86590095D01*
X120673809Y-86637714D01*
X120911904Y-86637714D01*
X121007142Y-86590095D01*
X121054761Y-86542476D01*
X121102380Y-86447238D01*
X121102380Y-86161523D01*
X121054761Y-86066285D01*
X121007142Y-86018666D01*
X121007142Y-80732333D02*
X121054761Y-80684714D01*
X121102380Y-80541857D01*
X121102380Y-80446619D01*
X121054761Y-80303761D01*
X120959523Y-80208523D01*
X120864285Y-80160904D01*
X120673809Y-80113285D01*
X120530952Y-80113285D01*
X120340476Y-80160904D01*
X120245238Y-80208523D01*
X120150000Y-80303761D01*
X120102380Y-80446619D01*
X120102380Y-80541857D01*
X120150000Y-80684714D01*
X120197619Y-80732333D01*
X121102380Y-81684714D02*
X121102380Y-81113285D01*
X121102380Y-81399000D02*
X120102380Y-81399000D01*
X120245238Y-81303761D01*
X120340476Y-81208523D01*
X120388095Y-81113285D01*
X91185904Y-67996880D02*
X91185904Y-68806404D01*
X91138285Y-68901642D01*
X91090666Y-68949261D01*
X90995428Y-68996880D01*
X90804952Y-68996880D01*
X90709714Y-68949261D01*
X90662095Y-68901642D01*
X90614476Y-68806404D01*
X90614476Y-67996880D01*
X90233523Y-67996880D02*
X89614476Y-67996880D01*
X89947809Y-68377833D01*
X89804952Y-68377833D01*
X89709714Y-68425452D01*
X89662095Y-68473071D01*
X89614476Y-68568309D01*
X89614476Y-68806404D01*
X89662095Y-68901642D01*
X89709714Y-68949261D01*
X89804952Y-68996880D01*
X90090666Y-68996880D01*
X90185904Y-68949261D01*
X90233523Y-68901642D01*
M02*
