G04 #@! TF.GenerationSoftware,KiCad,Pcbnew,(5.1.2-1)-1*
G04 #@! TF.CreationDate,2019-10-05T22:58:12+03:00*
G04 #@! TF.ProjectId,curtains-driver,63757274-6169-46e7-932d-647269766572,rev?*
G04 #@! TF.SameCoordinates,Original*
G04 #@! TF.FileFunction,Paste,Bot*
G04 #@! TF.FilePolarity,Positive*
%FSLAX46Y46*%
G04 Gerber Fmt 4.6, Leading zero omitted, Abs format (unit mm)*
G04 Created by KiCad (PCBNEW (5.1.2-1)-1) date 2019-10-05 22:58:12*
%MOMM*%
%LPD*%
G04 APERTURE LIST*
%ADD10C,0.150000*%
%ADD11R,1.100000X2.500000*%
%ADD12R,2.500000X1.100000*%
%ADD13C,0.100000*%
%ADD14C,1.150000*%
%ADD15C,1.425000*%
%ADD16R,1.500000X0.600000*%
G04 APERTURE END LIST*
D10*
X134000000Y-63754000D02*
X134000000Y-93500000D01*
X78968600Y-63754000D02*
X78968600Y-93472000D01*
X134000000Y-93500000D02*
X78968600Y-93472000D01*
X78968600Y-63754000D02*
X134000000Y-63754000D01*
D11*
X103072000Y-88086500D03*
X105072000Y-88086500D03*
X107072000Y-88086500D03*
X109072000Y-88086500D03*
X111072000Y-88086500D03*
X113072000Y-88086500D03*
D12*
X100362000Y-72386500D03*
X100362000Y-74386500D03*
X100362000Y-76386500D03*
X100362000Y-78386500D03*
X100362000Y-80386500D03*
X100362000Y-82386500D03*
X100362000Y-84386500D03*
X100362000Y-86386500D03*
X115762000Y-86386500D03*
X115762000Y-84386500D03*
X115762000Y-82386500D03*
X115762000Y-80386500D03*
X115762000Y-78386500D03*
X115762000Y-76386500D03*
X115762000Y-74386500D03*
X115762000Y-72386500D03*
D13*
G36*
X122049505Y-75862704D02*
G01*
X122073773Y-75866304D01*
X122097572Y-75872265D01*
X122120671Y-75880530D01*
X122142850Y-75891020D01*
X122163893Y-75903632D01*
X122183599Y-75918247D01*
X122201777Y-75934723D01*
X122218253Y-75952901D01*
X122232868Y-75972607D01*
X122245480Y-75993650D01*
X122255970Y-76015829D01*
X122264235Y-76038928D01*
X122270196Y-76062727D01*
X122273796Y-76086995D01*
X122275000Y-76111499D01*
X122275000Y-76761501D01*
X122273796Y-76786005D01*
X122270196Y-76810273D01*
X122264235Y-76834072D01*
X122255970Y-76857171D01*
X122245480Y-76879350D01*
X122232868Y-76900393D01*
X122218253Y-76920099D01*
X122201777Y-76938277D01*
X122183599Y-76954753D01*
X122163893Y-76969368D01*
X122142850Y-76981980D01*
X122120671Y-76992470D01*
X122097572Y-77000735D01*
X122073773Y-77006696D01*
X122049505Y-77010296D01*
X122025001Y-77011500D01*
X121124999Y-77011500D01*
X121100495Y-77010296D01*
X121076227Y-77006696D01*
X121052428Y-77000735D01*
X121029329Y-76992470D01*
X121007150Y-76981980D01*
X120986107Y-76969368D01*
X120966401Y-76954753D01*
X120948223Y-76938277D01*
X120931747Y-76920099D01*
X120917132Y-76900393D01*
X120904520Y-76879350D01*
X120894030Y-76857171D01*
X120885765Y-76834072D01*
X120879804Y-76810273D01*
X120876204Y-76786005D01*
X120875000Y-76761501D01*
X120875000Y-76111499D01*
X120876204Y-76086995D01*
X120879804Y-76062727D01*
X120885765Y-76038928D01*
X120894030Y-76015829D01*
X120904520Y-75993650D01*
X120917132Y-75972607D01*
X120931747Y-75952901D01*
X120948223Y-75934723D01*
X120966401Y-75918247D01*
X120986107Y-75903632D01*
X121007150Y-75891020D01*
X121029329Y-75880530D01*
X121052428Y-75872265D01*
X121076227Y-75866304D01*
X121100495Y-75862704D01*
X121124999Y-75861500D01*
X122025001Y-75861500D01*
X122049505Y-75862704D01*
X122049505Y-75862704D01*
G37*
D14*
X121575000Y-76436500D03*
D13*
G36*
X122049505Y-73812704D02*
G01*
X122073773Y-73816304D01*
X122097572Y-73822265D01*
X122120671Y-73830530D01*
X122142850Y-73841020D01*
X122163893Y-73853632D01*
X122183599Y-73868247D01*
X122201777Y-73884723D01*
X122218253Y-73902901D01*
X122232868Y-73922607D01*
X122245480Y-73943650D01*
X122255970Y-73965829D01*
X122264235Y-73988928D01*
X122270196Y-74012727D01*
X122273796Y-74036995D01*
X122275000Y-74061499D01*
X122275000Y-74711501D01*
X122273796Y-74736005D01*
X122270196Y-74760273D01*
X122264235Y-74784072D01*
X122255970Y-74807171D01*
X122245480Y-74829350D01*
X122232868Y-74850393D01*
X122218253Y-74870099D01*
X122201777Y-74888277D01*
X122183599Y-74904753D01*
X122163893Y-74919368D01*
X122142850Y-74931980D01*
X122120671Y-74942470D01*
X122097572Y-74950735D01*
X122073773Y-74956696D01*
X122049505Y-74960296D01*
X122025001Y-74961500D01*
X121124999Y-74961500D01*
X121100495Y-74960296D01*
X121076227Y-74956696D01*
X121052428Y-74950735D01*
X121029329Y-74942470D01*
X121007150Y-74931980D01*
X120986107Y-74919368D01*
X120966401Y-74904753D01*
X120948223Y-74888277D01*
X120931747Y-74870099D01*
X120917132Y-74850393D01*
X120904520Y-74829350D01*
X120894030Y-74807171D01*
X120885765Y-74784072D01*
X120879804Y-74760273D01*
X120876204Y-74736005D01*
X120875000Y-74711501D01*
X120875000Y-74061499D01*
X120876204Y-74036995D01*
X120879804Y-74012727D01*
X120885765Y-73988928D01*
X120894030Y-73965829D01*
X120904520Y-73943650D01*
X120917132Y-73922607D01*
X120931747Y-73902901D01*
X120948223Y-73884723D01*
X120966401Y-73868247D01*
X120986107Y-73853632D01*
X121007150Y-73841020D01*
X121029329Y-73830530D01*
X121052428Y-73822265D01*
X121076227Y-73816304D01*
X121100495Y-73812704D01*
X121124999Y-73811500D01*
X122025001Y-73811500D01*
X122049505Y-73812704D01*
X122049505Y-73812704D01*
G37*
D14*
X121575000Y-74386500D03*
D13*
G36*
X97474505Y-69762704D02*
G01*
X97498773Y-69766304D01*
X97522572Y-69772265D01*
X97545671Y-69780530D01*
X97567850Y-69791020D01*
X97588893Y-69803632D01*
X97608599Y-69818247D01*
X97626777Y-69834723D01*
X97643253Y-69852901D01*
X97657868Y-69872607D01*
X97670480Y-69893650D01*
X97680970Y-69915829D01*
X97689235Y-69938928D01*
X97695196Y-69962727D01*
X97698796Y-69986995D01*
X97700000Y-70011499D01*
X97700000Y-70661501D01*
X97698796Y-70686005D01*
X97695196Y-70710273D01*
X97689235Y-70734072D01*
X97680970Y-70757171D01*
X97670480Y-70779350D01*
X97657868Y-70800393D01*
X97643253Y-70820099D01*
X97626777Y-70838277D01*
X97608599Y-70854753D01*
X97588893Y-70869368D01*
X97567850Y-70881980D01*
X97545671Y-70892470D01*
X97522572Y-70900735D01*
X97498773Y-70906696D01*
X97474505Y-70910296D01*
X97450001Y-70911500D01*
X96549999Y-70911500D01*
X96525495Y-70910296D01*
X96501227Y-70906696D01*
X96477428Y-70900735D01*
X96454329Y-70892470D01*
X96432150Y-70881980D01*
X96411107Y-70869368D01*
X96391401Y-70854753D01*
X96373223Y-70838277D01*
X96356747Y-70820099D01*
X96342132Y-70800393D01*
X96329520Y-70779350D01*
X96319030Y-70757171D01*
X96310765Y-70734072D01*
X96304804Y-70710273D01*
X96301204Y-70686005D01*
X96300000Y-70661501D01*
X96300000Y-70011499D01*
X96301204Y-69986995D01*
X96304804Y-69962727D01*
X96310765Y-69938928D01*
X96319030Y-69915829D01*
X96329520Y-69893650D01*
X96342132Y-69872607D01*
X96356747Y-69852901D01*
X96373223Y-69834723D01*
X96391401Y-69818247D01*
X96411107Y-69803632D01*
X96432150Y-69791020D01*
X96454329Y-69780530D01*
X96477428Y-69772265D01*
X96501227Y-69766304D01*
X96525495Y-69762704D01*
X96549999Y-69761500D01*
X97450001Y-69761500D01*
X97474505Y-69762704D01*
X97474505Y-69762704D01*
G37*
D14*
X97000000Y-70336500D03*
D13*
G36*
X97474505Y-71812704D02*
G01*
X97498773Y-71816304D01*
X97522572Y-71822265D01*
X97545671Y-71830530D01*
X97567850Y-71841020D01*
X97588893Y-71853632D01*
X97608599Y-71868247D01*
X97626777Y-71884723D01*
X97643253Y-71902901D01*
X97657868Y-71922607D01*
X97670480Y-71943650D01*
X97680970Y-71965829D01*
X97689235Y-71988928D01*
X97695196Y-72012727D01*
X97698796Y-72036995D01*
X97700000Y-72061499D01*
X97700000Y-72711501D01*
X97698796Y-72736005D01*
X97695196Y-72760273D01*
X97689235Y-72784072D01*
X97680970Y-72807171D01*
X97670480Y-72829350D01*
X97657868Y-72850393D01*
X97643253Y-72870099D01*
X97626777Y-72888277D01*
X97608599Y-72904753D01*
X97588893Y-72919368D01*
X97567850Y-72931980D01*
X97545671Y-72942470D01*
X97522572Y-72950735D01*
X97498773Y-72956696D01*
X97474505Y-72960296D01*
X97450001Y-72961500D01*
X96549999Y-72961500D01*
X96525495Y-72960296D01*
X96501227Y-72956696D01*
X96477428Y-72950735D01*
X96454329Y-72942470D01*
X96432150Y-72931980D01*
X96411107Y-72919368D01*
X96391401Y-72904753D01*
X96373223Y-72888277D01*
X96356747Y-72870099D01*
X96342132Y-72850393D01*
X96329520Y-72829350D01*
X96319030Y-72807171D01*
X96310765Y-72784072D01*
X96304804Y-72760273D01*
X96301204Y-72736005D01*
X96300000Y-72711501D01*
X96300000Y-72061499D01*
X96301204Y-72036995D01*
X96304804Y-72012727D01*
X96310765Y-71988928D01*
X96319030Y-71965829D01*
X96329520Y-71943650D01*
X96342132Y-71922607D01*
X96356747Y-71902901D01*
X96373223Y-71884723D01*
X96391401Y-71868247D01*
X96411107Y-71853632D01*
X96432150Y-71841020D01*
X96454329Y-71830530D01*
X96477428Y-71822265D01*
X96501227Y-71816304D01*
X96525495Y-71812704D01*
X96549999Y-71811500D01*
X97450001Y-71811500D01*
X97474505Y-71812704D01*
X97474505Y-71812704D01*
G37*
D14*
X97000000Y-72386500D03*
D13*
G36*
X119394504Y-73675204D02*
G01*
X119418773Y-73678804D01*
X119442571Y-73684765D01*
X119465671Y-73693030D01*
X119487849Y-73703520D01*
X119508893Y-73716133D01*
X119528598Y-73730747D01*
X119546777Y-73747223D01*
X119563253Y-73765402D01*
X119577867Y-73785107D01*
X119590480Y-73806151D01*
X119600970Y-73828329D01*
X119609235Y-73851429D01*
X119615196Y-73875227D01*
X119618796Y-73899496D01*
X119620000Y-73924000D01*
X119620000Y-74849000D01*
X119618796Y-74873504D01*
X119615196Y-74897773D01*
X119609235Y-74921571D01*
X119600970Y-74944671D01*
X119590480Y-74966849D01*
X119577867Y-74987893D01*
X119563253Y-75007598D01*
X119546777Y-75025777D01*
X119528598Y-75042253D01*
X119508893Y-75056867D01*
X119487849Y-75069480D01*
X119465671Y-75079970D01*
X119442571Y-75088235D01*
X119418773Y-75094196D01*
X119394504Y-75097796D01*
X119370000Y-75099000D01*
X118120000Y-75099000D01*
X118095496Y-75097796D01*
X118071227Y-75094196D01*
X118047429Y-75088235D01*
X118024329Y-75079970D01*
X118002151Y-75069480D01*
X117981107Y-75056867D01*
X117961402Y-75042253D01*
X117943223Y-75025777D01*
X117926747Y-75007598D01*
X117912133Y-74987893D01*
X117899520Y-74966849D01*
X117889030Y-74944671D01*
X117880765Y-74921571D01*
X117874804Y-74897773D01*
X117871204Y-74873504D01*
X117870000Y-74849000D01*
X117870000Y-73924000D01*
X117871204Y-73899496D01*
X117874804Y-73875227D01*
X117880765Y-73851429D01*
X117889030Y-73828329D01*
X117899520Y-73806151D01*
X117912133Y-73785107D01*
X117926747Y-73765402D01*
X117943223Y-73747223D01*
X117961402Y-73730747D01*
X117981107Y-73716133D01*
X118002151Y-73703520D01*
X118024329Y-73693030D01*
X118047429Y-73684765D01*
X118071227Y-73678804D01*
X118095496Y-73675204D01*
X118120000Y-73674000D01*
X119370000Y-73674000D01*
X119394504Y-73675204D01*
X119394504Y-73675204D01*
G37*
D15*
X118745000Y-74386500D03*
D13*
G36*
X119394504Y-76650204D02*
G01*
X119418773Y-76653804D01*
X119442571Y-76659765D01*
X119465671Y-76668030D01*
X119487849Y-76678520D01*
X119508893Y-76691133D01*
X119528598Y-76705747D01*
X119546777Y-76722223D01*
X119563253Y-76740402D01*
X119577867Y-76760107D01*
X119590480Y-76781151D01*
X119600970Y-76803329D01*
X119609235Y-76826429D01*
X119615196Y-76850227D01*
X119618796Y-76874496D01*
X119620000Y-76899000D01*
X119620000Y-77824000D01*
X119618796Y-77848504D01*
X119615196Y-77872773D01*
X119609235Y-77896571D01*
X119600970Y-77919671D01*
X119590480Y-77941849D01*
X119577867Y-77962893D01*
X119563253Y-77982598D01*
X119546777Y-78000777D01*
X119528598Y-78017253D01*
X119508893Y-78031867D01*
X119487849Y-78044480D01*
X119465671Y-78054970D01*
X119442571Y-78063235D01*
X119418773Y-78069196D01*
X119394504Y-78072796D01*
X119370000Y-78074000D01*
X118120000Y-78074000D01*
X118095496Y-78072796D01*
X118071227Y-78069196D01*
X118047429Y-78063235D01*
X118024329Y-78054970D01*
X118002151Y-78044480D01*
X117981107Y-78031867D01*
X117961402Y-78017253D01*
X117943223Y-78000777D01*
X117926747Y-77982598D01*
X117912133Y-77962893D01*
X117899520Y-77941849D01*
X117889030Y-77919671D01*
X117880765Y-77896571D01*
X117874804Y-77872773D01*
X117871204Y-77848504D01*
X117870000Y-77824000D01*
X117870000Y-76899000D01*
X117871204Y-76874496D01*
X117874804Y-76850227D01*
X117880765Y-76826429D01*
X117889030Y-76803329D01*
X117899520Y-76781151D01*
X117912133Y-76760107D01*
X117926747Y-76740402D01*
X117943223Y-76722223D01*
X117961402Y-76705747D01*
X117981107Y-76691133D01*
X118002151Y-76678520D01*
X118024329Y-76668030D01*
X118047429Y-76659765D01*
X118071227Y-76653804D01*
X118095496Y-76650204D01*
X118120000Y-76649000D01*
X119370000Y-76649000D01*
X119394504Y-76650204D01*
X119394504Y-76650204D01*
G37*
D15*
X118745000Y-77361500D03*
D13*
G36*
X116411504Y-88758604D02*
G01*
X116435773Y-88762204D01*
X116459571Y-88768165D01*
X116482671Y-88776430D01*
X116504849Y-88786920D01*
X116525893Y-88799533D01*
X116545598Y-88814147D01*
X116563777Y-88830623D01*
X116580253Y-88848802D01*
X116594867Y-88868507D01*
X116607480Y-88889551D01*
X116617970Y-88911729D01*
X116626235Y-88934829D01*
X116632196Y-88958627D01*
X116635796Y-88982896D01*
X116637000Y-89007400D01*
X116637000Y-89932400D01*
X116635796Y-89956904D01*
X116632196Y-89981173D01*
X116626235Y-90004971D01*
X116617970Y-90028071D01*
X116607480Y-90050249D01*
X116594867Y-90071293D01*
X116580253Y-90090998D01*
X116563777Y-90109177D01*
X116545598Y-90125653D01*
X116525893Y-90140267D01*
X116504849Y-90152880D01*
X116482671Y-90163370D01*
X116459571Y-90171635D01*
X116435773Y-90177596D01*
X116411504Y-90181196D01*
X116387000Y-90182400D01*
X115137000Y-90182400D01*
X115112496Y-90181196D01*
X115088227Y-90177596D01*
X115064429Y-90171635D01*
X115041329Y-90163370D01*
X115019151Y-90152880D01*
X114998107Y-90140267D01*
X114978402Y-90125653D01*
X114960223Y-90109177D01*
X114943747Y-90090998D01*
X114929133Y-90071293D01*
X114916520Y-90050249D01*
X114906030Y-90028071D01*
X114897765Y-90004971D01*
X114891804Y-89981173D01*
X114888204Y-89956904D01*
X114887000Y-89932400D01*
X114887000Y-89007400D01*
X114888204Y-88982896D01*
X114891804Y-88958627D01*
X114897765Y-88934829D01*
X114906030Y-88911729D01*
X114916520Y-88889551D01*
X114929133Y-88868507D01*
X114943747Y-88848802D01*
X114960223Y-88830623D01*
X114978402Y-88814147D01*
X114998107Y-88799533D01*
X115019151Y-88786920D01*
X115041329Y-88776430D01*
X115064429Y-88768165D01*
X115088227Y-88762204D01*
X115112496Y-88758604D01*
X115137000Y-88757400D01*
X116387000Y-88757400D01*
X116411504Y-88758604D01*
X116411504Y-88758604D01*
G37*
D15*
X115762000Y-89469900D03*
D13*
G36*
X116411504Y-91733604D02*
G01*
X116435773Y-91737204D01*
X116459571Y-91743165D01*
X116482671Y-91751430D01*
X116504849Y-91761920D01*
X116525893Y-91774533D01*
X116545598Y-91789147D01*
X116563777Y-91805623D01*
X116580253Y-91823802D01*
X116594867Y-91843507D01*
X116607480Y-91864551D01*
X116617970Y-91886729D01*
X116626235Y-91909829D01*
X116632196Y-91933627D01*
X116635796Y-91957896D01*
X116637000Y-91982400D01*
X116637000Y-92907400D01*
X116635796Y-92931904D01*
X116632196Y-92956173D01*
X116626235Y-92979971D01*
X116617970Y-93003071D01*
X116607480Y-93025249D01*
X116594867Y-93046293D01*
X116580253Y-93065998D01*
X116563777Y-93084177D01*
X116545598Y-93100653D01*
X116525893Y-93115267D01*
X116504849Y-93127880D01*
X116482671Y-93138370D01*
X116459571Y-93146635D01*
X116435773Y-93152596D01*
X116411504Y-93156196D01*
X116387000Y-93157400D01*
X115137000Y-93157400D01*
X115112496Y-93156196D01*
X115088227Y-93152596D01*
X115064429Y-93146635D01*
X115041329Y-93138370D01*
X115019151Y-93127880D01*
X114998107Y-93115267D01*
X114978402Y-93100653D01*
X114960223Y-93084177D01*
X114943747Y-93065998D01*
X114929133Y-93046293D01*
X114916520Y-93025249D01*
X114906030Y-93003071D01*
X114897765Y-92979971D01*
X114891804Y-92956173D01*
X114888204Y-92931904D01*
X114887000Y-92907400D01*
X114887000Y-91982400D01*
X114888204Y-91957896D01*
X114891804Y-91933627D01*
X114897765Y-91909829D01*
X114906030Y-91886729D01*
X114916520Y-91864551D01*
X114929133Y-91843507D01*
X114943747Y-91823802D01*
X114960223Y-91805623D01*
X114978402Y-91789147D01*
X114998107Y-91774533D01*
X115019151Y-91761920D01*
X115041329Y-91751430D01*
X115064429Y-91743165D01*
X115088227Y-91737204D01*
X115112496Y-91733604D01*
X115137000Y-91732400D01*
X116387000Y-91732400D01*
X116411504Y-91733604D01*
X116411504Y-91733604D01*
G37*
D15*
X115762000Y-92444900D03*
D13*
G36*
X96098505Y-80733604D02*
G01*
X96122773Y-80737204D01*
X96146572Y-80743165D01*
X96169671Y-80751430D01*
X96191850Y-80761920D01*
X96212893Y-80774532D01*
X96232599Y-80789147D01*
X96250777Y-80805623D01*
X96267253Y-80823801D01*
X96281868Y-80843507D01*
X96294480Y-80864550D01*
X96304970Y-80886729D01*
X96313235Y-80909828D01*
X96319196Y-80933627D01*
X96322796Y-80957895D01*
X96324000Y-80982399D01*
X96324000Y-81882401D01*
X96322796Y-81906905D01*
X96319196Y-81931173D01*
X96313235Y-81954972D01*
X96304970Y-81978071D01*
X96294480Y-82000250D01*
X96281868Y-82021293D01*
X96267253Y-82040999D01*
X96250777Y-82059177D01*
X96232599Y-82075653D01*
X96212893Y-82090268D01*
X96191850Y-82102880D01*
X96169671Y-82113370D01*
X96146572Y-82121635D01*
X96122773Y-82127596D01*
X96098505Y-82131196D01*
X96074001Y-82132400D01*
X95423999Y-82132400D01*
X95399495Y-82131196D01*
X95375227Y-82127596D01*
X95351428Y-82121635D01*
X95328329Y-82113370D01*
X95306150Y-82102880D01*
X95285107Y-82090268D01*
X95265401Y-82075653D01*
X95247223Y-82059177D01*
X95230747Y-82040999D01*
X95216132Y-82021293D01*
X95203520Y-82000250D01*
X95193030Y-81978071D01*
X95184765Y-81954972D01*
X95178804Y-81931173D01*
X95175204Y-81906905D01*
X95174000Y-81882401D01*
X95174000Y-80982399D01*
X95175204Y-80957895D01*
X95178804Y-80933627D01*
X95184765Y-80909828D01*
X95193030Y-80886729D01*
X95203520Y-80864550D01*
X95216132Y-80843507D01*
X95230747Y-80823801D01*
X95247223Y-80805623D01*
X95265401Y-80789147D01*
X95285107Y-80774532D01*
X95306150Y-80761920D01*
X95328329Y-80751430D01*
X95351428Y-80743165D01*
X95375227Y-80737204D01*
X95399495Y-80733604D01*
X95423999Y-80732400D01*
X96074001Y-80732400D01*
X96098505Y-80733604D01*
X96098505Y-80733604D01*
G37*
D14*
X95749000Y-81432400D03*
D13*
G36*
X98148505Y-80733604D02*
G01*
X98172773Y-80737204D01*
X98196572Y-80743165D01*
X98219671Y-80751430D01*
X98241850Y-80761920D01*
X98262893Y-80774532D01*
X98282599Y-80789147D01*
X98300777Y-80805623D01*
X98317253Y-80823801D01*
X98331868Y-80843507D01*
X98344480Y-80864550D01*
X98354970Y-80886729D01*
X98363235Y-80909828D01*
X98369196Y-80933627D01*
X98372796Y-80957895D01*
X98374000Y-80982399D01*
X98374000Y-81882401D01*
X98372796Y-81906905D01*
X98369196Y-81931173D01*
X98363235Y-81954972D01*
X98354970Y-81978071D01*
X98344480Y-82000250D01*
X98331868Y-82021293D01*
X98317253Y-82040999D01*
X98300777Y-82059177D01*
X98282599Y-82075653D01*
X98262893Y-82090268D01*
X98241850Y-82102880D01*
X98219671Y-82113370D01*
X98196572Y-82121635D01*
X98172773Y-82127596D01*
X98148505Y-82131196D01*
X98124001Y-82132400D01*
X97473999Y-82132400D01*
X97449495Y-82131196D01*
X97425227Y-82127596D01*
X97401428Y-82121635D01*
X97378329Y-82113370D01*
X97356150Y-82102880D01*
X97335107Y-82090268D01*
X97315401Y-82075653D01*
X97297223Y-82059177D01*
X97280747Y-82040999D01*
X97266132Y-82021293D01*
X97253520Y-82000250D01*
X97243030Y-81978071D01*
X97234765Y-81954972D01*
X97228804Y-81931173D01*
X97225204Y-81906905D01*
X97224000Y-81882401D01*
X97224000Y-80982399D01*
X97225204Y-80957895D01*
X97228804Y-80933627D01*
X97234765Y-80909828D01*
X97243030Y-80886729D01*
X97253520Y-80864550D01*
X97266132Y-80843507D01*
X97280747Y-80823801D01*
X97297223Y-80805623D01*
X97315401Y-80789147D01*
X97335107Y-80774532D01*
X97356150Y-80761920D01*
X97378329Y-80751430D01*
X97401428Y-80743165D01*
X97425227Y-80737204D01*
X97449495Y-80733604D01*
X97473999Y-80732400D01*
X98124001Y-80732400D01*
X98148505Y-80733604D01*
X98148505Y-80733604D01*
G37*
D14*
X97799000Y-81432400D03*
D13*
G36*
X98148505Y-82732604D02*
G01*
X98172773Y-82736204D01*
X98196572Y-82742165D01*
X98219671Y-82750430D01*
X98241850Y-82760920D01*
X98262893Y-82773532D01*
X98282599Y-82788147D01*
X98300777Y-82804623D01*
X98317253Y-82822801D01*
X98331868Y-82842507D01*
X98344480Y-82863550D01*
X98354970Y-82885729D01*
X98363235Y-82908828D01*
X98369196Y-82932627D01*
X98372796Y-82956895D01*
X98374000Y-82981399D01*
X98374000Y-83881401D01*
X98372796Y-83905905D01*
X98369196Y-83930173D01*
X98363235Y-83953972D01*
X98354970Y-83977071D01*
X98344480Y-83999250D01*
X98331868Y-84020293D01*
X98317253Y-84039999D01*
X98300777Y-84058177D01*
X98282599Y-84074653D01*
X98262893Y-84089268D01*
X98241850Y-84101880D01*
X98219671Y-84112370D01*
X98196572Y-84120635D01*
X98172773Y-84126596D01*
X98148505Y-84130196D01*
X98124001Y-84131400D01*
X97473999Y-84131400D01*
X97449495Y-84130196D01*
X97425227Y-84126596D01*
X97401428Y-84120635D01*
X97378329Y-84112370D01*
X97356150Y-84101880D01*
X97335107Y-84089268D01*
X97315401Y-84074653D01*
X97297223Y-84058177D01*
X97280747Y-84039999D01*
X97266132Y-84020293D01*
X97253520Y-83999250D01*
X97243030Y-83977071D01*
X97234765Y-83953972D01*
X97228804Y-83930173D01*
X97225204Y-83905905D01*
X97224000Y-83881401D01*
X97224000Y-82981399D01*
X97225204Y-82956895D01*
X97228804Y-82932627D01*
X97234765Y-82908828D01*
X97243030Y-82885729D01*
X97253520Y-82863550D01*
X97266132Y-82842507D01*
X97280747Y-82822801D01*
X97297223Y-82804623D01*
X97315401Y-82788147D01*
X97335107Y-82773532D01*
X97356150Y-82760920D01*
X97378329Y-82750430D01*
X97401428Y-82742165D01*
X97425227Y-82736204D01*
X97449495Y-82732604D01*
X97473999Y-82731400D01*
X98124001Y-82731400D01*
X98148505Y-82732604D01*
X98148505Y-82732604D01*
G37*
D14*
X97799000Y-83431400D03*
D13*
G36*
X96098505Y-82732604D02*
G01*
X96122773Y-82736204D01*
X96146572Y-82742165D01*
X96169671Y-82750430D01*
X96191850Y-82760920D01*
X96212893Y-82773532D01*
X96232599Y-82788147D01*
X96250777Y-82804623D01*
X96267253Y-82822801D01*
X96281868Y-82842507D01*
X96294480Y-82863550D01*
X96304970Y-82885729D01*
X96313235Y-82908828D01*
X96319196Y-82932627D01*
X96322796Y-82956895D01*
X96324000Y-82981399D01*
X96324000Y-83881401D01*
X96322796Y-83905905D01*
X96319196Y-83930173D01*
X96313235Y-83953972D01*
X96304970Y-83977071D01*
X96294480Y-83999250D01*
X96281868Y-84020293D01*
X96267253Y-84039999D01*
X96250777Y-84058177D01*
X96232599Y-84074653D01*
X96212893Y-84089268D01*
X96191850Y-84101880D01*
X96169671Y-84112370D01*
X96146572Y-84120635D01*
X96122773Y-84126596D01*
X96098505Y-84130196D01*
X96074001Y-84131400D01*
X95423999Y-84131400D01*
X95399495Y-84130196D01*
X95375227Y-84126596D01*
X95351428Y-84120635D01*
X95328329Y-84112370D01*
X95306150Y-84101880D01*
X95285107Y-84089268D01*
X95265401Y-84074653D01*
X95247223Y-84058177D01*
X95230747Y-84039999D01*
X95216132Y-84020293D01*
X95203520Y-83999250D01*
X95193030Y-83977071D01*
X95184765Y-83953972D01*
X95178804Y-83930173D01*
X95175204Y-83905905D01*
X95174000Y-83881401D01*
X95174000Y-82981399D01*
X95175204Y-82956895D01*
X95178804Y-82932627D01*
X95184765Y-82908828D01*
X95193030Y-82885729D01*
X95203520Y-82863550D01*
X95216132Y-82842507D01*
X95230747Y-82822801D01*
X95247223Y-82804623D01*
X95265401Y-82788147D01*
X95285107Y-82773532D01*
X95306150Y-82760920D01*
X95328329Y-82750430D01*
X95351428Y-82742165D01*
X95375227Y-82736204D01*
X95399495Y-82732604D01*
X95423999Y-82731400D01*
X96074001Y-82731400D01*
X96098505Y-82732604D01*
X96098505Y-82732604D01*
G37*
D14*
X95749000Y-83431400D03*
D13*
G36*
X98264505Y-86811204D02*
G01*
X98288773Y-86814804D01*
X98312572Y-86820765D01*
X98335671Y-86829030D01*
X98357850Y-86839520D01*
X98378893Y-86852132D01*
X98398599Y-86866747D01*
X98416777Y-86883223D01*
X98433253Y-86901401D01*
X98447868Y-86921107D01*
X98460480Y-86942150D01*
X98470970Y-86964329D01*
X98479235Y-86987428D01*
X98485196Y-87011227D01*
X98488796Y-87035495D01*
X98490000Y-87059999D01*
X98490000Y-87710001D01*
X98488796Y-87734505D01*
X98485196Y-87758773D01*
X98479235Y-87782572D01*
X98470970Y-87805671D01*
X98460480Y-87827850D01*
X98447868Y-87848893D01*
X98433253Y-87868599D01*
X98416777Y-87886777D01*
X98398599Y-87903253D01*
X98378893Y-87917868D01*
X98357850Y-87930480D01*
X98335671Y-87940970D01*
X98312572Y-87949235D01*
X98288773Y-87955196D01*
X98264505Y-87958796D01*
X98240001Y-87960000D01*
X97339999Y-87960000D01*
X97315495Y-87958796D01*
X97291227Y-87955196D01*
X97267428Y-87949235D01*
X97244329Y-87940970D01*
X97222150Y-87930480D01*
X97201107Y-87917868D01*
X97181401Y-87903253D01*
X97163223Y-87886777D01*
X97146747Y-87868599D01*
X97132132Y-87848893D01*
X97119520Y-87827850D01*
X97109030Y-87805671D01*
X97100765Y-87782572D01*
X97094804Y-87758773D01*
X97091204Y-87734505D01*
X97090000Y-87710001D01*
X97090000Y-87059999D01*
X97091204Y-87035495D01*
X97094804Y-87011227D01*
X97100765Y-86987428D01*
X97109030Y-86964329D01*
X97119520Y-86942150D01*
X97132132Y-86921107D01*
X97146747Y-86901401D01*
X97163223Y-86883223D01*
X97181401Y-86866747D01*
X97201107Y-86852132D01*
X97222150Y-86839520D01*
X97244329Y-86829030D01*
X97267428Y-86820765D01*
X97291227Y-86814804D01*
X97315495Y-86811204D01*
X97339999Y-86810000D01*
X98240001Y-86810000D01*
X98264505Y-86811204D01*
X98264505Y-86811204D01*
G37*
D14*
X97790000Y-87385000D03*
D13*
G36*
X98264505Y-84761204D02*
G01*
X98288773Y-84764804D01*
X98312572Y-84770765D01*
X98335671Y-84779030D01*
X98357850Y-84789520D01*
X98378893Y-84802132D01*
X98398599Y-84816747D01*
X98416777Y-84833223D01*
X98433253Y-84851401D01*
X98447868Y-84871107D01*
X98460480Y-84892150D01*
X98470970Y-84914329D01*
X98479235Y-84937428D01*
X98485196Y-84961227D01*
X98488796Y-84985495D01*
X98490000Y-85009999D01*
X98490000Y-85660001D01*
X98488796Y-85684505D01*
X98485196Y-85708773D01*
X98479235Y-85732572D01*
X98470970Y-85755671D01*
X98460480Y-85777850D01*
X98447868Y-85798893D01*
X98433253Y-85818599D01*
X98416777Y-85836777D01*
X98398599Y-85853253D01*
X98378893Y-85867868D01*
X98357850Y-85880480D01*
X98335671Y-85890970D01*
X98312572Y-85899235D01*
X98288773Y-85905196D01*
X98264505Y-85908796D01*
X98240001Y-85910000D01*
X97339999Y-85910000D01*
X97315495Y-85908796D01*
X97291227Y-85905196D01*
X97267428Y-85899235D01*
X97244329Y-85890970D01*
X97222150Y-85880480D01*
X97201107Y-85867868D01*
X97181401Y-85853253D01*
X97163223Y-85836777D01*
X97146747Y-85818599D01*
X97132132Y-85798893D01*
X97119520Y-85777850D01*
X97109030Y-85755671D01*
X97100765Y-85732572D01*
X97094804Y-85708773D01*
X97091204Y-85684505D01*
X97090000Y-85660001D01*
X97090000Y-85009999D01*
X97091204Y-84985495D01*
X97094804Y-84961227D01*
X97100765Y-84937428D01*
X97109030Y-84914329D01*
X97119520Y-84892150D01*
X97132132Y-84871107D01*
X97146747Y-84851401D01*
X97163223Y-84833223D01*
X97181401Y-84816747D01*
X97201107Y-84802132D01*
X97222150Y-84789520D01*
X97244329Y-84779030D01*
X97267428Y-84770765D01*
X97291227Y-84764804D01*
X97315495Y-84761204D01*
X97339999Y-84760000D01*
X98240001Y-84760000D01*
X98264505Y-84761204D01*
X98264505Y-84761204D01*
G37*
D14*
X97790000Y-85335000D03*
D13*
G36*
X125823505Y-90367204D02*
G01*
X125847773Y-90370804D01*
X125871572Y-90376765D01*
X125894671Y-90385030D01*
X125916850Y-90395520D01*
X125937893Y-90408132D01*
X125957599Y-90422747D01*
X125975777Y-90439223D01*
X125992253Y-90457401D01*
X126006868Y-90477107D01*
X126019480Y-90498150D01*
X126029970Y-90520329D01*
X126038235Y-90543428D01*
X126044196Y-90567227D01*
X126047796Y-90591495D01*
X126049000Y-90615999D01*
X126049000Y-91266001D01*
X126047796Y-91290505D01*
X126044196Y-91314773D01*
X126038235Y-91338572D01*
X126029970Y-91361671D01*
X126019480Y-91383850D01*
X126006868Y-91404893D01*
X125992253Y-91424599D01*
X125975777Y-91442777D01*
X125957599Y-91459253D01*
X125937893Y-91473868D01*
X125916850Y-91486480D01*
X125894671Y-91496970D01*
X125871572Y-91505235D01*
X125847773Y-91511196D01*
X125823505Y-91514796D01*
X125799001Y-91516000D01*
X124898999Y-91516000D01*
X124874495Y-91514796D01*
X124850227Y-91511196D01*
X124826428Y-91505235D01*
X124803329Y-91496970D01*
X124781150Y-91486480D01*
X124760107Y-91473868D01*
X124740401Y-91459253D01*
X124722223Y-91442777D01*
X124705747Y-91424599D01*
X124691132Y-91404893D01*
X124678520Y-91383850D01*
X124668030Y-91361671D01*
X124659765Y-91338572D01*
X124653804Y-91314773D01*
X124650204Y-91290505D01*
X124649000Y-91266001D01*
X124649000Y-90615999D01*
X124650204Y-90591495D01*
X124653804Y-90567227D01*
X124659765Y-90543428D01*
X124668030Y-90520329D01*
X124678520Y-90498150D01*
X124691132Y-90477107D01*
X124705747Y-90457401D01*
X124722223Y-90439223D01*
X124740401Y-90422747D01*
X124760107Y-90408132D01*
X124781150Y-90395520D01*
X124803329Y-90385030D01*
X124826428Y-90376765D01*
X124850227Y-90370804D01*
X124874495Y-90367204D01*
X124898999Y-90366000D01*
X125799001Y-90366000D01*
X125823505Y-90367204D01*
X125823505Y-90367204D01*
G37*
D14*
X125349000Y-90941000D03*
D13*
G36*
X125823505Y-88317204D02*
G01*
X125847773Y-88320804D01*
X125871572Y-88326765D01*
X125894671Y-88335030D01*
X125916850Y-88345520D01*
X125937893Y-88358132D01*
X125957599Y-88372747D01*
X125975777Y-88389223D01*
X125992253Y-88407401D01*
X126006868Y-88427107D01*
X126019480Y-88448150D01*
X126029970Y-88470329D01*
X126038235Y-88493428D01*
X126044196Y-88517227D01*
X126047796Y-88541495D01*
X126049000Y-88565999D01*
X126049000Y-89216001D01*
X126047796Y-89240505D01*
X126044196Y-89264773D01*
X126038235Y-89288572D01*
X126029970Y-89311671D01*
X126019480Y-89333850D01*
X126006868Y-89354893D01*
X125992253Y-89374599D01*
X125975777Y-89392777D01*
X125957599Y-89409253D01*
X125937893Y-89423868D01*
X125916850Y-89436480D01*
X125894671Y-89446970D01*
X125871572Y-89455235D01*
X125847773Y-89461196D01*
X125823505Y-89464796D01*
X125799001Y-89466000D01*
X124898999Y-89466000D01*
X124874495Y-89464796D01*
X124850227Y-89461196D01*
X124826428Y-89455235D01*
X124803329Y-89446970D01*
X124781150Y-89436480D01*
X124760107Y-89423868D01*
X124740401Y-89409253D01*
X124722223Y-89392777D01*
X124705747Y-89374599D01*
X124691132Y-89354893D01*
X124678520Y-89333850D01*
X124668030Y-89311671D01*
X124659765Y-89288572D01*
X124653804Y-89264773D01*
X124650204Y-89240505D01*
X124649000Y-89216001D01*
X124649000Y-88565999D01*
X124650204Y-88541495D01*
X124653804Y-88517227D01*
X124659765Y-88493428D01*
X124668030Y-88470329D01*
X124678520Y-88448150D01*
X124691132Y-88427107D01*
X124705747Y-88407401D01*
X124722223Y-88389223D01*
X124740401Y-88372747D01*
X124760107Y-88358132D01*
X124781150Y-88345520D01*
X124803329Y-88335030D01*
X124826428Y-88326765D01*
X124850227Y-88320804D01*
X124874495Y-88317204D01*
X124898999Y-88316000D01*
X125799001Y-88316000D01*
X125823505Y-88317204D01*
X125823505Y-88317204D01*
G37*
D14*
X125349000Y-88891000D03*
D13*
G36*
X126204505Y-78014870D02*
G01*
X126228773Y-78018470D01*
X126252572Y-78024431D01*
X126275671Y-78032696D01*
X126297850Y-78043186D01*
X126318893Y-78055798D01*
X126338599Y-78070413D01*
X126356777Y-78086889D01*
X126373253Y-78105067D01*
X126387868Y-78124773D01*
X126400480Y-78145816D01*
X126410970Y-78167995D01*
X126419235Y-78191094D01*
X126425196Y-78214893D01*
X126428796Y-78239161D01*
X126430000Y-78263665D01*
X126430000Y-78913667D01*
X126428796Y-78938171D01*
X126425196Y-78962439D01*
X126419235Y-78986238D01*
X126410970Y-79009337D01*
X126400480Y-79031516D01*
X126387868Y-79052559D01*
X126373253Y-79072265D01*
X126356777Y-79090443D01*
X126338599Y-79106919D01*
X126318893Y-79121534D01*
X126297850Y-79134146D01*
X126275671Y-79144636D01*
X126252572Y-79152901D01*
X126228773Y-79158862D01*
X126204505Y-79162462D01*
X126180001Y-79163666D01*
X125279999Y-79163666D01*
X125255495Y-79162462D01*
X125231227Y-79158862D01*
X125207428Y-79152901D01*
X125184329Y-79144636D01*
X125162150Y-79134146D01*
X125141107Y-79121534D01*
X125121401Y-79106919D01*
X125103223Y-79090443D01*
X125086747Y-79072265D01*
X125072132Y-79052559D01*
X125059520Y-79031516D01*
X125049030Y-79009337D01*
X125040765Y-78986238D01*
X125034804Y-78962439D01*
X125031204Y-78938171D01*
X125030000Y-78913667D01*
X125030000Y-78263665D01*
X125031204Y-78239161D01*
X125034804Y-78214893D01*
X125040765Y-78191094D01*
X125049030Y-78167995D01*
X125059520Y-78145816D01*
X125072132Y-78124773D01*
X125086747Y-78105067D01*
X125103223Y-78086889D01*
X125121401Y-78070413D01*
X125141107Y-78055798D01*
X125162150Y-78043186D01*
X125184329Y-78032696D01*
X125207428Y-78024431D01*
X125231227Y-78018470D01*
X125255495Y-78014870D01*
X125279999Y-78013666D01*
X126180001Y-78013666D01*
X126204505Y-78014870D01*
X126204505Y-78014870D01*
G37*
D14*
X125730000Y-78588666D03*
D13*
G36*
X126204505Y-75964870D02*
G01*
X126228773Y-75968470D01*
X126252572Y-75974431D01*
X126275671Y-75982696D01*
X126297850Y-75993186D01*
X126318893Y-76005798D01*
X126338599Y-76020413D01*
X126356777Y-76036889D01*
X126373253Y-76055067D01*
X126387868Y-76074773D01*
X126400480Y-76095816D01*
X126410970Y-76117995D01*
X126419235Y-76141094D01*
X126425196Y-76164893D01*
X126428796Y-76189161D01*
X126430000Y-76213665D01*
X126430000Y-76863667D01*
X126428796Y-76888171D01*
X126425196Y-76912439D01*
X126419235Y-76936238D01*
X126410970Y-76959337D01*
X126400480Y-76981516D01*
X126387868Y-77002559D01*
X126373253Y-77022265D01*
X126356777Y-77040443D01*
X126338599Y-77056919D01*
X126318893Y-77071534D01*
X126297850Y-77084146D01*
X126275671Y-77094636D01*
X126252572Y-77102901D01*
X126228773Y-77108862D01*
X126204505Y-77112462D01*
X126180001Y-77113666D01*
X125279999Y-77113666D01*
X125255495Y-77112462D01*
X125231227Y-77108862D01*
X125207428Y-77102901D01*
X125184329Y-77094636D01*
X125162150Y-77084146D01*
X125141107Y-77071534D01*
X125121401Y-77056919D01*
X125103223Y-77040443D01*
X125086747Y-77022265D01*
X125072132Y-77002559D01*
X125059520Y-76981516D01*
X125049030Y-76959337D01*
X125040765Y-76936238D01*
X125034804Y-76912439D01*
X125031204Y-76888171D01*
X125030000Y-76863667D01*
X125030000Y-76213665D01*
X125031204Y-76189161D01*
X125034804Y-76164893D01*
X125040765Y-76141094D01*
X125049030Y-76117995D01*
X125059520Y-76095816D01*
X125072132Y-76074773D01*
X125086747Y-76055067D01*
X125103223Y-76036889D01*
X125121401Y-76020413D01*
X125141107Y-76005798D01*
X125162150Y-75993186D01*
X125184329Y-75982696D01*
X125207428Y-75974431D01*
X125231227Y-75968470D01*
X125255495Y-75964870D01*
X125279999Y-75963666D01*
X126180001Y-75963666D01*
X126204505Y-75964870D01*
X126204505Y-75964870D01*
G37*
D14*
X125730000Y-76538666D03*
D13*
G36*
X124172505Y-75964870D02*
G01*
X124196773Y-75968470D01*
X124220572Y-75974431D01*
X124243671Y-75982696D01*
X124265850Y-75993186D01*
X124286893Y-76005798D01*
X124306599Y-76020413D01*
X124324777Y-76036889D01*
X124341253Y-76055067D01*
X124355868Y-76074773D01*
X124368480Y-76095816D01*
X124378970Y-76117995D01*
X124387235Y-76141094D01*
X124393196Y-76164893D01*
X124396796Y-76189161D01*
X124398000Y-76213665D01*
X124398000Y-76863667D01*
X124396796Y-76888171D01*
X124393196Y-76912439D01*
X124387235Y-76936238D01*
X124378970Y-76959337D01*
X124368480Y-76981516D01*
X124355868Y-77002559D01*
X124341253Y-77022265D01*
X124324777Y-77040443D01*
X124306599Y-77056919D01*
X124286893Y-77071534D01*
X124265850Y-77084146D01*
X124243671Y-77094636D01*
X124220572Y-77102901D01*
X124196773Y-77108862D01*
X124172505Y-77112462D01*
X124148001Y-77113666D01*
X123247999Y-77113666D01*
X123223495Y-77112462D01*
X123199227Y-77108862D01*
X123175428Y-77102901D01*
X123152329Y-77094636D01*
X123130150Y-77084146D01*
X123109107Y-77071534D01*
X123089401Y-77056919D01*
X123071223Y-77040443D01*
X123054747Y-77022265D01*
X123040132Y-77002559D01*
X123027520Y-76981516D01*
X123017030Y-76959337D01*
X123008765Y-76936238D01*
X123002804Y-76912439D01*
X122999204Y-76888171D01*
X122998000Y-76863667D01*
X122998000Y-76213665D01*
X122999204Y-76189161D01*
X123002804Y-76164893D01*
X123008765Y-76141094D01*
X123017030Y-76117995D01*
X123027520Y-76095816D01*
X123040132Y-76074773D01*
X123054747Y-76055067D01*
X123071223Y-76036889D01*
X123089401Y-76020413D01*
X123109107Y-76005798D01*
X123130150Y-75993186D01*
X123152329Y-75982696D01*
X123175428Y-75974431D01*
X123199227Y-75968470D01*
X123223495Y-75964870D01*
X123247999Y-75963666D01*
X124148001Y-75963666D01*
X124172505Y-75964870D01*
X124172505Y-75964870D01*
G37*
D14*
X123698000Y-76538666D03*
D13*
G36*
X124172505Y-78014870D02*
G01*
X124196773Y-78018470D01*
X124220572Y-78024431D01*
X124243671Y-78032696D01*
X124265850Y-78043186D01*
X124286893Y-78055798D01*
X124306599Y-78070413D01*
X124324777Y-78086889D01*
X124341253Y-78105067D01*
X124355868Y-78124773D01*
X124368480Y-78145816D01*
X124378970Y-78167995D01*
X124387235Y-78191094D01*
X124393196Y-78214893D01*
X124396796Y-78239161D01*
X124398000Y-78263665D01*
X124398000Y-78913667D01*
X124396796Y-78938171D01*
X124393196Y-78962439D01*
X124387235Y-78986238D01*
X124378970Y-79009337D01*
X124368480Y-79031516D01*
X124355868Y-79052559D01*
X124341253Y-79072265D01*
X124324777Y-79090443D01*
X124306599Y-79106919D01*
X124286893Y-79121534D01*
X124265850Y-79134146D01*
X124243671Y-79144636D01*
X124220572Y-79152901D01*
X124196773Y-79158862D01*
X124172505Y-79162462D01*
X124148001Y-79163666D01*
X123247999Y-79163666D01*
X123223495Y-79162462D01*
X123199227Y-79158862D01*
X123175428Y-79152901D01*
X123152329Y-79144636D01*
X123130150Y-79134146D01*
X123109107Y-79121534D01*
X123089401Y-79106919D01*
X123071223Y-79090443D01*
X123054747Y-79072265D01*
X123040132Y-79052559D01*
X123027520Y-79031516D01*
X123017030Y-79009337D01*
X123008765Y-78986238D01*
X123002804Y-78962439D01*
X122999204Y-78938171D01*
X122998000Y-78913667D01*
X122998000Y-78263665D01*
X122999204Y-78239161D01*
X123002804Y-78214893D01*
X123008765Y-78191094D01*
X123017030Y-78167995D01*
X123027520Y-78145816D01*
X123040132Y-78124773D01*
X123054747Y-78105067D01*
X123071223Y-78086889D01*
X123089401Y-78070413D01*
X123109107Y-78055798D01*
X123130150Y-78043186D01*
X123152329Y-78032696D01*
X123175428Y-78024431D01*
X123199227Y-78018470D01*
X123223495Y-78014870D01*
X123247999Y-78013666D01*
X124148001Y-78013666D01*
X124172505Y-78014870D01*
X124172505Y-78014870D01*
G37*
D14*
X123698000Y-78588666D03*
D13*
G36*
X120108505Y-71812704D02*
G01*
X120132773Y-71816304D01*
X120156572Y-71822265D01*
X120179671Y-71830530D01*
X120201850Y-71841020D01*
X120222893Y-71853632D01*
X120242599Y-71868247D01*
X120260777Y-71884723D01*
X120277253Y-71902901D01*
X120291868Y-71922607D01*
X120304480Y-71943650D01*
X120314970Y-71965829D01*
X120323235Y-71988928D01*
X120329196Y-72012727D01*
X120332796Y-72036995D01*
X120334000Y-72061499D01*
X120334000Y-72711501D01*
X120332796Y-72736005D01*
X120329196Y-72760273D01*
X120323235Y-72784072D01*
X120314970Y-72807171D01*
X120304480Y-72829350D01*
X120291868Y-72850393D01*
X120277253Y-72870099D01*
X120260777Y-72888277D01*
X120242599Y-72904753D01*
X120222893Y-72919368D01*
X120201850Y-72931980D01*
X120179671Y-72942470D01*
X120156572Y-72950735D01*
X120132773Y-72956696D01*
X120108505Y-72960296D01*
X120084001Y-72961500D01*
X119183999Y-72961500D01*
X119159495Y-72960296D01*
X119135227Y-72956696D01*
X119111428Y-72950735D01*
X119088329Y-72942470D01*
X119066150Y-72931980D01*
X119045107Y-72919368D01*
X119025401Y-72904753D01*
X119007223Y-72888277D01*
X118990747Y-72870099D01*
X118976132Y-72850393D01*
X118963520Y-72829350D01*
X118953030Y-72807171D01*
X118944765Y-72784072D01*
X118938804Y-72760273D01*
X118935204Y-72736005D01*
X118934000Y-72711501D01*
X118934000Y-72061499D01*
X118935204Y-72036995D01*
X118938804Y-72012727D01*
X118944765Y-71988928D01*
X118953030Y-71965829D01*
X118963520Y-71943650D01*
X118976132Y-71922607D01*
X118990747Y-71902901D01*
X119007223Y-71884723D01*
X119025401Y-71868247D01*
X119045107Y-71853632D01*
X119066150Y-71841020D01*
X119088329Y-71830530D01*
X119111428Y-71822265D01*
X119135227Y-71816304D01*
X119159495Y-71812704D01*
X119183999Y-71811500D01*
X120084001Y-71811500D01*
X120108505Y-71812704D01*
X120108505Y-71812704D01*
G37*
D14*
X119634000Y-72386500D03*
D13*
G36*
X120108505Y-69762704D02*
G01*
X120132773Y-69766304D01*
X120156572Y-69772265D01*
X120179671Y-69780530D01*
X120201850Y-69791020D01*
X120222893Y-69803632D01*
X120242599Y-69818247D01*
X120260777Y-69834723D01*
X120277253Y-69852901D01*
X120291868Y-69872607D01*
X120304480Y-69893650D01*
X120314970Y-69915829D01*
X120323235Y-69938928D01*
X120329196Y-69962727D01*
X120332796Y-69986995D01*
X120334000Y-70011499D01*
X120334000Y-70661501D01*
X120332796Y-70686005D01*
X120329196Y-70710273D01*
X120323235Y-70734072D01*
X120314970Y-70757171D01*
X120304480Y-70779350D01*
X120291868Y-70800393D01*
X120277253Y-70820099D01*
X120260777Y-70838277D01*
X120242599Y-70854753D01*
X120222893Y-70869368D01*
X120201850Y-70881980D01*
X120179671Y-70892470D01*
X120156572Y-70900735D01*
X120132773Y-70906696D01*
X120108505Y-70910296D01*
X120084001Y-70911500D01*
X119183999Y-70911500D01*
X119159495Y-70910296D01*
X119135227Y-70906696D01*
X119111428Y-70900735D01*
X119088329Y-70892470D01*
X119066150Y-70881980D01*
X119045107Y-70869368D01*
X119025401Y-70854753D01*
X119007223Y-70838277D01*
X118990747Y-70820099D01*
X118976132Y-70800393D01*
X118963520Y-70779350D01*
X118953030Y-70757171D01*
X118944765Y-70734072D01*
X118938804Y-70710273D01*
X118935204Y-70686005D01*
X118934000Y-70661501D01*
X118934000Y-70011499D01*
X118935204Y-69986995D01*
X118938804Y-69962727D01*
X118944765Y-69938928D01*
X118953030Y-69915829D01*
X118963520Y-69893650D01*
X118976132Y-69872607D01*
X118990747Y-69852901D01*
X119007223Y-69834723D01*
X119025401Y-69818247D01*
X119045107Y-69803632D01*
X119066150Y-69791020D01*
X119088329Y-69780530D01*
X119111428Y-69772265D01*
X119135227Y-69766304D01*
X119159495Y-69762704D01*
X119183999Y-69761500D01*
X120084001Y-69761500D01*
X120108505Y-69762704D01*
X120108505Y-69762704D01*
G37*
D14*
X119634000Y-70336500D03*
D13*
G36*
X122054005Y-69776204D02*
G01*
X122078273Y-69779804D01*
X122102072Y-69785765D01*
X122125171Y-69794030D01*
X122147350Y-69804520D01*
X122168393Y-69817132D01*
X122188099Y-69831747D01*
X122206277Y-69848223D01*
X122222753Y-69866401D01*
X122237368Y-69886107D01*
X122249980Y-69907150D01*
X122260470Y-69929329D01*
X122268735Y-69952428D01*
X122274696Y-69976227D01*
X122278296Y-70000495D01*
X122279500Y-70024999D01*
X122279500Y-70675001D01*
X122278296Y-70699505D01*
X122274696Y-70723773D01*
X122268735Y-70747572D01*
X122260470Y-70770671D01*
X122249980Y-70792850D01*
X122237368Y-70813893D01*
X122222753Y-70833599D01*
X122206277Y-70851777D01*
X122188099Y-70868253D01*
X122168393Y-70882868D01*
X122147350Y-70895480D01*
X122125171Y-70905970D01*
X122102072Y-70914235D01*
X122078273Y-70920196D01*
X122054005Y-70923796D01*
X122029501Y-70925000D01*
X121129499Y-70925000D01*
X121104995Y-70923796D01*
X121080727Y-70920196D01*
X121056928Y-70914235D01*
X121033829Y-70905970D01*
X121011650Y-70895480D01*
X120990607Y-70882868D01*
X120970901Y-70868253D01*
X120952723Y-70851777D01*
X120936247Y-70833599D01*
X120921632Y-70813893D01*
X120909020Y-70792850D01*
X120898530Y-70770671D01*
X120890265Y-70747572D01*
X120884304Y-70723773D01*
X120880704Y-70699505D01*
X120879500Y-70675001D01*
X120879500Y-70024999D01*
X120880704Y-70000495D01*
X120884304Y-69976227D01*
X120890265Y-69952428D01*
X120898530Y-69929329D01*
X120909020Y-69907150D01*
X120921632Y-69886107D01*
X120936247Y-69866401D01*
X120952723Y-69848223D01*
X120970901Y-69831747D01*
X120990607Y-69817132D01*
X121011650Y-69804520D01*
X121033829Y-69794030D01*
X121056928Y-69785765D01*
X121080727Y-69779804D01*
X121104995Y-69776204D01*
X121129499Y-69775000D01*
X122029501Y-69775000D01*
X122054005Y-69776204D01*
X122054005Y-69776204D01*
G37*
D14*
X121579500Y-70350000D03*
D13*
G36*
X122054005Y-71826204D02*
G01*
X122078273Y-71829804D01*
X122102072Y-71835765D01*
X122125171Y-71844030D01*
X122147350Y-71854520D01*
X122168393Y-71867132D01*
X122188099Y-71881747D01*
X122206277Y-71898223D01*
X122222753Y-71916401D01*
X122237368Y-71936107D01*
X122249980Y-71957150D01*
X122260470Y-71979329D01*
X122268735Y-72002428D01*
X122274696Y-72026227D01*
X122278296Y-72050495D01*
X122279500Y-72074999D01*
X122279500Y-72725001D01*
X122278296Y-72749505D01*
X122274696Y-72773773D01*
X122268735Y-72797572D01*
X122260470Y-72820671D01*
X122249980Y-72842850D01*
X122237368Y-72863893D01*
X122222753Y-72883599D01*
X122206277Y-72901777D01*
X122188099Y-72918253D01*
X122168393Y-72932868D01*
X122147350Y-72945480D01*
X122125171Y-72955970D01*
X122102072Y-72964235D01*
X122078273Y-72970196D01*
X122054005Y-72973796D01*
X122029501Y-72975000D01*
X121129499Y-72975000D01*
X121104995Y-72973796D01*
X121080727Y-72970196D01*
X121056928Y-72964235D01*
X121033829Y-72955970D01*
X121011650Y-72945480D01*
X120990607Y-72932868D01*
X120970901Y-72918253D01*
X120952723Y-72901777D01*
X120936247Y-72883599D01*
X120921632Y-72863893D01*
X120909020Y-72842850D01*
X120898530Y-72820671D01*
X120890265Y-72797572D01*
X120884304Y-72773773D01*
X120880704Y-72749505D01*
X120879500Y-72725001D01*
X120879500Y-72074999D01*
X120880704Y-72050495D01*
X120884304Y-72026227D01*
X120890265Y-72002428D01*
X120898530Y-71979329D01*
X120909020Y-71957150D01*
X120921632Y-71936107D01*
X120936247Y-71916401D01*
X120952723Y-71898223D01*
X120970901Y-71881747D01*
X120990607Y-71867132D01*
X121011650Y-71854520D01*
X121033829Y-71844030D01*
X121056928Y-71835765D01*
X121080727Y-71829804D01*
X121104995Y-71826204D01*
X121129499Y-71825000D01*
X122029501Y-71825000D01*
X122054005Y-71826204D01*
X122054005Y-71826204D01*
G37*
D14*
X121579500Y-72400000D03*
D13*
G36*
X123999505Y-73812704D02*
G01*
X124023773Y-73816304D01*
X124047572Y-73822265D01*
X124070671Y-73830530D01*
X124092850Y-73841020D01*
X124113893Y-73853632D01*
X124133599Y-73868247D01*
X124151777Y-73884723D01*
X124168253Y-73902901D01*
X124182868Y-73922607D01*
X124195480Y-73943650D01*
X124205970Y-73965829D01*
X124214235Y-73988928D01*
X124220196Y-74012727D01*
X124223796Y-74036995D01*
X124225000Y-74061499D01*
X124225000Y-74711501D01*
X124223796Y-74736005D01*
X124220196Y-74760273D01*
X124214235Y-74784072D01*
X124205970Y-74807171D01*
X124195480Y-74829350D01*
X124182868Y-74850393D01*
X124168253Y-74870099D01*
X124151777Y-74888277D01*
X124133599Y-74904753D01*
X124113893Y-74919368D01*
X124092850Y-74931980D01*
X124070671Y-74942470D01*
X124047572Y-74950735D01*
X124023773Y-74956696D01*
X123999505Y-74960296D01*
X123975001Y-74961500D01*
X123074999Y-74961500D01*
X123050495Y-74960296D01*
X123026227Y-74956696D01*
X123002428Y-74950735D01*
X122979329Y-74942470D01*
X122957150Y-74931980D01*
X122936107Y-74919368D01*
X122916401Y-74904753D01*
X122898223Y-74888277D01*
X122881747Y-74870099D01*
X122867132Y-74850393D01*
X122854520Y-74829350D01*
X122844030Y-74807171D01*
X122835765Y-74784072D01*
X122829804Y-74760273D01*
X122826204Y-74736005D01*
X122825000Y-74711501D01*
X122825000Y-74061499D01*
X122826204Y-74036995D01*
X122829804Y-74012727D01*
X122835765Y-73988928D01*
X122844030Y-73965829D01*
X122854520Y-73943650D01*
X122867132Y-73922607D01*
X122881747Y-73902901D01*
X122898223Y-73884723D01*
X122916401Y-73868247D01*
X122936107Y-73853632D01*
X122957150Y-73841020D01*
X122979329Y-73830530D01*
X123002428Y-73822265D01*
X123026227Y-73816304D01*
X123050495Y-73812704D01*
X123074999Y-73811500D01*
X123975001Y-73811500D01*
X123999505Y-73812704D01*
X123999505Y-73812704D01*
G37*
D14*
X123525000Y-74386500D03*
D13*
G36*
X123999505Y-71762704D02*
G01*
X124023773Y-71766304D01*
X124047572Y-71772265D01*
X124070671Y-71780530D01*
X124092850Y-71791020D01*
X124113893Y-71803632D01*
X124133599Y-71818247D01*
X124151777Y-71834723D01*
X124168253Y-71852901D01*
X124182868Y-71872607D01*
X124195480Y-71893650D01*
X124205970Y-71915829D01*
X124214235Y-71938928D01*
X124220196Y-71962727D01*
X124223796Y-71986995D01*
X124225000Y-72011499D01*
X124225000Y-72661501D01*
X124223796Y-72686005D01*
X124220196Y-72710273D01*
X124214235Y-72734072D01*
X124205970Y-72757171D01*
X124195480Y-72779350D01*
X124182868Y-72800393D01*
X124168253Y-72820099D01*
X124151777Y-72838277D01*
X124133599Y-72854753D01*
X124113893Y-72869368D01*
X124092850Y-72881980D01*
X124070671Y-72892470D01*
X124047572Y-72900735D01*
X124023773Y-72906696D01*
X123999505Y-72910296D01*
X123975001Y-72911500D01*
X123074999Y-72911500D01*
X123050495Y-72910296D01*
X123026227Y-72906696D01*
X123002428Y-72900735D01*
X122979329Y-72892470D01*
X122957150Y-72881980D01*
X122936107Y-72869368D01*
X122916401Y-72854753D01*
X122898223Y-72838277D01*
X122881747Y-72820099D01*
X122867132Y-72800393D01*
X122854520Y-72779350D01*
X122844030Y-72757171D01*
X122835765Y-72734072D01*
X122829804Y-72710273D01*
X122826204Y-72686005D01*
X122825000Y-72661501D01*
X122825000Y-72011499D01*
X122826204Y-71986995D01*
X122829804Y-71962727D01*
X122835765Y-71938928D01*
X122844030Y-71915829D01*
X122854520Y-71893650D01*
X122867132Y-71872607D01*
X122881747Y-71852901D01*
X122898223Y-71834723D01*
X122916401Y-71818247D01*
X122936107Y-71803632D01*
X122957150Y-71791020D01*
X122979329Y-71780530D01*
X123002428Y-71772265D01*
X123026227Y-71766304D01*
X123050495Y-71762704D01*
X123074999Y-71761500D01*
X123975001Y-71761500D01*
X123999505Y-71762704D01*
X123999505Y-71762704D01*
G37*
D14*
X123525000Y-72336500D03*
D13*
G36*
X119394504Y-83675204D02*
G01*
X119418773Y-83678804D01*
X119442571Y-83684765D01*
X119465671Y-83693030D01*
X119487849Y-83703520D01*
X119508893Y-83716133D01*
X119528598Y-83730747D01*
X119546777Y-83747223D01*
X119563253Y-83765402D01*
X119577867Y-83785107D01*
X119590480Y-83806151D01*
X119600970Y-83828329D01*
X119609235Y-83851429D01*
X119615196Y-83875227D01*
X119618796Y-83899496D01*
X119620000Y-83924000D01*
X119620000Y-84849000D01*
X119618796Y-84873504D01*
X119615196Y-84897773D01*
X119609235Y-84921571D01*
X119600970Y-84944671D01*
X119590480Y-84966849D01*
X119577867Y-84987893D01*
X119563253Y-85007598D01*
X119546777Y-85025777D01*
X119528598Y-85042253D01*
X119508893Y-85056867D01*
X119487849Y-85069480D01*
X119465671Y-85079970D01*
X119442571Y-85088235D01*
X119418773Y-85094196D01*
X119394504Y-85097796D01*
X119370000Y-85099000D01*
X118120000Y-85099000D01*
X118095496Y-85097796D01*
X118071227Y-85094196D01*
X118047429Y-85088235D01*
X118024329Y-85079970D01*
X118002151Y-85069480D01*
X117981107Y-85056867D01*
X117961402Y-85042253D01*
X117943223Y-85025777D01*
X117926747Y-85007598D01*
X117912133Y-84987893D01*
X117899520Y-84966849D01*
X117889030Y-84944671D01*
X117880765Y-84921571D01*
X117874804Y-84897773D01*
X117871204Y-84873504D01*
X117870000Y-84849000D01*
X117870000Y-83924000D01*
X117871204Y-83899496D01*
X117874804Y-83875227D01*
X117880765Y-83851429D01*
X117889030Y-83828329D01*
X117899520Y-83806151D01*
X117912133Y-83785107D01*
X117926747Y-83765402D01*
X117943223Y-83747223D01*
X117961402Y-83730747D01*
X117981107Y-83716133D01*
X118002151Y-83703520D01*
X118024329Y-83693030D01*
X118047429Y-83684765D01*
X118071227Y-83678804D01*
X118095496Y-83675204D01*
X118120000Y-83674000D01*
X119370000Y-83674000D01*
X119394504Y-83675204D01*
X119394504Y-83675204D01*
G37*
D15*
X118745000Y-84386500D03*
D13*
G36*
X119394504Y-86650204D02*
G01*
X119418773Y-86653804D01*
X119442571Y-86659765D01*
X119465671Y-86668030D01*
X119487849Y-86678520D01*
X119508893Y-86691133D01*
X119528598Y-86705747D01*
X119546777Y-86722223D01*
X119563253Y-86740402D01*
X119577867Y-86760107D01*
X119590480Y-86781151D01*
X119600970Y-86803329D01*
X119609235Y-86826429D01*
X119615196Y-86850227D01*
X119618796Y-86874496D01*
X119620000Y-86899000D01*
X119620000Y-87824000D01*
X119618796Y-87848504D01*
X119615196Y-87872773D01*
X119609235Y-87896571D01*
X119600970Y-87919671D01*
X119590480Y-87941849D01*
X119577867Y-87962893D01*
X119563253Y-87982598D01*
X119546777Y-88000777D01*
X119528598Y-88017253D01*
X119508893Y-88031867D01*
X119487849Y-88044480D01*
X119465671Y-88054970D01*
X119442571Y-88063235D01*
X119418773Y-88069196D01*
X119394504Y-88072796D01*
X119370000Y-88074000D01*
X118120000Y-88074000D01*
X118095496Y-88072796D01*
X118071227Y-88069196D01*
X118047429Y-88063235D01*
X118024329Y-88054970D01*
X118002151Y-88044480D01*
X117981107Y-88031867D01*
X117961402Y-88017253D01*
X117943223Y-88000777D01*
X117926747Y-87982598D01*
X117912133Y-87962893D01*
X117899520Y-87941849D01*
X117889030Y-87919671D01*
X117880765Y-87896571D01*
X117874804Y-87872773D01*
X117871204Y-87848504D01*
X117870000Y-87824000D01*
X117870000Y-86899000D01*
X117871204Y-86874496D01*
X117874804Y-86850227D01*
X117880765Y-86826429D01*
X117889030Y-86803329D01*
X117899520Y-86781151D01*
X117912133Y-86760107D01*
X117926747Y-86740402D01*
X117943223Y-86722223D01*
X117961402Y-86705747D01*
X117981107Y-86691133D01*
X118002151Y-86678520D01*
X118024329Y-86668030D01*
X118047429Y-86659765D01*
X118071227Y-86653804D01*
X118095496Y-86650204D01*
X118120000Y-86649000D01*
X119370000Y-86649000D01*
X119394504Y-86650204D01*
X119394504Y-86650204D01*
G37*
D15*
X118745000Y-87361500D03*
D13*
G36*
X119394504Y-81675204D02*
G01*
X119418773Y-81678804D01*
X119442571Y-81684765D01*
X119465671Y-81693030D01*
X119487849Y-81703520D01*
X119508893Y-81716133D01*
X119528598Y-81730747D01*
X119546777Y-81747223D01*
X119563253Y-81765402D01*
X119577867Y-81785107D01*
X119590480Y-81806151D01*
X119600970Y-81828329D01*
X119609235Y-81851429D01*
X119615196Y-81875227D01*
X119618796Y-81899496D01*
X119620000Y-81924000D01*
X119620000Y-82849000D01*
X119618796Y-82873504D01*
X119615196Y-82897773D01*
X119609235Y-82921571D01*
X119600970Y-82944671D01*
X119590480Y-82966849D01*
X119577867Y-82987893D01*
X119563253Y-83007598D01*
X119546777Y-83025777D01*
X119528598Y-83042253D01*
X119508893Y-83056867D01*
X119487849Y-83069480D01*
X119465671Y-83079970D01*
X119442571Y-83088235D01*
X119418773Y-83094196D01*
X119394504Y-83097796D01*
X119370000Y-83099000D01*
X118120000Y-83099000D01*
X118095496Y-83097796D01*
X118071227Y-83094196D01*
X118047429Y-83088235D01*
X118024329Y-83079970D01*
X118002151Y-83069480D01*
X117981107Y-83056867D01*
X117961402Y-83042253D01*
X117943223Y-83025777D01*
X117926747Y-83007598D01*
X117912133Y-82987893D01*
X117899520Y-82966849D01*
X117889030Y-82944671D01*
X117880765Y-82921571D01*
X117874804Y-82897773D01*
X117871204Y-82873504D01*
X117870000Y-82849000D01*
X117870000Y-81924000D01*
X117871204Y-81899496D01*
X117874804Y-81875227D01*
X117880765Y-81851429D01*
X117889030Y-81828329D01*
X117899520Y-81806151D01*
X117912133Y-81785107D01*
X117926747Y-81765402D01*
X117943223Y-81747223D01*
X117961402Y-81730747D01*
X117981107Y-81716133D01*
X118002151Y-81703520D01*
X118024329Y-81693030D01*
X118047429Y-81684765D01*
X118071227Y-81678804D01*
X118095496Y-81675204D01*
X118120000Y-81674000D01*
X119370000Y-81674000D01*
X119394504Y-81675204D01*
X119394504Y-81675204D01*
G37*
D15*
X118745000Y-82386500D03*
D13*
G36*
X119394504Y-78700204D02*
G01*
X119418773Y-78703804D01*
X119442571Y-78709765D01*
X119465671Y-78718030D01*
X119487849Y-78728520D01*
X119508893Y-78741133D01*
X119528598Y-78755747D01*
X119546777Y-78772223D01*
X119563253Y-78790402D01*
X119577867Y-78810107D01*
X119590480Y-78831151D01*
X119600970Y-78853329D01*
X119609235Y-78876429D01*
X119615196Y-78900227D01*
X119618796Y-78924496D01*
X119620000Y-78949000D01*
X119620000Y-79874000D01*
X119618796Y-79898504D01*
X119615196Y-79922773D01*
X119609235Y-79946571D01*
X119600970Y-79969671D01*
X119590480Y-79991849D01*
X119577867Y-80012893D01*
X119563253Y-80032598D01*
X119546777Y-80050777D01*
X119528598Y-80067253D01*
X119508893Y-80081867D01*
X119487849Y-80094480D01*
X119465671Y-80104970D01*
X119442571Y-80113235D01*
X119418773Y-80119196D01*
X119394504Y-80122796D01*
X119370000Y-80124000D01*
X118120000Y-80124000D01*
X118095496Y-80122796D01*
X118071227Y-80119196D01*
X118047429Y-80113235D01*
X118024329Y-80104970D01*
X118002151Y-80094480D01*
X117981107Y-80081867D01*
X117961402Y-80067253D01*
X117943223Y-80050777D01*
X117926747Y-80032598D01*
X117912133Y-80012893D01*
X117899520Y-79991849D01*
X117889030Y-79969671D01*
X117880765Y-79946571D01*
X117874804Y-79922773D01*
X117871204Y-79898504D01*
X117870000Y-79874000D01*
X117870000Y-78949000D01*
X117871204Y-78924496D01*
X117874804Y-78900227D01*
X117880765Y-78876429D01*
X117889030Y-78853329D01*
X117899520Y-78831151D01*
X117912133Y-78810107D01*
X117926747Y-78790402D01*
X117943223Y-78772223D01*
X117961402Y-78755747D01*
X117981107Y-78741133D01*
X118002151Y-78728520D01*
X118024329Y-78718030D01*
X118047429Y-78709765D01*
X118071227Y-78703804D01*
X118095496Y-78700204D01*
X118120000Y-78699000D01*
X119370000Y-78699000D01*
X119394504Y-78700204D01*
X119394504Y-78700204D01*
G37*
D15*
X118745000Y-79411500D03*
D16*
X93974000Y-70576500D03*
X93974000Y-71846500D03*
X93974000Y-73116500D03*
X93974000Y-74386500D03*
X93974000Y-75656500D03*
X93974000Y-76926500D03*
X93974000Y-78196500D03*
X93974000Y-79466500D03*
X86874000Y-79466500D03*
X86874000Y-78196500D03*
X86874000Y-76926500D03*
X86874000Y-75656500D03*
X86874000Y-74386500D03*
X86874000Y-73116500D03*
X86874000Y-71846500D03*
X86874000Y-70576500D03*
M02*
